<?xml version="1.0" standalone="no"?>
<!DOCTYPE svg PUBLIC "-//W3C//DTD SVG 1.1//EN" "http://www.w3.org/Graphics/SVG/1.1/DTD/svg11.dtd" >
<svg xmlns="http://www.w3.org/2000/svg">
<metadata>
This is a custom SVG webfont generated by Font Squirrel.
Copyright   : c Copyright 19941995 as an unpublished work by Galapagos Design Group Inc  All rights reserved
</metadata>
<defs>
<font id="HumanaSansITCMediumItalic" horiz-adv-x="1024" >
<font-face units-per-em="2048" ascent="1638" descent="-410" />
<missing-glyph horiz-adv-x="456" />
<glyph unicode=" "  horiz-adv-x="456" />
<glyph unicode="&#x09;" horiz-adv-x="456" />
<glyph unicode="&#xa0;" horiz-adv-x="456" />
<glyph unicode="!" horiz-adv-x="657" d="M145 76q0 53 36 90t83 37q39 0 64.5 -26.5t25.5 -67.5q0 -53 -35.5 -91t-82.5 -38q-41 0 -66 26.5t-25 69.5zM199 344l63 987l289 25l-180 -996z" />
<glyph unicode="&#x22;" horiz-adv-x="643" d="M86 879v557h164v-557h-164zM395 879v557h164v-557h-164z" />
<glyph unicode="#" horiz-adv-x="1437" d="M53 410l15 92h317l107 325h-334l14 93h348l152 464l123 -18l-144 -446h285l149 464l125 -18l-145 -446h319l-12 -91h-336l-104 -327h348l-12 -90h-367l-156 -492l-127 19l154 471h-287l-155 -490l-125 19l151 471h-303zM518 502h283l106 325h-286z" />
<glyph unicode="$" horiz-adv-x="929" d="M-12 86l84 158q104 -74 233 -80l55 436q-139 61 -203.5 137t-64.5 191q0 174 119 274.5t346 110.5l14 125h97l-17 -125q158 0 291 -78l-96 -156q-90 78 -211 90l-55 -446q131 -59 195.5 -135t64.5 -174q0 -154 -117 -259.5t-340 -140.5l-21 -166h-96l21 164 q-162 11 -299 74zM354 965q0 -66 33 -111t102 -84l50 397q-185 -52 -185 -202zM403 170q176 51 177 205q0 59 -32 101t-99 77z" />
<glyph unicode="%" horiz-adv-x="1617" d="M100 926q0 94 30 172t82 134t125 87t159 31q147 0 231 -81t84 -220q0 -94 -29.5 -173t-83 -135.5t-127 -88t-163.5 -31.5q-145 0 -226.5 81t-81.5 224zM242 -188l1024 1716h102l-1022 -1716h-104zM254 936q0 -98 46 -153.5t120 -55.5q47 0 90 23.5t75.5 65.5t52 98.5 t19.5 121.5q0 94 -49 151.5t-125 57.5q-45 0 -86 -23.5t-72.5 -64.5t-51 -97t-19.5 -124zM770 260q0 92 29.5 171t82 135.5t125 88t158.5 31.5q147 0 231.5 -80t84.5 -221q0 -94 -30 -173t-83 -135.5t-127 -88t-164 -31.5q-143 0 -225 81t-82 222zM924 289q0 -111 44 -169.5 t122 -58.5q47 0 90 24t75.5 66t52 98t19.5 122q0 96 -49 153.5t-125 57.5q-45 0 -86 -23.5t-72.5 -64.5t-51 -94.5t-19.5 -110.5z" />
<glyph unicode="&#x26;" horiz-adv-x="1474" d="M109 322q0 172 62 351t179 326q98 127 217 191.5t248 64.5q154 0 232.5 -57t78.5 -168q0 -76 -26.5 -142.5t-76.5 -116.5t-119.5 -83t-155.5 -41l679 -620l-262 -78l-153 157q-109 -78 -233 -109.5t-279 -31.5q-193 0 -292 91.5t-99 265.5zM328 367q0 -141 67.5 -217 t194.5 -76q82 0 160.5 35.5t140.5 105.5l-473 508q-90 -211 -90 -356zM526 864q0 -129 131 -129q51 0 98.5 23.5t83 63.5t57.5 93.5t22 114.5q0 55 -31 85t-86 30t-104.5 -23.5t-87.5 -63.5t-60.5 -90.5t-22.5 -103.5z" />
<glyph unicode="'" horiz-adv-x="333" d="M86 879v557h164v-557h-164z" />
<glyph unicode="(" horiz-adv-x="628" d="M145 53q0 66 5.5 160t17.5 208t31.5 244t48.5 269t67.5 247.5t92 188.5t125 133t165.5 80l-10 -90q-59 -37 -100 -95.5t-71 -139t-53.5 -185t-43.5 -233.5q-59 -354 -76.5 -578.5t-17.5 -300.5q0 -147 29.5 -242.5t97.5 -144.5l-13 -88q-154 35 -224.5 173t-70.5 394z " />
<glyph unicode=")" horiz-adv-x="628" d="M-70 -514l11 88q57 35 98 91t70.5 133t52 175.5t43.5 219.5q31 178 49 328.5t28.5 267t14.5 196.5t4 119q0 147 -29.5 243.5t-95.5 145.5l12 90q156 -41 225.5 -177t69.5 -384q0 -129 -14 -261l-31 -274q-14 -115 -31.5 -229.5t-48.5 -230.5q-127 -484 -428 -541z" />
<glyph unicode="*" horiz-adv-x="651" d="M63 1016l27 104l211 -6l-96 193l104 34l74 -186l111 186l96 -34l-141 -193l221 8l-27 -106l-207 8l96 -190l-106 -33l-66 180l-114 -182l-99 35l140 188z" />
<glyph unicode="+" horiz-adv-x="1705" d="M254 528v166h514v527h170v-527h514v-166h-514v-528h-170v528h-514z" />
<glyph unicode="," horiz-adv-x="460" d="M-43 -322q59 94 95 193.5t52 204.5l21 151h151l-18 -118q-43 -262 -233 -465z" />
<glyph unicode="-" horiz-adv-x="698" d="M68 410l24 182h463l-23 -182h-464z" />
<glyph unicode="." horiz-adv-x="460" d="M72 74q0 55 34.5 92t81.5 37q41 0 67 -28t26 -71q0 -53 -36 -88.5t-83 -35.5q-41 0 -65.5 26.5t-24.5 67.5z" />
<glyph unicode="/" horiz-adv-x="1044" d="M-176 -492l1218 2053h97l-1219 -2053h-96z" />
<glyph unicode="0" horiz-adv-x="1302" d="M129 496q0 193 44 349t124 267t190.5 170t243.5 59q207 0 320.5 -137t113.5 -397q0 -195 -45 -350.5t-125 -265t-190.5 -169t-241.5 -59.5q-209 0 -321.5 136.5t-112.5 396.5zM358 492q0 -188 59.5 -287t164.5 -99q72 0 136 50.5t113.5 141.5t79 220t29.5 287 q0 190 -61.5 290.5t-165.5 100.5q-72 0 -135.5 -50t-112.5 -142.5t-78 -222t-29 -289.5z" />
<glyph unicode="1" horiz-adv-x="878" d="M2 0l12 117h273l129 1038l-19 12l-274 -110l-45 143l606 150l-178 -1233h229l-16 -117h-717z" />
<glyph unicode="2" horiz-adv-x="1040" d="M-20 100q172 119 301 239t215 234.5t128 223t42 204.5q0 102 -64.5 155.5t-193.5 53.5q-145 0 -312 -104l6 164q66 33 168.5 51t237.5 18q399 0 399 -295q0 -180 -134 -399t-413 -455l-2 -18l594 -18l-47 -154h-917z" />
<glyph unicode="3" horiz-adv-x="989" d="M-39 115q43 -8 86 -9.5t84 -1.5q115 0 208 27t158.5 72t101.5 103.5t36 119.5q0 92 -83 140t-243 48q-68 0 -127 -14l-8 100q252 53 379 141.5t127 196.5q0 78 -64.5 123t-187.5 45q-80 0 -150.5 -14t-136.5 -47l-30 127q90 35 184 50t199 15q408 0 407 -254 q0 -141 -93 -232t-292 -151l-2 -12q170 -6 256 -69.5t86 -178.5q0 -96 -50 -180t-148.5 -145.5t-242 -97t-327.5 -35.5h-51q-25 0 -53 2z" />
<glyph unicode="4" horiz-adv-x="1249" d="M31 387l733 969l250 -41l-119 -881l256 -18l-37 -125l-233 4l-39 -322l-236 -28l43 358l-579 19zM264 494l8 -17l392 -22l96 673l-17 9z" />
<glyph unicode="5" horiz-adv-x="1060" d="M57 125q35 -6 72 -8t74 -2q109 0 197.5 25.5t152 69.5t98.5 104.5t35 129.5q0 123 -111.5 172.5t-345.5 49.5h-34q-27 0 -72 -2l147 643l760 -2l-69 -162l-506 24l-76 -368q279 -2 410 -71t131 -230q0 -109 -45.5 -203t-130.5 -164t-205.5 -109.5t-272.5 -39.5 q-45 0 -90 2t-92 6z" />
<glyph unicode="6" horiz-adv-x="1058" d="M68 326q0 133 51 278.5t155 290.5q141 199 299 314.5t306 138.5l151 -86q-197 -45 -350.5 -172t-263.5 -349l12 -8q98 33 178 33q145 0 226 -84t81 -233q0 -104 -34.5 -193.5t-98 -155t-152.5 -102.5t-196 -37q-178 0 -271 93.5t-93 271.5zM293 328q0 -117 47 -176.5 t137 -59.5q47 0 89 23.5t73 65.5t49.5 100.5t18.5 130.5q0 229 -177 229q-41 0 -88 -13.5t-92 -39.5q-57 -119 -57 -260z" />
<glyph unicode="7" horiz-adv-x="978" d="M25 31l712 1093l-8 29l-633 8l-24 144l932 2l34 -62l-796 -1274z" />
<glyph unicode="8" horiz-adv-x="1007" d="M29 233q0 131 75.5 236.5t225.5 177.5q-94 59 -140.5 135t-46.5 174q0 82 32 153t89.5 121t138 78.5t179.5 28.5q164 0 248.5 -70.5t84.5 -199.5q0 -123 -63.5 -218t-198.5 -181q113 -78 165 -157t52 -187q0 -78 -32.5 -144.5t-94 -114t-148.5 -74t-198 -26.5 q-182 0 -275 69.5t-93 198.5zM229 279q0 -86 49.5 -136.5t135.5 -50.5q45 0 85 16.5t69.5 44t47 65.5t17.5 79q0 72 -51.5 144.5t-153.5 133.5q-100 -68 -149.5 -145t-49.5 -151zM369 997q0 -145 168 -256q92 53 142 133t50 166q0 84 -40 129t-114 45q-43 0 -79.5 -17 t-65.5 -47t-45 -70t-16 -83z" />
<glyph unicode="9" horiz-adv-x="1005" d="M100 870q0 100 35 186.5t98.5 150t150.5 98t191 34.5q369 0 369 -333q0 -297 -158.5 -565.5t-472.5 -473.5l-178 74q164 92 280.5 219t194.5 299l-8 10q-84 -33 -180 -32q-152 0 -237 88.5t-85 244.5zM305 893q0 -111 52.5 -171t142.5 -60q72 0 153 47q35 53 53.5 128.5 t18.5 172.5q0 94 -44 147t-118 53q-55 0 -102 -23.5t-82 -65.5t-54.5 -100t-19.5 -128z" />
<glyph unicode=":" horiz-adv-x="460" d="M72 74q0 55 34.5 92t81.5 37q41 0 67 -28t26 -71q0 -53 -36 -88.5t-83 -35.5q-41 0 -65.5 26.5t-24.5 67.5zM139 741q0 51 34 86t81 35q39 0 63.5 -25.5t24.5 -68.5q0 -49 -35 -85t-82 -36q-37 0 -61.5 26.5t-24.5 67.5z" />
<glyph unicode=";" horiz-adv-x="462" d="M-49 -322q59 94 95 193.5t52 204.5l23 151h149l-18 -118q-43 -262 -234 -465zM150 723q0 53 32.5 87t79.5 34q39 0 63.5 -26.5t24.5 -69.5q0 -47 -34.5 -82t-82.5 -35q-35 0 -59 26.5t-24 65.5z" />
<glyph unicode="&#x37e;" horiz-adv-x="462" d="M-49 -322q59 94 95 193.5t52 204.5l23 151h149l-18 -118q-43 -262 -234 -465zM150 723q0 53 32.5 87t79.5 34q39 0 63.5 -26.5t24.5 -69.5q0 -47 -34.5 -82t-82.5 -35q-35 0 -59 26.5t-24 65.5z" />
<glyph unicode="&#x3c;" horiz-adv-x="1705" d="M264 530v160l1178 486v-185l-934 -381l934 -381v-182z" />
<glyph unicode="=" horiz-adv-x="1705" d="M254 322v165h1198v-165h-1198zM254 733v168h1198v-168h-1198z" />
<glyph unicode="&#x3e;" horiz-adv-x="1705" d="M264 47v182l934 381l-934 381v185l1178 -486v-160z" />
<glyph unicode="?" horiz-adv-x="804" d="M184 573q0 82 48.5 151t119.5 150q72 82 116 139.5t44 110.5q0 88 -94 88q-53 0 -166 -53l-35 109q82 35 158 52t153 17q109 0 167.5 -45t58.5 -123q0 -72 -50.5 -138t-128.5 -157q-76 -88 -122.5 -155.5t-46.5 -145.5q0 -109 100 -127l-144 -73q-88 25 -133 76.5 t-45 123.5zM223 74q0 55 36 92t83 37q39 0 64.5 -28t25.5 -71q0 -53 -36 -88.5t-83 -35.5q-41 0 -65.5 26.5t-24.5 67.5z" />
<glyph unicode="@" horiz-adv-x="1441" d="M145 532q0 186 78 350.5t215 274.5q184 147 432 148q111 0 201 -35t152.5 -100.5t97.5 -158.5t35 -210q0 -119 -33 -219.5t-90 -173t-133 -113.5t-162 -41q-193 0 -193 203q0 59 15 114h-12q-49 -109 -115 -163t-133 -54q-96 0 -97 123q0 76 30 170t87 178 q104 152 250 152q55 0 104.5 -20.5t102.5 -36.5q-43 -164 -76 -276t-33 -185q0 -66 26 -94.5t85 -28.5q55 0 107.5 32.5t92.5 93t64.5 147.5t24.5 196q0 201 -106.5 313.5t-295.5 112.5q-231 0 -393 -133q-121 -98 -187.5 -244.5t-66.5 -316.5q0 -115 33 -208t94.5 -160 t148.5 -102.5t195 -35.5q260 0 422 194l43 -45q-78 -109 -202 -165t-283 -56q-121 0 -218.5 41t-165 115.5t-104.5 181t-37 235.5zM532 535q0 -66 50 -66q20 0 50 24.5t63.5 73.5t67.5 122t62 171q-29 37 -69 37q-33 0 -72 -29.5t-72.5 -81t-56.5 -116.5t-23 -135z" />
<glyph unicode="A" horiz-adv-x="1208" d="M-84 18l662 1303h231l332 -1305l-281 -45l-125 500h-416l-235 -494zM385 616l12 -18l328 -12l-111 497z" />
<glyph unicode="B" horiz-adv-x="1181" d="M106 0l154 1317h455q219 0 319.5 -56.5t100.5 -201.5q0 -291 -322 -371l-2 -8q268 -43 268 -262q0 -195 -147.5 -306.5t-433.5 -111.5h-392zM360 125h93q86 0 155.5 23.5t118.5 63.5t74.5 92t25.5 112q0 199 -356 198h-43zM446 745l15 -14h71q156 0 243 75t87 206 q0 92 -66.5 135t-207.5 43h-80z" />
<glyph unicode="C" horiz-adv-x="1239" d="M90 365q0 186 63.5 374.5t180.5 339.5q98 129 216 193.5t245 64.5q197 0 283.5 -117.5t86.5 -371.5v-10l-252 -66q12 104 13 170q0 129 -34 195.5t-95 66.5q-55 0 -120 -50t-130 -148q-86 -131 -133 -285t-47 -295q0 -158 70.5 -224.5t230.5 -66.5q236 0 405 113l33 -152 q-129 -72 -267.5 -102.5t-299.5 -30.5q-229 0 -339 98.5t-110 303.5z" />
<glyph unicode="D" horiz-adv-x="1402" d="M106 0l150 1311h485q279 0 426.5 -130t147.5 -370q0 -190 -55.5 -341t-161 -255t-257 -159.5t-341.5 -55.5h-394zM373 139l14 -14h125q119 0 219 47t173 136t114 215t41 286q0 375 -428 375h-127z" />
<glyph unicode="E" horiz-adv-x="1040" d="M106 -16l152 1298l37 25h725l-43 -140l-471 -16l-55 -391l10 -17l434 13l-39 -162l-414 6l-18 -20l-51 -422l14 -15l516 29l-45 -156z" />
<glyph unicode="F" horiz-adv-x="997" d="M98 -16l152 1298l37 25h723l-43 -138l-471 -16l-58 -414l8 -20l437 24l-39 -159l-416 -6l-16 -21l-78 -573h-236z" />
<glyph unicode="G" horiz-adv-x="1265" d="M86 412q0 186 64.5 364t181.5 320q100 121 218 181t247 60q195 0 282.5 -116.5t87.5 -364.5l-249 -63l7 88q3 39 3 67q0 256 -144 256q-47 0 -101 -33.5t-112 -101.5q-104 -123 -161.5 -284.5t-57.5 -340.5q0 -313 324 -313q74 0 132 14.5t97 40.5l39 306h-239l36 147 h404l-68 -557q-113 -61 -235.5 -90t-263.5 -29q-492 0 -492 449z" />
<glyph unicode="H" horiz-adv-x="1433" d="M106 0l148 1305l268 12l-73 -535l12 -20l549 -12l59 550l266 3l-176 -1303h-239l75 602l-14 29l-557 -13l-84 -618h-234z" />
<glyph unicode="I" horiz-adv-x="620" d="M106 0l156 1305l260 12l-176 -1317h-240z" />
<glyph unicode="J" horiz-adv-x="634" d="M-74 -162q129 70 170 201q41 127 79 444.5t79 835.5l260 -33q-37 -362 -69.5 -637.5t-74.5 -463t-97.5 -288t-137.5 -114.5z" />
<glyph unicode="K" horiz-adv-x="1187" d="M106 0l160 1305l262 12l-90 -674l516 672l263 -41l-512 -621l409 -624l-289 -47l-379 622h-12l-82 -604h-246z" />
<glyph unicode="L" horiz-adv-x="897" d="M106 -20l152 1325l264 12l-151 -1161l14 -15l469 29l-45 -158z" />
<glyph unicode="M" horiz-adv-x="1652" d="M82 0l227 1315l273 20l235 -915l428 903h277l-39 -1315l-264 -14l36 967h-14l-430 -883h-174l-217 883h-14l-140 -961h-184z" />
<glyph unicode="N" horiz-adv-x="1488" d="M106 0l181 1315l213 20l579 -1036l13 6l110 995l176 21l-170 -1298l-241 -39l-557 989l-15 -8l-112 -965h-177z" />
<glyph unicode="O" horiz-adv-x="1464" d="M109 553q0 176 52 320.5t147 248t227.5 159.5t291.5 56q268 0 408.5 -142t140.5 -419q0 -182 -53 -331.5t-148.5 -256t-227.5 -165t-290 -58.5q-264 0 -406 151.5t-142 436.5zM373 510q0 -199 77.5 -303.5t223.5 -104.5q92 0 171 48.5t138 137.5t93 216t34 284 q0 207 -77 311.5t-222 104.5q-90 0 -170 -48t-139.5 -137t-94 -218t-34.5 -291z" />
<glyph unicode="P" horiz-adv-x="1132" d="M106 0l154 1317h393q242 0 358.5 -62.5t116.5 -205.5q0 -115 -43 -206t-124.5 -156.5t-200.5 -100.5t-268 -35h-68l-70 -551h-248zM438 682l15 -14h45q86 0 154.5 25.5t117.5 71.5t75.5 111.5t26.5 143.5q0 100 -70.5 135t-223.5 35h-70z" />
<glyph unicode="Q" horiz-adv-x="1464" d="M109 553q0 178 52 322.5t147 247t228.5 158.5t292.5 56q264 0 406.5 -140t142.5 -400q0 -307 -124 -506t-386 -303l-2 -17l471 -32l-57 -201l-754 199q-215 57 -316 207.5t-101 408.5zM375 510q0 -199 78.5 -303.5t224.5 -104.5q90 0 169 48.5t138 137.5t93 215t34 283 q0 207 -77 312.5t-222 105.5q-92 0 -172 -47t-139.5 -137t-93 -219t-33.5 -291z" />
<glyph unicode="R" horiz-adv-x="1206" d="M106 0l154 1317h485q207 0 304.5 -56.5t97.5 -185.5q0 -313 -365 -418l-2 -12q252 -61 330 -616l-276 -45q-72 559 -365 614l-39 -8l-76 -590h-248zM444 725l17 -14h59q164 0 260.5 88t96.5 235q0 88 -72 122t-225 34h-72z" />
<glyph unicode="S" horiz-adv-x="976" d="M10 59l82 158q123 -84 260 -84q121 0 192.5 63.5t71.5 168.5q0 47 -18 79.5t-51 58t-79 49.5l-101 52q-63 33 -110.5 65.5t-78.5 71.5t-46 87.5t-15 109.5q0 86 33.5 159.5t96 127t152.5 83t203 29.5q117 0 210 -16t171 -68l-94 -153q-113 94 -254 94 q-113 0 -183.5 -65.5t-70.5 -165.5q0 -47 17.5 -82t49 -62.5t77.5 -52.5l104 -53q125 -63 186.5 -130t61.5 -180q0 -86 -37 -162.5t-103.5 -135t-160 -92t-207.5 -33.5q-98 0 -185.5 19t-173.5 60z" />
<glyph unicode="T" horiz-adv-x="970" d="M16 1307h1071l-43 -138l-382 -16l-146 -1153h-248l138 1153l-379 -10z" />
<glyph unicode="U" horiz-adv-x="1341" d="M117 406q0 41 2 64.5t4 33.5l92 801l264 12l-102 -756q-4 -35 -6 -67.5t-2 -65.5q0 -154 69.5 -238t192.5 -84q137 0 227 120t119 352l90 725h186l-108 -795q-35 -266 -186.5 -405.5t-399.5 -139.5q-217 0 -329.5 114t-112.5 329z" />
<glyph unicode="V" horiz-adv-x="1114" d="M68 1260l274 61l229 -899h11l430 881l168 -3l-652 -1320h-108z" />
<glyph unicode="W" horiz-adv-x="1658" d="M68 1274l268 47l166 -870h10l319 753h195l131 -753h12l373 854h182l-589 -1325h-148l-143 849h-6l-363 -849h-139z" />
<glyph unicode="X" horiz-adv-x="1077" d="M-74 -2l465 612v13l-311 647l295 53l231 -498l330 473h182l-416 -614l-2 -12l330 -643l-301 -58l-246 512l-360 -485h-197z" />
<glyph unicode="Y" horiz-adv-x="980" d="M25 1276l286 49l232 -672l364 654h170l-487 -863l-58 -444h-237l55 471z" />
<glyph unicode="Z" horiz-adv-x="987" d="M-18 72l708 1069l-10 18l-563 -45l-8 172l895 31l20 -74l-717 -1083l17 -17l616 21l-53 -168l-881 -6z" />
<glyph unicode="[" horiz-adv-x="628" d="M72 -530l258 2101l399 -27l-12 -104l-221 14l-228 -1868l224 15l-15 -105z" />
<glyph unicode="\" horiz-adv-x="1044" d="M326 1561h90l332 -2053h-86z" />
<glyph unicode="]" horiz-adv-x="628" d="M-131 -504l12 105l219 -15l230 1868l-224 -14l13 104l407 27l-258 -2101z" />
<glyph unicode="^" horiz-adv-x="2048" d="M418 899l497 561h218l495 -561h-207l-397 397l-399 -397h-207z" />
<glyph unicode="_" d="M0 -272h1024v-183h-1024v183z" />
<glyph unicode="`" d="M352 1331q0 25 17.5 43.5t42.5 18.5q55 0 127 -74l202 -207l-22 -31l-213 113q-76 41 -115 71.5t-39 65.5z" />
<glyph unicode="a" horiz-adv-x="1042" d="M80 276q0 162 39 296.5t108.5 230.5t161.5 150.5t201 54.5q51 0 99 -11.5t93 -26.5l90 -30q45 -14 91 -22q-18 -92 -50 -406l-18 -190q-12 -133 -12 -246v-51q0 -25 2 -50l-230 -28q2 180 19 387h-17q-61 -180 -159.5 -270.5t-223.5 -90.5q-194 0 -194 303zM299 358 q0 -193 100 -192q37 0 82 42t89 124t82 203.5t63 281.5q-51 57 -121 57q-53 0 -105.5 -37.5t-94.5 -105t-68.5 -163t-26.5 -210.5z" />
<glyph unicode="b" horiz-adv-x="1056" d="M131 403q0 92 12 203l101 881l245 33l-67 -473l-72 -459h10q78 211 179.5 314.5t240.5 103.5q197 0 197 -258q0 -176 -51.5 -330t-147.5 -271q-74 -90 -158.5 -136t-170.5 -46q-164 0 -241 107.5t-77 330.5zM354 262q0 -186 127 -186q66 0 137 110q57 90 91 208t34 247 q0 158 -96 158q-39 0 -88 -48.5t-102 -146.5t-78 -187t-25 -155z" />
<glyph unicode="c" horiz-adv-x="925" d="M70 285q0 141 43 271t123 235q82 106 177 161.5t193 55.5q270 0 271 -334q0 -12 -1.5 -25.5t-1.5 -27.5l-196 -46l7 82q3 37 3 66q0 88 -19.5 130t-70.5 42q-35 0 -73 -27.5t-74 -85.5q-72 -109 -110 -226.5t-38 -223.5q0 -123 49 -173t166 -50q129 0 301 81l27 -120 q-201 -104 -422 -105q-174 0 -264 82t-90 238z" />
<glyph unicode="d" horiz-adv-x="1075" d="M80 272q0 166 39 301.5t106.5 231.5t156.5 148.5t187 52.5q53 0 99.5 -13.5t91.5 -42.5l35 537l245 33q-76 -584 -113.5 -960t-37.5 -542v-41q0 -18 2 -34l-236 -21l13 320q-72 -139 -161 -209t-188 -70q-127 0 -183 74.5t-56 234.5zM307 354q0 -201 117 -200 q76 0 147.5 93t133.5 283l22 183q-29 92 -61.5 136t-81.5 44q-45 0 -94.5 -40t-89.5 -111.5t-66.5 -170t-26.5 -217.5z" />
<glyph unicode="e" horiz-adv-x="933" d="M76 272q0 145 39 274.5t100 217.5q82 117 196.5 180.5t225.5 63.5q231 0 231 -199q0 -61 -32.5 -118.5t-90 -100.5t-138.5 -69.5t-175 -26.5q-57 0 -102 14q-29 -102 -29 -182q0 -117 48 -167t171 -50q137 0 309 81l27 -122q-104 -53 -211.5 -78t-232.5 -25 q-160 0 -248 81t-88 226zM365 608l8 -14q63 2 116.5 25.5t91 57.5t59.5 72.5t22 73.5q0 43 -35 43q-31 0 -66 -16t-70.5 -49t-68 -81.5t-57.5 -111.5z" />
<glyph unicode="f" horiz-adv-x="776" d="M16 731l29 115h186q47 348 191.5 522t380.5 174q170 0 252 -92l-99 -131q-59 86 -165 86q-260 0 -334 -559h381l-27 -115h-367l-108 -866h-225l110 866h-205z" />
<glyph unicode="g" horiz-adv-x="993" d="M57 -381l109 129q100 -102 213 -102q111 0 170 86t82 268l37 303h-11q-59 -166 -160.5 -253t-217.5 -87q-98 0 -152.5 77t-54.5 224q0 154 45 295t129 252q74 98 166 147.5t196 49.5q162 0 233.5 -90.5t71.5 -286.5q0 -27 -7 -124t-29 -267l-29 -216q-12 -93 -29 -155 q-104 -371 -436 -371q-109 0 -188 29t-138 92zM293 324q0 -176 102 -177q72 0 154 127q35 55 62.5 116t46 121t27.5 118.5t9 107.5q0 76 -29.5 117t-78.5 41t-101.5 -40t-94.5 -114.5t-69.5 -180t-27.5 -236.5z" />
<glyph unicode="h" horiz-adv-x="1099" d="M98 0l181 1487l247 33l-145 -938h12q78 199 187.5 298t244.5 99q182 0 183 -209q0 -23 -7 -59l-110 -703l-227 -14l-7 14l97 537q8 39 9 68.5t1 45.5q0 55 -16.5 83t-57.5 28q-47 0 -100 -49t-104.5 -145.5t-98.5 -241t-80 -334.5h-209z" />
<glyph unicode="i" horiz-adv-x="540" d="M119 -12l90 968l252 48l-129 -1016h-213zM287 1376q0 47 32.5 79t73.5 32q35 0 57.5 -24.5t22.5 -63.5q0 -47 -31.5 -80t-74.5 -33q-35 0 -57.5 24.5t-22.5 65.5z" />
<glyph unicode="j" horiz-adv-x="540" d="M-104 -451q129 70 170 201q39 123 77.5 436.5t77.5 821.5l234 -33q-37 -356 -70 -627.5t-74 -456t-96 -284t-137 -113.5zM293 1376q0 47 32.5 79t75.5 32q35 0 57.5 -24.5t22.5 -63.5q0 -47 -31.5 -80t-74.5 -33q-37 0 -59.5 24.5t-22.5 65.5z" />
<glyph unicode="k" horiz-adv-x="1019" d="M98 -4l176 1491l248 33l-170 -1100h15l118 229q92 176 201 266.5t211 90.5q53 0 127 -35l-72 -172q-35 35 -98 35q-119 0 -225 -160l342 -666l-250 -47l-236 488q-55 -104 -105 -216t-97 -235z" />
<glyph unicode="l" horiz-adv-x="540" d="M127 293q0 127 44 423l118 771l250 33q-92 -496 -142.5 -807.5t-50.5 -446.5q0 -82 28.5 -139t100.5 -111l-209 -55q-78 29 -108.5 110t-30.5 222z" />
<glyph unicode="m" horiz-adv-x="1560" d="M104 -16q49 311 72 537.5t23 373.5v74l231 26q2 -29 2 -49v-31q0 -115 -18 -299h12q143 344 352 345q131 0 131 -177q0 -29 -6 -90q63 139 157.5 211t203.5 72q92 0 142 -54.5t50 -152.5q0 -29 -2 -48.5t-6 -31.5l-129 -690h-219l94 555l8 55q4 29 4 60q0 104 -73 104 q-31 0 -70 -27.5t-77 -79t-68.5 -125t-47.5 -165.5l-47 -277h-180l46 358q17 132 18 173q0 94 -54 94q-43 0 -91 -47t-94 -140.5t-85 -231.5t-64 -322h-215z" />
<glyph unicode="n" horiz-adv-x="1120" d="M119 0l114 1018h236l-72 -436h13q162 393 432 393q178 0 178 -207q0 -16 -1 -31.5t-3 -27.5l-111 -701l-229 -14l-6 10l98 541q8 39 10 68.5t2 48.5q0 109 -73 108q-49 0 -102.5 -49t-106 -145.5t-96.5 -241t-74 -334.5h-209z" />
<glyph unicode="o" horiz-adv-x="1030" d="M80 397q0 137 38 250t105.5 193t159.5 124t199 44q172 0 270 -108.5t98 -301.5q0 -139 -39 -255t-107.5 -200t-160.5 -131t-197 -47q-174 0 -270 113.5t-96 318.5zM313 375q0 -281 154 -281q47 0 92 37t80 105.5t56.5 164t21.5 211.5q0 129 -42 199t-112 70 q-47 0 -92 -37t-80 -102.5t-56.5 -159.5t-21.5 -207z" />
<glyph unicode="p" horiz-adv-x="1062" d="M33 -504l170 1522l241 49l-75 -479h10q90 211 189.5 314.5t222.5 103.5q104 0 150 -64.5t46 -200.5q0 -170 -42 -312t-111.5 -244.5t-159.5 -160t-189 -57.5q-47 0 -93 8.5t-95 24.5l-64 -504h-200zM319 150q61 -59 144 -60q51 0 104.5 42t96.5 116t69.5 175t26.5 218 q0 162 -84 162q-39 0 -86 -41t-96.5 -123t-94.5 -204.5t-80 -284.5z" />
<glyph unicode="q" horiz-adv-x="1044" d="M74 266q0 166 40 302.5t106.5 233.5t152.5 151.5t178 54.5q59 0 106.5 -17.5t75.5 -46.5l12 113h232l-180 -1540l-236 -33l123 887h-10q-59 -203 -161.5 -305.5t-238.5 -102.5q-96 0 -148 76.5t-52 226.5zM297 332q0 -166 102 -166q41 0 85 38t85 113q59 109 88 217.5 t29 186.5q0 84 -30.5 127t-86.5 43q-41 0 -88 -42t-88 -116t-68.5 -176t-27.5 -225z" />
<glyph unicode="r" horiz-adv-x="776" d="M98 -8l86 962l232 29l-58 -477h9q141 457 381 457l51 -211h-21q-156 0 -278.5 -189.5t-206.5 -570.5h-195z" />
<glyph unicode="s" horiz-adv-x="813" d="M20 18l70 142q51 -37 99.5 -54.5t103.5 -17.5q98 0 155.5 46t57.5 118q0 33 -14.5 56.5t-40 44t-62.5 38.5l-80 41q-100 53 -147 111.5t-47 152.5q0 139 114.5 226.5t319.5 87.5q80 0 149.5 -15.5t132.5 -50.5l-90 -135q-90 78 -202 78q-88 0 -140.5 -45t-52.5 -113 q0 -37 13.5 -63.5t38 -49t60.5 -43t81 -43.5q98 -51 146 -103t48 -140q0 -70 -30.5 -128.5t-87 -101.5t-139.5 -67.5t-187 -24.5q-148 0 -269 53z" />
<glyph unicode="t" horiz-adv-x="735" d="M25 731l28 115h193l63 295l240 28l-74 -323h262l-26 -115h-260q-35 -164 -52.5 -281.5t-17.5 -189.5q0 -86 23.5 -121t82.5 -35t156 46l16 -111q-145 -74 -299 -74q-111 0 -158.5 62.5t-47.5 201.5q0 96 19.5 220t49.5 282h-198z" />
<glyph unicode="u" horiz-adv-x="1060" d="M98 160v24q0 14 4 33l99 741l235 21l-98 -664q-2 -10 -3 -22t-1 -25q0 -35 20.5 -56.5t48.5 -21.5q78 0 193 201q63 111 103 260.5t65 341.5h203l-99 -1034l-231 18l45 400h-6q-82 -209 -188.5 -310.5t-247.5 -101.5q-142 0 -142 195z" />
<glyph unicode="v" horiz-adv-x="888" d="M33 952l233 47l164 -796h8l355 770l172 -10l-480 -988h-209z" />
<glyph unicode="w" horiz-adv-x="1302" d="M53 975l242 33l61 -672h15l213 557h250q-74 -295 -74 -514q0 -244 80 -244q25 0 57.5 54.5t64 161t56 261t33.5 357.5h258q-43 -248 -100.5 -435.5t-124 -313.5t-139.5 -189.5t-148 -63.5q-104 0 -161.5 91.5t-57.5 267.5q0 96 12 188h-10l-220 -549h-161z" />
<glyph unicode="x" horiz-adv-x="970" d="M-18 0l395 481v8l-260 478l252 41l166 -371l262 340h182l-371 -467v-8l264 -484l-241 -45l-180 379l-269 -352h-200z" />
<glyph unicode="y" horiz-adv-x="944" d="M31 963l245 38l203 -772h15l294 748h189l-658 -1489l-188 41l199 373l6 61z" />
<glyph unicode="z" horiz-adv-x="911" d="M12 53q299 309 440.5 505t141.5 245q0 47 -145 47q-176 0 -334 -64l-4 160q123 16 245.5 24.5t251.5 8.5h31q63 0 106 -3t70 -16.5t39 -41t12 -76.5q0 -41 -124 -222.5t-402 -496.5l8 -8l471 16l-41 -141l-749 2z" />
<glyph unicode="{" horiz-adv-x="628" d="M82 481l12 101q90 0 124 16t34 80q0 51 -8 126t-8 173q0 193 62 333t210 257l168 -43q-133 -113 -189.5 -253.5t-56.5 -332.5q0 -59 2 -103t2 -77q0 -117 -37 -168t-135 -53l-2 -11q135 -4 135 -112q0 -47 -15 -105l-33 -123q-17 -66 -32.5 -140.5t-15.5 -156.5 q0 -102 31.5 -187t101.5 -163l-178 -43q-86 76 -122 162t-36 197q0 100 19.5 188t44.5 161l44 128q19 55 19 90q0 59 -141 59z" />
<glyph unicode="|" d="M424 -483v2048h178v-2048h-178z" />
<glyph unicode="}" horiz-adv-x="630" d="M-72 -459q131 113 188.5 253t57.5 333q0 49 -2 94t-2 86q0 117 37 168t135 53l2 11q-135 2 -135 112q0 47 15 105l33 124q17 67 32.5 140.5t15.5 155.5q0 100 -31.5 185t-101.5 165l178 43q84 -76 121 -162t37 -197q0 -98 -19.5 -186t-44.5 -162l-44 -129 q-19 -55 -19 -90t35 -47t106 -12l-12 -101q-90 0 -124 -17t-34 -79q0 -57 8.5 -132t8.5 -167q0 -96 -14.5 -178t-47.5 -153.5t-85 -135t-126 -123.5z" />
<glyph unicode="~" d="M197 1087q29 281 161 281q35 0 74 -19.5t81 -43t83 -43t80 -19.5t64.5 31t47.5 94h37q-23 -281 -159 -281q-37 0 -77 19.5t-81 44.5t-82 44t-80 19q-70 0 -113 -127h-36z" />
<glyph unicode="&#xa1;" horiz-adv-x="657" d="M109 -23l184 996l160 16l-56 -987zM303 1229q0 53 36 90t83 37q37 0 62.5 -28t25.5 -68q0 -53 -35 -90t-82 -37q-41 0 -65.5 26.5t-24.5 69.5z" />
<glyph unicode="&#xa2;" horiz-adv-x="944" d="M66 463q0 117 34.5 235.5t98.5 223.5q72 117 156.5 184.5t189.5 83.5l26 223h76l-26 -219q252 -14 251 -332v-18q0 -14 -2 -37l-196 -47q4 59 7 97t3 58q0 78 -17.5 119t-58.5 47l-96 -786q162 6 313 82l27 -121q-170 -92 -358 -102l-33 -279h-78l35 277 q-174 0 -263 80.5t-89 230.5zM295 494q0 -164 141 -191l92 756q-47 -35 -89 -96.5t-74.5 -138t-51 -161.5t-18.5 -169z" />
<glyph unicode="&#xa3;" horiz-adv-x="1038" d="M33 0l37 119h110l56 456h-103l29 101h88q35 324 173 485.5t370 161.5q84 0 145 -22.5t113 -77.5l-93 -103q-53 90 -153 90q-248 0 -309 -460l-11 -74h355l-35 -101h-330l-57 -462l493 22l-45 -135h-833z" />
<glyph unicode="&#xa4;" horiz-adv-x="1241" d="M76 432l203 205q-80 106 -80 248q0 139 80 248l-203 204l92 93l203 -203q109 82 250 82q143 0 251 -82l203 203l94 -93l-204 -204q80 -109 79 -248q0 -141 -79 -248l204 -205l-94 -92l-203 205q-113 -82 -249 -82q-143 0 -252 82l-203 -205zM332 885q0 -59 22.5 -112.5 t62.5 -92.5t92 -61.5t114 -22.5q61 0 113 22.5t92 61.5t62.5 92t22.5 113q0 59 -22.5 111.5t-62.5 92t-93 63.5t-112 24t-112.5 -24t-93.5 -63.5t-62.5 -92t-22.5 -111.5z" />
<glyph unicode="&#xa5;" horiz-adv-x="999" d="M23 1276l288 49l232 -672l364 654h168l-469 -832h197l-10 -86h-209l-11 -78h209l-10 -86h-213l-29 -225h-235l24 225h-198l10 86h201l6 78h-199l11 86h198z" />
<glyph unicode="&#xa6;" d="M424 -350v758h178v-758h-178zM424 674v758h178v-758h-178z" />
<glyph unicode="&#xa7;" horiz-adv-x="1099" d="M-18 -457l86 164q119 -86 256 -86q125 0 193.5 60.5t68.5 160.5q0 49 -17.5 83t-49.5 60.5t-77 51.5l-102 55q-125 68 -186.5 140.5t-61.5 191.5q0 217 184 332q-53 78 -53 176q0 90 34 164.5t96.5 128t152.5 83t201 29.5q117 0 210 -16t170 -68l-98 -159 q-111 96 -248 96q-117 0 -185.5 -62.5t-68.5 -162.5q0 -47 16.5 -81t48.5 -61.5t78 -53.5l103 -58q123 -68 185.5 -137.5t62.5 -180.5q0 -98 -49 -184t-144 -150q59 -80 60 -176q0 -84 -37 -160.5t-103.5 -134t-160.5 -91.5t-207 -34q-98 0 -185 19.5t-173 60.5zM356 449 q0 -45 17.5 -79t52.5 -65t86 -60l119 -67q88 63 88 178q0 45 -17.5 79t-52.5 63.5t-87 60.5t-122 68q-45 -35 -64.5 -78t-19.5 -100z" />
<glyph unicode="&#xa8;" d="M393 1198q0 43 32 76t73 33q35 0 57.5 -25t22.5 -65q0 -43 -32 -76t-73 -33q-35 0 -57.5 24.5t-22.5 65.5zM649 1196q0 47 32 79t75 32q35 0 57.5 -25t22.5 -63q0 -45 -32 -78t-73 -33q-35 0 -58.5 24.5t-23.5 63.5z" />
<glyph unicode="&#xa9;" horiz-adv-x="555" d="M68 1243q0 43 17 83t48 70.5t72 49t88 18.5q45 0 86 -18.5t71.5 -49t49 -71.5t18.5 -86q0 -47 -18.5 -88t-49 -71.5t-72.5 -48t-89 -17.5q-43 0 -83 17.5t-71 48t-49 72.5t-18 91zM102 1239q0 -39 15.5 -74t41 -60.5t60.5 -40.5t74 -15t73.5 14t61.5 39.5t42 60.5t15 76 q0 80 -56 135.5t-136 55.5q-41 0 -75 -15.5t-60.5 -42t-41 -60.5t-14.5 -73zM178 1241q0 59 33 96t86 37q45 0 71.5 -22.5t28.5 -63.5h-55q-4 45 -47 45q-57 0 -57 -92q0 -90 57 -90q45 0 49 49h55q0 -45 -29.5 -71.5t-78.5 -26.5t-81 35.5t-32 103.5z" />
<glyph unicode="&#xaa;" horiz-adv-x="944" d="M213 852q0 106 26.5 195.5t73.5 154t110.5 100t137.5 35.5q72 0 132.5 -24.5t121.5 -34.5q-6 -29 -15 -95.5t-20 -174.5l-12 -127q-4 -41 -6 -79t-2 -77v-37q0 -18 2 -37l-156 -18q2 133 12 256h-10q-41 -119 -108.5 -179.5t-153.5 -60.5q-133 0 -133 203zM215 494l8 73 h525l-9 -73h-524zM365 905q0 -66 15 -96.5t52 -30.5q25 0 55.5 28t61.5 82t56.5 135t41.5 187q-37 39 -88 39q-33 0 -66.5 -25.5t-62.5 -70.5t-47 -108.5t-18 -139.5z" />
<glyph unicode="&#xab;" horiz-adv-x="952" d="M143 475l398 389l110 -33l-329 -354l241 -358l-117 -33zM408 475l397 389l110 -33l-329 -354l241 -358l-116 -33z" />
<glyph unicode="&#xac;" horiz-adv-x="1705" d="M254 696v166h1198v-502h-166v336h-1032z" />
<glyph unicode="&#xad;" horiz-adv-x="698" d="M68 410l24 182h463l-23 -182h-464z" />
<glyph unicode="&#xae;" horiz-adv-x="555" d="M68 1243q0 43 17 83t48 70.5t72 49t88 18.5q45 0 86 -18.5t71.5 -49t49 -71.5t18.5 -86q0 -47 -18.5 -88t-49 -71.5t-72.5 -48t-89 -17.5q-43 0 -83 17.5t-71 48t-49 72.5t-18 91zM102 1239q0 -39 15.5 -74t41 -60.5t60.5 -40.5t74 -15t73.5 14t61.5 39.5t42 60.5t15 76 q0 80 -56 135.5t-136 55.5q-41 0 -75 -15.5t-60.5 -42t-41 -60.5t-14.5 -73zM203 1118v242h88q102 0 102 -70q0 -51 -51 -65l53 -107h-57l-47 99h-35v-99h-53zM256 1253h35q49 0 49 33q0 37 -51 37h-33v-70z" />
<glyph unicode="&#xaf;" d="M305 1163l25 123h604l-23 -123h-606z" />
<glyph unicode="&#x2c9;" d="M305 1163l25 123h604l-23 -123h-606z" />
<glyph unicode="&#xb0;" horiz-adv-x="815" d="M242 1143q0 82 56 138t138 56t138.5 -56t56.5 -138t-56.5 -138.5t-138.5 -56.5q-84 0 -139 56.5t-55 138.5zM311 1143q0 -53 37 -89t88 -36t87 37t36 88t-36 88t-87 37t-88 -37t-37 -88z" />
<glyph unicode="&#xb1;" horiz-adv-x="1705" d="M254 14v168h1198v-168h-1198zM254 707v165h514v334h170v-334h514v-165h-514v-334h-170v334h-514z" />
<glyph unicode="&#xb2;" horiz-adv-x="686" d="M-18 582q229 143 341.5 283.5t112.5 256.5q0 127 -172 127q-90 0 -205 -63l4 98q88 41 269 41q262 0 262 -176q0 -109 -88 -240t-273 -272v-12l392 -11l-31 -92h-606z" />
<glyph unicode="&#xb3;" horiz-adv-x="653" d="M-31 592q29 -4 56.5 -5t56.5 -1q76 0 137.5 16t105.5 43t67.5 61.5t23.5 71.5q0 53 -55.5 83t-159.5 30q-45 0 -84 -8l-6 59q166 33 249.5 85t83.5 118q0 47 -43 73.5t-122 26.5q-53 0 -99.5 -8t-89.5 -29l-20 78q115 39 252 39q268 0 268 -154q0 -86 -61.5 -139 t-192.5 -90v-6q225 -10 225 -150q0 -57 -33.5 -107t-98 -87t-159 -58.5t-217.5 -21.5h-67z" />
<glyph unicode="&#xb4;" d="M485 1104l244 215q45 41 79 59.5t56 18.5q23 0 36 -15.5t13 -38.5q0 -39 -46 -73.5t-138 -81.5l-231 -115z" />
<glyph unicode="&#xb5;" horiz-adv-x="1208" d="M-92 -430l297 1511h229l-125 -635q-12 -59 -12 -104q0 -197 182 -197q129 0 197.5 92.5t107.5 288.5l109 555h225l-145 -739q-18 -96 -19 -133q0 -35 15.5 -50.5t52.5 -15.5h16q8 0 19 2l-33 -159q-35 -10 -72 -13.5t-78 -3.5q-150 0 -149 125v15q-41 -68 -108.5 -105 t-145.5 -37t-135 24.5t-100 84.5l-99 -506h-229z" />
<glyph unicode="&#x3bc;" horiz-adv-x="1208" d="M-92 -430l297 1511h229l-125 -635q-12 -59 -12 -104q0 -197 182 -197q129 0 197.5 92.5t107.5 288.5l109 555h225l-145 -739q-18 -96 -19 -133q0 -35 15.5 -50.5t52.5 -15.5h16q8 0 19 2l-33 -159q-35 -10 -72 -13.5t-78 -3.5q-150 0 -149 125v15q-41 -68 -108.5 -105 t-145.5 -37t-135 24.5t-100 84.5l-99 -506h-229z" />
<glyph unicode="&#xb6;" horiz-adv-x="1495" d="M125 827q0 106 65.5 199.5t187.5 162t293 107.5t380 39q82 0 163.5 -7t167.5 -21l-215 -1385h-168l177 1305l-99 -15l-151 -1286l-221 -32l198 1286q-164 -53 -247 -147.5t-83 -221.5q0 -176 179 -274l-125 -70q-246 10 -374 105t-128 255z" />
<glyph unicode="&#xb7;" horiz-adv-x="495" d="M164 680q0 55 34.5 91t82.5 36q39 0 65.5 -27.5t26.5 -68.5q0 -53 -36 -90t-83 -37q-41 0 -65.5 26.5t-24.5 69.5z" />
<glyph unicode="&#x22c5;" horiz-adv-x="495" d="M164 680q0 55 34.5 91t82.5 36q39 0 65.5 -27.5t26.5 -68.5q0 -53 -36 -90t-83 -37q-41 0 -65.5 26.5t-24.5 69.5z" />
<glyph unicode="&#xb8;" d="M254 -412q0 39 17.5 88.5t43.5 114.5l84 209h76l-41 -272q-16 -102 -51 -154.5t-76 -52.5q-53 -1 -53 67z" />
<glyph unicode="&#xb9;" horiz-adv-x="579" d="M-4 522l8 70h178l86 622l-12 9l-180 -66l-31 86l399 88l-116 -739h151l-10 -70h-473z" />
<glyph unicode="&#xba;" horiz-adv-x="989" d="M229 494l11 73h522l-8 -73h-525zM264 934q0 88 25.5 161.5t69.5 128t105.5 84t133.5 29.5q115 0 180.5 -72.5t65.5 -201.5q0 -90 -25.5 -166t-72 -132t-107.5 -88t-131 -32q-115 0 -179.5 76t-64.5 213zM440 901q0 -160 80 -160q53 0 95 90.5t42 243.5q0 166 -77 166 q-53 0 -96.5 -90t-43.5 -250z" />
<glyph unicode="&#xbb;" horiz-adv-x="952" d="M39 119l330 358l-244 354l119 33l303 -389l-400 -389zM301 119l330 358l-242 354l119 33l301 -389l-397 -389z" />
<glyph unicode="&#xbc;" horiz-adv-x="1683" d="M-4 573l6 66h172l82 582l-12 6l-172 -62l-29 80l381 84l-111 -690h144l-11 -66h-450zM154 -188l1024 1716h102l-1022 -1716h-104zM907 217l463 543l158 -23l-76 -493l162 -11l-23 -69l-147 2l-25 -180l-149 -17l28 201l-366 10zM1055 276l6 -10l246 -12l61 379l-10 4z " />
<glyph unicode="&#xbd;" horiz-adv-x="1550" d="M-4 573l6 66h172l82 582l-12 6l-172 -62l-29 80l381 84l-111 -690h144l-11 -66h-450zM154 -188l1024 1716h102l-1022 -1716h-104zM877 55q217 135 324.5 266.5t107.5 239.5q0 117 -164 117q-88 0 -195 -60l2 93q90 39 256 39q252 0 252 -164q0 -100 -85 -224t-259 -256 l-2 -10l375 -10l-31 -86h-577z" />
<glyph unicode="&#xbe;" horiz-adv-x="1753" d="M-29 637q29 -4 54 -4h53q72 0 130 15.5t100 40t64.5 56t22.5 66.5q0 106 -205 107q-45 0 -79 -9l-5 58q158 29 238 79t80 109q0 43 -41 68.5t-117 25.5q-100 0 -182 -35l-18 72q57 20 116.5 28.5t124.5 8.5q256 0 256 -143q0 -78 -59.5 -129.5t-181.5 -83.5l-3 -9 q215 -6 216 -139q0 -109 -124 -182.5t-360 -73.5h-33q-16 0 -32 2zM225 -188l1024 1716h103l-1022 -1716h-105zM979 217l463 543l157 -23l-75 -493l162 -11l-23 -69l-147 2l-25 -180l-150 -17l29 201l-366 10zM1126 276l7 -10l245 -12l62 379l-10 4z" />
<glyph unicode="&#xbf;" horiz-adv-x="804" d="M49 147q0 72 51.5 138.5t128.5 156.5q76 88 123 156t47 145q0 109 -102 127l145 74q88 -25 133.5 -77t45.5 -124q0 -82 -49.5 -150.5t-120.5 -150.5q-72 -82 -116 -139t-44 -110q0 -88 94 -89q53 0 166 54l37 -109q-82 -35 -159 -52t-155 -17q-109 0 -167 44.5t-58 122.5 zM371 1212q0 53 36.5 89t84.5 36q41 0 65.5 -26.5t24.5 -67.5q0 -55 -36 -92t-83 -37q-39 0 -65.5 27.5t-26.5 70.5z" />
<glyph unicode="&#xc0;" horiz-adv-x="1208" d="M-86 18l662 1303h231l332 -1305l-281 -45l-125 500h-416l-235 -494zM383 616l12 -18l328 -12l-111 497zM456 1661q0 25 17.5 43.5t42.5 18.5q55 0 127 -74l202 -207l-22 -31l-213 113q-76 41 -115 71.5t-39 65.5z" />
<glyph unicode="&#xc1;" horiz-adv-x="1208" d="M-86 18l662 1303h231l332 -1305l-281 -45l-125 500h-416l-235 -494zM383 616l12 -18l328 -12l-111 497zM589 1434l244 215q45 41 79 59.5t56 18.5q23 0 36 -15.5t13 -38.5q0 -39 -46 -73.5t-138 -81.5l-231 -115z" />
<glyph unicode="&#xc2;" horiz-adv-x="1208" d="M-86 18l662 1303h231l332 -1305l-281 -45l-125 500h-416l-235 -494zM383 616l12 -18l328 -12l-111 497zM450 1415l254 297h57l181 -297l-66 -16l-160 176l-204 -176z" />
<glyph unicode="&#xc3;" horiz-adv-x="1208" d="M-86 18l662 1303h231l332 -1305l-281 -45l-125 500h-416l-235 -494zM383 616l12 -18l328 -12l-111 497zM426 1417q27 281 165 281q47 0 82 -28.5t78 -59.5q61 -43 105 -43q41 0 63.5 31.5t50.5 99.5h37q-20 -281 -164 -281q-49 0 -85 29l-79 62q-59 43 -102 43 q-41 0 -63.5 -32t-51.5 -102h-36z" />
<glyph unicode="&#xc4;" horiz-adv-x="1208" d="M-86 18l662 1303h231l332 -1305l-281 -45l-125 500h-416l-235 -494zM383 616l12 -18l328 -12l-111 497zM497 1528q0 43 32 76t73 33q35 0 57.5 -25t22.5 -65q0 -43 -32 -76t-73 -33q-35 0 -57.5 24.5t-22.5 65.5zM753 1526q0 47 32 79t75 32q35 0 57.5 -25t22.5 -63 q0 -45 -32 -78t-73 -33q-35 0 -58.5 24.5t-23.5 63.5z" />
<glyph unicode="&#xc5;" horiz-adv-x="1208" d="M-84 18l662 1303h231l332 -1305l-281 -45l-125 500h-416l-235 -494zM385 616l12 -18l328 -12l-111 497zM545 1561q0 70 47 115.5t115 45.5t114.5 -47t46.5 -114q0 -68 -47 -115t-114 -47q-70 0 -116 46t-46 116zM612 1561q0 -41 28 -68t67 -27t65.5 28t26.5 67t-27 66.5 t-65 27.5q-39 0 -67 -26.5t-28 -67.5z" />
<glyph unicode="&#xc6;" horiz-adv-x="1683" d="M-66 18l777 1260l39 29h913l-45 -140l-627 -18l37 -389l10 -17l500 13l-39 -164l-436 6l-21 -20l37 -433l467 27l-45 -156l-694 -41l-39 498h-375l-293 -496zM475 618l8 -18l289 -12l-31 483z" />
<glyph unicode="&#xc7;" horiz-adv-x="1241" d="M90 356q0 47 9.5 118t31.5 163q41 160 103.5 285t146.5 217q184 199 422 198q190 0 277 -121.5t87 -379.5l-254 -64q8 53 11.5 101.5t3.5 93.5q0 117 -36 177t-95 60q-51 0 -109.5 -40t-118.5 -122q-47 -66 -85 -142.5t-64.5 -157t-39.5 -163.5t-13 -159 q0 -154 70.5 -218.5t230.5 -64.5q233 0 405 113l33 -152q-203 -115 -432 -129l-41 -256q-35 -207 -123 -207q-55 0 -55 68q0 66 59 203l80 188h-53q-451 0 -451 391z" />
<glyph unicode="&#xc8;" horiz-adv-x="1040" d="M104 -16l152 1298l37 25h725l-43 -140l-471 -16l-55 -391l10 -17l434 13l-39 -162l-414 6l-18 -20l-51 -422l14 -15l516 29l-45 -156zM401 1661q0 25 17.5 43.5t42.5 18.5q55 0 127 -74l202 -207l-22 -31l-213 113q-76 41 -115 71.5t-39 65.5z" />
<glyph unicode="&#xc9;" horiz-adv-x="1040" d="M104 -16l152 1298l37 25h725l-43 -140l-471 -16l-55 -391l10 -17l434 13l-39 -162l-414 6l-18 -20l-51 -422l14 -15l516 29l-45 -156zM534 1434l244 215q45 41 79 59.5t56 18.5q23 0 36 -15.5t13 -38.5q0 -39 -46 -73.5t-138 -81.5l-231 -115z" />
<glyph unicode="&#xca;" horiz-adv-x="1040" d="M104 -16l152 1298l37 25h725l-43 -140l-471 -16l-55 -391l10 -17l434 13l-39 -162l-414 6l-18 -20l-51 -422l14 -15l516 29l-45 -156zM395 1415l254 297h57l181 -297l-66 -16l-160 176l-204 -176z" />
<glyph unicode="&#xcb;" horiz-adv-x="1040" d="M104 -16l152 1298l37 25h725l-43 -140l-471 -16l-55 -391l10 -17l434 13l-39 -162l-414 6l-18 -20l-51 -422l14 -15l516 29l-45 -156zM442 1528q0 43 32 76t73 33q35 0 57.5 -25t22.5 -65q0 -43 -32 -76t-73 -33q-35 0 -57.5 24.5t-22.5 65.5zM698 1526q0 47 32 79t75 32 q35 0 57.5 -25t22.5 -63q0 -45 -32 -78t-73 -33q-35 0 -58.5 24.5t-23.5 63.5z" />
<glyph unicode="&#xcc;" horiz-adv-x="620" d="M104 0l156 1305l260 12l-176 -1317h-240zM166 1661q0 25 17.5 43.5t42.5 18.5q55 0 127 -74l202 -207l-22 -31l-213 113q-76 41 -115 71.5t-39 65.5z" />
<glyph unicode="&#xcd;" horiz-adv-x="620" d="M104 0l156 1305l260 12l-176 -1317h-240zM299 1434l244 215q45 41 79 59.5t56 18.5q23 0 36 -15.5t13 -38.5q0 -39 -46 -73.5t-138 -81.5l-231 -115z" />
<glyph unicode="&#xce;" horiz-adv-x="620" d="M104 0l156 1305l260 12l-176 -1317h-240zM160 1415l254 297h57l181 -297l-66 -16l-160 176l-204 -176z" />
<glyph unicode="&#xcf;" horiz-adv-x="620" d="M104 0l156 1305l260 12l-176 -1317h-240zM207 1528q0 43 32 76t73 33q35 0 57.5 -25t22.5 -65q0 -43 -32 -76t-73 -33q-35 0 -57.5 24.5t-22.5 65.5zM463 1526q0 47 32 79t75 32q35 0 57.5 -25t22.5 -63q0 -45 -32 -78t-73 -33q-35 0 -58.5 24.5t-23.5 63.5z" />
<glyph unicode="&#xd0;" horiz-adv-x="1402" d="M-6 631l10 84h184l68 596h485q279 0 426.5 -130t147.5 -372q0 -186 -55.5 -335.5t-160 -255t-255 -162t-342.5 -56.5h-396l72 631h-184zM373 139l16 -14h125q121 0 221.5 49t172 139t111.5 216t40 280q0 193 -104.5 284t-321.5 91h-127l-60 -469h193l-12 -84h-191z" />
<glyph unicode="&#xd1;" horiz-adv-x="1488" d="M104 0l181 1315l213 20l579 -1036l13 6l110 995l176 21l-170 -1298l-241 -39l-557 989l-15 -8l-112 -965h-177zM574 1417q27 281 165 281q47 0 82 -28.5t78 -59.5q61 -43 105 -43q41 0 63.5 31.5t50.5 99.5h37q-20 -281 -164 -281q-49 0 -85 29l-79 62q-59 43 -102 43 q-41 0 -63.5 -32t-51.5 -102h-36z" />
<glyph unicode="&#xd2;" horiz-adv-x="1464" d="M107 553q0 176 52 320.5t147 248t227.5 159.5t291.5 56q268 0 408.5 -142t140.5 -419q0 -182 -53 -331.5t-148.5 -256t-227.5 -165t-290 -58.5q-264 0 -406 151.5t-142 436.5zM371 510q0 -199 77.5 -303.5t223.5 -104.5q92 0 171 48.5t138 137.5t93 216t34 284 q0 207 -77 311.5t-222 104.5q-90 0 -170 -48t-139.5 -137t-94 -218t-34.5 -291zM592 1661q0 25 17.5 43.5t42.5 18.5q55 0 127 -74l202 -207l-22 -31l-213 113q-76 41 -115 71.5t-39 65.5z" />
<glyph unicode="&#xd3;" horiz-adv-x="1464" d="M107 553q0 176 52 320.5t147 248t227.5 159.5t291.5 56q268 0 408.5 -142t140.5 -419q0 -182 -53 -331.5t-148.5 -256t-227.5 -165t-290 -58.5q-264 0 -406 151.5t-142 436.5zM371 510q0 -199 77.5 -303.5t223.5 -104.5q92 0 171 48.5t138 137.5t93 216t34 284 q0 207 -77 311.5t-222 104.5q-90 0 -170 -48t-139.5 -137t-94 -218t-34.5 -291zM725 1434l244 215q45 41 79 59.5t56 18.5q23 0 36 -15.5t13 -38.5q0 -39 -46 -73.5t-138 -81.5l-231 -115z" />
<glyph unicode="&#xd4;" horiz-adv-x="1464" d="M107 553q0 176 52 320.5t147 248t227.5 159.5t291.5 56q268 0 408.5 -142t140.5 -419q0 -182 -53 -331.5t-148.5 -256t-227.5 -165t-290 -58.5q-264 0 -406 151.5t-142 436.5zM371 510q0 -199 77.5 -303.5t223.5 -104.5q92 0 171 48.5t138 137.5t93 216t34 284 q0 207 -77 311.5t-222 104.5q-90 0 -170 -48t-139.5 -137t-94 -218t-34.5 -291zM586 1415l254 297h57l181 -297l-66 -16l-160 176l-204 -176z" />
<glyph unicode="&#xd5;" horiz-adv-x="1464" d="M107 553q0 176 52 320.5t147 248t227.5 159.5t291.5 56q268 0 408.5 -142t140.5 -419q0 -182 -53 -331.5t-148.5 -256t-227.5 -165t-290 -58.5q-264 0 -406 151.5t-142 436.5zM371 510q0 -199 77.5 -303.5t223.5 -104.5q92 0 171 48.5t138 137.5t93 216t34 284 q0 207 -77 311.5t-222 104.5q-90 0 -170 -48t-139.5 -137t-94 -218t-34.5 -291zM562 1417q27 281 165 281q47 0 82 -28.5t78 -59.5q61 -43 105 -43q41 0 63.5 31.5t50.5 99.5h37q-20 -281 -164 -281q-49 0 -85 29l-79 62q-59 43 -102 43q-41 0 -63.5 -32t-51.5 -102h-36z " />
<glyph unicode="&#xd6;" horiz-adv-x="1464" d="M107 553q0 176 52 320.5t147 248t227.5 159.5t291.5 56q268 0 408.5 -142t140.5 -419q0 -182 -53 -331.5t-148.5 -256t-227.5 -165t-290 -58.5q-264 0 -406 151.5t-142 436.5zM371 510q0 -199 77.5 -303.5t223.5 -104.5q92 0 171 48.5t138 137.5t93 216t34 284 q0 207 -77 311.5t-222 104.5q-90 0 -170 -48t-139.5 -137t-94 -218t-34.5 -291zM633 1528q0 43 32 76t73 33q35 0 57.5 -25t22.5 -65q0 -43 -32 -76t-73 -33q-35 0 -57.5 24.5t-22.5 65.5zM889 1526q0 47 32 79t75 32q35 0 57.5 -25t22.5 -63q0 -45 -32 -78t-73 -33 q-35 0 -58.5 24.5t-23.5 63.5z" />
<glyph unicode="&#xd7;" horiz-adv-x="1705" d="M287 152l458 458l-458 461l116 117l459 -459l461 459l117 -117l-459 -461l459 -458l-117 -119l-461 461l-459 -461z" />
<glyph unicode="&#xd8;" horiz-adv-x="1511" d="M143 -193l193 271q-100 88 -145.5 196.5t-45.5 251.5q0 184 50.5 334t144.5 256.5t226 163.5t296 57q166 0 312 -75l147 208h98l-180 -253q92 -84 132 -186.5t40 -239.5q0 -186 -53 -338t-148.5 -260.5t-227.5 -168t-290 -59.5q-154 0 -289 68l-161 -226h-99zM410 506 q0 -70 13 -130.5t42 -113.5l596 842q-86 100 -215 100q-94 0 -174 -48t-138.5 -139t-91 -220t-32.5 -291zM510 186q41 -45 90 -64.5t111 -19.5q94 0 173 49.5t136 139.5t90 220t33 290q0 125 -39 223z" />
<glyph unicode="&#xd9;" horiz-adv-x="1341" d="M115 406q0 41 2 64.5t4 33.5l92 801l264 12l-102 -756q-4 -35 -6 -67.5t-2 -65.5q0 -154 69.5 -238t192.5 -84q137 0 227 120t119 352l90 725h186l-108 -795q-35 -266 -186.5 -405.5t-399.5 -139.5q-217 0 -329.5 114t-112.5 329zM534 1661q0 25 17.5 43.5t42.5 18.5 q55 0 127 -74l202 -207l-22 -31l-213 113q-76 41 -115 71.5t-39 65.5z" />
<glyph unicode="&#xda;" horiz-adv-x="1341" d="M115 406q0 41 2 64.5t4 33.5l92 801l264 12l-102 -756q-4 -35 -6 -67.5t-2 -65.5q0 -154 69.5 -238t192.5 -84q137 0 227 120t119 352l90 725h186l-108 -795q-35 -266 -186.5 -405.5t-399.5 -139.5q-217 0 -329.5 114t-112.5 329zM667 1434l244 215q45 41 79 59.5 t56 18.5q23 0 36 -15.5t13 -38.5q0 -39 -46 -73.5t-138 -81.5l-231 -115z" />
<glyph unicode="&#xdb;" horiz-adv-x="1341" d="M115 406q0 41 2 64.5t4 33.5l92 801l264 12l-102 -756q-4 -35 -6 -67.5t-2 -65.5q0 -154 69.5 -238t192.5 -84q137 0 227 120t119 352l90 725h186l-108 -795q-35 -266 -186.5 -405.5t-399.5 -139.5q-217 0 -329.5 114t-112.5 329zM528 1415l254 297h57l181 -297l-66 -16 l-160 176l-204 -176z" />
<glyph unicode="&#xdc;" horiz-adv-x="1341" d="M115 406q0 41 2 64.5t4 33.5l92 801l264 12l-102 -756q-4 -35 -6 -67.5t-2 -65.5q0 -154 69.5 -238t192.5 -84q137 0 227 120t119 352l90 725h186l-108 -795q-35 -266 -186.5 -405.5t-399.5 -139.5q-217 0 -329.5 114t-112.5 329zM575 1528q0 43 32 76t73 33 q35 0 57.5 -25t22.5 -65q0 -43 -32 -76t-73 -33q-35 0 -57.5 24.5t-22.5 65.5zM831 1526q0 47 32 79t75 32q35 0 57.5 -25t22.5 -63q0 -45 -32 -78t-73 -33q-35 0 -58.5 24.5t-23.5 63.5z" />
<glyph unicode="&#xdd;" horiz-adv-x="980" d="M23 1276l286 49l232 -672l364 654h170l-487 -863l-58 -444h-237l55 471zM493 1434l244 215q45 41 79 59.5t56 18.5q23 0 36 -15.5t13 -38.5q0 -39 -46 -73.5t-138 -81.5l-231 -115z" />
<glyph unicode="&#xde;" horiz-adv-x="1132" d="M106 0l154 1317h264l-32 -266h131q242 0 358.5 -63.5t116.5 -205.5q0 -111 -43 -202t-125 -156.5t-201 -102t-270 -36.5h-68l-39 -285h-246zM408 416l14 -15h43q84 0 153.5 26t118.5 71t76 107.5t27 137.5q0 109 -70 146t-225 37h-70z" />
<glyph unicode="&#xdf;" horiz-adv-x="1105" d="M66 -133l124 977q90 696 560 696q276 0 276 -211q0 -98 -44 -171t-128 -150l-69 -66q-32 -31 -54 -61.5t-35.5 -63.5t-13.5 -74q0 -33 11.5 -56t31.5 -43.5t50 -39l67 -39.5q96 -53 148 -107.5t52 -148.5q0 -70 -30.5 -129t-86 -102t-133 -67.5t-174.5 -24.5 q-78 0 -146.5 12t-133.5 41l70 141q96 -72 202 -71q100 0 155.5 45t55.5 116q0 59 -39 94t-112 76q-92 51 -142.5 103.5t-50.5 146.5q0 70 21.5 122t57.5 97t83 86l98 88q59 53 90 102.5t31 106.5q0 113 -110 113q-119 0 -207 -135t-123 -400l-129 -1003h-223z" />
<glyph unicode="&#xe0;" horiz-adv-x="1042" d="M78 276q0 162 39 296.5t108.5 230.5t161.5 150.5t201 54.5q51 0 99 -11.5t93 -26.5l90 -30q45 -14 91 -22q-18 -92 -50 -406l-18 -190q-12 -133 -12 -246v-51q0 -25 2 -50l-230 -28q2 180 19 387h-17q-61 -180 -159.5 -270.5t-223.5 -90.5q-194 0 -194 303zM297 358 q0 -193 100 -192q37 0 82 42t89 124t82 203.5t63 281.5q-51 57 -121 57q-53 0 -105.5 -37.5t-94.5 -105t-68.5 -163t-26.5 -210.5zM358 1331q0 25 17.5 43.5t42.5 18.5q55 0 127 -74l202 -207l-22 -31l-213 113q-76 41 -115 71.5t-39 65.5z" />
<glyph unicode="&#xe1;" horiz-adv-x="1042" d="M78 276q0 162 39 296.5t108.5 230.5t161.5 150.5t201 54.5q51 0 99 -11.5t93 -26.5l90 -30q45 -14 91 -22q-18 -92 -50 -406l-18 -190q-12 -133 -12 -246v-51q0 -25 2 -50l-230 -28q2 180 19 387h-17q-61 -180 -159.5 -270.5t-223.5 -90.5q-194 0 -194 303zM297 358 q0 -193 100 -192q37 0 82 42t89 124t82 203.5t63 281.5q-51 57 -121 57q-53 0 -105.5 -37.5t-94.5 -105t-68.5 -163t-26.5 -210.5zM491 1104l244 215q45 41 79 59.5t56 18.5q23 0 36 -15.5t13 -38.5q0 -39 -46 -73.5t-138 -81.5l-231 -115z" />
<glyph unicode="&#xe2;" horiz-adv-x="1042" d="M78 276q0 162 39 296.5t108.5 230.5t161.5 150.5t201 54.5q51 0 99 -11.5t93 -26.5l90 -30q45 -14 91 -22q-18 -92 -50 -406l-18 -190q-12 -133 -12 -246v-51q0 -25 2 -50l-230 -28q2 180 19 387h-17q-61 -180 -159.5 -270.5t-223.5 -90.5q-194 0 -194 303zM297 358 q0 -193 100 -192q37 0 82 42t89 124t82 203.5t63 281.5q-51 57 -121 57q-53 0 -105.5 -37.5t-94.5 -105t-68.5 -163t-26.5 -210.5zM352 1085l254 297h57l181 -297l-66 -16l-160 176l-204 -176z" />
<glyph unicode="&#xe3;" horiz-adv-x="1042" d="M78 276q0 162 39 296.5t108.5 230.5t161.5 150.5t201 54.5q51 0 99 -11.5t93 -26.5l90 -30q45 -14 91 -22q-18 -92 -50 -406l-18 -190q-12 -133 -12 -246v-51q0 -25 2 -50l-230 -28q2 180 19 387h-17q-61 -180 -159.5 -270.5t-223.5 -90.5q-194 0 -194 303zM297 358 q0 -193 100 -192q37 0 82 42t89 124t82 203.5t63 281.5q-51 57 -121 57q-53 0 -105.5 -37.5t-94.5 -105t-68.5 -163t-26.5 -210.5zM328 1087q27 281 165 281q47 0 82 -28.5t78 -59.5q61 -43 105 -43q41 0 63.5 31.5t50.5 99.5h37q-20 -281 -164 -281q-49 0 -85 29l-79 62 q-59 43 -102 43q-41 0 -63.5 -32t-51.5 -102h-36z" />
<glyph unicode="&#xe4;" horiz-adv-x="1042" d="M78 276q0 162 39 296.5t108.5 230.5t161.5 150.5t201 54.5q51 0 99 -11.5t93 -26.5l90 -30q45 -14 91 -22q-18 -92 -50 -406l-18 -190q-12 -133 -12 -246v-51q0 -25 2 -50l-230 -28q2 180 19 387h-17q-61 -180 -159.5 -270.5t-223.5 -90.5q-194 0 -194 303zM297 358 q0 -193 100 -192q37 0 82 42t89 124t82 203.5t63 281.5q-51 57 -121 57q-53 0 -105.5 -37.5t-94.5 -105t-68.5 -163t-26.5 -210.5zM399 1198q0 43 32 76t73 33q35 0 57.5 -25t22.5 -65q0 -43 -32 -76t-73 -33q-35 0 -57.5 24.5t-22.5 65.5zM655 1196q0 47 32 79t75 32 q35 0 57.5 -25t22.5 -63q0 -45 -32 -78t-73 -33q-35 0 -58.5 24.5t-23.5 63.5z" />
<glyph unicode="&#xe5;" horiz-adv-x="1042" d="M80 276q0 162 39 296.5t108.5 230.5t161.5 150.5t201 54.5q51 0 99 -11.5t93 -26.5l90 -30q45 -14 91 -22q-18 -92 -50 -406l-18 -190q-12 -133 -12 -246v-51q0 -25 2 -50l-230 -28q2 180 19 387h-17q-61 -180 -159.5 -270.5t-223.5 -90.5q-194 0 -194 303zM299 358 q0 -193 100 -192q37 0 82 42t89 124t82 203.5t63 281.5q-51 57 -121 57q-53 0 -105.5 -37.5t-94.5 -105t-68.5 -163t-26.5 -210.5zM492 1217q0 70 47 115.5t114 45.5q68 0 115 -47t47 -114q0 -68 -47 -115t-115 -47q-70 0 -115.5 46t-45.5 116zM559 1217q0 -39 27.5 -67 t66.5 -28q37 0 64.5 28t27.5 67t-27.5 66.5t-64.5 27.5q-39 0 -66.5 -27.5t-27.5 -66.5z" />
<glyph unicode="&#xe6;" horiz-adv-x="1519" d="M80 150q0 59 26.5 111t73.5 92t111.5 62.5t138.5 22.5q66 0 121 -12t96 -35q16 125 22.5 208t6.5 124q0 90 -22.5 131t-75.5 41q-154 0 -252 -317l-172 53q74 188 194.5 282.5t282.5 94.5q98 0 156.5 -34t84.5 -110q131 143 289 144q143 0 218 -90.5t75 -268.5v-24 q0 -16 -2 -45l-561 -58q-16 -59 -24.5 -108t-8.5 -90q0 -215 223 -215q139 0 310 81l24 -120q-203 -104 -416 -105q-80 0 -160.5 40t-172.5 120q-66 -78 -157 -118t-202 -40t-169 48.5t-58 134.5zM293 188q0 -47 31.5 -74.5t89.5 -27.5q37 0 72.5 14.5t66.5 39t52.5 59 t29.5 75.5q-57 57 -150 58q-88 0 -140 -42.5t-52 -101.5zM924 647l6 -16l332 39q2 20 2 32v17q0 92 -27 134t-86 42t-122.5 -62.5t-104.5 -185.5z" />
<glyph unicode="&#xe7;" horiz-adv-x="925" d="M70 268q0 141 46 282.5t132 256.5q74 98 166 149.5t192 51.5q270 0 271 -330v-19q0 -14 -3 -38l-196 -46l7 96.5t3 59.5q0 164 -86 164q-100 0 -190 -164q-57 -104 -86 -213.5t-29 -210.5q0 -104 53 -151t168 -47q143 0 309 81l27 -120q-176 -92 -371 -103l-30 -223 q-25 -172 -103 -172q-45 0 -45 59q0 31 11.5 71t31.5 91l70 172q-172 0 -260 78t-88 225z" />
<glyph unicode="&#xe8;" horiz-adv-x="933" d="M74 272q0 145 39 274.5t100 217.5q82 117 196.5 180.5t225.5 63.5q231 0 231 -199q0 -61 -32.5 -118.5t-90 -100.5t-138.5 -69.5t-175 -26.5q-57 0 -102 14q-29 -102 -29 -182q0 -117 48 -167t171 -50q137 0 309 81l27 -122q-104 -53 -211.5 -78t-232.5 -25 q-160 0 -248 81t-88 226zM363 608l8 -14q63 2 116.5 25.5t91 57.5t59.5 72.5t22 73.5q0 43 -35 43q-31 0 -66 -16t-70.5 -49t-68 -81.5t-57.5 -111.5zM377 1331q0 25 17.5 43.5t42.5 18.5q55 0 127 -74l202 -207l-22 -31l-213 113q-76 41 -115 71.5t-39 65.5z" />
<glyph unicode="&#xe9;" horiz-adv-x="933" d="M74 272q0 145 39 274.5t100 217.5q82 117 196.5 180.5t225.5 63.5q231 0 231 -199q0 -61 -32.5 -118.5t-90 -100.5t-138.5 -69.5t-175 -26.5q-57 0 -102 14q-29 -102 -29 -182q0 -117 48 -167t171 -50q137 0 309 81l27 -122q-104 -53 -211.5 -78t-232.5 -25 q-160 0 -248 81t-88 226zM363 608l8 -14q63 2 116.5 25.5t91 57.5t59.5 72.5t22 73.5q0 43 -35 43q-31 0 -66 -16t-70.5 -49t-68 -81.5t-57.5 -111.5zM510 1104l244 215q45 41 79 59.5t56 18.5q23 0 36 -15.5t13 -38.5q0 -39 -46 -73.5t-138 -81.5l-231 -115z" />
<glyph unicode="&#xea;" horiz-adv-x="933" d="M74 272q0 145 39 274.5t100 217.5q82 117 196.5 180.5t225.5 63.5q231 0 231 -199q0 -61 -32.5 -118.5t-90 -100.5t-138.5 -69.5t-175 -26.5q-57 0 -102 14q-29 -102 -29 -182q0 -117 48 -167t171 -50q137 0 309 81l27 -122q-104 -53 -211.5 -78t-232.5 -25 q-160 0 -248 81t-88 226zM363 608l8 -14q63 2 116.5 25.5t91 57.5t59.5 72.5t22 73.5q0 43 -35 43q-31 0 -66 -16t-70.5 -49t-68 -81.5t-57.5 -111.5zM371 1085l254 297h57l181 -297l-66 -16l-160 176l-204 -176z" />
<glyph unicode="&#xeb;" horiz-adv-x="933" d="M74 272q0 145 39 274.5t100 217.5q82 117 196.5 180.5t225.5 63.5q231 0 231 -199q0 -61 -32.5 -118.5t-90 -100.5t-138.5 -69.5t-175 -26.5q-57 0 -102 14q-29 -102 -29 -182q0 -117 48 -167t171 -50q137 0 309 81l27 -122q-104 -53 -211.5 -78t-232.5 -25 q-160 0 -248 81t-88 226zM363 608l8 -14q63 2 116.5 25.5t91 57.5t59.5 72.5t22 73.5q0 43 -35 43q-31 0 -66 -16t-70.5 -49t-68 -81.5t-57.5 -111.5zM418 1198q0 43 32 76t73 33q35 0 57.5 -25t22.5 -65q0 -43 -32 -76t-73 -33q-35 0 -57.5 24.5t-22.5 65.5zM674 1196 q0 47 32 79t75 32q35 0 57.5 -25t22.5 -63q0 -45 -32 -78t-73 -33q-35 0 -58.5 24.5t-23.5 63.5z" />
<glyph unicode="&#xec;" horiz-adv-x="540" d="M117 -12l90 968l252 48l-129 -1016h-213zM108 1331q0 25 17.5 43.5t42.5 18.5q55 0 127 -74l202 -207l-22 -31l-213 113q-76 41 -115 71.5t-39 65.5z" />
<glyph unicode="&#xed;" horiz-adv-x="540" d="M117 -12l90 968l252 48l-129 -1016h-213zM241 1104l244 215q45 41 79 59.5t56 18.5q23 0 36 -15.5t13 -38.5q0 -39 -46 -73.5t-138 -81.5l-231 -115z" />
<glyph unicode="&#xee;" horiz-adv-x="540" d="M117 -12l90 968l252 48l-129 -1016h-213zM102 1085l254 297h57l181 -297l-66 -16l-160 176l-204 -176z" />
<glyph unicode="&#xef;" horiz-adv-x="540" d="M117 -12l90 968l252 48l-129 -1016h-213zM149 1198q0 43 32 76t73 33q35 0 57.5 -25t22.5 -65q0 -43 -32 -76t-73 -33q-35 0 -57.5 24.5t-22.5 65.5zM405 1196q0 47 32 79t75 32q35 0 57.5 -25t22.5 -63q0 -45 -32 -78t-73 -33q-35 0 -58.5 24.5t-23.5 63.5z" />
<glyph unicode="&#xf0;" horiz-adv-x="1034" d="M80 397q0 135 41 247t109.5 193t156.5 126t184 45q16 0 36 -3l44 -8q-41 76 -98 148l-184 -115l-27 55l166 109q-98 98 -229 149l151 170q156 -72 272 -194l172 111l25 -66l-151 -96q104 -147 155 -301t51 -328q0 -152 -38.5 -276.5t-106.5 -213t-161 -136.5t-204 -48 q-170 0 -267 113.5t-97 318.5zM311 369q0 -135 40 -205t114 -70q49 0 94 39t80 107.5t55.5 162t20.5 201.5q0 135 -40 206t-112 71q-47 0 -93 -38t-81 -105.5t-56.5 -161.5t-21.5 -207z" />
<glyph unicode="&#xf1;" horiz-adv-x="1120" d="M117 0l114 1018h236l-72 -436h13q162 393 432 393q178 0 178 -207q0 -16 -1 -31.5t-3 -27.5l-111 -701l-229 -14l-6 10l98 541q8 39 10 68.5t2 48.5q0 109 -73 108q-49 0 -102.5 -49t-106 -145.5t-96.5 -241t-74 -334.5h-209zM390 1087q27 281 165 281q47 0 82 -28.5 t78 -59.5q61 -43 105 -43q41 0 63.5 31.5t50.5 99.5h37q-20 -281 -164 -281q-49 0 -85 29l-79 62q-59 43 -102 43q-41 0 -63.5 -32t-51.5 -102h-36z" />
<glyph unicode="&#xf2;" horiz-adv-x="1030" d="M78 397q0 137 38 250t105.5 193t159.5 124t199 44q172 0 270 -108.5t98 -301.5q0 -139 -39 -255t-107.5 -200t-160.5 -131t-197 -47q-174 0 -270 113.5t-96 318.5zM311 375q0 -281 154 -281q47 0 92 37t80 105.5t56.5 164t21.5 211.5q0 129 -42 199t-112 70 q-47 0 -92 -37t-80 -102.5t-56.5 -159.5t-21.5 -207zM352 1331q0 25 17.5 43.5t42.5 18.5q55 0 127 -74l202 -207l-22 -31l-213 113q-76 41 -115 71.5t-39 65.5z" />
<glyph unicode="&#xf3;" horiz-adv-x="1030" d="M78 397q0 137 38 250t105.5 193t159.5 124t199 44q172 0 270 -108.5t98 -301.5q0 -139 -39 -255t-107.5 -200t-160.5 -131t-197 -47q-174 0 -270 113.5t-96 318.5zM311 375q0 -281 154 -281q47 0 92 37t80 105.5t56.5 164t21.5 211.5q0 129 -42 199t-112 70 q-47 0 -92 -37t-80 -102.5t-56.5 -159.5t-21.5 -207zM485 1104l244 215q45 41 79 59.5t56 18.5q23 0 36 -15.5t13 -38.5q0 -39 -46 -73.5t-138 -81.5l-231 -115z" />
<glyph unicode="&#xf4;" horiz-adv-x="1030" d="M78 397q0 137 38 250t105.5 193t159.5 124t199 44q172 0 270 -108.5t98 -301.5q0 -139 -39 -255t-107.5 -200t-160.5 -131t-197 -47q-174 0 -270 113.5t-96 318.5zM311 375q0 -281 154 -281q47 0 92 37t80 105.5t56.5 164t21.5 211.5q0 129 -42 199t-112 70 q-47 0 -92 -37t-80 -102.5t-56.5 -159.5t-21.5 -207zM346 1085l254 297h57l181 -297l-66 -16l-160 176l-204 -176z" />
<glyph unicode="&#xf5;" horiz-adv-x="1030" d="M78 397q0 137 38 250t105.5 193t159.5 124t199 44q172 0 270 -108.5t98 -301.5q0 -139 -39 -255t-107.5 -200t-160.5 -131t-197 -47q-174 0 -270 113.5t-96 318.5zM311 375q0 -281 154 -281q47 0 92 37t80 105.5t56.5 164t21.5 211.5q0 129 -42 199t-112 70 q-47 0 -92 -37t-80 -102.5t-56.5 -159.5t-21.5 -207zM322 1087q27 281 165 281q47 0 82 -28.5t78 -59.5q61 -43 105 -43q41 0 63.5 31.5t50.5 99.5h37q-20 -281 -164 -281q-49 0 -85 29l-79 62q-59 43 -102 43q-41 0 -63.5 -32t-51.5 -102h-36z" />
<glyph unicode="&#xf6;" horiz-adv-x="1030" d="M78 397q0 137 38 250t105.5 193t159.5 124t199 44q172 0 270 -108.5t98 -301.5q0 -139 -39 -255t-107.5 -200t-160.5 -131t-197 -47q-174 0 -270 113.5t-96 318.5zM311 375q0 -281 154 -281q47 0 92 37t80 105.5t56.5 164t21.5 211.5q0 129 -42 199t-112 70 q-47 0 -92 -37t-80 -102.5t-56.5 -159.5t-21.5 -207zM393 1198q0 43 32 76t73 33q35 0 57.5 -25t22.5 -65q0 -43 -32 -76t-73 -33q-35 0 -57.5 24.5t-22.5 65.5zM649 1196q0 47 32 79t75 32q35 0 57.5 -25t22.5 -63q0 -45 -32 -78t-73 -33q-35 0 -58.5 24.5t-23.5 63.5z" />
<glyph unicode="&#xf7;" horiz-adv-x="1705" d="M254 528v166h1198v-166h-1198zM717 229q0 57 41 97.5t96 40.5q57 0 97 -40t40 -98q0 -55 -39 -95t-98 -40t-98 39t-39 96zM717 989q0 57 41 98t96 41q57 0 97 -40.5t40 -98.5q0 -55 -39 -95t-98 -40t-98 39t-39 96z" />
<glyph unicode="&#xf8;" horiz-adv-x="1064" d="M72 -176l159 231q-66 72 -94 154t-28 186q0 137 37.5 250t105 194t159 125t197.5 44q121 0 217 -64l115 156h86l-147 -203q53 -66 75.5 -139.5t22.5 -163.5q0 -135 -39 -250t-106.5 -199t-159.5 -132t-199 -48q-104 0 -186 47l-131 -188h-84zM340 391q0 -43 3 -80t17 -69 l349 534q-37 104 -119 105q-47 0 -92 -38t-80 -103.5t-56.5 -155t-21.5 -193.5zM385 158q43 -63 109 -64q45 0 89 36t78.5 98.5t56 150.5t21.5 192q0 41 -12 107z" />
<glyph unicode="&#xf9;" horiz-adv-x="1060" d="M96 160v24q0 14 4 33l99 741l235 21l-98 -664q-2 -10 -3 -22t-1 -25q0 -35 20.5 -56.5t48.5 -21.5q78 0 193 201q63 111 103 260.5t65 341.5h203l-99 -1034l-231 18l45 400h-6q-82 -209 -188.5 -310.5t-247.5 -101.5q-142 0 -142 195zM366 1331q0 25 17.5 43.5t42.5 18.5 q55 0 127 -74l202 -207l-22 -31l-213 113q-76 41 -115 71.5t-39 65.5z" />
<glyph unicode="&#xfa;" horiz-adv-x="1060" d="M96 160v24q0 14 4 33l99 741l235 21l-98 -664q-2 -10 -3 -22t-1 -25q0 -35 20.5 -56.5t48.5 -21.5q78 0 193 201q63 111 103 260.5t65 341.5h203l-99 -1034l-231 18l45 400h-6q-82 -209 -188.5 -310.5t-247.5 -101.5q-142 0 -142 195zM499 1104l244 215q45 41 79 59.5 t56 18.5q23 0 36 -15.5t13 -38.5q0 -39 -46 -73.5t-138 -81.5l-231 -115z" />
<glyph unicode="&#xfb;" horiz-adv-x="1060" d="M96 160v24q0 14 4 33l99 741l235 21l-98 -664q-2 -10 -3 -22t-1 -25q0 -35 20.5 -56.5t48.5 -21.5q78 0 193 201q63 111 103 260.5t65 341.5h203l-99 -1034l-231 18l45 400h-6q-82 -209 -188.5 -310.5t-247.5 -101.5q-142 0 -142 195zM360 1085l254 297h57l181 -297 l-66 -16l-160 176l-204 -176z" />
<glyph unicode="&#xfc;" horiz-adv-x="1060" d="M96 160v24q0 14 4 33l99 741l235 21l-98 -664q-2 -10 -3 -22t-1 -25q0 -35 20.5 -56.5t48.5 -21.5q78 0 193 201q63 111 103 260.5t65 341.5h203l-99 -1034l-231 18l45 400h-6q-82 -209 -188.5 -310.5t-247.5 -101.5q-142 0 -142 195zM407 1198q0 43 32 76t73 33 q35 0 57.5 -25t22.5 -65q0 -43 -32 -76t-73 -33q-35 0 -57.5 24.5t-22.5 65.5zM663 1196q0 47 32 79t75 32q35 0 57.5 -25t22.5 -63q0 -45 -32 -78t-73 -33q-35 0 -58.5 24.5t-23.5 63.5z" />
<glyph unicode="&#xfd;" horiz-adv-x="944" d="M29 963l245 38l203 -772h15l294 748h189l-658 -1489l-188 41l199 373l6 61zM460 1104l244 215q45 41 79 59.5t56 18.5q23 0 36 -15.5t13 -38.5q0 -39 -46 -73.5t-138 -81.5l-231 -115z" />
<glyph unicode="&#xfe;" horiz-adv-x="1062" d="M33 -504l205 1796l241 49l-110 -753h10q90 211 190.5 314.5t223.5 103.5q104 0 150 -63.5t46 -203.5q0 -168 -45 -316.5t-119 -252.5q-145 -203 -340 -203q-47 0 -93 8.5t-95 24.5l-61 -504h-203zM319 150q61 -59 142 -60q51 0 104 42t96.5 116t71 175t27.5 222 q0 158 -82 158q-37 0 -85 -41t-97.5 -123t-96.5 -204.5t-80 -284.5z" />
<glyph unicode="&#xff;" horiz-adv-x="944" d="M29 963l245 38l203 -772h15l294 748h189l-658 -1489l-188 41l199 373l6 61zM368 1198q0 43 32 76t73 33q35 0 57.5 -25t22.5 -65q0 -43 -32 -76t-73 -33q-35 0 -57.5 24.5t-22.5 65.5zM624 1196q0 47 32 79t75 32q35 0 57.5 -25t22.5 -63q0 -45 -32 -78t-73 -33 q-35 0 -58.5 24.5t-23.5 63.5z" />
<glyph unicode="&#x131;" horiz-adv-x="540" d="M119 -12l90 968l252 48l-129 -1016h-213z" />
<glyph unicode="&#x152;" horiz-adv-x="1894" d="M109 551q0 172 51 316.5t145 249t226.5 162.5t293.5 58q156 0 291 -63l31 33h727l-43 -140l-471 -16l-53 -391l8 -17l436 13l-39 -162l-416 6l-16 -20l-53 -422l16 -15l516 29l-47 -156l-749 -32l4 51q-78 -35 -154 -52.5t-156 -17.5q-262 0 -405 150.5t-143 435.5z M371 506q0 -199 78.5 -301.5t224.5 -102.5q174 0 317 170l90 799q-59 68 -125.5 100.5t-148.5 32.5q-94 0 -174 -49t-138.5 -140t-91 -220t-32.5 -289z" />
<glyph unicode="&#x153;" horiz-adv-x="1566" d="M76 397q0 135 38 248t105.5 193t158.5 125t197 45q209 0 306 -181q143 180 327 181q135 0 214 -112t79 -321q0 -8 -1 -24t-3 -45h-563q-16 -51 -24.5 -97.5t-8.5 -89.5q0 -211 223 -210q139 0 312 81l24 -120q-102 -55 -210.5 -80t-231.5 -25q-186 0 -277 131 q-131 -131 -301 -131q-172 0 -268 113.5t-96 318.5zM307 369q0 -135 40 -205t114 -70q49 0 94 39t80 106.5t55.5 161t20.5 203.5q0 135 -40 206t-112 71q-49 0 -94 -38t-80 -106.5t-56.5 -162.5t-21.5 -205zM967 631l6 -17h334q0 23 1 37.5t1 18.5q0 225 -115 225 q-61 0 -125.5 -67.5t-101.5 -196.5z" />
<glyph unicode="&#x178;" horiz-adv-x="980" d="M23 1276l286 49l232 -672l364 654h170l-487 -863l-58 -444h-237l55 471zM401 1528q0 43 32 76t73 33q35 0 57.5 -25t22.5 -65q0 -43 -32 -76t-73 -33q-35 0 -57.5 24.5t-22.5 65.5zM657 1526q0 47 32 79t75 32q35 0 57.5 -25t22.5 -63q0 -45 -32 -78t-73 -33 q-35 0 -58.5 24.5t-23.5 63.5z" />
<glyph unicode="&#x2c6;" d="M346 1085l254 297h57l181 -297l-66 -16l-160 176l-204 -176z" />
<glyph unicode="&#x2dc;" d="M322 1087q27 281 165 281q47 0 82 -28.5t78 -59.5q61 -43 105 -43q41 0 63.5 31.5t50.5 99.5h37q-20 -281 -164 -281q-49 0 -85 29l-79 62q-59 43 -102 43q-41 0 -63.5 -32t-51.5 -102h-36z" />
<glyph unicode="&#x2000;" horiz-adv-x="862" />
<glyph unicode="&#x2001;" horiz-adv-x="1726" />
<glyph unicode="&#x2002;" horiz-adv-x="862" />
<glyph unicode="&#x2003;" horiz-adv-x="1726" />
<glyph unicode="&#x2004;" horiz-adv-x="575" />
<glyph unicode="&#x2005;" horiz-adv-x="430" />
<glyph unicode="&#x2006;" horiz-adv-x="286" />
<glyph unicode="&#x2007;" horiz-adv-x="286" />
<glyph unicode="&#x2008;" horiz-adv-x="215" />
<glyph unicode="&#x2009;" horiz-adv-x="344" />
<glyph unicode="&#x200a;" horiz-adv-x="94" />
<glyph unicode="&#x2010;" horiz-adv-x="698" d="M68 410l24 182h463l-23 -182h-464z" />
<glyph unicode="&#x2011;" horiz-adv-x="698" d="M68 410l24 182h463l-23 -182h-464z" />
<glyph unicode="&#x2012;" horiz-adv-x="698" d="M68 410l24 182h463l-23 -182h-464z" />
<glyph unicode="&#x2013;" horiz-adv-x="927" d="M68 410l24 182h692l-22 -182h-694z" />
<glyph unicode="&#x2014;" horiz-adv-x="1292" d="M68 410l24 182h1057l-25 -182h-1056z" />
<glyph unicode="&#x2018;" horiz-adv-x="460" d="M113 829q78 315 245 502l74 -28q-121 -225 -164 -488z" />
<glyph unicode="&#x2019;" horiz-adv-x="460" d="M102 831q59 113 100.5 234t63.5 254l156 -14q-41 -160 -101.5 -285t-146.5 -219z" />
<glyph unicode="&#x201a;" horiz-adv-x="460" d="M-80 -301q61 117 101 237.5t63 249.5l156 -14q-74 -311 -248 -504z" />
<glyph unicode="&#x201c;" horiz-adv-x="720" d="M88 829q78 315 246 502l74 -28q-121 -225 -164 -488zM393 829q76 311 248 502l74 -28q-121 -225 -164 -488z" />
<glyph unicode="&#x201d;" horiz-adv-x="720" d="M74 831q59 113 100 234t64 254l155 -14q-39 -158 -99.5 -282t-148.5 -222zM381 831q59 113 100 234t64 254l155 -14q-39 -158 -99 -282t-148 -222z" />
<glyph unicode="&#x201e;" horiz-adv-x="720" d="M-80 -301q61 117 101 237.5t63 249.5l156 -14q-74 -311 -248 -504zM227 -301q61 117 101.5 237.5t62.5 249.5l156 -14q-74 -311 -248 -504z" />
<glyph unicode="&#x2022;" horiz-adv-x="675" d="M139 713q0 84 56.5 140t140.5 56q43 0 79 -15t63.5 -42t43 -62.5t15.5 -76.5q0 -84 -57.5 -142.5t-143.5 -58.5q-84 0 -140.5 57.5t-56.5 143.5z" />
<glyph unicode="&#x2026;" horiz-adv-x="2048" d="M72 74q0 55 34.5 92t81.5 37q41 0 67 -28t26 -71q0 -53 -36 -88.5t-83 -35.5q-41 0 -65.5 26.5t-24.5 67.5zM756 74q0 55 34.5 92t81.5 37q41 0 67 -28t26 -71q0 -53 -36 -88.5t-83 -35.5q-41 0 -65.5 26.5t-24.5 67.5zM1436 74q0 55 34.5 92t81.5 37q41 0 67 -28t26 -71 q0 -53 -36 -88.5t-83 -35.5q-41 0 -65.5 26.5t-24.5 67.5z" />
<glyph unicode="&#x202f;" horiz-adv-x="344" />
<glyph unicode="&#x2039;" horiz-adv-x="688" d="M143 475l398 389l110 -33l-329 -354l241 -358l-117 -33z" />
<glyph unicode="&#x203a;" horiz-adv-x="690" d="M39 119l328 358l-242 354l119 33l303 -389l-400 -389z" />
<glyph unicode="&#x205f;" horiz-adv-x="430" />
<glyph unicode="&#x20ac;" horiz-adv-x="1040" d="M-8 401l59 140h96l5 50q2 26 6 52q4 29 8 54l8 53h-137l61 139h113q78 223 229.5 331.5t352.5 108.5q39 0 84 -6t86 -15.5t76.5 -22.5t58.5 -25l-86 -175q-33 27 -100.5 47.5t-139.5 20.5q-63 0 -115.5 -12.5t-94.5 -43t-75.5 -81.5t-60.5 -127h504l-62 -139h-479 q-4 -25 -9 -51.5t-9 -55.5t-6 -53l-5 -49h422l-59 -140h-361q6 -72 25 -121t50.5 -79.5t80.5 -45t119 -14.5q100 0 179 34t138 99l-22 -194q-63 -47 -156.5 -71.5t-183.5 -24.5q-209 0 -317.5 106.5t-124.5 310.5h-158z" />
<glyph unicode="&#x2122;" horiz-adv-x="598" d="M14 1397v49h209v-49h-73v-195h-60v195h-76zM272 1202v244h84l58 -148l53 148h84v-244h-57v182l-68 -182h-27l-69 182v-182h-58z" />
<glyph unicode="&#xe000;" horiz-adv-x="1010" d="M0 1010h1010v-1010h-1010v1010z" />
<glyph unicode="&#xfb01;" horiz-adv-x="1128" d="M8 731l31 115h190q41 348 185.5 522t384.5 174q90 0 157.5 -24.5t126.5 -83.5l-116 -158q-63 113 -185 113q-129 0 -215 -135.5t-116 -407.5h245l-30 -115h-228l-110 -864h-226l113 864h-207zM682 -12l96 970l246 52l-129 -1022h-213z" />
<glyph unicode="&#xfb02;" horiz-adv-x="1140" d="M8 731l29 115h186q47 352 189.5 524t394.5 172q211 0 287 -80q-78 -467 -114 -763t-36 -431q0 -84 25.5 -141t97.5 -111l-209 -55q-88 29 -115.5 100.5t-27.5 204.5q0 160 32.5 439.5t92.5 691.5q-29 6 -56 6q-262 0 -335 -557h245l-26 -115h-232l-110 -864h-224l111 864 h-205z" />
<glyph unicode="&#xfb03;" horiz-adv-x="2093" d="M1671 -12l90 968l252 48l-129 -1016h-213zM1839 1376q0 47 32.5 79t73.5 32q35 0 57.5 -24.5t22.5 -63.5q0 -47 -31.5 -80t-74.5 -33q-35 0 -57.5 24.5t-22.5 65.5zM792 731l29 115h186q47 348 191.5 522t380.5 174q170 0 252 -92l-99 -131q-59 86 -165 86 q-260 0 -334 -559h381l-27 -115h-367l-108 -866h-225l110 866h-205zM16 731l29 115h186q47 348 191.5 522t380.5 174q170 0 252 -92l-99 -131q-59 86 -165 86q-260 0 -334 -559h381l-27 -115h-367l-108 -866h-225l110 866h-205z" />
<glyph unicode="&#xfb04;" horiz-adv-x="2093" d="M1679 293q0 127 44 423l118 771l250 33q-92 -496 -142.5 -807.5t-50.5 -446.5q0 -82 28.5 -139t100.5 -111l-209 -55q-78 29 -108.5 110t-30.5 222zM792 731l29 115h186q47 348 191.5 522t380.5 174q170 0 252 -92l-99 -131q-59 86 -165 86q-260 0 -334 -559h381 l-27 -115h-367l-108 -866h-225l110 866h-205zM16 731l29 115h186q47 348 191.5 522t380.5 174q170 0 252 -92l-99 -131q-59 86 -165 86q-260 0 -334 -559h381l-27 -115h-367l-108 -866h-225l110 866h-205z" />
</font>
</defs>
</svg>
