<?xml version="1.0" standalone="no"?>
<!DOCTYPE svg PUBLIC "-//W3C//DTD SVG 1.1//EN" "http://www.w3.org/Graphics/SVG/1.1/DTD/svg11.dtd" >
<svg xmlns="http://www.w3.org/2000/svg">
<metadata>
This is a custom SVG webfont generated by Font Squirrel.
Copyright   : Copyright 19901995 as an unpublished work by Bitstream Inc  All rights reserved  Confidential
</metadata>
<defs>
<font id="HumanaSansITCLightBold" horiz-adv-x="1024" >
<font-face units-per-em="2048" ascent="1638" descent="-410" />
<missing-glyph horiz-adv-x="452" />
<glyph unicode=" "  horiz-adv-x="452" />
<glyph unicode="&#x09;" horiz-adv-x="452" />
<glyph unicode="&#xa0;" horiz-adv-x="452" />
<glyph unicode="!" horiz-adv-x="593" d="M117 1331l364 25l-71 -996l-222 -16zM174 100q0 51 34 85t85 34t86 -33.5t35 -85.5q0 -51 -35 -85.5t-86 -34.5t-85 34.5t-34 85.5z" />
<glyph unicode="&#x22;" horiz-adv-x="712" d="M76 877v561h219v-561h-219zM416 877v561h223v-561h-223z" />
<glyph unicode="#" horiz-adv-x="1482" d="M51 408v96h332l72 321h-346v97h364l100 462l166 -18l-96 -444h277l100 462l166 -18l-96 -444h342v-95h-361l-70 -323h373v-94h-393l-104 -490l-168 19l102 471l-276 -2l-105 -488l-168 19l103 469h-314zM555 504h274l72 323l-276 -2z" />
<glyph unicode="$" horiz-adv-x="1112" d="M61 981q0 172 135.5 264t401.5 92v101h123v-105q176 -6 328 -80l-88 -180q-104 76 -240 92v-438q330 -135 330 -365q0 -74 -36 -142t-104.5 -120.5t-166 -85t-220.5 -34.5v-132h-123v136q-92 10 -175 28.5t-160 48.5l73 183q63 -33 128 -53.5t134 -26.5v418 q-176 70 -258 163t-82 236zM440 973q0 -113 158 -189v375q-158 -36 -158 -186zM524 168q152 31 152 174q0 59 -37 103t-115 81v-358z" />
<glyph unicode="%" horiz-adv-x="1685" d="M-31 993q0 168 102.5 261.5t293.5 93.5q199 0 302 -92.5t103 -262.5q0 -176 -103.5 -269t-301.5 -93q-193 0 -294.5 94t-101.5 268zM186 989q0 -115 50.5 -178t128.5 -63q86 0 137 63t51 178q0 113 -51 177.5t-137 64.5q-80 0 -129.5 -63.5t-49.5 -178.5zM291 -197 l903 1729h137l-903 -1729h-137zM823 328q0 168 102.5 261t293.5 93q199 0 302 -92t103 -262q0 -176 -103.5 -269.5t-301.5 -93.5q-193 0 -294.5 94.5t-101.5 268.5zM1040 324q0 -115 50.5 -178.5t128.5 -63.5q86 0 137 63.5t51 178.5q0 113 -51 177t-137 64 q-80 0 -129.5 -63t-49.5 -178z" />
<glyph unicode="&#x26;" horiz-adv-x="1732" d="M113 434q0 188 50 340t140 259.5t218 165.5t286 58q217 0 330.5 -75.5t113.5 -214.5q0 -135 -85 -216t-253 -104l902 -620l-381 -78l-201 157q-88 -74 -223.5 -107.5t-327.5 -33.5q-569 0 -569 469zM422 475q0 -188 90 -294.5t248 -106.5q86 0 163.5 45t125.5 123 l-586 479q-41 -133 -41 -246zM553 897q0 -76 46 -119t126 -43q104 0 170 69.5t66 184.5q0 74 -43.5 115t-120.5 41q-51 0 -96.5 -19.5t-78 -53.5t-51 -79t-18.5 -96z" />
<glyph unicode="'" horiz-adv-x="370" d="M76 877v561h219v-561h-219z" />
<glyph unicode="(" horiz-adv-x="704" d="M205 487q43 999 459 1096v-90q-188 -125 -207 -999q18 -801 207 -920v-88q-416 79 -459 1001z" />
<glyph unicode=")" horiz-adv-x="704" d="M41 -426q92 59 144.5 287.5t62.5 632.5q-10 442 -62.5 691t-144.5 308v90q416 -94 459 -1096q-43 -920 -459 -1001v88z" />
<glyph unicode="*" horiz-adv-x="661" d="M0 1010l14 116l228 -6l-129 187l127 34l96 -174l88 174l129 -34l-129 -187l238 8l-15 -118l-223 8l129 -184l-129 -33l-88 168l-94 -170l-129 35l125 182z" />
<glyph unicode="+" horiz-adv-x="1705" d="M254 496v231h481v494h238v-494h479v-231h-479v-496h-238v496h-481z" />
<glyph unicode="," horiz-adv-x="444" d="M55 -344q100 201 107 416l6 155h172l-4 -123q-4 -137 -53.5 -255.5t-145.5 -229.5z" />
<glyph unicode="-" horiz-adv-x="647" d="M61 389v223h525v-223h-525z" />
<glyph unicode="." horiz-adv-x="444" d="M102 100q0 51 34 85t85 34t86 -33.5t35 -85.5q0 -51 -35 -85.5t-86 -34.5t-85 34.5t-34 85.5z" />
<glyph unicode="/" horiz-adv-x="978" d="M-92 -492l1040 2053h123l-1040 -2053h-123z" />
<glyph unicode="0" horiz-adv-x="1357" d="M92 655q0 342 148.5 515t439.5 173q289 0 437.5 -174t148.5 -518t-146.5 -516t-439.5 -172q-291 0 -439.5 174t-148.5 518zM414 653q0 -258 70.5 -390t195.5 -132t196.5 131t71.5 387q0 258 -72.5 392.5t-195.5 134.5q-125 0 -195.5 -132.5t-70.5 -390.5z" />
<glyph unicode="1" horiz-adv-x="925" d="M-41 1200l713 150l-27 -1225h240v-125h-850v125h291v1005l-19 13l-270 -109z" />
<glyph unicode="2" horiz-adv-x="1103" d="M0 1270q162 70 479 69q258 0 380 -82.5t122 -265.5q0 -195 -124 -393.5t-372 -396.5v-19l660 -10l-31 -172h-1071l-20 100q311 217 465.5 433.5t154.5 420.5q0 121 -70.5 177.5t-218.5 56.5q-92 0 -174 -25.5t-164 -79.5z" />
<glyph unicode="3" horiz-adv-x="1005" d="M-20 129q41 -6 83.5 -8t90.5 -2q123 0 218 22.5t160.5 62.5t99.5 94t34 118q0 94 -94.5 144t-282.5 50q-72 0 -137 -14l-21 100q250 51 374 133t124 191q0 78 -73 122t-214 44q-86 0 -161 -16.5t-142 -51.5l-51 148q94 39 198.5 55t225.5 16q268 0 397 -71.5t129 -223.5 q0 -125 -90 -205.5t-277 -140.5v-12q199 -4 301.5 -71.5t102.5 -188.5q0 -205 -212 -326t-624 -121h-59q-29 0 -60 3z" />
<glyph unicode="4" horiz-adv-x="1232" d="M41 369l590 987l356 -41l-12 -873l258 -18l-25 -141l-229 -2v-308l-332 -28v344l-555 14zM287 506l12 -17l344 -18l14 629l-20 8z" />
<glyph unicode="5" horiz-adv-x="1083" d="M61 145q41 -6 84 -8t86 -2q223 0 345 78t122 203q0 137 -126 187t-394 50h-39q-29 0 -76 -2l72 656l897 -2l-61 -185l-539 25l-33 -336q319 0 471 -83t152 -275q0 -102 -43 -189.5t-125 -150t-200.5 -97t-268.5 -34.5q-72 0 -141.5 2t-137.5 10z" />
<glyph unicode="6" horiz-adv-x="1122" d="M92 393q0 162 68.5 328t204.5 321q117 135 241.5 212t245.5 94l250 -86q-223 -57 -369.5 -183.5t-230.5 -335.5l12 -8q98 31 182 31q178 0 278.5 -100.5t100.5 -270.5q0 -201 -131 -318.5t-366 -117.5q-233 0 -359.5 113.5t-126.5 320.5zM412 389q0 -135 54 -205.5 t152 -70.5q80 0 127.5 67.5t47.5 196.5q0 123 -50.5 186.5t-142.5 63.5q-59 0 -96 -13.5t-57.5 -41t-27.5 -74t-7 -109.5z" />
<glyph unicode="7" horiz-adv-x="1036" d="M-61 1305l1093 2l45 -62l-645 -1272l-334 62l576 1065l-12 28l-680 9z" />
<glyph unicode="8" horiz-adv-x="1060" d="M61 285q0 229 271 362q-123 68 -182.5 153t-59.5 201q0 74 32 136.5t91 106.5t144 68.5t192 24.5q213 0 322.5 -84t109.5 -243q0 -100 -55.5 -182.5t-167.5 -159.5q143 -84 212.5 -170t69.5 -205q0 -154 -132 -241t-382 -87q-229 0 -347 83t-118 237zM330 303 q0 -86 51 -138t143 -52q80 0 131.5 49t51.5 129q0 70 -61.5 139.5t-184.5 130.5q-66 -53 -98.5 -119.5t-32.5 -138.5zM399 1014q0 -78 50.5 -138.5t154.5 -119.5q61 41 95 104.5t34 140.5q0 94 -42 144.5t-118 50.5t-125 -51t-49 -131z" />
<glyph unicode="9" horiz-adv-x="1103" d="M61 936q0 86 35 160.5t100.5 128t159 84t209.5 30.5q477 0 477 -411q0 -573 -555 -967l-276 74q285 166 430 516l-10 10q-72 -29 -170 -29q-92 0 -166 29t-126 81t-80 127t-28 167zM342 952q0 -133 56.5 -205.5t148.5 -72.5q63 0 127 35q53 72 53 245q0 115 -45 174.5 t-131 59.5q-90 0 -149.5 -66t-59.5 -170z" />
<glyph unicode=":" horiz-adv-x="446" d="M102 100q0 51 34 85t85 34t86 -33.5t35 -85.5q0 -51 -35 -85.5t-86 -34.5t-85 34.5t-34 85.5zM104 725q0 51 34 85t85 34t86 -34t35 -85t-35 -86t-86 -35t-85 34t-34 87z" />
<glyph unicode=";" horiz-adv-x="446" d="M55 -344q100 201 107 416l6 155h172l-4 -123q-4 -137 -53.5 -255.5t-145.5 -229.5zM135 725q0 51 34 85t85 34t86 -34t35 -85t-35 -86t-86 -35t-85 34t-34 87z" />
<glyph unicode="&#x37e;" horiz-adv-x="446" d="M55 -344q100 201 107 416l6 155h172l-4 -123q-4 -137 -53.5 -255.5t-145.5 -229.5zM135 725q0 51 34 85t85 34t86 -34t35 -85t-35 -86t-86 -35t-85 34t-34 87z" />
<glyph unicode="&#x3c;" horiz-adv-x="1705" d="M264 494v233l1178 487v-253l-854 -351l854 -348v-254z" />
<glyph unicode="=" horiz-adv-x="1705" d="M254 272v230h1198v-230h-1198zM254 719v231h1198v-231h-1198z" />
<glyph unicode="&#x3e;" horiz-adv-x="1705" d="M264 8v254l854 348l-854 351v253l1178 -487v-233z" />
<glyph unicode="?" horiz-adv-x="780" d="M82 1266q92 37 179 54t167 17q141 0 221 -53t80 -133q0 -74 -44 -135.5t-107 -138.5q-66 -80 -101 -149t-35 -130q0 -63 34 -102t95 -50l-215 -73q-111 31 -163 84t-52 141q0 74 43 135.5t103 136.5q59 74 92 129.5t33 98.5t-28 68.5t-77 25.5q-63 0 -168 -49zM260 100 q0 51 34 85t85 34q53 0 87 -33.5t34 -85.5q0 -51 -34 -85.5t-87 -34.5q-51 0 -85 33.5t-34 86.5z" />
<glyph unicode="@" horiz-adv-x="1462" d="M82 633q0 150 51 273.5t145.5 211.5t225.5 137.5t291 49.5q133 0 240.5 -41t184 -117t118.5 -183.5t42 -238.5q0 -102 -30.5 -189t-86 -149.5t-129 -97.5t-159.5 -35q-115 0 -177.5 70.5t-62.5 205.5q0 10 1 20.5t1 20.5h-12q-33 -109 -91.5 -163t-131.5 -54 q-119 0 -119 185q0 98 23.5 179t64.5 139t96.5 90t118.5 32q59 0 125 -23.5t143 -35.5l-28 -242l-13 -92q-6 -47 -6 -88q0 -154 111 -154q115 0 182.5 102.5t67.5 294.5q0 223 -124 352.5t-341 129.5q-147 0 -264 -41t-199 -119t-125 -188.5t-43 -251.5q0 -131 41 -239 t114.5 -184.5t179 -118.5t234.5 -42q283 0 437 178l53 -45q-72 -104 -201 -158.5t-309 -54.5q-145 0 -263 50t-201 139.5t-129 213.5t-46 271zM553 614q0 -106 53 -106q33 0 80 85t72 253q-27 35 -62 35q-25 0 -49 -19.5t-45.5 -54.5t-35 -84.5t-13.5 -108.5z" />
<glyph unicode="A" horiz-adv-x="1386" d="M0 18l514 1303h352l520 -1305l-399 -45l-164 484h-415l-179 -478zM459 616l14 -18l303 -12l-160 475z" />
<glyph unicode="B" horiz-adv-x="1392" d="M154 1317h634q254 0 371 -68.5t117 -240.5q0 -129 -78 -210t-229 -110v-8q332 -55 331 -299q0 -381 -571 -381h-567zM512 143h57q193 0 282 48.5t89 179.5q0 129 -95 184t-300 55h-27zM518 750l19 -15h84q266 0 266 234q0 98 -67.5 151.5t-198.5 53.5h-95z" />
<glyph unicode="C" horiz-adv-x="1382" d="M92 463q0 201 50.5 362.5t140.5 275t215 175t276 61.5q119 0 208 -31.5t152.5 -97t101.5 -169t56 -244.5l-329 -86v49q0 422 -158 422q-84 0 -170 -117q-72 -98 -115 -233.5t-43 -278.5q0 -207 86 -294t281 -87q244 0 409 113l68 -185q-133 -74 -281.5 -103.5 t-326.5 -29.5q-322 0 -471.5 118t-149.5 380z" />
<glyph unicode="D" horiz-adv-x="1562" d="M154 1311h606q338 0 519 -160t181 -449q0 -344 -197.5 -523t-578.5 -179h-518zM528 156l19 -15h86q223 0 340 140.5t117 412.5q0 252 -110 362.5t-359 110.5h-89z" />
<glyph unicode="E" horiz-adv-x="1165" d="M154 1282l36 25h879l-29 -166l-516 -17l-8 -348l12 -16l480 12l-21 -194l-459 6l-16 -21l-4 -379l18 -14l568 29l-29 -183l-903 -32z" />
<glyph unicode="F" horiz-adv-x="1105" d="M154 1282l36 25h875l-29 -164l-512 -17l-8 -372l21 -21l467 25l-21 -189l-455 -6l-16 -20l-8 -559h-342z" />
<glyph unicode="G" horiz-adv-x="1390" d="M92 524q0 184 50.5 334t141.5 256.5t219 164.5t283 58q225 0 346 -125t156 -387l-325 -84v19q0 213 -40 316.5t-132 103.5q-51 0 -107.5 -44t-105 -127t-79 -202t-30.5 -266q0 -371 375 -371q141 0 196 43v260h-237l20 168h461v-557q-121 -66 -253 -93.5t-286 -27.5 q-653 0 -653 561z" />
<glyph unicode="H" horiz-adv-x="1566" d="M154 1305l372 12l-6 -526l21 -21l508 -12l-9 542l373 3l-18 -1303h-340l-4 594l-23 29l-512 -13l-4 -610h-346z" />
<glyph unicode="I" horiz-adv-x="681" d="M154 1305l374 12l-16 -1317h-354z" />
<glyph unicode="J" horiz-adv-x="681" d="M-4 -162q68 33 103.5 86t53 130t20.5 178.5t3 230.5v24q0 324 -24 832l378 -33q4 -186 6.5 -326.5t2.5 -236.5q0 -223 -7.5 -391t-31 -285t-66.5 -182.5t-115 -81.5z" />
<glyph unicode="K" horiz-adv-x="1351" d="M158 1305l372 12l-8 -668l396 666l376 -41l-413 -604l471 -641l-418 -47l-397 616h-15l-8 -598h-348z" />
<glyph unicode="L" horiz-adv-x="1007" d="M154 1305l372 12l-10 -1133l19 -14l473 29l-29 -187l-813 -32z" />
<glyph unicode="M" horiz-adv-x="1853" d="M143 0l70 1315l416 20l293 -839l286 827h402l131 -1315l-359 -14l-84 958h-16l-305 -874h-238l-317 899h-12l-19 -977h-248z" />
<glyph unicode="N" horiz-adv-x="1552" d="M154 0l18 1315l330 20l672 -960l12 6l-17 919l230 21l-13 -1298l-344 -39l-645 884l-14 -8v-860h-229z" />
<glyph unicode="O" horiz-adv-x="1607" d="M92 651q0 334 182.5 510t528.5 176q344 0 528.5 -175t184.5 -498q0 -160 -50.5 -290t-143.5 -220.5t-225 -139.5t-294 -49q-164 0 -295 49t-223 138.5t-142.5 216t-50.5 282.5zM479 651q0 -260 84 -392t240 -132t238.5 131t82.5 387q0 264 -84 399.5t-237 135.5 q-154 0 -239 -134.5t-85 -394.5z" />
<glyph unicode="P" horiz-adv-x="1310" d="M154 1317h501q307 0 456 -78t149 -254q0 -217 -170 -329.5t-508 -112.5h-68l-2 -543h-350zM516 690l19 -14h38q154 0 239 79t85 218q0 115 -73.5 158t-233.5 43h-66z" />
<glyph unicode="Q" horiz-adv-x="1607" d="M92 651q0 334 182.5 510t528.5 176q350 0 531.5 -176t181.5 -516q0 -469 -463 -651v-21l522 -18l-41 -240l-897 217q-262 63 -403.5 247.5t-141.5 471.5zM479 651q0 -260 84 -392t240 -132t238.5 131t82.5 387q0 264 -84 399.5t-237 135.5q-154 0 -239 -134.5t-85 -394.5 z" />
<glyph unicode="R" horiz-adv-x="1402" d="M154 1317h657q242 0 355.5 -69.5t113.5 -231.5q0 -135 -88 -228.5t-254 -130.5v-12q274 -59 434 -616l-395 -45q-68 254 -176.5 405.5t-253.5 204.5l-29 -14l-4 -580h-352zM520 733l27 -14h37q150 0 228.5 69.5t78.5 198.5q0 98 -75 142.5t-230 44.5h-58z" />
<glyph unicode="S" horiz-adv-x="1091" d="M51 981q0 174 139.5 265t419.5 91q121 0 225.5 -19.5t202.5 -64.5l-88 -180q-137 94 -276 94q-119 0 -181.5 -51t-62.5 -143q0 -49 24.5 -85t69.5 -65.5t109 -59.5l141 -67q266 -129 266 -336q0 -74 -36.5 -143.5t-107.5 -121.5t-172 -83.5t-230 -31.5q-225 0 -439 81 l74 183q78 -37 149.5 -59.5t153.5 -22.5q117 0 175.5 45t58.5 129q0 74 -47.5 120t-145.5 89q-100 45 -178 84t-132 87t-83 110.5t-29 154.5z" />
<glyph unicode="T" horiz-adv-x="1230" d="M20 1307h1231l-28 -164l-402 -17l-4 -1126h-362l-4 1126l-398 -10z" />
<glyph unicode="U" horiz-adv-x="1476" d="M143 1305l371 12l-10 -733v-17q0 -223 75.5 -330.5t227.5 -107.5q272 0 272 471v703h254l-12 -795q-8 -545 -588 -545q-281 0 -431 141.5t-152 399.5z" />
<glyph unicode="V" horiz-adv-x="1239" d="M-20 1260l382 61l334 -846h13l317 828l213 -3l-534 -1320h-166z" />
<glyph unicode="W" horiz-adv-x="1845" d="M-20 1274l385 47l256 -854h12l217 737h283l202 -737h13l268 838h229l-459 -1325h-227l-241 841h-9l-254 -841h-217z" />
<glyph unicode="X" horiz-adv-x="1269" d="M0 1270l408 53l282 -440l273 415h249l-372 -598v-12l450 -659l-416 -58l-292 451l-306 -424h-264l418 596v12z" />
<glyph unicode="Y" horiz-adv-x="1218" d="M0 1276l412 49l295 -610l278 592h234l-410 -863l-4 -444h-344l-4 471z" />
<glyph unicode="Z" horiz-adv-x="1179" d="M41 1286l1030 31l33 -74l-584 -1053l19 -16l620 23l-45 -201l-1012 -6l-36 82l577 1038l-12 18l-553 -45z" />
<glyph unicode="[" horiz-adv-x="704" d="M225 -530v2101l494 -27v-104l-246 14v-1868l246 15v-105z" />
<glyph unicode="\" horiz-adv-x="978" d="M-51 1561h123l1040 -2053h-123z" />
<glyph unicode="]" horiz-adv-x="704" d="M-14 -399l245 -15v1868l-245 -14v104l493 27v-2101l-493 26v105z" />
<glyph unicode="^" horiz-adv-x="2048" d="M414 899l465 563h288l465 -563h-264l-344 342l-346 -342h-264z" />
<glyph unicode="_" d="M0 -272h1024v-224h-1024v224z" />
<glyph unicode="`" d="M182 1329q0 59 60 60q25 0 62.5 -18.5t76.5 -53.5l242 -221l-19 -33l-242 113q-180 81 -180 153z" />
<glyph unicode="a" horiz-adv-x="1081" d="M61 188q0 55 25 101.5t70 80t107.5 53t137.5 19.5q70 0 130.5 -12t107.5 -35v64q0 109 -4 187.5t-17.5 128.5t-38 74.5t-65.5 24.5q-145 0 -207 -327l-237 59q115 401 503 402q178 0 266.5 -60.5t110.5 -206.5q4 -35 5 -85t1 -113q0 -106 4.5 -247.5t28.5 -322.5 l-327 -26l-13 162h-4q-53 -66 -140 -105t-192 -39q-123 0 -187.5 60.5t-64.5 162.5zM360 207q0 -41 34 -68.5t85 -27.5q29 0 57.5 12t51 34.5t38 53.5t17.5 68q-70 41 -135 40q-72 0 -110 -29.5t-38 -82.5z" />
<glyph unicode="b" horiz-adv-x="1165" d="M113 1487l348 33q-6 -487 -31 -932h10q98 418 391 418q262 0 263 -357q0 -154 -39 -280.5t-107.5 -216t-162 -138.5t-199.5 -49q-104 0 -189.5 40t-146 117t-93 188.5t-34.5 254.5zM479 299q0 -209 121 -209q166 0 166 463q0 86 -26.5 130t-71.5 44q-29 0 -62 -32.5 t-61.5 -89t-47 -135.5t-18.5 -171z" />
<glyph unicode="c" horiz-adv-x="1064" d="M55 422q0 127 42 234.5t116 185.5t174 122t217 44q180 0 269.5 -102.5t105.5 -317.5l-250 -56q-4 176 -26.5 259t-90.5 83q-43 0 -81.5 -30.5t-67.5 -86t-45.5 -133t-16.5 -171.5q0 -154 68 -232t193 -78q137 0 294 76l58 -149q-100 -55 -213 -80t-246 -25 q-248 0 -374 117t-126 340z" />
<glyph unicode="d" horiz-adv-x="1153" d="M72 410q0 137 33.5 246.5t92 187.5t138.5 120t174 42q59 0 110.5 -13.5t102.5 -42.5l-35 537l344 33q0 -98 -1 -189.5t-1 -177.5q0 -1004 51 -1210l-336 -21l-28 311q-119 -270 -350 -270q-295 1 -295 447zM395 473q0 -133 28 -197.5t99 -64.5q61 0 111.5 84t83.5 252 v151q-55 178 -137 179q-88 0 -136.5 -100.5t-48.5 -303.5z" />
<glyph unicode="e" horiz-adv-x="1095" d="M72 412q0 131 40 240.5t110.5 188.5t165.5 123t208 44q201 0 314.5 -130t117.5 -376h-610q-2 -14 -2 -29v-24q0 -158 70.5 -233t218.5 -75q145 0 274 78l55 -149q-78 -51 -191.5 -78t-260.5 -27q-510 1 -510 447zM438 647l8 -16h316q0 123 -38 183t-110 60 q-53 0 -102 -58t-74 -169z" />
<glyph unicode="f" horiz-adv-x="841" d="M-20 723l16 131h201q2 344 146 516t429 172q94 0 170 -21.5t145 -74.5l-94 -150q-37 43 -84 61.5t-112 18.5q-131 0 -201 -128t-70 -384v-10h410l-14 -131h-394v-719h-329v719h-219z" />
<glyph unicode="g" horiz-adv-x="1116" d="M72 362q0 145 39 264t109.5 204t165.5 131.5t210 46.5q229 0 328.5 -131.5t99.5 -415.5v-369q0 -133 -16.5 -233.5t-69.5 -175.5q-59 -86 -161.5 -136.5t-225.5 -50.5q-135 0 -234.5 29t-171.5 94l115 148q109 -96 229 -97q127 0 174.5 87t47.5 266v266h-13 q-35 -158 -130 -242t-230 -84q-123 0 -194.5 103t-71.5 296zM381 457q0 -125 24.5 -186.5t83.5 -61.5q45 0 80 49q49 76 83 193.5t34 242.5q0 96 -25.5 142.5t-85.5 46.5q-86 0 -140 -107.5t-54 -318.5z" />
<glyph unicode="h" horiz-adv-x="1228" d="M143 1487l353 33l-27 -846h12q154 305 408 305q109 0 168 -58.5t59 -166.5v-15l-26 -731l-334 -14l-8 16l30 520v31q0 143 -84 144q-41 0 -80 -33t-71.5 -97.5t-54 -158.5t-25.5 -219l-8 -222h-308z" />
<glyph unicode="i" horiz-adv-x="595" d="M123 956l350 48l-4 -1016h-315zM176 1368q0 49 35 84t84 35t84 -35t35 -84t-35 -84t-84 -35t-84 34t-35 85z" />
<glyph unicode="j" horiz-adv-x="595" d="M-29 -451q68 33 104 86.5t53 130t20.5 178t3.5 230.5v23q0 334 -25 811l338 -33q4 -205 6 -343t2 -210q0 -219 -7 -385t-30.5 -281.5t-66.5 -180t-115 -81.5zM180 1368q0 51 35 85t84 34t84 -35t35 -84t-35 -84t-84 -35t-84 34t-35 85z" />
<glyph unicode="k" horiz-adv-x="1134" d="M143 1487l351 33l-48 -1123h15l104 269q131 340 385 340q74 0 156 -35l-64 -201q-39 37 -110 37q-72 0 -121 -31t-90 -102l455 -666l-367 -47l-252 391q-35 -80 -65.5 -169t-59.5 -185l-282 -2z" />
<glyph unicode="l" horiz-adv-x="595" d="M115 573q0 186 8 412.5t22 501.5l355 33q-29 -401 -40 -653.5t-11 -358.5q0 -98 7 -177t27.5 -138.5t57.5 -102.5t96 -74l-307 -55q-66 25 -108 73t-65.5 122.5t-32.5 178t-9 238.5z" />
<glyph unicode="m" horiz-adv-x="1765" d="M143 969l334 26q14 -92 22.5 -186t10.5 -193h12q94 344 334 345q82 0 126 -65t44 -194v-8q106 283 354 283q129 0 201 -69.5t72 -188.5v-27l-49 -692h-324l27 506q0 12 1 24.5t1 22.5q0 166 -90 166q-29 0 -59 -24.5t-54.5 -69.5t-41.5 -110.5t-22 -145.5l-14 -287h-264 l4 418v20q0 66 -12.5 98.5t-44.5 32.5q-78 0 -142.5 -168t-76.5 -499h-320l6 311q0 33 1 63.5t1 61.5q0 145 -8.5 282.5t-28.5 266.5z" />
<glyph unicode="n" horiz-adv-x="1226" d="M143 1018h342l-14 -346h12q154 303 408 303q106 0 164.5 -56.5t58.5 -164.5v-17l-27 -729l-333 -14l-6 10l32 526q0 10 1 19.5t1 19.5q0 135 -86 136q-37 0 -76.5 -34t-72.5 -99.5t-55.5 -160t-26.5 -212.5l-6 -199h-305z" />
<glyph unicode="o" horiz-adv-x="1155" d="M72 500q0 117 34.5 211t101 159.5t160 101.5t210.5 36t210 -36t159.5 -102.5t101 -160t34.5 -209.5q0 -123 -34.5 -222.5t-100 -169t-160 -106.5t-210.5 -37q-117 0 -211.5 37t-160 106.5t-100 169t-34.5 222.5zM414 500q0 -387 166 -387q162 0 161 387q0 176 -46 269 t-117 93q-72 0 -118 -93t-46 -269z" />
<glyph unicode="p" horiz-adv-x="1183" d="M143 1018l334 49l-18 -479h12q68 211 161 314.5t226 103.5t193.5 -96.5t60.5 -301.5q0 -147 -34 -266t-93 -202t-141 -128t-178 -45q-49 0 -100.5 8.5t-106.5 24.5v-504h-297zM463 166q57 -51 115 -51q43 0 82.5 28.5t69.5 80.5t47.5 125t17.5 163q0 104 -26 160.5 t-60 56.5q-31 0 -67 -36t-69.5 -107.5t-62.5 -177t-47 -242.5z" />
<glyph unicode="q" horiz-adv-x="1183" d="M72 387q0 143 31.5 259t89 196t134 123t169.5 43q66 0 117 -17.5t85 -46.5v113h332l10 -1540l-333 -33l14 874h-12q-39 -195 -135.5 -295t-237.5 -100q-123 0 -193.5 108.5t-70.5 315.5zM391 432q0 -98 23.5 -145t77.5 -47q61 0 112 100q39 78 59.5 165t20.5 154 q0 98 -37 155.5t-86 57.5q-72 0 -121 -112.5t-49 -327.5z" />
<glyph unicode="r" horiz-adv-x="917" d="M143 954l318 29l2 -397h8q94 369 350 379l97 -254h-27q-84 0 -155.5 -37t-126 -103.5t-88.5 -161t-40 -210.5l-12 -207h-291z" />
<glyph unicode="s" horiz-adv-x="976" d="M72 18l61 162q59 -35 116.5 -52t119.5 -17q96 0 145 32.5t49 89.5q0 61 -54 96.5t-151 78.5q-68 31 -120 60.5t-86.5 65t-52 78.5t-17.5 101q0 145 120 221t357 76q98 0 183 -16.5t163 -57.5l-90 -160q-119 88 -244 88q-76 0 -115.5 -31.5t-39.5 -89.5q0 -98 155 -168 l135 -64q60 -30 101 -65.5t63.5 -81t22.5 -106.5q0 -127 -123 -210t-344 -83q-98 0 -185 11t-169 42z" />
<glyph unicode="t" horiz-adv-x="815" d="M0 723l16 131h207l29 287l344 28l-37 -315h283l-13 -131h-280q-18 -188 -19 -332q0 -139 27 -200.5t102 -61.5q76 0 168 49l39 -127q-82 -45 -168 -65.5t-184 -20.5q-90 0 -150.5 23.5t-97.5 75t-52 134.5t-15 201q0 53 3 134t11 190h-213z" />
<glyph unicode="u" horiz-adv-x="1212" d="M123 209v8l8 741l338 21l-18 -604v-8q0 -92 59 -93q55 0 131 156q59 117 77.5 253t18.5 310h301l31 -1034l-340 18l-4 365h-8q-123 -377 -400 -377q-194 0 -194 244z" />
<glyph unicode="v" horiz-adv-x="1048" d="M0 965l350 43l207 -672h10l238 641h244l-361 -1002h-323z" />
<glyph unicode="w" horiz-adv-x="1488" d="M0 975l340 33l133 -668h14l154 553h307q-18 -127 -26.5 -230.5t-8.5 -185.5q0 -150 26 -225.5t69 -75.5q92 0 92 545q0 53 -4 115.5t-13 132.5h365q-31 -498 -154 -750t-311 -252q-143 0 -229 109.5t-90 314.5h-13l-129 -426h-233z" />
<glyph unicode="x" horiz-adv-x="1107" d="M20 0l355 477v8l-330 482l383 41l188 -322l209 291h262l-335 -477v-8l331 -474l-358 -45l-205 328l-215 -301h-285z" />
<glyph unicode="y" horiz-adv-x="1116" d="M-10 963l385 45l264 -670h14l191 639h262l-510 -1489l-268 41l164 373v61z" />
<glyph unicode="z" horiz-adv-x="1046" d="M31 946q162 16 314.5 25.5t299.5 9.5q84 0 144.5 -3t100.5 -16.5t58.5 -39t18.5 -68.5q0 -80 -113 -257t-344 -452l10 -8l496 19l-29 -166l-917 2l-27 61q137 147 235.5 271.5t162 216.5t92 149.5t28.5 71.5q0 35 -39 46t-123 11q-176 0 -336 -61z" />
<glyph unicode="{" horiz-adv-x="704" d="M119 481v101h26q135 0 136 71q0 31 -11.5 75t-24 102.5t-23.5 129t-11 152.5q0 301 223 455l250 -43q-102 -92 -149.5 -199.5t-47.5 -243.5q0 -61 7.5 -116.5t15.5 -105.5l15 -94q7 -44 7 -83q0 -68 -38.5 -101.5t-124.5 -43.5v-11q88 -10 125.5 -41.5t37.5 -103.5 q0 -39 -7 -84l-15 -94q-8 -49 -15.5 -104.5t-7.5 -114.5q0 -135 47.5 -244t149.5 -201l-250 -43q-119 92 -171 199.5t-52 253.5q0 80 11 149.5t23.5 128t24 106.5t11.5 83q0 37 -39 51t-123 14z" />
<glyph unicode="|" d="M393 -483v2048h240v-2048h-240z" />
<glyph unicode="}" horiz-adv-x="704" d="M20 -461q197 178 197 445q0 119 -22.5 218t-22.5 179q0 72 38 103.5t126 41.5v11q-86 10 -125 43.5t-39 101.5q0 39 7 84l16 95q8 50 15 105.5t7 114.5q0 135 -48 243t-149 200l250 43q223 -154 224 -455q0 -82 -11.5 -152.5t-24 -129t-23.5 -103.5t-11 -74 q0 -41 32.5 -56t100.5 -15h29v-101q-86 0 -124 -14t-38 -57q0 -33 11 -78t23.5 -103.5t24 -129t11.5 -150.5q0 -145 -52.5 -253t-171.5 -200z" />
<glyph unicode="~" d="M221 1100v24q0 252 127 252q33 0 73 -18.5t82 -40t85 -38.5t82 -17q70 0 96 114h37q2 -16 2 -30v-27q0 -219 -127 -219q-35 0 -76 17.5t-84 39t-85 39.5t-81 18q-68 0 -94 -114h-37z" />
<glyph unicode="&#xa1;" horiz-adv-x="593" d="M117 -20l73 995l220 16l71 -987zM184 1235q0 51 35 86t86 35t85 -35t34 -86t-34 -85t-85 -34t-86 34t-35 85z" />
<glyph unicode="&#xa2;" horiz-adv-x="1138" d="M102 557q0 500 463 633v223h90v-219q166 -6 252 -106.5t103 -313.5l-250 -55q-4 166 -23.5 249t-81.5 93v-733h15q182 0 329 78l58 -150q-184 -98 -402 -102v-277h-90v275q-236 6 -349.5 105t-113.5 300zM424 563q0 -94 30.5 -145t110.5 -78v690q-63 -63 -102 -185 t-39 -282z" />
<glyph unicode="&#xa3;" horiz-adv-x="1183" d="M92 0l25 135h119v434h-111l16 113h95v45q0 293 147 444.5t424 151.5q92 0 166 -23.5t139 -78.5l-96 -115q-68 88 -172 88q-266 0 -266 -438v-74h380l-24 -113h-356v-440l528 23l-33 -152h-981z" />
<glyph unicode="&#xa4;" horiz-adv-x="1241" d="M61 444l201 203q-72 106 -72 238q0 135 72 237l-201 205l117 117l203 -201q49 35 108.5 54.5t131.5 19.5q139 0 243 -74l201 201l119 -117l-201 -205q70 -106 70 -237t-70 -238l201 -203l-119 -118l-201 202q-53 -39 -112.5 -56t-128.5 -17q-135 0 -242 73l-203 -202z M362 885q0 -53 20.5 -101.5t55.5 -83t82 -55t103 -20.5q53 0 100 20.5t83 55t56.5 82.5t20.5 102q0 53 -20.5 100t-56.5 83t-83 56.5t-100 20.5t-101.5 -20.5t-83.5 -56.5t-55.5 -83t-20.5 -100z" />
<glyph unicode="&#xa5;" horiz-adv-x="1210" d="M-29 1276l412 49l295 -610l278 592h234l-395 -832h204v-94h-219v-70h219v-94h-223v-217h-344l-2 217h-211v94h211l-2 70h-209v94h207z" />
<glyph unicode="&#xa6;" d="M393 -350v758h240v-758h-240zM393 674v758h240v-758h-240z" />
<glyph unicode="&#xa7;" horiz-adv-x="1208" d="M72 465q0 182 161 276q-86 104 -86 240q0 170 137.5 263t405.5 93q252 0 445 -84l-88 -180q-139 94 -277 94q-117 0 -180.5 -51t-63.5 -137q0 -45 16.5 -78t48.5 -59.5t80 -51t111 -53.5q86 -39 152.5 -76.5t112 -81.5t68 -96.5t22.5 -120.5q0 -78 -45 -154.5 t-134 -135.5q102 -102 103 -228q0 -74 -37 -142.5t-107.5 -121.5t-172 -85t-232.5 -32q-223 0 -436 82l74 183q78 -37 149.5 -59.5t153.5 -22.5q233 0 233 180q0 47 -24.5 83t-71.5 71t-119 62.5t-158 70.5q-125 63 -183 146t-58 206zM399 489q0 -92 90.5 -155.5 t270.5 -136.5q53 66 53 120q0 47 -22.5 83t-67.5 68t-114 63l-158 71q-52 -54 -52 -113z" />
<glyph unicode="&#xa8;" d="M256 1217q0 45 31.5 76.5t77.5 31.5q45 0 76.5 -31.5t31.5 -76.5t-31.5 -77t-76.5 -32t-77 32t-32 77zM549 1217q0 45 31.5 76.5t76.5 31.5t77 -31.5t32 -76.5t-32 -77t-77 -32t-76.5 32t-31.5 77z" />
<glyph unicode="&#xa9;" horiz-adv-x="555" d="M68 1243q0 43 17 83t48 70.5t72 49t88 18.5q45 0 86 -18.5t71.5 -49t49 -71.5t18.5 -86q0 -47 -18.5 -88t-49 -71.5t-72.5 -48t-89 -17.5q-43 0 -83 17.5t-71 48t-49 72.5t-18 91zM102 1239q0 -39 15.5 -74t41 -60.5t60.5 -40.5t74 -15t73.5 14t61.5 39.5t42 60.5t15 76 q0 80 -56 135.5t-136 55.5q-41 0 -75 -15.5t-60.5 -42t-41 -60.5t-14.5 -73zM178 1241q0 59 33 96t86 37q45 0 71.5 -22.5t28.5 -63.5h-55q-4 45 -47 45q-57 0 -57 -92q0 -90 57 -90q45 0 49 49h55q0 -45 -29.5 -71.5t-78.5 -26.5t-81 35.5t-32 103.5z" />
<glyph unicode="&#xaa;" horiz-adv-x="966" d="M174 485v82h619v-82h-619zM174 799q0 68 62.5 115t160.5 47q78 0 160 -29v43q0 143 -15.5 208.5t-70.5 65.5q-94 0 -133 -217l-160 37q78 268 334 268q117 0 176.5 -41t73.5 -135q4 -31 4 -80q0 -47 1 -110.5t5 -144.5t16 -175l-219 -18l-6 108h-4q-31 -45 -91 -71.5 t-130 -26.5q-78 0 -121 42t-43 114zM371 807q0 -29 22.5 -47.5t57.5 -18.5q41 0 71.5 31t34.5 82q-45 27 -86 27q-47 0 -73.5 -19.5t-26.5 -54.5z" />
<glyph unicode="&#xab;" horiz-adv-x="970" d="M92 475l377 389l154 -33l-308 -354l308 -358l-154 -33zM389 475l377 389l154 -33l-308 -354l308 -358l-154 -33z" />
<glyph unicode="&#xac;" horiz-adv-x="1705" d="M254 639v227h1198v-501h-229v274h-969z" />
<glyph unicode="&#xad;" horiz-adv-x="647" d="M61 389v223h525v-223h-525z" />
<glyph unicode="&#xae;" horiz-adv-x="555" d="M68 1243q0 43 17 83t48 70.5t72 49t88 18.5q45 0 86 -18.5t71.5 -49t49 -71.5t18.5 -86q0 -47 -18.5 -88t-49 -71.5t-72.5 -48t-89 -17.5q-43 0 -83 17.5t-71 48t-49 72.5t-18 91zM102 1239q0 -39 15.5 -74t41 -60.5t60.5 -40.5t74 -15t73.5 14t61.5 39.5t42 60.5t15 76 q0 80 -56 135.5t-136 55.5q-41 0 -75 -15.5t-60.5 -42t-41 -60.5t-14.5 -73zM203 1118v242h88q102 0 102 -70q0 -51 -51 -65l53 -107h-57l-47 99h-35v-99h-53zM256 1253h35q49 0 49 33q0 37 -51 37h-33v-70z" />
<glyph unicode="&#xaf;" d="M219 1149v135h586v-135h-586z" />
<glyph unicode="&#x2c9;" d="M219 1149v135h586v-135h-586z" />
<glyph unicode="&#xb0;" horiz-adv-x="712" d="M143 1124q0 90 61.5 151.5t151.5 61.5t151.5 -61.5t61.5 -151.5t-61.5 -151.5t-151.5 -61.5t-151.5 61.5t-61.5 151.5zM244 1124q0 -47 32.5 -79.5t79.5 -32.5q45 0 78 32.5t33 79.5q0 45 -34 79t-77 34q-45 0 -78.5 -33t-33.5 -80z" />
<glyph unicode="&#xb1;" horiz-adv-x="1705" d="M254 -18v231h1198v-231h-1198zM254 690v232h481v319h238v-319h479v-232h-479v-319h-238v319h-481z" />
<glyph unicode="&#xb2;" horiz-adv-x="729" d="M-4 1284q106 41 315 41q172 0 252 -49t80 -160q0 -117 -81 -235.5t-247 -237.5v-12l437 -6l-21 -103h-706l-15 60q207 131 308.5 261t101.5 253q0 72 -46 105.5t-145 33.5q-117 0 -223 -64z" />
<glyph unicode="&#xb3;" horiz-adv-x="663" d="M-18 600q29 -4 56.5 -5t59.5 -1q162 0 250 50t88 128q0 55 -62.5 86t-187.5 31q-23 0 -45 -2t-45 -6l-14 59q330 61 330 195q0 47 -49.5 72.5t-141.5 25.5q-113 0 -198 -39l-35 88q61 23 130.5 33t149.5 10q346 0 346 -178q0 -74 -59 -123t-182 -84v-8q131 -2 198.5 -43 t67.5 -113q0 -123 -140.5 -195.5t-410.5 -72.5h-39q-18 0 -39 2z" />
<glyph unicode="&#xb4;" d="M389 1096l242 221q41 37 77.5 54.5t63.5 17.5t42 -16.5t15 -43.5q0 -41 -44 -76.5t-136 -78.5l-241 -111z" />
<glyph unicode="&#xb5;" horiz-adv-x="1314" d="M-45 -428l238 1518h358l-80 -529q-12 -84 -12 -143q0 -170 143 -170q92 0 141.5 70.5t71.5 218.5l88 553h357l-175 -1090h-321l18 125q-41 -74 -89 -107.5t-120 -33.5q-59 0 -106 30.5t-78 89.5l-82 -532h-352z" />
<glyph unicode="&#x3bc;" horiz-adv-x="1314" d="M-45 -428l238 1518h358l-80 -529q-12 -84 -12 -143q0 -170 143 -170q92 0 141.5 70.5t71.5 218.5l88 553h357l-175 -1090h-321l18 125q-41 -74 -89 -107.5t-120 -33.5q-59 0 -106 30.5t-78 89.5l-82 -532h-352z" />
<glyph unicode="&#xb6;" horiz-adv-x="1601" d="M20 870q0 96 70 181.5t201 148t317.5 99t419.5 36.5q119 0 221.5 -7t188.5 -21l-49 -1385h-215l16 1299l-103 -15l7 -1280l-277 -32l43 1273q-309 -92 -309 -327q0 -197 233 -303l-174 -70q-287 12 -438.5 120.5t-151.5 282.5z" />
<glyph unicode="&#xb7;" horiz-adv-x="444" d="M102 721q0 51 34 85t85 34t86 -34t35 -85t-35 -86t-86 -35t-85 35t-34 86z" />
<glyph unicode="&#x22c5;" horiz-adv-x="444" d="M102 721q0 51 34 85t85 34t86 -34t35 -85t-35 -86t-86 -35t-85 35t-34 86z" />
<glyph unicode="&#xb8;" d="M360 -393q0 45 12.5 91t28.5 99l64 203h104l-10 -274q-4 -111 -39 -169.5t-88 -58.5q-72 0 -72 109z" />
<glyph unicode="&#xb9;" horiz-adv-x="610" d="M-33 1243l469 88l-16 -733h158v-76h-562v76h193v602l-12 8l-179 -65z" />
<glyph unicode="&#xba;" horiz-adv-x="1019" d="M174 1001q0 154 90 245t246 91t246 -91t90 -245q0 -166 -90 -261t-246 -95t-246 95t-90 261zM201 485v82h618v-82h-618zM399 1001q0 -260 113 -260q51 0 80 65.5t29 194.5q0 117 -32 178.5t-79 61.5t-79 -61.5t-32 -178.5z" />
<glyph unicode="&#xbb;" horiz-adv-x="970" d="M51 119l307 358l-307 354l154 33l377 -389l-377 -389zM348 119l307 358l-307 354l154 33l377 -389l-377 -389z" />
<glyph unicode="&#xbc;" horiz-adv-x="1701" d="M-31 1247l451 84l-19 -686h152v-70h-535v70h183v563l-13 6l-170 -59zM229 -197l904 1729h137l-903 -1729h-138zM948 207l371 553l225 -23l-8 -489l162 -10l-15 -80h-145v-172l-209 -17v193l-350 8zM1102 283l8 -9l217 -10l8 352l-12 5z" />
<glyph unicode="&#xbd;" horiz-adv-x="1619" d="M-31 1247l451 84l-19 -686h152v-70h-535v70h183v563l-13 6l-170 -59zM229 -197l904 1729h137l-903 -1729h-138zM922 711q96 39 301 39q164 0 240.5 -46.5t76.5 -148.5q0 -221 -313 -442v-11l415 -6l-18 -96h-676l-12 55q391 244 391 480q0 131 -182 131q-115 0 -213 -60z " />
<glyph unicode="&#xbe;" horiz-adv-x="1753" d="M-18 647q49 -6 108 -6q156 0 240 48t84 120q0 109 -238 109q-47 0 -86 -9l-14 56q313 57 313 182q0 43 -45 67.5t-135 24.5q-53 0 -100.5 -8t-90.5 -29l-32 82q115 41 268 41q332 0 332 -166q0 -70 -57.5 -115t-174.5 -79v-7q254 -6 254 -145q0 -117 -134 -183.5 t-392 -66.5h-76zM276 -197l904 1729h137l-903 -1729h-138zM995 207l371 553l225 -23l-8 -489l162 -10l-14 -80h-146v-172l-209 -17v193l-350 8zM1149 283l8 -9l217 -10l8 352l-12 5z" />
<glyph unicode="&#xbf;" horiz-adv-x="780" d="M53 168q0 74 43 136.5t107 139.5q66 80 101.5 147.5t35.5 129.5q0 63 -34 102t-95 49l213 74q111 -31 164 -84t53 -141q0 -37 -12.5 -70t-31.5 -65.5t-46 -66.5l-57 -70q-59 -74 -91 -129.5t-32 -98.5t26.5 -68.5t75.5 -25.5q66 0 170 49l55 -123q-180 -72 -344 -71 q-141 0 -221 53t-80 133zM281 1219q0 51 34.5 85.5t87.5 34.5q51 0 84 -33.5t33 -86.5q0 -51 -32.5 -85t-84.5 -34q-53 0 -87.5 34t-34.5 85z" />
<glyph unicode="&#xc0;" horiz-adv-x="1386" d="M-2 18l514 1303h352l520 -1305l-399 -45l-164 484h-415l-179 -478zM457 616l14 -18l303 -12l-160 475zM360 1659q0 59 60 60q25 0 62.5 -18.5t76.5 -53.5l242 -221l-19 -33l-242 113q-180 81 -180 153z" />
<glyph unicode="&#xc1;" horiz-adv-x="1386" d="M-2 18l514 1303h352l520 -1305l-399 -45l-164 484h-415l-179 -478zM457 616l14 -18l303 -12l-160 475zM567 1426l242 221q41 37 77.5 54.5t63.5 17.5t42 -16.5t15 -43.5q0 -41 -44 -76.5t-136 -78.5l-241 -111z" />
<glyph unicode="&#xc2;" horiz-adv-x="1386" d="M-2 18l514 1303h352l520 -1305l-399 -45l-164 484h-415l-179 -478zM457 616l14 -18l303 -12l-160 475zM418 1415l233 297h78l233 -297l-86 -16l-186 176l-186 -176z" />
<glyph unicode="&#xc3;" horiz-adv-x="1386" d="M-2 18l514 1303h352l520 -1305l-399 -45l-164 484h-415l-179 -478zM457 616l14 -18l303 -12l-160 475zM424 1430v26q0 127 30.5 188.5t98.5 61.5q33 0 66.5 -18.5t67.5 -42t67.5 -42t68.5 -18.5q39 0 58.5 29t37.5 92h37q2 -16 2 -30v-29q0 -217 -129 -217 q-35 0 -69.5 18.5t-68.5 42t-67.5 42t-66.5 18.5q-39 0 -60.5 -29t-37.5 -92h-35z" />
<glyph unicode="&#xc4;" horiz-adv-x="1386" d="M-2 18l514 1303h352l520 -1305l-399 -45l-164 484h-415l-179 -478zM457 616l14 -18l303 -12l-160 475zM434 1547q0 45 31.5 76.5t77.5 31.5q45 0 76.5 -31.5t31.5 -76.5t-31.5 -77t-76.5 -32t-77 32t-32 77zM727 1547q0 45 31.5 76.5t76.5 31.5t77 -31.5t32 -76.5 t-32 -77t-77 -32t-76.5 32t-31.5 77z" />
<glyph unicode="&#xc5;" horiz-adv-x="1386" d="M0 18l514 1303h352l520 -1305l-399 -45l-164 484h-415l-179 -478zM459 616l14 -18l303 -12l-160 475zM522 1536q0 70 47 116t115 46t115 -47t47 -115t-47 -115t-115 -47q-70 0 -116 46t-46 116zM598 1536q0 -35 25.5 -60.5t60.5 -25.5t59.5 25.5t24.5 60.5t-24.5 60.5 t-59.5 25.5t-60.5 -25.5t-25.5 -60.5z" />
<glyph unicode="&#xc6;" horiz-adv-x="1900" d="M0 18l702 1264l37 25h1076l-29 -166l-664 -17l84 -356l15 -8l532 12l-20 -194l-461 6l-19 -15l97 -399l489 29l-29 -183l-833 -45l-109 484h-387l-258 -478zM557 616l8 -18l297 -12l-90 442z" />
<glyph unicode="&#xc7;" horiz-adv-x="1382" d="M92 463q0 201 50.5 362.5t140.5 275t215 175t276 61.5q119 0 208 -31.5t152.5 -97t101.5 -169t56 -244.5l-329 -86v34q0 436 -158 437q-84 0 -170 -117q-72 -98 -115 -233.5t-43 -278.5q0 -207 86 -294t281 -87q244 0 409 113l68 -185q-221 -121 -475 -129l-10 -243 q-4 -113 -39 -170.5t-88 -57.5q-72 0 -72 109q0 72 41 190l57 168h-45q-307 0 -452.5 121t-145.5 377z" />
<glyph unicode="&#xc8;" horiz-adv-x="1165" d="M152 1282l36 25h879l-29 -166l-516 -17l-8 -348l12 -16l480 12l-21 -194l-459 6l-16 -21l-4 -379l18 -14l568 29l-29 -183l-903 -32zM276 1659q0 59 60 60q25 0 62.5 -18.5t76.5 -53.5l242 -221l-19 -33l-242 113q-180 81 -180 153z" />
<glyph unicode="&#xc9;" horiz-adv-x="1165" d="M152 1282l36 25h879l-29 -166l-516 -17l-8 -348l12 -16l480 12l-21 -194l-459 6l-16 -21l-4 -379l18 -14l568 29l-29 -183l-903 -32zM483 1426l242 221q41 37 77.5 54.5t63.5 17.5t42 -16.5t15 -43.5q0 -41 -44 -76.5t-136 -78.5l-241 -111z" />
<glyph unicode="&#xca;" horiz-adv-x="1165" d="M152 1282l36 25h879l-29 -166l-516 -17l-8 -348l12 -16l480 12l-21 -194l-459 6l-16 -21l-4 -379l18 -14l568 29l-29 -183l-903 -32zM334 1415l233 297h78l233 -297l-86 -16l-186 176l-186 -176z" />
<glyph unicode="&#xcb;" horiz-adv-x="1165" d="M152 1282l36 25h879l-29 -166l-516 -17l-8 -348l12 -16l480 12l-21 -194l-459 6l-16 -21l-4 -379l18 -14l568 29l-29 -183l-903 -32zM350 1547q0 45 31.5 76.5t77.5 31.5q45 0 76.5 -31.5t31.5 -76.5t-31.5 -77t-76.5 -32t-77 32t-32 77zM643 1547q0 45 31.5 76.5 t76.5 31.5t77 -31.5t32 -76.5t-32 -77t-77 -32t-76.5 32t-31.5 77z" />
<glyph unicode="&#xcc;" horiz-adv-x="681" d="M150 1305l374 12l-16 -1317h-354zM12 1659q0 59 60 60q25 0 62.5 -18.5t76.5 -53.5l242 -221l-19 -33l-242 113q-180 81 -180 153z" />
<glyph unicode="&#xcd;" horiz-adv-x="681" d="M152 1305l374 12l-16 -1317h-354zM221 1426l242 221q41 37 77.5 54.5t63.5 17.5t42 -16.5t15 -43.5q0 -41 -44 -76.5t-136 -78.5l-241 -111z" />
<glyph unicode="&#xce;" horiz-adv-x="681" d="M150 1305l374 12l-16 -1317h-354zM70 1415l233 297h78l233 -297l-86 -16l-186 176l-186 -176z" />
<glyph unicode="&#xcf;" horiz-adv-x="681" d="M150 1305l374 12l-16 -1317h-354zM86 1547q0 45 31.5 76.5t77.5 31.5q45 0 76.5 -31.5t31.5 -76.5t-31.5 -77t-76.5 -32t-77 32t-32 77zM379 1547q0 45 31.5 76.5t76.5 31.5t77 -31.5t32 -76.5t-32 -77t-77 -32t-76.5 32t-31.5 77z" />
<glyph unicode="&#xd0;" horiz-adv-x="1562" d="M-25 627v94h185l-6 590h606q338 0 519 -160t181 -449q0 -344 -197.5 -523t-578.5 -179h-518l-6 627h-185zM528 156l19 -15h86q223 0 340 140.5t117 412.5q0 252 -110 362.5t-359 110.5h-89l-2 -446h191v-94h-191z" />
<glyph unicode="&#xd1;" horiz-adv-x="1552" d="M152 0l18 1315l330 20l672 -960l12 6l-17 919l230 21l-13 -1298l-344 -39l-645 884l-14 -8v-860h-229zM541 1430v26q0 127 30.5 188.5t98.5 61.5q33 0 66.5 -18.5t67.5 -42t67.5 -42t68.5 -18.5q39 0 58.5 29t37.5 92h37q2 -16 2 -30v-29q0 -217 -129 -217 q-35 0 -69.5 18.5t-68.5 42t-67.5 42t-66.5 18.5q-39 0 -60.5 -29t-37.5 -92h-35z" />
<glyph unicode="&#xd2;" horiz-adv-x="1607" d="M90 651q0 334 182.5 510t528.5 176q344 0 528.5 -175t184.5 -498q0 -160 -50.5 -290t-143.5 -220.5t-225 -139.5t-294 -49q-164 0 -295 49t-223 138.5t-142.5 216t-50.5 282.5zM477 651q0 -260 84 -392t240 -132t238.5 131t82.5 387q0 264 -84 399.5t-237 135.5 q-154 0 -239 -134.5t-85 -394.5zM471 1659q0 59 60 60q25 0 62.5 -18.5t76.5 -53.5l242 -221l-19 -33l-242 113q-180 81 -180 153z" />
<glyph unicode="&#xd3;" horiz-adv-x="1607" d="M90 651q0 334 182.5 510t528.5 176q344 0 528.5 -175t184.5 -498q0 -160 -50.5 -290t-143.5 -220.5t-225 -139.5t-294 -49q-164 0 -295 49t-223 138.5t-142.5 216t-50.5 282.5zM477 651q0 -260 84 -392t240 -132t238.5 131t82.5 387q0 264 -84 399.5t-237 135.5 q-154 0 -239 -134.5t-85 -394.5zM678 1426l242 221q41 37 77.5 54.5t63.5 17.5t42 -16.5t15 -43.5q0 -41 -44 -76.5t-136 -78.5l-241 -111z" />
<glyph unicode="&#xd4;" horiz-adv-x="1607" d="M90 651q0 334 182.5 510t528.5 176q344 0 528.5 -175t184.5 -498q0 -160 -50.5 -290t-143.5 -220.5t-225 -139.5t-294 -49q-164 0 -295 49t-223 138.5t-142.5 216t-50.5 282.5zM477 651q0 -260 84 -392t240 -132t238.5 131t82.5 387q0 264 -84 399.5t-237 135.5 q-154 0 -239 -134.5t-85 -394.5zM529 1415l233 297h78l233 -297l-86 -16l-186 176l-186 -176z" />
<glyph unicode="&#xd5;" horiz-adv-x="1607" d="M90 651q0 334 182.5 510t528.5 176q344 0 528.5 -175t184.5 -498q0 -160 -50.5 -290t-143.5 -220.5t-225 -139.5t-294 -49q-164 0 -295 49t-223 138.5t-142.5 216t-50.5 282.5zM477 651q0 -260 84 -392t240 -132t238.5 131t82.5 387q0 264 -84 399.5t-237 135.5 q-154 0 -239 -134.5t-85 -394.5zM535 1430v26q0 127 30.5 188.5t98.5 61.5q33 0 66.5 -18.5t67.5 -42t67.5 -42t68.5 -18.5q39 0 58.5 29t37.5 92h37q2 -16 2 -30v-29q0 -217 -129 -217q-35 0 -69.5 18.5t-68.5 42t-67.5 42t-66.5 18.5q-39 0 -60.5 -29t-37.5 -92h-35z" />
<glyph unicode="&#xd6;" horiz-adv-x="1607" d="M90 651q0 334 182.5 510t528.5 176q344 0 528.5 -175t184.5 -498q0 -160 -50.5 -290t-143.5 -220.5t-225 -139.5t-294 -49q-164 0 -295 49t-223 138.5t-142.5 216t-50.5 282.5zM477 651q0 -260 84 -392t240 -132t238.5 131t82.5 387q0 264 -84 399.5t-237 135.5 q-154 0 -239 -134.5t-85 -394.5zM545 1547q0 45 31.5 76.5t77.5 31.5q45 0 76.5 -31.5t31.5 -76.5t-31.5 -77t-76.5 -32t-77 32t-32 77zM838 1547q0 45 31.5 76.5t76.5 31.5t77 -31.5t32 -76.5t-32 -77t-77 -32t-76.5 32t-31.5 77z" />
<glyph unicode="&#xd7;" horiz-adv-x="1705" d="M268 170l441 440l-441 443l162 161l440 -440l441 440l162 -161l-441 -443l441 -440l-162 -162l-441 441l-440 -441z" />
<glyph unicode="&#xd8;" horiz-adv-x="1607" d="M92 651q0 334 182.5 510t528.5 176q174 0 334 -55l125 199h122l-153 -244q154 -104 219.5 -246.5t65.5 -345.5q0 -152 -50.5 -277.5t-143.5 -215t-225 -138.5t-294 -49q-170 0 -330 64l-147 -236h-123l178 285q-152 111 -220.5 249t-68.5 324zM479 651q0 -92 12.5 -174 t40.5 -158l480 764q-88 96 -209 97q-154 0 -239 -134.5t-85 -394.5zM594 219q84 -92 209 -92q156 0 238.5 131t82.5 387q0 186 -53 338z" />
<glyph unicode="&#xd9;" horiz-adv-x="1476" d="M141 1305l371 12l-10 -733v-17q0 -223 75.5 -330.5t227.5 -107.5q272 0 272 471v703h254l-12 -795q-8 -545 -588 -545q-281 0 -431 141.5t-152 399.5zM467 1659q0 59 60 60q25 0 62.5 -18.5t76.5 -53.5l242 -221l-19 -33l-242 113q-180 81 -180 153z" />
<glyph unicode="&#xda;" horiz-adv-x="1476" d="M141 1305l371 12l-10 -733v-17q0 -223 75.5 -330.5t227.5 -107.5q272 0 272 471v703h254l-12 -795q-8 -545 -588 -545q-281 0 -431 141.5t-152 399.5zM674 1426l242 221q41 37 77.5 54.5t63.5 17.5t42 -16.5t15 -43.5q0 -41 -44 -76.5t-136 -78.5l-241 -111z" />
<glyph unicode="&#xdb;" horiz-adv-x="1476" d="M141 1305l371 12l-10 -733v-17q0 -223 75.5 -330.5t227.5 -107.5q272 0 272 471v703h254l-12 -795q-8 -545 -588 -545q-281 0 -431 141.5t-152 399.5zM525 1415l233 297h78l233 -297l-86 -16l-186 176l-186 -176z" />
<glyph unicode="&#xdc;" horiz-adv-x="1476" d="M141 1305l371 12l-10 -733v-17q0 -223 75.5 -330.5t227.5 -107.5q272 0 272 471v703h254l-12 -795q-8 -545 -588 -545q-281 0 -431 141.5t-152 399.5zM541 1547q0 45 31.5 76.5t77.5 31.5q45 0 76.5 -31.5t31.5 -76.5t-31.5 -77t-76.5 -32t-77 32t-32 77zM834 1547 q0 45 31.5 76.5t76.5 31.5t77 -31.5t32 -76.5t-32 -77t-77 -32t-76.5 32t-31.5 77z" />
<glyph unicode="&#xdd;" horiz-adv-x="1218" d="M-2 1276l412 49l295 -610l278 592h234l-410 -863l-4 -444h-344l-4 471zM559 1426l242 221q41 37 77.5 54.5t63.5 17.5t42 -16.5t15 -43.5q0 -41 -44 -76.5t-136 -78.5l-241 -111z" />
<glyph unicode="&#xde;" horiz-adv-x="1310" d="M154 1317h381v-262h120q307 0 456 -78t149 -254q0 -217 -170 -329.5t-508 -112.5h-54l-4 -281h-362zM526 428l19 -14h28q154 0 239 78.5t85 218.5q0 115 -73.5 157.5t-233.5 42.5h-55z" />
<glyph unicode="&#xdf;" horiz-adv-x="1366" d="M143 854v6q0 340 145.5 511t430.5 171q188 0 283.5 -68.5t95.5 -197.5q0 -84 -37 -141.5t-103 -118.5l-56 -54q-26 -26 -44 -52.5t-29.5 -56.5t-11.5 -69q0 -41 17.5 -68.5t49 -52t75.5 -47.5l98 -49q119 -59 178 -125.5t59 -165.5q0 -131 -121.5 -210.5t-355.5 -79.5 q-186 0 -332 53l62 162q119 -70 235 -70q96 0 145.5 33t49.5 90t-46 93t-134 77q-66 31 -117 61.5t-85 65.5t-51.5 79t-17.5 103q0 57 18.5 103.5t51.5 87.5t76 81l92 82q53 47 81.5 84t28.5 78q0 127 -131 127t-199.5 -130t-68.5 -392v-850h-330z" />
<glyph unicode="&#xe0;" horiz-adv-x="1081" d="M59 188q0 55 25 101.5t70 80t107.5 53t137.5 19.5q70 0 130.5 -12t107.5 -35v64q0 109 -4 187.5t-17.5 128.5t-38 74.5t-65.5 24.5q-145 0 -207 -327l-237 59q115 401 503 402q178 0 266.5 -60.5t110.5 -206.5q4 -35 5 -85t1 -113q0 -106 4.5 -247.5t28.5 -322.5 l-327 -26l-13 162h-4q-53 -66 -140 -105t-192 -39q-123 0 -187.5 60.5t-64.5 162.5zM358 207q0 -41 34 -68.5t85 -27.5q29 0 57.5 12t51 34.5t38 53.5t17.5 68q-70 41 -135 40q-72 0 -110 -29.5t-38 -82.5zM221 1329q0 59 60 60q25 0 62.5 -18.5t76.5 -53.5l242 -221 l-19 -33l-242 113q-180 81 -180 153z" />
<glyph unicode="&#xe1;" horiz-adv-x="1081" d="M59 188q0 55 25 101.5t70 80t107.5 53t137.5 19.5q70 0 130.5 -12t107.5 -35v64q0 109 -4 187.5t-17.5 128.5t-38 74.5t-65.5 24.5q-145 0 -207 -327l-237 59q115 401 503 402q178 0 266.5 -60.5t110.5 -206.5q4 -35 5 -85t1 -113q0 -106 4.5 -247.5t28.5 -322.5 l-327 -26l-13 162h-4q-53 -66 -140 -105t-192 -39q-123 0 -187.5 60.5t-64.5 162.5zM358 207q0 -41 34 -68.5t85 -27.5q29 0 57.5 12t51 34.5t38 53.5t17.5 68q-70 41 -135 40q-72 0 -110 -29.5t-38 -82.5zM428 1096l242 221q41 37 77.5 54.5t63.5 17.5t42 -16.5t15 -43.5 q0 -41 -44 -76.5t-136 -78.5l-241 -111z" />
<glyph unicode="&#xe2;" horiz-adv-x="1081" d="M59 188q0 55 25 101.5t70 80t107.5 53t137.5 19.5q70 0 130.5 -12t107.5 -35v64q0 109 -4 187.5t-17.5 128.5t-38 74.5t-65.5 24.5q-145 0 -207 -327l-237 59q115 401 503 402q178 0 266.5 -60.5t110.5 -206.5q4 -35 5 -85t1 -113q0 -106 4.5 -247.5t28.5 -322.5 l-327 -26l-13 162h-4q-53 -66 -140 -105t-192 -39q-123 0 -187.5 60.5t-64.5 162.5zM358 207q0 -41 34 -68.5t85 -27.5q29 0 57.5 12t51 34.5t38 53.5t17.5 68q-70 41 -135 40q-72 0 -110 -29.5t-38 -82.5zM279 1085l233 297h78l233 -297l-86 -16l-186 176l-186 -176z" />
<glyph unicode="&#xe3;" horiz-adv-x="1081" d="M59 188q0 55 25 101.5t70 80t107.5 53t137.5 19.5q70 0 130.5 -12t107.5 -35v64q0 109 -4 187.5t-17.5 128.5t-38 74.5t-65.5 24.5q-145 0 -207 -327l-237 59q115 401 503 402q178 0 266.5 -60.5t110.5 -206.5q4 -35 5 -85t1 -113q0 -106 4.5 -247.5t28.5 -322.5 l-327 -26l-13 162h-4q-53 -66 -140 -105t-192 -39q-123 0 -187.5 60.5t-64.5 162.5zM358 207q0 -41 34 -68.5t85 -27.5q29 0 57.5 12t51 34.5t38 53.5t17.5 68q-70 41 -135 40q-72 0 -110 -29.5t-38 -82.5zM285 1100v26q0 127 30.5 188.5t98.5 61.5q33 0 66.5 -18.5 t67.5 -42t67.5 -42t68.5 -18.5q39 0 58.5 29t37.5 92h37q2 -16 2 -30v-29q0 -217 -129 -217q-35 0 -69.5 18.5t-68.5 42t-67.5 42t-66.5 18.5q-39 0 -60.5 -29t-37.5 -92h-35z" />
<glyph unicode="&#xe4;" horiz-adv-x="1081" d="M59 188q0 55 25 101.5t70 80t107.5 53t137.5 19.5q70 0 130.5 -12t107.5 -35v64q0 109 -4 187.5t-17.5 128.5t-38 74.5t-65.5 24.5q-145 0 -207 -327l-237 59q115 401 503 402q178 0 266.5 -60.5t110.5 -206.5q4 -35 5 -85t1 -113q0 -106 4.5 -247.5t28.5 -322.5 l-327 -26l-13 162h-4q-53 -66 -140 -105t-192 -39q-123 0 -187.5 60.5t-64.5 162.5zM358 207q0 -41 34 -68.5t85 -27.5q29 0 57.5 12t51 34.5t38 53.5t17.5 68q-70 41 -135 40q-72 0 -110 -29.5t-38 -82.5zM295 1217q0 45 31.5 76.5t77.5 31.5q45 0 76.5 -31.5t31.5 -76.5 t-31.5 -77t-76.5 -32t-77 32t-32 77zM588 1217q0 45 31.5 76.5t76.5 31.5t77 -31.5t32 -76.5t-32 -77t-77 -32t-76.5 32t-31.5 77z" />
<glyph unicode="&#xe5;" horiz-adv-x="1081" d="M61 188q0 55 25 101.5t70 80t107.5 53t137.5 19.5q70 0 130.5 -12t107.5 -35v64q0 109 -4 187.5t-17.5 128.5t-38 74.5t-65.5 24.5q-145 0 -207 -327l-237 59q115 401 503 402q178 0 266.5 -60.5t110.5 -206.5q4 -35 5 -85t1 -113q0 -106 4.5 -247.5t28.5 -322.5 l-327 -26l-13 162h-4q-53 -66 -140 -105t-192 -39q-123 0 -187.5 60.5t-64.5 162.5zM360 207q0 -41 34 -68.5t85 -27.5q29 0 57.5 12t51 34.5t38 53.5t17.5 68q-70 41 -135 40q-72 0 -110 -29.5t-38 -82.5zM422 1217q0 70 47 115.5t115 45.5t114.5 -47t46.5 -114 q0 -68 -47 -115t-114 -47q-70 0 -116 46t-46 116zM498 1217q0 -35 25.5 -61t60.5 -26t59.5 26t24.5 61t-25 60.5t-59 25.5q-35 0 -60.5 -25.5t-25.5 -60.5z" />
<glyph unicode="&#xe6;" horiz-adv-x="1705" d="M113 188q0 55 24.5 101.5t69.5 80t107.5 53t138.5 19.5q139 0 237 -47v64q0 109 -4 187.5t-17.5 128.5t-38 74.5t-65.5 24.5q-145 0 -207 -327l-237 59q115 401 504 402q106 0 181 -21.5t122 -71.5q119 92 280 93q377 0 404 -447l-596 -59q-6 -29 -8 -57.5t-2 -57.5 q0 -246 276 -246q145 0 307 78l56 -149q-100 -57 -215 -81t-252 -24q-297 0 -420 160q-45 -74 -137.5 -116t-227.5 -42q-137 0 -208.5 58.5t-71.5 162.5zM412 207q0 -41 33.5 -68.5t84.5 -27.5q29 0 57.5 12t51.5 34.5t38 53.5t17 68q-70 41 -135 40q-72 0 -109.5 -29.5 t-37.5 -82.5zM1034 647l8 -16l310 39q-6 104 -35 154t-92 50t-113.5 -57t-77.5 -170z" />
<glyph unicode="&#xe7;" horiz-adv-x="1077" d="M72 373q0 141 39 258t109.5 200.5t168.5 130t215 46.5q180 0 269.5 -102.5t105.5 -317.5l-250 -56q-4 176 -26.5 259t-90.5 83q-43 0 -81.5 -35.5t-69.5 -101t-49.5 -157t-18.5 -203.5q0 -129 58.5 -182.5t195.5 -53.5q166 0 322 78l57 -149q-197 -104 -424 -105l-2 -209 q-2 -90 -27.5 -137t-64.5 -47q-68 0 -68 98q0 61 25 140l47 155q-225 10 -332.5 109.5t-107.5 298.5z" />
<glyph unicode="&#xe8;" horiz-adv-x="1095" d="M70 412q0 131 40 240.5t110.5 188.5t165.5 123t208 44q201 0 314.5 -130t117.5 -376h-610q-2 -14 -2 -29v-24q0 -158 70.5 -233t218.5 -75q145 0 274 78l55 -149q-78 -51 -191.5 -78t-260.5 -27q-510 1 -510 447zM436 647l8 -16h316q0 123 -38 183t-110 60 q-53 0 -102 -58t-74 -169zM241 1329q0 59 60 60q25 0 62.5 -18.5t76.5 -53.5l242 -221l-19 -33l-242 113q-180 81 -180 153z" />
<glyph unicode="&#xe9;" horiz-adv-x="1095" d="M70 412q0 131 40 240.5t110.5 188.5t165.5 123t208 44q201 0 314.5 -130t117.5 -376h-610q-2 -14 -2 -29v-24q0 -158 70.5 -233t218.5 -75q145 0 274 78l55 -149q-78 -51 -191.5 -78t-260.5 -27q-510 1 -510 447zM436 647l8 -16h316q0 123 -38 183t-110 60 q-53 0 -102 -58t-74 -169zM448 1096l242 221q41 37 77.5 54.5t63.5 17.5t42 -16.5t15 -43.5q0 -41 -44 -76.5t-136 -78.5l-241 -111z" />
<glyph unicode="&#xea;" horiz-adv-x="1095" d="M70 412q0 131 40 240.5t110.5 188.5t165.5 123t208 44q201 0 314.5 -130t117.5 -376h-610q-2 -14 -2 -29v-24q0 -158 70.5 -233t218.5 -75q145 0 274 78l55 -149q-78 -51 -191.5 -78t-260.5 -27q-510 1 -510 447zM436 647l8 -16h316q0 123 -38 183t-110 60 q-53 0 -102 -58t-74 -169zM299 1085l233 297h78l233 -297l-86 -16l-186 176l-186 -176z" />
<glyph unicode="&#xeb;" horiz-adv-x="1095" d="M70 412q0 131 40 240.5t110.5 188.5t165.5 123t208 44q201 0 314.5 -130t117.5 -376h-610q-2 -14 -2 -29v-24q0 -158 70.5 -233t218.5 -75q145 0 274 78l55 -149q-78 -51 -191.5 -78t-260.5 -27q-510 1 -510 447zM436 647l8 -16h316q0 123 -38 183t-110 60 q-53 0 -102 -58t-74 -169zM315 1217q0 45 31.5 76.5t77.5 31.5q45 0 76.5 -31.5t31.5 -76.5t-31.5 -77t-76.5 -32t-77 32t-32 77zM608 1217q0 45 31.5 76.5t76.5 31.5t77 -31.5t32 -76.5t-32 -77t-77 -32t-76.5 32t-31.5 77z" />
<glyph unicode="&#xec;" horiz-adv-x="499" d="M61 956l351 48l-4 -1016h-316zM-82 1329q0 59 60 60q25 0 62.5 -18.5t76.5 -53.5l242 -221l-19 -33l-242 113q-180 81 -180 153z" />
<glyph unicode="&#xed;" horiz-adv-x="499" d="M61 956l351 48l-4 -1016h-316zM125 1096l242 221q41 37 77.5 54.5t63.5 17.5t42 -16.5t15 -43.5q0 -41 -44 -76.5t-136 -78.5l-241 -111z" />
<glyph unicode="&#xee;" horiz-adv-x="499" d="M61 956l351 48l-4 -1016h-316zM-24 1085l233 297h78l233 -297l-86 -16l-186 176l-186 -176z" />
<glyph unicode="&#xef;" horiz-adv-x="499" d="M61 956l351 48l-4 -1016h-316zM-8 1217q0 45 31.5 76.5t77.5 31.5q45 0 76.5 -31.5t31.5 -76.5t-31.5 -77t-76.5 -32t-77 32t-32 77zM285 1217q0 45 31.5 76.5t76.5 31.5t77 -31.5t32 -76.5t-32 -77t-77 -32t-76.5 32t-31.5 77z" />
<glyph unicode="&#xf0;" horiz-adv-x="1155" d="M72 500q0 113 39 206t109.5 160.5t172 105.5t225.5 40q-39 59 -90 106l-163 -102l-41 61l143 94q-113 86 -250 132l178 210q176 -72 312 -186l165 111l41 -78l-145 -90q160 -186 237.5 -374.5t77.5 -395.5q0 -123 -34.5 -222.5t-100 -169t-160 -106.5t-210.5 -37 q-117 0 -211.5 37t-160 106.5t-100 169t-34.5 222.5zM414 500q0 -387 166 -387q162 0 161 387q0 176 -46 269t-117 93q-72 0 -118 -93t-46 -269z" />
<glyph unicode="&#xf1;" horiz-adv-x="1226" d="M141 1018h342l-14 -346h12q154 303 408 303q106 0 164.5 -56.5t58.5 -164.5v-17l-27 -729l-333 -14l-6 10l32 526q0 10 1 19.5t1 19.5q0 135 -86 136q-37 0 -76.5 -34t-72.5 -99.5t-55.5 -160t-26.5 -212.5l-6 -199h-305zM383 1100v26q0 127 30.5 188.5t98.5 61.5 q33 0 66.5 -18.5t67.5 -42t67.5 -42t68.5 -18.5q39 0 58.5 29t37.5 92h37q2 -16 2 -30v-29q0 -217 -129 -217q-35 0 -69.5 18.5t-68.5 42t-67.5 42t-66.5 18.5q-39 0 -60.5 -29t-37.5 -92h-35z" />
<glyph unicode="&#xf2;" horiz-adv-x="1155" d="M70 500q0 117 34.5 211t101 159.5t160 101.5t210.5 36t210 -36t159.5 -102.5t101 -160t34.5 -209.5q0 -123 -34.5 -222.5t-100 -169t-160 -106.5t-210.5 -37q-117 0 -211.5 37t-160 106.5t-100 169t-34.5 222.5zM412 500q0 -387 166 -387q162 0 161 387q0 176 -46 269 t-117 93q-72 0 -118 -93t-46 -269zM243 1329q0 59 60 60q25 0 62.5 -18.5t76.5 -53.5l242 -221l-19 -33l-242 113q-180 81 -180 153z" />
<glyph unicode="&#xf3;" horiz-adv-x="1155" d="M70 500q0 117 34.5 211t101 159.5t160 101.5t210.5 36t210 -36t159.5 -102.5t101 -160t34.5 -209.5q0 -123 -34.5 -222.5t-100 -169t-160 -106.5t-210.5 -37q-117 0 -211.5 37t-160 106.5t-100 169t-34.5 222.5zM412 500q0 -387 166 -387q162 0 161 387q0 176 -46 269 t-117 93q-72 0 -118 -93t-46 -269zM450 1096l242 221q41 37 77.5 54.5t63.5 17.5t42 -16.5t15 -43.5q0 -41 -44 -76.5t-136 -78.5l-241 -111z" />
<glyph unicode="&#xf4;" horiz-adv-x="1155" d="M70 500q0 117 34.5 211t101 159.5t160 101.5t210.5 36t210 -36t159.5 -102.5t101 -160t34.5 -209.5q0 -123 -34.5 -222.5t-100 -169t-160 -106.5t-210.5 -37q-117 0 -211.5 37t-160 106.5t-100 169t-34.5 222.5zM412 500q0 -387 166 -387q162 0 161 387q0 176 -46 269 t-117 93q-72 0 -118 -93t-46 -269zM301 1085l233 297h78l233 -297l-86 -16l-186 176l-186 -176z" />
<glyph unicode="&#xf5;" horiz-adv-x="1155" d="M70 500q0 117 34.5 211t101 159.5t160 101.5t210.5 36t210 -36t159.5 -102.5t101 -160t34.5 -209.5q0 -123 -34.5 -222.5t-100 -169t-160 -106.5t-210.5 -37q-117 0 -211.5 37t-160 106.5t-100 169t-34.5 222.5zM412 500q0 -387 166 -387q162 0 161 387q0 176 -46 269 t-117 93q-72 0 -118 -93t-46 -269zM307 1100v26q0 127 30.5 188.5t98.5 61.5q33 0 66.5 -18.5t67.5 -42t67.5 -42t68.5 -18.5q39 0 58.5 29t37.5 92h37q2 -16 2 -30v-29q0 -217 -129 -217q-35 0 -69.5 18.5t-68.5 42t-67.5 42t-66.5 18.5q-39 0 -60.5 -29t-37.5 -92h-35z " />
<glyph unicode="&#xf6;" horiz-adv-x="1155" d="M70 500q0 117 34.5 211t101 159.5t160 101.5t210.5 36t210 -36t159.5 -102.5t101 -160t34.5 -209.5q0 -123 -34.5 -222.5t-100 -169t-160 -106.5t-210.5 -37q-117 0 -211.5 37t-160 106.5t-100 169t-34.5 222.5zM412 500q0 -387 166 -387q162 0 161 387q0 176 -46 269 t-117 93q-72 0 -118 -93t-46 -269zM317 1217q0 45 31.5 76.5t77.5 31.5q45 0 76.5 -31.5t31.5 -76.5t-31.5 -77t-76.5 -32t-77 32t-32 77zM610 1217q0 45 31.5 76.5t76.5 31.5t77 -31.5t32 -76.5t-32 -77t-77 -32t-76.5 32t-31.5 77z" />
<glyph unicode="&#xf7;" horiz-adv-x="1705" d="M254 496v231h1198v-231h-1198zM688 205q0 70 49 118t117 48t116 -48.5t48 -117.5q0 -66 -46 -115t-118 -49q-68 0 -117 47t-49 117zM688 1016q0 70 49 118t117 48q33 0 62.5 -13.5t52 -36t36 -52t13.5 -64.5q0 -33 -12.5 -62.5t-35 -52t-53 -36t-65.5 -13.5 q-70 0 -117 48t-47 116z" />
<glyph unicode="&#xf8;" horiz-adv-x="1155" d="M72 500q0 117 34.5 211t101 159.5t160 101.5t210.5 36q74 0 139 -14.5t129 -47.5l119 158h106l-149 -209q86 -86 123.5 -181.5t37.5 -213.5q0 -123 -34.5 -222.5t-100 -169t-160 -106.5t-210.5 -37q-115 0 -222 41l-120 -176h-105l148 219q-111 92 -159 200t-48 251z M414 500q0 -106 18 -207l277 438q-43 131 -131 131q-72 0 -118 -93t-46 -269zM469 184q41 -72 111 -71q162 0 161 387q0 51 -6 104z" />
<glyph unicode="&#xf9;" horiz-adv-x="1212" d="M121 209v8l8 741l338 21l-18 -604v-8q0 -92 59 -93q55 0 131 156q59 117 77.5 253t18.5 310h301l31 -1034l-340 18l-4 365h-8q-123 -377 -400 -377q-194 0 -194 244zM272 1329q0 59 60 60q25 0 62.5 -18.5t76.5 -53.5l242 -221l-19 -33l-242 113q-180 81 -180 153z" />
<glyph unicode="&#xfa;" horiz-adv-x="1212" d="M121 209v8l8 741l338 21l-18 -604v-8q0 -92 59 -93q55 0 131 156q59 117 77.5 253t18.5 310h301l31 -1034l-340 18l-4 365h-8q-123 -377 -400 -377q-194 0 -194 244zM479 1096l242 221q41 37 77.5 54.5t63.5 17.5t42 -16.5t15 -43.5q0 -41 -44 -76.5t-136 -78.5 l-241 -111z" />
<glyph unicode="&#xfb;" horiz-adv-x="1212" d="M121 209v8l8 741l338 21l-18 -604v-8q0 -92 59 -93q55 0 131 156q59 117 77.5 253t18.5 310h301l31 -1034l-340 18l-4 365h-8q-123 -377 -400 -377q-194 0 -194 244zM330 1085l233 297h78l233 -297l-86 -16l-186 176l-186 -176z" />
<glyph unicode="&#xfc;" horiz-adv-x="1212" d="M121 209v8l8 741l338 21l-18 -604v-8q0 -92 59 -93q55 0 131 156q59 117 77.5 253t18.5 310h301l31 -1034l-340 18l-4 365h-8q-123 -377 -400 -377q-194 0 -194 244zM346 1217q0 45 31.5 76.5t77.5 31.5q45 0 76.5 -31.5t31.5 -76.5t-31.5 -77t-76.5 -32t-77 32t-32 77z M639 1217q0 45 31.5 76.5t76.5 31.5t77 -31.5t32 -76.5t-32 -77t-77 -32t-76.5 32t-31.5 77z" />
<glyph unicode="&#xfd;" horiz-adv-x="1116" d="M-12 963l385 45l264 -670h14l191 639h262l-510 -1489l-268 41l164 373v61zM500 1096l242 221q41 37 77.5 54.5t63.5 17.5t42 -16.5t15 -43.5q0 -41 -44 -76.5t-136 -78.5l-241 -111z" />
<glyph unicode="&#xfe;" horiz-adv-x="1183" d="M143 1294l334 49l-18 -755h12q68 211 161 314.5t226 103.5t193.5 -96.5t60.5 -301.5q0 -147 -34 -266t-93 -202t-141 -128t-178 -45q-49 0 -100.5 8.5t-106.5 24.5v-504h-297zM463 166q57 -51 115 -51q43 0 82.5 28.5t69.5 80.5t47.5 125t17.5 163q0 104 -26 160.5 t-60 56.5q-31 0 -67 -36t-69.5 -107.5t-62.5 -177t-47 -242.5z" />
<glyph unicode="&#xff;" horiz-adv-x="1116" d="M-12 963l385 45l264 -670h14l191 639h262l-510 -1489l-268 41l164 373v61zM367 1217q0 45 31.5 76.5t77.5 31.5q45 0 76.5 -31.5t31.5 -76.5t-31.5 -77t-76.5 -32t-77 32t-32 77zM660 1217q0 45 31.5 76.5t76.5 31.5t77 -31.5t32 -76.5t-32 -77t-77 -32t-76.5 32 t-31.5 77z" />
<glyph unicode="&#x131;" horiz-adv-x="499" d="M63 956l351 48l-4 -1016h-316z" />
<glyph unicode="&#x152;" horiz-adv-x="2119" d="M92 651q0 334 182.5 510t528.5 176q166 0 321 -51l31 21h879l-29 -166l-504 -17l-8 -348l12 -16l467 12l-20 -194l-447 6l-16 -21v-379l18 -14l551 29l-28 -183l-904 -32v43q-158 -61 -323 -62q-164 0 -295 48t-223 138.5t-142.5 216t-50.5 283.5zM479 651 q0 -260 84 -392t240 -132t238.5 131t82.5 387q0 264 -84 399.5t-237 135.5q-154 0 -239 -134.5t-85 -394.5z" />
<glyph unicode="&#x153;" horiz-adv-x="1753" d="M72 500q0 117 34.5 211t101 159.5t160 101.5t210.5 36q219 0 356 -125q137 125 321 125q170 0 282 -129t136 -377h-610q-12 -61 -12 -115q0 -246 278 -246q145 0 307 78l56 -149q-111 -63 -231 -84t-259 -21q-197 0 -321 86q-129 -86 -303 -86q-117 0 -211.5 37 t-160 106.5t-100 169t-34.5 222.5zM414 500q0 -387 166 -387q162 0 161 387q0 176 -46 269t-117 93q-72 0 -118 -93t-46 -269zM1081 647l9 -16h317q-18 244 -147 243q-53 0 -103.5 -58t-75.5 -169z" />
<glyph unicode="&#x178;" horiz-adv-x="1218" d="M-2 1276l412 49l295 -610l278 592h234l-410 -863l-4 -444h-344l-4 471zM426 1547q0 45 31.5 76.5t77.5 31.5q45 0 76.5 -31.5t31.5 -76.5t-31.5 -77t-76.5 -32t-77 32t-32 77zM719 1547q0 45 31.5 76.5t76.5 31.5t77 -31.5t32 -76.5t-32 -77t-77 -32t-76.5 32t-31.5 77z " />
<glyph unicode="&#x2c6;" d="M240 1085l233 297h78l233 -297l-86 -16l-186 176l-186 -176z" />
<glyph unicode="&#x2dc;" d="M246 1100v26q0 127 30.5 188.5t98.5 61.5q33 0 66.5 -18.5t67.5 -42t67.5 -42t68.5 -18.5q39 0 58.5 29t37.5 92h37q2 -16 2 -30v-29q0 -217 -129 -217q-35 0 -69.5 18.5t-68.5 42t-67.5 42t-66.5 18.5q-39 0 -60.5 -29t-37.5 -92h-35z" />
<glyph unicode="&#x2000;" horiz-adv-x="858" />
<glyph unicode="&#x2001;" horiz-adv-x="1718" />
<glyph unicode="&#x2002;" horiz-adv-x="858" />
<glyph unicode="&#x2003;" horiz-adv-x="1718" />
<glyph unicode="&#x2004;" horiz-adv-x="571" />
<glyph unicode="&#x2005;" horiz-adv-x="428" />
<glyph unicode="&#x2006;" horiz-adv-x="284" />
<glyph unicode="&#x2007;" horiz-adv-x="284" />
<glyph unicode="&#x2008;" horiz-adv-x="212" />
<glyph unicode="&#x2009;" horiz-adv-x="342" />
<glyph unicode="&#x200a;" horiz-adv-x="94" />
<glyph unicode="&#x2010;" horiz-adv-x="647" d="M61 389v223h525v-223h-525z" />
<glyph unicode="&#x2011;" horiz-adv-x="647" d="M61 389v223h525v-223h-525z" />
<glyph unicode="&#x2012;" horiz-adv-x="647" d="M61 389v223h525v-223h-525z" />
<glyph unicode="&#x2013;" horiz-adv-x="868" d="M61 389v223h746v-223h-746z" />
<glyph unicode="&#x2014;" horiz-adv-x="1259" d="M61 389v223h1137v-223h-1137z" />
<glyph unicode="&#x2018;" horiz-adv-x="444" d="M70 803q23 168 68.5 299t123.5 233l92 -37q-90 -240 -106 -514z" />
<glyph unicode="&#x2019;" horiz-adv-x="444" d="M61 807q90 240 107 514l178 -18q-23 -168 -69 -299.5t-123 -233.5z" />
<glyph unicode="&#x201a;" horiz-adv-x="444" d="M18 -338q90 240 107 516l178 -20q-23 -168 -69 -299t-123 -234z" />
<glyph unicode="&#x201c;" horiz-adv-x="724" d="M47 803q23 168 69 299t124 233l92 -37q-94 -246 -109 -514zM373 803q23 168 68.5 299t123.5 233l92 -37q-94 -246 -108 -514z" />
<glyph unicode="&#x201d;" horiz-adv-x="724" d="M33 807q90 240 106 514l178 -18q-23 -168 -68.5 -299.5t-123.5 -233.5zM358 807q90 240 107 514l178 -18q-23 -168 -69 -299.5t-123 -233.5z" />
<glyph unicode="&#x201e;" horiz-adv-x="724" d="M18 -338q90 240 107 516l178 -20q-23 -168 -69 -299t-123 -234zM344 -338q90 240 107 516l178 -20q-23 -168 -69 -299t-124 -234z" />
<glyph unicode="&#x2022;" horiz-adv-x="724" d="M123 729q0 102 66.5 170t170.5 68q51 0 95.5 -18.5t77 -50.5t51 -76t18.5 -93q0 -51 -18.5 -95t-51 -77t-76.5 -51.5t-96 -18.5q-51 0 -94 18.5t-74.5 51.5t-50 77t-18.5 95z" />
<glyph unicode="&#x2026;" horiz-adv-x="2048" d="M102 100q0 51 34 85t85 34t86 -33.5t35 -85.5q0 -51 -35 -85.5t-86 -34.5t-85 34.5t-34 85.5zM784 100q0 51 34 85t85 34q53 0 87 -33.5t34 -85.5q0 -51 -34 -85.5t-87 -34.5q-51 0 -85 33.5t-34 86.5zM1466 100q0 51 34 85t85 34q53 0 87 -33.5t34 -85.5 q0 -51 -34 -85.5t-87 -34.5q-51 0 -85 34.5t-34 85.5z" />
<glyph unicode="&#x202f;" horiz-adv-x="342" />
<glyph unicode="&#x2039;" horiz-adv-x="673" d="M92 475l377 389l154 -33l-308 -354l308 -358l-154 -33z" />
<glyph unicode="&#x203a;" horiz-adv-x="673" d="M51 119l307 358l-307 354l154 33l377 -389l-377 -389z" />
<glyph unicode="&#x205f;" horiz-adv-x="428" />
<glyph unicode="&#x20ac;" horiz-adv-x="1189" d="M-74 465l31 113h149q-2 72 0 145h-180l31 115h170q29 111 90.5 200.5t148.5 153t195.5 97.5t231.5 34q84 0 167.5 -11.5t161.5 -37.5l-51 -195q-49 23 -115.5 34t-119.5 11q-152 0 -256.5 -78.5t-149.5 -207.5h584l-31 -115h-586q-8 -74 0 -145h549l-26 -113h-490 q45 -129 149.5 -206t254.5 -77q57 0 120.5 10.5t116.5 30.5l10 -209q-63 -20 -140 -28.5t-144 -8.5q-127 0 -236.5 32t-198 94.5t-149.5 153.5t-90 208h-197z" />
<glyph unicode="&#x2122;" horiz-adv-x="598" d="M14 1397v49h209v-49h-73v-195h-60v195h-76zM272 1202v244h84l58 -148l53 148h84v-244h-57v182l-68 -182h-27l-69 182v-182h-58z" />
<glyph unicode="&#xe000;" horiz-adv-x="1010" d="M0 1010h1010v-1010h-1010v1010z" />
<glyph unicode="&#xfb01;" horiz-adv-x="1261" d="M-20 723l16 131h207v49q0 313 147.5 476t421.5 163q236 0 354 -102l-122 -193q-45 53 -93.5 79t-113.5 26q-133 0 -203 -104.5t-70 -311.5v-41q0 -18 2 -41h207l-20 -131h-185v-719h-329v719h-219zM788 956l351 48l-4 -1016h-316z" />
<glyph unicode="&#xfb02;" horiz-adv-x="1302" d="M-20 723l16 131h201q4 352 149.5 520t450.5 168q135 0 231 -26.5t154 -73.5q-10 -219 -15.5 -407.5t-5.5 -348.5v-24q0 -135 3 -241t20.5 -184.5t54.5 -133t104 -87.5l-307 -55q-76 14 -120 71.5t-65.5 161t-26.5 255t-5 354.5q0 127 1 269t5 304h-16q-145 0 -213 -129 t-70 -393h226l-15 -131h-209v-719h-329v719h-219z" />
<glyph unicode="&#xfb03;" horiz-adv-x="2279" d="M1806 956l350 48l-4 -1016h-315zM1859 1368q0 49 35 84t84 35t84 -35t35 -84t-35 -84t-84 -35t-84 34t-35 85zM822 723l16 131h201q2 344 146 516t429 172q94 0 170 -21.5t145 -74.5l-94 -150q-37 43 -84 61.5t-112 18.5q-131 0 -201 -128t-70 -384v-10h410l-14 -131 h-394v-719h-329v719h-219zM-20 723l16 131h201q2 344 146 516t429 172q94 0 170 -21.5t145 -74.5l-94 -150q-37 43 -84 61.5t-112 18.5q-131 0 -201 -128t-70 -384v-10h410l-14 -131h-394v-719h-329v719h-219z" />
<glyph unicode="&#xfb04;" horiz-adv-x="2279" d="M1798 573q0 186 8 412.5t22 501.5l355 33q-29 -401 -40 -653.5t-11 -358.5q0 -98 7 -177t27.5 -138.5t57.5 -102.5t96 -74l-307 -55q-66 25 -108 73t-65.5 122.5t-32.5 178t-9 238.5zM822 723l16 131h201q2 344 146 516t429 172q94 0 170 -21.5t145 -74.5l-94 -150 q-37 43 -84 61.5t-112 18.5q-131 0 -201 -128t-70 -384v-10h410l-14 -131h-394v-719h-329v719h-219zM-20 723l16 131h201q2 344 146 516t429 172q94 0 170 -21.5t145 -74.5l-94 -150q-37 43 -84 61.5t-112 18.5q-131 0 -201 -128t-70 -384v-10h410l-14 -131h-394v-719h-329 v719h-219z" />
</font>
</defs>
</svg>
