<?xml version="1.0" standalone="no"?>
<!DOCTYPE svg PUBLIC "-//W3C//DTD SVG 1.1//EN" "http://www.w3.org/Graphics/SVG/1.1/DTD/svg11.dtd" >
<svg xmlns="http://www.w3.org/2000/svg">
<metadata>
This is a custom SVG webfont generated by Font Squirrel.
Copyright   : Copyright c Dieter Steffmann Kreuztal 1998 All rights reserved
Designer    : Dieter Steffmann Kreuztal
Foundry URL : httpmembersaolcomDSteffmannindexhtm
</metadata>
<defs>
<font id="RoskellRegular" horiz-adv-x="966" >
<font-face units-per-em="2048" ascent="1638" descent="-410" />
<missing-glyph horiz-adv-x="354" />
<glyph unicode=" "  horiz-adv-x="354" />
<glyph unicode="&#x09;" horiz-adv-x="354" />
<glyph unicode="&#xa0;" horiz-adv-x="354" />
<glyph unicode="!" horiz-adv-x="464" d="M111 1305q0 -57 3 -119t11 -129q10 -82 16 -144l11 -102q4 -70 8 -122t6 -87q10 -143 12 -158q20 -117 72 -116q74 0 78 84l39 997q4 53 -50 53q-14 0 -26 -4l-66 -31l-53 -24q-61 -37 -61 -98zM131 127q0 -57 38 -95t95 -38q59 0 98 37t39 96q0 55 -39.5 95t-95.5 40 q-57 0 -96 -39t-39 -96z" />
<glyph unicode="&#x22;" horiz-adv-x="524" d="M100 1126q0 -76 19 -194l28 -195h37q23 160 35 255t12 130q0 111 -59 111q-72 -1 -72 -107zM348 1126q0 -29 12 -126l35 -263h33q49 283 49 379q0 117 -59 117q-70 -1 -70 -107z" />
<glyph unicode="#" horiz-adv-x="1589" d="M199 381h262l-133 -381h147l129 381h246l-129 -381h143l131 381h252l41 115h-254l86 254h256l37 114h-252l133 381h-149l-127 -381h-248l131 381h-143l-133 -381h-258l-41 -114h258l-86 -254h-260zM645 496l86 254h246l-88 -254h-244z" />
<glyph unicode="$" horiz-adv-x="692" d="M76 242q0 -35 43 -148q45 -123 78 -123q53 0 57 54l47 -15q0 -12 -2 -38.5t-2 -41.5q0 -113 65 -112q70 0 70 108v37q-2 23 -2 33q0 8 0 4q96 20 164 88q70 72 70 172q0 96 -99 266l-182 287q-98 154 -98 209q0 92 98 92q47 0 102 -67q59 -66 82 -66q51 0 51 55 q0 31 -34 131q-41 111 -72 111q-35 0 -53 -29l-29 19q2 70 0 92q-8 57 -59 57q-74 0 -72 -100l2 -47q-98 -27 -161.5 -96.5t-63.5 -167.5q0 -111 98 -267l106 -162l76 -116q98 -152 99 -211q0 -102 -107 -103q-45 0 -127 72q-78 74 -92 74q-53 0 -53 -51z" />
<glyph unicode="%" horiz-adv-x="1132" d="M76 903q0 -139 51 -233q63 -119 188 -119q117 0 183 139q49 106 49 242q0 143 -51 231q-66 111 -199 111q-117 0 -174 -135q-47 -111 -47 -236zM211 973q0 176 88 176q63 0 90 -125q18 -84 19 -178q0 -174 -82 -174q-63 0 -95 125q-20 80 -20 176zM238 12q0 -18 67 -18 q41 0 57 29q578 1194 578 1210q0 25 -70 24q-35 0 -53 -30q-16 -29 -93 -188l-214 -447q-272 -572 -272 -580zM631 313q0 -139 51 -233q63 -117 190 -117q115 0 179 137q49 106 49 240q0 143 -51 231q-61 113 -195 113q-117 0 -178 -135q-45 -99 -45 -236zM766 385 q0 176 90 176q59 0 88 -127q18 -86 19 -178q0 -174 -84 -174q-61 0 -93 125q-20 80 -20 178z" />
<glyph unicode="&#x26;" horiz-adv-x="1220" d="M80 410q0 -197 121 -324q119 -123 317 -123q156 0 313 135q53 47 58 47q10 0 20 -36q6 -29 6 -46q0 -66 -53 -141.5t-53 -87.5q0 -35 31 -35q96 0 174 123q68 106 67 211q0 106 -92 227q8 43 12.5 83t4.5 77q0 127 -50 262q55 -14 78 -14q53 0 103 43q51 43 51 96 q0 37 -43 37h-352q-23 0 -43.5 -12t-37 -30.5t-25.5 -41t-9 -43.5q12 -6 44 -13t48 -18q104 -70 92 -247l-2 -31l-315 352l102 108q41 44 62 70q92 119 92 215q0 98 -80 158q-72 55 -172 55q-133 0 -236 -96q-98 -96 -98 -231q0 -119 82 -297q-217 -205 -217 -432zM303 459 q0 111 98 231l367 -401q-96 -111 -205 -111q-117 0 -190 84q-70 76 -70 197zM403 1186q0 158 136 157q37 0 66.5 -32.5t29.5 -69.5q0 -102 -172 -250q-60 113 -60 195z" />
<glyph unicode="'" horiz-adv-x="372" d="M80 1296q0 -82 100 -127l-11 -21q-9 -17 -30 -48q-31 -53 -30 -62q0 -20 20 -20q74 0 145 102q61 94 62 176q0 53 -39 91t-92 38q-51 0 -88 -39t-37 -90z" />
<glyph unicode="(" horiz-adv-x="518" d="M72 715q0 -221 82 -467q88 -260 225 -414q29 -29 49 -29q47 0 47 52v8q-2 4 -2 8l-71 285l-33 137q-43 190 -43 444q0 303 88 611q10 39 19 66l16 46q27 82 26 109q0 47 -41 47q-27 0 -55 -29q-133 -145 -223 -411q-84 -252 -84 -463z" />
<glyph unicode=")" horiz-adv-x="518" d="M86 -147q0 -47 41 -48q27 0 55 29q131 143 221 406q84 252 84 460q0 225 -81 471q-86 272 -224 418q-29 29 -49 29q-47 0 -47 -53q0 -12 2 -15q94 -403 98 -411q47 -231 47 -426q0 -293 -83 -623q-23 -78 -37.5 -133t-24.5 -84q-2 -4 -2 -20z" />
<glyph unicode="*" horiz-adv-x="645" d="M78 1237q0 -43 86 -74q27 -10 56 -19l65 -20l-174 -67q-31 -12 -31 -56q0 -25 19.5 -43t43.5 -18q33 0 86 51l49 46l33 34q-4 -33 -8 -55.5t-8 -38.5q-12 -66 -12 -96q0 -20 16 -37t37 -17q72 0 72 52q0 4 -9 53l-24 141q150 -129 170 -129q68 0 67 70q0 41 -86 76 l-61 16q-31 8 -62 18l96 31l31 10q78 29 78 80q0 23 -19.5 44.5t-41.5 21.5q-31 0 -90.5 -53.5t-85.5 -79.5q37 172 37 190q0 20 -19.5 37.5t-40.5 17.5q-66 0 -65 -55q0 -8 30 -192q-16 16 -38 34l-46 41q-63 57 -86 58q-65 0 -65 -72z" />
<glyph unicode="+" horiz-adv-x="1402" d="M211 424h436v-428h148v428h434v151h-434v439h-148v-439h-436v-151z" />
<glyph unicode="," horiz-adv-x="372" d="M86 102q0 -74 100 -116q-33 -68 -67 -119q-4 -12 -4 -14q0 -20 18 -21q74 0 146 102q63 94 63 175q0 55 -38 93t-93 38q-53 0 -89 -41.5t-36 -96.5z" />
<glyph unicode="-" horiz-adv-x="632" d="M84 549q0 -29 21.5 -50.5t50.5 -21.5h385q31 0 51 20.5t20 51.5q0 29 -21.5 52.5t-49.5 23.5h-385q-29 0 -50.5 -23.5t-21.5 -52.5z" />
<glyph unicode="." horiz-adv-x="366" d="M86 111q0 -51 35 -85t86 -34t86 33.5t35 85.5q0 51 -34 86.5t-85 35.5t-87 -35.5t-36 -86.5z" />
<glyph unicode="/" horiz-adv-x="872" d="M88 59q0 -29 20.5 -47t49.5 -18q45 0 63 39l330 702q287 616 287 645t-20.5 49.5t-49.5 20.5q-47 0 -66 -41q-614 -1319 -614 -1350z" />
<glyph unicode="0" d="M70 631q0 -252 90 -436q117 -231 342 -232q217 0 329 223q90 184 91 420q0 250 -95 426q-117 221 -340 221q-213 0 -327 -213q-90 -173 -90 -409zM262 750q0 336 205 335q135 0 209 -254q53 -184 53 -366q0 -330 -203 -330q-137 0 -211 250q-53 185 -53 365z" />
<glyph unicode="1" d="M266 918q0 -51 49 -52q31 0 93 62v-686q0 -68 -35 -97l-66 -26q-35 -16 -35 -56q0 -55 68 -63h109q20 0 59 -2t59 -2q176 0 176 67q0 43 -67 66q-53 16 -72 107q-8 33 -10 76.5t0 101.5q6 203 6 143l2 332q2 111 2 192v138q0 49 -47 49q-29 0 -41 -15l-83 -98 q-36 -41 -58 -70q-109 -132 -109 -167z" />
<glyph unicode="2" d="M213 127q0 -127 61 -127h459q66 0 66 47q0 37 -35 96q-33 57 -72 58q-37 0 -102 -27q-68 -25 -103 -24q-47 0 -47 45q0 115 178 413q178 301 179 420q0 96 -72 164q-70 70 -168 70q-68 0 -137 -29q-12 53 -47 53q-29 0 -45 -22q-20 -35 -54 -115q-39 -90 -38 -113 q0 -47 47 -47q20 0 79 53q57 55 115 56q35 0 64.5 -27t29.5 -61q0 -78 -92 -238l-174 -301q-92 -188 -92 -344z" />
<glyph unicode="3" d="M199 1059q0 -47 45 -47q23 0 82 53q57 55 112 55q41 0 72 -32.5t31 -73.5q0 -82 -64 -103q-10 -4 -39.5 -6t-77.5 -4q-63 -2 -63 -31q0 -12 -2 -35.5t-2 -35.5q0 -51 51 -51q125 0 174 -66q43 -55 43 -184q0 -141 -84 -244q-51 -66 -155 -133q-84 -59 -84 -80v-41 q0 -33 7 -42t38 -9q55 0 147 43q80 35 135 78q227 186 228 454q0 129 -37 201q-43 80 -158 123q131 63 131 180q0 104 -68.5 169t-173.5 65q-66 0 -122 -25q-16 37 -43 37q-33 0 -50 -29q-73 -135 -73 -186z" />
<glyph unicode="4" d="M109 369q0 -66 75 -84q27 -6 127 -6h45q20 2 37 2h27h108q0 -100 -34 -136q-12 -12 -66 -26q-35 -10 -35 -56q0 -55 68 -63h108q20 0 60.5 -2t60.5 -2q172 0 172 67q0 39 -35 56l-51 20l-16 6q-35 29 -35 101v35l43 -5q61 -6 80 25q57 90 57 127q0 43 -37 43 q-23 0 -71 -18q-49 -16 -72 -17l4 379q2 119 1 214t-5 167q-4 74 -51 74q-43 0 -80 -62l-461 -757q-24 -41 -24 -82zM313 436l215 352v-352h-215z" />
<glyph unicode="5" d="M213 43q0 -61 31 -61q205 0 383 211q170 207 170 413q0 330 -332 330h-39l51 194h45q68 0 121 -40q53 -39 59 -39q55 0 56 53q0 33 -43 117q-41 84 -68 84q-41 0 -55 -43q-12 0 -29.5 1t-38 3t-38 3t-29.5 1q-119 0 -144 -80q-92 -305 -92 -352q0 -70 107 -70 q129 0 184 -48t55 -173t-100 -244q-82 -98 -211 -164q-33 -14 -39 -39q-4 -16 -4 -57z" />
<glyph unicode="6" d="M135 362q0 -170 105 -276q104 -109 272 -109q158 0 258 101q104 100 104 256q0 133 -92 223q-94 90 -225 90q-80 0 -162 -35q10 43 24.5 87t35.5 89l42 92q19 42 40 76q27 47 64 106l85 130q12 18 12 39q0 47 -45 47q-18 0 -35 -10q-170 -119 -327 -410 q-156 -287 -156 -496zM324 311q0 37 14 71t37.5 60.5t56.5 42t70 15.5q86 0 141 -51.5t55 -137.5q0 -37 -14 -71.5t-38.5 -60t-57.5 -41t-70 -15.5q-82 0 -138 53t-56 135z" />
<glyph unicode="7" d="M182 1051q0 -49 49 -50q14 0 91 64q78 63 170 63h51q35 -2 47 -2t2 0l-156 -569q-125 -455 -125 -514q0 -53 56 -53q33 0 53 20q59 59 231 563q172 506 172 607q0 63 -78 80q-10 2 -41.5 3t-85.5 1h-124h-31q-18 0 -41 -2h-51q-12 43 -47 43q-31 0 -45 -25 q-16 -27 -56 -119q-41 -98 -41 -110z" />
<glyph unicode="8" d="M178 326q0 -141 84 -244q88 -106 227 -107q150 0 244 113q86 106 86 262q0 213 -227 512q104 162 104 238q0 39 -16 72.5t-45 58t-66 38t-75 13.5q-49 0 -93.5 -16.5t-77 -46t-52 -70.5t-19.5 -90q0 -76 115 -250q-189 -280 -189 -483zM356 348q0 156 115 332 q147 -195 147 -348q0 -203 -129 -203q-68 0 -104 80q-29 63 -29 139zM414 1110q0 74 75 74q29 0 46.5 -25.5t17.5 -56.5q0 -41 -61 -133q-78 96 -78 141z" />
<glyph unicode="9" d="M129 926q0 -135 90 -225.5t225 -90.5q80 0 162 35q-18 -76 -59 -176q-20 -51 -80 -168q-8 -18 -92 -143q-72 -109 -72 -129q0 -47 47 -47q18 0 35 10q170 121 326 407q156 291 155 496q0 168 -104 276q-104 111 -273 111q-158 0 -258 -100q-102 -102 -102 -256zM305 946 q0 37 14.5 71t38 60.5t56 42t69.5 15.5q82 0 138.5 -53.5t56.5 -135.5q0 -37 -14.5 -70.5t-39 -60.5t-57 -42t-69.5 -15q-86 0 -139.5 51t-53.5 137z" />
<glyph unicode=":" horiz-adv-x="366" d="M84 111q0 -51 35 -85t86 -34t86 33.5t35 85.5q0 51 -34 86.5t-85 35.5t-87 -35.5t-36 -86.5zM84 729q0 -51 35 -86t86 -35t86 35t35 86q0 49 -35 85t-84 36q-51 0 -87 -35t-36 -86z" />
<glyph unicode=";" horiz-adv-x="372" d="M82 729q0 -51 35 -86t86 -35t87 35t36 86q0 49 -36 85t-85 36q-51 0 -87 -35t-36 -86zM86 102q0 -74 100 -116q-10 -20 -26.5 -50t-40.5 -69q-4 -12 -4 -14q0 -20 18 -21q74 0 146 102q63 94 63 175q0 55 -38 93t-93 38q-53 0 -89 -41.5t-36 -96.5z" />
<glyph unicode="&#x3c;" horiz-adv-x="882" d="M94 430l740 -278v167l-566 201l566 203v168l-740 -279v-182z" />
<glyph unicode="=" horiz-adv-x="1427" d="M221 258h1022v131h-1022v-131zM221 612h1022v133h-1022v-133z" />
<glyph unicode="&#x3e;" horiz-adv-x="882" d="M102 152l740 278v182l-740 279v-168l564 -203l-564 -201v-167z" />
<glyph unicode="?" horiz-adv-x="655" d="M82 1202q0 -43 39 -43q25 0 90 60q68 61 113 61q31 0 54 -28.5t23 -59.5q0 -72 -88 -250q-43 -90 -80 -254q-35 -170 -34 -266q0 -94 73 -94q57 0 70 65q2 74 6 111q10 131 86 274l74 135l55 97q68 119 68 194q0 51 -16.5 97.5t-46 80t-71.5 53t-94 19.5q-47 0 -141 -24 q-8 39 -43 38q-37 0 -65 -59q-10 -23 -19 -46l-16 -46q-37 -97 -37 -115zM139 127q0 -57 38 -95t95 -38q59 0 97.5 37t38.5 96q0 55 -39 95t-95 40q-57 0 -96 -39t-39 -96z" />
<glyph unicode="@" horiz-adv-x="1708" d="M74 535q0 -360 225 -579.5t586 -219.5q381 0 684 223l-37 47q-324 -201 -621 -201q-328 0 -532 191q-211 193 -211 518q0 332 217 569q217 242 547 242q285 0 471 -149q201 -164 201 -441q0 -168 -82 -313q-96 -172 -248 -172q-121 0 -121 119q0 96 59 303l95 309h-107 l-43 -143q-59 166 -223 166q-180 0 -311 -185q-119 -168 -119 -354q0 -129 65 -219q74 -96 201 -96q135 0 268 133q63 -131 211 -131q195 0 318 206q104 174 104 387q0 291 -209 474q-201 170 -495 170q-377 0 -635 -239.5t-258 -614.5zM608 453q0 154 94 305 q106 172 246 172q37 0 66.5 -16.5t50 -43t32 -62.5t11.5 -73q0 -109 -68 -268q-74 -176 -157 -217q-39 -20 -103 -21q-86 0 -133 72q-39 58 -39 152z" />
<glyph unicode="A" horiz-adv-x="1263" d="M45 66q0 -66 88 -66h10h84h193q57 0 57 66q0 43 -67 71q-68 31 -68 74q0 92 113 393q16 41 59 41q20 0 57 -13.5t56 -13.5q51 0 104 52l41 -136q18 -58 29 -98q49 -170 49 -219q0 -51 -65.5 -79.5t-65.5 -71.5q0 -66 55 -66h420q55 0 55 66q0 37 -26 55q-16 6 -30.5 12 t-29.5 14q-39 31 -61 103l-328 1128q-29 96 -127 97q-92 0 -121 -97l-342 -1163q-18 -61 -84 -78q-55 -16 -55 -71zM518 805q0 41 37 156l53 163l94 -356h-108q-76 0 -76 37z" />
<glyph unicode="B" horiz-adv-x="1120" d="M86 66q0 -66 55 -66h543q164 0 274 92q119 98 119 260q0 104 -78 236q-43 70 -147 196q-78 96 -78 109q0 8 47 37q137 82 137 215q0 197 -153 256q-92 35 -322 35h-170q-35 2 -69 2q-35 0 -70 2q-88 -8 -88 -72q0 -43 64 -70q63 -25 67 -92q6 -102 6 -323l-2 -316 q-2 -106 -2 -186v-131q0 -74 -35 -98q-33 -14 -65.5 -30.5t-32.5 -55.5zM453 158v1118h102q180 0 180 -139q0 -88 -57 -121q-12 -10 -105 -37q-57 -18 -57 -59q0 -47 80 -148l98 -125q37 -47 51 -63q80 -117 80 -197q0 -229 -297 -229h-75z" />
<glyph unicode="C" horiz-adv-x="1298" d="M55 705q0 -328 205 -527q207 -201 533 -201q27 0 63 4l86 7l88 7q37 3 64 3q102 0 96 -2q68 6 67 47q0 14 2.5 42t2.5 42q0 84 -62 84q-66 0 -180.5 -26.5t-179.5 -26.5q-238 0 -389 194q-135 178 -136 426q0 201 103 359q119 178 311 178q68 0 119 -33q59 -37 59 -102 q0 -20 -8 -60.5t-8 -60.5q0 -61 53 -62q31 0 57 33q199 248 199 307q0 20 -16.5 38t-36.5 18q-12 0 -38 -8.5t-38 -8.5q-227 90 -342 90q-301 0 -493 -233q-181 -219 -181 -528z" />
<glyph unicode="D" horiz-adv-x="1460" d="M80 66q0 -66 55 -66h580q307 0 502 176q203 184 202 488q0 383 -266 587q-242 182 -635 183h-383q-55 0 -55 -66q0 -43 63 -70q63 -25 70 -92q2 -27 3 -107.5t1 -215.5l-2 -316q-2 -106 -2 -186v-131q0 -74 -35 -98q-33 -14 -65.5 -30.5t-32.5 -55.5zM446 324v952h21 q145 0 229 -12q127 -18 211 -78q125 -90 191 -246q61 -141 61 -307q0 -227 -145 -357q-139 -121 -369 -120q-199 0 -199 168z" />
<glyph unicode="E" horiz-adv-x="1021" d="M80 66q0 -66 55 -66h555q297 0 297 319q0 102 -59 103q-33 0 -84 -76q-35 -53 -60.5 -88t-40.5 -51q-70 -76 -153 -76q-147 0 -148 260v62v14q0 8 2 18v21v65q2 31 2 54v41v159h21q31 0 102.5 -16t102.5 -16q29 0 56.5 12t50 32.5t36.5 47t14 55.5q0 35 -67 45h-98h-109 h-27q-16 0 -36 -2h-46v293h115h68q70 -4 110 -49q8 -8 20 -28l27 -50q23 -41 50 -41q53 0 53 61q0 33 -6 95.5t-21 158.5q-10 61 -57 62q-51 0 -60 -51h-610q-55 0 -55 -66q0 -51 65 -70q49 -16 68 -102q8 -33 10 -77q1 -22 1 -46t-1 -51q-5 -156 -6 -156v17l-2 -316 q-2 -106 -2 -186v-131q0 -74 -35 -98q-33 -14 -65.5 -30.5t-32.5 -55.5z" />
<glyph unicode="F" horiz-adv-x="921" d="M80 66q0 -66 55 -66h389q55 0 56 66q0 41 -65.5 69.5t-68.5 93.5q-2 18 -2 68v135v82q2 37 2 66v49v196h23q35 0 102 -18q72 -16 103 -16q29 0 56.5 12t50 33.5t35.5 48t13 55.5q0 35 -67 45h-96h-109h-27q-16 0 -38 -2h-46v293h115h68q70 -4 110 -49q8 -8 20 -28l27 -50 q23 -41 50 -41q53 0 53 63q0 31 -6 93.5t-21 158.5q-10 61 -57 62q-51 0 -60 -51h-610q-55 0 -55 -66q0 -51 65 -70q49 -16 68 -102q8 -33 10 -77q1 -22 1 -46t-1 -51q-5 -156 -6 -156v17l-2 -316q-2 -106 -2 -186v-131q0 -74 -35 -98q-33 -14 -65.5 -30.5t-32.5 -55.5z" />
<glyph unicode="G" horiz-adv-x="1427" d="M61 721q0 -354 218 -551q209 -184 567 -184q106 0 218 3t234 11q80 6 80 76v438q0 31 -22.5 53.5t-52.5 22.5h-496q-78 0 -78 -55q0 -39 62 -89q66 -47 104 -47q33 0 98 19q61 20 101 20q49 0 49 -115v-18l-2 -100q-127 -43 -258 -43q-258 0 -412 176q-143 168 -143 430 q0 225 118 381q129 174 347 174q102 0 192 -45q113 -55 113 -145q0 -20 -7.5 -61.5t-7.5 -61.5q0 -61 56 -62q37 0 96 74q16 27 34.5 53.5l35.5 52.5q88 131 88 158q0 23 -17.5 40t-40.5 17q-12 0 -33.5 -8t-29.5 -8q-25 0 -144 68q-152 68 -331 67q-317 0 -526.5 -213 t-209.5 -528z" />
<glyph unicode="H" horiz-adv-x="1247" d="M82 66q0 -66 55 -66h387q57 0 58 66q0 41 -65.5 69.5t-67.5 93.5q-2 18 -3 64v119v73q2 33 3 58v45v176q0 70 71 70q29 0 98 -17q72 -16 101 -16q49 0 129 61v-612q0 -74 -35 -98q-33 -14 -65.5 -31t-32.5 -55q0 -66 55 -66h389q55 0 55 66q0 51 -63 71q-51 14 -70 103 q-8 33 -10 76q-1 22 -1 46.5t1 51.5q5 153 6 153v-16l2 317q-2 53 -2 109v108q2 174 39 199l66 25q33 12 32 59q0 66 -55 66h-389q-55 0 -55 -66q0 -43 63 -70q63 -29 68 -92q2 -20 2 -41v-39v-143h-399v199q0 78 34 102l66 25q33 12 33 59q0 66 -58 66h-387q-55 0 -55 -66 q0 -43 63 -70q63 -29 68 -92q6 -121 6 -323l-2 -316q-2 -106 -2 -186v-131q0 -74 -35 -98q-33 -14 -65.5 -30.5t-32.5 -55.5z" />
<glyph unicode="I" horiz-adv-x="620" d="M80 66q0 -66 55 -66h389q55 0 56 66q0 41 -65.5 69.5t-68.5 93.5q-2 35 -3 114t-1 208l2 317q-2 53 -2 109v108q2 174 39 199l66 25q33 12 33 59q0 66 -56 66h-389q-55 0 -55 -66q0 -43 63 -68q68 -25 70 -94q2 -35 3 -114.5t1 -208.5l-2 -316q-2 -106 -2 -186v-131 q0 -74 -35 -98q-33 -14 -65.5 -30.5t-32.5 -55.5z" />
<glyph unicode="J" horiz-adv-x="665" d="M61 1384q0 -41 48 -84q51 -41 90 -40q29 0 73.5 14t73.5 14q43 0 49 -153q0 8 0 6l-2 -8v-193v-397q0 -54 0.5 -54.5t1.5 41.5q-4 -293 -37 -387q-20 -61 -108 -174q-80 -104 -80 -119q0 -53 49 -53q31 0 94 29q59 29 86 51q129 104 181 242q45 117 45 301v942 q0 29 -20.5 50.5t-49.5 21.5h-420q-74 -1 -74 -50z" />
<glyph unicode="K" horiz-adv-x="1148" d="M72 66q0 -66 57 -66h387q57 0 57 66q0 41 -65.5 69.5t-67.5 93.5q-2 35 -3 115t-1 209l2 315q-2 53 -2 107v108q2 174 39 201q59 20 66 27q33 18 32 57q0 66 -57 66h-387q-57 0 -57 -66q0 -43 65 -68q68 -25 70 -94q2 -35 3 -114.5t1 -208.5l-2 -316q-2 -106 -2 -186 v-131q0 -72 -35 -100l-68 -25q-32 -18 -32 -59zM481 872q0 -68 229.5 -520t295.5 -524q29 -29 55 -29q76 0 76 72t-205 532q-203 467 -203 525q0 43 162 213q164 176 164 227q0 66 -62 66h-276q-55 0 -55 -66q0 -49 49 -70q49 -23 49 -36q0 -31 -139.5 -176.5t-139.5 -213.5 z" />
<glyph unicode="L" horiz-adv-x="1007" d="M90 66q0 -66 57 -66h498q100 0 148 10q92 20 145 117q43 82 43 188t-59 107q-31 0 -80 -76q-68 -100 -103 -139q-74 -76 -161 -76q-127 0 -127 330q0 12 1 33.5t1 44.5t1 44t1 33l2 283q-2 51 -2 100v101q2 156 39 184l63 27q33 12 33 57q0 66 -55 66h-388q-57 0 -57 -66 q0 -43 64 -68q68 -25 69 -94q6 -102 6 -323q0 -53 -1 -131t-3 -184.5t-2 -186.5v-131q0 -72 -35 -100l-65 -25q-33 -12 -33 -59z" />
<glyph unicode="M" horiz-adv-x="1390" d="M80 66q0 -66 55 -66h352q55 0 56 66q0 51 -64 71q-53 16 -67 94q-13 48 -13 120v38q4 149 6 150l1 -21l2 563l233 -327q27 -39 64 -39q49 0 71 37l217 340v-842q0 -74 -35 -98q-31 -10 -47 -17.5t-20 -9.5q-31 -18 -31 -59q0 -66 58 -66h385q57 0 57 66q0 51 -64 71 q-51 14 -69 103q-8 33 -10 76q-1 22 -1.5 46.5t1.5 51.5l5 153l1 -16l2 317q-2 53 -2 109v108q2 174 39 199l65 25q33 12 33 59q0 66 -57 66h-396q-57 0 -57 -66q0 -18 8 -32.5t20 -24.5l19 -18q8 -7 8 -9q0 -8 -162 -270q-182 260 -182 270q0 2 8 9l20 18q11 10 19 24.5 t8 32.5q0 66 -55 66h-426q-55 0 -55 -66q0 -43 63 -70q68 -25 70 -94q2 -35 3 -113.5t1 -207.5l-2 -316q-2 -106 -2 -186v-131q0 -74 -35 -98q-33 -14 -65.5 -30.5t-32.5 -55.5z" />
<glyph unicode="N" horiz-adv-x="1161" d="M78 66q0 -66 55 -66h344q55 0 55 66q0 51 -63 71q-47 16 -66 86q-11 47 -10 118v24q2 113 3 142.5t1 -24.5l2 246q2 82 2 143v103l316 -256q63 -51 80 -121q6 -31 6 -147v-152q0 -41 2 -14q-2 -117 -45 -140l-62 -24q-31 -12 -30 -55q0 -66 55 -66h342q55 0 55 66 q0 51 -63 71q-49 16 -68 103q-8 33 -10 76q-1 22 -1 46.5t1 51.5q5 153 6 153v-16l2 317q-2 53 -2 109v108q2 174 39 199q33 12 64.5 27.5t31.5 56.5q0 66 -55 66h-342q-55 0 -55 -66q0 -43 63 -70q68 -25 70 -92q2 -27 2 -51v-47l-2 -180l-155 129l-50 43 q-168 143 -168 164q0 16 51 36q53 23 53 68q0 66 -55 66h-344q-55 0 -55 -66q0 -51 65 -70q49 -16 68 -104q8 -33 10 -76q1 -22 1 -46t-1 -52q-5 -153 -6 -153v16l-2 -316q-2 -106 -2 -186v-131q0 -74 -35 -98q-33 -14 -65.5 -30.5t-32.5 -55.5z" />
<glyph unicode="O" horiz-adv-x="1617" d="M72 721q0 -313 219 -539q221 -221 534 -221q315 0 535 221q221 221 221 537q0 315 -219 538q-217 223 -535 224q-315 0 -536 -221q-219 -224 -219 -539zM340 758q0 227 113 383q127 176 344 176q242 0 387 -201q129 -182 129 -432q0 -219 -117 -379q-133 -176 -342 -176 q-240 0 -385 201q-129 180 -129 428z" />
<glyph unicode="P" horiz-adv-x="1085" d="M80 66q0 -66 55 -66h389q55 0 56 66q0 43 -63.5 69.5t-70.5 93.5q-2 27 -3 115t-1 238l2 348q2 117 2 203v143q350 0 351 -354q0 -143 -74 -217q-33 -33 -139 -80q-74 -35 -74 -76q0 -66 108 -66q186 0 314 146q117 137 117 329q0 104 -32 189.5t-92.5 146t-144.5 96 t-188 42.5q-35 2 -77 3t-93 1h-143h-62q-31 0 -61 2q-76 -8 -76 -70q0 -43 63 -68q68 -25 70 -94q2 -35 3 -114.5t1 -208.5l-2 -316q-2 -106 -2 -186v-131q0 -74 -35 -98q-33 -14 -65.5 -30.5t-32.5 -55.5z" />
<glyph unicode="Q" horiz-adv-x="1617" d="M72 721q0 -315 219 -539q221 -221 536 -221q174 0 326 74q180 -223 217 -223q72 0 72 69q0 29 -62 121l-49 73l-35 52q135 106 210 263t75 331q0 315 -221 536q-217 223 -533 224q-315 0 -536 -221q-219 -224 -219 -539zM340 758q0 227 113 383q127 176 344 176 q242 0 387 -201q129 -178 129 -432q0 -225 -125 -387q-88 141 -92 143q-45 45 -160 45q-106 0 -107 -59q0 -20 91 -127l51 -58l63 -71q-82 -41 -182 -41q-238 0 -383 201q-129 180 -129 428z" />
<glyph unicode="R" horiz-adv-x="1189" d="M80 66q0 -66 55 -66h389q55 0 56 66q0 43 -63.5 69.5t-70.5 93.5q-2 27 -3 115t-1 238l2 348q2 117 2 203v143h72q113 0 189 -57q82 -63 81 -175q0 -104 -63 -167.5t-168 -77.5q-63 -8 -63 -62q0 -76 274 -495q279 -424 348 -424q63 0 64 57q0 35 -201 406 q-199 367 -199 395q0 23 70 67q88 59 127 111q70 88 70 217q0 150 -101 250q-98 100 -250 111q-92 6 -198 6h-76q-45 0 -105 -2q-35 2 -71 2q-37 0 -72 2q-94 -8 -94 -72q0 -43 63 -70q68 -25 70 -92q2 -35 3 -114.5t1 -208.5l-2 -316q-2 -106 -2 -186v-131q0 -74 -35 -98 q-33 -14 -65.5 -30.5t-32.5 -55.5z" />
<glyph unicode="S" horiz-adv-x="679" d="M82 96v-215q0 -18 15.5 -35.5t33.5 -17.5q23 0 72 51q61 61 84 72l84 24q43 12 86 27q86 27 139 98.5t53 159.5t-39 168l-84 180l-61 127q-141 307 -141 375q0 82 47 111q33 20 104 20q90 0 111 4q57 8 57 60v188q0 51 -43 51q-31 0 -63 -51q-41 -55 -62 -61l-92 -30 l-72 -22q-94 -43 -151.5 -126t-57.5 -183q0 -129 156 -434q158 -305 158 -373q0 -117 -187 -117h-88q-59 -6 -59 -51z" />
<glyph unicode="T" horiz-adv-x="950" d="M49 1133q0 -74 55 -74q41 0 113 115q70 117 115 116q33 0 49 -92q7 -48 7 -121q0 -29 -1 -61q-2 -104 -3 -135t-1 10l-2 -320q-2 -106 -2 -188v-133q0 -74 -35 -98q-31 -10 -47 -17.5t-21 -9.5q-31 -18 -30 -59q0 -66 57 -66h385q57 0 57 66q0 41 -30 59l-68 25 q-35 29 -35 100v946q0 94 54 94q39 0 110 -116q72 -115 105 -115q61 0 61 65q0 115 -41 297q-12 51 -53 52q-57 0 -60 -50h-585q-4 49 -56 50q-47 0 -57 -54q-41 -204 -41 -286z" />
<glyph unicode="U" horiz-adv-x="1067" d="M63 356q0 -143 97 -245q98 -100 243 -111q29 -2 78 -2h121h78q47 0 111 2q35 -2 71 -2q37 0 74 -2q94 6 94 70q0 51 -63 71q-49 14 -68 105q-8 33 -10 75q-1 22 -1 46.5t1 52.5q5 153 6 153v-16l2 315q-2 53 -2 107v108q2 174 37 199q57 20 63 27q29 18 29 59 q0 66 -57 66h-373q-55 0 -55 -66q0 -41 59 -70q63 -25 66 -92q6 -111 6 -352l-2 -344q-2 -117 -2 -203v-141l-86 -2h-8q-105 0 -179 53q-82 57 -82 170q0 41 2 49l150 883q2 8 2 33q0 63 -57 78q-23 6 -107 6h-14q-8 2 -17 2h-10h-51q-139 0 -139 -70q0 -49 65 -78 q68 -29 68 -57l-133 -801q-7 -37 -7 -76z" />
<glyph unicode="V" horiz-adv-x="1202" d="M43 1368q0 -39 27 -53q2 -2 57 -27q39 -27 63 -104l342 -1116q31 -96 99 -97q96 0 125 97l303 1149q14 57 82 77q57 18 57 74q0 66 -59 66h-316q-59 0 -59 -66q0 -47 61 -74q63 -27 64 -67q0 -80 -86 -396l-119 -425l-125 425q-98 334 -98 388q0 47 55 75q57 27 57 74 q0 66 -57 66h-418q-55 0 -55 -66z" />
<glyph unicode="W" horiz-adv-x="1568" d="M55 362q0 -154 103 -260q106 -102 260 -102h1061q57 0 57 66q0 51 -63 71q-51 14 -70 103q-8 33 -10 76q-1 22 -1 46.5t1 51.5l5 153l1 -16l2 317q-2 53 -2 107v108q2 174 37 199l65 27q29 18 29 59q0 66 -57 66h-367q-57 0 -57 -66q0 -51 59 -70q45 -14 63 -112 q9 -49 10 -131q0 -27 -1 -58q-5 -161 -6 -160v17l-3 -344q-2 -117 -2 -203v-141l-106 -2h-31q-14 0 -28 2q-106 8 -113 117q-2 35 -3 110.5t-1 192.5l2 299q-2 51 -2 102v105q2 162 35 190q29 10 44 17.5l19 9.5q27 18 27 59q0 66 -58 66h-364q-55 0 -55 -66q0 -51 59 -70 q47 -16 65 -112q9 -49 10 -131q0 -27 -1 -58q-5 -161 -6 -160v17l-3 -344q-2 -117 -2 -203v-141l-84 -2h-8q-104 0 -180 51q-82 61 -82 172q0 12 1 24.5t3 24.5l148 883q2 8 2 33q0 63 -56 80q-8 2 -33.5 3t-72.5 1h-14q-8 2 -17 2h-10h-51q-139 0 -140 -70q0 -47 66 -75.5 t66 -61.5l-134 -799q-6 -37 -6 -70z" />
<glyph unicode="X" horiz-adv-x="1128" d="M70 1368q0 -35 63 -86q76 -61 94 -100l181 -383q-322 -379 -322 -662q0 -98 47 -123q29 -14 135 -14h13q10 -2 24 -2h47q125 0 125 61q0 43 -77.5 78t-77.5 96q0 166 174 383q186 -381 186 -413q0 -39 -51 -66q-51 -25 -51 -71q0 -66 55 -66h399q57 0 58 66q0 43 -29 55 q-84 33 -107 72l-11 22l-17 35l-262 557l142 171l64 79q133 174 134 274q0 66 -56 88q-31 14 -110 15q-111 0 -117 -2q-68 -12 -68 -74q0 -39 45 -64q47 -23 48 -53q0 -70 -168 -252l-66 135q-51 104 -51 129q0 23 55 45q55 20 55 70q0 66 -57 66h-389q-57 0 -57 -66z" />
<glyph unicode="Y" horiz-adv-x="1136" d="M70 1368q0 -35 59 -82q74 -59 98 -104l312 -600q-195 -315 -195 -443q0 -94 94 -125q49 -14 172 -14h15q8 -2 24 -2h51q152 0 152 68q0 43 -70 67q-4 2 -31 9l-75 20q-61 27 -62 88q0 94 125 305l137 227l97 162q125 217 125 367q0 86 -51 110q-29 12 -129 13h-13 q-8 2 -22 2h-45q-119 0 -119 -62q0 -51 69 -78q72 -29 72 -84q0 -96 -61 -213l-119 -190l-56 104l-65 125q-96 186 -96 213q0 25 55 47q55 20 55 70q0 66 -57 66h-389q-57 0 -57 -66z" />
<glyph unicode="Z" horiz-adv-x="882" d="M72 102q0 -76 84 -98q31 -6 143 -6h53q33 0 78 2h131q174 0 254 72.5t80 244.5q0 104 -57 105q-33 0 -76 -68q-72 -111 -86 -129q-59 -68 -123 -67h-209q504 1130 504 1179q0 98 -180 99h-50h-12q-6 0 -14 -2h-14h-74q-43 0 -103 -2q-57 -2 -102 -2h-72q-8 51 -53 51 q-57 0 -65 -62q-25 -152 -25 -241q0 -74 49 -74q45 0 72 45q20 35 34.5 54.5t22.5 27.5q51 45 166 45q12 0 29.5 -1t38.5 -1q20 0 37.5 -1t29.5 -1l-266 -608q-225 -523 -225 -562z" />
<glyph unicode="[" horiz-adv-x="663" d="M186 -279h351v72q-225 0 -226 152v1269q0 156 226 152v74h-351v-1719z" />
<glyph unicode="\" horiz-adv-x="808" d="M63 1368q0 -14 271 -606l215 -467q78 -164 94 -193q20 -37 55 -36q68 0 68 65q0 14 -268 610l-212 462q-77 163 -98 196q-25 39 -57 39q-68 0 -68 -70z" />
<glyph unicode="]" horiz-adv-x="667" d="M170 -207v-72h352v1719h-352v-74q227 2 227 -152v-1269q0 -152 -227 -152z" />
<glyph unicode="^" horiz-adv-x="587" d="M80 1225q0 -37 35 -37q14 0 86 47q70 49 116 49q51 0 123 -49q76 -47 80 -47q41 0 41 39q0 20 -80 104l-51 50l-22 22q-23 14 -91 14q-78 0 -131 -51l-46 -55l-50 -60q-10 -14 -10 -26z" />
<glyph unicode="_" horiz-adv-x="962" d="M6 -180v-88h1041v88h-1041z" />
<glyph unicode="`" horiz-adv-x="526" d="M82 1358q0 -55 164 -117q147 -53 217 -53q45 0 45 45q0 23 -160 108q-158 86 -194 86q-72 1 -72 -69z" />
<glyph unicode="a" horiz-adv-x="784" d="M68 262q0 -162 116 -219q86 -43 260 -43h127h109q72 4 72 53q0 39 -56 56q-53 16 -53 55l4 371q1 76 2 143q0 33 -1 64q-1 93 -5 165q-2 57 -39 92t-94 35q-18 0 -45 -10q2 6 2 16q0 53 -43 54q-35 0 -115 -98.5t-80 -135.5q0 -45 47 -45q27 0 78 41q51 43 84 43 q47 0 47 -53q0 -35 -155 -203l-114 -121l-83 -86q-65 -72 -65 -174zM260 287q0 76 82 164l125 131v-441h-43q-164 1 -164 146z" />
<glyph unicode="b" horiz-adv-x="1173" d="M82 1210q0 -16 15.5 -31.5t31.5 -15.5q27 0 64 41v-960q0 -47 -56 -66q-53 -16 -53 -57q0 -72 209 -121q170 -41 278 -41q258 0 410 147q154 147 154 404q0 219 -127 381q-137 174 -353 174q-129 0 -276 -86v475q0 55 -55 55q-27 0 -136 -133q-106 -131 -106 -166z M377 479v72q2 33 2 57v43v172q115 88 225 88q147 0 238 -147q72 -127 71 -287q0 -156 -77 -268q-88 -125 -240 -125q-162 0 -201 131q-18 57 -18 264z" />
<glyph unicode="c" horiz-adv-x="1138" d="M70 514q0 -252 157.5 -397.5t411.5 -145.5q250 0 420 33q33 6 33 37v76q0 23 2 8q-4 59 -41 59q-35 0 -160 -37q-127 -37 -193 -36q-197 0 -313 131q-109 127 -108 325q0 152 92 260.5t241 108.5q74 0 133 -39q70 -45 70 -115v-57q6 -33 37 -33q29 0 96.5 82t67.5 117 q0 82 -162 133q-129 41 -236 41q-236 0 -393 -158q-155 -155 -155 -393z" />
<glyph unicode="d" horiz-adv-x="985" d="M68 436q0 -256 165 -356q131 -80 402 -80h127h55q27 0 53 -2q70 6 70 55q0 39 -53 56q-53 18 -53 55v1290q0 55 -56 55q-27 0 -135 -133q-106 -131 -106 -166q0 -16 14 -31.5t31 -15.5q25 0 65 41v-137q-579 -144 -579 -631zM268 457q0 168 107 293q109 127 272 153v-762 h-39q-340 1 -340 316z" />
<glyph unicode="e" horiz-adv-x="1193" d="M72 510q0 -252 159 -395q158 -143 414 -144q35 0 95 3l147 8q94 4 150.5 10t78.5 10q37 8 37 70q0 111 -41 110q-14 0 -88 -22q-80 -29 -98 -31q-102 -20 -211 -20q-195 0 -316 112q-121 115 -120 303q0 23 3 47.5t7 53.5h688q113 0 113 77q0 18 -7 35q-59 154 -187 241 t-290 87q-223 0 -379 -166q-155 -162 -155 -389zM328 764q25 61 102 113q80 49 150 49q84 0 161.5 -44t112.5 -118h-526z" />
<glyph unicode="f" horiz-adv-x="530" d="M8 -383q2 -74 33 -74h8q4 2 8 2q25 25 35 43q33 59 144 113q143 70 143 195v997q8 -2 23.5 -5t39.5 -7q35 -8 64 -9q23 0 46 9.5t41.5 26t31 36t12.5 41.5q0 41 -125 41q-23 0 -67 -3t-66 -3v151q0 72 47 103q16 10 86 33q47 16 47 41q0 98 1 122.5t3 -26.5q-4 74 -33 74 t-51 -48q-29 -47 -106 -92q-92 -51 -121 -78q-59 -53 -59 -135v-145q-12 0 -39 2t-39 2q-57 0 -58 -76q0 -84 27 -84q8 0 109 23v-998q0 -70 -48 -104q-12 -10 -86 -33q-47 -16 -47 -41q0 -98 -1 -121.5t-3 27.5z" />
<glyph unicode="g" horiz-adv-x="958" d="M63 451q0 -240 132 -351q119 -100 364 -100h72v-51q0 -72 -17 -101q-20 -39 -90 -38q-43 0 -123 20q-76 20 -120 20q-47 0 -68 -38q-102 -176 -102 -213q0 -41 32 -41l99 55q94 55 196 55q23 0 65 -5t64 -5q106 0 172 65.5t66 172.5v964q0 43 55 61.5t55 53.5 q0 55 -55 55h-207q-252 0 -420 -166q-170 -163 -170 -413zM252 451q0 172 104.5 294.5t274.5 133.5v-738h-33q-346 1 -346 310z" />
<glyph unicode="h" horiz-adv-x="970" d="M78 53q0 -53 55 -53h293q57 0 57 53q0 39 -55 56q-55 18 -55 55v665q0 35 24.5 60.5t59.5 25.5q80 0 88 -69l57 -352q43 -262 43 -334q0 -33 -53 -51.5t-53 -55.5q0 -53 53 -53h285q55 0 55 53q0 33 -53.5 55.5t-59.5 61.5l-112 743q-10 63 -59.5 106.5t-112.5 43.5 t-162 -62v453q0 55 -56 55q-27 0 -135 -133q-104 -133 -104 -168q0 -16 15.5 -30.5t31.5 -14.5q23 0 63 39v-1038q0 -37 -55 -55q-55 -17 -55 -56z" />
<glyph unicode="i" horiz-adv-x="514" d="M78 53q0 -45 57 -53h90h15q8 -2 14 -2h14h56q147 0 147 55q0 39 -55 56q-53 18 -54 55v864q0 49 -47 49q-35 0 -133 -120.5t-98 -157.5q0 -16 15.5 -31.5t31.5 -15.5q14 0 57 36v-624q0 -37 -55 -55q-55 -17 -55 -56zM133 1327q0 -53 36 -88t89 -35q55 0 92 34t37 89 q0 53 -36 91t-89 38q-57 0 -93 -36t-36 -93z" />
<glyph unicode="j" horiz-adv-x="514" d="M2 -383q2 -74 33 -74q6 0 69 64q33 31 55.5 49t35.5 27q88 51 112 75q53 53 53 138v1132q0 49 -51 49q-31 0 -129 -123q-98 -121 -98 -155q0 -45 45 -45q25 0 59 34v-899q0 -70 -47 -104q-16 -10 -86 -31q-47 -16 -47 -43q0 -98 -1 -121.5t-3 27.5zM131 1327 q0 -51 37 -87t88 -36q55 0 93 35t38 88t-37 91t-90 38q-55 0 -92 -37t-37 -92z" />
<glyph unicode="k" horiz-adv-x="874" d="M74 53q0 -53 55 -53h295q55 0 55 53q0 39 -55 56q-55 18 -55 55v362l86 99l86 -223q37 -93 59 -156q123 -305 178 -305q63 0 64 61q0 20 -244 786q59 74 68 78q25 20 96 43q47 16 47 58q0 53 -53 53h-226q-53 0 -53 -53q0 -18 16.5 -38t16.5 -24q0 -14 -141 -168v717 q0 55 -56 55q-27 0 -135 -133q-104 -133 -104 -168q0 -16 15 -30.5t32 -14.5q16 0 63 39v-1038q0 -37 -55 -55q-55 -17 -55 -56z" />
<glyph unicode="l" horiz-adv-x="524" d="M78 53q0 -43 59 -53h92h15q8 -2 14 -2h14h60q152 0 151 55q0 37 -55 55.5t-55 55.5v1290q0 55 -49 55q-37 0 -142 -131q-104 -133 -104 -170q0 -16 15.5 -30.5t31.5 -14.5q23 0 63 39v-1038q0 -37 -55 -55q-55 -17 -55 -56z" />
<glyph unicode="m" horiz-adv-x="1351" d="M78 799q0 -16 15.5 -30.5t31.5 -14.5q23 0 57 34v-624q0 -39 -51 -58q-51 -14 -51 -53q0 -53 53 -53h262q53 0 54 53q0 37 -48 53q-45 14 -45 58v643q0 45 31 78t76 33q49 0 82 -31t33 -80v-643q0 -39 -48 -58q-45 -18 -45 -53q0 -53 54 -53h266q55 0 55 53q0 39 -55 56 q-53 18 -53 55v665q0 86 92 86q70 0 78 -69l57 -352q43 -262 43 -336q0 -31 -53 -49q-51 -18 -51 -56q0 -53 53 -53h284q53 0 54 53q0 33 -54 56q-51 20 -57 61l-113 743q-10 68 -59 109t-117 41q-100 0 -215 -100q-74 100 -172 100q-74 0 -166 -62q0 76 -49 76 q-29 0 -129 -125q-100 -120 -100 -153z" />
<glyph unicode="n" d="M78 53q0 -53 55 -53h283q55 0 55 53q0 39 -55 56q-53 18 -54 55v665q0 35 24 60.5t58 25.5q80 0 88 -69l58 -352q43 -264 43 -334q0 -33 -53.5 -51.5t-53.5 -55.5q0 -45 58 -53h92h14q8 -2 15 -2h14h55q147 0 148 55q0 37 -56 56q-53 23 -59 61l-111 743 q-10 63 -58 106.5t-114 43.5q-63 0 -162 -62q0 76 -51 76q-31 0 -129 -123q-98 -121 -98 -155q0 -16 15.5 -31.5t31.5 -15.5q10 0 57 36v-624q0 -37 -55 -55q-55 -17 -55 -56z" />
<glyph unicode="o" horiz-adv-x="1220" d="M70 514q0 -231 161.5 -393t391.5 -162q229 0 393 160q162 162 162 393t-162 393q-160 164 -391 164t-393 -162t-162 -393zM285 551q0 160 75 260q86 117 238 117q184 0 283 -146q86 -127 86 -317q0 -152 -84 -258q-92 -113 -242 -113q-178 0 -274 146q-82 125 -82 311z " />
<glyph unicode="p" horiz-adv-x="1161" d="M78 -381q0 -53 55 -53h283q55 0 55 53q0 37 -55 55q-53 16 -54 56v276q96 -33 193 -33q250 0 403 156q156 156 156 408q0 215 -125 366q-135 164 -344 164q-139 0 -283 -80q0 6 1 12q0 78 -52 78q-31 0 -129 -123q-98 -121 -98 -155q0 -45 45 -45q25 0 59 34v-1058 q0 -41 -55 -56q-55 -18 -55 -55zM360 500v69q2 33 2 58v41v168q98 92 230 92q150 0 235 -150q74 -127 74 -286q0 -162 -76 -271q-90 -127 -241 -127q-166 0 -205 135q-19 58 -19 271z" />
<glyph unicode="q" horiz-adv-x="956" d="M68 455q0 -455 495 -455h72v-268q0 -37 -55.5 -55.5t-55.5 -53.5q0 -53 58 -53h280q57 0 58 53q0 35 -55.5 53.5t-55.5 55.5v1128q0 43 55.5 61.5t55.5 53.5q0 55 -58 55h-205q-250 0 -419.5 -163.5t-169.5 -411.5zM254 453q0 172 104 292q109 125 277 134v-738h-33 q-348 1 -348 312z" />
<glyph unicode="r" horiz-adv-x="647" d="M78 53q0 -45 57 -53h92h13q10 -2 28 -2h58q145 0 145 55q0 39 -55 56q-53 18 -54 55v526q0 94 66 137q31 20 123 43q66 16 65 45v150q0 39 -28 39q-20 0 -51 -47q-8 -10 -29 -28.5t-55 -41.5q-70 -45 -91 -72q0 12 2.5 37t2.5 37q0 88 -52 88q-31 0 -45 -18 q-16 -18 -42.5 -51l-61.5 -80q-82 -106 -82 -129q0 -45 45 -45q18 0 59 34v-624q0 -37 -55 -55q-55 -17 -55 -56z" />
<glyph unicode="s" horiz-adv-x="514" d="M59 -74q0 -137 33 -137q4 0 64 53q66 55 106 72q53 20 87 37.5t50 32.5q68 55 68 161q0 104 -117 342q-115 240 -114 332q0 92 120 92q66 0 78 4q29 12 29 68q0 139 -33 139q-4 0 -63 -53q-31 -29 -55.5 -48.5t-45.5 -27.5q-113 -51 -133 -69q-63 -55 -63 -150 q0 -96 114 -354q117 -252 117 -328q0 -92 -125 -92q-80 0 -84 -2q-33 -9 -33 -72z" />
<glyph unicode="t" horiz-adv-x="583" d="M57 948q0 -84 27 -84q8 0 109 23l-7 -375q-1 -59 -1 -115q0 -140 8 -260q2 -80 61 -133q10 -8 40 -26l77 -46q27 -16 92 -79q59 -59 61 -60q39 0 39 84q0 14 -2 42t-2 42q0 33 -47 43q-35 8 -57.5 15.5t-32.5 13.5q-53 33 -62 172q2 -14 2 33v161l3 246q2 82 2 143v105 q14 -4 63 -12q20 -4 36.5 -6.5t29.5 -2.5q23 0 46 9.5t41.5 26t31 36t12.5 41.5q0 41 -125 41q-12 0 -29.5 -1t-38 -2t-38 -2t-29.5 -1l4 55q2 27 2 47v39q0 129 -35 129q-14 0 -27 -14q-88 -100 -94 -113q-25 -47 -24 -143q-12 0 -38 2t-38 2q-60 0 -60 -76z" />
<glyph unicode="u" horiz-adv-x="886" d="M74 948q0 -49 59.5 -71.5t59.5 -40.5q0 -92 -41 -287t-41 -287q0 -164 125 -225q80 -39 266 -39h57q37 0 84 2h57q31 0 60 -2q80 6 80 55q0 39 -56 56q-55 18 -55 55v864q0 49 -51 49q-29 0 -127 -123t-98 -157q0 -43 43 -43q25 0 59 34v-647h-88q-176 0 -176 150 q0 106 49 313q49 205 49 314q0 66 -37 88q-27 14 -98 14q-104 0 -113 -2q-67 -13 -67 -70z" />
<glyph unicode="v" horiz-adv-x="948" d="M68 967q0 -33 38 -52q45 -20 62 -65l281 -834q16 -41 53 -41q45 0 57 43l244 832q14 49 61 65q39 12 39 52q0 43 -47 53q-6 2 -82 2h-121q-84 -10 -84 -55q0 -39 47 -56q49 -16 50 -45q0 -47 -58 -250l-47 -165l-29 -103l-55 159l-39 111q-78 223 -78 244q0 33 50 49 q51 18 51 56q0 45 -58 53q-6 2 -90 2h-14q-8 2 -16 2h-13h-55q-147 0 -147 -57z" />
<glyph unicode="w" horiz-adv-x="1218" d="M86 948q0 -51 59.5 -73.5t59.5 -38.5q0 -92 -41 -287t-41 -287q0 -55 19.5 -103t53 -84t82 -55.5t103.5 -19.5h741q57 0 58 53q0 39 -56 56q-55 18 -55 55v864q0 49 -45 49q-18 0 -35 -10l-64 -74q-30 -35 -53 -65q-82 -106 -81 -129q0 -16 15 -30.5t32 -14.5q23 0 57 34 v-647h-88q-61 0 -82 74q-17 52 -17 136q0 9 1 20q4 182 5 182t1 -51l2 262q2 88 2 154v110q0 49 -47 49q-27 0 -45 -18q-35 -35 -105 -129q-82 -106 -82 -131q0 -45 45 -45q18 0 60 34v-647h-72q-170 0 -170 148q0 106 49 313q49 209 49 316q0 68 -39 88q-27 14 -98 14 q-104 0 -110 -2q-68 -13 -68 -70z" />
<glyph unicode="x" horiz-adv-x="868" d="M88 129q0 -76 25 -109q8 -20 41 -20h178q55 0 55 53q0 35 -33 49q-59 25 -61 27q-33 27 -33 96q0 119 119 244l78 -172q59 -135 59 -160q0 -16 -31 -35q-31 -16 -30 -49q0 -53 53 -53h260q55 0 55 53q0 39 -39 51q-49 16 -71 66l-197 440l86 92l55 64q86 106 86 184 q0 53 -45 68q-23 6 -88 6q-104 0 -104 -57q0 -25 22 -47q35 -10 35 -43q0 -49 -102 -140q-66 135 -66 158q0 2 31 18q31 14 31 54q0 53 -56 53h-241q-53 0 -54 -53q0 -47 54 -58q35 -6 92 -143l39 -93q16 -40 26 -69q-229 -231 -229 -475z" />
<glyph unicode="y" horiz-adv-x="882" d="M86 948q0 -51 59.5 -73.5t59.5 -38.5q0 -92 -41 -287t-41 -287q0 -137 92 -205q83 -57 214 -57h9h127q0 8 0 -4t2 -45v-51q0 -135 -94 -136q-33 0 -106 23q-72 23 -105 23q-37 0 -88 -93q-51 -90 -51 -133q0 -41 39 -41q12 0 84 45q76 43 137 43q20 0 59 -6t60 -6 q104 0 171.5 66.5t67.5 171.5v1171q0 49 -53 49q-29 0 -127 -123t-98 -155q0 -45 45 -45q23 0 57 34v-647h-86q-176 0 -176 148q0 106 49 313q49 209 49 316q0 68 -39 88q-27 14 -98 14q-104 0 -110 -2q-68 -13 -68 -70z" />
<glyph unicode="z" horiz-adv-x="606" d="M76 59q0 -51 74 -59q10 -2 114 -2h53q33 0 78 2h49q25 0 52 -2q74 2 73 39q0 29 -41 74q-39 45 -69 45q-12 0 -30 -5l-36 -11l-34.5 -10t-28.5 -5q-29 0 -29 27q0 90 135 401q137 307 137 408q0 51 -71 61h-111h-125h-51q-25 0 -49 2q-72 -6 -72 -43q0 -31 41 -72 q39 -39 74 -39q25 0 63 21q41 23 54 22q33 0 32 -26q0 -94 -141 -410q-141 -318 -141 -418z" />
<glyph unicode="{" horiz-adv-x="796" d="M68 596q156 -20 208 -72q61 -59 62 -209v-47q0 -31 -2 -78q-2 -86 0 -124q14 -274 424 -285v72q-156 20 -213 108q-43 61 -43 197q-2 104 -2 161q0 59 -2 72q-14 127 -115 187q-66 37 -223 61q193 35 258 90q88 74 88 256q0 -10 0 8t-2 70v72q0 135 41 194q57 80 211 101 v77q-86 -4 -148.5 -14t-103.5 -27q-127 -53 -154 -186q-16 -82 -16 -299q0 -156 -60 -215q-53 -53 -208 -80v-90z" />
<glyph unicode="|" horiz-adv-x="176" d="M66 -266h57v1773h-57v-1773z" />
<glyph unicode="}" horiz-adv-x="796" d="M66 -147v-72q426 0 426 342q0 16 -1.5 40.5l-3.5 57.5q-2 35 -2 60v41q0 139 68 200q59 53 207 74v90q-170 29 -221 88q-51 63 -52 240v186q0 168 -135 246q-92 53 -284 61v-77q131 -18 190 -78t59 -189q0 -223 7 -272q16 -131 116 -189q63 -35 226 -63 q-193 -27 -263 -84q-86 -72 -86 -258q0 10 0 -8t2 -70v-72q0 -74 -12 -126t-40.5 -85.5t-77.5 -54t-123 -28.5z" />
<glyph unicode="~" horiz-adv-x="608" d="M47 1233q0 -45 47 -45q14 0 53 22q41 23 64 23q29 0 82 -19q51 -18 80 -18q57 0 114 33q68 37 68 88q0 45 -45 45q-6 0 -22 -7l-33 -16q-18 -8 -38 -15t-36 -7q-23 0 -74 18q-49 18 -74 19q-59 0 -116 -31q-70 -37 -70 -90z" />
<glyph unicode="&#xa1;" horiz-adv-x="464" d="M98 930q0 -55 39 -95t94 -40q57 0 96.5 38.5t39.5 96.5q0 57 -38 96t-96 39q-57 0 -96 -39t-39 -96zM133 -348q-4 -55 47 -55q16 0 29 6l62 28l51 23q66 41 65 92q0 121 -18 291l-33 295l-10 166l-13 135q-16 96 -67 96q-74 0 -78 -84z" />
<glyph unicode="&#xa2;" horiz-adv-x="1134" d="M72 514q0 -199 110 -342q113 -150 305 -188q0 -14 -2 -43t-2 -43q0 -115 66 -115q72 0 72 108v39q-2 27 -3 37q0 10 0 4q117 0 227.5 8.5t215.5 24.5q35 6 35 70q0 111 -41 110q-18 0 -88 -24q-80 -29 -99 -31q-96 -18 -172 -18q-53 0 -78 6v819q74 0 132 -39 q68 -43 67 -113v-57q6 -35 37 -35q35 0 88 72l45 64l29 44q0 4 2 9v8q0 86 -162 137q-117 35 -238 39q0 16 2.5 47t2.5 47q0 111 -64 111q-84 0 -78 -117l6 -104q-188 -43 -303 -191q-112 -145 -112 -344zM281 567q0 250 206 342v-749q-206 120 -206 407z" />
<glyph unicode="&#xa3;" horiz-adv-x="763" d="M84 55q0 -55 63 -55h510q61 0 62 45q0 35 -39 86q-41 53 -72 53q-45 0 -143 -28q-92 -27 -143 -27q129 258 129 422v22q12 0 38.5 -2t38.5 -2q109 0 109 70q0 68 -113 68h-94l-55 149q-37 98 -37 148q0 94 100 94q49 0 109 -56q59 -53 74 -53q51 0 51 51q0 39 -51 142 q-49 104 -76 104q-59 0 -56 -53q-57 23 -108 22q-102 0 -172 -75q-68 -74 -68 -176q0 -86 68 -297q-115 0 -115 -68q0 -66 92 -66h54q2 -10 2 -26v-35q0 -111 -80 -285q-78 -178 -78 -172z" />
<glyph unicode="&#xa5;" horiz-adv-x="1136" d="M76 1368q0 -33 59 -80q72 -55 98 -106l254 -490h-346v-49h371l33 -61l-36 -57q-13 -22 -17 -31h-351v-48h324q-115 -211 -115 -305q0 -92 96 -127q45 -14 172 -14h15q8 -2 24 -2h50q154 0 153 68q0 43 -69 67q-4 2 -32 9l-75 20q-61 27 -61 88t65 196h375v48h-346l84 149 h262v49h-232l103 174l72 123q98 180 98 322q0 86 -51 110q-29 12 -129 13h-13q-8 2 -22 2h-45q-119 0 -119 -62q0 -47 70 -78q72 -29 71 -98q0 -117 -180 -389l-71 135l-50 96q-96 188 -96 213q0 23 55 45q55 20 56 70q0 66 -56 66h-391q-57 0 -57 -66z" />
<glyph unicode="&#xa8;" horiz-adv-x="608" d="M68 1288q0 -41 27.5 -69.5t68.5 -28.5q43 0 69.5 27.5t26.5 70.5q0 41 -27.5 69.5t-68.5 28.5t-68.5 -28.5t-27.5 -69.5zM375 1288q0 -41 27.5 -70.5t68.5 -29.5t68.5 29.5t27.5 70.5t-27.5 69.5t-68.5 28.5t-68.5 -28.5t-27.5 -69.5z" />
<glyph unicode="&#xa9;" horiz-adv-x="1282" d="M70 571q0 -248 172 -422t420 -174t419 172q172 174 172 422t-172 424q-170 176 -417 176q-250 0 -422 -174q-172 -176 -172 -424zM137 569q0 219 152 375q154 154 375 154q219 0 368 -156q152 -158 152 -373q0 -217 -154 -370q-152 -154 -368 -154q-217 0 -373 152 q-152 155 -152 372zM342 565q0 -156 88 -249t244 -93q133 0 252 125l-19 33q-111 -92 -219 -92q-236 0 -235 276q0 109 57 193q66 96 166 96q82 0 140 -48t71 -130h35l-9 221h-30q-10 -29 -47 -29q-27 0 -88.5 16.5t-88.5 16.5q-135 0 -227 -100q-90 -101 -90 -236z" />
<glyph unicode="&#xaa;" horiz-adv-x="434" d="M61 809q0 -129 189 -129h88q66 4 65 29q0 16 -28 26q-27 8 -27 29v369q0 68 -59 67q-14 0 -29 -8q2 6 2 16q0 20 -24 21q-18 0 -58 -49q-37 -47 -37 -68q0 -23 23 -22l16 2q47 41 66 41q25 0 24 -29q0 -18 -106 -123q-105 -102 -105 -172zM156 825q0 39 41 84l39 38 l26 26v-219l-22 -2q-84 -1 -84 73z" />
<glyph unicode="&#xab;" horiz-adv-x="514" d="M82 670q0 -23 10 -54l135 -389q8 -27 41 -26q43 0 43 49q0 70 -47 215q-45 137 -45 215q0 51 41 157.5t41 145.5q0 43 -37 43q-33 0 -45 -27l-115 -235q-22 -49 -22 -94zM264 670q0 -23 10 -54l136 -389q8 -27 39 -26q45 0 45 47q0 70 -48 215q-45 141 -45 217 q0 51 41 158q41 111 41 145q0 43 -39 43q-31 0 -43 -27l-114 -235q-23 -49 -23 -94z" />
<glyph unicode="&#xac;" horiz-adv-x="356" d="M74 1311q0 -55 88 -234l121 -239h36l-61 342q-8 45 -15 74l-12 46q-29 80 -79 80q-78 1 -78 -69z" />
<glyph unicode="&#xad;" horiz-adv-x="632" d="M84 549q0 -29 21.5 -50.5t50.5 -21.5h385q31 0 51 20.5t20 51.5q0 29 -21.5 52.5t-49.5 23.5h-385q-29 0 -50.5 -23.5t-21.5 -52.5z" />
<glyph unicode="&#xae;" horiz-adv-x="1282" d="M57 563q0 -246 170 -422q172 -174 420 -174q250 0 422 172t172 422q0 246 -172 422t-418 176q-248 0 -422 -174q-172 -176 -172 -422zM129 565q0 215 152 371q150 154 368 154q219 0 373 -156q154 -154 154 -373t-156 -373q-154 -154 -373 -153q-219 0 -368.5 155.5 t-149.5 374.5zM367 260h278v31q-82 0 -82 53v223h41l232 -307h161v31q-41 0 -61 26l-207 267q76 4 124 54t48 126q0 104 -117 139q-61 18 -198 17l-209 -2v-29q43 0 49 -2q25 -8 29 -99q-2 55 -2 27v-141v-168v-41q0 -25 -2 -57v-70q0 -47 -84 -47v-31zM563 608v240 q0 29 68 29q156 0 155 -125q0 -144 -223 -144z" />
<glyph unicode="&#xaf;" horiz-adv-x="751" d="M109 1573h643v149h-643v-149z" />
<glyph unicode="&#x2c9;" horiz-adv-x="751" d="M109 1573h643v149h-643v-149z" />
<glyph unicode="&#xb0;" horiz-adv-x="616" d="M72 1071q0 -92 73 -168q76 -74 168 -74q117 0 189.5 72t72.5 189q0 94 -73 167q-70 76 -166 76q-117 0 -190.5 -72.5t-73.5 -189.5zM109 1071q0 88 59 158q57 70 147 69q45 0 86 -15t72 -43t48.5 -66.5t17.5 -83.5q0 -86 -60 -156q-59 -66 -143 -66q-92 0 -156 56 q-71 59 -71 147z" />
<glyph unicode="&#xb1;" horiz-adv-x="1419" d="M213 631h469v-285h78v285h463v80h-463v293h-78v-293h-469v-80zM217 76h1004v80h-1004v-80z" />
<glyph unicode="&#xb2;" d="M213 127q0 -127 61 -127h459q66 0 66 47q0 37 -35 96q-33 57 -72 58q-37 0 -102 -27q-68 -25 -103 -24q-47 0 -47 45q0 115 178 413q178 301 179 420q0 96 -72 164q-70 70 -168 70q-68 0 -137 -29q-12 53 -47 53q-29 0 -45 -22q-20 -35 -54 -115q-39 -90 -38 -113 q0 -47 47 -47q20 0 79 53q57 55 115 56q35 0 64.5 -27t29.5 -61q0 -78 -92 -238l-174 -301q-92 -188 -92 -344z" />
<glyph unicode="&#xb3;" d="M199 1059q0 -47 45 -47q23 0 82 53q57 55 112 55q41 0 72 -32.5t31 -73.5q0 -82 -64 -103q-10 -4 -39.5 -6t-77.5 -4q-63 -2 -63 -31q0 -12 -2 -35.5t-2 -35.5q0 -51 51 -51q125 0 174 -66q43 -55 43 -184q0 -141 -84 -244q-51 -66 -155 -133q-84 -59 -84 -80v-41 q0 -33 7 -42t38 -9q55 0 147 43q80 35 135 78q227 186 228 454q0 129 -37 201q-43 80 -158 123q131 63 131 180q0 104 -68.5 169t-173.5 65q-66 0 -122 -25q-16 37 -43 37q-33 0 -50 -29q-73 -135 -73 -186z" />
<glyph unicode="&#xb4;" horiz-adv-x="528" d="M76 1227q0 -39 47 -39t176 45l80 27q31 10 41 14q80 39 80 88q0 25 -19.5 45t-44.5 20q-43 0 -203 -86q-157 -85 -157 -114z" />
<glyph unicode="&#xb5;" horiz-adv-x="2977" d="M23 -82h2875v1720h-2875v-1720zM125 291v676q0 63 53 104q47 35 115 35t106 -39l367 -362q63 -63 63 -154v-309q0 -43 39 -43q12 0 24.5 15t12.5 28l-4 1396h115l-2 -1400q0 -61 -44 -106.5t-106 -45.5q-66 0 -106.5 46t-40.5 112q0 154 -1 239.5t-3 106.5 q-4 18 -178 190l-195 191q-29 29 -55 28q-20 0 -35 -12q-16 -45 -17 -65v-635q0 -88 72 -88h166q27 12 51 43h109q-29 -147 -158 -148h-168q-180 0 -180 197zM1157 242q0 63 36 106t97 43h572v-108h-553q-41 0 -41 -37q0 -43 45 -43h512q125 0 125 92v156q0 92 -92 92h-512 q-86 0 -137.5 51t-51.5 137v182q0 92 54.5 150.5t146.5 58.5h504q156 0 182 -155h-102q-41 43 -89 43h-499q-84 0 -84 -88v-195q0 -76 84 -76h504q88 0 142 -47t54 -133v-192q0 -80 -48 -130.5t-128 -50.5h-578q-61 0 -102 41.5t-41 102.5zM2218 270v660q0 197 236 196 q33 0 98 -6q35 -2 59.5 -3t40.5 -1q82 0 82 43q0 39 -84 39q-16 0 -40.5 -1t-57.5 -3t-56.5 -3t-39.5 -1q-238 0 -238 180v268h117v-268q0 -72 75 -72h304q57 0 95 -44t38 -103t-45 -102t-105 -43h-299q-72 0 -71 -93v-618q0 -61 38 -86v-115q-147 33 -147 176z" />
<glyph unicode="&#xb6;" horiz-adv-x="843" d="M74 905q0 -328 338 -340v-706h53v1337h170v-1333h49v1335h119v43h-299q-207 0 -305 -61q-125 -80 -125 -275z" />
<glyph unicode="&#xb7;" horiz-adv-x="444" />
<glyph unicode="&#x2219;" horiz-adv-x="444" />
<glyph unicode="&#xb8;" horiz-adv-x="444" d="M80 -319q0 -39 88 -39t160 39q88 45 88 126q0 43 -35 69t-80 26q-23 0 -29 -2l43 54q18 24 29 40h-86q-27 -23 -45 -41.5t-31 -28.5q-55 -53 -55 -76q0 -25 25 -24q12 0 35.5 7t35.5 7q43 0 43 -47t-49 -67q-20 -8 -88 -19q-49 -6 -49 -24z" />
<glyph unicode="&#xb9;" d="M266 918q0 -51 49 -52q31 0 93 62v-686q0 -68 -35 -97l-66 -26q-35 -16 -35 -56q0 -55 68 -63h109q20 0 59 -2t59 -2q176 0 176 67q0 43 -67 66q-53 16 -72 107q-8 33 -10 76.5t0 101.5q6 203 6 143l2 332q2 111 2 192v138q0 49 -47 49q-29 0 -41 -15l-83 -98 q-36 -41 -58 -70q-109 -132 -109 -167z" />
<glyph unicode="&#xba;" horiz-adv-x="659" d="M68 938q0 -115 79.5 -197t194.5 -82t197 82t82 197q0 113 -80 197q-80 82 -195 82q-117 0 -199 -82q-79 -80 -79 -197zM174 950q0 197 168 197q80 0 129 -74q43 -66 43 -149q0 -195 -172 -195q-82 0 -127 74q-41 65 -41 147z" />
<glyph unicode="&#xbb;" horiz-adv-x="514" d="M70 248q0 -47 39 -47q35 0 43 26l86 230q61 166 61 227q0 37 -20 80l-39 86l-27 61q-53 115 -88 115q-43 0 -43 -45q0 -37 41 -143.5t41 -159.5q0 -70 -47 -215t-47 -215zM252 248q0 -47 39 -47q35 0 43 26l86 230q61 166 61 227q0 39 -20 80l-39 86l-27 63 q-51 113 -90 113q-41 0 -41 -45t39 -150q41 -106 41 -157q0 -72 -47 -213q-45 -135 -45 -213z" />
<glyph unicode="&#xbc;" horiz-adv-x="3069" d="M2212 369q0 -66 75 -84q27 -6 127 -6h45q20 2 37 2h27h108q0 -100 -34 -136q-12 -12 -66 -26q-35 -10 -35 -56q0 -55 68 -63h108q20 0 60.5 -2t60.5 -2q172 0 172 67q0 39 -35 56l-51 20l-16 6q-35 29 -35 101v35l43 -5q61 -6 80 25q57 90 57 127q0 43 -37 43 q-23 0 -71 -18q-49 -16 -72 -17l4 379q2 119 1 214t-5 167q-4 74 -51 74q-43 0 -80 -62l-461 -757q-24 -41 -24 -82zM2416 436l215 352v-352h-215zM1037 1368q0 -35 59 -82q74 -59 98 -104l312 -600q-195 -315 -195 -443q0 -94 94 -125q49 -14 172 -14h15q8 -2 24 -2h51 q152 0 152 68q0 43 -70 67q-4 2 -31 9l-75 20q-61 27 -62 88q0 94 125 305l137 227l97 162q125 217 125 367q0 86 -51 110q-29 12 -129 13h-13q-8 2 -22 2h-45q-119 0 -119 -62q0 -51 69 -78q72 -29 72 -84q0 -96 -61 -213l-119 -190l-56 104l-65 125q-96 186 -96 213 q0 25 55 47q55 20 55 70q0 66 -57 66h-389q-57 0 -57 -66zM1360 1671q0 -41 28 -69.5t68 -28.5q41 0 68 28.5t27 69.5t-27 69.5t-68 28.5t-68.5 -28.5t-27.5 -69.5zM1667 1671q0 -41 28 -69.5t69 -28.5t68.5 28.5t27.5 69.5t-26.5 69.5t-67.5 28.5q-43 0 -71 -27.5 t-28 -70.5zM266 918q0 -51 49 -52q31 0 93 62v-686q0 -68 -35 -97l-66 -26q-35 -16 -35 -56q0 -55 68 -63h109q20 0 59 -2t59 -2q176 0 176 67q0 43 -67 66q-53 16 -72 107q-8 33 -10 76.5t0 101.5q6 203 6 143l2 332q2 111 2 192v138q0 49 -47 49q-29 0 -41 -15l-83 -98 q-36 -41 -58 -70q-109 -132 -109 -167z" />
<glyph unicode="&#xbd;" horiz-adv-x="3069" d="M2316 127q0 -127 61 -127h459q66 0 66 47q0 37 -35 96q-33 57 -72 58q-37 0 -102 -27q-68 -25 -103 -24q-47 0 -47 45q0 115 178 413q178 301 179 420q0 96 -72 164q-70 70 -168 70q-68 0 -137 -29q-12 53 -47 53q-29 0 -45 -22q-20 -35 -54 -115q-39 -90 -38 -113 q0 -47 47 -47q20 0 79 53q57 55 115 56q35 0 64.5 -27t29.5 -61q0 -78 -92 -238l-174 -301q-92 -188 -92 -344zM1037 1368q0 -35 59 -82q74 -59 98 -104l312 -600q-195 -315 -195 -443q0 -94 94 -125q49 -14 172 -14h15q8 -2 24 -2h51q152 0 152 68q0 43 -70 67q-4 2 -31 9 l-75 20q-61 27 -62 88q0 94 125 305l137 227l97 162q125 217 125 367q0 86 -51 110q-29 12 -129 13h-13q-8 2 -22 2h-45q-119 0 -119 -62q0 -51 69 -78q72 -29 72 -84q0 -96 -61 -213l-119 -190l-56 104l-65 125q-96 186 -96 213q0 25 55 47q55 20 55 70q0 66 -57 66h-389 q-57 0 -57 -66zM1360 1671q0 -41 28 -69.5t68 -28.5q41 0 68 28.5t27 69.5t-27 69.5t-68 28.5t-68.5 -28.5t-27.5 -69.5zM1667 1671q0 -41 28 -69.5t69 -28.5t68.5 28.5t27.5 69.5t-26.5 69.5t-67.5 28.5q-43 0 -71 -27.5t-28 -70.5zM266 918q0 -51 49 -52q31 0 93 62v-686 q0 -68 -35 -97l-66 -26q-35 -16 -35 -56q0 -55 68 -63h109q20 0 59 -2t59 -2q176 0 176 67q0 43 -67 66q-53 16 -72 107q-8 33 -10 76.5t0 101.5q6 203 6 143l2 332q2 111 2 192v138q0 49 -47 49q-29 0 -41 -15l-83 -98q-36 -41 -58 -70q-109 -132 -109 -167z" />
<glyph unicode="&#xbe;" horiz-adv-x="3069" d="M2212 369q0 -66 75 -84q27 -6 127 -6h45q20 2 37 2h27h108q0 -100 -34 -136q-12 -12 -66 -26q-35 -10 -35 -56q0 -55 68 -63h108q20 0 60.5 -2t60.5 -2q172 0 172 67q0 39 -35 56l-51 20l-16 6q-35 29 -35 101v35l43 -5q61 -6 80 25q57 90 57 127q0 43 -37 43 q-23 0 -71 -18q-49 -16 -72 -17l4 379q2 119 1 214t-5 167q-4 74 -51 74q-43 0 -80 -62l-461 -757q-24 -41 -24 -82zM2416 436l215 352v-352h-215zM1037 1368q0 -35 59 -82q74 -59 98 -104l312 -600q-195 -315 -195 -443q0 -94 94 -125q49 -14 172 -14h15q8 -2 24 -2h51 q152 0 152 68q0 43 -70 67q-4 2 -31 9l-75 20q-61 27 -62 88q0 94 125 305l137 227l97 162q125 217 125 367q0 86 -51 110q-29 12 -129 13h-13q-8 2 -22 2h-45q-119 0 -119 -62q0 -51 69 -78q72 -29 72 -84q0 -96 -61 -213l-119 -190l-56 104l-65 125q-96 186 -96 213 q0 25 55 47q55 20 55 70q0 66 -57 66h-389q-57 0 -57 -66zM1360 1671q0 -41 28 -69.5t68 -28.5q41 0 68 28.5t27 69.5t-27 69.5t-68 28.5t-68.5 -28.5t-27.5 -69.5zM1667 1671q0 -41 28 -69.5t69 -28.5t68.5 28.5t27.5 69.5t-26.5 69.5t-67.5 28.5q-43 0 -71 -27.5 t-28 -70.5zM199 1059q0 -47 45 -47q23 0 82 53q57 55 112 55q41 0 72 -32.5t31 -73.5q0 -82 -64 -103q-10 -4 -39.5 -6t-77.5 -4q-63 -2 -63 -31q0 -12 -2 -35.5t-2 -35.5q0 -51 51 -51q125 0 174 -66q43 -55 43 -184q0 -141 -84 -244q-51 -66 -155 -133q-84 -59 -84 -80 v-41q0 -33 7 -42t38 -9q55 0 147 43q80 35 135 78q227 186 228 454q0 129 -37 201q-43 80 -158 123q131 63 131 180q0 104 -68.5 169t-173.5 65q-66 0 -122 -25q-16 37 -43 37q-33 0 -50 -29q-73 -135 -73 -186z" />
<glyph unicode="&#xbf;" horiz-adv-x="655" d="M82 -145q0 -53 16.5 -98.5t45 -78t70.5 -52t93 -19.5q57 0 144 26q8 -43 43 -43t65 62q2 2 37 94q37 88 37 111q0 43 -41 43q-23 0 -92 -60q-66 -59 -111 -59q-31 0 -54.5 27.5t-23.5 60.5q0 68 88 246q23 45 42.5 107.5t35.5 146.5q37 166 37 266q0 96 -74 96 q-57 0 -69 -65q-2 -76 -6 -113q-8 -131 -150 -387q-133 -241 -133 -311zM305 930q0 -55 39 -95t94 -40t95 39.5t40 95.5q0 57 -37.5 96t-95.5 39q-59 0 -97 -38t-38 -97z" />
<glyph unicode="&#xc0;" horiz-adv-x="1263" d="M45 66q0 -70 98 -66h84h193q57 0 57 66q0 43 -67 71q-68 31 -68 74q0 92 113 393q16 41 59 41q20 0 57 -13.5t56 -13.5q51 0 104 52l41 -136q18 -58 29 -98q49 -170 49 -219q0 -51 -65.5 -79.5t-65.5 -71.5q0 -66 55 -66h420q55 0 55 66q0 37 -26 55q-16 6 -30.5 12 t-29.5 14q-39 31 -61 103l-328 1128q-29 96 -127 97q-92 0 -121 -97l-342 -1163q-18 -61 -84 -78q-55 -16 -55 -71zM307 1743q0 -53 166 -115q147 -55 215 -55q45 0 45 45q0 23 -160 108q-158 86 -194 86q-72 1 -72 -69zM518 805q0 41 37 156l53 163l94 -356h-108 q-76 0 -76 37z" />
<glyph unicode="&#xc1;" horiz-adv-x="1263" d="M45 66q0 -70 98 -66h84h193q57 0 57 66q0 43 -67 71q-68 31 -68 74q0 92 113 393q16 41 59 41q20 0 57 -13.5t56 -13.5q51 0 104 52l41 -136q18 -58 29 -98q49 -170 49 -219q0 -51 -65.5 -79.5t-65.5 -71.5q0 -66 55 -66h420q55 0 55 66q0 37 -26 55q-16 6 -30.5 12 t-29.5 14q-39 31 -61 103l-328 1128q-29 96 -127 97q-92 0 -121 -97l-342 -1163q-18 -61 -84 -78q-55 -16 -55 -71zM518 805q0 41 37 156l53 163l94 -356h-108q-76 0 -76 37zM565 1612q0 -39 43 -39q47 0 180 45l81 27q30 10 40 14q82 39 82 88q0 66 -63 65q-43 0 -201 -83 q-162 -82 -162 -117z" />
<glyph unicode="&#xc2;" horiz-adv-x="1263" d="M45 66q0 -70 98 -66h84h193q57 0 57 66q0 43 -67 71q-68 31 -68 74q0 92 113 393q16 41 59 41q20 0 57 -13.5t56 -13.5q51 0 104 52l41 -136q18 -58 29 -98q49 -170 49 -219q0 -51 -65.5 -79.5t-65.5 -71.5q0 -66 55 -66h420q55 0 55 66q0 37 -26 55q-16 6 -30.5 12 t-29.5 14q-39 31 -61 103l-328 1128q-29 96 -127 97q-92 0 -121 -97l-342 -1163q-18 -61 -84 -78q-55 -16 -55 -71zM412 1610q0 -37 34 -37q12 0 84 47q70 49 117 49q55 0 129 -49l78 -47q39 0 39 39q0 23 -78 104q-74 80 -102 84q-12 2 -29 2h-35q-84 0 -129 -51l-56 -67 l-40 -48q-12 -16 -12 -26zM518 805q0 41 37 156l53 163l94 -356h-108q-76 0 -76 37z" />
<glyph unicode="&#xc3;" horiz-adv-x="1263" d="M45 66q0 -70 98 -66h84h193q57 0 57 66q0 43 -67 71q-68 31 -68 74q0 92 113 393q16 41 59 41q20 0 57 -13.5t56 -13.5q51 0 104 52l41 -136q18 -58 29 -98q49 -170 49 -219q0 -51 -65.5 -79.5t-65.5 -71.5q0 -66 55 -66h420q55 0 55 66q0 37 -26 55q-16 6 -30.5 12 t-29.5 14q-39 31 -61 103l-328 1128q-29 96 -127 97q-92 0 -121 -97l-342 -1163q-18 -61 -84 -78q-55 -16 -55 -71zM401 1618q0 -45 45 -45q10 0 26 7l32 15l32.5 15.5t28.5 7.5q29 0 82 -19q51 -18 80 -18q57 0 115 33q68 37 67 88q0 45 -45 45q-16 0 -57 -22.5t-72 -22.5 q-23 0 -73 18q-49 18 -74 19q-59 0 -117 -31q-70 -37 -70 -90zM518 805q0 41 37 156l53 163l94 -356h-108q-76 0 -76 37z" />
<glyph unicode="&#xc4;" horiz-adv-x="1263" d="M45 66q0 -70 98 -66h84h193q57 0 57 66q0 43 -67 71q-68 31 -68 74q0 92 113 393q16 41 59 41q20 0 57 -13.5t56 -13.5q51 0 104 52l41 -136q18 -58 29 -98q49 -170 49 -219q0 -51 -65.5 -79.5t-65.5 -71.5q0 -66 55 -66h420q55 0 55 66q0 37 -26 55q-16 6 -30.5 12 t-29.5 14q-39 31 -61 103l-328 1128q-29 96 -127 97q-92 0 -121 -97l-342 -1163q-18 -61 -84 -78q-55 -16 -55 -71zM410 1671q0 -41 27.5 -69.5t68.5 -28.5t69.5 28.5t28.5 69.5t-27.5 69.5t-68.5 28.5t-69.5 -28.5t-28.5 -69.5zM518 805q0 41 37 156l53 163l94 -356h-108 q-76 0 -76 37zM719 1671q0 -41 27.5 -69.5t68.5 -28.5t68.5 28.5t27.5 69.5t-27.5 69.5t-68.5 28.5t-68.5 -28.5t-27.5 -69.5z" />
<glyph unicode="&#xc5;" horiz-adv-x="1263" d="M45 66q0 -70 98 -66h84h193q57 0 57 66q0 43 -67 71q-68 31 -68 74q0 92 113 393q16 41 59 41q20 0 57 -13.5t56 -13.5q51 0 104 52l41 -136q18 -58 29 -98q49 -170 49 -219q0 -51 -65.5 -79.5t-65.5 -71.5q0 -66 55 -66h420q55 0 55 66q0 37 -26 55q-16 6 -30.5 12 t-29.5 14q-39 31 -61 103l-328 1128q-29 96 -127 97q-92 0 -121 -97l-342 -1163q-18 -61 -84 -78q-55 -16 -55 -71zM467 1790q0 -78 52 -126t130 -48q70 0 118 52t48 122q0 78 -51 127t-129 49q-35 0 -65.5 -14.5t-53 -39t-36 -56t-13.5 -66.5zM518 805q0 41 37 156l53 163 l94 -356h-108q-76 0 -76 37zM545 1790q0 43 27.5 70.5t70.5 27.5q41 0 69.5 -28.5t28.5 -69.5t-29.5 -69.5t-70.5 -28.5t-68.5 28.5t-27.5 69.5z" />
<glyph unicode="&#xc6;" horiz-adv-x="1667" d="M80 66q0 -41 18.5 -53.5t61.5 -12.5h284q27 0 46.5 19.5t19.5 46.5q0 59 -55 75q-53 16 -54 43q0 35 15 66l159 354q18 41 66 41q8 0 23 -4l30 -9l31.5 -9.5t26.5 -4.5q43 0 106 52v-420q0 -76 -35 -100q-59 -20 -65 -27q-33 -18 -33 -57q0 -66 57 -66h547q301 0 301 322 q0 100 -59 100q-27 0 -78 -76q-68 -100 -102 -139q-70 -76 -156 -76q-145 0 -145 254v59v15q0 8 2 18v21v67q2 31 2 56v41v163h20q35 0 100 -18q70 -16 101 -16t59.5 12t51 32.5t36 47t13.5 57.5q0 35 -68 45h-96h-109h-26q-16 0 -37 -2h-45v293h180q63 0 110 -49 q12 -14 48 -78q23 -41 51 -41q53 0 53 63q0 31 -6 93.5t-21 158.5q-10 61 -59 62q-51 0 -59 -51h-762q-55 0 -56 -66q0 -57 58 -76q59 -18 59 -35q0 -47 -215 -503l-256 -539q-20 -47 -88 -76q-51 -20 -51 -73zM668 799q0 33 84 211l106 225v-467h-158q-32 2 -32 31z" />
<glyph unicode="&#xc7;" horiz-adv-x="1298" d="M55 705q0 -299 183 -504q182 -201 481 -219q-104 -98 -105 -129q0 -16 23 -17q12 0 34.5 6t35.5 6q45 0 45 -47q0 -49 -60 -71l-104 -19q-23 -10 -23 -14q0 -43 94 -43q86 0 156 39q84 47 84 125q0 43 -36 69.5t-81 26.5l-22 -2l49 65q55 -4 139 9q100 12 142 12 q104 0 98 -2q70 6 69 47q0 14 3.5 44t3.5 44q0 80 -62 80q-31 0 -77 -6t-105 -21q-115 -27 -180 -26q-238 0 -389 194q-135 178 -136 426q0 201 103 359q119 178 311 178q68 0 119 -33q59 -37 59 -102q0 -20 -9 -60.5t-9 -60.5q0 -61 55 -62q31 0 57 33q199 244 199 307 q0 20 -16.5 38t-36.5 18q-12 0 -38 -8.5t-38 -8.5q-227 90 -342 90q-301 0 -493 -233q-181 -219 -181 -528z" />
<glyph unicode="&#xc8;" horiz-adv-x="1021" d="M80 66q0 -66 55 -66h555q297 0 297 319q0 102 -59 103q-33 0 -84 -76q-35 -53 -60.5 -88t-40.5 -51q-70 -76 -153 -76q-147 0 -148 260v62v14q0 8 2 18v21v65q2 31 2 54v41v159h21q31 0 102.5 -16t102.5 -16q29 0 56.5 12t50 32.5t36.5 47t14 55.5q0 35 -67 45h-98h-109 h-27q-16 0 -36 -2h-46v293h115h68q70 -4 110 -49q8 -8 20 -28l27 -50q23 -41 50 -41q53 0 53 61q0 33 -6 95.5t-21 158.5q-10 61 -57 62q-51 0 -60 -51h-610q-55 0 -55 -66q0 -51 65 -70q49 -16 68 -102q8 -33 10 -77t0 -97q-6 -207 -6 -139l-2 -316q-2 -106 -2 -186v-131 q0 -74 -35 -98q-33 -14 -65.5 -30.5t-32.5 -55.5zM272 1743q0 -53 166 -115q150 -55 215 -55q43 0 43 43q0 23 -157 108q-156 88 -195 88q-72 1 -72 -69z" />
<glyph unicode="&#xc9;" horiz-adv-x="1021" d="M80 66q0 -66 55 -66h555q297 0 297 319q0 102 -59 103q-33 0 -84 -76q-35 -53 -60.5 -88t-40.5 -51q-70 -76 -153 -76q-147 0 -148 260v62v14q0 8 2 18v21v65q2 31 2 54v41v159h21q31 0 102.5 -16t102.5 -16q29 0 56.5 12t50 32.5t36.5 47t14 55.5q0 35 -67 45h-98h-109 h-27q-16 0 -36 -2h-46v293h115h68q70 -4 110 -49q8 -8 20 -28l27 -50q23 -41 50 -41q53 0 53 61q0 33 -6 95.5t-21 158.5q-10 61 -57 62q-51 0 -60 -51h-610q-55 0 -55 -66q0 -51 65 -70q49 -16 68 -102q8 -33 10 -77t0 -97q-6 -207 -6 -139l-2 -316q-2 -106 -2 -186v-131 q0 -74 -35 -98q-33 -14 -65.5 -30.5t-32.5 -55.5zM274 1616q0 -43 41 -43q74 0 222 53q164 61 163 121q0 25 -19 45t-44 20q-41 0 -203 -86q-160 -83 -160 -110z" />
<glyph unicode="&#xca;" horiz-adv-x="1021" d="M80 66q0 -66 55 -66h555q297 0 297 319q0 102 -59 103q-33 0 -84 -76q-35 -53 -60.5 -88t-40.5 -51q-70 -76 -153 -76q-147 0 -148 260v62v14q0 8 2 18v21v65q2 31 2 54v41v159h21q31 0 102 -16q76 -16 105 -16t56.5 12t50 32.5t35.5 47t13 55.5q0 35 -67 45h-98h-109 h-27q-16 0 -36 -2h-46v293h115h68q70 -4 110 -49q8 -8 20 -28l27 -50q23 -41 50 -41q53 0 53 61q0 51 -6 114t-21 140q-4 27 -28.5 49.5t-51.5 22.5q-29 0 -37 -61h-610q-55 0 -55 -66q0 -51 65 -70q49 -16 68 -102q8 -33 10 -77t0 -97q-6 -207 -6 -139l-2 -316 q-2 -106 -2 -186v-131q0 -74 -35 -98q-33 -14 -65.5 -30.5t-32.5 -55.5zM268 1610q0 -37 33 -37q12 0 84 47q74 49 119 49q51 0 125 -49q76 -47 80 -47q39 0 39 39q0 25 -80 104q-74 80 -103 84q-12 2 -28 2h-31q-80 0 -131 -51l-43 -51l-53 -64q-11 -14 -11 -26z" />
<glyph unicode="&#xcb;" horiz-adv-x="1021" d="M80 66q0 -66 55 -66h555q297 0 297 319q0 102 -59 103q-33 0 -84 -76q-35 -53 -60.5 -88t-40.5 -51q-70 -76 -153 -76q-147 0 -148 260v62v14q0 8 2 18v21v65q2 31 2 54v41v159h21q31 0 102.5 -16t102.5 -16q29 0 56.5 12t50 32.5t36.5 47t14 55.5q0 35 -67 45h-98h-109 h-27q-16 0 -36 -2h-46v293h115h68q70 -4 110 -49q8 -8 20 -28l27 -50q23 -41 50 -41q53 0 53 61q0 33 -6 95.5t-21 158.5q-10 61 -57 62q-51 0 -60 -51h-610q-55 0 -55 -66q0 -51 65 -70q49 -16 68 -102q8 -33 10 -77t0 -97q-6 -207 -6 -139l-2 -316q-2 -106 -2 -186v-131 q0 -74 -35 -98q-33 -14 -65.5 -30.5t-32.5 -55.5zM248 1671q0 -41 27.5 -69.5t68.5 -28.5t68.5 28.5t27.5 69.5t-26.5 69.5t-67.5 28.5q-43 0 -70.5 -27.5t-27.5 -70.5zM555 1671q0 -41 27.5 -69.5t68.5 -28.5t69 28.5t28 69.5t-28 69.5t-69 28.5t-68.5 -28.5t-27.5 -69.5z " />
<glyph unicode="&#xcc;" horiz-adv-x="620" d="M80 66q0 -66 55 -66h389q55 0 56 66q0 41 -65.5 69.5t-68.5 93.5q-2 35 -3 114t-1 208l2 317q-2 53 -2 109v108q2 174 39 199l66 25q33 12 33 59q0 66 -56 66h-389q-55 0 -55 -66q0 -43 63 -68q68 -25 70 -94q2 -35 3 -114.5t1 -208.5l-2 -316q-2 -106 -2 -186v-131 q0 -74 -35 -98q-33 -14 -65.5 -30.5t-32.5 -55.5zM137 1743q0 -53 166 -115q150 -55 215 -55q45 0 45 43q0 25 -157.5 110.5t-194.5 85.5q-74 1 -74 -69z" />
<glyph unicode="&#xcd;" horiz-adv-x="620" d="M78 1616q0 -43 41 -43q74 0 221 53q164 61 164 121q0 27 -18.5 46t-45.5 19q-41 0 -202 -86q-160 -83 -160 -110zM80 66q0 -66 55 -66h389q55 0 56 66q0 41 -65.5 69.5t-68.5 93.5q-2 35 -3 114t-1 208l2 317q-2 53 -2 109v108q2 174 39 199l66 25q33 12 33 59 q0 66 -56 66h-389q-55 0 -55 -66q0 -43 63 -68q68 -25 70 -94q2 -35 3 -114.5t1 -208.5l-2 -316q-2 -106 -2 -186v-131q0 -74 -35 -98q-33 -14 -65.5 -30.5t-32.5 -55.5z" />
<glyph unicode="&#xce;" horiz-adv-x="620" d="M80 66q0 -66 55 -66h389q55 0 56 66q0 41 -65.5 69.5t-68.5 93.5q-2 35 -3 114t-1 208l2 317q-2 53 -2 109v108q2 174 39 199l66 25q33 12 33 59q0 66 -56 66h-389q-55 0 -55 -66q0 -43 63 -68q68 -25 70 -94q2 -35 3 -114.5t1 -208.5l-2 -316q-2 -106 -2 -186v-131 q0 -74 -35 -98q-33 -14 -65.5 -30.5t-32.5 -55.5zM92 1610q0 -37 33 -37q12 0 84 47q74 49 119 49q51 0 125 -49q76 -47 79 -47q39 0 39 39q0 25 -79 104q-74 80 -103 84q-12 2 -29 2h-30q-80 0 -131 -51l-43 -51l-54 -64q-10 -14 -10 -26z" />
<glyph unicode="&#xcf;" horiz-adv-x="620" d="M80 66q0 -66 55 -66h389q55 0 56 66q0 41 -65.5 69.5t-68.5 93.5q-2 35 -3 114t-1 208l2 317q-2 53 -2 109v108q2 174 39 199l66 25q33 12 33 59q0 66 -56 66h-389q-55 0 -55 -66q0 -43 63 -68q68 -25 70 -94q2 -35 3 -114.5t1 -208.5l-2 -316q-2 -106 -2 -186v-131 q0 -74 -35 -98q-33 -14 -65.5 -30.5t-32.5 -55.5zM84 1671q0 -41 27.5 -69.5t68.5 -28.5t68.5 28.5t27.5 69.5t-26.5 69.5t-67.5 28.5q-43 0 -70.5 -27.5t-27.5 -70.5zM391 1671q0 -41 27.5 -69.5t68.5 -28.5t69 28.5t28 69.5t-28 69.5t-69 28.5t-68.5 -28.5t-27.5 -69.5z " />
<glyph unicode="&#xd1;" horiz-adv-x="1161" d="M78 66q0 -66 55 -66h344q55 0 55 66q0 51 -63 71q-47 16 -66 86q-12 55 -10 142q2 113 3 142.5t1 -24.5l2 246q2 82 2 143v103l316 -256q63 -51 80 -121q6 -31 6 -147v-152q0 -41 2 -14q-2 -117 -45 -140l-62 -24q-31 -12 -30 -55q0 -66 55 -66h342q55 0 55 66 q0 51 -63 71q-49 16 -68 103q-8 33 -10 76.5t0 97.5q6 203 6 137l2 317q-2 53 -2 109v108q2 174 39 199q33 12 64.5 27.5t31.5 56.5q0 66 -55 66h-342q-55 0 -55 -66q0 -43 63 -70q68 -25 70 -92q2 -27 2 -51v-47l-2 -180l-155 129l-50 43q-168 143 -168 164q0 16 51 36 q53 23 53 68q0 66 -55 66h-344q-55 0 -55 -66q0 -51 65 -70q49 -16 68 -104q8 -33 10 -76t0 -98q-6 -203 -6 -137l-2 -316q-2 -106 -2 -186v-131q0 -74 -35 -98q-33 -14 -65.5 -30.5t-32.5 -55.5zM348 1618q0 -45 45 -45q14 0 55 22.5t64 22.5q27 0 80 -19q51 -18 82 -18 q55 0 112 33q68 37 68 86q0 47 -47 47q-10 0 -55 -23q-41 -23 -74 -22q-20 0 -69.5 18.5t-76.5 18.5q-59 0 -116 -31q-68 -35 -68 -90z" />
<glyph unicode="&#xd2;" horiz-adv-x="1617" d="M72 721q0 -313 219 -539q221 -221 534 -221q315 0 535 221q221 221 221 537q0 315 -219 538q-217 223 -535 224q-315 0 -536 -221q-219 -224 -219 -539zM340 758q0 227 113 383q127 176 344 176q242 0 387 -201q129 -182 129 -432q0 -219 -117 -379q-133 -176 -342 -176 q-240 0 -385 201q-129 180 -129 428zM616 1743q0 -53 164 -115q150 -55 217 -55q45 0 45 43q0 25 -157.5 110.5t-196.5 85.5q-72 1 -72 -69z" />
<glyph unicode="&#xd3;" horiz-adv-x="1617" d="M72 721q0 -313 219 -539q221 -221 534 -221q315 0 535 221q221 221 221 537q0 315 -219 538q-217 223 -535 224q-315 0 -536 -221q-219 -224 -219 -539zM340 758q0 227 113 383q127 176 344 176q242 0 387 -201q129 -182 129 -432q0 -219 -117 -379q-133 -176 -342 -176 q-240 0 -385 201q-129 180 -129 428zM602 1616q0 -43 41 -43q47 0 182 45l81 27q30 10 40 14q82 39 82 88q0 27 -18.5 46t-44.5 19q-43 0 -203 -86q-160 -83 -160 -110z" />
<glyph unicode="&#xd4;" horiz-adv-x="1617" d="M72 721q0 -313 219 -539q221 -221 534 -221q315 0 535 221q221 221 221 537q0 315 -219 538q-217 223 -535 224q-315 0 -536 -221q-219 -224 -219 -539zM340 758q0 227 113 383q127 176 344 176q242 0 387 -201q129 -182 129 -432q0 -219 -117 -379q-133 -176 -342 -176 q-240 0 -385 201q-129 180 -129 428zM588 1610q0 -37 33 -37q12 0 84 47q74 49 118 49q51 0 125 -49q78 -47 82 -47q37 0 37 39q0 23 -78 104q-74 80 -102 84q-12 2 -29 2h-33q-78 0 -131 -51l-44 -53l-52 -62q-10 -14 -10 -26z" />
<glyph unicode="&#xd5;" horiz-adv-x="1617" d="M72 721q0 -313 219 -539q221 -221 534 -221q315 0 535 221q221 221 221 537q0 315 -219 538q-217 223 -535 224q-315 0 -536 -221q-219 -224 -219 -539zM340 758q0 227 113 383q127 176 344 176q242 0 387 -201q129 -182 129 -432q0 -219 -117 -379q-133 -176 -342 -176 q-240 0 -385 201q-129 180 -129 428zM549 1618q0 -45 45 -45q14 0 53 22q41 23 64 23q29 0 82 -19q51 -18 79 -18q55 0 113 33q70 37 70 86q0 47 -47 47q-10 0 -56 -23q-41 -23 -73 -22q-23 0 -72 18.5t-74 18.5q-59 0 -117 -31q-67 -35 -67 -90z" />
<glyph unicode="&#xd6;" horiz-adv-x="1617" d="M72 721q0 -313 219 -539q221 -221 534 -221q315 0 535 221q221 221 221 537q0 315 -219 538q-217 223 -535 224q-315 0 -536 -221q-219 -224 -219 -539zM340 758q0 227 113 383q127 176 344 176q242 0 387 -201q129 -182 129 -432q0 -219 -117 -379q-133 -176 -342 -176 q-240 0 -385 201q-129 180 -129 428zM592 1671q0 -41 27.5 -69.5t68.5 -28.5t68.5 28.5t27.5 69.5t-26.5 69.5t-67.5 28.5t-69.5 -28.5t-28.5 -69.5zM901 1671q0 -41 27.5 -69.5t68.5 -28.5t69 28.5t28 69.5t-28 69.5t-69 28.5t-68.5 -28.5t-27.5 -69.5z" />
<glyph unicode="&#xd8;" horiz-adv-x="1617" d="M72 721q0 -178 76.5 -336t218.5 -268q-78 -131 -78 -168q0 -35 27.5 -64.5t62.5 -29.5q55 0 98 59q29 55 60 106q137 -59 288 -59q315 0 535 221q221 221 221 537q0 180 -77 340t-218 266q82 137 82 172t-28.5 64.5t-63.5 29.5q-61 0 -98 -59l-35 -63l-25 -46 q-129 57 -289 58q-317 0 -538 -221q-219 -224 -219 -539zM340 758q0 227 111 385q125 174 346 174q127 0 227 -57l-543 -949q-141 181 -141 447zM631 186l543 944q139 -182 139 -446q0 -221 -119 -379q-129 -176 -342 -176q-121 0 -221 57z" />
<glyph unicode="&#xd9;" horiz-adv-x="1067" d="M63 356q0 -143 97 -245q98 -100 243 -111q29 -2 78 -2h121h78q47 0 111 2q35 -2 71 -2q37 0 74 -2q94 6 94 70q0 51 -63 71q-49 14 -68 105q-8 33 -10 75.5t0 98.5q6 203 6 137l2 315q-2 53 -2 107v108q2 174 37 199q57 20 63 27q29 18 29 59q0 66 -57 66h-373 q-55 0 -55 -66q0 -41 59 -70q63 -25 66 -92q6 -111 6 -352l-2 -344q-2 -117 -2 -203v-141l-86 -2q-111 -2 -187 53q-82 57 -82 170q0 41 2 49l150 883q2 8 2 33q0 63 -57 78q-23 6 -107 6h-14q-8 2 -17 2h-10h-51q-139 0 -139 -70q0 -49 65 -78q68 -29 68 -57l-133 -801 q-7 -37 -7 -76zM307 1743q0 -53 166 -115q147 -55 215 -55q45 0 45 45q0 23 -160 108q-158 86 -194 86q-72 1 -72 -69z" />
<glyph unicode="&#xda;" horiz-adv-x="1067" d="M63 356q0 -143 97 -245q98 -100 243 -111q29 -2 78 -2h121h78q47 0 111 2q35 -2 71 -2q37 0 74 -2q94 6 94 70q0 51 -63 71q-49 14 -68 105q-8 33 -10 75.5t0 98.5q6 203 6 137l2 315q-2 53 -2 107v108q2 174 37 199q57 20 63 27q29 18 29 59q0 66 -57 66h-373 q-55 0 -55 -66q0 -41 59 -70q63 -25 66 -92q6 -111 6 -352l-2 -344q-2 -117 -2 -203v-141l-86 -2q-111 -2 -187 53q-82 57 -82 170q0 41 2 49l150 883q2 8 2 33q0 63 -57 78q-23 6 -107 6h-14q-8 2 -17 2h-10h-51q-139 0 -139 -70q0 -49 65 -78q68 -29 68 -57l-133 -801 q-7 -37 -7 -76zM330 1612q0 -39 41 -39q47 0 182 45l81 27q30 10 40 14q80 37 80 86q0 27 -18.5 47t-45.5 20q-45 0 -202.5 -83.5t-157.5 -116.5z" />
<glyph unicode="&#xdb;" horiz-adv-x="1067" d="M63 356q0 -143 97 -245q98 -100 243 -111q29 -2 78 -2h121h78q47 0 111 2q35 -2 71 -2q37 0 74 -2q94 6 94 70q0 51 -63 71q-49 14 -68 105q-8 33 -10 75.5t0 98.5q6 203 6 137l2 315q-2 53 -2 107v108q2 174 37 199q57 20 63 27q29 18 29 59q0 66 -57 66h-373 q-55 0 -55 -66q0 -41 59 -70q63 -25 66 -92q6 -111 6 -352l-2 -344q-2 -117 -2 -203v-141l-86 -2q-111 -2 -187 53q-82 57 -82 170q0 41 2 49l150 883q2 8 2 33q0 63 -57 78q-23 6 -107 6h-14q-8 2 -17 2h-10h-51q-139 0 -139 -70q0 -49 65 -78q68 -29 68 -57l-133 -801 q-7 -37 -7 -76zM287 1610q0 -37 32 -37q12 0 84 47q74 49 119 49q51 0 125 -49q76 -47 80 -47q39 0 39 39q0 25 -80 104q-74 80 -102 84q-12 2 -29 2h-31q-80 0 -131 -51l-43 -51l-53 -64q-10 -14 -10 -26z" />
<glyph unicode="&#xdc;" horiz-adv-x="1067" d="M63 356q0 -143 97 -245q98 -100 243 -111q29 -2 78 -2h121h78q47 0 111 2q35 -2 71 -2q37 0 74 -2q94 6 94 70q0 51 -63 71q-49 14 -68 105q-8 33 -10 75.5t0 98.5q6 203 6 137l2 315q-2 53 -2 107v108q2 174 37 199q57 20 63 27q29 18 29 59q0 66 -57 66h-373 q-55 0 -55 -66q0 -41 59 -70q63 -25 66 -92q6 -111 6 -352l-2 -344q-2 -117 -2 -203v-141l-86 -2q-111 -2 -187 53q-82 57 -82 170q0 41 2 49l150 883q2 8 2 33q0 63 -57 78q-23 6 -107 6h-14q-8 2 -17 2h-10h-51q-139 0 -139 -70q0 -49 65 -78q68 -29 68 -57l-133 -801 q-7 -37 -7 -76zM285 1671q0 -41 27.5 -69.5t68.5 -28.5t68.5 28.5t27.5 69.5t-27.5 69.5t-68.5 28.5t-68.5 -28.5t-27.5 -69.5zM590 1671q0 -41 27.5 -69.5t68.5 -28.5t68.5 28.5t27.5 69.5t-26.5 69.5t-67.5 28.5t-69.5 -28.5t-28.5 -69.5z" />
<glyph unicode="&#xdd;" horiz-adv-x="1136" d="M813 1643q0 -39 47 -39t176 45l80 27q31 10 41 14q80 39 80 88q0 25 -19.5 45t-44.5 20q-43 0 -203 -86q-157 -85 -157 -114zM70 1368q0 -35 59 -82q74 -59 98 -104l312 -600q-195 -315 -195 -443q0 -94 94 -125q49 -14 172 -14h15q8 -2 24 -2h51q152 0 152 68 q0 43 -70 67q-4 2 -31 9l-75 20q-61 27 -62 88q0 94 125 305l137 227l97 162q125 217 125 367q0 86 -51 110q-29 12 -129 13h-13q-8 2 -22 2h-45q-119 0 -119 -62q0 -51 69 -78q72 -29 72 -84q0 -96 -61 -213l-119 -190l-56 104l-65 125q-96 186 -96 213q0 25 55 47 q55 20 55 70q0 66 -57 66h-389q-57 0 -57 -66z" />
<glyph unicode="&#xdf;" horiz-adv-x="878" d="M113 53q0 -53 55 -53h174q55 0 55 53v1127q0 147 95 147q82 0 81 -125q0 -70 -65 -205q-63 -129 -64 -202q0 -102 117 -354.5t117 -348.5q0 -92 -115 -92h-76q-47 -6 -47 -43v-109q0 -25 -2 15q2 -74 33 -74q2 0 61.5 53.5t106.5 71.5q53 20 87 37.5t50 32.5 q68 55 68 161t-121 371q-119 258 -119 367q0 25 64 145q66 127 65 209q0 98 -65.5 157.5t-163.5 59.5q-117 0 -201 -78q-80 -78 -80 -192v-1020q0 -37 -55 -55q-55 -17 -55 -56z" />
<glyph unicode="&#xe0;" horiz-adv-x="784" d="M68 262q0 -162 116 -219q86 -43 260 -43h127h109q72 4 72 53q0 39 -56 56q-53 16 -53 55l4 371q2 115 1 208t-5 164q-2 57 -39 92t-94 35q-18 0 -45 -10q2 6 2 16q0 53 -43 54q-35 0 -115 -98.5t-80 -135.5q0 -45 47 -45q27 0 78 41q51 43 84 43q47 0 47 -53 q0 -35 -155 -203l-114 -121l-83 -86q-65 -72 -65 -174zM217 1356q0 -55 164 -115q147 -53 215 -53q45 0 45 43q0 23 -158 108q-156 88 -194 88q-72 1 -72 -71zM260 287q0 76 82 164l125 131v-441h-43q-164 1 -164 146z" />
<glyph unicode="&#xe1;" horiz-adv-x="784" d="M68 262q0 -162 116 -219q86 -43 260 -43h127h109q72 4 72 53q0 39 -56 56q-53 16 -53 55l4 371q2 115 1 208t-5 164q-2 57 -39 92t-94 35q-18 0 -45 -10q2 6 2 16q0 53 -43 54q-35 0 -115 -98.5t-80 -135.5q0 -45 47 -45q27 0 78 41q51 43 84 43q47 0 47 -53 q0 -35 -155 -203l-114 -121l-83 -86q-65 -72 -65 -174zM184 1231q0 -43 47 -43q45 0 179 45l80 27q30 10 38 14q80 37 80 88q0 27 -17.5 46t-43.5 19q-43 0 -203 -86q-160 -83 -160 -110zM260 287q0 76 82 164l125 131v-441h-43q-164 1 -164 146z" />
<glyph unicode="&#xe2;" horiz-adv-x="784" d="M68 262q0 -162 116 -219q86 -43 260 -43h127h109q72 4 72 53q0 39 -56 56q-53 16 -53 55l4 371q2 115 1 208t-5 164q-2 57 -39 92t-94 35q-18 0 -45 -10q2 6 2 16q0 53 -43 54q-35 0 -115 -98.5t-80 -135.5q0 -45 47 -45q27 0 78 41q51 43 84 43q47 0 47 -53 q0 -35 -155 -203l-114 -121l-83 -86q-65 -72 -65 -174zM190 1223q0 -35 31 -35q16 0 88 47q70 49 117 49q51 0 123 -49q76 -47 84 -47q37 0 37 37q0 20 -78 104q-76 82 -103 86h-40q-100 0 -136 -33l-112 -131q-11 -14 -11 -28zM260 287q0 76 82 164l125 131v-441h-43 q-164 1 -164 146z" />
<glyph unicode="&#xe3;" horiz-adv-x="784" d="M68 262q0 -162 116 -219q86 -43 260 -43h127h109q72 4 72 53q0 39 -56 56q-53 16 -53 55l4 371q2 115 1 208t-5 164q-2 57 -39 92t-94 35q-18 0 -45 -10q2 6 2 16q0 53 -43 54q-35 0 -115 -98.5t-80 -135.5q0 -45 47 -45q27 0 78 41q51 43 84 43q47 0 47 -53 q0 -35 -155 -203l-114 -121l-83 -86q-65 -72 -65 -174zM174 1235q0 -47 49 -47q14 0 53 22.5t62 22.5q27 0 80 -19q51 -18 82 -18q57 0 114 33q68 37 68 88q0 45 -45 45q-10 0 -55 -23q-41 -23 -76 -22q-23 0 -72 18.5t-74 18.5q-59 0 -116 -31q-70 -37 -70 -88zM260 287 q0 76 82 164l125 131v-441h-43q-164 1 -164 146z" />
<glyph unicode="&#xe4;" horiz-adv-x="784" d="M68 262q0 -162 116 -219q86 -43 260 -43h127h109q72 4 72 53q0 39 -56 56q-53 16 -53 55l4 371q2 115 1 208t-5 164q-2 57 -39 92t-94 35q-18 0 -45 -10q2 6 2 16q0 53 -43 54q-35 0 -115 -98.5t-80 -135.5q0 -45 47 -45q27 0 78 41q51 43 84 43q47 0 47 -53 q0 -35 -155 -203l-114 -121l-83 -86q-65 -72 -65 -174zM195 1288q0 -41 27.5 -70.5t68.5 -29.5q43 0 69.5 28.5t26.5 71.5q0 41 -27.5 69.5t-68.5 28.5t-68.5 -28.5t-27.5 -69.5zM260 287q0 76 82 164l125 131v-441h-43q-164 1 -164 146zM502 1288q0 -41 27.5 -69.5 t68.5 -28.5q43 0 69.5 27.5t26.5 70.5q0 41 -27.5 69.5t-68.5 28.5t-68.5 -28.5t-27.5 -69.5z" />
<glyph unicode="&#xe5;" horiz-adv-x="784" d="M68 262q0 -162 116 -219q86 -43 260 -43h127h109q72 4 72 53q0 39 -56 56q-53 16 -53 55l4 371q2 115 1 208t-5 164q-2 57 -39 92t-94 35q-18 0 -45 -10q2 6 2 16q0 53 -43 54q-35 0 -115 -98.5t-80 -135.5q0 -45 47 -45q27 0 78 41q51 43 84 43q47 0 47 -53 q0 -35 -155 -203l-114 -121l-83 -86q-65 -72 -65 -174zM260 287q0 76 82 164l125 131v-441h-43q-164 1 -164 146zM289 1362q0 -74 51 -124t125 -50q72 0 121 51t49 123q0 78 -51.5 126t-128.5 48q-70 0 -118 -52t-48 -122zM365 1362q0 41 28.5 69.5t69.5 28.5t69.5 -28.5 t28.5 -69.5t-29.5 -69.5t-70.5 -28.5t-68.5 28.5t-27.5 69.5z" />
<glyph unicode="&#xe6;" horiz-adv-x="1574" d="M72 262q0 -123 72.5 -198.5t195.5 -75.5q156 0 311 102q143 -121 400 -121q98 0 211.5 8.5t246.5 24.5q33 2 33 37v76q0 23 2 8q-4 59 -41 59q-12 0 -86 -24l-65 -20q-25 -7 -35 -9q-55 -10 -107.5 -15t-103.5 -5q-193 0 -313 112q-121 115 -121 303q0 61 8 101l690 -2 q115 0 115 84q0 12 -8 30q-59 154 -187.5 241t-290.5 87q-207 0 -358 -145q0 43 -38 78.5t-81 35.5q-33 0 -57 -10q2 6 2 16q0 53 -43 54q-33 0 -115 -101q-80 -98 -80 -133q0 -45 47 -45q23 0 76 41q51 43 86 43q47 0 47 -53q0 -35 -155 -203l-195 -205q-63 -65 -63 -176z M260 281q0 84 76 165l76 79l55 57q-2 -16 -3 -35t-1 -35q0 -174 86 -309q-92 -61 -146 -62q-59 0 -101 40.5t-42 99.5zM723 764q20 61 100 113q76 49 150 49q86 0 161.5 -44t112.5 -118h-524z" />
<glyph unicode="&#xe7;" horiz-adv-x="1138" d="M70 514q0 -231 141 -380.5t369 -162.5q-104 -98 -105 -131q0 -14 21 -14q12 0 35.5 6t35.5 6q45 0 45 -47q0 -51 -57 -70q-27 -4 -51.5 -9t-48.5 -9q-29 -10 -29 -16q0 -45 94 -45q78 0 154 41q86 45 86 120q0 45 -35 72t-82 27q-6 0 -12 -2h-13l54 71q121 4 217 11.5 t170 21.5q33 6 33 37v76q0 23 2 8q-4 59 -41 59q-35 0 -160 -37q-127 -37 -193 -36q-197 0 -313 131q-109 127 -108 325q0 152 92 260.5t241 108.5q66 0 131 -37q72 -41 72 -106q0 -70 -2 -62q6 -39 39 -39t96 82q68 82 68 117q0 80 -164 133q-129 41 -234 41 q-236 0 -393 -158q-155 -155 -155 -393z" />
<glyph unicode="&#xe8;" horiz-adv-x="1193" d="M72 510q0 -252 159 -395q158 -143 414 -144q35 0 95 3l147 8q94 4 150.5 10t78.5 10q37 8 37 70q0 111 -41 110q-14 0 -88 -22q-80 -29 -98 -31q-102 -20 -211 -20q-195 0 -316 112q-121 115 -120 303q0 23 3 47.5t7 53.5h688q113 0 113 77q0 18 -7 35q-59 154 -187 241 t-290 87q-223 0 -379 -166q-155 -162 -155 -389zM328 764q25 61 102 113q80 49 150 49q84 0 161.5 -44t112.5 -118h-526zM381 1358q0 -55 164 -117q147 -53 215 -53q45 0 45 45q0 23 -158 108.5t-194 85.5q-72 1 -72 -69z" />
<glyph unicode="&#xe9;" horiz-adv-x="1193" d="M72 510q0 -252 159 -395q158 -143 414 -144q35 0 95 3l147 8q94 4 150.5 10t78.5 10q37 8 37 70q0 111 -41 110q-14 0 -88 -22q-80 -29 -98 -31q-102 -20 -211 -20q-195 0 -316 112q-121 115 -120 303q0 23 3 47.5t7 53.5h688q113 0 113 77q0 18 -7 35q-59 154 -187 241 t-290 87q-223 0 -379 -166q-155 -162 -155 -389zM328 764q25 61 102 113q80 49 150 49q84 0 161.5 -44t112.5 -118h-526zM401 1231q0 -43 50 -43q47 0 176 45l80 27q31 10 41 14q80 39 79 88q0 27 -18 46t-45 19q-41 0 -203 -86q-160 -83 -160 -110z" />
<glyph unicode="&#xea;" horiz-adv-x="1193" d="M72 510q0 -252 159 -395q158 -143 414 -144q35 0 95 3l147 8q94 4 150.5 10t78.5 10q37 8 37 70q0 111 -41 110q-14 0 -88 -22q-80 -29 -98 -31q-102 -20 -211 -20q-195 0 -316 112q-121 115 -120 303q0 23 3 47.5t7 53.5h688q113 0 113 77q0 18 -7 35q-59 154 -187 241 t-290 87q-223 0 -379 -166q-155 -162 -155 -389zM328 764q25 61 102 113q80 49 150 49q84 0 161.5 -44t112.5 -118h-526zM352 1225q0 -37 35 -37q12 0 84 47q70 49 119 49q51 0 123 -49q76 -47 80 -47q41 0 41 39q0 23 -80 106q-80 82 -103 82h-39q-100 0 -135 -33l-66 -76 l-46 -55q-13 -16 -13 -26z" />
<glyph unicode="&#xeb;" horiz-adv-x="1193" d="M72 510q0 -252 159 -395q158 -143 414 -144q35 0 95 3l147 8q94 4 150.5 10t78.5 10q37 8 37 70q0 111 -41 110q-14 0 -88 -22q-80 -29 -98 -31q-102 -20 -211 -20q-195 0 -316 112q-121 115 -120 303q0 23 3 47.5t7 53.5h688q113 0 113 77q0 18 -7 35q-59 154 -187 241 t-290 87q-223 0 -379 -166q-155 -162 -155 -389zM328 764q25 61 102 113q80 49 150 49q84 0 161.5 -44t112.5 -118h-526zM340 1288q0 -41 27.5 -70.5t68.5 -29.5t68.5 29.5t27.5 70.5t-27.5 69.5t-68.5 28.5t-68.5 -28.5t-27.5 -69.5zM647 1288q0 -41 27.5 -70.5t68.5 -29.5 q43 0 71 28.5t28 71.5q0 41 -29 69.5t-70 28.5t-68.5 -28.5t-27.5 -69.5z" />
<glyph unicode="&#xec;" horiz-adv-x="514" d="M-37 1358q0 -55 162 -117q147 -53 217 -53q45 0 45 43q0 25 -157.5 110.5t-194.5 85.5q-72 1 -72 -69zM78 53q0 -45 57 -53h90h15q8 -2 14 -2h14h56q147 0 147 55q0 39 -55 56q-53 18 -54 55v864q0 49 -47 49q-35 0 -133 -120.5t-98 -157.5q0 -16 15.5 -31.5t31.5 -15.5 q14 0 57 36v-624q0 -37 -55 -55q-55 -17 -55 -56z" />
<glyph unicode="&#xed;" horiz-adv-x="514" d="M76 1227q0 -39 47 -39t176 45l80 27q31 10 41 14q80 39 80 88q0 25 -19.5 45t-44.5 20q-43 0 -203 -86q-157 -85 -157 -114zM78 53q0 -45 57 -53h90h15q8 -2 14 -2h14h56q147 0 147 55q0 39 -55 56q-53 18 -54 55v864q0 49 -47 49q-35 0 -133 -120.5t-98 -157.5 q0 -16 15.5 -31.5t31.5 -15.5q14 0 57 36v-624q0 -37 -55 -55q-55 -17 -55 -56z" />
<glyph unicode="&#xee;" horiz-adv-x="514" d="M25 1223q0 -35 32 -35q16 0 88 47q70 49 119 49q47 0 121 -49q76 -47 82 -47q39 0 39 39q0 23 -80 106q-80 82 -102 82h-39q-100 0 -135 -33l-67 -76l-46 -55q-12 -16 -12 -28zM78 53q0 -45 57 -53h90h15q8 -2 14 -2h14h56q147 0 147 55q0 39 -55 56q-53 18 -54 55v864 q0 49 -47 49q-35 0 -133 -120.5t-98 -157.5q0 -16 15.5 -31.5t31.5 -15.5q14 0 57 36v-624q0 -37 -55 -55q-55 -17 -55 -56z" />
<glyph unicode="&#xef;" horiz-adv-x="514" d="M12 1288q0 -41 28 -70.5t69 -29.5q43 0 70.5 28.5t27.5 71.5q0 41 -27.5 69.5t-68.5 28.5t-70 -28.5t-29 -69.5zM78 53q0 -45 57 -53h90h15q8 -2 14 -2h14h56q147 0 147 55q0 39 -55 56q-53 18 -54 55v864q0 49 -47 49q-35 0 -133 -120.5t-98 -157.5q0 -16 15.5 -31.5 t31.5 -15.5q14 0 57 36v-624q0 -37 -55 -55q-55 -17 -55 -56zM319 1288q0 -41 28 -70.5t69 -29.5t68.5 29.5t27.5 70.5t-27.5 69.5t-68.5 28.5t-69 -28.5t-28 -69.5z" />
<glyph unicode="&#xf1;" d="M78 53q0 -53 55 -53h283q55 0 55 53q0 39 -55 56q-53 18 -54 55v665q0 35 24 60.5t58 25.5q80 0 88 -69l58 -352q43 -264 43 -334q0 -33 -53.5 -51.5t-53.5 -55.5q0 -45 58 -53h92h14q8 -2 15 -2h14h55q147 0 148 55q0 37 -56 56q-53 23 -59 61l-111 743 q-10 63 -58 106.5t-114 43.5q-63 0 -162 -62q0 76 -51 76q-31 0 -129 -123q-98 -121 -98 -155q0 -16 15.5 -31.5t31.5 -15.5q10 0 57 36v-624q0 -37 -55 -55q-55 -17 -55 -56zM193 1235q0 -47 49 -47q14 0 53 22.5t61 22.5q29 0 82 -19q51 -18 80 -18q57 0 115 33 q68 37 67 88q0 45 -45 45q-10 0 -55 -22.5t-76 -22.5q-23 0 -72 18.5t-73 18.5q-59 0 -117 -31q-69 -33 -69 -88z" />
<glyph unicode="&#xf2;" horiz-adv-x="1220" d="M70 514q0 -231 161.5 -393t391.5 -162q229 0 393 160q162 162 162 393t-162 393q-160 164 -391 164t-393 -162t-162 -393zM285 551q0 160 75 260q86 117 238 117q184 0 283 -146q86 -127 86 -317q0 -152 -84 -258q-92 -113 -242 -113q-178 0 -274 146q-82 125 -82 311z M401 1358q0 -55 164 -117q147 -53 217 -53q45 0 45 45q0 23 -159 108q-158 86 -195 86q-72 1 -72 -69z" />
<glyph unicode="&#xf3;" horiz-adv-x="1220" d="M70 514q0 -231 161.5 -393t391.5 -162q229 0 393 160q162 162 162 393t-162 393q-160 164 -391 164t-393 -162t-162 -393zM285 551q0 160 75 260q86 117 238 117q184 0 283 -146q86 -127 86 -317q0 -152 -84 -258q-92 -113 -242 -113q-178 0 -274 146q-82 125 -82 311z M440 1231q0 -43 47 -43q45 0 179 45l80 27q30 10 38 14q80 37 80 88q0 27 -17.5 46t-43.5 19q-43 0 -203 -86q-160 -83 -160 -110z" />
<glyph unicode="&#xf4;" horiz-adv-x="1220" d="M70 514q0 -231 161.5 -393t391.5 -162q229 0 393 160q162 162 162 393t-162 393q-160 164 -391 164t-393 -162t-162 -393zM285 551q0 160 75 260q86 117 238 117q184 0 283 -146q86 -127 86 -317q0 -152 -84 -258q-92 -113 -242 -113q-178 0 -274 146q-82 125 -82 311z M362 1223q0 -35 33 -35q16 0 88 47q70 49 119 49q47 0 121 -49q78 -47 84 -47q37 0 37 39q0 18 -80 102q-76 82 -100 86h-41q-100 0 -136 -33l-66 -76l-46 -55q-13 -16 -13 -28z" />
<glyph unicode="&#xf5;" horiz-adv-x="1220" d="M70 514q0 -231 161.5 -393t391.5 -162q229 0 393 160q162 162 162 393t-162 393q-160 164 -391 164t-393 -162t-162 -393zM285 551q0 160 75 260q86 117 238 117q184 0 283 -146q86 -127 86 -317q0 -152 -84 -258q-92 -113 -242 -113q-178 0 -274 146q-82 125 -82 311z M338 1233q0 -45 49 -45q14 0 53 22.5t62 22.5q27 0 80 -19q51 -18 82 -18q57 0 114 33q68 37 68 88q0 45 -45 45q-14 0 -55 -22.5t-76 -22.5q-23 0 -72 18.5t-74 18.5q-59 0 -116 -33q-70 -37 -70 -88z" />
<glyph unicode="&#xf6;" horiz-adv-x="1220" d="M70 514q0 -231 161.5 -393t391.5 -162q229 0 393 160q162 162 162 393t-162 393q-160 164 -391 164t-393 -162t-162 -393zM285 551q0 160 75 260q86 117 238 117q184 0 283 -146q86 -127 86 -317q0 -152 -84 -258q-92 -113 -242 -113q-178 0 -274 146q-82 125 -82 311z M350 1288q0 -41 28 -70.5t68 -29.5q43 0 71 28.5t28 71.5q0 41 -28 69.5t-68 28.5q-41 0 -70 -28.5t-29 -69.5zM659 1288q0 -41 28 -70.5t69 -29.5t67.5 29.5t26.5 70.5t-26.5 69.5t-67.5 28.5t-69 -28.5t-28 -69.5z" />
<glyph unicode="&#xf7;" horiz-adv-x="1042" d="M86 94q0 -39 28.5 -66.5t67.5 -27.5q61 0 86 51l239 506l171 361q350 745 350 798q0 39 -29.5 66.5t-68.5 27.5q-59 0 -86 -57l-406 -864q-352 -750 -352 -795z" />
<glyph unicode="&#xf8;" horiz-adv-x="1220" d="M70 514q0 -274 215 -440q-68 -102 -68 -137q0 -27 19.5 -48.5t46.5 -21.5q47 0 77 49l28 49l20 35q104 -41 213 -41q229 0 393 160q164 164 164 393q0 276 -222 446q70 119 70 142q0 27 -21.5 48t-48.5 21q-47 0 -77 -51l-29 -50l-21 -38q-92 39 -204 39 q-231 0 -393 -162t-162 -393zM285 549q0 160 75 262q82 117 236 117q84 0 158 -33l-383 -666q-86 125 -86 320zM485 129l381 674q100 -131 101 -340q0 -154 -86 -258q-90 -111 -242 -111q-78 0 -154 35z" />
<glyph unicode="&#xf9;" horiz-adv-x="886" d="M74 948q0 -49 59.5 -71.5t59.5 -40.5q0 -92 -41 -287t-41 -287q0 -164 125 -225q80 -39 266 -39h57q37 0 84 2h57q31 0 60 -2q80 6 80 55q0 39 -56 56q-55 18 -55 55v864q0 49 -51 49q-29 0 -127 -123t-98 -157q0 -43 43 -43q25 0 59 34v-647h-88q-176 0 -176 150 q0 106 49 313q49 205 49 314q0 66 -37 88q-27 14 -98 14q-104 0 -113 -2q-67 -13 -67 -70zM199 1358q0 -55 163 -117q147 -53 216 -53q47 0 47 43q0 25 -158 110.5t-197 85.5q-71 1 -71 -69z" />
<glyph unicode="&#xfa;" horiz-adv-x="886" d="M74 948q0 -49 59.5 -71.5t59.5 -40.5q0 -92 -41 -287t-41 -287q0 -164 125 -225q80 -39 266 -39h57q37 0 84 2h57q31 0 60 -2q80 6 80 55q0 39 -56 56q-55 18 -55 55v864q0 49 -51 49q-29 0 -127 -123t-98 -157q0 -43 43 -43q25 0 59 34v-647h-88q-176 0 -176 150 q0 106 49 313q49 205 49 314q0 66 -37 88q-27 14 -98 14q-104 0 -113 -2q-67 -13 -67 -70zM219 1229q0 -41 49 -41q47 0 176 45l80 27q31 10 41 14q80 39 80 88q0 27 -18.5 46t-44.5 19q-43 0 -203 -86q-160 -83 -160 -112z" />
<glyph unicode="&#xfb;" horiz-adv-x="886" d="M74 948q0 -49 59.5 -71.5t59.5 -40.5q0 -92 -41 -287t-41 -287q0 -164 125 -225q80 -39 266 -39h57q37 0 84 2h57q31 0 60 -2q80 6 80 55q0 39 -56 56q-55 18 -55 55v864q0 49 -51 49q-29 0 -127 -123t-98 -157q0 -43 43 -43q25 0 59 34v-647h-88q-176 0 -176 150 q0 106 49 313q49 205 49 314q0 66 -37 88q-27 14 -98 14q-104 0 -113 -2q-67 -13 -67 -70zM172 1223q0 -35 33 -35q12 0 84 47q70 49 119 49q51 0 122 -49q76 -47 84 -47q37 0 37 37q0 20 -78 104q-76 82 -102 86h-41q-98 0 -133 -33l-67 -76l-48 -55q-10 -14 -10 -28z" />
<glyph unicode="&#xfc;" horiz-adv-x="886" d="M74 948q0 -49 59.5 -71.5t59.5 -40.5q0 -92 -41 -287t-41 -287q0 -164 125 -225q80 -39 266 -39h57q37 0 84 2h57q31 0 60 -2q80 6 80 55q0 39 -56 56q-55 18 -55 55v864q0 49 -51 49q-29 0 -127 -123t-98 -157q0 -43 43 -43q25 0 59 34v-647h-88q-176 0 -176 150 q0 106 49 313q49 205 49 314q0 66 -37 88q-27 14 -98 14q-104 0 -113 -2q-67 -13 -67 -70zM195 1288q0 -41 27.5 -70.5t68.5 -29.5q43 0 69.5 28.5t26.5 71.5q0 41 -27.5 69.5t-68.5 28.5t-68.5 -28.5t-27.5 -69.5zM502 1288q0 -41 27.5 -69.5t68.5 -28.5q43 0 69.5 27.5 t26.5 70.5q0 41 -27.5 69.5t-68.5 28.5t-68.5 -28.5t-27.5 -69.5z" />
<glyph unicode="&#xfd;" horiz-adv-x="882" d="M641 1239q0 -39 47 -39t176 45l80 27q31 10 41 14q80 39 80 88q0 25 -19.5 45t-44.5 20q-43 0 -203 -86q-157 -85 -157 -114zM86 948q0 -51 59.5 -73.5t59.5 -38.5q0 -92 -41 -287t-41 -287q0 -137 92 -205q83 -57 214 -57h9h127q0 8 0 -4t2 -45v-51q0 -135 -94 -136 q-33 0 -106 23q-72 23 -105 23q-37 0 -88 -93q-51 -90 -51 -133q0 -41 39 -41q12 0 84 45q76 43 137 43q20 0 59 -6t60 -6q104 0 171.5 66.5t67.5 171.5v1171q0 49 -53 49q-29 0 -127 -123t-98 -155q0 -45 45 -45q23 0 57 34v-647h-86q-176 0 -176 148q0 106 49 313 q49 209 49 316q0 68 -39 88q-27 14 -98 14q-104 0 -110 -2q-68 -13 -68 -70z" />
<glyph unicode="&#xff;" horiz-adv-x="882" d="M86 948q0 -51 59.5 -73.5t59.5 -38.5q0 -92 -41 -287t-41 -287q0 -137 92 -205q86 -59 223 -57h127q0 8 0 -4t2 -45v-51q0 -135 -94 -136q-33 0 -106 23q-72 23 -105 23q-37 0 -88 -93q-51 -90 -51 -133q0 -41 39 -41q12 0 84 45q76 43 137 43q20 0 59 -6t60 -6 q104 0 171.5 66.5t67.5 171.5v1171q0 49 -53 49q-29 0 -127 -123t-98 -155q0 -45 45 -45q23 0 57 34v-647h-86q-176 0 -176 148q0 106 49 313q49 209 49 316q0 68 -39 88q-27 14 -98 14q-104 0 -110 -2q-68 -13 -68 -70zM195 1288q0 -41 27.5 -70.5t68.5 -29.5 q43 0 69.5 28.5t26.5 71.5q0 41 -27.5 69.5t-68.5 28.5t-68.5 -28.5t-27.5 -69.5zM502 1288q0 -41 27.5 -69.5t68.5 -28.5q43 0 69.5 27.5t26.5 70.5q0 41 -27.5 69.5t-68.5 28.5t-68.5 -28.5t-27.5 -69.5z" />
<glyph unicode="&#x152;" horiz-adv-x="1927" d="M72 721q0 -317 221 -538.5t536 -221.5q123 0 215 39h512q100 0 148 10q94 20 145 119q41 82 41 188q0 104 -59 105q-33 0 -82 -76q-68 -104 -100 -139q-70 -76 -152 -76q-147 0 -147 254v59v15q0 8 2 18v21v67q2 31 2 56v41v163h14q35 0 100 -18q70 -16 101 -16t61.5 12 t53 31.5t37 47t14.5 58.5q0 43 -60 43h-321v293h178q66 0 113 -49q12 -14 47 -78q23 -41 49 -41q53 0 53 57q0 20 -3 53l-7 76q-6 51 -9 83t-6 46q-6 61 -59 62q-51 0 -59 -51h-592q-98 47 -232 47q-315 0 -536 -224q-219 -223 -219 -536zM340 758q0 227 113 383 q127 176 344 176q176 0 321 -127v-965q-125 -96 -262 -96q-240 0 -385 201q-131 176 -131 428z" />
<glyph unicode="&#x153;" horiz-adv-x="2109" d="M70 514q0 -231 161.5 -393t393.5 -162q279 0 440 229q160 -217 475 -217q326 0 471 31q39 8 39 70q0 111 -41 110q-14 0 -88 -22q-80 -29 -98 -31q-102 -20 -211 -20q-195 0 -316 112q-121 115 -120 305q0 59 8 99l690 -2q113 0 113 79q0 18 -7 35q-59 154 -187 241 t-290 87q-264 0 -436 -229q-74 111 -192.5 172t-249.5 61q-231 0 -393 -162t-162 -393zM285 551q0 160 75 260q86 117 238 117q184 0 283 -146q86 -127 86 -317q0 -152 -84 -258q-92 -113 -242 -113q-178 0 -274 146q-82 125 -82 311zM1225 764q25 61 102 113q80 49 150 49 q86 0 161.5 -44t112.5 -118h-526z" />
<glyph unicode="&#x178;" horiz-adv-x="1136" d="M70 1368q0 -35 59 -82q74 -59 98 -104l312 -600q-195 -315 -195 -443q0 -94 94 -125q49 -14 172 -14h15q8 -2 24 -2h51q152 0 152 68q0 43 -70 67q-4 2 -31 9l-75 20q-61 27 -62 88q0 94 125 305l137 227l97 162q125 217 125 367q0 86 -51 110q-29 12 -129 13h-13 q-8 2 -22 2h-45q-119 0 -119 -62q0 -51 69 -78q72 -29 72 -84q0 -96 -61 -213l-119 -190l-56 104l-65 125q-96 186 -96 213q0 25 55 47q55 20 55 70q0 66 -57 66h-389q-57 0 -57 -66zM420 1616q0 -43 41 -43q47 0 182 45l81 27q30 10 40 14q82 39 82 88q0 66 -64 65 q-41 0 -202 -86q-160 -83 -160 -110z" />
<glyph unicode="&#x2c6;" horiz-adv-x="587" d="M86 1608q0 -35 33 -35q12 0 84 47q74 49 121 49q49 0 122 -49q78 -47 82 -47q37 0 37 39q0 25 -80 104q-74 80 -102 84q-12 2 -29 2h-30q-80 0 -131 -51l-43 -51l-54 -64q-10 -14 -10 -28z" />
<glyph unicode="&#x2dc;" horiz-adv-x="608" d="M74 1620q0 -47 47 -47q14 0 53 22q41 23 64 23q29 0 81 -19q51 -18 82 -18q55 0 113 33q68 37 68 88q0 45 -45 45q-10 0 -56 -23q-41 -23 -73 -22q-23 0 -74 18q-49 18 -74 19q-59 0 -117 -31q-69 -33 -69 -88z" />
<glyph unicode="&#x2013;" horiz-adv-x="1196" d="M78 549q0 -29 21.5 -50.5t50.5 -21.5h899q72 0 71 72q0 31 -20.5 53.5t-50.5 22.5h-899q-29 0 -50.5 -23.5t-21.5 -52.5z" />
<glyph unicode="&#x2014;" horiz-adv-x="1433" d="M78 549q0 -29 21.5 -50.5t50.5 -21.5h1136q31 0 51.5 20.5t20.5 51.5q0 29 -21.5 51.5t-50.5 22.5l-1136 2q-29 0 -50.5 -23.5t-21.5 -52.5z" />
<glyph unicode="&#x2018;" horiz-adv-x="372" d="M76 1147q0 -55 38 -93t93 -38q51 0 87 42t36 95q0 76 -101 119l41 69q31 51 31 62q0 23 -18 22q-78 0 -146 -102q-61 -96 -61 -176z" />
<glyph unicode="&#x2019;" horiz-adv-x="372" d="M80 1296q0 -82 100 -127l-11 -21q-9 -17 -30 -48q-31 -53 -30 -62q0 -20 20 -20q74 0 145 102q61 94 62 176q0 53 -39 91t-92 38q-51 0 -88 -39t-37 -90z" />
<glyph unicode="&#x201a;" horiz-adv-x="372" d="M86 102q0 -74 100 -116l-15 -30q-9 -17 -24 -40q-33 -53 -32 -63q0 -20 18 -21q74 0 146 102q63 94 63 175q0 55 -38 93t-93 38q-53 0 -89 -42.5t-36 -95.5z" />
<glyph unicode="&#x201c;" horiz-adv-x="657" d="M76 1151q0 -53 38 -91t91 -38t89 41t36 96q0 70 -101 119l41 70q31 51 31 61q0 20 -18 21q-76 0 -144 -105q-63 -94 -63 -174zM365 1151q0 -53 38.5 -91t92.5 -38q51 0 89 40t38 91q0 80 -101 125q0 4 39 70q33 57 33 63q0 18 -21 19q-76 0 -143 -101q-65 -100 -65 -178z " />
<glyph unicode="&#x201d;" horiz-adv-x="696" d="M86 1284q0 -78 104 -127q-2 -8 -12 -27l-26 -47q-35 -59 -35 -67q0 -20 18 -21q80 0 154 109q68 100 67 186q0 57 -41 98.5t-98 41.5t-94 -44.5t-37 -101.5zM393 1290q0 -84 107 -133q-4 -10 -41 -76q-35 -59 -35 -65q0 -20 22 -21q80 0 152 111q68 100 68 184 q0 57 -41 98.5t-99 41.5q-55 0 -94 -42.5t-39 -97.5z" />
<glyph unicode="&#x201e;" horiz-adv-x="657" d="M80 109q0 -80 100 -123q-2 -4 -41 -70q-31 -53 -30 -63q0 -20 20 -21q76 0 143 105q63 90 64 172q0 55 -38 93t-93 38q-51 0 -88 -40t-37 -91zM371 109q0 -80 100 -123q-2 -6 -12 -22.5l-27 -45.5q-33 -57 -33 -65q0 -20 21 -21q72 0 143 105q63 94 64 172q0 47 -35 89 t-82 42q-57 0 -98 -37t-41 -94z" />
<glyph unicode="&#x2022;" horiz-adv-x="452" d="M70 621q0 -78 53 -127.5t131 -49.5q35 0 65.5 14.5t53 39t36 56.5t13.5 67q0 74 -52.5 125t-125.5 51q-37 0 -69 -14.5t-55.5 -38t-36.5 -55t-13 -68.5z" />
<glyph unicode="&#x2026;" horiz-adv-x="1099" d="M819 111q0 -51 35 -85t86 -34t86 33.5t35 85.5q0 51 -34 86.5t-85 35.5t-87 -35.5t-36 -86.5zM453 111q0 -51 35 -85t86 -34t86 33.5t35 85.5q0 51 -34 86.5t-85 35.5t-87 -35.5t-36 -86.5zM86 111q0 -51 35 -85t86 -34t86 33.5t35 85.5q0 51 -34 86.5t-85 35.5 t-87 -35.5t-36 -86.5z" />
<glyph unicode="&#x2039;" horiz-adv-x="391" d="M102 670q0 -23 11 -54l135 -389q8 -27 41 -26q43 0 43 49q0 70 -47 215t-47 215q0 51 41 156q43 100 43 147q0 43 -39 43q-33 0 -45 -27l-113 -235q-23 -49 -23 -94z" />
<glyph unicode="&#x203a;" horiz-adv-x="391" d="M96 248q0 -47 41 -47q35 0 43 26l86 230q61 166 62 227q0 45 -88 227q-55 115 -88 115q-43 0 -43 -47q0 -33 41 -143q41 -106 40 -162q0 -72 -47 -213t-47 -213z" />
<glyph unicode="&#x2044;" horiz-adv-x="1136" d="M70 1368q0 -35 59 -82q74 -59 98 -104l312 -600q-195 -315 -195 -443q0 -94 94 -125q49 -14 172 -14h15q8 -2 24 -2h51q152 0 152 68q0 43 -70 67q-4 2 -31 9l-75 20q-61 27 -62 88q0 94 125 305l137 227l97 162q125 217 125 367q0 86 -51 110q-29 12 -129 13h-13 q-8 2 -22 2h-45q-119 0 -119 -62q0 -51 69 -78q72 -29 72 -84q0 -96 -61 -213l-119 -190l-56 104l-65 125q-96 186 -96 213q0 25 55 47q55 20 55 70q0 66 -57 66h-389q-57 0 -57 -66zM393 1671q0 -41 28 -69.5t68 -28.5q41 0 68 28.5t27 69.5t-27 69.5t-68 28.5t-68.5 -28.5 t-27.5 -69.5zM700 1671q0 -41 28 -69.5t69 -28.5t68.5 28.5t27.5 69.5t-26.5 69.5t-67.5 28.5q-43 0 -71 -27.5t-28 -70.5z" />
<glyph unicode="&#x2122;" horiz-adv-x="1009" d="M70 1210q0 -25 20 -24q20 0 45 45q29 47 45 47q23 0 23 -125l-2 -289q0 -35 -27 -49q-27 -12 -27 -27q0 -25 23 -24h156q20 0 20 24q0 14 -27 27q-25 12 -24 49v377q0 37 20 37q14 0 43 -47q27 -45 43 -45q25 0 25 28q0 135 -35 136q-25 0 -24 -21h-236q-2 20 -25 21 q-36 -1 -36 -140zM446 788q0 -25 21 -24h139q25 0 25 24q0 18 -27 27q-25 10 -29 53v66l3 260l39 -61l14 -21q43 -63 63 -63q31 0 117 149v-334q0 -35 -27 -49q-25 -12 -24 -27q0 -25 20 -24h156q23 0 22 24q0 18 -28 29q-29 8 -31 62q2 -6 2 75l2 281q0 33 27 45 q29 16 28 31q0 25 -22 24h-160q-20 0 -20 -24q0 -12 10 -21.5t10 -11.5l-65 -109q-68 88 -72 109q23 12 23 33q0 25 -23 24h-172q-20 0 -21 -24q0 -10 9 -17l17 -13l17.5 -14t8.5 -20q2 -20 2 -47v-55l-2 -281q0 -35 -27 -49q-25 -13 -25 -27z" />
<glyph unicode="&#xe000;" horiz-adv-x="1025" d="M0 1025h1025v-1025h-1025v1025z" />
<glyph unicode="&#xfb01;" horiz-adv-x="1044" d="M608 53q0 -45 57 -53h90h15q8 -2 14 -2h14h56q147 0 147 55q0 39 -55 56q-53 18 -54 55v864q0 49 -47 49q-35 0 -133 -120.5t-98 -157.5q0 -16 15.5 -31.5t31.5 -15.5q14 0 57 36v-624q0 -37 -55 -55q-55 -17 -55 -56zM663 1327q0 -53 36 -88t89 -35q55 0 92 34t37 89 q0 53 -36 91t-89 38q-57 0 -93 -36t-36 -93zM8 -383q2 -74 33 -74h8q4 2 8 2q25 25 35 43q33 59 144 113q143 70 143 195v997q8 -2 23.5 -5t39.5 -7q35 -8 64 -9q23 0 46 9.5t41.5 26t31 36t12.5 41.5q0 41 -125 41q-23 0 -67 -3t-66 -3v151q0 72 47 103q16 10 86 33 q47 16 47 41q0 98 1 122.5t3 -26.5q-4 74 -33 74t-51 -48q-29 -47 -106 -92q-92 -51 -121 -78q-59 -53 -59 -135v-145q-12 0 -39 2t-39 2q-57 0 -58 -76q0 -84 27 -84q8 0 109 23v-998q0 -70 -48 -104q-12 -10 -86 -33q-47 -16 -47 -41q0 -98 -1 -121.5t-3 27.5z" />
<glyph unicode="&#xfb02;" horiz-adv-x="1054" d="M608 53q0 -43 59 -53h92h15q8 -2 14 -2h14h60q152 0 151 55q0 37 -55 55.5t-55 55.5v1290q0 55 -49 55q-37 0 -142 -131q-104 -133 -104 -170q0 -16 15.5 -30.5t31.5 -14.5q23 0 63 39v-1038q0 -37 -55 -55q-55 -17 -55 -56zM8 -383q2 -74 33 -74h8q4 2 8 2q25 25 35 43 q33 59 144 113q143 70 143 195v997q8 -2 23.5 -5t39.5 -7q35 -8 64 -9q23 0 46 9.5t41.5 26t31 36t12.5 41.5q0 41 -125 41q-23 0 -67 -3t-66 -3v151q0 72 47 103q16 10 86 33q47 16 47 41q0 98 1 122.5t3 -26.5q-4 74 -33 74t-51 -48q-29 -47 -106 -92q-92 -51 -121 -78 q-59 -53 -59 -135v-145q-12 0 -39 2t-39 2q-57 0 -58 -76q0 -84 27 -84q8 0 109 23v-998q0 -70 -48 -104q-12 -10 -86 -33q-47 -16 -47 -41q0 -98 -1 -121.5t-3 27.5z" />
<glyph unicode="&#xfb03;" horiz-adv-x="1574" d="M1139 53q0 -45 57 -53h90h15q8 -2 14 -2h14h56q147 0 147 55q0 39 -55 56q-53 18 -54 55v864q0 49 -47 49q-35 0 -133 -120.5t-98 -157.5q0 -16 15.5 -31.5t31.5 -15.5q14 0 57 36v-624q0 -37 -55 -55q-55 -17 -55 -56zM1194 1327q0 -53 36 -88t89 -35q55 0 92 34t37 89 q0 53 -36 91t-89 38q-57 0 -93 -36t-36 -93zM538 -383q2 -74 33 -74h8q4 2 8 2q25 25 35 43q33 59 144 113q143 70 143 195v997q8 -2 23.5 -5t39.5 -7q35 -8 64 -9q23 0 46 9.5t41.5 26t31 36t12.5 41.5q0 41 -125 41q-23 0 -67 -3t-66 -3v151q0 72 47 103q16 10 86 33 q47 16 47 41q0 98 1 122.5t3 -26.5q-4 74 -33 74t-51 -48q-29 -47 -106 -92q-92 -51 -121 -78q-59 -53 -59 -135v-145q-12 0 -39 2t-39 2q-57 0 -58 -76q0 -84 27 -84q8 0 109 23v-998q0 -70 -48 -104q-12 -10 -86 -33q-47 -16 -47 -41q0 -98 -1 -121.5t-3 27.5zM8 -383 q2 -74 33 -74h8q4 2 8 2q25 25 35 43q33 59 144 113q143 70 143 195v997q8 -2 23.5 -5t39.5 -7q35 -8 64 -9q23 0 46 9.5t41.5 26t31 36t12.5 41.5q0 41 -125 41q-23 0 -67 -3t-66 -3v151q0 72 47 103q16 10 86 33q47 16 47 41q0 98 1 122.5t3 -26.5q-4 74 -33 74t-51 -48 q-29 -47 -106 -92q-92 -51 -121 -78q-59 -53 -59 -135v-145q-12 0 -39 2t-39 2q-57 0 -58 -76q0 -84 27 -84q8 0 109 23v-998q0 -70 -48 -104q-12 -10 -86 -33q-47 -16 -47 -41q0 -98 -1 -121.5t-3 27.5z" />
<glyph unicode="&#xfb04;" horiz-adv-x="1585" d="M1139 53q0 -43 59 -53h92h15q8 -2 14 -2h14h60q152 0 151 55q0 37 -55 55.5t-55 55.5v1290q0 55 -49 55q-37 0 -142 -131q-104 -133 -104 -170q0 -16 15.5 -30.5t31.5 -14.5q23 0 63 39v-1038q0 -37 -55 -55q-55 -17 -55 -56zM538 -383q2 -74 33 -74h8q4 2 8 2 q25 25 35 43q33 59 144 113q143 70 143 195v997q8 -2 23.5 -5t39.5 -7q35 -8 64 -9q23 0 46 9.5t41.5 26t31 36t12.5 41.5q0 41 -125 41q-23 0 -67 -3t-66 -3v151q0 72 47 103q16 10 86 33q47 16 47 41q0 98 1 122.5t3 -26.5q-4 74 -33 74t-51 -48q-29 -47 -106 -92 q-92 -51 -121 -78q-59 -53 -59 -135v-145q-12 0 -39 2t-39 2q-57 0 -58 -76q0 -84 27 -84q8 0 109 23v-998q0 -70 -48 -104q-12 -10 -86 -33q-47 -16 -47 -41q0 -98 -1 -121.5t-3 27.5zM8 -383q2 -74 33 -74h8q4 2 8 2q25 25 35 43q33 59 144 113q143 70 143 195v997 q8 -2 23.5 -5t39.5 -7q35 -8 64 -9q23 0 46 9.5t41.5 26t31 36t12.5 41.5q0 41 -125 41q-23 0 -67 -3t-66 -3v151q0 72 47 103q16 10 86 33q47 16 47 41q0 98 1 122.5t3 -26.5q-4 74 -33 74t-51 -48q-29 -47 -106 -92q-92 -51 -121 -78q-59 -53 -59 -135v-145q-12 0 -39 2 t-39 2q-57 0 -58 -76q0 -84 27 -84q8 0 109 23v-998q0 -70 -48 -104q-12 -10 -86 -33q-47 -16 -47 -41q0 -98 -1 -121.5t-3 27.5z" />
</font>
</defs>
</svg>
