<?xml version="1.0" standalone="no"?>
<!DOCTYPE svg PUBLIC "-//W3C//DTD SVG 1.1//EN" "http://www.w3.org/Graphics/SVG/1.1/DTD/svg11.dtd" >
<svg xmlns="http://www.w3.org/2000/svg">
<metadata>
This is a custom SVG webfont generated by Font Squirrel.
Copyright   : Copyright c 1990 Adobe Systems Incorporated  All rights reservedAdminister is under license from Typesettra Ltd
</metadata>
<defs>
<font id="ATAdministerRegular" horiz-adv-x="1062" >
<font-face units-per-em="2048" ascent="1638" descent="-410" />
<missing-glyph horiz-adv-x="681" />
<glyph unicode=" "  horiz-adv-x="681" />
<glyph unicode="&#x09;" horiz-adv-x="681" />
<glyph unicode="&#xa0;" horiz-adv-x="681" />
<glyph unicode="!" horiz-adv-x="681" d="M250 977q0 295 26 375q10 31 68.5 62.5t93.5 31.5q47 0 47 -60q-51 -281 -57 -339q-39 -377 -39 -529q0 -25 3 -75t3 -74q0 -27 -23.5 -43.5t-35.5 -16.5q-14 0 -33.5 81t-36 243t-16.5 344zM262 82q0 63 30 109.5t83 46.5q35 0 60.5 -36t25.5 -83q0 -59 -30 -104.5 t-79 -45.5q-43 0 -66.5 33t-23.5 80z" />
<glyph unicode="&#x22;" horiz-adv-x="1024" d="M244 1313q0 55 27.5 94t68.5 39t71.5 -38t30.5 -95l-47 -320h-104zM580 1313q0 55 27.5 94t68.5 39t71.5 -38t30.5 -95l-47 -320h-104z" />
<glyph unicode="#" d="M76 522v113h252l24 156h-235v112h254l86 543h112l-86 -543h168l86 543h113l-86 -543h227v-112h-246l-24 -156h233v-113h-249l-87 -553h-112l86 553h-168l-86 -553h-113l86 553h-235zM440 635h168l25 156h-168z" />
<glyph unicode="$" d="M92 41l14 61q16 63 17 113q0 23 -4 70t-4 71q0 96 59 97q37 0 37 -41q0 -6 -2 -21.5t-2 -25.5q0 -27 9 -61t31.5 -80t77 -83t132.5 -49v574q-162 94 -217 151q-100 102 -101 236q0 86 35 154.5t88 106.5t101.5 58.5t93.5 26.5v59q0 72 51 72q18 0 22.5 -12.5t4.5 -42.5 v-72q61 0 144 -24.5t99 -24.5q23 0 44.5 22.5t33.5 22.5t21.5 -13.5t9.5 -29.5q0 -14 -9.5 -42t-9.5 -40q0 -29 11 -107l10 -77q0 -27 -19.5 -45.5t-36 -18.5t-21.5 21l-16 63q-11 43 -36 80q-39 55 -103.5 93t-121.5 38v-490q6 -4 49 -27l55 -31l52 -31q40 -24 55 -35 l49 -38q33 -26 47 -44l36 -47q22 -29 31 -55.5t17 -60.5t8 -69q0 -90 -40 -164.5t-102.5 -118.5t-129 -71t-127.5 -33v-110q0 -27 -17.5 -44.5t-42.5 -17.5q-12 2 -15 12.5t-3 49.5v110q-27 0 -117 25.5t-118.5 25.5t-57.5 -21.5t-39 -21.5q-8 0 -20.5 8.5t-12.5 18.5z M272 1106q0 -23 5.5 -44.5t18.5 -40.5l22 -33q9 -13 33 -33.5t33 -27.5l38 -29q29 -22 35 -26v445q-70 -10 -127.5 -63.5t-57.5 -147.5zM535 94q37 10 71.5 26.5t74.5 46.5t64.5 78t24.5 109q0 49 -15.5 87t-55.5 73t-68.5 52.5t-95.5 54.5v-527z" />
<glyph unicode="%" horiz-adv-x="1669" d="M88 930q0 199 91 357.5t231 158.5q125 0 199.5 -123t74.5 -315q0 -205 -80 -350.5t-217 -145.5q-133 0 -216 114t-83 304zM180 1022q0 -172 68.5 -295t167.5 -123q78 0 127 97.5t49 232.5q0 178 -65.5 299t-161.5 121q-88 0 -136.5 -92.5t-48.5 -239.5zM360 -24.5 q0 6.5 19 42.5l827 1383q2 4 8.5 14t10.5 15.5t9 10.5t11 5h49q27 0 27 -14q0 -6 -23 -41l-827 -1385q-14 -23 -21.5 -29t-23.5 -8h-41q-25 0 -25 6.5zM989 387q0 199 91 357.5t231 158.5q125 0 199.5 -123t74.5 -315q0 -205 -80 -350.5t-217 -145.5q-133 0 -216 114 t-83 304zM1081 479q0 -172 69 -295t167 -123q78 0 127 97.5t49 232.5q0 178 -65.5 299t-161.5 121q-88 0 -136.5 -92.5t-48.5 -239.5z" />
<glyph unicode="&#x26;" horiz-adv-x="1630" d="M86 330q0 88 39 166.5t99.5 131t114.5 86.5t101 50q-4 6 -17 23.5l-19 25.5l-15 25q-10 16 -15 28.5l-11.5 29.5t-8.5 35.5t-2 39.5q0 133 116 238.5t273 105.5q113 0 178.5 -56.5t65.5 -130.5q0 -66 -48 -106.5t-122 -40.5q-63 0 -99 28.5t-36 59.5q0 35 16 35 q10 0 27.5 -5t26.5 -5q61 0 61 55q0 37 -30.5 60.5t-75.5 23.5q-84 0 -152 -61.5t-68 -135.5q0 -47 22.5 -86t48.5 -61.5t97.5 -75.5t120.5 -94q80 -66 136.5 -140.5t127.5 -195.5q51 74 111.5 203t60.5 198q0 102 -102 103q-20 0 -52 -18.5t-40 -18.5q-41 0 -41 31 q0 39 29.5 63.5t70.5 24.5q2 0 92 -9.5t170 -9.5q18 0 81 9.5t93 9.5q29 0 48.5 -15.5t19.5 -40.5q0 -33 -33 -36q-94 0 -123 -19q-39 -16 -70.5 -73.5t-72.5 -153.5t-80 -160l-108 -168q2 -4 17 -24.5t21.5 -27.5t20.5 -25.5t24.5 -27l28 -23.5t31.5 -22.5t33.5 -15.5 t41 -11t46.5 -3q59 0 95 25.5t46 55t25.5 55.5t36.5 26q14 0 25 -13.5t11 -29.5q0 -70 -93 -171.5t-230 -101.5q-63 0 -114.5 17.5t-95.5 59.5t-55 56l-49 64q-205 -197 -454 -197q-184 0 -301 104.5t-117 256.5zM250 406q0 -129 91 -216.5t237 -87.5q180 0 335 142 q-106 201 -180 280.5t-235 184.5l-59 -27q-22 -10 -62.5 -38t-64 -56.5t-43 -76.5t-19.5 -105z" />
<glyph unicode="'" horiz-adv-x="681" d="M240 1313q0 55 27.5 94t68.5 39t71.5 -38t30.5 -95l-47 -320h-104z" />
<glyph unicode="(" horiz-adv-x="681" d="M231 709q0 115 25 234.5t60.5 212.5t75.5 169t71 117t45 41q20 0 20 -19q0 -14 -41 -109t-83 -268.5t-42 -378t42 -376.5t83 -266.5t41 -110.5q0 -18 -20 -18q-27 0 -90.5 104t-125 295t-61.5 373z" />
<glyph unicode=")" horiz-adv-x="681" d="M147 -45q0 16 41 110.5t83 266.5t42 376.5t-42 378t-83 268.5t-41 109q0 18 21 19q14 0 45 -41t71 -117t75.5 -169t60 -213t24.5 -234q0 -182 -61 -373t-124.5 -295t-90.5 -104q-21 0 -21 18z" />
<glyph unicode="*" d="M293 1077q0 14 43 31l119 41v14l-119 41q-43 16 -43 31l39 78q10 20 24 20q10 0 37 -26l92 -82l13 10l-25 117q0 4 -2 10t-3 11t-1 7q0 25 13.5 30t51.5 5q41 0 53.5 -5t12.5 -30q0 -2 -1 -7t-3 -11t-2 -10l-25 -117l13 -10l92 82q27 27 37 26q14 0 24 -20 q4 -10 15.5 -29.5t17.5 -32t6 -16.5q0 -14 -43 -31l-119 -41v-14l119 -41q43 -16 43 -31l-39 -78q-10 -20 -24 -20q-10 0 -37 27l-92 81l-13 -10l25 -116q0 -4 2 -10.5t3 -11.5t1 -7q0 -25 -12.5 -30t-53.5 -5q-39 0 -52 5t-13 30q0 2 1 7t3 11t2 11l25 116l-13 10l-92 -81 q-27 -27 -37 -27q-14 0 -24 20q-4 10 -15.5 30t-17.5 32t-6 16z" />
<glyph unicode="+" horiz-adv-x="1630" d="M274 535v47q0 16 9.5 20t44.5 4h436v430q0 23 1 32t8 15.5t22 6.5h39q16 0 23 -7.5t8 -16.5t1 -30v-430h437q35 0 44 -4t9 -20v-47q0 -20 -9.5 -25.5t-43.5 -5.5h-437v-467q0 -55 -32 -55h-39q-18 0 -24.5 10t-6.5 45v467h-436q-35 0 -44.5 5.5t-9.5 25.5z" />
<glyph unicode="," horiz-adv-x="681" d="M215 -236q0 12 8 19.5t20.5 13.5t34 27.5t39.5 54.5q27 49 33 103q-6 0 -14 -5q-12 -4 -17 -4q-86 0 -86 113q0 59 28 105.5t77 46.5q51 0 77.5 -47.5t26.5 -118.5q0 -115 -70.5 -218.5t-133.5 -103.5q-23 0 -23 14z" />
<glyph unicode="-" horiz-adv-x="681" d="M59 526l76 117q8 14 31 14q45 0 114.5 -3t110.5 -3q68 0 116 10.5t71.5 21.5t27.5 11q20 0 21 -16q0 -10 -6.5 -21.5t-17.5 -27t-15 -23.5q-4 -6 -10.5 -17t-8.5 -15.5t-7 -11.5t-8 -9t-8 -6t-9.5 -5t-11.5 -2t-15 -1l-6 2h-23q-14 0 -35.5 1t-59.5 2t-83 1 q-61 0 -139 -19.5t-86 -19.5q-19 0 -19 20z" />
<glyph unicode="." horiz-adv-x="681" d="M227 82q0 63 30 109.5t83 46.5q35 0 60.5 -36t25.5 -83q0 -59 -29.5 -104.5t-79.5 -45.5q-43 0 -66.5 33t-23.5 80z" />
<glyph unicode="/" horiz-adv-x="681" d="M47 -8l6 31l447 1357q8 29 13 40.5t18.5 18.5t35.5 7h56q20 0 20 -21q-2 -27 -12 -51l-445 -1356q-14 -49 -49 -49h-53q-23 0 -30 3.5t-7 19.5z" />
<glyph unicode="0" d="M72 723q0 297 134 510t335 213q190 0 322 -207t132 -516q0 -319 -130 -536.5t-324 -217.5q-199 0 -334 219.5t-135 534.5zM256 711q0 -291 76 -475.5t209 -184.5q123 0 196.5 191.5t73.5 474.5q0 285 -73.5 466t-196.5 181q-135 0 -210 -186t-75 -467z" />
<glyph unicode="1" d="M203 18v23q0 23 30 27q2 0 19.5 1t32 2t37 5t41 9t39 15.5t32.5 24.5q41 51 41 162v712q0 72 -1 106t-8 67.5t-22.5 46t-42 12.5t-79 -17.5t-58.5 -17.5q-31 0 -31 33v31q0 25 52 36q92 23 174 60t123 63.5t45 26.5q41 0 41 -43l-4 -14q-4 -14 -10.5 -42t-11.5 -65 t-9 -94.5t-4 -120.5v-780q0 -109 37 -162q12 -14 29.5 -24.5t33.5 -15.5t36.5 -9t34 -5t29 -2t17.5 -1q31 -4 31 -27v-23q0 -14 -6.5 -19t-24.5 -5q-2 0 -57.5 1t-126 3t-111.5 2q-43 0 -120 -2t-136 -3t-62 -1q-18 0 -24 5t-6 19z" />
<glyph unicode="2" d="M27 59.5q0 20.5 64 65.5l167 113q102 68 158 114l59 49q49 41 63 54l55 50q42 38 56 56l45 55q31 37 43 65l29 65q16 38 22.5 76t6.5 81q0 156 -115 272.5t-270 116.5q-100 0 -166 -56t-66 -108q0 -18 18.5 -46.5t18.5 -39.5q0 -20 -16.5 -37.5t-46.5 -17.5 q-33 0 -59.5 36t-26.5 81q0 117 123.5 229.5t297.5 112.5q203 0 332 -141.5t129 -331.5q0 -70 -21.5 -140.5t-50 -128t-80 -122t-89 -105.5t-101.5 -96l-91 -78q-28 -23 -85 -65.5t-59 -44.5v-5h340q53 0 91 18.5t55 39.5l34 39q16 18 29 18q29 0 28 -35q0 -4 -5 -12t-5 -12 l-92 -207q-18 -37 -35 -37q-8 0 -33.5 8t-54.5 15q-100 23 -340 22q-88 0 -209 -22q-27 -4 -56 -11l-45 -9q-15 -3 -18 -3q-10 0 -19 19.5t-9 40z" />
<glyph unicode="3" d="M39 153.5q0 22.5 93 104.5t108 82q35 0 34 -29q0 -16 -22.5 -51t-22.5 -61q0 -39 57.5 -78t139.5 -39q143 0 249.5 109.5t106.5 259.5q0 127 -88 212t-225 85q-29 0 -84 -8.5t-74 -8.5q-14 0 -21 18.5t-7 32.5q0 18 57 35l125 35q68 18 125 86t57 174q0 98 -60.5 159.5 t-154.5 61.5q-96 0 -152.5 -59.5t-56.5 -118.5q0 -4 1 -13t1 -14q0 -16 -12 -28.5t-27 -12.5q-27 0 -46 17.5t-19 50.5q0 88 115.5 189.5t265.5 101.5q135 0 227 -82t92 -193q0 -201 -219 -327v-4q57 -6 113.5 -26.5t114 -59.5t92 -109t34.5 -160q0 -205 -178 -360.5 t-393 -155.5q-104 0 -189 40t-121 81t-36 63.5z" />
<glyph unicode="4" d="M33 354q0 2 24.5 29t75.5 90.5t100 138.5l377 564l63 97l44 72l27 45q13 22 23.5 29.5t22 12t27.5 4.5q51 0 51 -23q0 -2 -3 -10t-8 -26.5t-10 -49.5t-8 -86t-3 -125v-629q0 -45 20.5 -45t45 23.5t30.5 23.5q27 0 26 -40q0 -12 -6 -41t-6 -41q0 -14 6 -39t6 -37 q0 -33 -26 -33q-10 0 -40 23.5t-56 25.5v-96q0 -68 8 -122t8 -64q0 -31 -21 -31q-12 0 -34.5 3t-34.5 3t-34.5 -3t-37.5 -3q-25 0 -24 31q0 12 8 63t8 115v104h-446q-27 0 -82.5 -3t-81.5 -3q-16 0 -27.5 20.5t-11.5 32.5zM242 449q0 -8 65 -9h330q35 0 40 6.5t5 40.5v641 h-4l-293 -434q-143 -220 -143 -245z" />
<glyph unicode="5" d="M35 184q0 76 86 76q23 0 29 -13.5t10 -53.5q2 -8 2 -13q0 -12 9 -29.5t29.5 -39t62.5 -36t97 -14.5q174 0 294 126t120 307q0 150 -85 242.5t-206 92.5q-59 0 -114.5 -21.5t-87 -44t-35.5 -22.5q-8 0 -25.5 18.5t-17.5 26.5q45 268 45 361q0 55 -1 142t-1 104 q0 18 17.5 32.5t25.5 14.5q6 0 20 -5l41 -15l51 -17q115 -37 207 -37q102 0 148 41q10 6 19 17.5t15.5 16.5t14.5 5q31 0 31 -37q0 -18 -8.5 -45t-30 -63.5t-73.5 -62.5t-128 -26q-47 0 -129 20.5t-109 20.5q-20 0 -24 -34q0 -23 -11.5 -137.5t-11.5 -153.5q111 55 217 55 q186 0 308 -120t122 -306q0 -168 -97 -306t-236.5 -210t-278.5 -72q-147 0 -229 68.5t-82 146.5z" />
<glyph unicode="6" d="M74 489q0 156 67.5 307.5t171 265.5t223 203t228 135t182.5 46q49 0 49 -35q0 -8 -1 -13t-5 -8.5t-13 -7.5t-20.5 -8t-34 -11t-47 -17.5l-64.5 -29t-83 -40.5q-102 -53 -207.5 -170t-165.5 -213l4 -4q76 55 189 55q174 0 312 -132t138 -337q0 -215 -137 -360.5 t-323 -145.5q-184 0 -323.5 141t-139.5 379zM258 475q0 -184 85 -304t202 -120q113 0 190.5 107.5t77.5 273.5q0 199 -95 314.5t-200 115.5q-102 0 -181 -107.5t-79 -279.5z" />
<glyph unicode="7" d="M109 1116q0 23 14 79t14 97q0 31 -9 80t-9 57.5t8 17.5t14 9q4 0 48 -17.5t145.5 -35t245.5 -17.5q164 0 294 31q31 6 59 13.5t41 11.5t17 4q41 0 41 -37q0 -18 -26 -68q-76 -164 -273.5 -549.5t-406.5 -744.5q-37 -63 -60 -74q-10 -4 -22 -4q-37 0 -37 37q0 10 16 43 q143 262 322.5 630t226.5 497q12 31 12 41q0 12 -1 18t-10 10t-28 4q-14 0 -90.5 -3t-124.5 -3q-35 0 -106.5 3t-104.5 3q-74 0 -101.5 -50t-34.5 -100t-31 -50q-43 -1 -43 67z" />
<glyph unicode="8" d="M74 354q0 43 9 83t20.5 69t35.5 60l39 49q14 17 48 43l45 34q11 8 48 30.5t39 25.5q-39 23 -65.5 41t-67.5 58t-62.5 99.5t-21.5 132.5q0 154 114 260.5t290 106.5q170 0 274.5 -96.5t104.5 -237.5q0 -70 -22.5 -124t-69 -94t-71 -56.5t-75.5 -42.5q143 -82 191 -125 q123 -113 122.5 -285t-141.5 -294t-334 -122q-195 0 -322.5 113.5t-127.5 271.5zM207 381q0 -141 89 -235.5t226 -94.5q129 0 216 84t87 205q0 74 -21.5 127t-86 98t-95 61.5t-135.5 59.5q-16 8 -26 12q-53 -27 -78 -42t-76 -55t-75.5 -95t-24.5 -125zM295 1124 q0 -31 8 -58.5t17.5 -48t31 -42t34.5 -32.5t45 -28.5t44 -23.5t50 -23.5t46 -21.5q219 86 220 268q0 100 -71 170t-173 70q-96 0 -174 -67t-78 -163z" />
<glyph unicode="9" d="M72 938q0 215 137 361.5t323.5 146.5t324.5 -142.5t138 -379.5q0 -156 -67.5 -307.5t-171 -264t-223 -202t-228 -135.5t-182.5 -46q-49 0 -49 33q0 8 1 13t5 8.5t13 7.5t20.5 8t34 11t47 17.5l64.5 29t83 40.5q102 53 207.5 170t165.5 213l-4 4q-76 -55 -189 -55 q-174 0 -312 132t-138 337zM256 981q0 -199 95 -314.5t200 -115.5q102 0 181 107.5t79 279.5q0 186 -85 306t-202 120q-113 0 -190.5 -108.5t-77.5 -274.5z" />
<glyph unicode=":" horiz-adv-x="681" d="M227 674q0 63 30 109t83 46q35 0 60.5 -35.5t25.5 -82.5q0 -59 -29.5 -104.5t-79.5 -45.5q-43 0 -66.5 33t-23.5 80zM238 82q0 63 29.5 109.5t82.5 46.5q35 0 60.5 -36t25.5 -83q0 -59 -29.5 -104.5t-78.5 -45.5q-43 0 -66.5 33t-23.5 80z" />
<glyph unicode=";" horiz-adv-x="681" d="M215 -236q0 12 8 19.5t20.5 13.5t34 27.5t39.5 54.5q27 49 33 103q-6 0 -14 -5q-12 -4 -17 -4q-86 0 -86 113q0 59 28 105.5t77 46.5q51 0 77.5 -47.5t26.5 -118.5q0 -115 -70.5 -218.5t-133.5 -103.5q-23 0 -23 14zM246 674q0 63 29.5 109t82.5 46q35 0 60.5 -35.5 t25.5 -82.5q0 -59 -29.5 -104.5t-78.5 -45.5q-43 0 -66.5 33t-23.5 80z" />
<glyph unicode="&#x3c;" horiz-adv-x="1630" d="M317 500v110l996 441v-158l-793 -338l793 -340v-158z" />
<glyph unicode="=" horiz-adv-x="1630" d="M274 424v47q0 16 9.5 20.5t44.5 4.5h975q35 0 44 -4.5t9 -20.5v-47q0 -20 -9.5 -25.5t-43.5 -5.5h-975q-35 0 -44.5 5.5t-9.5 25.5zM274 645v47q0 16 9.5 20.5t44.5 4.5h975q35 0 44 -4t9 -21v-47q0 -20 -9.5 -25.5t-43.5 -5.5h-975q-35 0 -44.5 5.5t-9.5 25.5z" />
<glyph unicode="&#x3e;" horiz-adv-x="1630" d="M317 57v158l793 340l-793 338v158l996 -441v-110z" />
<glyph unicode="?" horiz-adv-x="909" d="M172 1307q0 53 51 96t137 43q133 0 247 -117t114 -268q0 -90 -37 -160t-90 -111.5t-105.5 -75.5t-89.5 -71t-37 -76q0 -27 41 -111.5t41 -88.5q0 -27 -43 -27q-37 0 -119.5 142.5t-82.5 205.5q0 53 64.5 97t140 74t140 94.5t64.5 156.5q0 82 -66.5 147.5t-142.5 65.5 q-27 0 -46 -10t-19 -25q0 -8 2 -21.5t2 -23.5q0 -16 -20.5 -27.5t-45.5 -11.5q-47 0 -73.5 31t-26.5 72zM289 82q0 63 29.5 109.5t82.5 46.5q35 0 60.5 -36t25.5 -83q0 -59 -29.5 -104.5t-78.5 -45.5q-43 0 -66.5 33t-23.5 80z" />
<glyph unicode="@" horiz-adv-x="2048" d="M332 377q0 307 224 539.5t540 232.5q252 0 435 -154.5t183 -390.5q0 -219 -147.5 -388t-325.5 -169q-74 0 -102.5 36t-28.5 83q-29 -33 -95.5 -68t-142.5 -35q-92 0 -152.5 65t-60.5 179q0 174 137.5 364.5t311.5 190.5q119 0 192 -121l39 90h152l-193 -458 q-57 -147 -57 -180q0 -53 51 -54q90 0 215 144.5t125 312.5q0 205 -159.5 333t-350.5 128q-262 0 -470 -209t-208 -471q0 -203 168 -338t420 -135q45 0 89 4t80 11t72 17.5t63.5 21.5t55 24.5t46 23.5t38 22.5t28.5 19.5t20 18l12 8l59 -35q-57 -68 -214.5 -147.5 t-354.5 -79.5q-283 0 -488.5 159.5t-205.5 405.5zM793 254q0 -47 8 -74.5t27.5 -39t36 -13.5t48.5 -2q76 0 156 110.5t127 241.5t47 209q0 37 -31 76q-33 39 -71 39q-78 0 -162 -106.5t-135 -235.5t-51 -205z" />
<glyph unicode="A" horiz-adv-x="1517" d="M0 18v23q0 23 31 27l10 2q10 0 23.5 3t30 8t33.5 16.5t32 27.5q43 47 123 223l364 809q33 76 33 100.5t-31 53t-31 32.5q0 12 5 25q10 29 67 29q39 0 94.5 18.5t97.5 38t46 19.5q10 0 21.5 -16.5t11.5 -35.5q0 -2 -28 -31.5t-28 -54.5q0 -16 8.5 -42.5t10.5 -30.5 l387 -1039q18 -53 51 -88q53 -57 127 -67q31 -4 31 -27v-23q0 -14 -6.5 -19t-24.5 -5q-41 0 -117 3t-112 3q-41 0 -136.5 -3t-144.5 -3q-18 0 -24.5 5t-6.5 19v23q0 23 31 27l12 2q12 0 22.5 1t27 5t29.5 11t24.5 17.5t18.5 26.5t7 37q0 43 -26 119l-103 278q-18 45 -53 45 h-389q-49 0 -76 -69l-80 -207q-35 -84 -35 -144q0 -20 6.5 -36.5t16.5 -28.5t24.5 -21.5t29 -15.5t28.5 -10t24.5 -6t20.5 -2l8 -2q31 -4 31 -27v-23q0 -14 -6 -19t-25 -5q-25 0 -113 3t-127 3q-37 0 -125 -3t-120 -3q-18 0 -24.5 5t-6.5 19zM549 729q0 -12 12 -14t57 -2 h295q14 0 15 24l-21 58l-155 395l-189 -424q-2 -4 -5 -12.5t-6 -15.5t-3 -9z" />
<glyph unicode="B" horiz-adv-x="1290" d="M84 18v23q0 23 31 27l12 2q10 0 18.5 1t22.5 5t24.5 9t21.5 15.5t19 24.5q29 51 29 162v841q0 111 -29 162q-8 14 -19 25.5t-21.5 17.5t-24.5 10.5t-21.5 5.5t-19.5 3h-12q-31 4 -31 26v23q0 14 6 19t25 5q12 0 73 -4q49 -6 97 -6q49 0 188 17q168 14 203 14 q59 0 126.5 -14.5t144.5 -47t127 -101.5t50 -163q0 -145 -102 -236t-174 -100v-4q43 -6 86 -18t95 -40t91 -66t65.5 -99t26.5 -135q0 -119 -78.5 -223.5t-191.5 -161.5t-223 -57q-104 0 -211 10t-158 10q-31 0 -87 -2t-101 -3t-47 -1q-18 0 -24.5 5t-6.5 19zM436 287 q0 -51 5 -80t23.5 -65t68 -53t126.5 -17q168 0 263.5 89t95.5 216q0 37 -7 73.5t-36 89t-76 90.5t-135 65.5t-205 27.5q-90 0 -106.5 -11.5t-16.5 -70.5v-354zM436 850q2 -25 18.5 -30t104.5 -5q391 0 391 236q0 141 -121.5 222t-273.5 81q-55 0 -82 -12.5t-32 -27t-5 -44.5 v-420z" />
<glyph unicode="C" horiz-adv-x="1478" d="M86 676q0 104 29.5 210.5t93 208t152 179.5t215 125t274.5 47q96 0 196.5 -21.5t165 -43t72.5 -21.5q23 0 47.5 22.5t30.5 22.5q45 0 45 -31q0 -25 -17.5 -76t-17.5 -73q0 -33 2 -80t2 -80q0 -43 -16.5 -65.5t-40.5 -22.5q-37 0 -37 35q0 8 2 21.5t2 19.5 q0 131 -146.5 216t-293.5 85q-233 0 -399 -188.5t-166 -475.5q0 -268 178 -448.5t434 -180.5q213 0 377 138q23 20 41 58t29.5 64.5t21.5 26.5q57 0 57 -59q0 -27 -27.5 -95.5t-37.5 -105.5q-4 -16 -8.5 -43t-11.5 -36t-25 -9q-12 0 -38 13.5t-54 13.5q-12 0 -131 -29 t-246 -29q-305 0 -529.5 197t-224.5 510z" />
<glyph unicode="D" horiz-adv-x="1669" d="M35 18v23q0 23 31 27q2 0 16 1t25.5 2t30 5t32.5 9t29.5 15.5t25.5 24.5q29 51 29 162v841q0 111 -29 162q-8 14 -21.5 25.5t-26.5 17.5t-28.5 10.5t-25.5 5.5t-22.5 2t-14.5 1q-31 4 -31 26v23q0 14 6.5 19t24.5 5t117 -4q72 -6 139 -6q45 0 205 17q190 14 284 14 q119 0 247 -39t247 -116t195.5 -211t76.5 -304q0 -184 -62 -328.5t-154.5 -230.5t-213 -141.5t-226 -75.5t-204.5 -20q-57 0 -199.5 10t-195.5 10q-43 0 -143.5 -3t-132.5 -3q-18 0 -24.5 5t-6.5 19zM428 287q0 -59 1 -91t16.5 -59.5t27.5 -38t57 -18.5t80 -8h121 q289 0 480.5 156.5t191.5 459.5q-2 313 -208 489.5t-493 176.5q-92 0 -150 -11.5t-84 -36t-33 -47t-7 -61.5v-911z" />
<glyph unicode="E" horiz-adv-x="1327" d="M49 18v23q0 23 31 27l14 2q14 0 24.5 1t28 5t30.5 9t28.5 15.5t25.5 24.5q29 51 29 162v841q0 111 -29 162q-8 14 -19 25.5t-21.5 17.5t-24.5 10.5t-21.5 5.5t-19.5 3h-12q-31 4 -31 26v23q0 14 6 19t25 5q8 0 163 -4q121 -6 390 -6q211 0 354 17q33 2 76 8t57 6 t26.5 -14.5t12.5 -24.5q0 -2 -10.5 -36t-10.5 -68q0 -6 5.5 -65.5t5.5 -63.5q0 -20 -14.5 -38t-34.5 -18q-29 0 -29 25q0 8 1 21.5t1 19.5q0 61 -68 100q-31 16 -154.5 27.5t-172.5 11.5q-135 0 -190.5 -9t-71 -30.5t-15.5 -77.5v-354q0 -41 9.5 -50t50.5 -9h251 q133 0 166 24.5t42.5 64.5t13.5 66.5t26 26.5q47 0 47 -57q0 -2 -7 -60.5t-7 -87.5q0 -55 8 -127t8 -86q0 -10 -13 -21.5t-28 -11.5q-20 0 -28 23l-23 61q-14 39 -45 64q-35 29 -160 28h-251q-35 0 -47.5 -14t-12.5 -55v-367q0 -115 47 -143.5t244 -28.5q154 0 267.5 32 t142.5 91q10 23 16 50.5t9 48t7 37t10.5 25.5t18.5 9q63 0 64 -82q0 -25 -24 -97.5t-24 -113.5q0 -10 1 -34.5t1 -37.5q0 -14 -11 -27t-21 -13q-2 0 -6.5 2t-15.5 4t-27 4q-61 10 -226 10h-352q-78 0 -252 -3t-223 -3q-18 0 -24.5 5t-6.5 19z" />
<glyph unicode="F" horiz-adv-x="1214" d="M92 18v23q0 23 31 27l12 2q10 0 18.5 1t22.5 5t24.5 9t21.5 15.5t20 24.5q29 51 28 162v841q0 111 -28 162q-8 14 -19.5 25.5t-22 17.5t-24.5 10.5t-21.5 5.5t-19.5 3h-12q-31 4 -31 26v23q0 14 6 19t25 5q14 0 33.5 -1t54.5 -2t63 -1q117 -6 381 -6q219 0 375 17 q23 2 42.5 4t31.5 4t21.5 3t13.5 3h6q14 0 26.5 -14.5t12.5 -24.5q0 -2 -10.5 -36t-10.5 -68q0 -6 5.5 -65.5t5.5 -63.5q0 -20 -14.5 -38t-35.5 -18q-29 0 -28 25q0 8 1 21.5t1 19.5q0 61 -68 100q-31 16 -155.5 27.5t-174.5 11.5q-125 0 -176 -9t-65.5 -30.5t-14.5 -77.5 v-354q0 -41 9.5 -50t50.5 -9h252q133 0 165.5 24.5t42 64.5t13.5 66.5t27 26.5q47 0 47 -57q0 -2 -7.5 -60.5t-7.5 -87.5q0 -55 8.5 -127t8.5 -86q0 -10 -13.5 -21.5t-27.5 -11.5q-20 0 -29 23l-22 61q-14 39 -46 64q-35 29 -159 28h-252q-35 0 -47.5 -14t-12.5 -55v-344 q0 -111 29 -162q8 -14 25.5 -24.5t37 -15.5t44 -9t42 -5t37 -2t21.5 -1q31 -4 31 -27v-23q0 -14 -6.5 -19t-24.5 -5q-41 0 -155.5 3t-166.5 3q-31 0 -87 -2t-101 -3t-47 -1q-18 0 -24.5 5t-6.5 19z" />
<glyph unicode="G" horiz-adv-x="1630" d="M82 688q0 301 236.5 529.5t574.5 228.5q143 0 276.5 -51.5t167.5 -51.5q8 0 26.5 30t37.5 30q10 0 27.5 -13.5t17.5 -25.5q-39 -90 -39 -154q0 -18 1 -59t1 -59q0 -63 -49 -64q-39 0 -39 39q0 117 -127 202t-295 85q-260 0 -441.5 -181.5t-181.5 -461.5 q0 -276 172.5 -463t428.5 -187q111 0 222 43t148 99q12 18 13 71v138q0 61 -23 82q-12 10 -29.5 18t-35 11t-32 5t-28.5 3t-16 1q-31 4 -31 27v23q0 14 6 19t25 5q16 0 106 -3t129 -3q41 0 128 3t105.5 3t24.5 -5t6 -19v-23q0 -23 -30 -27h-13q-10 -2 -18 -3t-22.5 -5 t-24.5 -9t-21.5 -15.5t-19.5 -24.5q-12 -29 -12 -160q0 -55 12 -88.5t25 -43.5l26 -17q12 -8 12 -19q0 -12 -9 -27.5t-15 -15.5t-24.5 1t-22.5 1q-55 0 -146.5 -34.5t-214.5 -68.5t-256 -34q-94 0 -192.5 24.5t-196.5 80t-176 136.5t-126 204.5t-48 273.5z" />
<glyph unicode="H" horiz-adv-x="1669" d="M72 18v23q0 23 30 27l13 2q10 0 18 1t22.5 5t24.5 9t21.5 15.5t19.5 24.5q29 51 29 162v841q0 111 -29 162q-8 14 -19.5 24.5t-21.5 15.5t-24.5 9t-22.5 5.5l-18 3.5h-13q-31 4 -30 26v23q0 14 6 19t24 5q2 0 47.5 -2t101.5 -3t87 -1q33 0 88 1t99 3t46 2q18 0 24.5 -5 t6.5 -19v-23q0 -23 -31 -26h-10l-20.5 -3.5t-22.5 -5.5t-24.5 -9t-21.5 -15t-19 -25q-29 -51 -29 -162v-276q0 -43 13.5 -52t54.5 -9h684q29 0 40 2t19 15t8 44v276q0 111 -29 162q-8 14 -19 24.5t-21.5 15.5t-24.5 9t-22.5 5.5l-20.5 3.5h-10q-31 4 -31 26v23q0 14 6 19 t25 5q2 0 46 -2t99 -3t88 -1q31 0 87.5 1t101.5 3t47 2q18 0 24 -5t6 -19v-23q0 -23 -30 -26h-13l-18 -3.5t-22.5 -5.5t-24.5 -9t-21.5 -15t-19.5 -25q-29 -51 -29 -162v-841q0 -111 29 -162q8 -14 19.5 -24.5t21.5 -15.5t24.5 -9t22.5 -5t18 -1l13 -2q31 -4 30 -27v-23 q0 -14 -6 -19t-24 -5q-2 0 -47 1t-101.5 3t-87.5 2q-33 0 -88 -2t-99 -3t-46 -1q-18 0 -24.5 5t-6.5 19v23q0 23 31 27l10 2q12 0 20.5 1t22.5 5t24.5 9t21.5 15.5t19 24.5q29 51 29 162v340q0 43 -13 52t-54 9h-684q-29 0 -40.5 -2t-19.5 -15.5t-8 -43.5v-340 q0 -111 29 -162q8 -14 19 -24.5t21.5 -15.5t24.5 -9t22.5 -5t20.5 -1l10 -2q31 -4 31 -27v-23q0 -14 -6 -19t-25 -5q-2 0 -46 1t-99 3t-88 2q-31 0 -87 -2t-101.5 -3t-47.5 -1q-18 0 -24 5t-6 19z" />
<glyph unicode="I" horiz-adv-x="681" d="M76 18v23q0 23 30 27l13 2q10 0 18 1t22.5 5t25 9t21.5 15.5t19 24.5q29 51 29 162v841q0 111 -29 162q-8 14 -19 24.5t-21.5 15.5t-25 9t-22.5 5.5l-18 3.5h-13q-31 4 -30 26v23q0 14 6 19t24 5q2 0 47.5 -2t101.5 -3t87 -1q33 0 88 1t99 3t46 2q18 0 24.5 -5t6.5 -19 v-23q0 -23 -31 -26h-10q-12 -2 -20 -3.5t-22.5 -5.5t-25 -9t-21.5 -15t-19 -25q-29 -51 -29 -162v-841q0 -111 29 -162q8 -14 19 -24.5t21.5 -15.5t25 -9t22.5 -5t20 -1l10 -2q31 -4 31 -27v-23q0 -14 -6 -19t-25 -5q-10 0 -100 3t-133 3q-41 0 -132 -3t-104 -3q-18 0 -24 5 t-6 19z" />
<glyph unicode="J" horiz-adv-x="757" d="M2 -342q0 31 25.5 54.5t64.5 23.5q27 0 47.5 -7.5t30.5 -14.5t12 -7q139 0 140 436v985q0 207 -138 207q-20 0 -51 -5t-45 -5q-31 4 -31 27v22q0 53 115 53q33 0 110.5 -6t133.5 -6q41 0 131 3t108 3q31 0 31 -32q0 -41 -37 -41q-59 0 -83.5 -8.5t-45.5 -47.5 q-25 -39 -24 -164v-985q0 -227 -140.5 -395t-265.5 -168q-31 0 -59.5 21.5t-28.5 56.5z" />
<glyph unicode="K" horiz-adv-x="1441" d="M72 18v23q0 23 30 27l13 2q10 0 18 1t22.5 5t24.5 9t21.5 15.5t19.5 24.5q29 51 29 162v841q0 111 -29 162q-8 14 -19.5 24.5t-21.5 15.5t-24.5 9t-22.5 5.5l-18 3.5h-13q-31 4 -30 26v23q0 14 6 19t24 5q2 0 47.5 -2t101.5 -3t87 -1q33 0 88 1t99 3t46 2q18 0 24.5 -5 t6.5 -19v-23q0 -23 -31 -26h-10l-20.5 -3.5t-22.5 -5.5t-24.5 -9t-21.5 -15t-19 -25q-29 -51 -29 -162v-333q0 -70 14 -70q10 0 29 14l381 361q33 29 93 101.5t60 101.5q0 12 -7 21t-20 13t-23.5 6.5t-24.5 4.5h-15q-31 4 -30 26v23q0 14 6 19t24 5q16 0 106.5 -3t129.5 -3 q37 0 112.5 3t96.5 3q18 0 24 -5t6 -19v-23q0 -23 -30 -26q-90 -8 -137 -37q-66 -39 -205 -170l-348 -330q-18 -18 -19 -33q0 -12 47 -65l369 -422q61 -66 170 -168q47 -45 153 -55q31 -4 31 -27v-23q0 -14 -6 -19t-25 -5q-2 0 -46 1t-99 3t-88 2q-39 0 -107.5 -2t-122 -3 t-55.5 -1q-18 0 -24 5t-6 19v23q0 23 30 27q2 0 15.5 1t25 3t24.5 5t20.5 11t7.5 18q0 16 -9.5 34t-30 42.5t-22.5 28.5l-350 399q-29 33 -51 33q-10 0 -34 -16.5t-30 -30.5q-10 -23 -10 -70v-239q0 -111 29 -162q8 -14 19 -24.5t21.5 -15.5t24.5 -9t22.5 -5t20.5 -1l10 -2 q31 -4 31 -27v-23q0 -14 -6 -19t-25 -5q-29 0 -111.5 3t-121.5 3t-126 -3t-110 -3q-18 0 -24 5t-6 19z" />
<glyph unicode="L" horiz-adv-x="1251" d="M78 18v23q0 23 31 27l12 2q12 0 19 1t22.5 5t26 9t22.5 15.5t20 24.5q29 51 29 162v841q0 111 -29 162q-8 14 -19 24.5t-21.5 15.5t-24.5 9t-22.5 5.5l-20.5 3.5h-10q-31 4 -31 26v23q0 14 6 19t25 5q20 0 108 -3t127 -3t124 3t110 3q18 0 24 -5t6 -19v-23q0 -23 -30 -26 h-13l-18 -3.5t-22.5 -5.5t-24.5 -9t-21.5 -15t-19.5 -25q-29 -51 -29 -162v-864q0 -115 37 -143.5t193 -28.5q154 0 267 32t142 91q10 23 16.5 50.5t9.5 48t7 37t10 25.5t19 9q63 0 63 -82q0 -25 -23.5 -97.5t-23.5 -113.5q0 -10 1 -34.5t1 -37.5q0 -14 -11.5 -27t-21.5 -13 q-8 0 -25.5 4t-29.5 6q-47 10 -166 10h-344q-76 0 -235.5 -3t-210.5 -3q-18 0 -24.5 5t-6.5 19z" />
<glyph unicode="M" horiz-adv-x="1933" d="M45 18v23q0 23 31 27q2 0 14 1l24 2q11 1 27.5 5t29.5 9t27.5 15.5t22.5 24.5q31 51 31 162q0 4 7 155.5t14.5 348t7.5 307.5q0 76 -7.5 121t-14.5 57t-21 27q-35 37 -88 45q-31 4 -31 26v23q0 25 39 24q8 -6 127 -6q16 0 53 3t55 3q14 0 20.5 -2t12.5 -11t9 -21.5 t14.5 -41t27.5 -59.5l498 -948l448 833l30 62q24 49 35 77.5t11 43.5q0 6 -6 19t-6 22q0 27 31 26q23 0 67.5 -3t67.5 -3q137 0 147 6q18 0 24.5 -5t6.5 -19v-23q0 -23 -31 -26h-10l-20.5 -3.5t-22.5 -5.5t-24.5 -9t-21.5 -15t-20 -25q-18 -35 -18 -184v-819q0 -111 29 -162 q8 -14 19 -24.5t21.5 -15.5t25 -9t22.5 -5t18 -1l12 -2q31 -4 31 -27v-23q0 -14 -6 -19t-25 -5q-2 0 -46 1t-99 3t-88 2q-31 0 -87 -2t-101.5 -3t-47.5 -1q-18 0 -24 5t-6 19v23q0 23 30 27l11 2q12 0 20 1t22.5 5t25 9t21.5 15.5t19 24.5q29 51 29 162v792h-4 q-117 -190 -259.5 -456.5t-201.5 -429.5q-12 -31 -23.5 -70l-18.5 -61.5t-16.5 -43t-18.5 -29.5t-23 -9q-20 0 -30.5 10t-18 37.5t-13.5 61.5t-24.5 97.5t-44.5 130.5q-43 113 -122 259.5t-182 319.5l-114 194h-4q-16 -606 -17 -803q0 -113 37 -162q8 -14 20.5 -24.5 t26 -15.5t29.5 -9t28 -5l23 -2q12 -1 14 -1q31 -4 31 -27v-23q0 -14 -6 -19t-25 -5q-2 0 -51 1t-110.5 3t-94.5 2q-27 0 -74.5 -2t-85.5 -3t-40 -1q-18 0 -24.5 5t-6.5 19z" />
<glyph unicode="N" horiz-adv-x="1781" d="M86 18v23q0 23 31 27l12 2q12 0 21.5 1t23.5 5t25.5 9t22.5 15.5t20 24.5q37 57 37 162v811q0 25 -2.5 46t-5.5 36.5t-9 31.5l-9 25q-3 8 -13.5 21.5t-13.5 16.5t-14 16.5t-13 15.5q-29 31 -80 41q-31 4 -31 26v23q0 25 39 24q6 -6 84 -6q16 0 53 3t55 3q20 0 30.5 -5 t16 -13t23 -31.5t43.5 -50.5q2 -2 108 -114l231 -244l311 -317q185 -183 343 -324v788q0 104 -32 162q-8 16 -18.5 28.5t-24 19.5t-25.5 12t-26.5 8t-23.5 4.5l-22 3.5h-10q-31 4 -31 26v23q0 14 6.5 19t24.5 5q2 0 50 -2t106.5 -3t85.5 -1q33 0 81 1t85 3t39 2q18 0 24 -5 t6 -19v-23q0 -23 -30 -26h-11l-18 -3.5t-20.5 -4.5t-22.5 -8t-22.5 -12t-21.5 -19.5t-15 -26.5q-41 -72 -41 -164v-965q0 -47 7 -98t7 -53q0 -8 -11.5 -16.5t-27.5 -8.5q-20 0 -39.5 22.5t-48.5 65.5t-57 72l-152 154l-277 280l-301 299l-247 240v-815q0 -111 41 -162 q10 -14 24.5 -24.5t29.5 -15.5t34.5 -9t31.5 -5l26 -2q13 -1 15 -1q31 -4 31 -27v-23q0 -14 -6 -19t-25 -5q-2 0 -51 1t-110.5 3t-94.5 2q-27 0 -74.5 -2t-85.5 -3t-40 -1q-18 0 -24.5 5t-6.5 19z" />
<glyph unicode="O" horiz-adv-x="1669" d="M78 705q0 307 218 524t535 217q322 0 539 -215t217 -526q0 -303 -214 -519.5t-533 -216.5q-328 0 -545 215.5t-217 520.5zM272 811q0 -190 71 -359t210 -280t317 -111q219 0 371 153t152 388q0 193 -70 362t-207 279.5t-313 110.5q-223 0 -377 -155t-154 -388z" />
<glyph unicode="P" horiz-adv-x="1138" d="M53 18v23q0 23 31 27l14 2q12 0 20.5 1t24 5t26.5 9t24.5 15.5t21.5 24.5q29 51 29 162v841q0 111 -29 162q-8 12 -19.5 22.5t-21.5 15.5t-24.5 9t-23.5 5t-19.5 2.5t-12.5 1.5q-31 4 -31 26v23q0 20 6.5 25t24.5 5q20 0 94 -4q57 -6 109 -6q45 0 168 17q143 14 201 14 q190 0 313 -104.5t123 -274.5q0 -154 -121 -265.5t-297 -111.5q-74 0 -157 30t-83 68q0 12 11.5 22.5t25.5 10.5q10 0 67.5 -19.5t106.5 -19.5q106 0 179 73t73 179q0 145 -108.5 232.5t-247.5 87.5q-96 0 -114.5 -34t-18.5 -192v-841q0 -111 28 -162q10 -14 25.5 -24.5 t31 -15.5t35 -9t31 -5t25.5 -2t16 -1q31 -4 31 -27v-23q0 -14 -6 -19t-25 -5q-2 0 -54 1t-118.5 3t-105.5 2q-35 0 -94.5 -2t-105.5 -3t-48 -1q-18 0 -24.5 5t-6.5 19z" />
<glyph unicode="Q" horiz-adv-x="1669" d="M78 705q0 307 218 524t535 217q322 0 539 -215t217 -526q0 -303 -214 -519.5t-533 -216.5q-14 0 -56 4l-4 -4q57 -20 181 -89.5t242 -121t204 -51.5q57 0 115.5 27.5t60.5 27.5q20 0 21 -34q0 -23 -33 -55.5t-105.5 -62.5t-160.5 -30q-106 0 -208 40t-163 88l-128 105 q-67 56 -97 72q-35 20 -75 27.5t-59.5 10.5t-19.5 11q0 41 76 60v4q-244 53 -398.5 251t-154.5 456zM272 811q0 -190 71 -359t210 -280t317 -111q219 0 371 153t152 388q0 193 -70 362t-207 279.5t-313 110.5q-223 0 -377 -155t-154 -388z" />
<glyph unicode="R" horiz-adv-x="1327" d="M72 18v23q0 23 30 27l13 2q12 0 19 1t22.5 5t26 9t22.5 15.5t20 24.5q29 51 29 162v841q0 111 -29 162q-8 12 -19 22.5t-21.5 15.5t-25 9t-23.5 5t-19.5 2.5t-12.5 1.5q-31 4 -30 26v23q0 20 6 25t24 5q20 0 95 -4q59 -6 108 -6q63 0 207 17q172 14 223 14q201 0 323 -86 t122 -262q0 -86 -34 -157t-83 -112t-98 -70.5t-83 -47t-34 -25.5q0 -55 150.5 -311t269.5 -328q59 -35 75.5 -48t16.5 -28q0 -18 -17.5 -29.5t-39.5 -11.5q-74 0 -234 109q-113 84 -207 222t-148 251t-67 123q-25 20 -176 20q-20 0 -27.5 -1t-12.5 -6t-5 -17v-344 q0 -111 29 -162q8 -14 21.5 -24.5t26.5 -15.5t28.5 -9t25.5 -5t23 -1l14 -2q31 -4 31 -27v-23q0 -14 -6.5 -19t-24.5 -5q-29 0 -120 3t-134 3q-35 0 -92 -2t-101.5 -3t-46.5 -1q-18 0 -24 5t-6 19zM428 819q0 -59 17.5 -75.5t103.5 -16.5q182 0 310 73.5t128 217.5 q0 80 -29.5 141.5t-72.5 97t-100.5 58t-105.5 31t-95 8.5q-156 0 -156 -74v-461z" />
<glyph unicode="S" d="M76 2q0 20 15 52t15 73q0 53 -6 115.5t-6 70.5q0 135 86 136q31 0 31 -39q0 -6 -2 -31t-2 -35q0 -119 65.5 -201t227.5 -82q154 0 237.5 77t83.5 196q0 61 -26.5 111.5t-79.5 89t-102.5 66.5t-130.5 67t-126 65q-229 131 -229 346q0 180 127 273.5t297 93.5 q41 0 102.5 -8t107.5 -17.5t50 -9.5q18 0 43 21.5t27 21.5q47 0 47 -45q0 -4 -11.5 -47t-11.5 -66q0 -41 10.5 -95t10.5 -68q0 -33 -18.5 -52.5t-41.5 -19.5q-43 0 -43 37q0 127 -92 191.5t-186 64.5q-109 0 -186.5 -61.5t-77.5 -149.5q0 -82 64.5 -149.5t146.5 -105.5 l191 -91q110 -53 165 -95q147 -113 147 -299q0 -203 -156.5 -318.5t-353.5 -115.5q-78 0 -174 19.5t-102 19.5q-23 0 -46.5 -22.5t-33.5 -22.5t-31.5 12.5t-21.5 26.5z" />
<glyph unicode="T" horiz-adv-x="1290" d="M57 1153q0 31 14.5 106.5t14.5 86.5q0 23 -2 51t-2 35q0 16 19.5 30.5t27.5 14.5q2 0 11 -6l27 -15l32 -18q63 -23 444 -23q410 0 451 23l31 18l27 15q9 5 11 5.5t13.5 -5t22.5 -16.5t11 -23q0 -6 -2 -35t-2 -51q0 -10 14.5 -86t14.5 -107q0 -59 -53 -59q-25 0 -30 26.5 t-9 68.5t-23 66q-16 23 -32.5 35.5t-70.5 22.5t-147 10q-96 0 -116.5 -19.5t-20.5 -86.5v-930q0 -111 29 -162q10 -14 25.5 -24.5t29.5 -15.5t32.5 -9t30 -5t26 -2t16.5 -1q31 -4 30 -27v-23q0 -14 -6 -19t-24 -5q-2 0 -53.5 1t-117 3t-104.5 2q-37 0 -103.5 -2t-118.5 -3 t-54 -1q-18 0 -24.5 5t-6.5 19v23q0 23 31 27q2 0 16 1t25.5 2t30 5t32.5 9t29.5 15.5t25.5 24.5q29 51 29 162v923q0 76 -20.5 94.5t-122.5 18.5q-94 0 -146.5 -10t-67 -21.5t-30.5 -36.5q-14 -20 -20.5 -50.5t-6.5 -53.5t-8 -40t-26 -17q-54 0 -54 59z" />
<glyph unicode="U" horiz-adv-x="1669" d="M72 1374v23q0 14 6 19t24 5q2 0 47.5 -2t101.5 -3t87 -1q35 0 99.5 1t114.5 3t52 2q18 0 24.5 -5t6.5 -19v-23q0 -23 -31 -26q-2 0 -15.5 -1t-24.5 -2.5t-28.5 -5.5t-32 -9t-28.5 -15t-22 -25q-29 -51 -29 -162v-421q0 -594 479 -594q115 0 197 36.5t127 92t70.5 142.5 t32.5 163t7 178v340q0 156 -57 223q-10 14 -26.5 24.5t-31 16.5t-33 10t-29.5 5.5t-24.5 2.5t-15.5 1q-31 4 -30 26v23q0 14 6 19t24 5q2 0 47 -2t101.5 -3t87.5 -1q33 0 88 1t99 3t46 2q18 0 24.5 -5t6.5 -19v-23q0 -23 -31 -26q-80 -12 -112 -70q-27 -47 -27 -213v-406 q0 -88 -13.5 -173t-52 -182t-102 -169t-174.5 -119t-256 -47q-125 0 -223.5 31t-159.5 73t-106.5 113.5t-66 129t-32.5 143.5t-13 130t-1 118v421q0 111 -29 162q-8 14 -19.5 24.5t-21.5 15.5t-24.5 9t-22.5 5.5l-18 3.5h-13q-30 3 -30 26z" />
<glyph unicode="V" horiz-adv-x="1402" d="M-4 1374v23q0 14 6 19t25 5q2 0 51 -2t110.5 -3t96.5 -1q39 0 106.5 1t121.5 3t56 2q18 0 24.5 -5t6.5 -19v-23q0 -23 -31 -26q-2 0 -16 -1l-28 -2q-13 -1 -32.5 -4.5t-35 -9.5t-29.5 -14t-22.5 -22.5t-8.5 -30.5q0 -61 37 -154l328 -807l293 776q41 133 41 170 q0 18 -5.5 32.5t-13.5 24t-20.5 17.5t-23.5 12t-25.5 6t-22.5 3.5l-18 3.5h-13q-31 4 -30 26v23q0 14 6 19t24 5q2 0 40 -2t86 -3t77 -1q33 0 88 1t99.5 3t46.5 2q18 0 24 -5t6 -19v-23q0 -23 -30 -26q-88 -10 -123 -52q-49 -57 -105 -211l-356 -919q-14 -37 -25.5 -79 t-15.5 -61.5t-16.5 -32.5t-33 -13t-29.5 4t-16 20t-12.5 36.5l-17.5 62.5t-31 87l-377 932q-4 10 -21 50t-31.5 67t-33.5 53q-33 45 -120 56q-31 3 -31 26z" />
<glyph unicode="W" horiz-adv-x="1933" d="M-4 1374v23q0 14 6 19t25 5q2 0 51 -2t110.5 -3t96.5 -1q33 0 88 1t98 3t45 2q18 0 24.5 -5t6.5 -19v-23q0 -23 -31 -26h-16q-14 -2 -27.5 -3.5t-32 -6.5t-32 -12t-22.5 -20.5t-9 -29.5q0 -18 31 -146l229 -798h4l281 796q0 49 -70 164q-33 45 -121 56q-31 4 -31 26v23 q0 14 6.5 19t24.5 5q2 0 51 -2t110.5 -3t96.5 -1q33 0 83 1t89 3t41 2q18 0 24.5 -5t6.5 -19v-23q0 -23 -31 -26h-10l-20.5 -3.5t-22.5 -4.5t-24.5 -8t-20.5 -13t-15.5 -20.5t-5.5 -28.5q0 -37 14.5 -87t16.5 -71l227 -780h5l260 715q39 111 39 180q0 18 -5.5 35.5t-14.5 29 t-19.5 20.5t-24.5 14l-26 9q-11 4 -26 6l-24 4q-8 1 -18 3h-12q-31 4 -31 26v23q0 14 6 19t25 5q4 0 48 -2t99 -3t86 -1q27 0 73 1t81.5 3t38.5 2q18 0 24 -5t6 -19v-23q0 -23 -30 -26q-33 -4 -66 -45q-49 -61 -102 -211l-355 -926q-14 -37 -25.5 -79t-15.5 -61.5t-16 -32.5 t-33 -13q-12 0 -19 2t-13.5 10t-10.5 17t-9 28.5t-9 41t-14 56.5l-19 72l-221 756h-4l-297 -797q-14 -41 -27.5 -97.5t-25 -72.5t-37.5 -16q-12 0 -19.5 2t-13.5 10t-10 16t-10.5 27.5t-10.5 38t-13 52.5l-18 64l-258 895q-45 156 -67 197q-31 53 -135 66q-31 3 -31 26z" />
<glyph unicode="X" horiz-adv-x="1478" d="M4 18v23q0 23 31 27q86 10 162 57q68 43 243 252l207 256q31 43 31 47q0 10 -35 65l-233 336q-125 182 -170 215q-55 41 -138 52q-31 4 -30 26v23q0 14 6 19t24 5q2 0 47.5 -2t101.5 -3t87 -1q41 0 111.5 1t125 3t56.5 2q18 0 24.5 -5t6.5 -19v-23q0 -23 -31 -26h-19 q-18 -2 -33.5 -4.5t-34 -8.5t-29.5 -16t-11 -27q0 -33 61 -125l230 -348l204 268q104 139 105 185q0 25 -24.5 43t-46 24.5t-36.5 8.5q-31 4 -30 26v23q0 14 6 19t24 5q2 0 42 -2t90.5 -3t78.5 -1q33 0 88.5 1t99.5 3t46 2q18 0 24.5 -5t6.5 -19v-23q0 -23 -31 -26 q-57 -8 -113 -41q-76 -47 -176 -174l-254 -318q-49 -59 -49 -78q0 -10 27 -47l321 -454q51 -76 84 -101q82 -59 160 -67q31 -4 31 -27v-23q0 -14 -6.5 -19t-24.5 -5q-2 0 -56.5 1t-122 3t-106.5 2q-35 0 -95.5 -2t-107.5 -3t-49 -1q-18 0 -24.5 5t-6.5 19v23q0 23 31 27 q127 14 127 67q0 16 -22 55l-273 414l-250 -334q-63 -80 -63 -120q0 -68 123 -82q31 -4 31 -27v-23q0 -14 -6.5 -19t-24.5 -5q-2 0 -46 1t-99.5 3t-88.5 2q-37 0 -103.5 -2t-119.5 -3t-55 -1q-18 0 -24.5 5t-6.5 19z" />
<glyph unicode="Y" horiz-adv-x="1251" d="M-6 1374v23q0 14 6 19t25 5q2 0 51 -2t109.5 -3t90.5 -1q33 0 88.5 1t99.5 3t46 2q18 0 24.5 -5t6.5 -19v-23q0 -23 -31 -26h-10q-10 -2 -16.5 -3.5t-18.5 -4.5t-20.5 -8t-16.5 -12t-12 -19.5t-4 -28.5q0 -33 84 -197l168 -334l170 297q106 186 106 244q-6 14 -13 24.5 t-16 16.5l-15 11q-7 5 -17.5 7t-14.5 4l-12 3h-10q-31 4 -31 26v23q0 14 6 19t25 5q2 0 40 -2t87 -3t78 -1q25 0 67.5 1t75.5 3t35 2q18 0 24 -5t6 -19v-23q0 -23 -30 -26q-20 -2 -63.5 -25t-63.5 -43q-59 -59 -121 -158l-207 -356q-70 -117 -70 -209v-270q0 -111 29 -162 q8 -14 21.5 -24.5t29 -15.5t33.5 -9t32 -5l27 -2q14 -1 17 -1q31 -4 31 -27v-23q0 -14 -6.5 -19t-24.5 -5q-2 0 -53.5 1t-117 3t-104.5 2q-35 0 -96 -2t-109.5 -3t-50.5 -1q-18 0 -24 5t-6 19v23q0 23 30 27q2 0 14.5 1t23 2t26.5 5t29.5 9t25.5 15.5t21 24.5q29 51 28 162 v270q0 76 -77 227l-187 353q-55 102 -102 153q-49 47 -135 58q-31 3 -31 26z" />
<glyph unicode="Z" horiz-adv-x="1441" d="M45 25q0 16 31 45l85 82q54 53 97 112l715 977q39 51 39 62q0 16 -39 18t-268 2q-49 0 -116 -3t-168.5 -23.5t-123.5 -55.5q-14 -23 -16 -63.5t-5.5 -67.5t-21.5 -27q-66 0 -66 86q0 10 18.5 110.5t18.5 166.5q0 12 13.5 22.5t23.5 10.5t22.5 -10.5t33 -21.5t92 -21.5 t184.5 -10.5q66 0 459 6q197 6 256 6q20 0 29.5 -7t9.5 -36q0 -12 -14.5 -19t-46.5 -27.5t-62 -59.5l-801 -1106l-11 -16l-12 -17q-4 -6 -8 -16t-4 -19q0 -12 72 -12q225 0 372.5 9.5t216 29t88 29.5t42.5 30q35 33 42 82.5t11 81t29 31.5q68 0 67 -86q0 -35 -24.5 -123 t-24.5 -192q0 -35 -49 -35q-2 0 -35 22.5t-53 24.5q-57 4 -522 4q-111 0 -303.5 -3t-237.5 -3q-20 0 -27.5 5.5t-7.5 25.5z" />
<glyph unicode="[" horiz-adv-x="681" d="M131 -242q0 2 16.5 28t33 72t16.5 93q0 8 3 70.5t6 156.5t3 180q0 252 -16 314q-6 20 -19.5 46.5t-13.5 33t13 32t20 43.5q16 61 16 314q0 68 -3 143.5t-6 125.5t-3 56q0 47 -16.5 93.5t-33 72t-16.5 27.5q0 10 12.5 30.5t18.5 20.5q16 0 115.5 -9t162.5 -9q49 0 100.5 5 t85 10t40.5 5q20 0 20 -20q0 -27 -18.5 -48.5t-60.5 -41t-57 -25.5t-63 -23q-20 -8 -20 -34v-1622q0 -27 20 -35q152 -53 185 -99q14 -18 14 -38.5t-20 -20.5q-6 0 -40 5t-85.5 10.5t-100.5 5.5q-63 0 -162.5 -9.5t-115.5 -9.5q-6 0 -18.5 20.5t-12.5 30.5zM330 748 q0 -92 3 -290t6 -362t3 -172q0 -66 35 -65q33 0 33 65v1569q0 66 -33 66q-35 0 -35 -66q0 -8 -3 -156.5t-6 -327.5t-3 -261z" />
<glyph unicode="\" horiz-adv-x="681" d="M43 1425q0 20 20 21h56q33 0 44 -12.5t23 -53.5l447 -1357l6 -31q0 -16 -7 -19.5t-30 -3.5h-53q-33 0 -49 49l-445 1356q-10 24 -12 51z" />
<glyph unicode="]" horiz-adv-x="681" d="M12 -274q0 27 18.5 48t60.5 40.5t57.5 25.5t62.5 23q20 8 20 35v1622q0 27 -20 34q-152 53 -184 99q-14 18 -14.5 38.5t20.5 20.5q6 0 39.5 -5t85 -10t100.5 -5q63 0 162.5 9t116.5 9q6 0 18 -20.5t12 -30.5q0 -2 -16 -27.5t-32.5 -72t-16.5 -93.5q0 -6 -3 -56t-6.5 -126 t-3.5 -143q0 -252 17 -314q6 -18 19.5 -43.5t13.5 -32t-13.5 -33t-19.5 -46.5q-16 -61 -17 -314q0 -86 3.5 -180t6.5 -156.5t3 -70.5q0 -47 16.5 -93t32.5 -72t16 -28q0 -10 -12 -30.5t-18 -20.5q-16 0 -115.5 9.5t-163.5 9.5q-49 0 -100.5 -5.5t-85 -10.5t-39.5 -5 q-21 1 -21 21zM289 -76q0 -66 33 -65q35 0 34 65q0 8 3 172l6.5 361.5t3.5 290.5q0 82 -3.5 261l-6.5 327.5t-3 156.5q0 66 -34 66q-33 0 -33 -66v-1569z" />
<glyph unicode="^" d="M37 598l436 817h125l424 -817h-131l-359 684l-364 -684h-131z" />
<glyph unicode="_" horiz-adv-x="1024" d="M0 -133h1024v-105h-1024v105z" />
<glyph unicode="`" horiz-adv-x="686" d="M90 1206q0 25 55.5 57.5t73.5 32.5q20 0 53 -18l281 -156q41 -20 41 -45q0 -18 -35 -18q-8 0 -33 6l-391 109q-45 12 -45 32z" />
<glyph unicode="a" horiz-adv-x="1024" d="M66 160q0 86 62 155.5t157.5 111.5t178.5 64.5t154 32.5v82q0 244 -165 244q-61 0 -104.5 -40t-43.5 -73q0 -14 8.5 -41.5t8.5 -29.5q0 -18 -13.5 -29.5t-25.5 -11.5q-16 0 -58.5 51t-42.5 72q0 29 51.5 77.5t142.5 93t177 44.5q66 0 111 -24t68.5 -54.5t34.5 -88t13 -95 t2 -105.5q0 -39 -6 -112.5t-6 -112.5q0 -248 88 -248q20 0 45 19.5t37 19.5q35 0 35 -35q0 -45 -75 -101.5t-140 -56.5q-94 0 -131 133q-53 -47 -144.5 -90t-195.5 -43q-106 0 -164.5 52.5t-58.5 138.5zM270 217q0 -135 115 -135q57 0 116.5 31.5t86.5 83.5q37 63 37 159 q0 45 -11.5 60.5t-40.5 15.5q-96 0 -199.5 -70.5t-103.5 -144.5z" />
<glyph unicode="b" horiz-adv-x="1175" d="M66 1333v19q0 23 38 30q61 12 119 38t88.5 44.5t40.5 18.5q14 0 24.5 -14.5t10.5 -26.5q0 -4 -10 -55.5t-10 -94.5v-456q127 127 295 127q182 0 317 -135.5t135 -327.5q0 -213 -157.5 -372t-362.5 -159q-70 0 -168 28t-145 28q-39 0 -88.5 -24t-53.5 -24 q-20 0 -31.5 10.5t-13.5 16.5t-2 12q0 10 21 39q2 2 22.5 20.5t34.5 43t20 63.5q12 86 13 115v862q0 49 -4 70.5t-29 42t-76 37.5q-8 0 -18 7t-10 17zM367 297q0 -96 57 -166t182 -70q139 0 231.5 101.5t92.5 259.5q0 174 -104.5 290.5t-239.5 116.5q-78 0 -126 -20.5 t-66.5 -61t-22.5 -67.5t-4 -72v-311z" />
<glyph unicode="c" horiz-adv-x="948" d="M72 457q0 201 155.5 353.5t374.5 152.5q121 0 184.5 -38t63.5 -94q0 -39 -32 -69.5t-75 -30.5q-47 0 -122.5 59.5t-137.5 59.5q-74 0 -150.5 -71.5t-76.5 -239.5q0 -190 104.5 -308t245.5 -118q80 0 138.5 33.5t90 66.5t50.5 33q12 0 22.5 -11.5t10.5 -21.5 q0 -76 -114 -160t-267 -84q-201 0 -333 136.5t-132 351.5z" />
<glyph unicode="d" horiz-adv-x="1214" d="M84 446q0 209 146.5 363t353.5 154q174 0 262 -62v258q0 49 -4 70.5t-29 42t-76 37.5q-8 0 -18 7t-10 17v19q0 23 39 30q61 12 118.5 38t88 44.5t40.5 18.5q14 0 24.5 -14.5t10.5 -26.5q0 -4 -10 -55.5t-10 -94.5v-1016q0 -49 4 -70.5t28.5 -43t75.5 -37.5q8 0 18.5 -7 t10.5 -18v-18q0 -23 -39 -31q-61 -10 -118.5 -29.5t-88.5 -35t-41 -15.5q-14 0 -24.5 14.5t-10.5 26.5q0 2 10.5 41t10.5 64h-4q-45 -78 -132 -113t-173 -35q-186 0 -319.5 131t-133.5 346zM248 528q0 -182 111.5 -298.5t252.5 -116.5q131 0 182.5 55t51.5 129v373 q0 76 -88 138t-207 62q-117 0 -210 -92t-93 -250z" />
<glyph unicode="e" horiz-adv-x="985" d="M74 424q0 127 48 233.5t122.5 171t161 99.5t167.5 35q172 0 269.5 -101.5t97.5 -226.5q0 -74 -31 -74h-651q0 -127 33 -220t85 -140t103 -67.5t105 -20.5q66 0 127 29.5t97 65.5l63 65q28 30 32 30q45 0 45 -43q0 -72 -130 -181.5t-304 -109.5q-188 0 -314 127t-126 328z M274 668q0 -14 91 -15h321q49 0 49 45q0 57 -63.5 104.5t-151.5 47.5q-106 0 -176 -65.5t-70 -116.5z" />
<glyph unicode="f" horiz-adv-x="681" d="M55 18v23q0 23 31 27q27 4 70 21t61.5 52t18.5 115v573h-101q-33 0 -41 4.5t-8 26.5v37q0 25 10 30t39 5h101q0 94 33.5 218t106.5 228.5t161 104.5q31 0 52 -21.5t21 -54.5q0 -47 -27.5 -73.5t-56.5 -26.5q-31 0 -49 12t-26 12q-51 0 -52 -227v-172h162q41 0 50.5 -5 t9.5 -30v-37q0 -23 -10.5 -27t-49.5 -4h-162v-573q0 -70 35 -115q12 -16 30.5 -28.5t37 -19.5t39 -13t35 -8t26.5 -2l12 -2q31 -4 31 -27v-23q0 -14 -6 -19t-25 -5q-55 0 -144 3t-130 3q-39 0 -126 -3t-128 -3q-18 0 -24.5 5t-6.5 19z" />
<glyph unicode="g" d="M41 -238q0 162 256 261q-45 29 -64.5 43t-38 43.5t-18.5 66.5t21.5 48.5t76 26.5t101.5 48q-90 23 -172 106.5t-82 200.5q0 143 118.5 250t290.5 107q39 0 133.5 -26t157.5 -26q86 0 137 19q45 18 52 18q27 0 26 -53q0 -131 -90 -131q-47 0 -137 45l-4 -4q76 -82 76 -180 q0 -92 -42 -163t-106.5 -109t-125 -55t-111.5 -17q-33 -14 -68 -45t-35 -41q0 -43 69.5 -58.5t184.5 -24t172 -28.5q201 -76 201 -250q0 -131 -148.5 -239.5t-379.5 -108.5q-207 0 -329 85t-122 191zM215 -195q0 -98 88 -162.5t238 -64.5q147 0 226 59.5t79 135.5 q0 88 -92 148.5t-271 60.5q-106 0 -187 -52.5t-81 -124.5zM305 651q0 -113 55.5 -195.5t159.5 -82.5q80 0 133.5 58t53.5 155q0 131 -64.5 207.5t-148.5 76.5q-82 0 -135.5 -61.5t-53.5 -157.5z" />
<glyph unicode="h" horiz-adv-x="1214" d="M66 1333v19q0 23 38 30q61 12 119 38t88.5 44.5t40.5 18.5q14 0 24.5 -14.5t10.5 -26.5q0 -4 -10 -55.5t-10 -94.5v-479q135 150 311 150q92 0 157.5 -31t99.5 -73t52.5 -110.5t22.5 -119.5t4 -125v-248q0 -88 10 -115q31 -66 104 -73q31 -4 31 -27v-23q0 -14 -6 -19 t-25 -5q-2 0 -40.5 1t-90 3t-84.5 2q-23 0 -66.5 -2t-78.5 -3t-39 -1q-18 0 -24.5 5t-6.5 19v23q0 23 31 27q12 2 31.5 8t44 23.5t33.5 41.5q12 39 12 115v252q0 172 -55.5 246.5t-169.5 74.5q-121 0 -189.5 -64.5t-68.5 -156.5v-352q0 -88 14 -115q31 -63 117 -73 q31 -4 30 -27v-23q0 -14 -6 -19t-24 -5q-2 0 -45 1t-98.5 3t-88.5 2q-23 0 -62.5 -2t-70.5 -3t-35 -1q-18 0 -24 5t-6 19v23q0 23 30 27q20 2 51 20t41 53q12 39 13 115v903q0 49 -4 70.5t-29 42t-76 37.5q-8 0 -18 7t-10 17z" />
<glyph unicode="i" horiz-adv-x="569" d="M49 813v18q0 23 39 31q68 12 129.5 38t95 44.5t43.5 18.5q14 0 24.5 -14.5t10.5 -26.5q0 -4 -10 -55.5t-10 -94.5v-516q0 -88 14 -115q37 -63 137 -73q31 -4 31 -27v-23q0 -14 -6 -19t-25 -5q-20 0 -114.5 3t-137.5 3q-33 0 -102.5 -3t-85.5 -3q-18 0 -24.5 5t-6.5 19v23 q0 23 31 27q27 2 63.5 20t49.5 53q12 39 12 115v383q0 49 -5 70.5t-34 42t-90 36.5q-8 0 -18.5 7.5t-10.5 17.5zM170 1247q0 53 48 92t99 39q84 0 84 -69q0 -53 -47 -95.5t-108 -42.5q-76 0 -76 76z" />
<glyph unicode="j" horiz-adv-x="569" d="M-12 -420q0 37 21.5 59.5t53.5 22.5q20 0 46 -6t30 -6q43 0 64.5 93t21.5 212v684q0 49 -5 70.5t-33.5 42t-90.5 36.5q-8 0 -18 7.5t-10 17.5v18q0 23 38 31q68 12 129.5 38t95.5 44.5t44 18.5q14 0 24.5 -14.5t10.5 -26.5q0 -4 -10.5 -55.5t-10.5 -94.5v-727 q0 -113 -42 -236.5t-116.5 -213t-158.5 -89.5q-37 0 -60.5 21.5t-23.5 52.5zM188 1247q0 53 48.5 92t99.5 39q84 0 84 -69q0 -53 -47 -95.5t-109 -42.5q-76 0 -76 76z" />
<glyph unicode="k" horiz-adv-x="1099" d="M59 1333v19q0 23 39 30q61 12 118.5 38t88.5 44.5t41 18.5q14 0 24.5 -14.5t10.5 -26.5q0 -4 -10.5 -55.5t-10.5 -94.5v-798q143 106 299 262q51 51 52 65q0 12 -5.5 20.5t-14.5 12.5t-16 6t-18 4h-10q-31 4 -31 27v22q0 14 6.5 19.5t24.5 5.5l76 -4q76 -2 111 -2 q27 0 73.5 1t84.5 3t40 2q18 0 24.5 -5t6.5 -20v-22q0 -23 -31 -27q-115 -10 -198 -78l-107 -86l-170 -147q184 -227 299 -342q63 -63 94 -90q20 -18 64.5 -34.5t62.5 -18.5q31 -4 31 -27v-23q0 -14 -6 -19t-25 -5q-2 0 -50 1t-110.5 3t-97.5 2q-23 0 -63.5 -2t-72.5 -3 t-36 -1q-18 0 -24.5 5t-6.5 19v23q0 18 31 27q4 2 25.5 5t30 10t8.5 23q0 18 -41 64l-101 133q-106 137 -135 137q-18 0 -46 -32.5t-28 -57.5v-94q0 -88 15 -115q31 -63 117 -73q31 -4 30 -27v-23q0 -14 -6 -19t-24 -5q-2 0 -45.5 1t-98.5 3t-88 2q-23 0 -62.5 -2t-71.5 -3 t-34 -1q-18 0 -24.5 5t-6.5 19v23q0 23 31 27q20 2 51 20t41 53q12 39 13 115v903q0 49 -4.5 70.5t-29 42t-75.5 37.5q-8 0 -18.5 7t-10.5 17z" />
<glyph unicode="l" horiz-adv-x="569" d="M49 18v23q0 23 31 27q27 2 63.5 20t46.5 53q12 39 13 115v903q0 49 -4 70.5t-29 42t-76 37.5q-8 0 -18 7t-10 17v19q0 23 38 30q61 12 119 38t88.5 44.5t40.5 18.5q14 0 24.5 -14.5t10.5 -26.5q0 -4 -10 -55.5t-10 -94.5v-1036q0 -88 14 -115q33 -61 147 -73 q31 -4 31 -27v-23q0 -14 -6 -19t-25 -5q-2 0 -50 1t-110.5 3t-101.5 2q-35 0 -110 -4l-76 -2q-18 0 -24.5 5t-6.5 19z" />
<glyph unicode="m" horiz-adv-x="1781" d="M55 813v18q0 23 39 31q66 12 125.5 38t93 44.5t43.5 18.5q14 0 24.5 -14.5t10.5 -26.5q0 -4 -10 -43t-10 -76q51 61 138 110.5t183 49.5q51 0 92 -13.5t74 -45.5t44 -47l38 -54l86 70q33 26 105.5 58t140.5 32q84 0 146.5 -33t96 -89.5t49 -122t15.5 -143.5v-319 q0 -88 14 -115q37 -63 127 -73q31 -4 31 -27v-23q0 -14 -6 -19t-25 -5q-29 0 -105.5 3t-115.5 3q-35 0 -105.5 -3t-97.5 -3q-18 0 -24 5t-6 19v23q0 23 30 27q25 2 59 20t48 53q12 39 12 115v319q0 111 -53 177.5t-158 66.5q-147 0 -229 -119v-444q0 -88 14 -115 q37 -63 127 -73q31 -4 31 -27v-23q0 -14 -6 -19t-25 -5q-35 0 -109.5 3t-111.5 3q-35 0 -106.5 -3t-96.5 -3q-18 0 -24 5t-6 19v23q0 23 30 27q25 2 58.5 20t48.5 53q12 39 12 115v319q0 90 -49 167t-141 77q-66 0 -113 -17.5t-73.5 -43t-41 -66.5t-18.5 -75.5t-4 -81.5 v-279q0 -88 14 -115q37 -63 127 -73q31 -4 31 -27v-23q0 -14 -6.5 -19t-24.5 -5q-33 0 -108.5 3t-112.5 3q-33 0 -102.5 -3t-100.5 -3q-18 0 -24.5 5t-6.5 19v23q0 23 31 27q25 2 58.5 20t48.5 53q12 39 12 115v383q0 86 -17 106q-23 31 -106 43q-29 5 -29 25z" />
<glyph unicode="n" horiz-adv-x="1214" d="M55 813v18q0 23 39 31q66 12 125.5 38t93 44.5t43.5 18.5q14 0 24.5 -14.5t10.5 -26.5q0 -4 -10 -43t-10 -76h4q41 57 128 108.5t179 51.5q137 0 232.5 -93.5t95.5 -294.5v-319q0 -88 14 -115q33 -66 106 -73q31 -4 31 -27v-23q0 -14 -6 -19t-25 -5q-27 0 -96 3t-104 3 q-33 0 -104.5 -3t-100.5 -3q-18 0 -24.5 5t-6.5 19v23q0 23 31 27q25 2 59.5 20t49.5 53q12 39 12 115v319q0 90 -60.5 167t-175.5 77q-78 0 -129 -23.5t-73.5 -69.5t-29.5 -88t-7 -103v-279q0 -88 14 -115q33 -66 113 -73q31 -4 30 -27v-23q0 -14 -6 -19t-24 -5 q-20 0 -93 3t-114 3q-35 0 -105.5 -3t-97.5 -3q-18 0 -24.5 5t-6.5 19v23q0 23 31 27q25 2 58.5 20t48.5 53q12 39 12 115v383q0 86 -17 106q-23 31 -106 43q-29 5 -29 25z" />
<glyph unicode="o" horiz-adv-x="1138" d="M68 461q0 219 156.5 360.5t344.5 141.5q195 0 349.5 -142.5t154.5 -353.5q0 -219 -155.5 -358.5t-350.5 -139.5q-193 0 -346 136.5t-153 355.5zM252 545q0 -197 112.5 -340.5t249.5 -143.5q123 0 199 90.5t76 233.5q0 190 -99.5 337.5t-259.5 147.5q-119 0 -198.5 -91 t-79.5 -234z" />
<glyph unicode="p" horiz-adv-x="1175" d="M41 793v18q0 20 39 31q63 14 118.5 45t85 53.5t38.5 22.5q14 0 24 -14.5t10 -26.5q0 -4 -10 -44t-10 -77q47 47 77.5 72.5t104.5 57.5t156 32q190 0 317 -138.5t127 -347.5q0 -211 -148.5 -359.5t-359.5 -148.5q-68 0 -140.5 16.5t-98.5 43.5v-267q0 -88 14 -114 q37 -63 137 -74q31 -4 31 -27v-22q0 -14 -6 -19.5t-25 -5.5q-2 0 -49 2t-107.5 3t-95 1t-110.5 -2l-78 -4q-18 0 -24.5 5.5t-6.5 19.5v22q0 23 31 27q27 2 63.5 20.5t49.5 53.5q12 41 12 114v795q0 82 -32 145.5t-105 65.5q-8 0 -18.5 7.5t-10.5 17.5zM371 293 q0 -109 83 -170.5t193 -61.5q137 0 222 91.5t85 248.5q0 190 -109.5 309t-256.5 119q-98 0 -157.5 -52t-59.5 -146v-338z" />
<glyph unicode="q" horiz-adv-x="1214" d="M76 432q0 213 159.5 372t370.5 159q70 0 168 -28t146 -28q37 0 77.5 38t46.5 38q20 0 31.5 -10t14 -16.5t2.5 -12.5q0 -10 -21 -39q-47 -66 -61 -155q-12 -86 -13 -115v-873q0 -88 15 -114q37 -63 137 -74q31 -4 31 -27v-22q0 -14 -6.5 -19.5t-24.5 -5.5q-31 0 -121 3 t-131 3q-33 0 -105.5 -3t-103.5 -3q-18 0 -24.5 5.5t-6.5 19.5v22q0 23 31 27q33 2 78 20.5t55 53.5q6 20 13 114l10 334q-127 -127 -305 -127q-190 0 -326.5 135t-136.5 328zM240 510q0 -172 116.5 -290t257.5 -118q78 0 126 20.5t66.5 61.5t23 68t4.5 72v311 q0 96 -57.5 165.5t-182.5 69.5q-154 0 -254 -100t-100 -260z" />
<glyph unicode="r" horiz-adv-x="796" d="M59 18v23q0 23 31 27q29 2 69 20t50 53q12 39 12 115v383q0 86 -16 106q-23 31 -107 43q-29 4 -28 25v18q0 23 39 31q66 12 125 38t92.5 44.5t44.5 18.5q14 0 24.5 -14.5t10.5 -26.5q0 -4 -10.5 -43t-10.5 -76h4q35 61 102.5 110.5t151.5 49.5q59 0 96 -33t37 -82 q0 -47 -31.5 -80t-80.5 -33q-41 0 -85 37t-55 37q-51 0 -95 -64.5t-44 -144.5v-344q0 -88 14 -115q31 -61 172 -73q31 -4 31 -27v-23q0 -14 -6 -19t-25 -5q-27 0 -123 3t-143 3q-37 0 -121 -3t-94 -3q-18 0 -24.5 5t-6.5 19z" />
<glyph unicode="s" horiz-adv-x="833" d="M61 10q0 2 13.5 45t13.5 66q0 16 -5 61t-5 60q0 94 59 94q16 0 23.5 -7t8.5 -17.5t1 -35.5q0 -102 76 -158.5t174 -56.5q94 0 145 47.5t51 114.5q0 59 -52 102.5t-128 72.5l-151 63q-76 33 -128.5 93t-52.5 144q0 113 84 189t238 76q55 0 117 -15q14 -2 32.5 -6t29.5 -6 t18 -2q20 0 37.5 17.5t35.5 17.5q31 0 31 -45q0 -6 -7 -47t-7 -50q0 -98 2 -120q0 -18 -12.5 -31.5t-37 -13.5t-30.5 36q-31 172 -207 172q-80 0 -125 -37.5t-45 -91.5q0 -55 53.5 -95t128 -70.5t149.5 -65.5t128 -98.5t53 -151.5q0 -133 -102.5 -212t-229.5 -79 q-70 0 -151 17q-16 2 -35 6t-30 6t-17 2q-49 0 -74 -16.5t-29 -16.5q-14 0 -27.5 14.5t-13.5 28.5z" />
<glyph unicode="t" horiz-adv-x="720" d="M35 848q0 20 12 28.5t43 21.5t60 38q45 41 76.5 93t44 89t27.5 62.5t38 25.5q33 0 33 -39q0 -16 -10.5 -85.5t-10.5 -149.5h287q29 0 29 -31v-45q0 -27 -29 -27h-287v-452q0 -88 7 -137.5t41 -88t100 -38.5q47 0 87 24.5t46 24.5q8 0 22.5 -12.5t14.5 -26.5 q0 -39 -85 -96.5t-167 -57.5q-113 0 -171.5 77t-58.5 200q0 72 5.5 219t5.5 221q0 49 -28 78t-51.5 35t-45.5 6q-27 0 -29 16z" />
<glyph unicode="u" horiz-adv-x="1175" d="M49 883v18q0 20 7 25.5t32 5.5q59 0 107.5 3t76 7t46 9t27.5 8.5t11 3.5l35 -41q0 -4 -21.5 -82t-25.5 -142q-14 -195 -14 -342q0 -92 60.5 -173t174.5 -81q78 0 129 32t74 83t30 93t7 87v301q0 129 -113 160q-29 8 -28 25v18q0 20 7 25.5t31 5.5q59 0 107.5 3t76 7t46 9 t28 8.5t11.5 3.5l35 -41q0 -2 -18.5 -81t-18.5 -143v-405v-52q0 -13 5 -38t15 -33t30.5 -19.5t51.5 -17.5q29 -4 29 -24v-19q0 -23 -39 -31q-59 -12 -132 -51t-100 -39l-34 41q0 4 5 43t5 76h-4q-41 -57 -128 -108.5t-179 -51.5q-137 0 -232.5 92.5t-95.5 294.5q0 33 7 167 t7 175q0 35 -3 57.5t-27.5 55.5t-71.5 47q-29 9 -29 25z" />
<glyph unicode="v" d="M-8 891v22q0 14 6 19.5t25 5.5l83 -4q84 -2 123 -2q33 0 86.5 1t95.5 3t44 2q18 0 24 -5t6 -20v-22q0 -23 -30 -27h-13q-10 -2 -19 -3t-21.5 -5t-21.5 -10t-15.5 -17.5t-6.5 -25.5q0 -33 27 -101l186 -512l144 334q86 201 86 267q0 14 -6.5 26t-13.5 18.5t-21.5 12.5 t-21.5 8t-21.5 5t-16.5 3q-31 6 -30 27v22q0 14 6 19.5t24 5.5l74 -4q76 -2 111 -2q25 0 65.5 1t72.5 3t34 2q18 0 24 -5t6 -20v-22q0 -23 -30 -27q-47 -6 -78 -37q-53 -51 -80 -118l-293 -660q-4 -8 -9 -21.5t-8 -19.5t-8.5 -13t-12.5 -12.5t-17 -7.5l-53 -6 q-10 0 -17.5 8.5t-13.5 30.5l-6 25l-242 614q-49 111 -88 162q-37 47 -108 55q-31 4 -31 27z" />
<glyph unicode="w" horiz-adv-x="1554" d="M-18 891v22q0 14 6 19.5t24 5.5l84 -4q84 -2 123 -2q31 0 76 1t79 3t36 2q18 0 24 -5t6 -20v-22q0 -23 -30 -27h-13q-10 -2 -18 -3t-20.5 -5t-20.5 -10t-14.5 -17.5t-6.5 -25.5q0 -33 27 -101l184 -462l160 321q35 86 35 103q0 12 -20.5 63t-38.5 82q-23 47 -76 55 q-31 4 -31 27v22q0 14 6 19.5t25 5.5q4 0 35.5 -2t73.5 -3t65 -1q27 0 71 1t77.5 3t35.5 2q18 0 24.5 -5t6.5 -20v-22q0 -23 -31 -27h-12q-10 -2 -17.5 -3t-18.5 -5t-18.5 -10t-13.5 -17.5t-6 -25.5q0 -33 27 -101l188 -462l139 303q78 178 78 248q0 14 -8 26t-17.5 18.5 t-26.5 12.5t-26.5 8t-28 5t-20.5 3q-31 6 -30 27v22q0 14 6 19.5t24 5.5l86 -4q86 -2 125 -2q25 0 66 1t72.5 3t33.5 2q18 0 24.5 -5t6.5 -20v-22q0 -23 -31 -27q-51 -6 -78 -37q-61 -55 -90 -125l-288 -653q-4 -10 -11.5 -26.5t-10.5 -22.5t-9 -13t-14 -12l-37 -6 q-8 0 -13.5 9.5t-10.5 30t-7 24.5l-205 514l-229 -498q-6 -10 -13 -25l-9 -23q-3 -7 -8 -14t-11 -12l-35 -6q-10 0 -17.5 8.5t-13.5 30.5l-6 25l-233 614q-4 8 -18.5 45t-29 65.5t-30.5 51.5q-37 47 -109 55q-30 4 -30 27z" />
<glyph unicode="x" horiz-adv-x="1138" d="M35 18v23q0 23 31 27q92 12 127 38q55 45 104 107l188 250l-135 201q-98 143 -137 172q-27 20 -96 28q-31 4 -31 27v22q0 14 6 19.5t25 5.5l80 -4q80 -2 114 -2q31 0 78 1t83 3t38 2q18 0 24.5 -5t6.5 -20v-22q0 -23 -31 -27q-2 0 -13.5 -1t-19.5 -2t-18 -3t-15.5 -7 t-5.5 -11q0 -33 29 -78l117 -168l106 156q39 61 39 75q0 10 -8 18.5t-18 10.5l-22 5q-13 3 -17 5q-31 6 -31 27v22q0 14 6 19.5t25 5.5l73 -4q72 -2 107 -2q27 0 76 1t86.5 3t40.5 2q18 0 24 -5t6 -20v-22q0 -23 -30 -27q-102 -12 -154 -45q-61 -39 -115 -112l-145 -187 l227 -332q39 -51 80 -77q51 -35 115 -43q31 -4 30 -27v-23q0 -14 -6 -19t-24 -5l-84 2q-84 4 -123 4q-33 0 -86 -2t-95 -3t-44 -1q-18 0 -24.5 5t-6.5 19v23q0 23 31 27q2 0 15 1t23.5 3t23.5 5t20.5 11t7.5 18q0 6 -8 31l-170 254l-127 -178q-61 -84 -62 -109q0 -10 7 -17 t18.5 -10t23 -5t21.5 -3t12 -1q31 -6 31 -27v-23q0 -14 -6.5 -19t-24.5 -5l-76 2q-74 4 -108 4q-25 0 -67 -2t-75.5 -3t-35.5 -1q-18 0 -24.5 5t-6.5 19z" />
<glyph unicode="y" d="M-16 891v22q0 14 6 19.5t24 5.5l84 -4q84 -2 123 -2q27 0 73 1t81 3t37 2q18 0 24 -5t6 -20v-22q0 -23 -30 -27h-11q-12 -2 -20 -3t-19.5 -5t-19.5 -10t-14 -17.5t-6 -25.5q0 -51 22 -101l197 -466l168 339q63 135 63 216q0 14 -6 26t-13.5 18.5t-21.5 12.5t-21.5 8 t-21.5 5t-16 3q-31 6 -31 27v22q0 14 6 19.5t25 5.5l73 -4q76 -2 111 -2q25 0 68 1t77.5 3t36.5 2q18 0 24.5 -5t6.5 -20v-22q0 -23 -31 -27q-55 -6 -88 -37q-53 -47 -92 -129l-373 -786q-195 -406 -395 -406q-49 0 -76.5 25t-27.5 59q0 39 25.5 62.5t70.5 23.5 q29 0 58.5 -13t35.5 -13q59 0 117.5 81t89.5 170t31 136q0 35 -78 254t-143 364q-59 135 -72 154q-37 49 -107 55q-30 4 -30 27z" />
<glyph unicode="z" horiz-adv-x="1024" d="M55 18.5q0 14.5 17.5 29.5t66.5 64.5t105 120.5q51 68 108 153l91 136l103 163l91 146q-98 8 -145 9q-154 0 -215.5 -20.5t-94.5 -61.5q-10 -14 -15 -37t-7 -39t-11.5 -29.5t-29.5 -13.5q-16 0 -25.5 15.5t-9.5 33.5q0 33 8 107.5t8 85t-3 32t-3 33.5t9.5 20.5t15.5 8.5 l33 -10q31 -10 115.5 -21.5t217.5 -11.5q221 0 344 16q27 2 46.5 6t27.5 6.5t10 2.5q20 0 21 -41q0 -16 -13.5 -28.5l-50 -44.5t-75.5 -81q-215 -279 -447 -664q94 -12 234 -12q100 0 166.5 24.5t94 60.5t42 72t26 60.5t29.5 24.5t30.5 -19.5t12.5 -42.5q0 -41 -40 -128 t-40 -113q0 -61 -49 -62q-8 0 -23.5 6.5t-35.5 10.5q-90 14 -277 14q-236 0 -350 -8q-23 -2 -40 -5t-24.5 -4t-11.5 -1q-14 0 -25.5 11t-11.5 25.5z" />
<glyph unicode="{" d="M227 686v45q227 100 228 262q0 39 -27 176q-29 127 -29 199q0 145 124 236.5t306 113.5v-57q-221 -59 -221 -297q0 -35 14.5 -153.5t14.5 -161.5q0 -31 -7 -61t-18.5 -54.5t-31 -48t-36 -41t-42 -35.5t-42 -28.5t-43.5 -24.5l-38 -20q-10 -5 -35 -15l-25 -12l79 -37 q30 -14 81 -47t81 -65t53.5 -83t23.5 -108q0 -49 -13.5 -159t-13.5 -142q0 -256 219 -312v-57q-63 6 -130.5 26.5t-138.5 60.5t-116 110.5t-45 162.5q0 57 29 185q27 141 27 180q-1 149 -228 262z" />
<glyph unicode="|" horiz-adv-x="681" d="M291 -377v2083h100v-2083h-100z" />
<glyph unicode="}" d="M227 -244q219 55 219 312q0 33 -13 142t-13 159q0 57 23.5 108t53 83t81 64.5t80.5 47.5l79 37l-24 12q-25 10 -35 15l-38 20q-28 14 -44 24.5l-42 28.5t-42 35.5t-35.5 41t-31 48t-18.5 54.5t-7 61q0 23 14 161q14 104 15 154q0 238 -222 297v57q182 -23 306 -114 t124 -236q0 -61 -26 -199q-29 -127 -29 -176q0 -162 227 -262v-45q-227 -113 -227 -262q0 -49 29 -180q27 -137 26 -185q0 -92 -45 -162.5t-115.5 -110.5t-138 -60.5t-131.5 -26.5v57z" />
<glyph unicode="~" horiz-adv-x="1630" d="M305 322q0 494 289 493q82 0 142.5 -43t94 -103.5t63.5 -121t68.5 -103.5t90.5 -43q41 0 70.5 28t44 61.5t21.5 94t8 94.5t1 91h127q0 -57 -2 -93t-8 -103.5t-25.5 -112.5t-49.5 -92t-82 -72t-120 -25q-82 0 -140 43t-90 104.5t-59.5 123t-66.5 104.5t-90 43 q-55 0 -91 -34.5t-49.5 -102.5t-16.5 -113t-3 -118h-127z" />
<glyph unicode="&#xa1;" horiz-adv-x="681" d="M199 -455q51 281 57 340q39 377 39 529q0 25 -3 75t-3 74q0 27 23.5 43.5t35.5 16.5q14 0 33.5 -81t36 -243t16.5 -344q0 -295 -26 -375q-10 -31 -68.5 -62.5t-93.5 -31.5q-47 0 -47 59zM223 813q0 59 30 104.5t79 45.5q43 0 66.5 -33t23.5 -80q0 -63 -30 -109.5 t-83 -46.5q-35 0 -60.5 36t-25.5 83z" />
<glyph unicode="&#xa2;" d="M100 712.5q0 118.5 47.5 218t117 158t129 90t104.5 42.5v149q0 66 63 66q20 0 21 -25v-176q37 4 57 4q100 0 171 -37t71 -100q0 -37 -31 -66.5t-76 -29.5q-53 0 -121.5 58t-128.5 58q-111 0 -185.5 -93t-74.5 -236q0 -178 99.5 -298t259.5 -120q84 0 158.5 40t117.5 78.5 t53 38.5q12 0 23.5 -12t11.5 -28q0 -61 -129 -164t-276 -107v-180q0 -33 -9.5 -50.5t-42.5 -17.5q-16 0 -23 7.5t-8 14.5t-1 25v207q-51 6 -115 36t-129.5 84t-109.5 150.5t-44 215z" />
<glyph unicode="&#xa3;" d="M47 37q0 16 35 41l85 57q50 33 101 78t86 117.5t35 163.5q0 37 -5 67.5t-11 46t-19.5 42t-19.5 40.5h-107q-39 0 -59.5 -12t-26.5 -12q-14 0 -14 14q0 20 23 65q18 37 36 37h107q-4 10 -18.5 40t-19.5 42l-16 40l-17 44l-12 40q-7 24 -9 45.5t-2 43.5q0 156 129 262.5 t315 106.5q113 0 187.5 -52.5t74.5 -136.5q0 -70 -49 -107.5t-111 -37.5q-55 0 -103 28.5t-48 76.5q0 25 16 24q12 0 37 -13.5t35 -13.5q31 0 45 19.5t14 42.5q0 88 -131 88q-109 0 -183.5 -64.5t-74.5 -171.5q0 -43 15.5 -94t31 -80.5t50.5 -91.5l45 -80h217 q51 0 71.5 12.5t28.5 12.5q10 0 10 -10q0 -18 -30 -84q-10 -23 -37 -23h-213q33 -102 32 -155q0 -31 -4 -60t-15 -54.5l-18.5 -44t-28 -42t-28.5 -33.5t-36 -33l-33 -27q-6 -5 -38 -29t-36 -26v-4q119 0 278.5 -7t161.5 -7q51 0 83 24.5t50.5 49t36.5 24.5q10 0 19.5 -8 t9.5 -16q0 -18 -61.5 -147.5t-88.5 -125.5q-8 0 -135 33q-123 33 -254 33q-100 0 -223 -21q-27 -4 -55.5 -9t-43 -8t-20.5 -3q-20 0 -33.5 14.5t-13.5 28.5z" />
<glyph unicode="&#xa4;" d="M49 1145l66 63l139 -139q131 94 280.5 94t280.5 -94l139 139l66 -63l-141 -141q96 -104 96 -283q0 -172 -94 -279l137 -137l-62 -63l-135 135q-133 -96 -286 -96q-164 0 -287 96l-135 -135l-62 63l137 137q-96 104 -96 279q0 158 98 283zM176 720.5 q0 -147.5 105.5 -251.5t253 -104t252 104t104.5 251.5t-104.5 253t-252 105.5t-253 -105.5t-105.5 -253z" />
<glyph unicode="&#xa5;" d="M-94 1374v23q0 14 6 19t25 5q2 0 51 -2t109.5 -3t90.5 -1q33 0 88.5 1t99.5 3t46 2q18 0 24.5 -5t6.5 -19v-23q0 -23 -31 -26h-10q-10 -2 -16.5 -3.5t-18.5 -4.5t-20.5 -8t-16.5 -12t-12 -19.5t-4 -28.5q0 -35 63 -158l188 -373l164 285q113 199 113 256 q-6 14 -13.5 24.5t-15.5 16.5l-15 11q-7 5 -17.5 7t-14.5 3.5t-14 3.5h-8q-31 4 -31 26v23q0 14 6 19t25 5q2 0 39.5 -2t87 -3t77.5 -1q25 0 68 1t76 3t35 2q18 0 24 -5t6 -19v-23q0 -23 -30 -26q-20 -2 -63.5 -25t-63.5 -43q-59 -59 -121 -158l-207 -356q-70 -117 -70 -209 v-39h185q51 0 51 -37q0 -35 -51 -35h-185v-96h185q51 0 51 -35q0 -37 -51 -36h-185q4 -117 29 -154q8 -14 21.5 -24.5t29 -15.5t33.5 -9t32 -5l27 -2q14 -1 17 -1q31 -4 30 -27v-23q0 -14 -6 -19t-24 -5q-2 0 -53.5 1t-117 3t-104.5 2q-35 0 -96 -2t-109.5 -3t-50.5 -1 q-18 0 -24 5t-6 19v23q0 23 30 27q2 0 14.5 1t22.5 2t26.5 5t30 9t25.5 15.5t21 24.5q25 37 28 154h-166q-51 0 -51 36q0 35 51 35h166v96h-166q-51 0 -51 35q0 37 51 37h166v39q0 76 -78 227l-186 353q-55 102 -102 153q-49 47 -135 58q-31 3 -31 26z" />
<glyph unicode="&#xa6;" horiz-adv-x="530" d="M203 272h123v-759h-123v759zM203 653v762h123v-762h-123z" />
<glyph unicode="&#xa7;" d="M180 547q0 59 22.5 109.5t47 78t71 53t63.5 31.5l54 19q-4 2 -23.5 18t-32.5 29l-35 34q-22 22 -36 43t-29.5 49.5t-22.5 62.5t-7 69q0 135 95 219t239 84q109 0 190.5 -41t81.5 -111q0 -41 -28.5 -68.5t-69.5 -27.5q-59 0 -118.5 78t-125.5 78q-63 0 -102 -39t-39 -96.5 t53 -117t128 -113.5l151 -115q76 -60 129 -144t53 -176q0 -70 -24.5 -122t-67.5 -83t-74 -46t-74 -30q-8 -2 -12 -4q2 0 27 -18l35 -27q11 -8 35 -29.5t37 -42l28.5 -47t22.5 -59.5t7 -70q0 -150 -104 -232.5t-238 -82.5q-104 0 -187 45t-83 119q0 39 28.5 67.5t69.5 28.5 q39 0 70 -26.5t48.5 -57.5t52 -57.5t81.5 -26.5q59 0 99.5 42t40.5 108q0 55 -39 106t-98 90l-127 88q-69 49 -127 95.5t-97 116t-39 149.5zM344 592q0 -33 13.5 -65.5t28.5 -54t46 -50.5t45.5 -40l48.5 -36l35 -24q33 10 48.5 18t49 29.5t50 56.5t16.5 82q0 20 -3 38.5 t-11 36.5l-15 30q-6 13 -22.5 31t-24.5 28t-31.5 28.5l-33 26.5t-37.5 30l-39 29q-100 -43 -133 -90q-31 -43 -31 -104z" />
<glyph unicode="&#xa8;" horiz-adv-x="686" d="M98 1177.5q0 36.5 27 64.5t65.5 28t65.5 -28t27 -64.5t-27 -64.5t-63 -28q-39 0 -67 28t-28 64.5zM401 1177.5q0 36.5 27 64.5t65.5 28t65.5 -28t27 -64.5t-27 -64.5t-63 -28q-39 0 -67 28t-28 64.5z" />
<glyph unicode="&#xa9;" horiz-adv-x="1024" d="M33 985.5q0 192.5 142 326.5t337 134t337 -134t142 -326.5t-142 -327t-337 -134.5t-337 134.5t-142 327zM104 985q0 -162 120 -275.5t288 -113.5t288 113.5t120 275.5q0 164 -120 276.5t-288 112.5t-288 -112.5t-120 -276.5zM262 981q0 123 79 209t173 86q47 0 90 -16.5 t55 -16.5q8 0 13.5 4t13.5 15l8 12h31v-209l-31 -6q-2 2 -9 22.5t-10 26.5t-11.5 24.5t-14.5 26.5t-15 22.5t-18.5 21.5l-21.5 15.5t-25.5 11.5t-27.5 3q-145 0 -146 -250q0 -106 39 -167.5t113 -61.5q115 0 143 149l43 2q-4 -31 -7 -47t-16.5 -49t-33 -52.5t-58 -34.5 t-92.5 -15q-115 0 -189.5 77.5t-74.5 196.5z" />
<glyph unicode="&#xaa;" d="M207 858q0 76 71.5 135.5t154.5 88t175 44.5v76q0 74 -34.5 118t-98.5 44q-25 0 -59.5 -27.5t-34.5 -64.5q0 -8 7 -24.5t7 -24.5q0 -25 -26 -25q-20 0 -48 39t-28 53q0 31 90 93.5t172 62.5q182 0 182 -240q0 -20 -6 -116.5t-6 -143.5q0 -43 17.5 -83t52.5 -40 q10 0 28.5 18.5t26.5 18.5q29 0 29 -18q0 -41 -58.5 -81t-93.5 -40q-20 0 -36 5l-24 8q-9 3 -19 18l-11 17q-2 3 -10 26l-9 20q-139 -94 -227 -94q-184 0 -184 137zM360 893q0 -37 21.5 -63.5t52.5 -26.5q82 0 132 54t50 157q0 14 -1 21t-10 14.5t-25 7.5q-66 0 -143 -50.5 t-77 -113.5z" />
<glyph unicode="&#xab;" horiz-adv-x="606" d="M74 461l196 348h49l-108 -348l104 -346h-47zM297 461l197 348h49l-109 -348l105 -346h-47z" />
<glyph unicode="&#xac;" horiz-adv-x="1630" d="M274 645v47q0 16 9.5 20.5t44.5 4.5h975q35 0 44 -4t9 -21v-237q0 -61 -33 -62h-39q-18 0 -24.5 11.5t-6.5 50.5v159h-925q-35 0 -44.5 5.5t-9.5 25.5z" />
<glyph unicode="&#xad;" horiz-adv-x="681" d="M59 526l76 117q8 14 31 14q45 0 114.5 -3t110.5 -3q68 0 116 10.5t71.5 21.5t27.5 11q20 0 21 -16q0 -10 -6.5 -21.5t-17.5 -27t-15 -23.5q-4 -6 -10.5 -17t-8.5 -15.5t-7 -11.5t-8 -9t-8 -6t-9.5 -5t-11.5 -2t-15 -1l-6 2h-23q-14 0 -35.5 1t-59.5 2t-83 1 q-61 0 -139 -19.5t-86 -19.5q-19 0 -19 20z" />
<glyph unicode="&#xae;" horiz-adv-x="1024" d="M33 985.5q0 192.5 142 326.5t337 134t337 -134t142 -326.5t-142 -327t-337 -134.5t-337 134.5t-142 327zM104 985q0 -162 120 -275.5t288 -113.5t288 113.5t120 275.5t-120 275.5t-288 113.5t-288 -113.5t-120 -275.5zM274 731v39q47 4 61.5 17.5t14.5 64.5v293 q0 47 -12 57t-64 17v41h250q109 0 166.5 -28t57.5 -106q0 -47 -29 -76.5t-52.5 -37.5t-68.5 -19q55 -33 78.5 -81t32 -77.5t28.5 -29.5q33 0 33 67h41q0 -49 -24.5 -95t-84 -46t-87 39t-30.5 86t-25.5 86t-74.5 39h-22v-123q0 -57 11 -68.5t67 -19.5v-39h-267zM463 1024h43 q117 0 117 92q0 102 -88 103q-33 0 -49.5 -10.5t-19.5 -24t-3 -43.5v-117z" />
<glyph unicode="&#xaf;" horiz-adv-x="686" d="M98 1114v131h488v-131h-488z" />
<glyph unicode="&#xb0;" d="M322 1233q0 88 63.5 150.5t151.5 62.5q86 0 148.5 -63.5t62.5 -149.5q0 -88 -61.5 -150.5t-149.5 -62.5t-151.5 63.5t-63.5 149.5zM403 1233q0 -53 40 -92t94 -39q51 0 90 40t39 91t-39 91t-90 40q-53 0 -93.5 -39t-40.5 -92z" />
<glyph unicode="&#xb1;" horiz-adv-x="1630" d="M274 -172q0 16 9.5 20.5t44.5 4.5h975q35 0 44 -4.5t9 -20.5v-47q0 -20 -9.5 -25.5t-43.5 -5.5h-975q-35 0 -44.5 5t-9.5 26v47zM274 535v47q0 16 9.5 20t44.5 4h436v430q0 23 1 32t8 15.5t22 6.5h39q16 0 23 -7.5t8 -16.5t1 -30v-430h437q35 0 44 -4t9 -20v-47 q0 -20 -9.5 -25.5t-43.5 -5.5h-437v-467q0 -55 -32 -55h-39q-18 0 -24.5 10t-6.5 45v467h-436q-35 0 -44.5 5.5t-9.5 25.5z" />
<glyph unicode="&#xb2;" horiz-adv-x="720" d="M47 635q0 8 36 32l105 68q70 45 123 86q106 82 156.5 147.5t50.5 153.5q0 96 -68.5 164t-156.5 68q-70 0 -110 -32t-40 -62q0 -18 10.5 -28.5t10.5 -21.5q0 -33 -37 -32q-23 0 -39 18t-16 51q0 68 77.5 133.5t184.5 65.5q121 0 204 -81t83 -200q0 -66 -25 -125t-74 -111 t-87 -85t-100 -78l-77 -55v-4h215q33 0 56.5 10t31.5 21.5t18.5 21.5t18.5 10q23 0 23 -12q0 -2 -8.5 -20.5l-23 -48.5t-22.5 -52q-18 -41 -30 -41q-6 0 -33 7t-78 14.5t-121 7.5q-66 0 -119 -7.5t-82.5 -14.5t-37.5 -7q-19 0 -19 39z" />
<glyph unicode="&#xb3;" horiz-adv-x="720" d="M59 688q0 8 56.5 57.5t70.5 49.5q20 0 21 -13q0 -16 -12.5 -33.5t-12.5 -35.5q0 -27 32 -47.5t87 -20.5q90 0 155.5 65.5t65.5 153.5q0 80 -57 126t-131 46q-31 0 -56.5 -5t-41.5 -5q-23 0 -23 33q0 10 35 18l78 19q43 10 77.5 50t34.5 105q0 51 -39 87t-92 36 q-51 0 -90 -29.5t-39 -64.5q0 -45 -28 -45q-37 0 -37 37q0 63 74.5 118.5t164.5 55.5q84 0 141.5 -46t57.5 -116q0 -111 -135 -190v-4q80 -8 149.5 -58.5t69.5 -148.5q0 -113 -110.5 -206t-260.5 -93q-80 0 -142.5 36.5t-62.5 67.5z" />
<glyph unicode="&#xb4;" horiz-adv-x="686" d="M90 1077q0 25 41 45l281 156q33 18 53 18q18 0 73.5 -32.5t55.5 -57.5q0 -20 -45 -32l-391 -109q-25 -6 -33 -6q-35 0 -35 18z" />
<glyph unicode="&#xb5;" horiz-adv-x="1175" d="M49 883v18q0 20 7 25.5t32 5.5q59 0 107.5 3t76 7t46 9t27.5 8.5t11 3.5l35 -41q0 -4 -21.5 -82t-25.5 -142q-14 -229 -14 -301q0 -127 56 -211t169 -84q80 0 134 32t76.5 83t31 93t8.5 87v301q0 129 -113 160q-29 8 -28 25v18q0 20 7 25.5t31 5.5q59 0 107.5 3t76 7 t46 9t28 8.5t11.5 3.5l35 -41q0 -2 -18.5 -81t-18.5 -143v-405v-52q0 -13 5 -38t15 -33t30.5 -19.5t51.5 -17.5q29 -4 29 -24v-19q0 -23 -39 -31q-59 -12 -132 -51t-100 -39l-34 41q0 4 5 43t5 76h-4q-41 -57 -128 -108.5t-179 -51.5q-125 0 -213 80q0 -84 21.5 -236.5 t21.5 -185.5q0 -121 -91 -121q-84 0 -83 121q0 27 20 204t20 325q-25 92 -24 221q0 31 7 156.5t7 164.5q0 35 -3 57.5t-27.5 55.5t-71.5 47q-29 9 -29 25z" />
<glyph unicode="&#xb6;" d="M104 920q0 131 54.5 227t130.5 146t182.5 80t182 36t159.5 6h141v-80h-143v-1773h-76v1771q-35 -2 -100 -10v-1761h-78v895q-449 84 -453 463z" />
<glyph unicode="&#xb8;" horiz-adv-x="686" d="M229 -319q0 20 23 20q10 0 42 -9t50 -9q100 0 100 75q0 23 -18 39.5t-47 16.5q-14 0 -49 -11.5t-45 -11.5q-16 0 -17 19q0 4 33 69l86 146h113l-111 -140q164 0 164 -121q0 -63 -55.5 -103t-122.5 -40q-31 0 -88.5 16.5t-57.5 43.5z" />
<glyph unicode="&#xb9;" horiz-adv-x="720" d="M145 602v25q10 18 33 18q80 0 105 29q31 29 30 133v424q0 41 -8 62.5t-15 24.5t-20 3q-16 0 -50 -13.5t-42 -13.5q-16 0 -16 19v12q0 23 31 31q37 8 72.5 21.5t60 24.5t43.5 21l28 17l11 6q6 0 17 -6t11 -17l-6 -14q-4 -16 -9 -55t-5 -97v-450q0 -104 28 -133 q25 -29 95 -29q23 0 32 -18v-25q0 -14 -20 -14l-23 2q-25 2 -68.5 4t-97.5 2q-37 0 -70.5 -1t-54 -2t-37 -2t-24.5 -2t-10 -1q-21 0 -21 14z" />
<glyph unicode="&#xba;" d="M168 1075q0 156 110.5 263.5t258.5 107.5q141 0 253.5 -105.5t112.5 -261.5q0 -164 -113.5 -265t-254.5 -101q-139 0 -253 99t-114 263zM301 1135q0 -141 81 -246t185 -105q86 0 144.5 64.5t58.5 171.5q0 143 -74.5 248.5t-187.5 105.5q-86 0 -146.5 -63t-60.5 -176z" />
<glyph unicode="&#xbb;" horiz-adv-x="606" d="M74 809h49l196 -348l-194 -346h-47l104 346zM297 809h49l197 -348l-195 -346h-47l105 346z" />
<glyph unicode="&#xbc;" horiz-adv-x="1669" d="M172 602v25q8 18 33 18q80 0 104 29q31 29 31 133v424q0 41 -8 62.5t-15.5 24.5t-19.5 3q-16 0 -50 -13.5t-42 -13.5q-16 0 -17 19v12q0 23 31 31q37 8 73 21.5t60.5 24.5t42.5 21l29 17l10 6q6 0 17.5 -6t11.5 -17l-4 -14q-6 -16 -11.5 -55t-5.5 -97v-450 q0 -104 29 -133q25 -29 94 -29q25 0 33 -18v-25q0 -14 -20 -14l-25 2q-23 2 -67 4t-97 2q-37 0 -70.5 -1t-54 -2t-37 -2t-24.5 -2t-10 -1q-21 0 -21 14zM453 -24.5q0 6.5 18 42.5l664 1383q2 4 8 14t10 15.5t9 10.5t12 5h49q27 0 26 -14q0 -6 -22 -41l-664 -1385 q-14 -23 -21 -29t-24 -8h-41q-24 0 -24 6.5zM840 195q0 12 5 21t25.5 30.5t38.5 44.5l285 395q25 33 56.5 81t47 65.5t35.5 17.5q27 0 27 -16q0 -8 -7 -29t-14.5 -66t-7.5 -114v-363q14 0 42 13.5t32 13.5q14 0 14 -19q0 -10 -4 -26.5t-4 -26.5q0 -6 4 -20.5t4 -20.5 q0 -20 -10 -20q-16 0 -41 11t-37 13v-69q0 -41 6 -64.5t6 -26.5q0 -20 -20 -24q-2 0 -13.5 2t-21.5 2q-8 0 -23.5 -2t-19.5 -2q-16 0 -16 24q0 2 5 26t5 65v69h-371q-28 1 -28 15zM961 262h278v406h-4z" />
<glyph unicode="&#xbd;" horiz-adv-x="1669" d="M84 602v25q10 18 33 18q80 0 104 29q31 29 31 133v424q0 41 -8 62.5t-15.5 24.5t-19.5 3q-16 0 -50 -13.5t-42 -13.5q-16 0 -17 19v12q0 23 31 31q37 8 73 21.5t60.5 24.5t42.5 21l29 17l10 6q6 0 17.5 -6t11.5 -17l-6 -14q-4 -16 -9.5 -55t-5.5 -97v-450q0 -104 29 -133 q25 -29 94 -29q23 0 33 -18v-25q0 -14 -21 -14l-22 2q-25 2 -69 4t-97 2q-37 0 -70.5 -1t-54 -2t-37 -2t-25 -2t-10.5 -1q-20 0 -20 14zM371 -24.5q0 6.5 18 42.5l664 1383q2 4 8 14t10 15.5t9 10.5t12 5h49q27 0 26 -14q0 -6 -22 -41l-664 -1385q-14 -23 -21 -29t-24 -8 h-41q-24 0 -24 6.5zM938 23q0 8 36 31l105 69q70 45 123 86q106 82 156.5 147.5t50.5 153.5q0 96 -68.5 163.5t-156.5 67.5q-70 0 -110 -31.5t-40 -62.5q0 -18 10.5 -28.5t10.5 -20.5q0 -33 -37 -33q-23 0 -39 18.5t-16 51.5q0 68 77.5 133.5t184.5 65.5q121 0 203.5 -81 t82.5 -200q0 -66 -24.5 -125t-73.5 -111.5t-87 -85t-100 -77.5l-77 -56v-4h215q41 0 66.5 16.5t37 32t21.5 15.5q23 0 22 -13q0 -2 -8 -20.5t-22.5 -48t-22.5 -51.5q-18 -41 -31 -41q-6 0 -32.5 7t-77.5 14t-121 7q-66 0 -119 -7t-82.5 -14t-38.5 -7q-18 0 -18 39z" />
<glyph unicode="&#xbe;" horiz-adv-x="1669" d="M152 688q0 8 56 57.5t71 49.5q20 0 20 -13q0 -16 -12.5 -33.5t-12.5 -35.5q0 -27 32 -47.5t87 -20.5q90 0 155.5 65.5t65.5 153.5q0 80 -57 126t-131 46q-31 0 -56.5 -5t-41.5 -5q-23 0 -23 33q0 10 35 18l78 19q43 10 77.5 50t34.5 105q0 51 -38.5 87t-92.5 36 q-51 0 -90 -29.5t-39 -64.5q0 -45 -28 -45q-37 0 -37 37q0 63 74.5 118.5t164.5 55.5q84 0 141.5 -46t57.5 -116q0 -111 -135 -190v-4q80 -8 149.5 -58.5t69.5 -148.5q0 -113 -110.5 -206t-260.5 -93q-80 0 -142 36.5t-62 67.5zM508 -24.5q0 6.5 18 42.5l664 1383q2 4 8 14 t10 15.5t9.5 10.5t11.5 5h49q27 0 27 -14q0 -6 -23 -41l-664 -1385q-14 -23 -21 -29t-24 -8h-41q-24 0 -24 6.5zM952 195q0 12 5.5 21t26 30.5t38.5 44.5l285 395q25 33 56.5 81t46.5 65.5t36 17.5q27 0 27 -16q0 -8 -7.5 -29t-14.5 -66t-7 -114v-363q16 0 42.5 13.5 t31.5 13.5q14 0 14 -19q0 -10 -4 -26.5t-4 -26.5q0 -6 4 -20.5t4 -20.5q0 -20 -10 -20q-18 0 -41 11t-37 13v-69q0 -41 6 -64.5t6 -26.5q0 -20 -20 -24q-2 0 -13.5 2t-21.5 2q-8 0 -23.5 -2t-19.5 -2q-16 0 -17 24q0 2 5.5 26t5.5 65v69h-371q-29 1 -29 15zM1073 262h279 v406h-4z" />
<glyph unicode="&#xbf;" horiz-adv-x="909" d="M133 -129q0 90 37 159.5t89 111.5t105.5 76t90.5 71t37 76q0 27 -41 111.5t-41 88.5q0 27 43 27q37 0 119.5 -142.5t82.5 -205.5q0 -45 -42 -80t-102 -62.5t-120.5 -60.5t-102.5 -88t-42 -131q0 -82 66.5 -147.5t142.5 -65.5q27 0 46 10t19 25q0 8 -2 21t-2 24 q0 16 20.5 27.5t45.5 11.5q47 0 73.5 -31t26.5 -72q0 -53 -51 -96t-137 -43q-133 0 -247 116.5t-114 268.5zM367 813q0 59 29.5 104.5t78.5 45.5q43 0 66.5 -33t23.5 -80q0 -63 -29.5 -109.5t-82.5 -46.5q-35 0 -60.5 36t-25.5 83z" />
<glyph unicode="&#xc0;" horiz-adv-x="1517" d="M0 18v23q0 23 31 27l10 2q10 0 23.5 3t30 8t33.5 16.5t32 27.5q43 47 123 223l364 809q33 76 33 100.5t-31 53t-31 32.5q0 12 5 25q10 29 67 29q39 0 94.5 18.5t97.5 38t46 19.5q10 0 21.5 -16.5t11.5 -35.5q0 -2 -28 -31.5t-28 -54.5q0 -16 8.5 -42.5t10.5 -30.5 l387 -1039q18 -53 51 -88q53 -57 127 -67q31 -4 31 -27v-23q0 -14 -6.5 -19t-24.5 -5q-41 0 -117 3t-112 3q-41 0 -136.5 -3t-144.5 -3q-18 0 -24.5 5t-6.5 19v23q0 23 31 27l12 2q12 0 22.5 1t27 5t29.5 11t24.5 17.5t18.5 26.5t7 37q0 43 -26 119l-103 278q-18 45 -53 45 h-389q-49 0 -76 -69l-80 -207q-35 -84 -35 -144q0 -20 6.5 -36.5t16.5 -28.5t24.5 -21.5t29 -15.5t28.5 -10t24.5 -6t20.5 -2l8 -2q31 -4 31 -27v-23q0 -14 -6 -19t-25 -5q-25 0 -113 3t-127 3q-37 0 -125 -3t-120 -3q-18 0 -24.5 5t-6.5 19zM506 1690q0 25 55 57.5t74 32.5 q20 0 53 -19l281 -155q41 -20 41 -45q0 -18 -35 -19q-8 0 -33 6l-391 109q-45 13 -45 33zM549 729q0 -12 12 -14t57 -2h295q14 0 15 24l-21 58l-155 395l-189 -424q-2 -4 -5 -12.5t-6 -15.5t-3 -9z" />
<glyph unicode="&#xc1;" horiz-adv-x="1517" d="M0 18v23q0 23 31 27l10 2q10 0 23.5 3t30 8t33.5 16.5t32 27.5q43 47 123 223l364 809q33 76 33 100.5t-31 53t-31 32.5q0 12 5 25q10 29 67 29q39 0 94.5 18.5t97.5 38t46 19.5q10 0 21.5 -16.5t11.5 -35.5q0 -2 -28 -31.5t-28 -54.5q0 -16 8.5 -42.5t10.5 -30.5 l387 -1039q18 -53 51 -88q53 -57 127 -67q31 -4 31 -27v-23q0 -14 -6.5 -19t-24.5 -5q-41 0 -117 3t-112 3q-41 0 -136.5 -3t-144.5 -3q-18 0 -24.5 5t-6.5 19v23q0 23 31 27l12 2q12 0 22.5 1t27 5t29.5 11t24.5 17.5t18.5 26.5t7 37q0 43 -26 119l-103 278q-18 45 -53 45 h-389q-49 0 -76 -69l-80 -207q-35 -84 -35 -144q0 -20 6.5 -36.5t16.5 -28.5t24.5 -21.5t29 -15.5t28.5 -10t24.5 -6t20.5 -2l8 -2q31 -4 31 -27v-23q0 -14 -6 -19t-25 -5q-25 0 -113 3t-127 3q-37 0 -125 -3t-120 -3q-18 0 -24.5 5t-6.5 19zM549 729q0 -12 12 -14t57 -2 h295q14 0 15 24l-21 58l-155 395l-189 -424q-2 -4 -5 -12.5t-6 -15.5t-3 -9zM608 1561q0 25 41 45l281 155q33 18 53 19q18 0 73.5 -33t55.5 -57q0 -20 -45 -33l-391 -109q-25 -6 -33 -6q-35 1 -35 19z" />
<glyph unicode="&#xc2;" horiz-adv-x="1517" d="M0 18v23q0 23 31 27l10 2q10 0 23.5 3t30 8t33.5 16.5t32 27.5q43 47 123 223l364 809q33 76 33 100.5t-31 53t-31 32.5q0 12 5 25q10 29 67 29q39 0 94.5 18.5t97.5 38t46 19.5q10 0 21.5 -16.5t11.5 -35.5q0 -2 -28 -31.5t-28 -54.5q0 -16 8.5 -42.5t10.5 -30.5 l387 -1039q18 -53 51 -88q53 -57 127 -67q31 -4 31 -27v-23q0 -14 -6.5 -19t-24.5 -5q-41 0 -117 3t-112 3q-41 0 -136.5 -3t-144.5 -3q-18 0 -24.5 5t-6.5 19v23q0 23 31 27l12 2q12 0 22.5 1t27 5t29.5 11t24.5 17.5t18.5 26.5t7 37q0 43 -26 119l-103 278q-18 45 -53 45 h-389q-49 0 -76 -69l-80 -207q-35 -84 -35 -144q0 -20 6.5 -36.5t16.5 -28.5t24.5 -21.5t29 -15.5t28.5 -10t24.5 -6t20.5 -2l8 -2q31 -4 31 -27v-23q0 -14 -6 -19t-25 -5q-25 0 -113 3t-127 3q-37 0 -125 -3t-120 -3q-18 0 -24.5 5t-6.5 19zM502 1567q0 10 39 43l213 159 q25 20 37 21q6 0 32 -16l232 -170q4 -4 11 -10l11 -8q4 -3 8.5 -9t4.5 -12q0 -23 -35 -23q-8 0 -29 8l-221 84l-236 -80q-16 -8 -43 -8q-24 1 -24 21zM549 729q0 -12 12 -14t57 -2h295q14 0 15 24l-21 58l-155 395l-189 -424q-2 -4 -5 -12.5t-6 -15.5t-3 -9z" />
<glyph unicode="&#xc3;" horiz-adv-x="1517" d="M0 18v23q0 23 31 27l10 2q10 0 23.5 3t30 8t33.5 16.5t32 27.5q43 47 123 223l364 809q33 76 33 100.5t-31 53t-31 32.5q0 12 5 25q10 29 67 29q39 0 94.5 18.5t97.5 38t46 19.5q10 0 21.5 -16.5t11.5 -35.5q0 -2 -28 -31.5t-28 -54.5q0 -16 8.5 -42.5t10.5 -30.5 l387 -1039q18 -53 51 -88q53 -57 127 -67q31 -4 31 -27v-23q0 -14 -6.5 -19t-24.5 -5q-41 0 -117 3t-112 3q-41 0 -136.5 -3t-144.5 -3q-18 0 -24.5 5t-6.5 19v23q0 23 31 27l12 2q12 0 22.5 1t27 5t29.5 11t24.5 17.5t18.5 26.5t7 37q0 43 -26 119l-103 278q-18 45 -53 45 h-389q-49 0 -76 -69l-80 -207q-35 -84 -35 -144q0 -20 6.5 -36.5t16.5 -28.5t24.5 -21.5t29 -15.5t28.5 -10t24.5 -6t20.5 -2l8 -2q31 -4 31 -27v-23q0 -14 -6 -19t-25 -5q-25 0 -113 3t-127 3q-37 0 -125 -3t-120 -3q-18 0 -24.5 5t-6.5 19zM537 1604q0 45 52 100t118 55 q39 0 112.5 -31.5t104.5 -31.5q27 0 59.5 27.5t44.5 27.5q31 0 31 -41q0 -37 -45 -88t-90 -51q-59 0 -137 31.5t-111 31.5q-29 0 -61.5 -30.5t-45.5 -30.5q-32 0 -32 31zM549 729q0 -12 12 -14t57 -2h295q14 0 15 24l-21 58l-155 395l-189 -424q-2 -4 -5 -12.5t-6 -15.5 t-3 -9z" />
<glyph unicode="&#xc4;" horiz-adv-x="1517" d="M0 18v23q0 23 31 27l10 2q10 0 23.5 3t30 8t33.5 16.5t32 27.5q43 47 123 223l364 809q33 76 33 100.5t-31 53t-31 32.5q0 12 5 25q10 29 67 29q39 0 94.5 18.5t97.5 38t46 19.5q10 0 21.5 -16.5t11.5 -35.5q0 -2 -28 -31.5t-28 -54.5q0 -16 8.5 -42.5t10.5 -30.5 l387 -1039q18 -53 51 -88q53 -57 127 -67q31 -4 31 -27v-23q0 -14 -6.5 -19t-24.5 -5q-41 0 -117 3t-112 3q-41 0 -136.5 -3t-144.5 -3q-18 0 -24.5 5t-6.5 19v23q0 23 31 27l12 2q12 0 22.5 1t27 5t29.5 11t24.5 17.5t18.5 26.5t7 37q0 43 -26 119l-103 278q-18 45 -53 45 h-389q-49 0 -76 -69l-80 -207q-35 -84 -35 -144q0 -20 6.5 -36.5t16.5 -28.5t24.5 -21.5t29 -15.5t28.5 -10t24.5 -6t20.5 -2l8 -2q31 -4 31 -27v-23q0 -14 -6 -19t-25 -5q-25 0 -113 3t-127 3q-37 0 -125 -3t-120 -3q-18 0 -24.5 5t-6.5 19zM535 1661q0 37 26.5 64.5 t65.5 27.5t65.5 -27.5t26.5 -64.5t-26.5 -64.5t-63.5 -27.5q-39 0 -66.5 27.5t-27.5 64.5zM549 729q0 -12 12 -14t57 -2h295q14 0 15 24l-21 58l-155 395l-189 -424q-2 -4 -5 -12.5t-6 -15.5t-3 -9zM838 1661q0 37 26.5 64.5t65.5 27.5t65.5 -27.5t26.5 -64.5t-26.5 -64.5 t-63.5 -27.5q-39 0 -66.5 27.5t-27.5 64.5z" />
<glyph unicode="&#xc5;" horiz-adv-x="1517" d="M0 18v23q0 23 31 27l10 2q10 0 23.5 3t30 8t33.5 16.5t32 27.5q43 47 123 223l364 809q33 76 33 100.5t-31 53t-31 32.5q0 12 5 25q10 29 67 29q39 0 94.5 18.5t97.5 38t46 19.5q10 0 21.5 -16.5t11.5 -35.5q0 -2 -28 -31.5t-28 -54.5q0 -16 8.5 -42.5t10.5 -30.5 l387 -1039q18 -53 51 -88q53 -57 127 -67q31 -4 31 -27v-23q0 -14 -6.5 -19t-24.5 -5q-41 0 -117 3t-112 3q-41 0 -136.5 -3t-144.5 -3q-18 0 -24.5 5t-6.5 19v23q0 23 31 27l12 2q12 0 22.5 1t27 5t29.5 11t24.5 17.5t18.5 26.5t7 37q0 43 -26 119l-103 278q-18 45 -53 45 h-389q-49 0 -76 -69l-80 -207q-35 -84 -35 -144q0 -20 6.5 -36.5t16.5 -28.5t24.5 -21.5t29 -15.5t28.5 -10t24.5 -6t20.5 -2l8 -2q31 -4 31 -27v-23q0 -14 -6 -19t-25 -5q-25 0 -113 3t-127 3q-37 0 -125 -3t-120 -3q-18 0 -24.5 5t-6.5 19zM549 729q0 -12 12 -14t57 -2 h295q14 0 15 24l-21 58l-155 395l-189 -424q-2 -4 -5 -12.5t-6 -15.5t-3 -9zM621 1698q0 66 46 111.5t111.5 45.5t111.5 -46t46 -109q0 -66 -47 -112t-112.5 -46t-110.5 46.5t-45 109.5zM692 1700q0 -35 24.5 -60.5t61.5 -25.5t61.5 24.5t24.5 61.5q0 35 -25.5 59.5 t-60.5 24.5q-37 0 -61.5 -24.5t-24.5 -59.5z" />
<glyph unicode="&#xc6;" horiz-adv-x="2086" d="M0 18v23q0 23 31 27q88 29 127 61q41 35 170 219l565 809q84 121 84 158q-4 10 -12.5 17t-17.5 11.5t-16 5.5t-15.5 2t-10.5 1q-31 4 -31 26v23q0 14 6.5 19t24.5 5q4 0 164 -4q117 -6 389 -6q211 0 354 17q33 2 76 8t57.5 6t27 -14.5t12.5 -24.5q0 -2 -10.5 -36 t-10.5 -68q0 -6 5 -65.5t5 -63.5q0 -20 -14 -38t-35 -18q-29 0 -29 25q0 8 1 21.5t1 19.5q0 61 -67 100q-31 18 -139.5 28.5t-188.5 10.5q-135 0 -190.5 -9t-70.5 -30.5t-15 -77.5v-354q0 -41 9 -50t50 -9h252q133 0 166 24.5t42 64.5t13 66.5t27 26.5q47 0 47 -57 q0 -2 -7 -60.5t-7 -87.5q0 -55 8 -127t8 -86q0 -10 -13.5 -21.5t-27.5 -11.5q-20 0 -29 23l-22 61q-14 39 -45 64q-35 29 -160 28h-252q-35 0 -47 -14t-12 -55v-367q0 -115 47 -143.5t244 -28.5q154 0 267 32t142 91q10 23 16.5 50.5t9.5 48t7 37t10 25.5t19 9q63 0 63 -82 q0 -25 -23.5 -97.5t-23.5 -113.5q0 -10 1 -34.5t1 -37.5q0 -14 -11 -27t-22 -13q-2 0 -9 2t-21.5 5t-39 6t-72.5 5t-110 2h-374q-135 0 -292 -3t-184 -3q-18 0 -24 5t-6 19v23q0 23 30 27l15 2q14 0 24.5 1t27.5 5t30.5 9t29 15.5t25.5 24.5q29 51 29 162v366 q0 39 -9.5 47.5t-35.5 8.5h-234q-70 0 -102.5 -31t-96.5 -137l-122 -207q-94 -152 -95 -184q0 -18 11.5 -32t28 -22t37 -14t36.5 -8l31 -4l14 -2q31 -4 31 -27v-23q0 -14 -6 -19t-25 -5q-2 0 -47 1t-102.5 3t-90.5 2q-31 0 -90 -2t-106 -3t-49 -1q-18 0 -24.5 5t-6.5 19z M760 821q0 -20 84 -20h172q18 0 26.5 12t9.5 23.5t1 35.5v11v391h-4l-256 -391q-33 -44 -33 -62z" />
<glyph unicode="&#xc7;" horiz-adv-x="1478" d="M86 676q0 104 29.5 210.5t93 208t152 179.5t215 125t274.5 47q96 0 196.5 -21.5t165 -43t72.5 -21.5q23 0 47.5 22.5t30.5 22.5q45 0 45 -31q0 -25 -17.5 -76t-17.5 -73q0 -33 2 -80t2 -80q0 -43 -16.5 -65.5t-40.5 -22.5q-37 0 -37 35q0 8 2 21.5t2 19.5 q0 131 -146.5 216t-293.5 85q-233 0 -399 -188.5t-166 -475.5q0 -268 178 -448.5t434 -180.5q213 0 377 138q23 20 41 58t29.5 64.5t21.5 26.5q57 0 57 -59q0 -27 -27.5 -95.5t-37.5 -105.5q-4 -16 -8.5 -43t-11.5 -36t-25 -9q-12 0 -38 13.5t-54 13.5q-12 0 -131 -29 t-246 -29q-305 0 -529.5 197t-224.5 510zM647 -319q0 20 23 20q10 0 41.5 -9t50.5 -9q100 0 100 75q0 23 -18.5 39.5t-46.5 16.5q-14 0 -49 -11.5t-46 -11.5q-16 0 -16 19q0 4 33 69l86 146h113l-111 -140q164 0 164 -121q0 -63 -55.5 -103t-122.5 -40q-31 0 -88.5 16.5 t-57.5 43.5z" />
<glyph unicode="&#xc8;" horiz-adv-x="1327" d="M49 18v23q0 23 31 27l14 2q14 0 24.5 1t28 5t30.5 9t28.5 15.5t25.5 24.5q29 51 29 162v841q0 111 -29 162q-8 14 -19 25.5t-21.5 17.5t-24.5 10.5t-21.5 5.5t-19.5 3h-12q-31 4 -31 26v23q0 14 6 19t25 5q8 0 163 -4q121 -6 390 -6q211 0 354 17q33 2 76 8t57 6 t26.5 -14.5t12.5 -24.5q0 -2 -10.5 -36t-10.5 -68q0 -6 5.5 -65.5t5.5 -63.5q0 -20 -14.5 -38t-34.5 -18q-29 0 -29 25q0 8 1 21.5t1 19.5q0 61 -68 100q-31 16 -154.5 27.5t-172.5 11.5q-135 0 -190.5 -9t-71 -30.5t-15.5 -77.5v-354q0 -41 9.5 -50t50.5 -9h251 q133 0 166 24.5t42.5 64.5t13.5 66.5t26 26.5q47 0 47 -57q0 -2 -7 -60.5t-7 -87.5q0 -55 8 -127t8 -86q0 -10 -13 -21.5t-28 -11.5q-20 0 -28 23l-23 61q-14 39 -45 64q-35 29 -160 28h-251q-35 0 -47.5 -14t-12.5 -55v-367q0 -115 47 -143.5t244 -28.5q154 0 267.5 32 t142.5 91q10 23 16 50.5t9 48t7 37t10.5 25.5t18.5 9q63 0 64 -82q0 -25 -24 -97.5t-24 -113.5q0 -10 1 -34.5t1 -37.5q0 -14 -11 -27t-21 -13q-2 0 -6.5 2t-15.5 4t-27 4q-61 10 -226 10h-352q-78 0 -252 -3t-223 -3q-18 0 -24.5 5t-6.5 19zM371 1690q0 25 55 57.5t74 32.5 q20 0 53 -19l281 -155q41 -20 40 -45q0 -18 -34 -19q-8 0 -33 6l-391 109q-45 13 -45 33z" />
<glyph unicode="&#xc9;" horiz-adv-x="1327" d="M49 18v23q0 23 31 27l14 2q14 0 24.5 1t28 5t30.5 9t28.5 15.5t25.5 24.5q29 51 29 162v841q0 111 -29 162q-8 14 -19 25.5t-21.5 17.5t-24.5 10.5t-21.5 5.5t-19.5 3h-12q-31 4 -31 26v23q0 14 6 19t25 5q8 0 163 -4q121 -6 390 -6q211 0 354 17q33 2 76 8t57 6 t26.5 -14.5t12.5 -24.5q0 -2 -10.5 -36t-10.5 -68q0 -6 5.5 -65.5t5.5 -63.5q0 -20 -14.5 -38t-34.5 -18q-29 0 -29 25q0 8 1 21.5t1 19.5q0 61 -68 100q-31 16 -154.5 27.5t-172.5 11.5q-135 0 -190.5 -9t-71 -30.5t-15.5 -77.5v-354q0 -41 9.5 -50t50.5 -9h251 q133 0 166 24.5t42.5 64.5t13.5 66.5t26 26.5q47 0 47 -57q0 -2 -7 -60.5t-7 -87.5q0 -55 8 -127t8 -86q0 -10 -13 -21.5t-28 -11.5q-20 0 -28 23l-23 61q-14 39 -45 64q-35 29 -160 28h-251q-35 0 -47.5 -14t-12.5 -55v-367q0 -115 47 -143.5t244 -28.5q154 0 267.5 32 t142.5 91q10 23 16 50.5t9 48t7 37t10.5 25.5t18.5 9q63 0 64 -82q0 -25 -24 -97.5t-24 -113.5q0 -10 1 -34.5t1 -37.5q0 -14 -11 -27t-21 -13q-2 0 -6.5 2t-15.5 4t-27 4q-61 10 -226 10h-352q-78 0 -252 -3t-223 -3q-18 0 -24.5 5t-6.5 19zM453 1561q0 25 41 45l280 155 q33 18 53 19q18 0 73.5 -33t55.5 -57q0 -20 -45 -33l-391 -109q-25 -6 -33 -6q-34 1 -34 19z" />
<glyph unicode="&#xca;" horiz-adv-x="1327" d="M49 18v23q0 23 31 27l14 2q14 0 24.5 1t28 5t30.5 9t28.5 15.5t25.5 24.5q29 51 29 162v841q0 111 -29 162q-8 14 -19 25.5t-21.5 17.5t-24.5 10.5t-21.5 5.5t-19.5 3h-12q-31 4 -31 26v23q0 14 6 19t25 5q8 0 163 -4q121 -6 390 -6q211 0 354 17q33 2 76 8t57 6 t26.5 -14.5t12.5 -24.5q0 -2 -10.5 -36t-10.5 -68q0 -6 5.5 -65.5t5.5 -63.5q0 -20 -14.5 -38t-34.5 -18q-29 0 -29 25q0 8 1 21.5t1 19.5q0 61 -68 100q-31 16 -154.5 27.5t-172.5 11.5q-135 0 -190.5 -9t-71 -30.5t-15.5 -77.5v-354q0 -41 9.5 -50t50.5 -9h251 q133 0 166 24.5t42.5 64.5t13.5 66.5t26 26.5q47 0 47 -57q0 -2 -7 -60.5t-7 -87.5q0 -55 8 -127t8 -86q0 -10 -13 -21.5t-28 -11.5q-20 0 -28 23l-23 61q-14 39 -45 64q-35 29 -160 28h-251q-35 0 -47.5 -14t-12.5 -55v-367q0 -115 47 -143.5t244 -28.5q154 0 267.5 32 t142.5 91q10 23 16 50.5t9 48t7 37t10.5 25.5t18.5 9q63 0 64 -82q0 -25 -24 -97.5t-24 -113.5q0 -10 1 -34.5t1 -37.5q0 -14 -11 -27t-21 -13q-2 0 -6.5 2t-15.5 4t-27 4q-61 10 -226 10h-352q-78 0 -252 -3t-223 -3q-18 0 -24.5 5t-6.5 19zM367 1567q0 10 39 43l212 159 q25 20 37 21q6 0 33 -16l232 -170q4 -4 11 -10l11 -8q4 -3 8 -9t4 -12q0 -23 -34 -23q-8 0 -29 8l-221 84l-236 -80q-16 -8 -43 -8q-24 1 -24 21z" />
<glyph unicode="&#xcb;" horiz-adv-x="1327" d="M49 18v23q0 23 31 27l14 2q14 0 24.5 1t28 5t30.5 9t28.5 15.5t25.5 24.5q29 51 29 162v841q0 111 -29 162q-8 14 -19 25.5t-21.5 17.5t-24.5 10.5t-21.5 5.5t-19.5 3h-12q-31 4 -31 26v23q0 14 6 19t25 5q8 0 163 -4q121 -6 390 -6q211 0 354 17q33 2 76 8t57 6 t26.5 -14.5t12.5 -24.5q0 -2 -10.5 -36t-10.5 -68q0 -6 5.5 -65.5t5.5 -63.5q0 -20 -14.5 -38t-34.5 -18q-29 0 -29 25q0 8 1 21.5t1 19.5q0 61 -68 100q-31 16 -154.5 27.5t-172.5 11.5q-135 0 -190.5 -9t-71 -30.5t-15.5 -77.5v-354q0 -41 9.5 -50t50.5 -9h251 q133 0 166 24.5t42.5 64.5t13.5 66.5t26 26.5q47 0 47 -57q0 -2 -7 -60.5t-7 -87.5q0 -55 8 -127t8 -86q0 -10 -13 -21.5t-28 -11.5q-20 0 -28 23l-23 61q-14 39 -45 64q-35 29 -160 28h-251q-35 0 -47.5 -14t-12.5 -55v-367q0 -115 47 -143.5t244 -28.5q154 0 267.5 32 t142.5 91q10 23 16 50.5t9 48t7 37t10.5 25.5t18.5 9q63 0 64 -82q0 -25 -24 -97.5t-24 -113.5q0 -10 1 -34.5t1 -37.5q0 -14 -11 -27t-21 -13q-2 0 -6.5 2t-15.5 4t-27 4q-61 10 -226 10h-352q-78 0 -252 -3t-223 -3q-18 0 -24.5 5t-6.5 19zM420 1661q0 37 26.5 64.5 t65.5 27.5t65.5 -27.5t26.5 -64.5t-26.5 -64.5t-63.5 -27.5q-39 0 -66.5 27.5t-27.5 64.5zM723 1661q0 37 26.5 64.5t65.5 27.5t65.5 -27.5t26.5 -64.5t-26.5 -64.5t-63.5 -27.5q-39 0 -66.5 27.5t-27.5 64.5z" />
<glyph unicode="&#xcc;" horiz-adv-x="681" d="M27 1690q0 25 55 57.5t74 32.5q20 0 53 -19l280 -155q41 -20 41 -45q0 -18 -34 -19q-8 0 -33 6l-391 109q-45 13 -45 33zM76 18v23q0 23 30 27l13 2q10 0 18 1t22.5 5t25 9t21.5 15.5t19 24.5q29 51 29 162v841q0 111 -29 162q-8 14 -19 24.5t-21.5 15.5t-25 9t-22.5 5.5 l-18 3.5h-13q-31 4 -30 26v23q0 14 6 19t24 5q2 0 47.5 -2t101.5 -3t87 -1q33 0 88 1t99 3t46 2q18 0 24.5 -5t6.5 -19v-23q0 -23 -31 -26h-10q-12 -2 -20 -3.5t-22.5 -5.5t-25 -9t-21.5 -15t-19 -25q-29 -51 -29 -162v-841q0 -111 29 -162q8 -14 19 -24.5t21.5 -15.5t25 -9 t22.5 -5t20 -1l10 -2q31 -4 31 -27v-23q0 -14 -6 -19t-25 -5q-10 0 -100 3t-133 3q-41 0 -132 -3t-104 -3q-18 0 -24 5t-6 19z" />
<glyph unicode="&#xcd;" horiz-adv-x="681" d="M76 18v23q0 23 30 27l13 2q10 0 18 1t22.5 5t25 9t21.5 15.5t19 24.5q29 51 29 162v841q0 111 -29 162q-8 14 -19 24.5t-21.5 15.5t-25 9t-22.5 5.5l-18 3.5h-13q-31 4 -30 26v23q0 14 6 19t24 5q2 0 47.5 -2t101.5 -3t87 -1q33 0 88 1t99 3t46 2q18 0 24.5 -5t6.5 -19 v-23q0 -23 -31 -26h-10q-12 -2 -20 -3.5t-22.5 -5.5t-25 -9t-21.5 -15t-19 -25q-29 -51 -29 -162v-841q0 -111 29 -162q8 -14 19 -24.5t21.5 -15.5t25 -9t22.5 -5t20 -1l10 -2q31 -4 31 -27v-23q0 -14 -6 -19t-25 -5q-10 0 -100 3t-133 3q-41 0 -132 -3t-104 -3q-18 0 -24 5 t-6 19zM129 1561q0 25 41 45l281 155q33 18 53 19q18 0 73.5 -33t55.5 -57q0 -20 -45 -33l-391 -109q-25 -6 -33 -6q-35 1 -35 19z" />
<glyph unicode="&#xce;" horiz-adv-x="681" d="M43 1567q0 10 39 43l213 159q25 20 37 21q6 0 33 -16l231 -170q4 -4 11 -10l11 -8q4 -3 8.5 -9t4.5 -12q0 -23 -35 -23q-8 0 -29 8l-221 84l-235 -80q-16 -8 -43 -8q-25 1 -25 21zM76 18v23q0 23 30 27l13 2q10 0 18 1t22.5 5t25 9t21.5 15.5t19 24.5q29 51 29 162v841 q0 111 -29 162q-8 14 -19 24.5t-21.5 15.5t-25 9t-22.5 5.5l-18 3.5h-13q-31 4 -30 26v23q0 14 6 19t24 5q2 0 47.5 -2t101.5 -3t87 -1q33 0 88 1t99 3t46 2q18 0 24.5 -5t6.5 -19v-23q0 -23 -31 -26h-10q-12 -2 -20 -3.5t-22.5 -5.5t-25 -9t-21.5 -15t-19 -25 q-29 -51 -29 -162v-841q0 -111 29 -162q8 -14 19 -24.5t21.5 -15.5t25 -9t22.5 -5t20 -1l10 -2q31 -4 31 -27v-23q0 -14 -6 -19t-25 -5q-10 0 -100 3t-133 3q-41 0 -132 -3t-104 -3q-18 0 -24 5t-6 19z" />
<glyph unicode="&#xcf;" horiz-adv-x="681" d="M76 18v23q0 23 30 27l13 2q10 0 18 1t22.5 5t25 9t21.5 15.5t19 24.5q29 51 29 162v841q0 111 -29 162q-8 14 -19 24.5t-21.5 15.5t-25 9t-22.5 5.5l-18 3.5h-13q-31 4 -30 26v23q0 14 6 19t24 5q2 0 47.5 -2t101.5 -3t87 -1q33 0 88 1t99 3t46 2q18 0 24.5 -5t6.5 -19 v-23q0 -23 -31 -26h-10q-12 -2 -20 -3.5t-22.5 -5.5t-25 -9t-21.5 -15t-19 -25q-29 -51 -29 -162v-841q0 -111 29 -162q8 -14 19 -24.5t21.5 -15.5t25 -9t22.5 -5t20 -1l10 -2q31 -4 31 -27v-23q0 -14 -6 -19t-25 -5q-10 0 -100 3t-133 3q-41 0 -132 -3t-104 -3q-18 0 -24 5 t-6 19zM76 1661q0 37 26.5 64.5t65.5 27.5t65.5 -27.5t26.5 -64.5t-26.5 -64.5t-63.5 -27.5q-39 0 -66.5 27.5t-27.5 64.5zM379 1661q0 37 26.5 64.5t65.5 27.5t65.5 -27.5t26.5 -64.5t-26.5 -64.5t-63.5 -27.5q-39 0 -66.5 27.5t-27.5 64.5z" />
<glyph unicode="&#xd0;" horiz-adv-x="1669" d="M35 18v23q0 23 31 27q2 0 16 1t25.5 2t30 5t32.5 9t29.5 15.5t25.5 24.5q29 51 29 162v385h-125q-31 0 -31 24v43q0 25 31 25h125v364q0 111 -29 162q-8 14 -21.5 25.5t-26.5 17.5t-28.5 10.5t-25.5 5.5t-22.5 2t-14.5 1q-31 4 -31 26v23q0 14 6.5 19t24.5 5q2 0 15.5 -1 t39 -2t47.5 -1q80 -6 154 -6q45 0 205 17q190 14 284 14q119 0 247 -39t247 -116t195.5 -211t76.5 -304q0 -184 -62 -328.5t-154.5 -230.5t-213 -141.5t-226 -75.5t-204.5 -20q-57 0 -199.5 10t-195.5 10q-43 0 -143.5 -3t-132.5 -3q-18 0 -24.5 5t-6.5 19zM428 287 q0 -59 1 -91t16.5 -59.5t27.5 -38t57 -18.5t80 -8h121q289 0 480.5 156.5t191.5 459.5q-2 313 -208 489.5t-493 176.5q-92 0 -150 -11.5t-84 -36t-33 -47t-7 -61.5v-434h307q37 0 37 -23v-45q0 -25 -37 -24h-307v-385z" />
<glyph unicode="&#xd1;" horiz-adv-x="1781" d="M86 18v23q0 23 31 27l12 2q12 0 21.5 1t23.5 5t25.5 9t22.5 15.5t20 24.5q37 57 37 162v811q0 25 -2.5 46t-5.5 36.5t-9 31.5l-9 25q-3 8 -13.5 21.5t-13.5 16.5t-14 16.5t-13 15.5q-29 31 -80 41q-31 4 -31 26v23q0 25 39 24q6 -6 84 -6q16 0 53 3t55 3q20 0 30.5 -5 t16 -13t23 -31.5t43.5 -50.5q2 -2 108 -114l231 -244l311 -317q185 -183 343 -324v788q0 104 -32 162q-8 16 -18.5 28.5t-24 19.5t-25.5 12t-26.5 8t-23.5 4.5l-22 3.5h-10q-31 4 -31 26v23q0 14 6.5 19t24.5 5q2 0 50 -2t106.5 -3t85.5 -1q33 0 81 1t85 3t39 2q18 0 24 -5 t6 -19v-23q0 -23 -30 -26h-11l-18 -3.5t-20.5 -4.5t-22.5 -8t-22.5 -12t-21.5 -19.5t-15 -26.5q-41 -72 -41 -164v-965q0 -47 7 -98t7 -53q0 -8 -11.5 -16.5t-27.5 -8.5q-20 0 -39.5 22.5t-48.5 65.5t-57 72l-152 154l-277 280l-301 299l-247 240v-815q0 -111 41 -162 q10 -14 24.5 -24.5t29.5 -15.5t34.5 -9t31.5 -5l26 -2q13 -1 15 -1q31 -4 31 -27v-23q0 -14 -6 -19t-25 -5q-2 0 -51 1t-110.5 3t-94.5 2q-27 0 -74.5 -2t-85.5 -3t-40 -1q-18 0 -24.5 5t-6.5 19zM608 1604q0 45 52.5 100t117.5 55q39 0 113 -31.5t104 -31.5q27 0 59.5 27.5 t45.5 27.5q31 0 30 -41q0 -37 -45 -88t-90 -51q-59 0 -137 31.5t-110 31.5q-31 0 -64 -30.5t-43 -30.5q-33 0 -33 31z" />
<glyph unicode="&#xd2;" horiz-adv-x="1669" d="M78 705q0 307 218 524t535 217q322 0 539 -215t217 -526q0 -303 -214 -519.5t-533 -216.5q-328 0 -545 215.5t-217 520.5zM272 811q0 -190 71 -359t210 -280t317 -111q219 0 371 153t152 388q0 193 -70 362t-207 279.5t-313 110.5q-223 0 -377 -155t-154 -388zM582 1690 q0 25 55 57.5t74 32.5q20 0 53 -19l280 -155q41 -20 41 -45q0 -18 -34 -19q-8 0 -33 6l-391 109q-45 13 -45 33z" />
<glyph unicode="&#xd3;" horiz-adv-x="1669" d="M78 705q0 307 218 524t535 217q322 0 539 -215t217 -526q0 -303 -214 -519.5t-533 -216.5q-328 0 -545 215.5t-217 520.5zM272 811q0 -190 71 -359t210 -280t317 -111q219 0 371 153t152 388q0 193 -70 362t-207 279.5t-313 110.5q-223 0 -377 -155t-154 -388zM582 1561 q0 25 41 45l280 155q33 18 53 19q18 0 73.5 -33t55.5 -57q0 -20 -45 -33l-391 -109q-25 -6 -33 -6q-34 1 -34 19z" />
<glyph unicode="&#xd4;" horiz-adv-x="1669" d="M78 705q0 307 218 524t535 217q322 0 539 -215t217 -526q0 -303 -214 -519.5t-533 -216.5q-328 0 -545 215.5t-217 520.5zM272 811q0 -190 71 -359t210 -280t317 -111q219 0 371 153t152 388q0 193 -70 362t-207 279.5t-313 110.5q-223 0 -377 -155t-154 -388zM557 1567 q0 10 39 43l213 159q27 20 37 21q6 0 33 -16l231 -170q4 -4 11 -10l12 -8q4 -3 8 -9t4 -12q0 -23 -35 -23q-8 0 -29 8l-221 84l-235 -80q-16 -8 -43 -8q-25 1 -25 21z" />
<glyph unicode="&#xd5;" horiz-adv-x="1669" d="M78 705q0 307 218 524t535 217q322 0 539 -215t217 -526q0 -303 -214 -519.5t-533 -216.5q-328 0 -545 215.5t-217 520.5zM272 811q0 -190 71 -359t210 -280t317 -111q219 0 371 153t152 388q0 193 -70 362t-207 279.5t-313 110.5q-223 0 -377 -155t-154 -388zM571 1604 q0 45 52.5 100t117.5 55q39 0 113 -31.5t104 -31.5q27 0 60 27.5t45 27.5q31 0 31 -41q0 -37 -45 -88t-91 -51q-59 0 -137 31.5t-110 31.5q-31 0 -64 -30.5t-43 -30.5q-33 0 -33 31z" />
<glyph unicode="&#xd6;" horiz-adv-x="1669" d="M78 705q0 307 218 524t535 217q322 0 539 -215t217 -526q0 -303 -214 -519.5t-533 -216.5q-328 0 -545 215.5t-217 520.5zM272 811q0 -190 71 -359t210 -280t317 -111q219 0 371 153t152 388q0 193 -70 362t-207 279.5t-313 110.5q-223 0 -377 -155t-154 -388zM590 1661 q0 37 26.5 64.5t65.5 27.5t65.5 -27.5t26.5 -64.5t-26.5 -64.5t-63.5 -27.5q-39 0 -66.5 27.5t-27.5 64.5zM893 1661q0 37 26.5 64.5t65.5 27.5t65.5 -27.5t26.5 -64.5t-26.5 -64.5t-63.5 -27.5q-39 0 -66.5 27.5t-27.5 64.5z" />
<glyph unicode="&#xd7;" horiz-adv-x="1630" d="M256 1032q0 8 12 17l35 28q12 8 20.5 8t32.5 -24l459 -459l459 459q25 25 35 24q8 0 20 -8l35 -28q10 -10 10 -17q0 -14 -22 -33l-465 -469l463 -462q23 -18 22 -31q0 -16 -8 -25l-23 -28q-14 -14 -32 -15q-8 0 -33 25l-461 463l-459 -463q-25 -25 -34 -25q-20 0 -31 15 l-23 28q-10 10 -10 25q0 8 23 31l462 462l-467 469q-20 21 -20 33z" />
<glyph unicode="&#xd8;" horiz-adv-x="1669" d="M78 705q0 307 218 524t535 217q287 0 508 -180l158 151q29 29 59 29q25 0 25 -29q0 -8 -31 -39l-168 -164q205 -221 205 -509q0 -303 -214 -519.5t-533 -216.5q-303 0 -525 191l-165 -164q-31 -25 -46 -27q-25 0 -24 21q0 29 22 55l170 164q-90 94 -142 228.5t-52 267.5z M272 811q0 -254 129 -473l816 805q-180 211 -414 211q-223 0 -377 -155t-154 -388zM438 281q180 -219 432 -220q219 0 371 153t152 388q0 256 -136 485z" />
<glyph unicode="&#xd9;" horiz-adv-x="1669" d="M72 1374v23q0 14 6 19t24 5q2 0 47.5 -2t101.5 -3t87 -1q35 0 99.5 1t114.5 3t52 2q18 0 24.5 -5t6.5 -19v-23q0 -23 -31 -26q-2 0 -15.5 -1t-24.5 -2.5t-28.5 -5.5t-32 -9t-28.5 -15t-22 -25q-29 -51 -29 -162v-421q0 -594 479 -594q115 0 197 36.5t127 92t70.5 142.5 t32.5 163t7 178v340q0 156 -57 223q-10 14 -26.5 24.5t-31 16.5t-33 10t-29.5 5.5t-24.5 2.5t-15.5 1q-31 4 -30 26v23q0 14 6 19t24 5q2 0 47 -2t101.5 -3t87.5 -1q33 0 88 1t99 3t46 2q18 0 24.5 -5t6.5 -19v-23q0 -23 -31 -26q-80 -12 -112 -70q-27 -47 -27 -213v-406 q0 -88 -13.5 -173t-52 -182t-102 -169t-174.5 -119t-256 -47q-125 0 -223.5 31t-159.5 73t-106.5 113.5t-66 129t-32.5 143.5t-13 130t-1 118v421q0 111 -29 162q-8 14 -19.5 24.5t-21.5 15.5t-24.5 9t-22.5 5.5l-18 3.5h-13q-30 3 -30 26zM520 1690q0 25 55.5 57.5 t73.5 32.5q20 0 53 -19l281 -155q41 -20 41 -45q0 -18 -35 -19q-8 0 -33 6l-391 109q-45 13 -45 33z" />
<glyph unicode="&#xda;" horiz-adv-x="1669" d="M72 1374v23q0 14 6 19t24 5q2 0 47.5 -2t101.5 -3t87 -1q35 0 99.5 1t114.5 3t52 2q18 0 24.5 -5t6.5 -19v-23q0 -23 -31 -26q-2 0 -15.5 -1t-24.5 -2.5t-28.5 -5.5t-32 -9t-28.5 -15t-22 -25q-29 -51 -29 -162v-421q0 -594 479 -594q115 0 197 36.5t127 92t70.5 142.5 t32.5 163t7 178v340q0 156 -57 223q-10 14 -26.5 24.5t-31 16.5t-33 10t-29.5 5.5t-24.5 2.5t-15.5 1q-31 4 -30 26v23q0 14 6 19t24 5q2 0 47 -2t101.5 -3t87.5 -1q33 0 88 1t99 3t46 2q18 0 24.5 -5t6.5 -19v-23q0 -23 -31 -26q-80 -12 -112 -70q-27 -47 -27 -213v-406 q0 -88 -13.5 -173t-52 -182t-102 -169t-174.5 -119t-256 -47q-125 0 -223.5 31t-159.5 73t-106.5 113.5t-66 129t-32.5 143.5t-13 130t-1 118v421q0 111 -29 162q-8 14 -19.5 24.5t-21.5 15.5t-24.5 9t-22.5 5.5l-18 3.5h-13q-30 3 -30 26zM623 1561q0 25 41 45l280 155 q33 18 53 19q18 0 73.5 -33t55.5 -57q0 -20 -45 -33l-391 -109q-25 -6 -33 -6q-34 1 -34 19z" />
<glyph unicode="&#xdb;" horiz-adv-x="1669" d="M72 1374v23q0 14 6 19t24 5q2 0 47.5 -2t101.5 -3t87 -1q35 0 99.5 1t114.5 3t52 2q18 0 24.5 -5t6.5 -19v-23q0 -23 -31 -26q-2 0 -15.5 -1t-24.5 -2.5t-28.5 -5.5t-32 -9t-28.5 -15t-22 -25q-29 -51 -29 -162v-421q0 -594 479 -594q115 0 197 36.5t127 92t70.5 142.5 t32.5 163t7 178v340q0 156 -57 223q-10 14 -26.5 24.5t-31 16.5t-33 10t-29.5 5.5t-24.5 2.5t-15.5 1q-31 4 -30 26v23q0 14 6 19t24 5q2 0 47 -2t101.5 -3t87.5 -1q33 0 88 1t99 3t46 2q18 0 24.5 -5t6.5 -19v-23q0 -23 -31 -26q-80 -12 -112 -70q-27 -47 -27 -213v-406 q0 -88 -13.5 -173t-52 -182t-102 -169t-174.5 -119t-256 -47q-125 0 -223.5 31t-159.5 73t-106.5 113.5t-66 129t-32.5 143.5t-13 130t-1 118v421q0 111 -29 162q-8 14 -19.5 24.5t-21.5 15.5t-24.5 9t-22.5 5.5l-18 3.5h-13q-30 3 -30 26zM537 1567q0 10 38 43l213 159 q27 20 37 21q6 0 33 -16l232 -170q4 -4 11 -10l11 -8q4 -3 8 -9t4 -12q0 -23 -34 -23q-8 0 -29 8l-221 84l-236 -80q-16 -8 -43 -8q-24 1 -24 21z" />
<glyph unicode="&#xdc;" horiz-adv-x="1669" d="M72 1374v23q0 14 6 19t24 5q2 0 47.5 -2t101.5 -3t87 -1q35 0 99.5 1t114.5 3t52 2q18 0 24.5 -5t6.5 -19v-23q0 -23 -31 -26q-2 0 -15.5 -1t-24.5 -2.5t-28.5 -5.5t-32 -9t-28.5 -15t-22 -25q-29 -51 -29 -162v-421q0 -594 479 -594q115 0 197 36.5t127 92t70.5 142.5 t32.5 163t7 178v340q0 156 -57 223q-10 14 -26.5 24.5t-31 16.5t-33 10t-29.5 5.5t-24.5 2.5t-15.5 1q-31 4 -30 26v23q0 14 6 19t24 5q2 0 47 -2t101.5 -3t87.5 -1q33 0 88 1t99 3t46 2q18 0 24.5 -5t6.5 -19v-23q0 -23 -31 -26q-80 -12 -112 -70q-27 -47 -27 -213v-406 q0 -88 -13.5 -173t-52 -182t-102 -169t-174.5 -119t-256 -47q-125 0 -223.5 31t-159.5 73t-106.5 113.5t-66 129t-32.5 143.5t-13 130t-1 118v421q0 111 -29 162q-8 14 -19.5 24.5t-21.5 15.5t-24.5 9t-22.5 5.5l-18 3.5h-13q-30 3 -30 26zM610 1661q0 37 27 64.5t65.5 27.5 t65.5 -27.5t27 -64.5t-27 -64.5t-63 -27.5q-39 0 -67 27.5t-28 64.5zM913 1661q0 37 27 64.5t65.5 27.5t65.5 -27.5t27 -64.5t-27 -64.5t-63 -27.5q-39 0 -67 27.5t-28 64.5z" />
<glyph unicode="&#xdd;" horiz-adv-x="1251" d="M-6 1374v23q0 14 6 19t25 5q2 0 51 -2t109.5 -3t90.5 -1q33 0 88.5 1t99.5 3t46 2q18 0 24.5 -5t6.5 -19v-23q0 -23 -31 -26h-10q-10 -2 -16.5 -3.5t-18.5 -4.5t-20.5 -8t-16.5 -12t-12 -19.5t-4 -28.5q0 -33 84 -197l168 -334l170 297q106 186 106 244q-6 14 -13 24.5 t-16 16.5l-15 11q-7 5 -17.5 7t-14.5 4l-12 3h-10q-31 4 -31 26v23q0 14 6 19t25 5q2 0 40 -2t87 -3t78 -1q25 0 67.5 1t75.5 3t35 2q18 0 24 -5t6 -19v-23q0 -23 -30 -26q-20 -2 -63.5 -25t-63.5 -43q-59 -59 -121 -158l-207 -356q-70 -117 -70 -209v-270q0 -111 29 -162 q8 -14 21.5 -24.5t29 -15.5t33.5 -9t32 -5l27 -2q14 -1 17 -1q31 -4 31 -27v-23q0 -14 -6.5 -19t-24.5 -5q-2 0 -53.5 1t-117 3t-104.5 2q-35 0 -96 -2t-109.5 -3t-50.5 -1q-18 0 -24 5t-6 19v23q0 23 30 27q2 0 14.5 1t23 2t26.5 5t29.5 9t25.5 15.5t21 24.5q29 51 28 162 v270q0 76 -77 227l-187 353q-55 102 -102 153q-49 47 -135 58q-31 3 -31 26zM434 1561q0 25 41 45l281 155q33 18 53 19q18 0 73.5 -33t55.5 -57q0 -20 -45 -33l-391 -109q-25 -6 -33 -6q-35 1 -35 19z" />
<glyph unicode="&#xde;" horiz-adv-x="1175" d="M53 18v23q0 23 31 27l14 2q12 0 20.5 1t24 5t26.5 9t24.5 15.5t21.5 24.5q29 51 29 162v841q0 111 -29 162q-8 14 -19.5 24.5t-21.5 15.5t-24.5 9t-22.5 5.5t-21 3.5h-10q-31 4 -30 26v23q0 14 6 19t24 5q2 0 47 -2t101.5 -3t87.5 -1q33 0 88 1t99 3t46 2q18 0 24.5 -5 t6.5 -19v-23q0 -23 -31 -26h-12q-10 -2 -18.5 -3.5t-22.5 -5.5t-24.5 -9t-21.5 -15t-20 -25q-29 -53 -28 -147v-58q129 18 248 19q190 0 313 -104.5t123 -274.5q0 -154 -121 -265.5t-297 -111.5q-74 0 -157 30t-83 68q0 12 11.5 22.5t25.5 10.5q10 0 67.5 -19.5t106.5 -19.5 q106 0 179 73t73 179q0 145 -108.5 232.5t-247.5 87.5q-86 0 -133 -29v-696q0 -111 28 -162q10 -14 25.5 -24.5t31 -15.5t35 -9t31 -5t25.5 -2t16 -1q31 -4 31 -27v-23q0 -14 -6 -19t-25 -5q-2 0 -54 1t-118.5 3t-105.5 2q-35 0 -94.5 -2t-105.5 -3t-48 -1q-18 0 -24.5 5 t-6.5 19z" />
<glyph unicode="&#xdf;" horiz-adv-x="1099" d="M25 18v23q0 23 30 27q31 2 75 20t60 53q16 37 17 172v666q0 82 22.5 167t64.5 161.5t116.5 126t167.5 49.5q121 0 197.5 -70t76.5 -182q0 -68 -24.5 -129.5t-48 -100t-23.5 -49.5q0 -8 44 -41.5t95 -80t95 -143.5t44 -218q0 -205 -123 -352.5t-262 -147.5 q-96 0 -157.5 55.5t-61.5 131.5q0 61 33 97t84 36q35 0 59.5 -20.5t24.5 -55.5q0 -59 -31 -59q-12 2 -33 2q-23 -6 -22 -29q0 -39 28.5 -62.5t71.5 -23.5q80 0 152.5 102.5t72.5 272.5q0 119 -44 211t-95 133t-95 72.5t-44 41.5q0 14 53 115t53 187q0 96 -50 155.5 t-124 59.5q-92 0 -122.5 -88.5t-30.5 -258.5v-993q0 -57 -31 -57q-29 0 -68 3t-67 3q-20 0 -56 -2t-64 -3t-30 -1q-18 0 -24 5t-6 19z" />
<glyph unicode="&#xe0;" horiz-adv-x="1024" d="M66 160q0 86 62 155.5t157.5 111.5t178.5 64.5t154 32.5v82q0 244 -165 244q-61 0 -104.5 -40t-43.5 -73q0 -14 8.5 -41.5t8.5 -29.5q0 -18 -13.5 -29.5t-25.5 -11.5q-16 0 -58.5 51t-42.5 72q0 29 51.5 77.5t142.5 93t177 44.5q66 0 111 -24t68.5 -54.5t34.5 -88t13 -95 t2 -105.5q0 -39 -6 -112.5t-6 -112.5q0 -248 88 -248q20 0 45 19.5t37 19.5q35 0 35 -35q0 -45 -75 -101.5t-140 -56.5q-94 0 -131 133q-53 -47 -144.5 -90t-195.5 -43q-106 0 -164.5 52.5t-58.5 138.5zM219 1206q0 25 55.5 57.5t73.5 32.5q20 0 53 -18l281 -156 q41 -20 41 -45q0 -18 -35 -18q-8 0 -33 6l-391 109q-45 12 -45 32zM270 217q0 -135 115 -135q57 0 116.5 31.5t86.5 83.5q37 63 37 159q0 45 -11.5 60.5t-40.5 15.5q-96 0 -199.5 -70.5t-103.5 -144.5z" />
<glyph unicode="&#xe1;" horiz-adv-x="1024" d="M66 160q0 86 62 155.5t157.5 111.5t178.5 64.5t154 32.5v82q0 244 -165 244q-61 0 -104.5 -40t-43.5 -73q0 -14 8.5 -41.5t8.5 -29.5q0 -18 -13.5 -29.5t-25.5 -11.5q-16 0 -58.5 51t-42.5 72q0 29 51.5 77.5t142.5 93t177 44.5q66 0 111 -24t68.5 -54.5t34.5 -88t13 -95 t2 -105.5q0 -39 -6 -112.5t-6 -112.5q0 -248 88 -248q20 0 45 19.5t37 19.5q35 0 35 -35q0 -45 -75 -101.5t-140 -56.5q-94 0 -131 133q-53 -47 -144.5 -90t-195.5 -43q-106 0 -164.5 52.5t-58.5 138.5zM270 217q0 -135 115 -135q57 0 116.5 31.5t86.5 83.5q37 63 37 159 q0 45 -11.5 60.5t-40.5 15.5q-96 0 -199.5 -70.5t-103.5 -144.5zM301 1077q0 25 41 45l281 156q33 18 53 18q18 0 73.5 -32.5t55.5 -57.5q0 -20 -45 -32l-391 -109q-25 -6 -33 -6q-35 0 -35 18z" />
<glyph unicode="&#xe2;" horiz-adv-x="1024" d="M66 160q0 86 62 155.5t157.5 111.5t178.5 64.5t154 32.5v82q0 244 -165 244q-61 0 -104.5 -40t-43.5 -73q0 -14 8.5 -41.5t8.5 -29.5q0 -18 -13.5 -29.5t-25.5 -11.5q-16 0 -58.5 51t-42.5 72q0 29 51.5 77.5t142.5 93t177 44.5q66 0 111 -24t68.5 -54.5t34.5 -88t13 -95 t2 -105.5q0 -39 -6 -112.5t-6 -112.5q0 -248 88 -248q20 0 45 19.5t37 19.5q35 0 35 -35q0 -45 -75 -101.5t-140 -56.5q-94 0 -131 133q-53 -47 -144.5 -90t-195.5 -43q-106 0 -164.5 52.5t-58.5 138.5zM215 1083q0 10 39 43l213 160q25 20 37 21q6 0 33 -17l231 -170 q4 -4 11 -9l12 -8q4 -3 8 -9.5t4 -12.5q0 -23 -35 -22q-8 0 -29 8l-221 84l-235 -80q-16 -8 -43 -8q-25 0 -25 20zM270 217q0 -135 115 -135q57 0 116.5 31.5t86.5 83.5q37 63 37 159q0 45 -11.5 60.5t-40.5 15.5q-96 0 -199.5 -70.5t-103.5 -144.5z" />
<glyph unicode="&#xe3;" horiz-adv-x="1024" d="M66 160q0 86 62 155.5t157.5 111.5t178.5 64.5t154 32.5v82q0 244 -165 244q-61 0 -104.5 -40t-43.5 -73q0 -14 8.5 -41.5t8.5 -29.5q0 -18 -13.5 -29.5t-25.5 -11.5q-16 0 -58.5 51t-42.5 72q0 29 51.5 77.5t142.5 93t177 44.5q66 0 111 -24t68.5 -54.5t34.5 -88t13 -95 t2 -105.5q0 -39 -6 -112.5t-6 -112.5q0 -248 88 -248q20 0 45 19.5t37 19.5q35 0 35 -35q0 -45 -75 -101.5t-140 -56.5q-94 0 -131 133q-53 -47 -144.5 -90t-195.5 -43q-106 0 -164.5 52.5t-58.5 138.5zM250 1120q0 45 52 100.5t118 55.5q39 0 112.5 -32t104.5 -32 q27 0 59.5 28t44.5 28q31 0 31 -41q0 -37 -45 -88.5t-90 -51.5q-59 0 -137 32t-111 32q-29 0 -61.5 -30.5t-44.5 -30.5q-33 -1 -33 30zM270 217q0 -135 115 -135q57 0 116.5 31.5t86.5 83.5q37 63 37 159q0 45 -11.5 60.5t-40.5 15.5q-96 0 -199.5 -70.5t-103.5 -144.5z" />
<glyph unicode="&#xe4;" horiz-adv-x="1024" d="M66 160q0 86 62 155.5t157.5 111.5t178.5 64.5t154 32.5v82q0 244 -165 244q-61 0 -104.5 -40t-43.5 -73q0 -14 8.5 -41.5t8.5 -29.5q0 -18 -13.5 -29.5t-25.5 -11.5q-16 0 -58.5 51t-42.5 72q0 29 51.5 77.5t142.5 93t177 44.5q66 0 111 -24t68.5 -54.5t34.5 -88t13 -95 t2 -105.5q0 -39 -6 -112.5t-6 -112.5q0 -248 88 -248q20 0 45 19.5t37 19.5q35 0 35 -35q0 -45 -75 -101.5t-140 -56.5q-94 0 -131 133q-53 -47 -144.5 -90t-195.5 -43q-106 0 -164.5 52.5t-58.5 138.5zM268 1177.5q0 36.5 27 64.5t65.5 28t65.5 -28t27 -64.5t-27 -64.5 t-64 -28q-39 0 -66.5 28t-27.5 64.5zM270 217q0 -135 115 -135q57 0 116.5 31.5t86.5 83.5q37 63 37 159q0 45 -11.5 60.5t-40.5 15.5q-96 0 -199.5 -70.5t-103.5 -144.5zM571 1177.5q0 36.5 27 64.5t65.5 28t65.5 -28t27 -64.5t-27 -64.5t-63 -28q-39 0 -67 28t-28 64.5z " />
<glyph unicode="&#xe5;" horiz-adv-x="1024" d="M66 160q0 86 62 155.5t157.5 111.5t178.5 64.5t154 32.5v82q0 244 -165 244q-61 0 -104.5 -40t-43.5 -73q0 -14 8.5 -41.5t8.5 -29.5q0 -18 -13.5 -29.5t-25.5 -11.5q-16 0 -58.5 51t-42.5 72q0 29 51.5 77.5t142.5 93t177 44.5q66 0 111 -24t68.5 -54.5t34.5 -88t13 -95 t2 -105.5q0 -39 -6 -112.5t-6 -112.5q0 -248 88 -248q20 0 45 19.5t37 19.5q35 0 35 -35q0 -45 -75 -101.5t-140 -56.5q-94 0 -131 133q-53 -47 -144.5 -90t-195.5 -43q-106 0 -164.5 52.5t-58.5 138.5zM270 217q0 -135 115 -135q57 0 116.5 31.5t86.5 83.5q37 63 37 159 q0 45 -11.5 60.5t-40.5 15.5q-96 0 -199.5 -70.5t-103.5 -144.5zM354 1214q0 66 46 112t112 46t112 -46t46 -109q0 -66 -47.5 -112t-113 -46t-110.5 46t-45 109zM426 1216.5q0 -34.5 24.5 -60.5t61.5 -26t61.5 25t24.5 62q0 35 -25.5 59t-60.5 24q-37 0 -61.5 -24.5 t-24.5 -59z" />
<glyph unicode="&#xe6;" horiz-adv-x="1517" d="M66 160q0 86 62 155.5t157.5 111.5t178.5 64.5t154 32.5v82q0 244 -165 244q-61 0 -104.5 -40t-43.5 -73q0 -14 8.5 -41.5t8.5 -29.5q0 -18 -13.5 -29.5t-25.5 -11.5q-16 0 -58.5 51t-42.5 72q0 29 51.5 77.5t142.5 93t177 44.5q168 0 215 -146q150 145 338 146 q172 0 269.5 -101.5t97.5 -226.5q0 -74 -31 -74h-651q0 -127 32.5 -220t85 -140t103.5 -67.5t104 -20.5q66 0 127.5 29.5t96.5 65.5l64 65q28 30 32 30q45 0 45 -43q0 -72 -130 -181.5t-304 -109.5q-242 0 -365 187q-59 -63 -165.5 -125t-227.5 -62q-106 0 -164.5 52.5 t-58.5 138.5zM270 217q0 -135 115 -135q57 0 116.5 31.5t86.5 83.5q37 63 37 159q0 45 -11.5 60.5t-40.5 15.5q-96 0 -199.5 -70.5t-103.5 -144.5zM807 668q0 -14 90 -15h322q49 0 49 45q0 57 -63.5 104.5t-151.5 47.5q-106 0 -176 -65.5t-70 -116.5z" />
<glyph unicode="&#xe7;" horiz-adv-x="948" d="M72 457q0 201 155.5 353.5t374.5 152.5q121 0 184.5 -38t63.5 -94q0 -39 -32 -69.5t-75 -30.5q-47 0 -122.5 59.5t-137.5 59.5q-74 0 -150.5 -71.5t-76.5 -239.5q0 -190 104.5 -308t245.5 -118q80 0 138.5 33.5t90 66.5t50.5 33q12 0 22.5 -11.5t10.5 -21.5 q0 -76 -114 -160t-267 -84q-201 0 -333 136.5t-132 351.5zM360 -319q0 20 23 20q10 0 42 -9t50 -9q100 0 100 75q0 23 -18 39.5t-47 16.5q-14 0 -49 -11.5t-45 -11.5q-16 0 -17 19q0 4 33 69l86 146h113l-111 -140q164 0 164 -121q0 -63 -55.5 -103t-122.5 -40 q-31 0 -88.5 16.5t-57.5 43.5z" />
<glyph unicode="&#xe8;" horiz-adv-x="985" d="M74 424q0 127 48 233.5t122.5 171t161 99.5t167.5 35q172 0 269.5 -101.5t97.5 -226.5q0 -74 -31 -74h-651q0 -127 33 -220t85 -140t103 -67.5t105 -20.5q66 0 127 29.5t97 65.5l63 65q28 30 32 30q45 0 45 -43q0 -72 -130 -181.5t-304 -109.5q-188 0 -314 127t-126 328z M260 1206q0 25 55.5 57.5t73.5 32.5q20 0 53 -18l281 -156q41 -20 41 -45q0 -18 -35 -18q-8 0 -33 6l-391 109q-45 12 -45 32zM274 668q0 -14 91 -15h321q49 0 49 45q0 57 -63.5 104.5t-151.5 47.5q-106 0 -176 -65.5t-70 -116.5z" />
<glyph unicode="&#xe9;" horiz-adv-x="985" d="M74 424q0 127 48 233.5t122.5 171t161 99.5t167.5 35q172 0 269.5 -101.5t97.5 -226.5q0 -74 -31 -74h-651q0 -127 33 -220t85 -140t103 -67.5t105 -20.5q66 0 127 29.5t97 65.5l63 65q28 30 32 30q45 0 45 -43q0 -72 -130 -181.5t-304 -109.5q-188 0 -314 127t-126 328z M274 668q0 -14 91 -15h321q49 0 49 45q0 57 -63.5 104.5t-151.5 47.5q-106 0 -176 -65.5t-70 -116.5zM342 1077q0 25 41 45l281 156q33 18 53 18q18 0 73.5 -32.5t55.5 -57.5q0 -20 -45 -32l-391 -109q-25 -6 -33 -6q-35 0 -35 18z" />
<glyph unicode="&#xea;" horiz-adv-x="985" d="M74 424q0 127 48 233.5t122.5 171t161 99.5t167.5 35q172 0 269.5 -101.5t97.5 -226.5q0 -74 -31 -74h-651q0 -127 33 -220t85 -140t103 -67.5t105 -20.5q66 0 127 29.5t97 65.5l63 65q28 30 32 30q45 0 45 -43q0 -72 -130 -181.5t-304 -109.5q-188 0 -314 127t-126 328z M256 1083q0 10 39 43l213 160q25 20 37 21q6 0 33 -17l231 -170q4 -4 11 -9l11 -8q4 -3 8.5 -9.5t4.5 -12.5q0 -23 -35 -22q-8 0 -29 8l-221 84l-235 -80q-16 -8 -43 -8q-25 0 -25 20zM274 668q0 -14 91 -15h321q49 0 49 45q0 57 -63.5 104.5t-151.5 47.5q-106 0 -176 -65.5 t-70 -116.5z" />
<glyph unicode="&#xeb;" horiz-adv-x="985" d="M74 424q0 127 48 233.5t122.5 171t161 99.5t167.5 35q172 0 269.5 -101.5t97.5 -226.5q0 -74 -31 -74h-651q0 -127 33 -220t85 -140t103 -67.5t105 -20.5q66 0 127 29.5t97 65.5l63 65q28 30 32 30q45 0 45 -43q0 -72 -130 -181.5t-304 -109.5q-188 0 -314 127t-126 328z M274 668q0 -14 91 -15h321q49 0 49 45q0 57 -63.5 104.5t-151.5 47.5q-106 0 -176 -65.5t-70 -116.5zM289 1177.5q0 36.5 26.5 64.5t65.5 28t65.5 -28t26.5 -64.5t-26.5 -64.5t-63.5 -28q-39 0 -66.5 28t-27.5 64.5zM592 1177.5q0 36.5 26.5 64.5t65.5 28t65.5 -28 t26.5 -64.5t-26.5 -64.5t-63.5 -28q-39 0 -66.5 28t-27.5 64.5z" />
<glyph unicode="&#xec;" horiz-adv-x="569" d="M-8 1206q0 25 55 57.5t74 32.5q20 0 53 -18l281 -156q41 -20 41 -45q0 -18 -35 -18q-8 0 -33 6l-391 109q-45 12 -45 32zM49 813v18q0 23 39 31q68 12 129.5 38t95 44.5t43.5 18.5q14 0 24.5 -14.5t10.5 -26.5q0 -4 -10 -55.5t-10 -94.5v-516q0 -88 14 -115 q37 -63 137 -73q31 -4 31 -27v-23q0 -14 -6 -19t-25 -5q-2 0 -49 1t-107.5 3t-95 2t-110.5 -4l-78 -2q-18 0 -24.5 5t-6.5 19v23q0 23 31 27q27 2 63.5 20t49.5 53q12 39 12 115v383q0 49 -5 70.5t-34 42t-90 36.5q-8 0 -18.5 7.5t-10.5 17.5z" />
<glyph unicode="&#xed;" horiz-adv-x="569" d="M49 813v18q0 23 39 31q68 12 129.5 38t95 44.5t43.5 18.5q14 0 24.5 -14.5t10.5 -26.5q0 -4 -10 -55.5t-10 -94.5v-516q0 -88 14 -115q37 -63 137 -73q31 -4 31 -27v-23q0 -14 -6 -19t-25 -5q-2 0 -49 1t-107.5 3t-95 2t-110.5 -4l-78 -2q-18 0 -24.5 5t-6.5 19v23 q0 23 31 27q27 2 63.5 20t49.5 53q12 39 12 115v383q0 49 -5 70.5t-34 42t-90 36.5q-8 0 -18.5 7.5t-10.5 17.5zM94 1077q0 25 41 45l281 156q33 18 53 18q18 0 73.5 -32.5t55.5 -57.5q0 -20 -45 -32l-391 -109q-25 -6 -33 -6q-35 0 -35 18z" />
<glyph unicode="&#xee;" horiz-adv-x="569" d="M-12 1083q0 10 39 43l213 160q27 20 36 21q6 0 33 -17l232 -170q4 -4 11 -9l11 -8q4 -3 8 -9.5t4 -12.5q0 -23 -34 -22q-8 0 -29 8l-221 84l-236 -80q-16 -8 -43 -8q-24 0 -24 20zM49 813v18q0 23 39 31q68 12 129.5 38t95 44.5t43.5 18.5q14 0 24.5 -14.5t10.5 -26.5 q0 -4 -10 -55.5t-10 -94.5v-516q0 -88 14 -115q37 -63 137 -73q31 -4 31 -27v-23q0 -14 -6 -19t-25 -5q-2 0 -49 1t-107.5 3t-95 2t-110.5 -4l-78 -2q-18 0 -24.5 5t-6.5 19v23q0 23 31 27q27 2 63.5 20t49.5 53q12 39 12 115v383q0 49 -5 70.5t-34 42t-90 36.5 q-8 0 -18.5 7.5t-10.5 17.5z" />
<glyph unicode="&#xef;" horiz-adv-x="569" d="M41 1177.5q0 36.5 26.5 64.5t65.5 28t65.5 -28t26.5 -64.5t-26.5 -64.5t-63.5 -28q-39 0 -66.5 28t-27.5 64.5zM49 813v18q0 23 39 31q68 12 129.5 38t95 44.5t43.5 18.5q14 0 24.5 -14.5t10.5 -26.5q0 -4 -10 -55.5t-10 -94.5v-516q0 -88 14 -115q37 -63 137 -73 q31 -4 31 -27v-23q0 -14 -6 -19t-25 -5q-2 0 -49 1t-107.5 3t-95 2t-110.5 -4l-78 -2q-18 0 -24.5 5t-6.5 19v23q0 23 31 27q27 2 63.5 20t49.5 53q12 39 12 115v383q0 49 -5 70.5t-34 42t-90 36.5q-8 0 -18.5 7.5t-10.5 17.5zM344 1177.5q0 36.5 26.5 64.5t65.5 28 t65.5 -28t26.5 -64.5t-26.5 -64.5t-63.5 -28q-39 0 -66.5 28t-27.5 64.5z" />
<glyph unicode="&#xf0;" horiz-adv-x="1103" d="M84 446q0 209 146.5 363t353.5 154q156 0 198 -39l4 4q-68 143 -153 227l-113 -82q-47 -37 -57 -37q-2 0 -14 13l-17 20q-14 18 -14 31q0 8 26 28l136 99q-94 86 -197 86q-39 0 -75 -13.5t-40 -13.5q-6 0 -16 23l-21 34q-6 10 -6 21q2 12 68 25q82 16 199 94 q164 -106 217 -162l112 82q47 37 58 37q2 0 14 -13l16 -20q14 -18 15 -31q0 -8 -27 -28l-135 -99q248 -313 248 -645q0 -158 -33 -275.5t-82 -184t-118.5 -107.5t-131 -54.5t-129.5 -13.5q-178 0 -305 131t-127 346zM248 528q0 -180 98 -295.5t223 -115.5q84 0 141.5 33.5 t85 96t39 129t11.5 154.5q0 78 -9.5 131.5t-38 105.5t-91 77.5t-156.5 25.5q-117 0 -210 -92t-93 -250z" />
<glyph unicode="&#xf1;" horiz-adv-x="1214" d="M55 813v18q0 23 39 31q66 12 125.5 38t93 44.5t43.5 18.5q14 0 24.5 -14.5t10.5 -26.5q0 -4 -10 -43t-10 -76h4q41 57 128 108.5t179 51.5q137 0 232.5 -93.5t95.5 -294.5v-319q0 -88 14 -115q33 -66 106 -73q31 -4 31 -27v-23q0 -14 -6 -19t-25 -5q-27 0 -96 3t-104 3 q-33 0 -104.5 -3t-100.5 -3q-18 0 -24.5 5t-6.5 19v23q0 23 31 27q25 2 59.5 20t49.5 53q12 39 12 115v319q0 90 -60.5 167t-175.5 77q-78 0 -129 -23.5t-73.5 -69.5t-29.5 -88t-7 -103v-279q0 -88 14 -115q33 -66 113 -73q31 -4 30 -27v-23q0 -14 -6 -19t-24 -5 q-20 0 -93 3t-114 3q-35 0 -105.5 -3t-97.5 -3q-18 0 -24.5 5t-6.5 19v23q0 23 31 27q25 2 58.5 20t48.5 53q12 39 12 115v383q0 86 -17 106q-23 31 -106 43q-29 5 -29 25zM344 1120q0 45 52.5 100.5t117.5 55.5q39 0 112.5 -32t104.5 -32q27 0 59.5 28t45.5 28q31 0 30 -41 q0 -37 -45 -88.5t-90 -51.5q-59 0 -137 32t-111 32q-29 0 -61.5 -30.5t-44.5 -30.5q-33 -1 -33 30z" />
<glyph unicode="&#xf2;" horiz-adv-x="1138" d="M68 461q0 219 156.5 360.5t344.5 141.5q195 0 349.5 -142.5t154.5 -353.5q0 -219 -155.5 -358.5t-350.5 -139.5q-193 0 -346 136.5t-153 355.5zM252 545q0 -197 112.5 -340.5t249.5 -143.5q123 0 199 90.5t76 233.5q0 190 -99.5 337.5t-259.5 147.5q-119 0 -198.5 -91 t-79.5 -234zM276 1206q0 25 55.5 57.5t74.5 32.5q20 0 53 -18l280 -156q41 -20 41 -45q0 -18 -35 -18q-8 0 -32 6l-391 109q-46 12 -46 32z" />
<glyph unicode="&#xf3;" horiz-adv-x="1138" d="M68 461q0 219 156.5 360.5t344.5 141.5q195 0 349.5 -142.5t154.5 -353.5q0 -219 -155.5 -358.5t-350.5 -139.5q-193 0 -346 136.5t-153 355.5zM252 545q0 -197 112.5 -340.5t249.5 -143.5q123 0 199 90.5t76 233.5q0 190 -99.5 337.5t-259.5 147.5q-119 0 -198.5 -91 t-79.5 -234zM317 1077q0 25 41 45l281 156q33 18 53 18q18 0 73.5 -32.5t55.5 -57.5q0 -20 -45 -32l-391 -109q-25 -6 -33 -6q-35 0 -35 18z" />
<glyph unicode="&#xf4;" horiz-adv-x="1138" d="M68 461q0 219 156.5 360.5t344.5 141.5q195 0 349.5 -142.5t154.5 -353.5q0 -219 -155.5 -358.5t-350.5 -139.5q-193 0 -346 136.5t-153 355.5zM252 545q0 -197 112.5 -340.5t249.5 -143.5q123 0 199 90.5t76 233.5q0 190 -99.5 337.5t-259.5 147.5q-119 0 -198.5 -91 t-79.5 -234zM272 1083q0 10 39 43l213 160q25 20 37 21q6 0 33 -17l231 -170q4 -4 12 -9l11 -8q4 -3 8 -9.5t4 -12.5q0 -23 -35 -22q-8 0 -28 8l-222 84l-235 -80q-16 -8 -43 -8q-25 0 -25 20z" />
<glyph unicode="&#xf5;" horiz-adv-x="1138" d="M68 461q0 219 156.5 360.5t344.5 141.5q195 0 349.5 -142.5t154.5 -353.5q0 -219 -155.5 -358.5t-350.5 -139.5q-193 0 -346 136.5t-153 355.5zM252 545q0 -197 112.5 -340.5t249.5 -143.5q123 0 199 90.5t76 233.5q0 190 -99.5 337.5t-259.5 147.5q-119 0 -198.5 -91 t-79.5 -234zM307 1120q0 45 52.5 100.5t117.5 55.5q39 0 113 -32t104 -32q27 0 59.5 28t45.5 28q31 0 30 -41q0 -37 -45 -88.5t-90 -51.5q-59 0 -137 32t-111 32q-29 0 -61.5 -30.5t-44.5 -30.5q-33 -1 -33 30z" />
<glyph unicode="&#xf6;" horiz-adv-x="1138" d="M68 461q0 219 156.5 360.5t344.5 141.5q195 0 349.5 -142.5t154.5 -353.5q0 -219 -155.5 -358.5t-350.5 -139.5q-193 0 -346 136.5t-153 355.5zM252 545q0 -197 112.5 -340.5t249.5 -143.5q123 0 199 90.5t76 233.5q0 190 -99.5 337.5t-259.5 147.5q-119 0 -198.5 -91 t-79.5 -234zM326 1177.5q0 36.5 26.5 64.5t65.5 28t65.5 -28t26.5 -64.5t-26.5 -64.5t-63.5 -28q-39 0 -66.5 28t-27.5 64.5zM629 1177.5q0 36.5 26.5 64.5t65.5 28t65.5 -28t26.5 -64.5t-26.5 -64.5t-63.5 -28q-39 0 -66.5 28t-27.5 64.5z" />
<glyph unicode="&#xf7;" horiz-adv-x="1630" d="M291 535v47q0 16 9 20t44 4h975q35 0 44 -4t9 -20v-47q0 -20 -9 -25.5t-44 -5.5h-975q-35 0 -44 5.5t-9 25.5zM756 137q0 33 22.5 56.5t52.5 23.5q33 0 55.5 -23.5t22.5 -56.5q0 -31 -22.5 -54.5t-55.5 -23.5q-31 0 -53 23.5t-22 54.5zM756 971q0 33 22.5 56.5t52.5 23.5 q33 0 55.5 -23.5t22.5 -56.5q0 -31 -22.5 -54.5t-55.5 -23.5q-31 0 -53 23.5t-22 54.5z" />
<glyph unicode="&#xf8;" horiz-adv-x="1138" d="M63 0q0 10 19 29l108 108q-123 133 -122 324q0 219 156.5 360.5t345 141.5t321.5 -121l98 98q23 23 39 23q35 0 35 -27q0 -10 -31 -41l-100 -100q141 -137 141 -328q0 -219 -155.5 -358.5t-350.5 -139.5q-199 0 -334 123l-110 -110q-12 -12 -25 -13q-35 0 -35 31z M256 545q0 -158 68 -275l460 463q-100 137 -254 137q-117 0 -195.5 -91t-78.5 -234zM354 213q45 -72 116 -112t144 -40q119 0 195 90.5t76 233.5q0 168 -74 287z" />
<glyph unicode="&#xf9;" horiz-adv-x="1175" d="M49 883v18q0 20 7 25.5t32 5.5q59 0 107.5 3t76 7t46 9t27.5 8.5t11 3.5l35 -41q0 -4 -21.5 -82t-25.5 -142q-14 -195 -14 -342q0 -92 60.5 -173t174.5 -81q78 0 129 32t74 83t30 93t7 87v301q0 129 -113 160q-29 8 -28 25v18q0 20 7 25.5t31 5.5q59 0 107.5 3t76 7t46 9 t28 8.5t11.5 3.5l35 -41q0 -2 -18.5 -81t-18.5 -143v-405v-52q0 -13 5 -38t15 -33t30.5 -19.5t51.5 -17.5q29 -4 29 -24v-19q0 -23 -39 -31q-59 -12 -132 -51t-100 -39l-34 41q0 4 5 43t5 76h-4q-41 -57 -128 -108.5t-179 -51.5q-137 0 -232.5 92.5t-95.5 294.5q0 33 7 167 t7 175q0 35 -3 57.5t-27.5 55.5t-71.5 47q-29 9 -29 25zM254 1206q0 25 55.5 57.5t73.5 32.5q20 0 53 -18l281 -156q41 -20 41 -45q0 -18 -35 -18q-8 0 -33 6l-391 109q-45 12 -45 32z" />
<glyph unicode="&#xfa;" horiz-adv-x="1175" d="M49 883v18q0 20 7 25.5t32 5.5q59 0 107.5 3t76 7t46 9t27.5 8.5t11 3.5l35 -41q0 -4 -21.5 -82t-25.5 -142q-14 -195 -14 -342q0 -92 60.5 -173t174.5 -81q78 0 129 32t74 83t30 93t7 87v301q0 129 -113 160q-29 8 -28 25v18q0 20 7 25.5t31 5.5q59 0 107.5 3t76 7t46 9 t28 8.5t11.5 3.5l35 -41q0 -2 -18.5 -81t-18.5 -143v-405v-52q0 -13 5 -38t15 -33t30.5 -19.5t51.5 -17.5q29 -4 29 -24v-19q0 -23 -39 -31q-59 -12 -132 -51t-100 -39l-34 41q0 4 5 43t5 76h-4q-41 -57 -128 -108.5t-179 -51.5q-137 0 -232.5 92.5t-95.5 294.5q0 33 7 167 t7 175q0 35 -3 57.5t-27.5 55.5t-71.5 47q-29 9 -29 25zM377 1077q0 25 41 45l280 156q33 18 54 18q18 0 73.5 -32.5t55.5 -57.5q0 -20 -45 -32l-392 -109q-25 -6 -32 -6q-35 0 -35 18z" />
<glyph unicode="&#xfb;" horiz-adv-x="1175" d="M49 883v18q0 20 7 25.5t32 5.5q59 0 107.5 3t76 7t46 9t27.5 8.5t11 3.5l35 -41q0 -4 -21.5 -82t-25.5 -142q-14 -195 -14 -342q0 -92 60.5 -173t174.5 -81q78 0 129 32t74 83t30 93t7 87v301q0 129 -113 160q-29 8 -28 25v18q0 20 7 25.5t31 5.5q59 0 107.5 3t76 7t46 9 t28 8.5t11.5 3.5l35 -41q0 -2 -18.5 -81t-18.5 -143v-405v-52q0 -13 5 -38t15 -33t30.5 -19.5t51.5 -17.5q29 -4 29 -24v-19q0 -23 -39 -31q-59 -12 -132 -51t-100 -39l-34 41q0 4 5 43t5 76h-4q-41 -57 -128 -108.5t-179 -51.5q-137 0 -232.5 92.5t-95.5 294.5q0 33 7 167 t7 175q0 35 -3 57.5t-27.5 55.5t-71.5 47q-29 9 -29 25zM291 1083q0 10 39 43l213 160q27 20 37 21q6 0 32 -17l232 -170q4 -4 11 -9l11 -8q4 -3 8.5 -9.5t4.5 -12.5q0 -23 -35 -22q-8 0 -29 8l-221 84l-236 -80q-16 -8 -43 -8q-24 0 -24 20z" />
<glyph unicode="&#xfc;" horiz-adv-x="1175" d="M49 883v18q0 20 7 25.5t32 5.5q59 0 107.5 3t76 7t46 9t27.5 8.5t11 3.5l35 -41q0 -4 -21.5 -82t-25.5 -142q-14 -195 -14 -342q0 -92 60.5 -173t174.5 -81q78 0 129 32t74 83t30 93t7 87v301q0 129 -113 160q-29 8 -28 25v18q0 20 7 25.5t31 5.5q59 0 107.5 3t76 7t46 9 t28 8.5t11.5 3.5l35 -41q0 -2 -18.5 -81t-18.5 -143v-405v-52q0 -13 5 -38t15 -33t30.5 -19.5t51.5 -17.5q29 -4 29 -24v-19q0 -23 -39 -31q-59 -12 -132 -51t-100 -39l-34 41q0 4 5 43t5 76h-4q-41 -57 -128 -108.5t-179 -51.5q-137 0 -232.5 92.5t-95.5 294.5q0 33 7 167 t7 175q0 35 -3 57.5t-27.5 55.5t-71.5 47q-29 9 -29 25zM344 1177.5q0 36.5 26.5 64.5t65.5 28t65.5 -28t26.5 -64.5t-26.5 -64.5t-63.5 -28q-39 0 -66.5 28t-27.5 64.5zM647 1177.5q0 36.5 26.5 64.5t65.5 28t65.5 -28t26.5 -64.5t-26.5 -64.5t-63.5 -28q-39 0 -66.5 28 t-27.5 64.5z" />
<glyph unicode="&#xfd;" d="M-16 891v22q0 14 6 19.5t24 5.5l84 -4q84 -2 123 -2q27 0 73 1t81 3t37 2q18 0 24 -5t6 -20v-22q0 -23 -30 -27h-11q-12 -2 -20 -3t-19.5 -5t-19.5 -10t-14 -17.5t-6 -25.5q0 -51 22 -101l197 -466l168 339q63 135 63 216q0 14 -6 26t-13.5 18.5t-21.5 12.5t-21.5 8 t-21.5 5t-16 3q-31 6 -31 27v22q0 14 6 19.5t25 5.5l73 -4q76 -2 111 -2q25 0 68 1t77.5 3t36.5 2q18 0 24.5 -5t6.5 -20v-22q0 -23 -31 -27q-55 -6 -88 -37q-53 -47 -92 -129l-373 -786q-195 -406 -395 -406q-49 0 -76.5 25t-27.5 59q0 39 25.5 62.5t70.5 23.5 q29 0 58.5 -13t35.5 -13q59 0 117.5 81t89.5 170t31 136q0 35 -78 254t-143 364q-59 135 -72 154q-37 49 -107 55q-30 4 -30 27zM319 1077q0 25 41 45l281 156q33 18 53 18q18 0 73.5 -32.5t55.5 -57.5q0 -20 -45 -32l-391 -109q-25 -6 -33 -6q-35 0 -35 18z" />
<glyph unicode="&#xfe;" horiz-adv-x="1175" d="M35 -453q0 23 31 27q27 2 63.5 20.5t48.5 53.5q12 41 12 114v1397q0 49 -4 70.5t-28.5 42t-75.5 37.5q-8 0 -18.5 7t-10.5 17v19q0 23 39 30q61 12 118.5 38t88.5 44.5t41 18.5q14 0 24.5 -14.5t10.5 -26.5q0 -4 -10.5 -55.5t-10.5 -94.5v-491q41 47 70 72.5t94.5 57.5 t138.5 32q190 0 317.5 -138.5t127.5 -347.5q0 -211 -148.5 -359.5t-359.5 -148.5q-68 0 -140.5 16.5t-99.5 43.5v-267q0 -88 15 -114q37 -63 137 -74q31 -4 31 -27v-22q0 -14 -6.5 -19.5t-24.5 -5.5q-43 0 -128 3t-124 3q-29 0 -93.5 -3t-94.5 -3q-18 0 -24.5 5.5t-6.5 19.5 v22zM354 293q0 -109 83 -170.5t194 -61.5q137 0 222 91.5t85 248.5q0 190 -109.5 309t-257.5 119q-98 0 -157.5 -52t-59.5 -146v-338z" />
<glyph unicode="&#xff;" d="M-16 891v22q0 14 6 19.5t24 5.5l84 -4q84 -2 123 -2q27 0 73 1t81 3t37 2q18 0 24 -5t6 -20v-22q0 -23 -30 -27h-11q-12 -2 -20 -3t-19.5 -5t-19.5 -10t-14 -17.5t-6 -25.5q0 -51 22 -101l197 -466l168 339q63 135 63 216q0 14 -6 26t-13.5 18.5t-21.5 12.5t-21.5 8 t-21.5 5t-16 3q-31 6 -31 27v22q0 14 6 19.5t25 5.5l73 -4q76 -2 111 -2q25 0 68 1t77.5 3t36.5 2q18 0 24.5 -5t6.5 -20v-22q0 -23 -31 -27q-55 -6 -88 -37q-53 -47 -92 -129l-373 -786q-195 -406 -395 -406q-49 0 -76.5 25t-27.5 59q0 39 25.5 62.5t70.5 23.5 q29 0 58.5 -13t35.5 -13q59 0 117.5 81t89.5 170t31 136q0 35 -78 254t-143 364q-59 135 -72 154q-37 49 -107 55q-30 4 -30 27zM287 1177.5q0 36.5 26.5 64.5t65.5 28t65.5 -28t26.5 -64.5t-26.5 -64.5t-63.5 -28q-39 0 -66.5 28t-27.5 64.5zM590 1177.5q0 36.5 26.5 64.5 t65.5 28t65.5 -28t26.5 -64.5t-26.5 -64.5t-63.5 -28q-39 0 -66.5 28t-27.5 64.5z" />
<glyph unicode="&#x152;" horiz-adv-x="2086" d="M78 705q0 307 218 524t535 217q68 0 259.5 -15.5t353.5 -15.5q154 0 262.5 7.5t158.5 15.5t66 8q14 0 26.5 -14.5t12.5 -24.5q0 -2 -10 -36t-10 -68q0 -6 5 -65.5t5 -63.5q0 -20 -14.5 -38t-34.5 -18q-29 0 -29 25q0 8 1 21.5t1 19.5q0 61 -67 100q-31 16 -155 27.5 t-173 11.5q-135 0 -190.5 -9t-71 -30.5t-15.5 -77.5v-354q0 -41 9.5 -50t50.5 -9h252q133 0 165.5 24.5t42 64.5t13.5 66.5t27 26.5q47 0 47 -57q0 -2 -7.5 -60.5t-7.5 -87.5q0 -55 8.5 -127t8.5 -86q0 -10 -13.5 -21.5t-27.5 -11.5q-20 0 -29 23l-22 61q-14 39 -46 64 q-35 29 -159 28h-252q-35 0 -47.5 -14t-12.5 -55v-367q0 -115 47.5 -143.5t243.5 -28.5q154 0 267.5 32t142.5 91q10 23 16 50.5t9.5 48t7.5 37t10 25.5t18 9q63 0 64 -82q0 -25 -23.5 -97.5t-23.5 -113.5q0 -10 1 -34.5t1 -37.5q0 -14 -11.5 -27t-21.5 -13q-2 0 -6 2 t-13.5 4t-21.5 4q-51 10 -180 10h-406q-47 0 -243 -14q-164 -16 -250 -17q-328 0 -545 215.5t-217 520.5zM272 811q0 -190 71 -359t210 -280t317 -111q47 0 81 17.5t50.5 39t25.5 57.5t10 56.5t1 55.5v841q0 154 -36.5 190t-198.5 36q-223 0 -377 -155t-154 -388z" />
<glyph unicode="&#x153;" horiz-adv-x="1781" d="M68 461q0 219 156.5 360.5t344.5 141.5q115 0 224.5 -56.5t183.5 -152.5q76 100 183.5 154.5t211.5 54.5q172 0 269.5 -101.5t97.5 -226.5q0 -74 -31 -74h-651q0 -127 32.5 -220t85 -140t103.5 -67.5t104 -20.5q66 0 127.5 29.5t97.5 65.5l63 65q28 30 32 30q45 0 45 -43 q0 -72 -130 -181.5t-304 -109.5q-219 0 -359 174q-178 -174 -387 -174q-193 0 -346 136.5t-153 355.5zM252 545q0 -197 112.5 -340.5t249.5 -143.5q123 0 199 90.5t76 233.5q0 190 -99.5 337.5t-259.5 147.5q-119 0 -198.5 -91t-79.5 -234zM1073 668q0 -14 90 -15h322 q49 0 49 45q0 57 -63.5 104.5t-151.5 47.5q-106 0 -176 -65.5t-70 -116.5z" />
<glyph unicode="&#x178;" horiz-adv-x="1251" d="M-6 1374v23q0 14 6 19t25 5q2 0 51 -2t109.5 -3t90.5 -1q33 0 88.5 1t99.5 3t46 2q18 0 24.5 -5t6.5 -19v-23q0 -23 -31 -26h-10q-10 -2 -16.5 -3.5t-18.5 -4.5t-20.5 -8t-16.5 -12t-12 -19.5t-4 -28.5q0 -33 84 -197l168 -334l170 297q106 186 106 244q-6 14 -13 24.5 t-16 16.5l-15 11q-7 5 -17.5 7t-14.5 4l-12 3h-10q-31 4 -31 26v23q0 14 6 19t25 5q2 0 40 -2t87 -3t78 -1q25 0 67.5 1t75.5 3t35 2q18 0 24 -5t6 -19v-23q0 -23 -30 -26q-20 -2 -63.5 -25t-63.5 -43q-59 -59 -121 -158l-207 -356q-70 -117 -70 -209v-270q0 -111 29 -162 q8 -14 21.5 -24.5t29 -15.5t33.5 -9t32 -5l27 -2q14 -1 17 -1q31 -4 31 -27v-23q0 -14 -6.5 -19t-24.5 -5q-2 0 -53.5 1t-117 3t-104.5 2q-35 0 -96 -2t-109.5 -3t-50.5 -1q-18 0 -24 5t-6 19v23q0 23 30 27q2 0 14.5 1t23 2t26.5 5t29.5 9t25.5 15.5t21 24.5q29 51 28 162 v270q0 76 -77 227l-187 353q-55 102 -102 153q-49 47 -135 58q-31 3 -31 26zM371 1661q0 37 26.5 64.5t65.5 27.5t65.5 -27.5t26.5 -64.5t-26.5 -64.5t-63.5 -27.5q-39 0 -66.5 27.5t-27.5 64.5zM674 1661q0 37 26.5 64.5t65.5 27.5t65.5 -27.5t26.5 -64.5t-26.5 -64.5 t-63.5 -27.5q-39 0 -66.5 27.5t-27.5 64.5z" />
<glyph unicode="&#x2c6;" horiz-adv-x="686" d="M45 1083q0 10 39 43l213 160q27 20 37 21q6 0 33 -17l231 -170q4 -4 11 -9l12 -8q4 -3 8 -9.5t4 -12.5q0 -23 -35 -22q-8 0 -29 8l-221 84l-235 -80q-16 -8 -43 -8q-25 0 -25 20z" />
<glyph unicode="&#x2dc;" horiz-adv-x="686" d="M80 1120q0 45 52 100.5t118 55.5q39 0 112.5 -32t104.5 -32q27 0 59.5 28t44.5 28q31 0 31 -41q0 -37 -45 -88.5t-90 -51.5q-59 0 -137 32t-111 32q-31 0 -63.5 -30.5t-42.5 -30.5q-33 -1 -33 30z" />
<glyph unicode="&#x3bc;" horiz-adv-x="1175" d="M49 883v18q0 20 7 25.5t32 5.5q59 0 107.5 3t76 7t46 9t27.5 8.5t11 3.5l35 -41q0 -4 -21.5 -82t-25.5 -142q-14 -229 -14 -301q0 -127 56 -211t169 -84q80 0 134 32t76.5 83t31 93t8.5 87v301q0 129 -113 160q-29 8 -28 25v18q0 20 7 25.5t31 5.5q59 0 107.5 3t76 7 t46 9t28 8.5t11.5 3.5l35 -41q0 -2 -18.5 -81t-18.5 -143v-405v-52q0 -13 5 -38t15 -33t30.5 -19.5t51.5 -17.5q29 -4 29 -24v-19q0 -23 -39 -31q-59 -12 -132 -51t-100 -39l-34 41q0 4 5 43t5 76h-4q-41 -57 -128 -108.5t-179 -51.5q-125 0 -213 80q0 -84 21.5 -236.5 t21.5 -185.5q0 -121 -91 -121q-84 0 -83 121q0 27 20 204t20 325q-25 92 -24 221q0 31 7 156.5t7 164.5q0 35 -3 57.5t-27.5 55.5t-71.5 47q-29 9 -29 25z" />
<glyph unicode="&#x2013;" d="M59 526l76 117q8 14 30.5 14t156 -3t258.5 -3q131 0 217 7.5t112.5 14.5t43 14t26.5 7q20 0 20 -16q0 -10 -6 -21.5t-17 -27t-15 -23.5q-4 -6 -10.5 -17t-8.5 -15.5t-7 -11.5t-8 -9t-8.5 -6t-9.5 -5t-11 -2t-15 -1l-13 2h-40q-28 0 -68.5 1t-112 2t-157.5 1 q-131 0 -216.5 -6.5t-111.5 -13.5l-48 -13q-22 -6 -38 -6q-19 0 -19 20z" />
<glyph unicode="&#x2014;" horiz-adv-x="1669" d="M59 526l76 117q8 14 31 14q104 0 250.5 -1t254 -3t113.5 -2q188 0 333 3t220.5 8.5t128 10.5t68.5 10t28.5 8t20.5 3q20 0 21 -16q0 -10 -6.5 -21.5t-17.5 -27t-15 -23.5q-4 -6 -10.5 -17t-8.5 -15.5t-7 -11.5t-8 -9t-8 -6t-9.5 -5t-11.5 -2t-15 -1l-25 2h-82 q-55 0 -138 1t-227.5 2t-318.5 1q-201 0 -333 -6.5t-172.5 -13.5t-67.5 -13t-45.5 -6t-18.5 20z" />
<glyph unicode="&#x2018;" horiz-adv-x="681" d="M231 1149q0 111 59.5 204t106.5 93q14 0 14.5 -12.5t-9.5 -22.5l-29 -33q-20 -23 -39 -59q-25 -53 -25 -102q37 16 58 16q27 0 49 -28.5t22 -78.5q0 -55 -28.5 -94t-71.5 -39t-75 44t-32 112z" />
<glyph unicode="&#x2019;" horiz-adv-x="681" d="M240 1313q0 55 28.5 94t71.5 39t74.5 -44t31.5 -112q0 -111 -59 -204t-106 -93q-14 0 -14.5 12.5t8.5 22.5l30 33q20 23 39 59q25 53 25 103q-37 -16 -58 -17q-27 0 -49 29t-22 78z" />
<glyph unicode="&#x201a;" horiz-adv-x="681" d="M240 102q0 55 28.5 95.5t71.5 40.5q41 0 73.5 -44t32.5 -112q0 -104 -60 -201.5t-105 -97.5q-14 0 -15 12q0 14 9 25l30 33q20 23 39 57q20 41 25 104q-41 -18 -58 -18q-27 0 -49 29.5t-22 76.5z" />
<glyph unicode="&#x201c;" horiz-adv-x="1024" d="M231 1149q0 111 59.5 204t106.5 93q14 0 14.5 -12.5t-9.5 -22.5l-29 -33q-20 -23 -39 -59q-25 -53 -25 -102q37 16 58 16q27 0 49 -28.5t22 -78.5q0 -55 -28.5 -94t-71.5 -39t-75 44t-32 112zM571 1149q0 111 59.5 204t106.5 93q14 0 14.5 -12.5t-9.5 -22.5l-29 -33 q-20 -23 -39 -59q-25 -53 -25 -102q37 16 58 16q27 0 49 -28.5t22 -78.5q0 -55 -28.5 -94t-71.5 -39t-75 44t-32 112z" />
<glyph unicode="&#x201d;" horiz-adv-x="1024" d="M240 1313q0 55 28.5 94t71.5 39t74.5 -44t31.5 -112q0 -111 -59 -204t-106 -93q-14 0 -14.5 12.5t8.5 22.5l30 33q20 23 39 59q25 53 25 103q-37 -16 -58 -17q-27 0 -49 29t-22 78zM580 1313q0 55 28.5 94t71.5 39t74.5 -44t31.5 -112q0 -111 -59 -204t-106 -93 q-14 0 -14.5 12.5t8.5 22.5l30 33q20 23 39 59q25 53 25 103q-37 -16 -58 -17q-27 0 -49 29t-22 78z" />
<glyph unicode="&#x201e;" horiz-adv-x="1024" d="M240 104q0 55 28.5 94.5t71.5 39.5t74.5 -44t31.5 -112q0 -111 -59 -204t-106 -93q-14 0 -14.5 12.5t8.5 22.5l30 33q20 23 39 59q25 53 25 102q-37 -16 -58 -16q-27 0 -49 28.5t-22 77.5zM580 104q0 55 28.5 94.5t71.5 39.5t74.5 -44t31.5 -112q0 -111 -59 -204 t-106 -93q-14 0 -14.5 12.5t8.5 22.5l30 33q20 23 39 59q25 53 25 102q-37 -16 -58 -16q-27 0 -49 28.5t-22 77.5z" />
<glyph unicode="&#x2022;" horiz-adv-x="1024" d="M141 713q0 154 108.5 263t262.5 109t262.5 -109.5t108.5 -262.5q0 -152 -109.5 -260.5t-261.5 -108.5t-261.5 108.5t-109.5 260.5z" />
<glyph unicode="&#x2026;" horiz-adv-x="1669" d="M193 82q0 63 29.5 109.5t82.5 46.5q35 0 60.5 -36t25.5 -83q0 -59 -29.5 -104.5t-78.5 -45.5q-43 0 -66.5 33t-23.5 80zM733 82q0 63 30 109.5t83 46.5q35 0 60.5 -36t25.5 -83q0 -59 -30 -104.5t-79 -45.5q-43 0 -66.5 33t-23.5 80zM1274 82q0 63 29.5 109.5t82.5 46.5 q35 0 61 -36t26 -83q0 -59 -30 -104.5t-79 -45.5q-43 0 -66.5 33t-23.5 80z" />
<glyph unicode="&#x2039;" horiz-adv-x="378" d="M59 461l197 348h49l-108 -348l104 -346h-47z" />
<glyph unicode="&#x203a;" horiz-adv-x="378" d="M80 809h49l197 -348l-195 -346h-47l104 346z" />
<glyph unicode="&#x2122;" horiz-adv-x="1251" d="M43 1206l10 209h479l11 -209h-37q-4 10 -13.5 36t-12.5 33l-11 24.5t-13 23.5t-16.5 17.5t-24 16.5t-29.5 10t-40 9v-391q0 -33 3 -51.5t19.5 -27.5t28 -11t47.5 -6v-35h-313v35q37 4 48 5t30.5 10t25 28.5t5.5 52.5v391q-25 -4 -43.5 -9t-34 -16.5t-23.5 -16.5 t-18 -25.5l-12.5 -25.5t-13.5 -37t-15 -40h-37zM569 854v35q33 6 45.5 9t26.5 12.5t18.5 26.5t4.5 48v320q0 51 -10.5 59t-59.5 12v39h205l112 -371h4l129 371h222v-39q-63 -8 -74 -22q-12 -16 -12 -62v-307q0 -61 13 -75.5t62 -20.5v-35h-254v35q31 6 42.5 11t20.5 24.5 t9 60.5v377h-4l-172 -508h-33l-149 489h-4v-358q0 -41 7 -60.5t16 -24.5t36 -11v-35h-201z" />
<glyph unicode="&#xe000;" horiz-adv-x="940" d="M0 940h940v-940h-940v940z" />
<glyph unicode="&#xfb01;" horiz-adv-x="1292" d="M55 18v23q0 23 31 27q27 4 70 21t61.5 52t18.5 115v573h-101q-33 0 -41 4.5t-8 26.5v37q0 25 10 30t39 5h101q0 260 118.5 405.5t325.5 145.5q137 0 240.5 -48.5t103.5 -119.5q0 -49 -26.5 -75t-67.5 -26q-45 0 -69.5 31t-29.5 80q-4 41 -49 68.5t-127 27.5 q-125 0 -190.5 -70.5t-65.5 -246.5v-172h367q92 0 178 16q18 2 39 6t33 6.5t18 2.5q14 0 24.5 -14.5t10.5 -26.5q0 -4 -10 -55.5t-10 -94.5v-516q0 -88 14 -115q37 -63 137 -73q31 -4 31 -27v-23q0 -14 -6 -19t-25 -5q-20 0 -114.5 3t-137.5 3q-33 0 -102.5 -3t-85.5 -3 q-18 0 -24.5 5t-6.5 19v23q0 23 31 27q27 2 63.5 20t48.5 53q12 39 13 115v383q0 49 -3 74.5t-19.5 57.5t-55.5 45t-102 13h-306v-573q0 -70 35 -115q12 -16 30.5 -28.5t37 -19.5t39 -13t35 -8t26.5 -2l12 -2q31 -4 31 -27v-23q0 -14 -6 -19t-25 -5q-2 0 -53 1t-116.5 3 t-104.5 2q-47 0 -149.5 -3t-104.5 -3q-18 0 -24.5 5t-6.5 19z" />
<glyph unicode="&#xfb02;" horiz-adv-x="1339" d="M55 18v23q0 23 31 27q27 4 70 21t61.5 52t18.5 115v573h-101q-33 0 -41 4.5t-8 26.5v37q0 25 10 30t39 5h101q0 260 118.5 405.5t325.5 145.5q150 0 274 -72q27 12 55 31l44 29q16 11 24 12q14 0 24.5 -14.5t10.5 -26.5q0 -4 -10 -55.5t-10 -94.5v-1036q0 -88 14 -115 q33 -61 147 -73q31 -4 31 -27v-23q0 -14 -6 -19t-25 -5q-2 0 -50 1t-110.5 3t-101.5 2q-35 0 -110 -4l-76 -2q-18 0 -24.5 5t-6.5 19v23q0 23 31 27q27 2 63.5 20t46.5 53q12 39 13 115v573h-529v-573q0 -70 35 -115q12 -16 30.5 -28.5t37 -19.5t39 -13t35 -8t26.5 -2l12 -2 q31 -4 31 -27v-23q0 -14 -6 -19t-25 -5q-2 0 -53 1t-116.5 3t-104.5 2q-47 0 -149.5 -3t-104.5 -3q-18 0 -24.5 5t-6.5 19zM399 932h529v293q-35 0 -56.5 19.5t-28.5 39t-18 57.5q-23 80 -170 80q-125 0 -190.5 -70.5t-65.5 -246.5v-172z" />
<glyph unicode="&#xfb03;" horiz-adv-x="1933" d="M1413 813v18q0 23 39 31q68 12 129.5 38t95 44.5t43.5 18.5q14 0 24.5 -14.5t10.5 -26.5q0 -4 -10 -55.5t-10 -94.5v-516q0 -88 14 -115q37 -63 137 -73q31 -4 31 -27v-23q0 -14 -6 -19t-25 -5q-20 0 -114.5 3t-137.5 3q-33 0 -102.5 -3t-85.5 -3q-18 0 -24.5 5t-6.5 19 v23q0 23 31 27q27 2 63.5 20t49.5 53q12 39 12 115v383q0 49 -5 70.5t-34 42t-90 36.5q-8 0 -18.5 7.5t-10.5 17.5zM1534 1247q0 53 48 92t99 39q84 0 84 -69q0 -53 -47 -95.5t-108 -42.5q-76 0 -76 76zM737 18v23q0 23 31 27q27 4 70 21t61.5 52t18.5 115v573h-101 q-33 0 -41 4.5t-8 26.5v37q0 25 10 30t39 5h101q0 94 33.5 218t106.5 228.5t161 104.5q31 0 52 -21.5t21 -54.5q0 -47 -27.5 -73.5t-56.5 -26.5q-31 0 -49 12t-26 12q-51 0 -52 -227v-172h162q41 0 50.5 -5t9.5 -30v-37q0 -23 -10.5 -27t-49.5 -4h-162v-573q0 -70 35 -115 q12 -16 30.5 -28.5t37 -19.5t39 -13t35 -8t26.5 -2l12 -2q31 -4 31 -27v-23q0 -14 -6 -19t-25 -5q-55 0 -144 3t-130 3q-39 0 -126 -3t-128 -3q-18 0 -24.5 5t-6.5 19zM55 18v23q0 23 31 27q27 4 70 21t61.5 52t18.5 115v573h-101q-33 0 -41 4.5t-8 26.5v37q0 25 10 30t39 5 h101q0 94 33.5 218t106.5 228.5t161 104.5q31 0 52 -21.5t21 -54.5q0 -47 -27.5 -73.5t-56.5 -26.5q-31 0 -49 12t-26 12q-51 0 -52 -227v-172h162q41 0 50.5 -5t9.5 -30v-37q0 -23 -10.5 -27t-49.5 -4h-162v-573q0 -70 35 -115q12 -16 30.5 -28.5t37 -19.5t39 -13t35 -8 t26.5 -2l12 -2q31 -4 31 -27v-23q0 -14 -6 -19t-25 -5q-55 0 -144 3t-130 3q-39 0 -126 -3t-128 -3q-18 0 -24.5 5t-6.5 19z" />
<glyph unicode="&#xfb04;" horiz-adv-x="1933" d="M1413 18v23q0 23 31 27q27 2 63.5 20t46.5 53q12 39 13 115v903q0 49 -4 70.5t-29 42t-76 37.5q-8 0 -18 7t-10 17v19q0 23 38 30q61 12 119 38t88.5 44.5t40.5 18.5q14 0 24.5 -14.5t10.5 -26.5q0 -4 -10 -55.5t-10 -94.5v-1036q0 -88 14 -115q33 -61 147 -73 q31 -4 31 -27v-23q0 -14 -6 -19t-25 -5q-2 0 -50 1t-110.5 3t-101.5 2q-35 0 -110 -4l-76 -2q-18 0 -24.5 5t-6.5 19zM737 18v23q0 23 31 27q27 4 70 21t61.5 52t18.5 115v573h-101q-33 0 -41 4.5t-8 26.5v37q0 25 10 30t39 5h101q0 94 33.5 218t106.5 228.5t161 104.5 q31 0 52 -21.5t21 -54.5q0 -47 -27.5 -73.5t-56.5 -26.5q-31 0 -49 12t-26 12q-51 0 -52 -227v-172h162q41 0 50.5 -5t9.5 -30v-37q0 -23 -10.5 -27t-49.5 -4h-162v-573q0 -70 35 -115q12 -16 30.5 -28.5t37 -19.5t39 -13t35 -8t26.5 -2l12 -2q31 -4 31 -27v-23 q0 -14 -6 -19t-25 -5q-55 0 -144 3t-130 3q-39 0 -126 -3t-128 -3q-18 0 -24.5 5t-6.5 19zM55 18v23q0 23 31 27q27 4 70 21t61.5 52t18.5 115v573h-101q-33 0 -41 4.5t-8 26.5v37q0 25 10 30t39 5h101q0 94 33.5 218t106.5 228.5t161 104.5q31 0 52 -21.5t21 -54.5 q0 -47 -27.5 -73.5t-56.5 -26.5q-31 0 -49 12t-26 12q-51 0 -52 -227v-172h162q41 0 50.5 -5t9.5 -30v-37q0 -23 -10.5 -27t-49.5 -4h-162v-573q0 -70 35 -115q12 -16 30.5 -28.5t37 -19.5t39 -13t35 -8t26.5 -2l12 -2q31 -4 31 -27v-23q0 -14 -6 -19t-25 -5q-55 0 -144 3 t-130 3q-39 0 -126 -3t-128 -3q-18 0 -24.5 5t-6.5 19z" />
</font>
</defs>
</svg>
