<?xml version="1.0" standalone="no"?>
<!DOCTYPE svg PUBLIC "-//W3C//DTD SVG 1.1//EN" "http://www.w3.org/Graphics/SVG/1.1/DTD/svg11.dtd" >
<svg xmlns="http://www.w3.org/2000/svg">
<metadata>
This is a custom SVG webfont generated by Font Squirrel.
Copyright   : Copyright c 1990 Adobe Systems Incorporated  All rights reservedAdminister is under license from Typesettra Ltd
</metadata>
<defs>
<font id="ATAdministerBold" horiz-adv-x="1175" >
<font-face units-per-em="2048" ascent="1638" descent="-410" />
<missing-glyph horiz-adv-x="681" />
<glyph unicode=" "  horiz-adv-x="681" />
<glyph unicode="&#x09;" horiz-adv-x="681" />
<glyph unicode="&#xa0;" horiz-adv-x="681" />
<glyph unicode="!" horiz-adv-x="681" d="M207 1225q0 51 63.5 106t124 85t72.5 30q4 0 22 -12l11 -9q12 -12 12 -30q0 -25 -17.5 -78t-25.5 -141l-59 -568q-4 -35 -7.5 -78t-5.5 -60t-8 -34.5t-18 -27.5l-25 -21q-16 -16 -31 -16q-10 0 -15 4t-7 17.5t-3 26.5l-3 42q-2 29 -4 53l-64 582q-12 86 -12 129zM213 131 q0 63 36 107.5t91 44.5q57 0 96 -50.5t39 -113.5q0 -61 -34.5 -105.5t-88.5 -44.5q-66 0 -102.5 47t-36.5 115z" />
<glyph unicode="&#x22;" horiz-adv-x="1024" d="M233 1313q0 55 33 94t78 39q43 0 77 -40t34 -93l-47 -340h-127zM569 1313q0 55 33 94t78 39q43 0 77 -40t34 -93l-48 -340h-127z" />
<glyph unicode="#" d="M109 522v123h260l22 143h-246v123h267l88 535h133l-88 -535h143l88 535h133l-88 -535h240v-123h-260l-23 -143h236v-123h-256l-88 -553h-133l90 553h-146l-88 -553h-133l88 553h-239zM502 645h143l25 143h-146z" />
<glyph unicode="$" d="M115 43q0 25 21.5 84t21.5 92v168q0 111 59 111h25q20 0 24 -20.5t4 -71.5q0 -70 19.5 -123.5t61.5 -89t65.5 -51t75.5 -38.5l16 -8v514q-174 72 -250 144q-111 106 -111 254q0 109 34 187.5t96.5 124.5t111.5 67.5t119 42.5v43q0 43 33 53l28 8q16 6 31 6q20 0 21 -43 v-65q84 -4 150.5 -32t90.5 -28q14 0 43 22.5t43 22.5q10 0 15 -2l8 -4q16 -6 16 -27q0 -35 -16.5 -96t-16.5 -71q0 -23 2 -68t2 -66q0 -37 -17 -62.5t-42 -25.5h-18q-31 0 -34 35t-7 89.5t-35 88.5q-84 94 -184 101v-435q182 -80 245 -126q166 -121 166 -322q0 -98 -45 -183 t-110.5 -137.5t-134 -82t-121.5 -31.5v-78q0 -59 -27 -72l-19 -8q-31 -12 -38 -12q-16 0 -22.5 11t-6.5 48v103q-49 4 -144.5 29.5t-111.5 25.5q-20 0 -46 -21.5t-38 -21.5q-6 0 -25 14l-14 10q-14 9 -14 23zM342 1120q0 -41 15.5 -73.5t49 -57t48 -33t53.5 -28.5v379 q-166 -52 -166 -187zM621 94q76 16 131 73.5t55 147.5q0 53 -16.5 95.5t-55.5 76t-53 44t-61 38.5v-475z" />
<glyph unicode="%" horiz-adv-x="1744" d="M104 950q0 203 88.5 349.5t227.5 146.5q129 0 203.5 -122t74.5 -316q0 -203 -80.5 -348.5t-216.5 -145.5q-129 0 -213 123t-84 313zM227 1044q0 -176 57.5 -291.5t147.5 -115.5q66 0 104.5 81t38.5 208q0 162 -57 279.5t-129 117.5q-78 0 -120 -78t-42 -201zM387 -6 q0 6 16 39l816 1368q25 45 71 45h25q35 0 35 -27q0 -8 -15 -37l-827 -1380q-20 -33 -59 -33h-27q-35 0 -35 25zM1042 406q0 203 88.5 349t227.5 146q129 0 203.5 -122t74.5 -316q0 -203 -80.5 -348.5t-216.5 -145.5q-129 0 -213 123.5t-84 313.5zM1165 500q0 -176 57.5 -292 t147.5 -116q66 0 104.5 81t38.5 208q0 162 -57 279.5t-129 117.5q-78 0 -120 -77.5t-42 -200.5z" />
<glyph unicode="&#x26;" horiz-adv-x="1705" d="M39 356q0 98 43 180t118.5 138.5t130 86.5t128.5 60q-98 119 -99 221q0 178 127 291t291 113q115 0 196 -54.5t81 -154.5q0 -84 -59.5 -139.5t-137.5 -55.5q-76 0 -121 25t-45 70q0 14 10.5 25.5t26.5 11.5q8 0 20.5 -4.5t20.5 -4.5q59 0 59 66q0 23 -33.5 47.5 t-84.5 24.5q-61 0 -104.5 -43t-43.5 -103q0 -78 72 -146.5t195.5 -155.5t189.5 -161q55 -59 176 -239q109 139 109 272q0 111 -88 111q-23 0 -52.5 -4.5t-31.5 -4.5q-27 0 -27 39v31q0 66 102 66q29 0 93.5 -10.5t101.5 -10.5q41 0 114.5 10.5t98.5 10.5q41 0 54 -13.5 t13 -40.5v-30q0 -29 -47 -43q-92 -16 -102 -23q-20 -16 -46 -69l-68 -136q-42 -84 -85 -151q-12 -20 -41 -60l-43 -59q2 -4 15.5 -23.5t17.5 -24.5t16.5 -22.5t18.5 -22.5t19.5 -18.5t23.5 -18.5l23 -12q13 -7 27.5 -9.5t31.5 -2.5q47 0 84 34t51 34t20 -10l11 -17 q8 -10 8 -37q0 -45 -109.5 -126.5t-216.5 -81.5q-61 0 -115.5 33.5t-74 58t-55.5 76.5q-2 -2 -35 -24l-42 -28q-9 -6 -42 -25.5t-51.5 -26.5t-52 -23.5t-62.5 -22.5t-67 -15.5t-77.5 -12.5t-82.5 -3q-217 0 -356.5 104.5t-139.5 282.5zM305 475q0 -135 118 -233.5t277 -98.5 q33 0 67 6.5t58.5 14.5t55 22.5t44 21.5t40.5 23l26 17q-131 207 -197.5 280.5t-240.5 208.5q-248 -72 -248 -262z" />
<glyph unicode="'" horiz-adv-x="681" d="M229 1313q0 55 33 94t78 39q43 0 77 -40t34 -93l-48 -340h-127z" />
<glyph unicode="(" horiz-adv-x="681" d="M176 743q0 117 37 254.5t87 241.5t103.5 174t83.5 70q8 0 15 -8l6 -9q6 -12 6 -16t-15 -36l-32 -67l-21 -47q-27 -90 -51 -259t-24 -296q0 -143 26.5 -355t57.5 -288q12 -31 28 -66l27 -58q10 -22 10 -25q0 -8 -4 -12l-8 -7q-6 -6 -23 -6q-33 0 -85 69t-102 176.5 t-86 262.5t-36 307z" />
<glyph unicode=")" horiz-adv-x="681" d="M178 -47q0 4 10 25l27 58l29 66q31 76 57.5 288t26.5 355q0 127 -24.5 296t-51.5 259q-4 10 -21 47l-31 67q-15 32 -15.5 36t5.5 16l7 9q6 8 14 8q31 0 84 -70t103.5 -174t87 -241.5t36.5 -254.5q0 -152 -35.5 -307t-86 -262.5t-102.5 -176.5t-85 -69q-16 0 -23 6l-8 7 q-4 4 -4 12z" />
<glyph unicode="*" d="M344 1262q0 6 4 13t12.5 16t12.5 20q2 4 10 23.5t14 24.5t17 5q12 0 41 -25l92 -69l-19 102q0 2 -3 17.5t-3 23.5q0 33 25 33q8 0 23.5 -2t21.5 -2t21.5 2t23.5 2q25 0 25 -33q0 -6 -1.5 -12t-3.5 -15.5t-2 -13.5l-18 -102l92 69q4 2 12.5 9.5t14.5 11.5t14 4q6 0 10 -2 t8.5 -8t7.5 -11.5t8 -15.5t7 -16t15.5 -22.5t13.5 -26.5q0 -29 -47 -39l-109 -33v-4l121 -39q35 -14 35 -28.5t-25 -53.5q-31 -53 -41 -53q-18 0 -37 18l-100 84l-4 -4l22 -106q0 -2 3.5 -17.5t3.5 -23.5q0 -33 -25 -33q-8 0 -23.5 2t-21.5 2t-21.5 -2t-23.5 -2 q-25 0 -25 33q0 6 1 12t3 15t2 14l23 106l-4 4l-101 -84q-18 -18 -36 -18q-4 0 -8.5 3t-8.5 8t-7 11l-8 15.5t-9 15.5q-23 29 -23 53q0 14 33 29l121 39v4l-109 33q-47 14 -47 39z" />
<glyph unicode="+" horiz-adv-x="1744" d="M317 512v55q0 35 45 35h443v461q0 16 13 27.5t32 11.5h43q45 0 45 -39v-461h440q47 0 47 -35v-55q0 -18 -14 -30.5t-33 -12.5h-440v-461q0 -39 -45 -39h-43q-45 0 -45 39v461h-443q-18 0 -31.5 12.5t-13.5 30.5z" />
<glyph unicode="," horiz-adv-x="681" d="M203 133q0 59 36.5 104.5t92.5 45.5q66 0 108.5 -55.5t42.5 -139.5q0 -100 -85 -215t-142 -115q-41 0 -41 33q0 8 16 26l41 43q25 26 39 48q33 55 43 98q-29 -16 -47 -16q-49 0 -76.5 43t-27.5 100z" />
<glyph unicode="-" horiz-adv-x="681" d="M51 440q0 8 7 24l18 36q10 20 16 35q25 70 39 79q8 4 19 4q18 0 56 -3t58 -3h236q33 0 72.5 15.5t58.5 15.5q2 0 6 -3t9 -9t5 -14.5t-8 -22.5t-20.5 -33.5t-18.5 -32.5l-14 -41q-12 -35 -17 -38q-12 -12 -34 -13q-14 0 -47 3t-50 3h-170q-57 0 -96 -5t-53 -12t-25.5 -12 t-19.5 -5q-14 0 -17 10z" />
<glyph unicode="." horiz-adv-x="681" d="M215 131q0 63 37 107.5t90 44.5t93 -48.5t40 -113.5q0 -61 -37 -106.5t-92 -45.5q-53 0 -92 48t-39 114z" />
<glyph unicode="/" horiz-adv-x="681" d="M18 -2q0 16 15 59l469 1332q8 23 30.5 40t47.5 17h43q47 0 47 -29q0 -14 -8 -43l-476 -1354q-14 -35 -29.5 -43t-41.5 -8h-58q-39 0 -39 29z" />
<glyph unicode="0" d="M68 688q0 324 147 541t385 217q236 0 376 -208t140 -503q0 -336 -143.5 -551t-390.5 -215q-236 0 -375 205t-139 514zM334 713q0 -641 260 -641q256 0 256 618q0 653 -264 653q-252 1 -252 -630z" />
<glyph unicode="1" d="M209 35v33q0 39 63 38q57 0 93 12.5t56.5 29t30 56.5t10.5 69.5t1 97.5v528q0 66 -1 95.5t-6 63.5t-15.5 45t-30.5 11q-29 0 -94.5 -16.5t-77.5 -16.5q-29 0 -29 35v35q0 23 30.5 37t99.5 39.5t122 54.5q61 33 120 75l89 65q31 24 45 24q8 0 20 -4l21 -8q18 -8 18 -19 q0 -14 -8 -56t-17.5 -133t-9.5 -227v-628q0 -68 1 -97.5t10.5 -69.5t30 -56.5t56 -29t93.5 -12.5q74 0 74 -38v-33q0 -41 -56 -41q-29 0 -136 3t-196 3q-141 0 -239 -3t-105 -3q-63 0 -63 41z" />
<glyph unicode="2" d="M49 45q0 20 33 51t119 105.5t168 158.5q109 113 154.5 165.5t101 132t74 149.5t18.5 158q0 121 -83 224t-202 103q-160 0 -215 -149q-6 -16 -13 -51t-16.5 -48.5t-31.5 -13.5q-20 0 -39 14l-13 9q-20 14 -20 61q0 123 124 227.5t320.5 104.5t330.5 -104.5t134 -288.5 q0 -84 -20.5 -153t-77.5 -148.5t-110.5 -138l-168.5 -175.5l-186 -192h346q63 0 103.5 22.5t53.5 50t32.5 50t44.5 22.5q12 0 24 -6l10 -6q18 -14 19 -33q0 -29 -19.5 -61.5t-58.5 -92t-70 -120.5q-6 -12 -15 -44t-19 -46l-27 -13q-4 0 -102 17q-111 14 -230 14h-184 q-57 0 -162 -6l-29 -4q-14 -2 -22 -3t-12 -1q-10 0 -28.5 7t-23.5 17l-8 15q-4 4 -4 20z" />
<glyph unicode="3" d="M57 195q0 41 26 69.5t64 28.5q43 0 58.5 -17.5t15.5 -54.5v-37q0 -35 60.5 -68.5t146.5 -33.5q143 0 250.5 97t107.5 239q0 125 -84 218t-219 93h-73q-18 0 -28.5 13.5t-10.5 31.5q0 29 31.5 47.5t77.5 34.5t92 41t78 79t32 134q0 78 -64.5 130t-164.5 52 q-86 0 -142.5 -36.5t-72.5 -86.5q0 -2 -4.5 -26.5t-6.5 -34.5q-14 -25 -43 -25q-66 0 -65 80q0 119 128 201t288 82q170 0 283.5 -81t113.5 -206q0 -66 -22.5 -118t-65.5 -89t-68.5 -53t-68.5 -39q356 -94 356 -362q0 -213 -189.5 -371t-433.5 -158q-150 0 -266.5 62 t-116.5 164z" />
<glyph unicode="4" d="M57 383v33q0 43 35 84l719 932q33 45 68 45q12 0 24 -4l15 -5q20 -4 20 -18q0 -20 -10 -82.5t-21.5 -177.5t-11.5 -262v-457h35q41 0 72.5 26.5t37.5 26.5q25 0 25 -20q0 -14 -6 -54t-6 -56.5t6 -48.5t6 -48q0 -25 -25 -25q-23 0 -53.5 33t-56.5 33h-35v-98q0 -55 9 -89 t20.5 -45.5t36.5 -29.5q33 -25 32 -43v-19q0 -20 -43 -20q-6 0 -64.5 3t-109.5 3t-90 -2t-60.5 -3t-27.5 -1q-39 0 -39 20v19q0 12 35 43q66 55 65 157v105h-411q-23 0 -70 -2t-72 -2q-29 0 -39 9t-10 40zM199 471h460v608h-4z" />
<glyph unicode="5" d="M27 186q0 53 28.5 81t73.5 28q31 0 52.5 -18.5t21.5 -45.5q0 -14 -4 -32.5t-4 -24.5q0 -37 59 -69.5t158 -32.5q154 0 253 95t99 269q0 147 -85 240.5t-226 93.5q-53 0 -123 -38t-82 -38q-20 0 -29 8l-10 9q-16 12 -16 37q0 16 19 119.5t19 201.5q0 86 -3 199.5t-3 124.5 q0 14 4 21t8.5 9t16.5 4l37 7q10 0 96 -23q82 -25 170 -25q74 0 151.5 16.5t129 33t59.5 16.5q12 0 16 -10l5 -6q4 -8 4 -17q0 -70 -120 -164t-243 -94q-106 0 -213 51q0 -125 -20 -350q137 72 264 72q174 0 312 -109.5t138 -302.5q0 -211 -193.5 -382t-434.5 -171 q-158 0 -271.5 58.5t-113.5 158.5z" />
<glyph unicode="6" d="M74 477q0 188 82 358.5t201.5 282t255 194.5t240.5 120.5t161 37.5q18 0 35 -20l6 -10q2 -4 4 -17q0 -14 -33 -29.5t-103.5 -42t-123.5 -55.5q-164 -86 -247 -185t-132 -224q106 47 178 47q205 0 344 -121t139 -317q0 -233 -143 -380t-344 -147q-219 0 -369.5 136 t-150.5 372zM340 555q0 -188 90 -335.5t205 -147.5q90 0 135 75.5t45 202.5q0 174 -89 317.5t-200 143.5q-106 0 -146 -63.5t-40 -192.5z" />
<glyph unicode="7" d="M139 1057q0 33 5.5 97.5t5.5 96.5q0 45 -5.5 91.5t-5.5 48.5q0 39 21 47l10 4q12 4 23 4q2 0 8 -2l18 -6q12 -4 23 -6q57 -16 125 -17h393q143 0 233 17q25 4 49.5 9t30.5 5q14 0 21 -8l6 -11q12 -16 12 -28.5t-59 -136.5q-184 -406 -588 -1178q-33 -68 -57.5 -91.5 t-67.5 -23.5h-27q-12 -2 -22 7.5t-10 23.5q0 10 18 48l72 143l108 223q92 195 174 446.5t82 304.5q0 20 -18.5 31.5t-36.5 12.5t-55 1h-103q-68 0 -114 -8t-71.5 -14t-49 -34t-30.5 -40t-30 -59q-18 -39 -55 -39l-14 4q-19 2 -19 37z" />
<glyph unicode="8" d="M82 360q0 78 24.5 139.5t72.5 103.5t83 64.5t88 49.5q-233 123 -233 303q0 133 71.5 233.5t173 146.5t211.5 46q182 0 317.5 -94.5t135.5 -243.5q0 -29 -4 -53.5t-8 -45t-15.5 -41t-17.5 -33.5t-22.5 -30.5t-23.5 -26t-27.5 -23.5t-25.5 -19.5t-28 -19.5t-27 -17 q49 -23 84 -45.5t83 -64.5t74 -107.5t26 -147.5q0 -213 -161 -339t-370 -126q-199 0 -340 104.5t-141 286.5zM266 375q0 -133 86 -213t213 -80q137 0 215 75.5t78 207.5q0 27 -7 51t-26 47l-33 40q-15 17 -47 35.5t-49.5 30t-56.5 27.5l-51 21q-12 5 -52 20.5t-44 17.5 q-51 -27 -77 -43t-68 -52t-61.5 -82t-19.5 -103zM342 1120q0 -39 18.5 -72.5t40 -55t67.5 -45t71.5 -34t82 -30t72.5 -25.5q37 25 52.5 37t43 43t40 72t12.5 94q0 100 -80 169.5t-189 69.5q-92 0 -161.5 -58.5t-69.5 -164.5z" />
<glyph unicode="9" d="M80 922q0 225 138 374.5t347 149.5q233 0 377.5 -156.5t144.5 -392.5q0 -174 -55 -327.5t-144 -261t-203 -185.5t-232.5 -116t-231.5 -38q-68 0 -96 27l-8 8q-6 8 -6 23q0 25 12 35t43 10h65q186 0 355.5 153.5t195.5 335.5q-104 -80 -219 -80q-211 0 -347 128.5 t-136 312.5zM336 1047q0 -190 76.5 -311.5t199.5 -121.5q100 0 154.5 65.5t54.5 182.5q0 203 -76.5 342t-207.5 139q-98 0 -149.5 -79.5t-51.5 -216.5z" />
<glyph unicode=":" horiz-adv-x="681" d="M215 131q0 63 37 107.5t90 44.5t93 -48.5t40 -113.5q0 -61 -37 -106.5t-92 -45.5q-53 0 -92 48t-39 114zM215 705q0 63 37 107t90 44t93 -48t40 -114q0 -61 -37 -106t-92 -45q-53 0 -92 48t-39 114z" />
<glyph unicode=";" horiz-adv-x="681" d="M203 133q0 59 36.5 104.5t92.5 45.5q66 0 108.5 -55.5t42.5 -139.5q0 -100 -85 -215t-142 -115q-41 0 -41 33q0 8 16 26l41 43q25 26 39 48q33 55 43 98q-29 -16 -47 -16q-49 0 -76.5 43t-27.5 100zM215 705q0 63 37 107t90 44t93 -48t40 -114q0 -61 -37 -106t-92 -45 q-53 0 -92 48t-39 114z" />
<glyph unicode="&#x3c;" horiz-adv-x="1744" d="M375 481v111l995 442v-157l-792 -340l792 -338v-158z" />
<glyph unicode="=" horiz-adv-x="1744" d="M315 354v56q0 35 45 34h1016q47 0 47 -34v-56q0 -18 -14 -30.5t-33 -12.5h-1016q-18 0 -31.5 12.5t-13.5 30.5zM315 670v55q0 35 45 35h1016q47 0 47 -35v-55q0 -18 -14 -30.5t-33 -12.5h-1016q-18 0 -31.5 12.5t-13.5 30.5z" />
<glyph unicode="&#x3e;" horiz-adv-x="1744" d="M375 41v158l792 338l-792 340v157l995 -442v-111z" />
<glyph unicode="?" horiz-adv-x="796" d="M123 1284q0 74 69.5 118t159.5 44q154 0 273.5 -94.5t119.5 -245.5q0 -96 -38.5 -171t-94 -119t-111 -81t-94 -78t-38.5 -90q0 -31 33.5 -80t33.5 -61q0 -29 -10 -39l-8 -6q-14 -10 -27 -10q-61 0 -149 102t-88 205q0 88 45 145.5t109.5 86t129 53t109.5 68.5t45 112 q0 72 -53.5 121t-116.5 49q-51 0 -71.5 -23.5t-20.5 -53.5t-17.5 -53.5t-62.5 -23.5q-55 0 -91 35t-36 90zM291 129q0 61 37 107.5t92 46.5q63 0 99 -49.5t36 -117t-35 -109.5t-92 -42q-55 0 -96 47t-41 117z" />
<glyph unicode="@" horiz-adv-x="2048" d="M332 381q0 307 224 539.5t540 232.5q252 0 435 -154.5t183 -390.5q0 -219 -147.5 -388t-325.5 -169q-74 0 -102.5 36t-28.5 83q-29 -33 -95.5 -67.5t-142.5 -34.5q-92 0 -152.5 64.5t-60.5 178.5q0 174 137.5 364.5t311.5 190.5q119 0 192 -121l39 91h152l-193 -459 q-57 -147 -57 -180q0 -53 51 -54q90 0 215 144.5t125 312.5q0 205 -159.5 333t-350.5 128q-262 0 -470 -209t-208 -471q0 -203 168 -338t420 -135q45 0 89 4t80 11t72 17.5t63.5 21.5t55 24.5t46 23.5t38 22.5t28.5 19.5t20 18l12 8l59 -35q-57 -68 -214.5 -147.5 t-354.5 -79.5q-283 0 -488.5 159.5t-205.5 405.5zM793 258q0 -47 8 -74.5t27.5 -39t36 -13.5t48.5 -2q76 0 156 110.5t127 241.5t47 209q0 37 -31 76q-33 39 -71 39q-78 0 -162 -106.5t-135 -235.5t-51 -205z" />
<glyph unicode="A" horiz-adv-x="1630" d="M0 33v30q0 29 47 43q61 18 117 84q55 63 92 152l362 791q45 94 46 143q0 18 -26 45t-26 35q0 14 13 47q4 12 18 12q16 0 47 -6t51 -6q63 0 132 35t81 35q18 0 30.5 -11.5t12.5 -27.5q0 -59 11 -107q4 -25 32 -98l359 -914l55 -112q33 -68 131 -97q47 -14 47 -43v-30 q0 -39 -47 -39q-49 0 -167 3t-169 3q-55 0 -151.5 -3t-136.5 -3q-47 0 -48 39v30q0 14 1 20.5t12.5 13.5t34.5 9q29 4 43 7.5t39.5 14.5t38 36.5t12.5 62.5q0 35 -27 111l-59 166q-18 49 -37 57t-117 8h-231q-96 0 -116 -10t-46 -72l-68 -182q-10 -31 -10 -63.5t13.5 -58 t27.5 -39t41 -22.5t39 -11t37 -5q23 -2 34 -9t12 -13t1 -21v-30q0 -39 -47 -39q-27 0 -113 3t-135 3q-45 0 -127 -3t-119 -3q-47 0 -47 39zM559 705q0 -12 43 -13h283q39 0 39 13q0 8 -15 47l-157 387l-179 -394q-14 -26 -14 -40z" />
<glyph unicode="B" horiz-adv-x="1478" d="M80 33v30q0 29 47 43q6 2 38 7.5t53.5 14.5t37.5 28q27 29 27 254v596q0 223 -27 254q-10 10 -22.5 18t-30 14l-24.5 8.5t-29 6.5l-23 2q-47 4 -47 43v30q0 39 47 39q33 0 140.5 -3t162.5 -3q113 0 267.5 15.5t179.5 15.5q197 0 314.5 -92t117.5 -244q0 -61 -21.5 -112.5 t-46 -81t-75 -61.5t-72 -42t-72.5 -31v-4q59 -16 99 -28.5t101.5 -44t99.5 -70.5t66.5 -103.5t28.5 -144.5q0 -137 -77.5 -235.5t-186.5 -140.5t-229 -42q-76 0 -237 15.5t-261 15.5q-55 0 -159.5 -3t-139.5 -3q-47 0 -47 39zM580 410q0 -68 1 -98.5t4 -77t12 -64.5 t24.5 -43t41 -33t61.5 -15t85 -7q129 0 210 84t81 231q0 158 -104.5 248t-317.5 90q-68 0 -83 -7t-15 -34v-274zM580 924q0 -68 18 -82.5t113 -14.5q139 0 214.5 68t75.5 178q0 115 -75.5 187.5t-204.5 72.5q-96 0 -141 -73v-336z" />
<glyph unicode="C" horiz-adv-x="1593" d="M76 694q0 305 239.5 528.5t573.5 223.5q135 0 277.5 -30t189.5 -30q25 0 58.5 27t49.5 27q6 0 23 -4l18 -9q20 -8 21 -24q0 -18 -5 -29.5t-12.5 -22t-12.5 -52.5t-5 -113q0 -16 5 -70.5t5 -79.5q0 -104 -80 -104q-31 0 -43 30.5t-22 81t-25 76.5q-121 203 -444 203 q-231 0 -362.5 -168t-131.5 -442q0 -299 173 -465t435 -166q121 0 226.5 53t163.5 135q18 27 32.5 62t24.5 50t31 15q33 0 47 -13t14 -56q0 -39 -11 -74t-41 -94.5t-46 -96.5q-2 -4 -10.5 -35.5t-19.5 -48t-30 -16.5q-33 0 -70.5 18.5t-72.5 18.5q-10 0 -30.5 -2t-54.5 -6 t-58 -6q-135 -16 -232 -17q-213 0 -389 82t-287.5 250t-111.5 393z" />
<glyph unicode="D" horiz-adv-x="1781" d="M78 33v30q0 29 47 43q6 2 38 7.5t53.5 14.5t37.5 28q27 29 27 254v596q0 223 -27 254q-10 10 -22.5 18t-30 14l-24.5 8.5t-30 6.5l-22 2q-47 4 -47 43v30q0 39 47 39q33 0 140.5 -3t162.5 -3q84 0 248 15.5t223 15.5q344 0 573.5 -210t229.5 -544q0 -303 -237.5 -513 t-573.5 -210q-88 0 -211 15.5t-254 15.5q-55 0 -160.5 -3t-140.5 -3q-47 0 -47 39zM578 338q0 -137 57 -196.5t244 -59.5q244 0 374.5 151.5t130.5 419.5q0 311 -156.5 495.5t-430.5 184.5q-152 0 -185.5 -42t-33.5 -199v-754z" />
<glyph unicode="E" horiz-adv-x="1402" d="M84 33v30q0 29 47 43q6 2 38 7.5t53.5 14.5t37.5 28q27 29 27 254v596q0 223 -27 254q-10 10 -22.5 18t-30 14l-24.5 8.5t-29 6.5l-23 2q-47 4 -47 43v30q0 39 47 39q14 0 98 -3t166 -3h543q104 0 227 10q78 10 90 11q10 0 19.5 -8.5t9.5 -20.5q0 -4 -3 -47t-3 -64 q0 -29 3 -83t3 -68q0 -76 -49 -76h-33q-18 0 -24.5 14.5t-18.5 53.5t-35 77q-43 59 -117.5 79t-199.5 20q-143 0 -183 -20.5t-40 -108.5v-393h149q80 0 134.5 16t77 39.5t35.5 52.5t16 52.5t13.5 40t28.5 16.5h29q37 0 37 -62q0 -39 -5 -115.5t-5 -103.5q0 -31 5 -93.5 t5 -92.5q0 -90 -47 -90h-31q-18 0 -26.5 16t-9.5 38.5t-15 56.5t-45 61q-51 45 -201 45h-145v-312q0 -63 2 -103t18.5 -68.5t27.5 -42t53 -20.5t70.5 -8t102.5 -1h41q117 0 192.5 28.5t103.5 68.5t41 81t25.5 69.5t38.5 28.5h21q53 0 53 -74q0 -35 -28.5 -150.5 t-28.5 -141.5q0 -20 -12.5 -37t-34.5 -17q-18 0 -54 4t-99.5 12.5t-119.5 14.5h-602q-51 0 -146 -3t-124 -3q-41 0 -41 39z" />
<glyph unicode="F" horiz-adv-x="1327" d="M84 33v30q0 29 47 43q6 2 38 7.5t53.5 14.5t37.5 28q27 29 27 254v596q0 223 -27 254q-10 10 -22.5 18t-30 14l-24.5 8.5t-29 6.5l-23 2q-47 4 -47 43v30q0 39 47 39q25 0 105.5 -3t158.5 -3h596q74 0 180 10q68 10 84 11q10 0 19.5 -8.5t9.5 -20.5q0 -4 -3 -47t-3 -64 q0 -29 3 -83t3 -68q0 -76 -49 -76h-33q-18 0 -24.5 14.5t-18.5 53.5t-35 77q-43 59 -117.5 79t-199.5 20q-143 0 -183 -20.5t-40 -108.5v-393h149q80 0 134.5 16t77 39.5t35.5 52.5t16 52.5t13.5 40t28.5 16.5h29q37 0 37 -62q0 -39 -5 -115.5t-5 -103.5q0 -31 5 -93.5 t5 -92.5q0 -90 -47 -90h-31q-18 0 -26.5 16t-9.5 38.5t-15 56.5t-45 61q-51 45 -201 45h-145v-258q0 -217 32 -246q20 -16 50 -27.5t51.5 -15.5t56.5 -8t47 -7q47 -14 47 -43v-30q0 -39 -47 -39q-55 0 -188 3t-199 3q-55 0 -161.5 -3t-141.5 -3q-47 0 -47 39z" />
<glyph unicode="G" horiz-adv-x="1744" d="M92 676q0 231 119 410.5t304 269.5t400 90q127 0 234.5 -22.5t173.5 -44t92.5 -21.5t50 34.5t47.5 34.5q12 0 29 -10t17 -33q0 -31 -10.5 -101.5t-10.5 -104.5q0 -31 3 -92.5t3 -94.5q0 -18 -11 -35.5t-32 -17.5h-24q-23 0 -34 15.5t-24.5 59.5t-23.5 68 q-45 106 -164 179t-295 73q-244 0 -385 -173t-141 -466q0 -252 159.5 -432t397.5 -180q266 12 266 160v127q0 90 -31 114q-23 16 -49.5 22.5t-56 8.5t-41.5 6q-47 14 -47 43v31q0 39 47 39q74 0 180 -3t139 -3q39 0 140.5 3t166.5 3q47 0 48 -39v-31q0 -29 -48 -43 q-6 -2 -37.5 -7t-53 -14.5t-38.5 -27.5q-23 -27 -22 -102v-146q0 -76 -10 -92q-8 -10 -179.5 -68.5t-255.5 -78.5q-66 -14 -180 -15q-354 0 -583.5 189.5t-229.5 517.5z" />
<glyph unicode="H" horiz-adv-x="1679" d="M31 33v30q0 29 47 43q6 2 37.5 7.5t53 14.5t38.5 28q27 29 26 254v596q0 223 -26 254q-10 10 -22.5 18t-30 14l-24.5 8.5t-30 6.5l-22 2q-47 4 -47 43v30q0 39 47 39q33 0 140.5 -3t162.5 -3t164.5 3t140.5 3q47 0 47 -39v-30q0 -29 -47 -43q-6 -2 -38 -7.5t-53.5 -14.5 t-37.5 -27q-27 -29 -27 -254v-199h621v199q0 223 -27 254q-10 10 -22 18t-29.5 14l-25 8.5t-29.5 6.5l-23 2q-47 4 -47 43v30q0 39 47 39q33 0 140.5 -3t163 -3t165 3t140.5 3q47 0 47 -39v-30q0 -29 -47 -43q-6 -2 -38 -7.5t-53.5 -14.5t-37.5 -27q-27 -29 -27 -254v-596 q0 -225 27 -254q16 -18 37.5 -27.5t53 -14.5t38.5 -8q47 -14 47 -43v-30q0 -39 -47 -39q-43 0 -147.5 3t-158.5 3q-55 0 -161.5 -3t-141.5 -3q-47 0 -47 39v30q0 29 47 43q6 2 38 7.5t53.5 14.5t37.5 28q27 29 27 254v274h-621v-274q0 -225 27 -254q16 -18 37.5 -27.5 t53.5 -14.5t38 -8q47 -14 47 -43v-30q0 -39 -47 -39q-43 0 -147.5 3t-157.5 3q-55 0 -161.5 -3t-141.5 -3q-47 0 -47 39z" />
<glyph unicode="I" horiz-adv-x="872" d="M88 33v30q0 29 47 43q6 2 38 7.5t53.5 14.5t37.5 28q27 29 27 254v596q0 223 -27 254q-10 10 -22.5 18t-29.5 14l-24.5 8.5t-29.5 6.5l-23 2q-47 4 -47 43v30q0 39 47 39q33 0 140.5 -3t163 -3t165 3t139.5 3q47 0 48 -39v-30q0 -29 -48 -43q-6 -2 -37.5 -7.5t-53 -14.5 t-38.5 -27q-27 -29 -26 -254v-596q0 -225 26 -254q16 -18 38 -27.5t53.5 -14.5t37.5 -8q47 -14 48 -43v-30q0 -39 -48 -39q-43 0 -147 3t-158 3q-55 0 -161.5 -3t-141.5 -3q-47 0 -47 39z" />
<glyph unicode="J" horiz-adv-x="872" d="M-8 -379q0 61 34.5 98t90.5 37q33 0 71.5 -15t51.5 -15q90 0 90 524v756q0 217 -33 245q-20 20 -49 31.5t-74 19t-49 7.5q-47 14 -47 43v30q0 39 47 39q49 0 172 -3t182 -3q55 0 162 3t141 3q47 0 47 -39v-30q0 -29 -47 -43q-6 -2 -37.5 -7.5t-53 -14.5t-38.5 -27 q-27 -29 -26 -254v-336q0 -299 -65.5 -566.5t-181.5 -432.5t-253 -165q-61 0 -98 32t-37 83z" />
<glyph unicode="K" horiz-adv-x="1630" d="M78 33v30q0 29 47 43q6 2 38 7.5t53.5 14.5t37.5 28q27 29 27 254v596q0 223 -27 254q-10 10 -22.5 18t-30 14l-24.5 8.5t-30 6.5l-22 2q-47 4 -47 43v30q0 39 47 39q33 0 140.5 -3t162.5 -3q51 0 153.5 3t131.5 3q47 0 47 -39v-30q0 -29 -47 -43q-6 -2 -32 -7.5 t-45.5 -14.5t-31.5 -27q-27 -29 -26 -254v-314l491 449q74 68 74 108q0 59 -123 60q-47 0 -47 43v30q0 39 47 39q35 0 141.5 -3t161.5 -3q43 0 123 3t115 3q47 0 47 -39v-30q0 -29 -47 -43q-8 -2 -36 -8.5t-50.5 -13.5t-49.5 -21q-31 -16 -178 -127l-327 -291l403 -549 q55 -78 125 -143q16 -16 37.5 -25.5t54.5 -15.5t37 -9q47 -14 47 -43v-30q0 -39 -47 -39q-43 0 -147.5 3t-157.5 3q-55 0 -161.5 -3t-141.5 -3q-47 0 -47 39v30q0 39 47 43q70 6 69 27q0 47 -43 109l-288 409l-80 -71q-49 -47 -49 -170q0 -225 26 -254q12 -18 31.5 -27.5 t45.5 -14.5t32 -8q47 -14 47 -43v-30q0 -39 -47 -39q-41 0 -138.5 3t-146.5 3q-55 0 -161.5 -3t-141.5 -3q-47 0 -47 39z" />
<glyph unicode="L" horiz-adv-x="1402" d="M84 33v30q0 29 47 43q6 2 38 7.5t53.5 14.5t37.5 28q27 29 27 254v596q0 225 -27 254q-16 18 -37.5 27t-53.5 14.5t-38 7.5q-47 14 -47 43v30q0 39 47 39q35 0 141.5 -3t161.5 -3q53 0 157.5 3t147.5 3q47 0 47 -39v-30q0 -29 -47 -43q-6 -2 -37.5 -7.5t-53 -14.5 t-38.5 -27q-27 -29 -26 -254v-650q0 -63 2 -103t18.5 -68.5t27.5 -42t53 -20.5t70.5 -8t102.5 -1h41q117 0 192.5 28.5t103.5 68.5t41 81t25.5 69.5t38.5 28.5h21q53 0 53 -74q0 -35 -28.5 -150.5t-28.5 -141.5q0 -20 -12.5 -37t-34.5 -17q-8 0 -99 17q-104 14 -170 14h-567 q-72 0 -177 -3t-132 -3q-41 0 -41 39z" />
<glyph unicode="M" horiz-adv-x="2048" d="M61 33v30q0 29 48 43q4 2 34.5 8.5t51 16.5t34.5 31q33 27 41 248l19 596v86q0 135 -58 182q-43 35 -122 35q-47 0 -48 43v30q0 39 48 39q16 0 91.5 -3t125.5 -3q25 0 98.5 3t77.5 3q51 0 167.5 -216t368.5 -744l371 708l39 74l30 61q9 19 22 42.5t20.5 33t17.5 20.5 t19.5 14t20.5 5t28 2q27 0 81 -3t80 -3q23 0 64 1t73.5 3t34.5 2q47 0 48 -39v-30q0 -29 -48 -43q-6 -2 -37.5 -7.5t-53 -14.5t-38.5 -27q-27 -29 -26 -254v-596q0 -225 26 -254q16 -18 38 -27.5t53.5 -14.5t37.5 -8q47 -14 48 -43v-30q0 -39 -48 -39q-43 0 -147 3t-158 3 q-55 0 -161.5 -3t-141.5 -3q-47 0 -47 39v30q0 29 47 43q6 2 38 7.5t53.5 14.5t37.5 28q27 29 27 254v643h-4q-135 -244 -237.5 -451t-145.5 -309l-74 -177q-31 -75 -44 -95.5t-36 -20.5h-33q-8 0 -14 1t-11 7t-8 13.5t-8.5 23.5t-9.5 32.5t-13 46.5l-20 60 q-109 332 -415 871h-4l-17 -645q-2 -33 -2 -86q0 -59 12.5 -99.5t24.5 -61t47 -33.5t49.5 -15t61.5 -9q47 -10 47 -43v-30q0 -39 -47 -39q-4 0 -48 1t-102.5 3t-95.5 2q-45 0 -137 -3t-94 -3q-48 0 -48 39z" />
<glyph unicode="N" horiz-adv-x="1781" d="M74 1352v30q0 39 47 39q12 0 71.5 -3t100.5 -3q18 0 88 3t80 3q18 -2 51 -35l913 -948v578q0 61 -3 96t-23.5 86t-61.5 78q-12 8 -30.5 14t-32.5 8l-38 5.5t-30 5.5q-47 4 -47 43v30q0 39 47 39q2 0 49.5 -2t108.5 -3t98 -1t93.5 1t98.5 3t46 2q47 0 47 -39v-30 q0 -29 -47 -43q-4 -2 -24.5 -6.5t-32 -8.5t-28 -16t-24.5 -31q-43 -82 -43 -354v-506q0 -51 2 -106.5t5.5 -99.5l6.5 -79.5t5 -57t2 -24.5q0 -23 -18.5 -37t-37 -14t-36 12.5t-46.5 46.5l-67 77q-37 44 -115 125l-172 171l-671 664v-655q0 -113 9 -164t46 -86 q23 -23 51.5 -32t62 -13t48.5 -9q47 -14 47 -43v-30q0 -39 -47 -39q-41 0 -131.5 3t-135.5 3q-37 0 -116.5 -3t-114.5 -3q-47 0 -47 39v30q0 29 47 43q29 10 68.5 35t50.5 47q39 88 39 222v596q0 123 -12.5 177t-43.5 85q-47 41 -106 41q-47 0 -47 43z" />
<glyph unicode="O" horiz-adv-x="1744" d="M78 694q0 322 242.5 537t578.5 215q332 0 552 -208t220 -519q0 -317 -236.5 -533.5t-572.5 -216.5q-348 0 -566 206t-218 519zM395 778q0 -297 142.5 -496.5t369.5 -199.5q195 0 321 151.5t126 391.5q0 303 -139.5 505.5t-364.5 202.5q-203 0 -329 -153.5t-126 -401.5z " />
<glyph unicode="P" horiz-adv-x="1402" d="M76 33v30q0 29 47 43q6 2 38 7.5t53.5 14.5t37.5 28q27 29 27 254v596q0 225 -27 254q-16 18 -37.5 27t-53.5 14.5t-38 7.5q-47 14 -47 43v30q0 39 47 39q2 0 57.5 -2t129 -3t120.5 -1q80 0 220.5 15.5t183.5 15.5q231 0 386.5 -102.5t155.5 -313.5q0 -195 -150.5 -315.5 t-342.5 -120.5q-74 0 -141.5 17.5t-102.5 39t-35 37.5q0 27 4 33l13 29q4 14 20 14q10 0 61.5 -23.5t104.5 -23.5q102 0 177 74.5t75 216.5q0 160 -90 242.5t-248 82.5q-96 0 -121 -57t-25 -270v-596q0 -225 27 -254q20 -18 51 -27.5t74 -14.5t51 -8q47 -14 47 -43v-30 q0 -39 -47 -39q-49 0 -171 3t-181 3q-55 0 -161.5 -3t-141.5 -3q-47 0 -47 39z" />
<glyph unicode="Q" horiz-adv-x="1744" d="M78 694q0 322 242.5 537t578.5 215q332 0 552 -208t220 -519q0 -154 -52 -282t-140 -213t-182.5 -138t-198.5 -84v-4q82 -14 154 -57l136 -79q62 -36 130 -36q23 0 53.5 9t42.5 9q14 0 25.5 -11t11.5 -19q0 -57 -91.5 -99.5t-183.5 -42.5q-109 0 -201 34t-142 74 t-108.5 73.5t-105.5 33.5q-27 0 -61.5 -9t-44.5 -9q-39 0 -39 33q0 18 17.5 29.5t52 21.5t40.5 12v4q-293 0 -499.5 209t-206.5 516zM395 778q0 -297 142.5 -496.5t369.5 -199.5q195 0 321 151.5t126 391.5q0 303 -139.5 505.5t-364.5 202.5q-203 0 -329 -153.5t-126 -401.5 z" />
<glyph unicode="R" horiz-adv-x="1517" d="M84 33v30q0 29 47 43q6 2 38 7.5t53.5 14.5t37.5 28q27 29 27 254v596q0 225 -27 254q-16 18 -37.5 27t-53.5 14.5t-38 7.5q-47 14 -47 43v30q0 39 47 39q45 0 149.5 -3t157.5 -3q92 0 220 15.5t182 15.5q106 0 204.5 -20.5t187.5 -63.5t142 -121t53 -180 q0 -53 -14 -99.5t-47 -82t-58.5 -60t-78.5 -51.5l-75 -37q-22 -10 -79 -33q55 -166 205 -440q33 -59 91.5 -130t99 -114t40.5 -49q0 -18 -14 -42.5t-33 -24.5q-115 0 -272.5 135t-277 310t-152.5 302h-178v-235q0 -225 26 -254q16 -18 40 -27.5t55.5 -14.5t39.5 -8 q47 -14 48 -43v-30q0 -39 -48 -39q-43 0 -150.5 3t-160.5 3q-55 0 -161.5 -3t-141.5 -3q-47 0 -47 39zM584 778l73.5 -11t92.5 -9q180 0 270 63.5t90 204.5q0 131 -95 219t-251 88q-131 0 -155.5 -26.5t-24.5 -147.5v-381z" />
<glyph unicode="S" horiz-adv-x="1214" d="M70 29q0 14 19.5 69.5t19.5 114.5v156q0 119 90 118q18 0 27.5 -6t12.5 -22.5t4 -36t6 -57t15 -74.5q88 -199 354 -199q119 0 198 69.5t79 168.5q0 51 -24.5 93t-54.5 67.5t-91 52t-101 39.5l-118 34q-82 23 -123 36.5t-106.5 46t-98.5 68.5t-58.5 98.5t-25.5 142.5 q0 199 144.5 318.5t347.5 119.5q102 0 211.5 -25.5t152.5 -25.5q14 0 51 24.5t58 24.5q12 0 30.5 -15.5t18.5 -29.5q0 -35 -18.5 -100.5t-18.5 -98.5v-98q0 -111 -78 -111q-29 0 -38 11.5t-13 52.5t-12 69q-57 199 -336 199q-100 0 -172 -55.5t-72 -149.5q0 -45 20.5 -81 t44 -57.5t80 -44t86.5 -30.5l105 -28q86 -25 134 -40.5t121 -51t112 -78.5t68.5 -115t29.5 -164q0 -141 -83 -248.5t-198.5 -159t-236.5 -51.5q-119 0 -243 25.5t-154 25.5q-18 0 -51 -24.5t-60 -24.5q-20 0 -37.5 14.5t-17.5 43.5z" />
<glyph unicode="T" horiz-adv-x="1402" d="M45 1073q0 12 19.5 149.5t19.5 161.5v64q0 16 12 29q20 20 49 20q12 0 45 -26.5t60 -32.5q86 -23 319 -23h283q231 0 317 23q31 6 66 32.5t47 26.5q16 0 41 -8q12 -6 12 -55v-50q0 -25 19.5 -162t19.5 -149q0 -55 -74 -55q-18 0 -30.5 18.5t-18.5 44t-18 58t-29 53.5 q-49 59 -124.5 90t-139.5 31q-47 0 -64.5 -18.5t-17.5 -61.5v-823q0 -225 27 -254q16 -18 37.5 -27.5t53.5 -14.5t38 -8q47 -14 47 -43v-30q0 -39 -47 -39q-43 0 -147.5 3t-157.5 3q-55 0 -162 -3t-141 -3q-47 0 -48 39v30q0 29 48 43q6 2 37.5 7.5t53 14.5t38.5 28 q27 29 26 254v823q0 45 -16.5 62.5t-63.5 17.5q-63 0 -140 -32t-126 -89q-16 -20 -28.5 -53t-18.5 -58.5t-18.5 -44t-30.5 -18.5q-74 0 -74 55z" />
<glyph unicode="U" horiz-adv-x="1705" d="M68 1352v30q0 39 47 39q43 0 150.5 -3t160.5 -3q55 0 171 3t151 3q47 0 47 -39v-30q0 -29 -47 -43q-8 -2 -43 -7.5t-62 -15.5t-43 -26q-27 -29 -27 -254v-375q0 -518 367 -518q383 0 383 518v375q0 225 -27 254q-16 18 -37.5 27t-53 14.5t-38.5 7.5q-80 14 -80 43v30 q0 39 48 39q29 0 114.5 -3t130.5 -3q33 0 102.5 3t119.5 3q47 0 47 -39v-30q0 -29 -47 -43q-6 -2 -38 -7.5t-53.5 -14.5t-37.5 -27q-27 -29 -27 -254v-351q0 -332 -144.5 -509t-437.5 -177q-260 0 -424 160t-164 438v439q0 225 -26 254q-16 18 -40 27t-55.5 14.5t-39.5 7.5 q-47 14 -47 43z" />
<glyph unicode="V" horiz-adv-x="1478" d="M-16 1352v30q0 39 47 39q45 0 157.5 -3t165.5 -3q55 0 161 3t153 3t47 -39v-30q0 -14 -1 -20.5t-12.5 -13.5t-33.5 -9q-135 -16 -136 -97q0 -47 21 -96l297 -725l280 682q33 84 33 144q0 14 -5 26t-10 20.5t-18 15.5l-19 11q-7 4 -22.5 8.5t-20.5 5.5t-21 3l-17 2 q-23 2 -34 9t-12 13t-1 21v30q0 39 47 39q14 0 103.5 -3t132.5 -3q33 0 91 3t93 3q47 0 47 -39v-30q0 -10 -6 -18.5t-12 -12.5t-16.5 -8t-12.5 -4q-55 -27 -100 -76q-51 -55 -93 -170l-389 -901q-14 -31 -27 -65l-20 -50q-6 -16 -13 -32.5t-13.5 -22.5t-14.5 -10.5t-20 -6.5 l-66 -6q-6 0 -10 2t-8 7.5t-7 13.5l-8.5 23.5t-10.5 34t-14 48t-22 63.5l-29 82q-17 48 -40 101l-299 723q-59 131 -82 158q-49 57 -133 84q-47 14 -47 43z" />
<glyph unicode="W" horiz-adv-x="2162" d="M-16 1352v30q0 39 47 39q27 0 121 -3t141 -3q55 0 149.5 3t137.5 3q47 0 47 -39v-30q0 -14 -1 -20.5t-12.5 -13.5t-33.5 -9q-16 -4 -24.5 -9.5t-20 -26t-11.5 -52.5q0 -31 29 -105l268 -655l213 524l-110 238q-25 53 -129 86q-47 14 -47 43v30q0 39 47 39q23 0 112.5 -3 t132.5 -3q55 0 159 3t155 3q47 0 47 -39v-30q0 -14 -1 -20.5t-12.5 -13.5t-33.5 -9q-23 -6 -36 -10.5t-30.5 -27t-17.5 -59.5q0 -31 26 -94l265 -657l239 616q47 111 47 148q0 29 -26.5 54.5t-63.5 29.5q-23 2 -34 9t-12 13t-1 21v30q0 39 47 39q23 0 87.5 -3t97 -3t94 3 t90.5 3q47 0 47 -39v-30q0 -33 -47 -43q-70 -14 -107 -54q-16 -16 -51 -90.5t-45 -105.5l-254 -621q-35 -84 -77 -204l-66 -189q-25 -70 -29 -70l-65 -6q-14 0 -41 64.5t-63 174t-46 136.5l-188 487l-162 -393q-35 -84 -77 -204l-67 -189q-25 -70 -28 -70l-66 -6 q-16 0 -42.5 65.5t-59.5 170t-47 139.5l-299 723q-59 131 -82 158q-49 57 -133 84q-47 14 -47 43z" />
<glyph unicode="X" horiz-adv-x="1554" d="M27 33v30q0 29 47 43q59 18 106 54q63 49 135 131l324 375l-260 372q-4 4 -22.5 33t-37 54.5t-45 57t-51.5 50.5q-76 57 -149 76q-47 14 -47 43v30q0 39 47 39q45 0 141 -3t145 -3q66 0 169.5 3t140.5 3q47 0 47 -39v-30q0 -14 -1 -20.5t-12.5 -13.5t-33.5 -9l-31 -6 q-10 -2 -24.5 -16.5t-14.5 -37.5q0 -14 27 -53l204 -297l173 219q70 92 69 135q0 16 -10 27.5t-20.5 15.5t-29 8.5t-20.5 4.5q-23 2 -34 9t-12 13t-1 21v30q0 39 47 39q27 0 117 -3t143 -3q39 0 116 3t114 3q47 0 47 -39v-30q0 -29 -47 -43q-72 -8 -150 -41q-45 -27 -97 -72 t-67 -66l-272 -327l326 -455q8 -12 55 -73l68 -87q74 -66 137 -82q47 -14 47 -43v-30q0 -39 -47 -39q-25 0 -112 3t-134 3q-76 0 -199 -3t-164 -3q-47 0 -47 39v30q0 14 1 20.5t12.5 13.5t33.5 9q2 0 9.5 1.5t11.5 2.5l12 3q8 2 12.5 4l11.5 5t10 7l7 9q4 5 6 12.5t2 15.5 q0 35 -53 115l-198 288l-211 -274q-53 -63 -54 -121q0 -14 6.5 -24.5t13.5 -16.5t19.5 -11t20.5 -7l22.5 -5.5t16.5 -3.5q23 -2 34 -9t12 -13t1 -21v-30q0 -39 -47 -39q-29 0 -113 3t-133 3q-43 0 -122 -3t-97 -3q-47 0 -47 39z" />
<glyph unicode="Y" horiz-adv-x="1478" d="M-14 1352v30q0 39 47 39q49 0 169 -3t179 -3q68 0 175.5 3t141.5 3q47 0 47 -39v-30q0 -14 -1 -20.5t-12 -13.5t-34 -9l-10 -2q-12 0 -15 -1t-14.5 -2t-16.5 -3.5t-14.5 -5.5t-14.5 -7t-12 -9t-10 -11t-6 -13.5t-3 -17.5q0 -33 26 -80l232 -414l235 400q31 61 31 86 q0 20 -8 33.5t-24.5 21.5t-28 12t-34 8.5t-24.5 4.5q-23 2 -34 9t-12 13t-1 21v30q0 39 47 39q33 0 111 -3t125 -3q39 0 114.5 3t108.5 3q47 0 47 -39v-30q0 -29 -47 -43q-68 -20 -111 -54q-63 -47 -116 -133l-248 -377q-49 -74 -64.5 -114.5t-15.5 -100.5v-120 q0 -225 27 -254q16 -18 37.5 -27.5t53 -14.5t38.5 -8q47 -14 47 -43v-30q0 -39 -47 -39q-43 0 -147.5 3t-158.5 3q-55 0 -161.5 -3t-141.5 -3q-47 0 -47 39v30q0 29 47 43q6 2 38 7.5t53.5 14.5t37.5 28q27 29 27 254v104q0 31 -2 51.5t-10.5 43t-12.5 30.5t-22.5 40 t-26.5 44l-250 418q-2 4 -16 29.5t-29.5 48t-27.5 32.5q-35 29 -66 38t-98 20q-47 14 -47 43z" />
<glyph unicode="Z" horiz-adv-x="1478" d="M27 27q0 16 22.5 36.5t85 87t131.5 166.5l641 916q33 43 33 61.5t-96 18.5h-94q-98 0 -172 -12.5t-103 -23.5t-60.5 -31.5t-37.5 -22.5q-37 -37 -56.5 -80t-21.5 -69.5t-10 -44t-28.5 -17.5t-49.5 15t-29 46q0 4 28 127t28 209q0 10 11 23.5t25.5 13.5t41 -6t40.5 -8 q78 -16 213 -17h469q41 0 201 6q80 6 125 6q10 0 20.5 -17t10.5 -31.5t-23.5 -36t-90.5 -92t-140 -177.5l-609 -874q-39 -59 -38 -74q0 -16 19 -19.5t83 -3.5h123q344 0 442 86q47 37 76 88.5t37 90.5t26.5 67.5t49.5 28.5q57 0 57 -66q0 -31 -33 -144.5t-33 -133.5 q0 -150 -51 -150q-16 0 -64 12.5t-93 18.5h-713q-158 0 -252 -8q-90 -8 -92 -8q-29 0 -39 14.5t-10 28.5z" />
<glyph unicode="[" horiz-adv-x="681" d="M135 -258q0 6 12 24l29 41q16 25 28.5 93.5t12.5 167.5v333q0 102 -13.5 167t-26.5 89.5t-13 30.5q0 2 27.5 87t27.5 214v262q0 113 -20.5 186.5t-41 103.5t-20.5 40q0 23 25 43l18 18q20 16 35 17q29 0 88 -10.5t154 -10.5q61 0 128.5 5.5t78.5 5.5q27 0 47 -14.5 t20 -41.5q0 -70 -56.5 -99.5t-123.5 -29.5q-43 0 -55 -8q-18 -23 -19 -108q0 -109 -4 -328t-4 -332q0 -129 4 -366.5t4 -315.5q0 -129 17 -153q49 -6 79.5 -11.5t73.5 -16.5t64.5 -32.5t21.5 -50.5q0 -33 -26.5 -53.5t-67.5 -20.5t-119 5t-117 5q-53 0 -121.5 -10t-88.5 -10 q-25 0 -35 16l-17 31q-6 10 -6 37zM379 688q0 -129 4 -389t4 -391q0 -61 23 -62q20 0 20 56l-6 786q0 109 1 230.5t3 272t2 232.5q0 35 -20 35q-23 0 -23 -33q0 -123 -4 -367.5t-4 -369.5z" />
<glyph unicode="\" horiz-adv-x="681" d="M18 1417q0 29 48 29h43q25 0 47 -17.5t30 -39.5l469 -1332q14 -43 15 -59q0 -29 -39 -29h-58q-18 0 -27 2t-21.5 13.5t-22.5 35.5l-475 1354q-9 29 -9 43z" />
<glyph unicode="]" horiz-adv-x="681" d="M-49 1575q0 33 26.5 53.5t67.5 20.5t119 -5.5t117 -5.5q53 0 121.5 10.5t89.5 10.5q25 0 34 -17l17 -30q6 -10 6 -37q0 -6 -12 -24l-29 -42q-16 -25 -28.5 -93t-12.5 -167v-334q0 -102 13.5 -166.5t26.5 -89t13 -30.5q0 -2 -27.5 -87t-27.5 -214v-262q0 -113 20.5 -187 t41 -103.5t20.5 -39.5q0 -23 -25 -43l-18 -19q-20 -16 -35 -16q-29 0 -88 10t-154 10q-61 0 -128.5 -5t-78.5 -5q-27 0 -47 14.5t-20 41.5q0 70 56.5 99.5t123.5 29.5q43 0 55 8q18 23 19 108q0 109 4 328t4 332q0 129 -4 366.5t-4 315.5q0 129 -17 153q-49 6 -79.5 11.5 t-73.5 16.5t-64.5 32.5t-21.5 50.5zM254 -106q0 -35 20 -35q23 0 23 32q0 123 4 368t4 370q0 129 -4 389t-4 391q0 61 -23 61q-20 0 -20 -55l6 -786q0 -109 -1 -231t-3 -272t-2 -232z" />
<glyph unicode="^" d="M94 598l436 817h125l424 -817h-131l-358 684l-365 -684h-131z" />
<glyph unicode="_" horiz-adv-x="1024" d="M0 -133h1024v-103h-1024v103z" />
<glyph unicode="`" horiz-adv-x="747" d="M25 1225q0 12 22 30l82 64q18 12 43 12q16 0 49 -18l291 -170q39 -25 39 -43q0 -12 -6 -19l-6 -8q-12 -16 -27 -16q-25 0 -55 10l-387 119q-45 14 -45 39z" />
<glyph unicode="a" horiz-adv-x="1062" d="M76 178q0 68 30.5 127.5t83 100t108.5 71.5t122.5 51.5t109.5 31.5t84 18v55q0 98 -53 147t-141 49q-72 0 -102 -27q-28 -26 -27 -56q0 -39 -16 -63q-17 -28 -66 -28q-20 0 -39 37l-23 43q-14 25 -14 41q0 47 142.5 117t256.5 70q152 0 245 -71t93 -230q0 -27 -5 -169.5 t-5 -209.5q0 -129 74 -129q23 0 58.5 21.5t43.5 21.5q10 0 19 -13l12 -16q8 -12 8 -18q0 -39 -101.5 -110t-172.5 -71q-43 0 -73 10.5t-49.5 34t-27.5 38t-22 48.5l-94 -66q-29 -19 -90.5 -42t-122.5 -23q-96 0 -171 57.5t-75 151.5zM322 244q0 -47 34.5 -79t98.5 -32 q160 0 159 240v102q-39 -6 -78.5 -17.5t-93 -36t-87 -70.5t-33.5 -107z" />
<glyph unicode="b" horiz-adv-x="1251" d="M33 1292v19q0 14 14 24.5t37 10.5q117 0 160 20q53 23 98 70t66 47q14 0 22 -4l19 -11q16 -10 16 -24q0 -6 -8 -60.5t-8 -105.5v-428q188 113 305 113q193 0 317.5 -130.5t124.5 -328.5q0 -223 -164 -379t-375 -156q-111 0 -217 42t-116 42q-14 0 -37 -13t-47.5 -31.5 t-32.5 -22.5q-23 -16 -29 -17q-14 0 -28 15l-19 16q-14 10 -14 20.5t27.5 52.5t39.5 103q8 61 9 131v666q0 174 -19.5 219t-97.5 55q-43 6 -43 45zM449 334q0 -129 80.5 -190.5t181.5 -61.5q115 0 187.5 85t72.5 216q0 174 -97.5 300t-234.5 126q-100 0 -145 -49t-45 -156 v-270z" />
<glyph unicode="c" horiz-adv-x="909" d="M55 403q0 231 168 395.5t387 164.5q106 0 178 -36t72 -108q0 -49 -34.5 -80.5t-77.5 -31.5q-47 0 -83 20.5t-53.5 46t-42 46t-53.5 20.5q-96 0 -160.5 -84t-64.5 -217q0 -160 94 -288t246 -128q49 0 99 25.5t82 51t38 25.5q12 0 20 -8l9 -10q14 -18 14 -27 q0 -53 -123 -132t-260 -79q-201 0 -328 122t-127 312z" />
<glyph unicode="d" horiz-adv-x="1251" d="M49 412q0 225 150.5 388t373.5 163q106 0 224 -52v144q0 123 -19.5 153.5t-97.5 38.5q-43 6 -43 45v19q0 14 14.5 24.5t36.5 10.5q117 0 160 20q53 23 98 70t66 47q14 0 22 -4l19 -11q16 -10 16 -24q0 -6 -8 -60.5t-8 -105.5v-967q0 -117 25.5 -161t76.5 -44q63 0 64 -40 v-25q0 -33 -48 -33q-53 0 -129.5 -10t-132 -19.5t-57.5 -9.5q-14 0 -31 8l-12 7q-16 8 -16 24q0 8 8 44t8 52l-79 -59q-28 -20 -101.5 -48t-149.5 -28q-186 0 -308 125t-122 318zM285 537q0 -164 89 -284t218 -120q205 0 205 203v309q0 59 -22.5 103.5t-50.5 65t-67 31.5 t-59 13t-41 2q-119 0 -195.5 -91t-76.5 -232z" />
<glyph unicode="e" horiz-adv-x="1024" d="M61 449q0 190 134.5 352t343.5 162q215 0 324.5 -118t109.5 -296q0 -23 -14.5 -33t-30 -12t-47.5 -2h-514q-23 0 -34 -8.5t-13.5 -18.5t-2.5 -26q0 -127 86 -226.5t215 -99.5q72 0 140.5 38t111.5 75.5t56 37.5q10 0 22 -8l13 -10q16 -16 16 -27q0 -61 -143.5 -160.5 t-309.5 -99.5q-197 0 -330 128.5t-133 351.5zM317 637q0 -23 12.5 -28t67.5 -5h238q57 0 69.5 9.5t12.5 54.5q0 72 -56.5 132t-134.5 60q-92 0 -150.5 -72.5t-58.5 -150.5z" />
<glyph unicode="f" horiz-adv-x="720" d="M53 33v30q0 29 47 43l26.5 6.5l30 7.5t25 12t21.5 24q14 18 14 163v510h-121q-25 0 -34 8.5t-9 34.5v23q0 37 47 37h117q0 106 43 230t133 222.5t201 98.5q49 0 84 -29t35 -80t-43 -94t-99 -43q-51 0 -85.5 20.5t-41.5 20.5q-16 0 -16 -35q0 -14 22.5 -114.5t22.5 -131.5 v-65h209q33 0 33 -37v-23q0 -20 -6.5 -30.5t-12.5 -11.5t-20 -1h-203v-510q0 -111 33 -157q12 -16 30.5 -26.5t28.5 -14.5t37 -10l29 -5q47 -10 47 -43v-30q0 -39 -47 -39q-33 0 -131.5 3t-149.5 3q-43 0 -133 -3t-117 -3q-47 0 -47 39z" />
<glyph unicode="g" horiz-adv-x="1138" d="M31 -242q0 37 15 67t50 55.5t55.5 36.5l65.5 34q10 6 16 8q-49 20 -92 68.5t-43 103.5q0 39 8 74q98 39 128 54t102 69q-61 31 -102 58.5t-82 90t-41 139.5q0 156 129 251.5t307 95.5q92 0 191.5 -17.5t162.5 -17.5q70 0 119 17.5t65 17.5q29 0 29 -78q0 -39 -20.5 -75 t-61.5 -36q-39 0 -84 10q39 -66 39 -139q0 -115 -61.5 -188.5t-148.5 -103t-174 -46t-148.5 -34t-61.5 -48.5q0 -49 58.5 -66.5t189.5 -17.5q16 0 66.5 3t91.5 3q139 0 230 -58t91 -171q0 -121 -90 -218t-220 -145.5t-263 -48.5q-219 0 -367.5 62.5t-148.5 189.5zM246 -221 q0 -70 89 -115t222 -45q117 0 227.5 57.5t110.5 147.5q0 98 -195 98q-10 0 -63 -3t-80 -3q-92 0 -166 8l-18 -6l-23 -11q-6 -3 -22.5 -12.5t-24.5 -16.5l-21 -18q-13 -11 -19.5 -22.5t-11.5 -27t-5 -31.5zM367 634.5q0 -104.5 53 -172t133 -67.5t129 65.5t49 160.5 q0 104 -55 176.5t-129 72.5q-82 0 -131 -65.5t-49 -170z" />
<glyph unicode="h" horiz-adv-x="1327" d="M41 27v41q0 29 47 38q76 12 98 66q14 31 15 154v647q0 174 -19.5 219t-97.5 55q-43 6 -43 45v19q0 14 14.5 24.5t36.5 10.5q117 0 160 20q53 23 98 70t66 47q14 0 22 -4l19 -11q16 -10 16 -24q0 -6 -8 -60.5t-8 -105.5v-461l22 19q23 20 28 24l27 21q22 16 31.5 21 t32.5 18.5t39 18.5l40 12q24 7 48.5 9.5t50.5 2.5q109 0 182.5 -37t110.5 -106.5t51.5 -148.5t14.5 -186v-159q0 -123 14 -154q23 -53 102 -66q47 -10 47 -38v-41q0 -33 -47 -33q-35 0 -119.5 3t-130.5 3q-35 0 -112.5 -3t-108.5 -3q-47 0 -47 33v41q0 29 47 38q63 8 84 66 q14 39 15 154v182q0 301 -203 301q-109 0 -164 -75t-55 -195v-213q0 -115 14 -154q18 -53 80 -66q47 -10 47 -38v-41q0 -33 -47 -33q-27 0 -115 3t-133 3q-35 0 -107.5 -3t-107.5 -3q-47 0 -47 33z" />
<glyph unicode="i" horiz-adv-x="645" d="M43 27v41q0 29 47 38q76 12 98 66q14 31 15 154v229q0 104 -22.5 148.5t-94.5 44.5q-27 0 -35 6t-8 22v35q0 14 14.5 24.5t36.5 10.5q74 0 150 33q43 18 78.5 40.5t55 33t40.5 10.5q14 0 22 -5l19 -10q16 -10 16 -24q0 -6 -8 -60.5t-8 -105.5v-432q0 -115 14 -154 q23 -53 107 -66q47 -10 47 -38v-41q0 -33 -47 -33q-29 0 -113 3t-131 3q-39 0 -125 -3t-121 -3q-47 0 -47 33zM158 1221q0 59 61.5 113.5t130.5 54.5q109 0 109 -93q0 -63 -59.5 -116.5t-135.5 -53.5q-106 1 -106 95z" />
<glyph unicode="j" horiz-adv-x="645" d="M51 -440.5q0 14.5 60.5 88t83.5 137.5q27 72 32.5 131t5.5 195v444q0 104 -22.5 148.5t-93.5 44.5q-27 0 -35 6t-8 22v35q0 14 14 24.5t37 10.5q74 0 149 33q43 18 79 40.5t55.5 33t40.5 10.5q14 0 22 -5l18 -10q16 -10 17 -24q0 -6 -8.5 -60.5t-8.5 -105.5v-520 q0 -150 -52 -294.5t-122.5 -235.5t-133 -146.5t-89.5 -55.5q-14 0 -18 11l-17 22q-6 6 -6 20.5zM188 1221q0 59 61.5 113.5t131.5 54.5q109 0 108 -93q0 -63 -59 -116.5t-135 -53.5q-107 1 -107 95z" />
<glyph unicode="k" horiz-adv-x="1251" d="M41 27v41q0 29 47 38q76 12 98 66q14 31 15 154v647q0 174 -19.5 219t-97.5 55q-43 6 -43 45v19q0 14 14.5 24.5t36.5 10.5q117 0 160 20q53 23 98 70t66 47q14 0 22 -4l19 -11q16 -10 16 -24q0 -6 -8 -60.5t-8 -105.5v-727l24 14l35 22.5l38 25t43 29.5l40 30 q25 18 39 32.5l28.5 31t21.5 30.5t7 27q0 6 -2 11t-5 8t-8 5t-9 3t-14.5 3t-14.5 2q-47 10 -47 39v41q0 33 47 33q18 0 91 -3t114 -3q35 0 110.5 3t106.5 3q47 0 47 -33v-41q0 -29 -47 -39q-129 -10 -195 -53q-18 -12 -84 -67l-118 -109l294 -363q29 -35 92.5 -76.5 t112.5 -50.5q47 -10 47 -38v-41q0 -33 -47 -33q-49 0 -127 3t-114 3q-41 0 -117 -3t-117 -3q-47 0 -47 33v41q0 29 47 38q4 0 13.5 8.5t9.5 23t-43 63.5l-248 305h-4v-180q0 -115 14 -154q18 -53 80 -66q47 -10 47 -38v-41q0 -33 -47 -33q-27 0 -115 3t-133 3 q-35 0 -107.5 -3t-107.5 -3q-47 0 -47 33z" />
<glyph unicode="l" horiz-adv-x="645" d="M31 27v41q0 29 47 38q76 12 98 66q14 31 14 154v647q0 174 -19 219t-97 55q-43 6 -43 45v19q0 14 14 24.5t37 10.5q117 0 160 20q53 23 98 70t66 47q14 0 22 -4l18 -11q16 -10 17 -24q0 -6 -8.5 -60.5t-8.5 -105.5v-952q0 -115 15 -154q18 -53 80 -66q70 -14 69 -38v-41 q0 -33 -69 -33q-29 0 -115 3t-133 3q-35 0 -107.5 -3t-107.5 -3q-47 0 -47 33z" />
<glyph unicode="m" horiz-adv-x="1933" d="M59 27v41q0 29 47 38q76 12 99 66q14 31 14 154v229q0 104 -22.5 148.5t-94.5 44.5q-27 0 -35 6t-8 22v35q0 14 14.5 24.5t37.5 10.5q74 0 149 33q39 18 73 40.5t52 33t39 10.5h25q16 -2 16 -84v-66q160 150 315 150q74 0 135.5 -32t85 -58.5t56.5 -73.5q45 49 75.5 75.5 t104.5 57.5t160 31q164 0 245.5 -112t81.5 -296v-229q0 -115 15 -154q23 -53 106 -66q47 -10 47 -38v-41q0 -33 -47 -33q-27 0 -107.5 3t-127.5 3q-37 0 -123 -3t-123 -3q-47 0 -47 33v41q0 29 47 38q66 10 90 66q14 31 14 154v229q0 254 -172 254q-51 0 -93 -22.5 t-60.5 -43t-42.5 -57.5v-360q0 -133 10 -154q25 -55 94 -66q47 -10 47 -38v-41q0 -33 -47 -33q-33 0 -108.5 3t-116.5 3q-39 0 -119 -3t-115 -3q-47 0 -47 33v41q0 29 47 38q31 6 60 23.5t33 42.5q6 35 6 154v229q0 102 -40 178t-140 76q-70 0 -129.5 -61.5t-59.5 -192.5 v-229q0 -115 14 -154q14 -49 72 -66q47 -10 47 -38v-41q0 -33 -47 -33q-23 0 -96.5 3t-112.5 3t-125 -3t-121 -3q-47 0 -47 33z" />
<glyph unicode="n" horiz-adv-x="1327" d="M53 27v41q0 29 47 38q76 12 99 66q14 31 14 154v229q0 104 -22.5 148.5t-94.5 44.5q-27 0 -35 6t-8 22v35q0 14 14.5 24.5t36.5 10.5q74 0 150 33q39 18 72.5 40.5t52 33t39.5 10.5h24q16 -2 17 -84v-66q170 150 332 150q166 0 255 -109t89 -270v-258q0 -115 14 -154 q16 -47 102 -66q47 -10 47 -38v-41q0 -33 -47 -33q-23 0 -101.5 3t-117.5 3t-125 -3t-121 -3q-47 0 -47 33v41q0 29 47 38q59 12 78 66q14 31 15 154v229q0 63 -14.5 114.5t-62.5 95.5t-128 44q-76 0 -140.5 -61.5t-64.5 -192.5v-229q0 -115 14 -154q14 -49 72 -66 q47 -10 47 -38v-41q0 -33 -47 -33q-23 0 -96.5 3t-112.5 3t-125 -3t-121 -3q-47 0 -47 33z" />
<glyph unicode="o" d="M51 461q0 215 158 358.5t399 143.5q231 0 374.5 -141.5t143.5 -356.5q0 -211 -156.5 -353.5t-394.5 -142.5q-229 0 -376.5 139.5t-147.5 352.5zM307 504q0 -178 86 -305t217 -127q121 0 190.5 98t69.5 256q0 186 -92 310t-209 124q-123 0 -192.5 -99t-69.5 -257z" />
<glyph unicode="p" horiz-adv-x="1251" d="M37 776v35q0 14 14.5 24.5t36.5 10.5q78 0 164 33q41 18 75.5 40.5t53 33t39.5 10.5l24 -7q16 -2 17 -77v-45q2 2 22.5 17t26.5 19l27 19q20 14 31.5 19t33 16.5t39.5 16.5l42 11q24 6 49.5 8.5t53.5 2.5q176 0 300 -131.5t124 -327.5q0 -213 -159.5 -374t-374.5 -161 q-115 0 -219 56v-193q0 -115 14 -154q31 -53 147 -65q47 -10 48 -39v-41q0 -33 -48 -33q-35 0 -132 3t-152 3q-39 0 -125 -3t-121 -3q-47 0 -47 33v41q0 29 47 39q76 12 98 65q14 31 15 154v723q0 104 -23.5 148.5t-97.5 44.5q-27 0 -35 6t-8 22zM457 367q0 -285 258 -285 q115 0 187.5 87t72.5 214q0 164 -94.5 295t-214.5 131q-209 0 -209 -254v-188z" />
<glyph unicode="q" horiz-adv-x="1251" d="M78 408q0 233 153.5 394t372.5 161q72 0 195 -31t141 -31q51 0 106.5 37t67.5 37q10 0 23 -8l14 -11q14 -14 14 -20q0 -12 -12 -38t-28.5 -73t-26.5 -98q-10 -47 -11 -172v-723q0 -123 13 -154q23 -53 98 -65q47 -10 47 -39v-41q0 -33 -47 -33q-27 0 -107.5 3t-136.5 3 q-80 0 -170 -3t-125 -3q-47 0 -47 33v41q0 29 47 39q139 14 158 65q14 39 14 154v270q-4 -2 -36.5 -28.5t-53.5 -37.5l-58 -31q-38 -19 -82 -27.5t-97 -8.5q-178 0 -302 120t-124 319zM293 547q0 -168 96 -296t238 -128q92 0 148 59.5t56 184.5v188q0 150 -68.5 227.5 t-182.5 77.5q-129 0 -208 -92t-79 -221z" />
<glyph unicode="r" horiz-adv-x="872" d="M41 27v41q0 29 47 38q84 14 107 66q12 31 12 154v229q0 98 -23.5 139t-99.5 41q-29 0 -36 8.5t-7 36.5v19q0 14 14.5 24.5t36.5 10.5q51 0 158 32q49 20 95 58.5t69 38.5q39 0 39 -25v-145q49 59 71.5 83.5t73.5 55.5t102 31q61 0 116.5 -42t55.5 -102q0 -49 -58 -109.5 t-91 -60.5q-29 0 -68 54.5t-84 54.5q-37 0 -72.5 -49.5t-35.5 -153.5v-229q0 -115 14 -154q31 -53 146 -66q47 -10 47 -38v-41q0 -33 -47 -33q-49 0 -139.5 3t-143.5 3q-39 0 -130 -3t-122 -3q-47 0 -47 33z" />
<glyph unicode="s" horiz-adv-x="872" d="M55 20q0 14 12.5 54.5t12.5 72.5q0 20 -4 62.5t-4 56.5q0 59 43 72l30 6q18 0 25.5 -23.5t15 -61.5t23.5 -62q72 -115 252 -115q174 0 174 127q0 23 -7 40t-24.5 31.5t-34 25.5t-47.5 22l-52 17l-58.5 18.5t-59.5 17.5q-125 39 -196.5 101.5t-71.5 183.5q0 131 96 214 t246 83q66 0 127 -11q92 -10 102 -10q29 0 67 16.5t44 16.5q10 0 20 -10l9 -11q10 -16 10 -22q0 -4 -11.5 -50t-11.5 -85q0 -18 2 -51t2 -52q0 -41 -9 -51t-34 -10h-22q-14 0 -22.5 16.5t-11.5 38t-13 48t-27 44.5q-80 80 -203 80q-59 0 -107 -32.5t-48 -82.5q0 -33 15 -57 t51 -41.5t65 -28t84 -24.5l96 -28q31 -9 86 -34.5t82 -53t49.5 -75t22.5 -106.5q0 -154 -113 -241t-254 -87q-78 0 -175 19.5t-110 19.5q-27 0 -48 -18.5t-31 -18.5q-14 0 -23 6l-16 11q-15 7 -15 32z" />
<glyph unicode="t" horiz-adv-x="757" d="M18 872v15q0 20 20.5 33.5t51.5 23.5t78 39t90 74q33 35 54.5 68.5t28.5 49t19.5 25.5t34.5 10h13q16 0 23 -8t8 -19.5t1 -37.5v-213h260q33 0 33 -37v-23q0 -20 -6 -30.5t-12 -11.5t-21 -1h-254v-458q0 -57 1 -88t8.5 -67t20.5 -52.5t37.5 -28.5t61.5 -12q23 0 65 14.5 t50 14.5q20 0 33 -15l8 -10q8 -12 8 -27q0 -37 -81 -84t-175 -47q-84 0 -142.5 27t-87 59.5t-44 88t-17.5 87t-2 82.5v439q0 59 -5 68t-34 9h-77q-50 0 -50 43z" />
<glyph unicode="u" horiz-adv-x="1327" d="M35 848v35q0 14 14 24.5t37 10.5q82 0 196.5 22.5t127.5 22.5q14 0 22 -5l19 -10q16 -10 16 -24q0 -6 -8 -60.5t-8 -105.5v-410q0 -90 45 -157.5t159 -67.5q76 0 140.5 61.5t64.5 192.5v178q0 145 -22.5 204.5t-94.5 59.5q-27 0 -35 6t-8 23v35q0 14 14.5 24.5t37.5 10.5 q82 0 196.5 22.5t126.5 22.5q14 0 23 -5l18 -10q16 -10 17 -24q0 -6 -8.5 -60.5t-8.5 -105.5v-381q0 -131 22.5 -183.5t94.5 -52.5q27 0 35 -6t8 -22v-35q0 -14 -14.5 -24.5t-36.5 -10.5q-78 0 -150 -18q-43 -12 -91 -34t-73 -22h-24q-16 2 -17 84v66q-170 -150 -331 -150 q-166 0 -255 108.5t-89 270.5v207q0 145 -22.5 204.5t-94.5 59.5q-27 0 -35 6.5t-8 22.5z" />
<glyph unicode="v" horiz-adv-x="1138" d="M-10 864v41q0 33 47 33q41 0 115.5 -3t119.5 -3q39 0 130.5 3t121.5 3q47 0 47 -33v-41q0 -29 -47 -39l-8 -2q-6 -2 -10 -3t-11.5 -4t-12.5 -7t-10 -10t-7 -14.5t-2 -18.5q0 -37 16 -68l178 -391l168 355q31 66 31 104q0 10 -2 18.5t-7 14.5t-10.5 10t-12.5 7t-11 4 t-10 3l-8 2q-47 10 -47 39v41q0 33 47 33q20 0 73.5 -3t75.5 -3q33 0 83 3t79 3q47 0 47 -33v-41q0 -29 -47 -39q-45 -4 -76 -35.5t-72 -111.5l-206 -387q-29 -51 -58 -129l-47 -130q-18 -52 -24 -57q-12 -6 -29 -6h-53q-31 0 -39 18.5t-24.5 87t-53.5 142.5l-205 414 q-51 100 -90 145t-92 49q-47 10 -47 39z" />
<glyph unicode="w" horiz-adv-x="1744" d="M-10 864v41q0 33 47 33q41 0 115.5 -3t119.5 -3q33 0 106 3t97 3q47 0 47 -33v-41q0 -29 -47 -39l-4 -2q-2 -2 -5 -4t-6 -6t-5 -10t-4 -15.5t-2 -21.5q0 -23 24 -68l193 -368l165 344q-57 143 -126 151q-47 10 -48 39v41q0 33 48 33q33 0 88 -3t92 -3q39 0 125 3t116 3 q47 0 48 -33v-41q0 -29 -48 -39q-51 -14 -51 -59q0 -37 17 -68l178 -391l157 355q31 74 31 104q0 10 -2 18.5t-7 14.5t-10 10t-12.5 7t-11.5 4t-10 3l-8 2q-47 10 -47 39v41q0 33 47 33q20 0 73.5 -3t75.5 -3q33 0 88.5 3t83.5 3q47 0 47 -33v-41q0 -29 -47 -39 q-47 -4 -83 -37.5t-74 -109.5l-197 -387q-27 -51 -55 -129l-48 -130q-19 -52 -26 -57q-12 -6 -29 -6h-43q-14 0 -21 7.5t-14.5 29t-14.5 47t-25.5 74.5t-45.5 102l-143 328l-145 -283q-25 -47 -56 -120l-50 -124q-19 -50 -25 -55q-12 -6 -29 -6h-43q-16 0 -25.5 7.5 t-16.5 28t-13.5 45t-23.5 71.5t-42 98l-205 414q-49 98 -91 143t-97 49q-47 10 -47 39z" />
<glyph unicode="x" horiz-adv-x="1251" d="M20 27v41q0 25 48 38q82 20 127 44t110 88l217 213l-190 219q-121 137 -213 155q-47 10 -47 39v41q0 33 47 33q45 0 126 -3t130 -3q37 0 116.5 3t106.5 3q47 0 47 -33v-31q0 -29 -47 -38q-39 -8 -39 -43q0 -23 31 -54l106 -121l117 121q35 39 35 54q0 27 -55 43 q-47 10 -48 38v31q0 33 48 33q27 0 94 -3t96 -3q37 0 98.5 3t94.5 3q47 0 47 -33v-41q0 -35 -47 -39q-90 -16 -150.5 -50t-144.5 -118l-119 -116l235 -271q74 -84 106 -111.5t83 -52.5q47 -25 47 -38v-41q0 -33 -47 -33q-45 0 -126 3t-130 3q-37 0 -117 -3t-106 -3 q-47 0 -48 33v30q0 29 48 39q61 12 61 45q0 31 -31 66l-149 170l-125 -127q-68 -66 -68 -111q0 -29 76 -43q47 -10 47 -39v-30q0 -33 -47 -33q-31 0 -104.5 3t-106.5 3q-37 0 -98.5 -3t-93.5 -3q-48 0 -48 33z" />
<glyph unicode="y" horiz-adv-x="1138" d="M-12 864v41q0 33 47 33q41 0 115.5 -3t119.5 -3q39 0 130.5 3t121.5 3q47 0 47 -33v-41q0 -18 -47 -28l-6 -2l-9 -4q-3 -1 -10.5 -3t-11.5 -5t-9 -9t-8 -12t-5 -15.5t-2 -19.5q0 -37 26 -90l191 -391l176 401q20 47 20 80q0 51 -81 70q-47 4 -48 28v41q0 33 48 33 q25 0 84 -3t86 -3q33 0 83 3t78 3q47 0 47 -33v-41q0 -29 -47 -39q-55 -4 -100 -62t-98 -175l-236 -516l-69 -148l-64 -129q-41 -82 -70.5 -121t-68.5 -85t-79 -64.5t-83 -18.5t-72.5 28t-29.5 73q0 57 41 101t92 44q18 0 53 -5t53 -5q63 0 148 266l-295 572q-49 94 -74 135 t-60.5 74.5t-76.5 35.5q-47 10 -47 39z" />
<glyph unicode="z" horiz-adv-x="1138" d="M27 31q0 12 21 31l62 54q40 34 68 64q29 33 64 80l430 569h-135q-98 0 -163 -21.5t-91.5 -52t-42 -61t-30.5 -52t-42 -21.5q-20 0 -34.5 17t-14.5 40q0 14 21.5 72.5t25.5 83.5q18 102 27 112l12 12q8 4 18 5q8 0 35 -6.5t47 -8.5q90 -16 215 -16h187q90 0 192 8 q25 0 61.5 3t49.5 3q53 0 59 -28v-23q0 -18 -16.5 -35.5t-45 -37t-40.5 -34.5q-104 -115 -193 -235l-325 -451h86q240 0 344 88q45 37 68.5 85.5t32.5 76t26 27.5q8 0 28 -10l17 -11q25 -12 24 -51q0 -25 -18.5 -69.5t-47 -102t-36.5 -78.5q-2 -2 -9.5 -35.5t-19.5 -44.5 l-8 -4q-6 -4 -18.5 -4t-33 7.5t-74.5 15.5t-151 8h-356q-86 0 -151 -10q-12 -2 -42 -6t-42 -4q-18 0 -25 14l-10 14q-6 9 -6 23z" />
<glyph unicode="{" d="M264 635v49q96 31 160.5 97.5t64.5 162.5q0 29 -32 193q-25 123 -25 196q0 141 134 241.5t298 106.5v-51q-106 -25 -162.5 -103.5t-56.5 -174.5q0 -59 14.5 -174t14.5 -162q0 -80 -32 -143.5t-93.5 -106.5t-96 -61.5t-96.5 -45.5q47 -20 74 -33.5t80 -47t84 -68.5 t55.5 -90t24.5 -117q0 -47 -14.5 -161.5t-14.5 -174.5q0 -96 56.5 -175t162.5 -103v-51q-164 6 -298 106t-134 242q0 74 25 196q33 164 32 193q0 90 -65.5 159.5t-159.5 100.5z" />
<glyph unicode="|" horiz-adv-x="681" d="M291 -377v2083h100v-2083h-100z" />
<glyph unicode="}" d="M276 -311q106 25 163 103.5t57 174.5q0 59 -14.5 174t-14.5 162q0 61 24.5 116.5t55.5 90.5t84 68.5t79.5 47t73.5 33.5q-61 27 -96 45.5t-96.5 61.5t-93 106.5t-31.5 143.5q0 47 14.5 161.5t14.5 174.5q0 96 -56.5 175t-163.5 103v51q164 -6 298.5 -106t134.5 -242 q0 -74 -25 -196q-33 -164 -33 -193q0 -96 64.5 -162.5t161.5 -97.5v-49q-94 -31 -160 -100.5t-66 -159.5q0 -29 33 -193q25 -123 25 -196q0 -141 -134.5 -241.5t-298.5 -106.5v51z" />
<glyph unicode="~" horiz-adv-x="1744" d="M358 260q0 494 289 494q82 0 142.5 -43t94.5 -103.5t63.5 -121t68.5 -103.5t90 -43q41 0 70.5 27.5t44 61.5t21.5 94.5t8 94t1 91.5h127q0 -57 -2 -93t-8 -104t-25.5 -113t-49 -92t-82 -71.5t-119.5 -24.5q-82 0 -140.5 43t-90.5 104.5t-59.5 123t-66.5 104.5t-90 43 q-55 0 -91 -35t-49 -102.5t-16.5 -112.5t-3.5 -119h-127z" />
<glyph unicode="&#xa1;" horiz-adv-x="681" d="M178 -442q0 25 17.5 78t25.5 141l60 547q4 35 7 77.5t5 60t8 35t18 27.5l25 21q16 16 31 16q10 0 15 -4t7 -17.5t3 -26.5l3 -42q2 -29 5 -53l63 -582q12 -74 12 -108q0 -51 -63.5 -106.5t-123.5 -85.5t-73 -30q-4 0 -22 13l-11 8q-12 13 -12 31zM215 813q0 61 35 105.5 t88 44.5q66 0 102.5 -47.5t36.5 -114.5q0 -63 -35.5 -107.5t-91.5 -44.5q-57 0 -96 50.5t-39 113.5z" />
<glyph unicode="&#xa2;" d="M158 649q0 109 39 201t102 152.5t124.5 99.5t125.5 63v140q0 59 47 69l14 4q4 0 11.5 2t13.5 3t12 1q18 0 19 -41v-155q33 4 53 4q98 0 171 -36t73 -112q0 -49 -34 -82.5t-81 -33.5q-68 0 -102.5 21.5t-41 47t-31 47t-73.5 21.5q-88 0 -152.5 -83t-64.5 -196 q0 -143 106.5 -257.5t255.5 -114.5q61 0 126 39t73 39q10 0 23 -9l10 -6q16 -10 16 -20q0 -47 -117.5 -134t-209.5 -87v-156q0 -57 -25 -68l-27 -12q-16 -10 -36 -10q-29 0 -29 39v204q-59 4 -125 32t-127 78t-100 130t-39 176z" />
<glyph unicode="&#xa3;" d="M61 41q0 14 34 38l81 57q47 34 94 78t81 114.5t34 152.5q0 70 -43 178h-74q-45 0 -72.5 -12t-33.5 -12q-20 0 -21 18q0 14 4 25l23 67q12 37 68 37h53q-6 16 -21.5 49t-22.5 50.5t-15.5 44t-12.5 51t-4 51.5q0 176 136 297t339 121q115 0 206 -55.5t91 -149.5 q0 -90 -61.5 -147.5t-135.5 -57.5q-61 0 -111 27t-50 76l6 22q6 12 22 13q14 0 29.5 -7.5t30.5 -7.5q45 0 45 66q0 39 -41 63.5t-101 24.5q-70 0 -130 -51.5t-60 -122.5q0 -31 18.5 -77t38 -82t59.5 -102l56 -96h213q31 0 55.5 8.5t26.5 8.5q20 0 20 -23q0 -10 -32 -80 q-4 -6 -6.5 -17t-6.5 -15.5t-16 -4.5h-209q16 -74 17 -114q0 -61 -27 -122t-51.5 -92.5t-79.5 -94.5h280q63 0 106.5 24.5t60 53t36 53t39.5 24.5q10 0 18 -4l11 -6q16 -10 16 -37t-16.5 -59.5t-55 -94t-67.5 -118.5l-20 -52q-15 -41 -25 -51l-4 -4q-6 -6 -21 -6 q-12 0 -41.5 10.5t-114.5 20.5t-231 10q-180 0 -276 -10q-25 -2 -46.5 -4t-31.5 -4l-10 -2q-23 0 -31 14l-14 29q-5 4 -5 18z" />
<glyph unicode="&#xa4;" d="M100 1145l66 63l141 -139q131 94 281 94q147 0 278 -94l142 139l65 -63l-143 -144q98 -100 98 -282q0 -170 -96 -279l137 -137l-61 -61l-136 135q-129 -96 -284 -96q-164 0 -287 96l-135 -135l-62 61l138 137q-96 104 -97 279q0 162 99 282zM229 718.5 q0 -147.5 105.5 -250.5t253.5 -103q145 0 250.5 104t105.5 250q0 147 -104.5 253.5t-252 106.5t-253 -106.5t-105.5 -254z" />
<glyph unicode="&#xa5;" d="M-33 1352v30q0 39 47 39q31 0 108 -3t118 -3q57 0 151 3t125 3q47 0 47 -39v-30q0 -14 -1 -20.5t-12 -13.5t-34 -9q-59 -10 -72 -47q-4 -14 -4 -33q0 -20 27 -72l211 -414l199 400q35 70 34 86q0 20 -5 33.5t-16 21.5t-17.5 12t-21.5 8.5t-17 4.5q-23 2 -34.5 9t-12.5 13 t-1 21v30q0 39 48 39q25 0 82 -3t92 -3q25 0 71.5 3t69.5 3q47 0 47 -39v-30q0 -14 -47 -43q-31 -20 -51 -54q-43 -66 -78 -133l-211 -377l-47 -90q-12 -25 -22.5 -55.5t-10.5 -62.5h242v-103h-242v-82h242v-102h-242q8 -84 27 -94q16 -18 37.5 -27.5t53.5 -14.5t38 -8 q47 -14 47 -43v-30q0 -39 -47 -39q-43 0 -147.5 3t-157.5 3q-55 0 -162 -3t-142 -3q-47 0 -47 39v30q0 29 47 43q6 2 38 7.5t53.5 14.5t38.5 28q18 12 26 94h-246v102h246v82h-246v103h246q0 39 -74 186l-208 418q-2 6 -23 51t-31 59q-20 29 -34.5 39t-47.5 19 q-47 14 -47 43z" />
<glyph unicode="&#xa6;" horiz-adv-x="681" d="M279 272h122v-759h-122v759zM279 653v762h122v-762h-122z" />
<glyph unicode="&#xa7;" d="M190 514q0 141 69 204.5t196 106.5q-4 4 -34 29l-37 31q-7 6 -30.5 28.5t-31.5 34.5l-25 36q-16 24 -22.5 42t-11.5 44t-5 52q0 143 99.5 233.5t256.5 90.5q125 0 227.5 -65.5t102.5 -145.5q0 -57 -30.5 -87t-69.5 -30q-59 0 -92 35t-42.5 78t-36 77.5t-73.5 34.5 q-61 0 -99 -35.5t-38 -84.5q0 -61 54 -120t131 -110l154 -106q77 -55 131 -135t54 -172q0 -72 -22.5 -124.5t-69.5 -86t-79 -49t-87 -35.5q4 -2 32 -24l39 -31q11 -9 36.5 -32.5t37.5 -42.5l29 -47q16 -28 23.5 -59t7.5 -63q0 -143 -110.5 -236.5t-254.5 -93.5 q-135 0 -236.5 57.5t-101.5 161.5q0 47 29 76t68 29q45 0 74.5 -21.5t44 -53.5t30 -62.5t46 -52t77.5 -21.5q43 0 76 38.5t33 100.5q0 53 -53.5 107.5t-129.5 103.5l-152 103q-77 54 -130.5 130t-53.5 162zM416 594q0 -18 4 -35.5t14 -34.5l19 -29q8 -13 25 -29l28 -25 q10 -9 32 -24l30 -22l33 -21q24 -15 28 -18q37 14 60.5 26.5t53 48.5t29.5 79q0 33 -12 62.5t-42 59.5t-46.5 44t-59.5 44t-47 32q-49 -16 -72.5 -26.5t-50 -45.5t-26.5 -86z" />
<glyph unicode="&#xa8;" horiz-adv-x="747" d="M37 1198q0 51 34.5 87t86.5 36q49 0 85 -36t36 -87q0 -49 -36 -85t-85 -36q-51 0 -86 36t-35 85zM391 1198q0 51 35 87t86 36q49 0 85 -36t36 -87q0 -49 -36 -85t-85 -36q-51 0 -86 36t-35 85z" />
<glyph unicode="&#xa9;" horiz-adv-x="1024" d="M33 985.5q0 192.5 142 326.5t337 134t337 -134t142 -326.5t-142 -327t-337 -134.5t-337 134.5t-142 327zM104 985q0 -162 120 -275.5t288 -113.5t288 113.5t120 275.5q0 164 -120 276.5t-288 112.5t-288 -112.5t-120 -276.5zM262 981q0 123 79 209t173 86q47 0 90 -16.5 t55 -16.5q8 0 13.5 4t13.5 15l8 12h31v-209l-31 -6q-2 2 -9 22.5t-10 26.5t-11.5 24.5t-14.5 26.5t-15 22.5t-18.5 21.5l-21.5 15.5t-25.5 11.5t-27.5 3q-145 0 -146 -250q0 -106 39 -167.5t113 -61.5q115 0 143 149l43 2q-4 -31 -7 -47t-16.5 -49t-33 -52.5t-58 -34.5 t-92.5 -15q-115 0 -189.5 77.5t-74.5 196.5z" />
<glyph unicode="&#xaa;" d="M248 878.5q0 69.5 46 125t118.5 88t125 49t101.5 24.5v33q0 82 -36 116t-118 34q-45 0 -62 -25t-22.5 -54.5t-15.5 -33.5l-12 -6q-12 -6 -23 -6q-23 0 -35 26l-18 35q-8 10 -8 25q0 37 102.5 87t188.5 50q244 0 243 -238v-270q0 -47 14.5 -61.5t39.5 -14.5q29 0 47 13.5 t24 13.5q8 0 21 -12l4 -7q0 -2 3 -4t3 -4q0 -39 -75 -91t-130 -52t-74.5 19.5t-46.5 78.5l-61 -46q-18 -13 -66.5 -32.5t-93.5 -19.5q-80 0 -132 45t-52 114.5zM432 924q0 -82 94 -82q43 0 78 30.5t35 90.5v127q-131 -33 -174 -80q-33 -35 -33 -86z" />
<glyph unicode="&#xab;" horiz-adv-x="606" d="M63 526l199 342h57l-106 -342l102 -344h-55zM301 526l199 342h57l-106 -342l102 -344h-55z" />
<glyph unicode="&#xac;" horiz-adv-x="1744" d="M317 670v55q0 35 45 35h1016q47 0 47 -35v-375q0 -39 -45 -39h-43q-45 0 -45 39v277h-930q-18 0 -31.5 12.5t-13.5 30.5z" />
<glyph unicode="&#xad;" horiz-adv-x="681" d="M51 440q0 8 7 24l18 36q10 20 16 35q25 70 39 79q8 4 19 4q18 0 56 -3t58 -3h236q33 0 72.5 15.5t58.5 15.5q2 0 6 -3t9 -9t5 -14.5t-8 -22.5t-20.5 -33.5t-18.5 -32.5l-14 -41q-12 -35 -17 -38q-12 -12 -34 -13q-14 0 -47 3t-50 3h-170q-57 0 -96 -5t-53 -12t-25.5 -12 t-19.5 -5q-14 0 -17 10z" />
<glyph unicode="&#xae;" horiz-adv-x="1024" d="M33 985.5q0 192.5 142 326.5t337 134t337 -134t142 -326.5t-142 -327t-337 -134.5t-337 134.5t-142 327zM104 985q0 -162 120 -275.5t288 -113.5t288 113.5t120 275.5t-120 275.5t-288 113.5t-288 -113.5t-120 -275.5zM274 731v39q47 4 61.5 17.5t14.5 64.5v293 q0 47 -12 57t-64 17v41h250q109 0 166.5 -28t57.5 -106q0 -47 -29 -76.5t-52.5 -37.5t-68.5 -19q55 -33 78.5 -81t32 -77.5t28.5 -29.5q33 0 33 67h41q0 -49 -24.5 -95t-84 -46t-87 39t-30.5 86t-25.5 86t-74.5 39h-22v-123q0 -57 11 -68.5t67 -19.5v-39h-267zM463 1024h43 q117 0 117 92q0 102 -88 103q-33 0 -49.5 -10.5t-19.5 -24t-3 -43.5v-117z" />
<glyph unicode="&#xaf;" horiz-adv-x="747" d="M43 1112v174h588v-174h-588z" />
<glyph unicode="&#xb0;" d="M377 1231q0 88 62.5 151.5t150.5 63.5q90 0 152.5 -63.5t62.5 -151.5t-62.5 -151.5t-152.5 -63.5q-88 0 -150.5 63.5t-62.5 151.5zM459 1231q0 -57 38 -95t93 -38t94 38t39 95t-38 95t-95 38q-55 0 -93 -38t-38 -95z" />
<glyph unicode="&#xb1;" horiz-adv-x="1744" d="M315 -186q0 35 45 34h1016q47 0 47 -34v-56q0 -18 -14 -30.5t-33 -12.5h-1016q-18 0 -31.5 12.5t-13.5 30.5v56zM317 512v55q0 35 45 35h443v461q0 16 13 27.5t32 11.5h43q45 0 45 -39v-461h440q47 0 47 -35v-55q0 -18 -14 -30.5t-33 -12.5h-440v-461q0 -39 -45 -39h-43 q-45 0 -45 39v461h-443q-18 0 -31.5 12.5t-13.5 30.5z" />
<glyph unicode="&#xb2;" horiz-adv-x="757" d="M63 629q0 4 36 34l99 83q62 54 111 104q94 96 131 158.5t37 150.5q0 70 -47 132.5t-123 62.5q-51 0 -88 -25.5t-51 -60.5q-6 -14 -10 -34t-9.5 -28t-13.5 -8q-12 0 -24 6l-11 6q-20 8 -20 27q0 74 75.5 141.5t209.5 67.5q117 0 201.5 -60.5t84.5 -160.5q0 -57 -11 -100.5 t-51 -94.5t-58 -68l-89 -88l-145 -139h133q119 0 154 17q18 8 42.5 40.5t35.5 32.5q2 0 14 -6l8 -4q14 -8 14 -18q0 -18 -12 -37t-35.5 -50.5t-42.5 -68.5q-2 -4 -9 -27.5t-17 -31.5l-4 -4q-2 -6 -13 -7q-6 0 -26.5 5.5t-63.5 10.5t-100 5h-133q-49 0 -90 -4q-31 -6 -58 -6 q-18 0 -24 16l-4 8q-3 9 -3 23z" />
<glyph unicode="&#xb3;" horiz-adv-x="757" d="M63 707q0 29 16.5 44t41.5 15q49 0 49 -49v-17q0 -10 16.5 -24t52 -26.5t76.5 -12.5q72 0 139.5 58.5t67.5 152.5q0 70 -57 123t-121 53q-6 0 -18.5 -1t-16.5 -1q-31 0 -39 4t-8 25q0 14 8.5 22t16.5 11t30.5 8.5t34.5 9.5q45 14 72 52t27 89q0 55 -42 83t-104 28 q-49 0 -83 -21.5t-44 -50.5q-4 -8 -6 -22.5t-4 -18.5q-6 -10 -24.5 -10t-30 16.5t-11.5 36.5q0 61 79 111.5t181 50.5q104 0 178 -43t74 -127q0 -104 -145 -174v-4q76 -2 151.5 -56.5t75.5 -148.5q0 -131 -117.5 -224.5t-271.5 -93.5q-100 0 -172 38.5t-72 93.5z" />
<glyph unicode="&#xb4;" horiz-adv-x="747" d="M141 1100q0 18 39 43l291 170q33 18 49 18q25 0 43 -12l82 -64q23 -18 23 -30q0 -25 -45 -39l-387 -119q-31 -10 -56 -10q-14 0 -26 16l-7 8q-6 7 -6 19z" />
<glyph unicode="&#xb5;" horiz-adv-x="1327" d="M35 848v35q0 14 14 24.5t37 10.5q82 0 196.5 22.5t127.5 22.5q14 0 22 -5l19 -10q16 -10 16 -24q0 -6 -8 -60.5t-8 -105.5v-410q0 -90 45 -157.5t159 -67.5q76 0 140.5 61.5t64.5 192.5v178q0 145 -22.5 204.5t-94.5 59.5q-27 0 -35 6t-8 23v35q0 14 14.5 24.5t37.5 10.5 q82 0 196.5 22.5t126.5 22.5q14 0 23 -5l18 -10q16 -10 17 -24q0 -6 -8.5 -60.5t-8.5 -105.5v-381q0 -131 22.5 -183.5t94.5 -52.5q27 0 35 -6t8 -22v-35q0 -14 -14.5 -24.5t-36.5 -10.5q-78 0 -150 -18q-37 -12 -70.5 -26.5l-52 -22t-39.5 -7.5h-24q-18 2 -19 84v66 q-170 -150 -331 -150q-94 0 -181 68q2 -80 17.5 -225.5t15.5 -184.5q0 -121 -106 -121q-98 0 -99 121q0 25 20.5 200t20.5 320q-33 119 -32 215v193q0 145 -22.5 204.5t-94.5 59.5q-27 0 -35 6.5t-8 22.5z" />
<glyph unicode="&#xb6;" d="M164 924q0 127 54 225t145.5 154.5t196 84t216.5 27.5h236v-76h-119v-1775h-76v1775h-125v-1775h-76v895q-74 8 -145.5 35.5t-144 79t-117.5 142.5t-45 208z" />
<glyph unicode="&#xb8;" horiz-adv-x="747" d="M227 -311q0 23 21 22q10 0 40.5 -15t73.5 -15q31 0 51.5 14t20.5 37q0 39 -63 39q-10 0 -28.5 -4.5t-27.5 -4.5q-12 0 -16 5l-4 4q-8 8 -8 14q0 12 14 37l94 213h133l-116 -193h26q59 0 99.5 -30.5t40.5 -75.5q0 -61 -52.5 -99t-128 -38t-123 26.5t-47.5 63.5z" />
<glyph unicode="&#xb9;" horiz-adv-x="757" d="M131 612v19q0 18 25.5 20t61.5 6.5t52 24.5q20 31 21 109v335q0 43 -1 60.5t-4 37t-12.5 25.5t-23.5 6q-12 0 -47 -10t-45 -10q-27 0 -27 16v21q0 16 10.5 23.5t57.5 21.5t94 37q37 16 71 40l53 38q19 14 32 14h14q18 0 18 -14q0 -20 -8 -67.5t-8 -100.5v-465 q0 -86 18 -115q16 -23 54 -27t66 -6t28 -20v-19q0 -18 -13.5 -22t-50.5 -4q-31 0 -94 3t-94 3q-35 0 -102.5 -3t-104.5 -3q-41 -1 -41 26z" />
<glyph unicode="&#xba;" d="M195 1079q0 158 114.5 262.5t292.5 104.5q170 0 275.5 -101.5t105.5 -259.5q0 -156 -113.5 -261t-291.5 -105q-166 0 -274.5 102t-108.5 258zM379 1112q0 -133 64.5 -225t162.5 -92q90 0 141.5 70.5t51.5 185.5q0 133 -63.5 226t-160.5 93q-92 0 -144 -71.5t-52 -186.5z " />
<glyph unicode="&#xbb;" horiz-adv-x="606" d="M61 868h58l198 -342l-196 -344h-55l102 344zM299 868h57l199 -342l-197 -344h-55l103 344z" />
<glyph unicode="&#xbc;" horiz-adv-x="1744" d="M160 612v19q0 18 25.5 20t61.5 6.5t52 24.5q20 31 20 109v335q0 43 -1 60.5t-4 37t-12 25.5t-23 6q-12 0 -47 -10t-46 -10q-27 0 -26 16v21q0 16 10 23.5t57 21.5t95 37q37 16 70 40l53 38q19 14 32 14h15q18 0 18 -14q0 -20 -8 -67.5t-8 -100.5v-465q0 -86 18 -115 q16 -23 54 -27t65.5 -6t27.5 -20v-19q0 -18 -13 -22t-50 -4q-31 0 -94.5 3t-93.5 3q-35 0 -102.5 -3t-104.5 -3q-41 -1 -41 26zM418 -6q0 6 16 39l815 1368q25 45 72 45h25q35 0 34 -27q0 -8 -14 -37l-827 -1380q-20 -33 -60 -33h-26q-35 0 -35 25zM909 225v29q0 4 2 10 t8.5 14.5t13.5 15.5t19 22l23 28l395 487q33 39 55 39l29 -10q4 -4 4 -18l-12 -90q-14 -90 -14 -187v-286h16q39 0 53.5 14t22.5 14q14 0 14 -16q0 -8 -2 -26.5t-2 -29t2 -31t2 -24.5q0 -23 -14 -22q-12 0 -30.5 19.5t-45.5 19.5h-16v-54q0 -41 10 -64.5t21.5 -28.5 t21.5 -11t10 -19q0 -10 -6 -16l-4 -4q-8 -8 -17 -8q-10 0 -47 4t-63 4q-39 0 -67.5 -4t-43.5 -4q-12 0 -16 4l-8 6q-6 2 -6 12q0 14 9 22.5t21.5 13.5t21.5 28.5t9 64.5v54h-334q-35 1 -35 28zM999 279h279v348h-4z" />
<glyph unicode="&#xbd;" horiz-adv-x="1744" d="M102 612v19q0 18 26 20t61.5 6.5t52.5 24.5q20 31 20 109v335q0 43 -1 60.5t-4 37t-12 25.5t-24 6q-12 0 -47 -10t-45 -10q-27 0 -27 16v21q0 16 10.5 23.5t57.5 21.5t94 37q37 16 71 40l53 38q19 14 32 14h14q18 0 19 -14q0 -20 -8.5 -67.5t-8.5 -100.5v-465 q0 -86 19 -115q16 -23 54 -27t65.5 -6t27.5 -20v-19q0 -18 -13.5 -22t-49.5 -4q-31 0 -94.5 3t-94.5 3q-35 0 -102.5 -3t-104.5 -3q-41 -1 -41 26zM377 -6q0 6 16 39l815 1368q25 45 72 45h25q35 0 34 -27q0 -8 -14 -37l-827 -1380q-20 -33 -60 -33h-26q-35 0 -35 25z M1034 37q0 4 36 34l98 84q62 54 112 103q94 96 131 158.5t37 150.5q0 70 -47 132.5t-123 62.5q-51 0 -88 -25.5t-51 -60.5q-6 -14 -10.5 -33.5t-9.5 -28t-13 -8.5q-12 0 -25 6l-10 6q-20 8 -20 27q0 74 75.5 141.5t208.5 67.5q117 0 202 -60.5t85 -160.5q0 -57 -11.5 -100.5 t-51 -94.5t-57.5 -68l-89 -87l-145 -140h133q119 0 153 17q18 8 43 40.5t35 32.5q2 0 15 -6l8 -4q14 -6 14 -18q0 -18 -12 -36.5t-36 -50.5t-42 -69q-2 -4 -9 -27.5t-18 -31.5l-4 -4q-2 -6 -12 -6q-4 0 -21.5 4t-31.5 6q-47 10 -137 10h-134q-49 0 -90 -4q-31 -6 -57 -6 q-18 0 -25 16l-4 8q-2 9 -2 23z" />
<glyph unicode="&#xbe;" horiz-adv-x="1744" d="M135 707q0 29 16.5 44t41.5 15q49 0 49 -49v-17q0 -10 16 -24t52 -26.5t77 -12.5q72 0 139.5 58.5t67.5 152.5q0 70 -57.5 123t-120.5 53q-6 0 -18.5 -1t-16.5 -1q-31 0 -39 4t-8 25q0 14 8 22t16.5 11t31 8.5t34.5 9.5q45 14 71.5 52t26.5 89q0 55 -42 83t-103 28 q-49 0 -83 -21.5t-44 -50.5q-4 -8 -6 -22.5t-4 -18.5q-6 -10 -24.5 -10t-30 16.5t-11.5 36.5q0 61 79 111.5t181 50.5q104 0 178 -43t74 -127q0 -104 -145 -174v-4q76 -2 151.5 -56.5t75.5 -148.5q0 -131 -118 -224.5t-271 -93.5q-100 0 -172 38.5t-72 93.5zM444 -6 q0 6 17 39l815 1368q25 45 72 45h24q35 0 35 -27q0 -8 -14 -37l-828 -1380q-20 -33 -59 -33h-27q-35 0 -35 25zM936 225v29q0 4 2 10t8 14.5t13.5 15.5t19.5 22l22 28l396 487q33 39 55 39l29 -10q4 -4 4 -18l-15 -90q-12 -90 -12 -187v-286h17q37 0 53 14t22 14 q14 0 15 -16q0 -8 -2 -26.5t-2 -29t2 -31t2 -24.5q0 -23 -15 -22q-12 0 -30.5 19.5t-44.5 19.5h-17v-54q0 -41 10.5 -64.5t21.5 -28.5t21.5 -11t10.5 -19q0 -10 -6 -16l-5 -4q-8 -8 -16 -8q-10 0 -47 4t-64 4q-39 0 -67.5 -4t-42.5 -4q-12 0 -17 4l-8 6q-6 2 -6 12 q0 14 9.5 22.5t21.5 13.5t21.5 28.5t9.5 64.5v54h-334q-35 1 -35 28zM1026 279h279v348h-5z" />
<glyph unicode="&#xbf;" horiz-adv-x="796" d="M61 -158q0 92 39 164t94.5 115t110.5 77.5t94 74.5t39 87q0 29 -33.5 80.5t-33.5 61.5q0 29 10 39l8 6q14 10 27 10q61 0 149 -102.5t88 -204.5q0 -84 -45 -138.5t-109.5 -82t-129 -52t-109.5 -66.5t-45 -106q0 -72 53.5 -121t116.5 -49q51 0 71.5 24t20.5 53.5t17.5 53 t62.5 23.5q55 0 91 -35t36 -90q0 -74 -69.5 -118t-159.5 -44q-154 0 -274 94t-120 246zM252 811q0 68 35 110t92 42q55 0 96 -47.5t41 -116.5q0 -61 -37 -107.5t-92 -46.5q-63 0 -99 49t-36 117z" />
<glyph unicode="&#xc0;" horiz-adv-x="1630" d="M0 33v30q0 29 47 43q61 18 117 84q55 63 92 152l362 791q45 94 46 143q0 18 -26 45t-26 35q0 14 13 47q4 12 18 12q16 0 47 -6t51 -6q63 0 132 35t81 35q18 0 30.5 -11.5t12.5 -27.5q0 -59 11 -107q4 -25 32 -98l359 -914l55 -112q33 -68 131 -97q47 -14 47 -43v-30 q0 -39 -47 -39q-49 0 -167 3t-169 3q-55 0 -151.5 -3t-136.5 -3q-47 0 -48 39v30q0 14 1 20.5t12.5 13.5t34.5 9q29 4 43 7.5t39.5 14.5t38 36.5t12.5 62.5q0 35 -27 111l-59 166q-18 49 -37 57t-117 8h-231q-96 0 -116 -10t-46 -72l-68 -182q-10 -31 -10 -63.5t13.5 -58 t27.5 -39t41 -22.5t39 -11t37 -5q23 -2 34 -9t12 -13t1 -21v-30q0 -39 -47 -39q-27 0 -113 3t-135 3q-45 0 -127 -3t-119 -3q-47 0 -47 39zM467 1708q0 12 22 31l82 63q18 12 43 13q16 0 50 -19l290 -170q39 -25 39 -43q0 -12 -6 -18l-6 -9q-12 -16 -27 -16q-25 0 -55 10 l-387 119q-45 14 -45 39zM559 705q0 -12 43 -13h283q39 0 39 13q0 8 -15 47l-157 387l-179 -394q-14 -26 -14 -40z" />
<glyph unicode="&#xc1;" horiz-adv-x="1630" d="M0 33v30q0 29 47 43q61 18 117 84q55 63 92 152l362 791q45 94 46 143q0 18 -26 45t-26 35q0 14 13 47q4 12 18 12q16 0 47 -6t51 -6q63 0 132 35t81 35q18 0 30.5 -11.5t12.5 -27.5q0 -59 11 -107q4 -25 32 -98l359 -914l55 -112q33 -68 131 -97q47 -14 47 -43v-30 q0 -39 -47 -39q-49 0 -167 3t-169 3q-55 0 -151.5 -3t-136.5 -3q-47 0 -48 39v30q0 14 1 20.5t12.5 13.5t34.5 9q29 4 43 7.5t39.5 14.5t38 36.5t12.5 62.5q0 35 -27 111l-59 166q-18 49 -37 57t-117 8h-231q-96 0 -116 -10t-46 -72l-68 -182q-10 -31 -10 -63.5t13.5 -58 t27.5 -39t41 -22.5t39 -11t37 -5q23 -2 34 -9t12 -13t1 -21v-30q0 -39 -47 -39q-27 0 -113 3t-135 3q-45 0 -127 -3t-119 -3q-47 0 -47 39zM559 705q0 -12 43 -13h283q39 0 39 13q0 8 -15 47l-157 387l-179 -394q-14 -26 -14 -40zM584 1583q0 18 39 43l290 170q33 18 50 19 q25 0 43 -13l81 -63q23 -18 23 -31q0 -25 -45 -39l-387 -119q-31 -10 -55 -10q-14 0 -27 16l-6 9q-6 6 -6 18z" />
<glyph unicode="&#xc2;" horiz-adv-x="1630" d="M0 33v30q0 29 47 43q61 18 117 84q55 63 92 152l362 791q45 94 46 143q0 18 -26 45t-26 35q0 14 13 47q4 12 18 12q16 0 47 -6t51 -6q63 0 132 35t81 35q18 0 30.5 -11.5t12.5 -27.5q0 -59 11 -107q4 -25 32 -98l359 -914l55 -112q33 -68 131 -97q47 -14 47 -43v-30 q0 -39 -47 -39q-49 0 -167 3t-169 3q-55 0 -151.5 -3t-136.5 -3q-47 0 -48 39v30q0 14 1 20.5t12.5 13.5t34.5 9q29 4 43 7.5t39.5 14.5t38 36.5t12.5 62.5q0 35 -27 111l-59 166q-18 49 -37 57t-117 8h-231q-96 0 -116 -10t-46 -72l-68 -182q-10 -31 -10 -63.5t13.5 -58 t27.5 -39t41 -22.5t39 -11t37 -5q23 -2 34 -9t12 -13t1 -21v-30q0 -39 -47 -39q-27 0 -113 3t-135 3q-45 0 -127 -3t-119 -3q-47 0 -47 39zM528 1593q0 8 5.5 14.5t16.5 13.5t13 9l203 144q70 45 94 45q31 0 80 -41l211 -158q31 -27 31 -37q0 -14 -15 -24l-14 -11 q-10 -8 -39 -8q-31 0 -84 25l-176 90l-188 -92q-45 -23 -64 -23q-33 0 -45 14l-16 17q-13 12 -13 22zM559 705q0 -12 43 -13h283q39 0 39 13q0 8 -15 47l-157 387l-179 -394q-14 -26 -14 -40z" />
<glyph unicode="&#xc3;" horiz-adv-x="1630" d="M0 33v30q0 29 47 43q61 18 117 84q55 63 92 152l362 791q45 94 46 143q0 18 -26 45t-26 35q0 14 13 47q4 12 18 12q16 0 47 -6t51 -6q63 0 132 35t81 35q18 0 30.5 -11.5t12.5 -27.5q0 -59 11 -107q4 -25 32 -98l359 -914l55 -112q33 -68 131 -97q47 -14 47 -43v-30 q0 -39 -47 -39q-49 0 -167 3t-169 3q-55 0 -151.5 -3t-136.5 -3q-47 0 -48 39v30q0 14 1 20.5t12.5 13.5t34.5 9q29 4 43 7.5t39.5 14.5t38 36.5t12.5 62.5q0 35 -27 111l-59 166q-18 49 -37 57t-117 8h-231q-96 0 -116 -10t-46 -72l-68 -182q-10 -31 -10 -63.5t13.5 -58 t27.5 -39t41 -22.5t39 -11t37 -5q23 -2 34 -9t12 -13t1 -21v-30q0 -39 -47 -39q-27 0 -113 3t-135 3q-45 0 -127 -3t-119 -3q-47 0 -47 39zM514 1604q0 45 60.5 107.5t117.5 62.5q37 0 82 -11l92 -24q47 -14 82 -15q25 0 68 29t65 29q14 0 25.5 -11.5t11.5 -23.5 q0 -45 -67.5 -108.5t-116.5 -63.5q-43 0 -96 14l-99 27q-37 8 -55 8q-29 0 -72 -28.5t-63 -28.5q-35 0 -35 37zM559 705q0 -12 43 -13h283q39 0 39 13q0 8 -15 47l-157 387l-179 -394q-14 -26 -14 -40z" />
<glyph unicode="&#xc4;" horiz-adv-x="1630" d="M0 33v30q0 29 47 43q61 18 117 84q55 63 92 152l362 791q45 94 46 143q0 18 -26 45t-26 35q0 14 13 47q4 12 18 12q16 0 47 -6t51 -6q63 0 132 35t81 35q18 0 30.5 -11.5t12.5 -27.5q0 -59 11 -107q4 -25 32 -98l359 -914l55 -112q33 -68 131 -97q47 -14 47 -43v-30 q0 -39 -47 -39q-49 0 -167 3t-169 3q-55 0 -151.5 -3t-136.5 -3q-47 0 -48 39v30q0 14 1 20.5t12.5 13.5t34.5 9q29 4 43 7.5t39.5 14.5t38 36.5t12.5 62.5q0 35 -27 111l-59 166q-18 49 -37 57t-117 8h-231q-96 0 -116 -10t-46 -72l-68 -182q-10 -31 -10 -63.5t13.5 -58 t27.5 -39t41 -22.5t39 -11t37 -5q23 -2 34 -9t12 -13t1 -21v-30q0 -39 -47 -39q-27 0 -113 3t-135 3q-45 0 -127 -3t-119 -3q-47 0 -47 39zM520 1681q0 51 35 87t86 36q49 0 85 -35.5t36 -87.5q0 -49 -36 -84.5t-85 -35.5q-51 0 -86 35.5t-35 84.5zM559 705q0 -12 43 -13 h283q39 0 39 13q0 8 -15 47l-157 387l-179 -394q-14 -26 -14 -40zM874 1681q0 51 35 87t86 36q49 0 85 -35.5t36 -87.5q0 -49 -36 -84.5t-85 -35.5q-51 0 -86 35.5t-35 84.5z" />
<glyph unicode="&#xc5;" horiz-adv-x="1630" d="M0 33v30q0 29 47 43q61 18 117 84q55 63 92 152l362 791q45 94 46 143q0 18 -26 45t-26 35q0 14 13 47q4 12 18 12q16 0 47 -6t51 -6q63 0 132 35t81 35q18 0 30.5 -11.5t12.5 -27.5q0 -59 11 -107q4 -25 32 -98l359 -914l55 -112q33 -68 131 -97q47 -14 47 -43v-30 q0 -39 -47 -39q-49 0 -167 3t-169 3q-55 0 -151.5 -3t-136.5 -3q-47 0 -48 39v30q0 14 1 20.5t12.5 13.5t34.5 9q29 4 43 7.5t39.5 14.5t38 36.5t12.5 62.5q0 35 -27 111l-59 166q-18 49 -37 57t-117 8h-231q-96 0 -116 -10t-46 -72l-68 -182q-10 -31 -10 -63.5t13.5 -58 t27.5 -39t41 -22.5t39 -11t37 -5q23 -2 34 -9t12 -13t1 -21v-30q0 -39 -47 -39q-27 0 -113 3t-135 3q-45 0 -127 -3t-119 -3q-47 0 -47 39zM559 705q0 -12 43 -13h283q39 0 39 13q0 8 -15 47l-157 387l-179 -394q-14 -26 -14 -40zM670 1710q0 70 49 121t118.5 51t120 -50 t50.5 -122t-49.5 -121t-120.5 -49q-70 0 -119 49t-49 121zM756 1710q0 -35 23.5 -59.5t58 -24.5t59.5 24.5t25 59.5q0 37 -25 61.5t-59.5 24.5t-58 -24.5t-23.5 -61.5z" />
<glyph unicode="&#xc6;" horiz-adv-x="2314" d="M6 33v30q0 29 47 43q25 4 43.5 11.5t27.5 12.5t31.5 21.5t32.5 24.5q18 16 43 46t47.5 60.5t26.5 34.5l629 857q51 74 51 100t-55 39q-47 4 -47 43v30q0 39 47 39q8 0 143 -4q98 -6 258 -6h512q70 0 203 10q86 10 104 11q10 0 19.5 -8.5t9.5 -20.5q0 -4 -3 -47t-3 -64 q0 -29 3 -83t3 -68q0 -76 -49 -76h-33q-18 0 -24.5 14.5t-18.5 53.5t-35 77q-43 59 -117.5 79t-199.5 20q-143 0 -183 -20.5t-40 -108.5v-393h149q80 0 134.5 16t77 39.5t35.5 52.5t16 52.5t13.5 40t28.5 16.5h29q37 0 37 -62q0 -39 -5 -115.5t-5 -103.5q0 -31 5 -93.5 t5 -92.5q0 -90 -47 -90h-31q-18 0 -26.5 16t-9.5 38.5t-15.5 56.5t-44.5 61q-51 45 -201 45h-145v-312q0 -63 2 -103t18.5 -68.5t27.5 -42t53 -20.5t70.5 -8t102.5 -1h41q117 0 192.5 28.5t103.5 68.5t41 81t25.5 69.5t38.5 28.5h21q53 0 53 -74q0 -35 -28.5 -150.5 t-28.5 -141.5q0 -18 -12.5 -34t-34.5 -16q-12 0 -103 15q-98 12 -198 12h-525q-70 0 -180 -3t-139 -3q-41 0 -41 39v30q0 29 47 43q6 2 38 7.5t53.5 14.5t37.5 28q27 29 27 254v258h-455l-178 -260q-82 -121 -82 -199q0 -90 131 -103q23 -2 34 -9t12 -13t1 -21v-30 q0 -39 -47 -39q-37 0 -140.5 3t-164.5 3q-47 0 -131 -3t-109 -3q-47 0 -47 39zM815 791h367v524h-4z" />
<glyph unicode="&#xc7;" horiz-adv-x="1593" d="M76 694q0 305 239.5 528.5t573.5 223.5q135 0 277.5 -30t189.5 -30q25 0 58.5 27t49.5 27q6 0 23 -4l18 -9q20 -8 21 -24q0 -18 -5 -29.5t-12.5 -22t-12.5 -52.5t-5 -113q0 -16 5 -70.5t5 -79.5q0 -104 -80 -104q-31 0 -43 30.5t-22 81t-25 76.5q-121 203 -444 203 q-231 0 -362.5 -168t-131.5 -442q0 -299 173 -465t435 -166q121 0 226.5 53t163.5 135q18 27 32.5 62t24.5 50t31 15q33 0 47 -13t14 -56q0 -39 -11 -74t-41 -94.5t-46 -96.5q-2 -4 -10.5 -35.5t-19.5 -48t-30 -16.5q-33 0 -70.5 18.5t-72.5 18.5q-10 0 -30.5 -2t-54.5 -6 t-58 -6q-135 -16 -232 -17q-213 0 -389 82t-287.5 250t-111.5 393zM651 -311q0 23 21 22q12 0 42.5 -15t71.5 -15q31 0 51.5 14t20.5 37q0 39 -63 39q-10 0 -28.5 -4.5t-27.5 -4.5q-12 0 -16 5l-4 4q-8 8 -8 14q0 12 14 37l94 213h133l-116 -193h26q59 0 99 -30.5t40 -75.5 q0 -61 -52 -99t-128 -38t-123 26.5t-47 63.5z" />
<glyph unicode="&#xc8;" horiz-adv-x="1402" d="M84 33v30q0 29 47 43q6 2 38 7.5t53.5 14.5t37.5 28q27 29 27 254v596q0 223 -27 254q-10 10 -22.5 18t-30 14l-24.5 8.5t-29 6.5l-23 2q-47 4 -47 43v30q0 39 47 39q14 0 98 -3t166 -3h543q104 0 227 10q78 10 90 11q10 0 19.5 -8.5t9.5 -20.5q0 -4 -3 -47t-3 -64 q0 -29 3 -83t3 -68q0 -76 -49 -76h-33q-18 0 -24.5 14.5t-18.5 53.5t-35 77q-43 59 -117.5 79t-199.5 20q-143 0 -183 -20.5t-40 -108.5v-393h149q80 0 134.5 16t77 39.5t35.5 52.5t16 52.5t13.5 40t28.5 16.5h29q37 0 37 -62q0 -39 -5 -115.5t-5 -103.5q0 -31 5 -93.5 t5 -92.5q0 -90 -47 -90h-31q-18 0 -26.5 16t-9.5 38.5t-15 56.5t-45 61q-51 45 -201 45h-145v-312q0 -63 2 -103t18.5 -68.5t27.5 -42t53 -20.5t70.5 -8t102.5 -1h41q117 0 192.5 28.5t103.5 68.5t41 81t25.5 69.5t38.5 28.5h21q53 0 53 -74q0 -35 -28.5 -150.5 t-28.5 -141.5q0 -20 -12.5 -37t-34.5 -17q-18 0 -54 4t-99.5 12.5t-119.5 14.5h-602q-51 0 -146 -3t-124 -3q-41 0 -41 39zM393 1708q0 12 23 31l82 63q18 12 43 13q16 0 49 -19l291 -170q39 -25 39 -43q0 -12 -7 -18l-6 -9q-12 -16 -26 -16q-25 0 -56 10l-387 119 q-45 14 -45 39z" />
<glyph unicode="&#xc9;" horiz-adv-x="1402" d="M84 33v30q0 29 47 43q6 2 38 7.5t53.5 14.5t37.5 28q27 29 27 254v596q0 223 -27 254q-10 10 -22.5 18t-30 14l-24.5 8.5t-29 6.5l-23 2q-47 4 -47 43v30q0 39 47 39q14 0 98 -3t166 -3h543q104 0 227 10q78 10 90 11q10 0 19.5 -8.5t9.5 -20.5q0 -4 -3 -47t-3 -64 q0 -29 3 -83t3 -68q0 -76 -49 -76h-33q-18 0 -24.5 14.5t-18.5 53.5t-35 77q-43 59 -117.5 79t-199.5 20q-143 0 -183 -20.5t-40 -108.5v-393h149q80 0 134.5 16t77 39.5t35.5 52.5t16 52.5t13.5 40t28.5 16.5h29q37 0 37 -62q0 -39 -5 -115.5t-5 -103.5q0 -31 5 -93.5 t5 -92.5q0 -90 -47 -90h-31q-18 0 -26.5 16t-9.5 38.5t-15 56.5t-45 61q-51 45 -201 45h-145v-312q0 -63 2 -103t18.5 -68.5t27.5 -42t53 -20.5t70.5 -8t102.5 -1h41q117 0 192.5 28.5t103.5 68.5t41 81t25.5 69.5t38.5 28.5h21q53 0 53 -74q0 -35 -28.5 -150.5 t-28.5 -141.5q0 -20 -12.5 -37t-34.5 -17q-18 0 -54 4t-99.5 12.5t-119.5 14.5h-602q-51 0 -146 -3t-124 -3q-41 0 -41 39zM469 1583q0 18 39 43l291 170q33 18 49 19q25 0 43 -13l82 -63q23 -18 22 -31q0 -25 -45 -39l-387 -119q-31 -10 -55 -10q-14 0 -27 16l-6 9 q-6 6 -6 18z" />
<glyph unicode="&#xca;" horiz-adv-x="1402" d="M84 33v30q0 29 47 43q6 2 38 7.5t53.5 14.5t37.5 28q27 29 27 254v596q0 223 -27 254q-10 10 -22.5 18t-30 14l-24.5 8.5t-29 6.5l-23 2q-47 4 -47 43v30q0 39 47 39q14 0 98 -3t166 -3h543q104 0 227 10q78 10 90 11q10 0 19.5 -8.5t9.5 -20.5q0 -4 -3 -47t-3 -64 q0 -29 3 -83t3 -68q0 -76 -49 -76h-33q-18 0 -24.5 14.5t-18.5 53.5t-35 77q-43 59 -117.5 79t-199.5 20q-143 0 -183 -20.5t-40 -108.5v-393h149q80 0 134.5 16t77 39.5t35.5 52.5t16 52.5t13.5 40t28.5 16.5h29q37 0 37 -62q0 -39 -5 -115.5t-5 -103.5q0 -31 5 -93.5 t5 -92.5q0 -90 -47 -90h-31q-18 0 -26.5 16t-9.5 38.5t-15 56.5t-45 61q-51 45 -201 45h-145v-312q0 -63 2 -103t18.5 -68.5t27.5 -42t53 -20.5t70.5 -8t102.5 -1h41q117 0 192.5 28.5t103.5 68.5t41 81t25.5 69.5t38.5 28.5h21q53 0 53 -74q0 -35 -28.5 -150.5 t-28.5 -141.5q0 -20 -12.5 -37t-34.5 -17q-18 0 -54 4t-99.5 12.5t-119.5 14.5h-602q-51 0 -146 -3t-124 -3q-41 0 -41 39zM373 1593q0 8 5 14.5t16.5 13.5t13.5 9l202 144q70 45 95 45q31 0 79 -41l211 -158q31 -27 31 -37q0 -14 -14 -24l-15 -11q-10 -8 -39 -8 q-31 0 -84 25l-176 90l-188 -92q-45 -23 -64 -23q-33 0 -45 14l-16 17q-12 12 -12 22z" />
<glyph unicode="&#xcb;" horiz-adv-x="1402" d="M84 33v30q0 29 47 43q6 2 38 7.5t53.5 14.5t37.5 28q27 29 27 254v596q0 223 -27 254q-10 10 -22.5 18t-30 14l-24.5 8.5t-29 6.5l-23 2q-47 4 -47 43v30q0 39 47 39q14 0 98 -3t166 -3h543q104 0 227 10q78 10 90 11q10 0 19.5 -8.5t9.5 -20.5q0 -4 -3 -47t-3 -64 q0 -29 3 -83t3 -68q0 -76 -49 -76h-33q-18 0 -24.5 14.5t-18.5 53.5t-35 77q-43 59 -117.5 79t-199.5 20q-143 0 -183 -20.5t-40 -108.5v-393h149q80 0 134.5 16t77 39.5t35.5 52.5t16 52.5t13.5 40t28.5 16.5h29q37 0 37 -62q0 -39 -5 -115.5t-5 -103.5q0 -31 5 -93.5 t5 -92.5q0 -90 -47 -90h-31q-18 0 -26.5 16t-9.5 38.5t-15 56.5t-45 61q-51 45 -201 45h-145v-312q0 -63 2 -103t18.5 -68.5t27.5 -42t53 -20.5t70.5 -8t102.5 -1h41q117 0 192.5 28.5t103.5 68.5t41 81t25.5 69.5t38.5 28.5h21q53 0 53 -74q0 -35 -28.5 -150.5 t-28.5 -141.5q0 -20 -12.5 -37t-34.5 -17q-18 0 -54 4t-99.5 12.5t-119.5 14.5h-602q-51 0 -146 -3t-124 -3q-41 0 -41 39zM406 1681q0 51 34.5 87t85.5 36q49 0 85 -35.5t36 -87.5q0 -49 -36 -84.5t-85 -35.5q-51 0 -85.5 35.5t-34.5 84.5zM760 1681q0 51 34.5 87t86.5 36 q49 0 84.5 -35.5t35.5 -87.5q0 -49 -35.5 -84.5t-84.5 -35.5q-51 0 -86 35.5t-35 84.5z" />
<glyph unicode="&#xcc;" horiz-adv-x="872" d="M88 33v30q0 29 47 43q6 2 38 7.5t53.5 14.5t37.5 28q27 29 27 254v596q0 223 -27 254q-10 10 -22.5 18t-29.5 14l-24.5 8.5t-29.5 6.5l-23 2q-47 4 -47 43v30q0 39 47 39q33 0 140.5 -3t163 -3t165 3t139.5 3q47 0 48 -39v-30q0 -29 -48 -43q-6 -2 -37.5 -7.5t-53 -14.5 t-38.5 -27q-27 -29 -26 -254v-596q0 -225 26 -254q16 -18 38 -27.5t53.5 -14.5t37.5 -8q47 -14 48 -43v-30q0 -39 -48 -39q-43 0 -147 3t-158 3q-55 0 -161.5 -3t-141.5 -3q-47 0 -47 39zM88 1708q0 12 23 31l82 63q18 12 43 13q16 0 49 -19l290 -170q39 -25 39 -43 q0 -12 -6 -18l-6 -9q-12 -16 -27 -16q-25 0 -55 10l-387 119q-45 14 -45 39z" />
<glyph unicode="&#xcd;" horiz-adv-x="872" d="M88 33v30q0 29 47 43q6 2 38 7.5t53.5 14.5t37.5 28q27 29 27 254v596q0 223 -27 254q-10 10 -22.5 18t-29.5 14l-24.5 8.5t-29.5 6.5l-23 2q-47 4 -47 43v30q0 39 47 39q33 0 140.5 -3t163 -3t165 3t139.5 3q47 0 48 -39v-30q0 -29 -48 -43q-6 -2 -37.5 -7.5t-53 -14.5 t-38.5 -27q-27 -29 -26 -254v-596q0 -225 26 -254q16 -18 38 -27.5t53.5 -14.5t37.5 -8q47 -14 48 -43v-30q0 -39 -48 -39q-43 0 -147 3t-158 3q-55 0 -161.5 -3t-141.5 -3q-47 0 -47 39zM205 1583q0 18 39 43l291 170q33 18 49 19q25 0 43 -13l82 -63q23 -18 22 -31 q0 -25 -45 -39l-387 -119q-31 -10 -55 -10q-14 0 -27 16l-6 9q-6 6 -6 18z" />
<glyph unicode="&#xce;" horiz-adv-x="872" d="M88 33v30q0 29 47 43q6 2 38 7.5t53.5 14.5t37.5 28q27 29 27 254v596q0 223 -27 254q-10 10 -22.5 18t-29.5 14l-24.5 8.5t-29.5 6.5l-23 2q-47 4 -47 43v30q0 39 47 39q33 0 140.5 -3t163 -3t165 3t139.5 3q47 0 48 -39v-30q0 -29 -48 -43q-6 -2 -37.5 -7.5t-53 -14.5 t-38.5 -27q-27 -29 -26 -254v-596q0 -225 26 -254q16 -18 38 -27.5t53.5 -14.5t37.5 -8q47 -14 48 -43v-30q0 -39 -48 -39q-43 0 -147 3t-158 3q-55 0 -161.5 -3t-141.5 -3q-47 0 -47 39zM109 1593q0 8 5 14.5t16 13.5t13 9l203 144q70 45 94 45q31 0 80 -41l211 -158 q31 -27 31 -37q0 -14 -14 -24l-15 -11q-10 -8 -39 -8q-31 0 -84 25l-176 90l-188 -92q-45 -23 -64 -23q-33 0 -45 14l-16 17q-12 12 -12 22z" />
<glyph unicode="&#xcf;" horiz-adv-x="872" d="M88 33v30q0 29 47 43q6 2 38 7.5t53.5 14.5t37.5 28q27 29 27 254v596q0 223 -27 254q-10 10 -22.5 18t-29.5 14l-24.5 8.5t-29.5 6.5l-23 2q-47 4 -47 43v30q0 39 47 39q33 0 140.5 -3t163 -3t165 3t139.5 3q47 0 48 -39v-30q0 -29 -48 -43q-6 -2 -37.5 -7.5t-53 -14.5 t-38.5 -27q-27 -29 -26 -254v-596q0 -225 26 -254q16 -18 38 -27.5t53.5 -14.5t37.5 -8q47 -14 48 -43v-30q0 -39 -48 -39q-43 0 -147 3t-158 3q-55 0 -161.5 -3t-141.5 -3q-47 0 -47 39zM121 1681q0 51 34.5 87t86.5 36q49 0 84.5 -35.5t35.5 -87.5q0 -49 -35.5 -84.5 t-84.5 -35.5q-51 0 -86 35.5t-35 84.5zM475 1681q0 51 35 87t86 36q49 0 85 -35.5t36 -87.5q0 -49 -36 -84.5t-85 -35.5q-51 0 -86 35.5t-35 84.5z" />
<glyph unicode="&#xd0;" horiz-adv-x="1781" d="M78 33v30q0 29 47 43q6 2 38 7.5t53.5 14.5t37.5 28q27 29 27 254v258h-148q-25 0 -34 9t-9 34v37q0 43 43 43h148v215q0 223 -27 254q-10 10 -22.5 18t-30 14l-24.5 8.5t-30 6.5l-22 2q-47 4 -47 43v30q0 39 47 39q33 0 140.5 -3t162.5 -3q88 0 250 15.5t221 15.5 q344 0 573.5 -210t229.5 -544q0 -303 -237.5 -513t-573.5 -210q-88 0 -211 15.5t-254 15.5q-55 0 -160.5 -3t-140.5 -3q-47 0 -47 39zM578 338q0 -137 57 -196.5t244 -59.5q244 0 374.5 151.5t130.5 419.5q0 311 -156.5 495.5t-430.5 184.5q-152 0 -185.5 -42t-33.5 -199 v-301h241q63 0 64 -43v-37q0 -27 -15.5 -35t-48.5 -8h-241v-330z" />
<glyph unicode="&#xd1;" horiz-adv-x="1781" d="M74 1352v30q0 39 47 39q12 0 71.5 -3t100.5 -3q18 0 88 3t80 3q18 -2 51 -35l913 -948v578q0 61 -3 96t-23.5 86t-61.5 78q-12 8 -30.5 14t-32.5 8l-38 5.5t-30 5.5q-47 4 -47 43v30q0 39 47 39q2 0 49.5 -2t108.5 -3t98 -1t93.5 1t98.5 3t46 2q47 0 47 -39v-30 q0 -29 -47 -43q-4 -2 -24.5 -6.5t-32 -8.5t-28 -16t-24.5 -31q-43 -82 -43 -354v-506q0 -51 2 -106.5t5.5 -99.5l6.5 -79.5t5 -57t2 -24.5q0 -23 -18.5 -37t-37 -14t-36 12.5t-46.5 46.5l-67 77q-37 44 -115 125l-172 171l-671 664v-655q0 -113 9 -164t46 -86 q23 -23 51.5 -32t62 -13t48.5 -9q47 -14 47 -43v-30q0 -39 -47 -39q-41 0 -131.5 3t-135.5 3q-37 0 -116.5 -3t-114.5 -3q-47 0 -47 39v30q0 29 47 43q29 10 68.5 35t50.5 47q39 88 39 222v596q0 123 -12.5 177t-43.5 85q-47 41 -106 41q-47 0 -47 43zM631 1604 q0 45 60.5 107.5t117.5 62.5q37 0 82 -11l92 -24q47 -14 82 -15q25 0 68 29t65 29q14 0 25.5 -11.5t11.5 -23.5q0 -45 -67.5 -108.5t-116.5 -63.5q-43 0 -97 14l-98 27q-37 8 -55 8q-29 0 -72 -28.5t-63 -28.5q-35 0 -35 37z" />
<glyph unicode="&#xd2;" horiz-adv-x="1744" d="M78 694q0 322 242.5 537t578.5 215q332 0 552 -208t220 -519q0 -317 -236.5 -533.5t-572.5 -216.5q-348 0 -566 206t-218 519zM395 778q0 -297 142.5 -496.5t369.5 -199.5q195 0 321 151.5t126 391.5q0 303 -139.5 505.5t-364.5 202.5q-203 0 -329 -153.5t-126 -401.5z M524 1708q0 12 23 31l82 63q18 12 43 13q16 0 49 -19l291 -170q39 -25 39 -43q0 -12 -7 -18l-6 -9q-12 -16 -26 -16q-25 0 -56 10l-387 119q-45 14 -45 39z" />
<glyph unicode="&#xd3;" horiz-adv-x="1744" d="M78 694q0 322 242.5 537t578.5 215q332 0 552 -208t220 -519q0 -317 -236.5 -533.5t-572.5 -216.5q-348 0 -566 206t-218 519zM395 778q0 -297 142.5 -496.5t369.5 -199.5q195 0 321 151.5t126 391.5q0 303 -139.5 505.5t-364.5 202.5q-203 0 -329 -153.5t-126 -401.5z M641 1583q0 18 39 43l291 170q33 18 49 19q25 0 43 -13l82 -63q23 -18 22 -31q0 -25 -45 -39l-387 -119q-31 -10 -55 -10q-14 0 -27 16l-6 9q-6 6 -6 18z" />
<glyph unicode="&#xd4;" horiz-adv-x="1744" d="M78 694q0 322 242.5 537t578.5 215q332 0 552 -208t220 -519q0 -317 -236.5 -533.5t-572.5 -216.5q-348 0 -566 206t-218 519zM395 778q0 -297 142.5 -496.5t369.5 -199.5q195 0 321 151.5t126 391.5q0 303 -139.5 505.5t-364.5 202.5q-203 0 -329 -153.5t-126 -401.5z M565 1593q0 8 5 14.5t16.5 13.5t13.5 9l203 144q70 45 94 45q31 0 80 -41l211 -158q31 -27 31 -37q0 -14 -15 -24l-14 -11q-10 -8 -39 -8q-31 0 -84 25l-176 90l-189 -92q-45 -23 -63 -23q-33 0 -45 14l-16 17q-13 12 -13 22z" />
<glyph unicode="&#xd5;" horiz-adv-x="1744" d="M78 694q0 322 242.5 537t578.5 215q332 0 552 -208t220 -519q0 -317 -236.5 -533.5t-572.5 -216.5q-348 0 -566 206t-218 519zM395 778q0 -297 142.5 -496.5t369.5 -199.5q195 0 321 151.5t126 391.5q0 303 -139.5 505.5t-364.5 202.5q-203 0 -329 -153.5t-126 -401.5z M571 1604q0 45 60.5 107.5t118.5 62.5q37 0 81 -11l93 -24q47 -14 82 -15q25 0 67.5 29t65.5 29q14 0 25.5 -11.5t11.5 -23.5q0 -45 -68 -108.5t-117 -63.5q-43 0 -96 14l-98 27q-37 8 -56 8q-29 0 -71.5 -28.5t-63.5 -28.5q-35 0 -35 37z" />
<glyph unicode="&#xd6;" horiz-adv-x="1744" d="M78 694q0 322 242.5 537t578.5 215q332 0 552 -208t220 -519q0 -317 -236.5 -533.5t-572.5 -216.5q-348 0 -566 206t-218 519zM395 778q0 -297 142.5 -496.5t369.5 -199.5q195 0 321 151.5t126 391.5q0 303 -139.5 505.5t-364.5 202.5q-203 0 -329 -153.5t-126 -401.5z M578 1681q0 51 34.5 87t85.5 36q49 0 85 -35.5t36 -87.5q0 -49 -35.5 -84.5t-85.5 -35.5q-51 0 -85.5 35.5t-34.5 84.5zM932 1681q0 51 34.5 87t86.5 36q49 0 85 -35.5t36 -87.5q0 -49 -36 -84.5t-85 -35.5q-51 0 -86 35.5t-35 84.5z" />
<glyph unicode="&#xd7;" horiz-adv-x="1744" d="M307 43q0 6 27 39l461 461l-457 452q-29 25 -29 39q0 25 23 43l18 21q14 14 29 14q18 0 47 -29l453 -454l452 454q29 29 47 29q12 0 31 -14l18 -21q20 -25 21 -43q0 -14 -29 -39l-456 -452l460 -461q27 -33 27 -39q0 -18 -16 -35l-23 -20q-23 -18 -31 -19q-23 0 -41 23 l-460 459l-461 -459q-18 -23 -39 -23q-10 0 -33 19l-20 20q-19 15 -19 35z" />
<glyph unicode="&#xd8;" horiz-adv-x="1744" d="M25 -10q0 27 28 51l195 178q-70 76 -120 209t-50 266q0 322 242.5 537t578.5 215q301 0 506 -166l135 125q45 41 82 41h45q57 0 57 -16q0 -29 -30 -56l-195 -178q172 -199 172 -477q0 -317 -236.5 -533.5t-572.5 -216.5q-322 0 -520 166l-139 -129q-41 -37 -103 -37h-39 q-36 1 -36 21zM395 778q0 -225 66 -362l764 698q-145 219 -375 219q-203 0 -329 -153.5t-126 -401.5zM524 301q135 -219 383 -219q195 0 321 151.5t126 391.5q0 201 -70 372z" />
<glyph unicode="&#xd9;" horiz-adv-x="1705" d="M68 1352v30q0 39 47 39q43 0 150.5 -3t160.5 -3q55 0 171 3t151 3q47 0 47 -39v-30q0 -29 -47 -43q-8 -2 -43 -7.5t-62 -15.5t-43 -26q-27 -29 -27 -254v-375q0 -518 367 -518q383 0 383 518v375q0 225 -27 254q-16 18 -37.5 27t-53 14.5t-38.5 7.5q-80 14 -80 43v30 q0 39 48 39q29 0 114.5 -3t130.5 -3q33 0 102.5 3t119.5 3q47 0 47 -39v-30q0 -29 -47 -43q-6 -2 -38 -7.5t-53.5 -14.5t-37.5 -27q-27 -29 -27 -254v-351q0 -332 -144.5 -509t-437.5 -177q-260 0 -424 160t-164 438v439q0 225 -26 254q-16 18 -40 27t-55.5 14.5t-39.5 7.5 q-47 14 -47 43zM565 1708q0 12 23 31l82 63q18 12 43 13q16 0 49 -19l291 -170q39 -25 39 -43q0 -12 -7 -18l-6 -9q-12 -16 -26 -16q-25 0 -56 10l-387 119q-45 14 -45 39z" />
<glyph unicode="&#xda;" horiz-adv-x="1705" d="M68 1352v30q0 39 47 39q43 0 150.5 -3t160.5 -3q55 0 171 3t151 3q47 0 47 -39v-30q0 -29 -47 -43q-8 -2 -43 -7.5t-62 -15.5t-43 -26q-27 -29 -27 -254v-375q0 -518 367 -518q383 0 383 518v375q0 225 -27 254q-16 18 -37.5 27t-53 14.5t-38.5 7.5q-80 14 -80 43v30 q0 39 48 39q29 0 114.5 -3t130.5 -3q33 0 102.5 3t119.5 3q47 0 47 -39v-30q0 -29 -47 -43q-6 -2 -38 -7.5t-53.5 -14.5t-37.5 -27q-27 -29 -27 -254v-351q0 -332 -144.5 -509t-437.5 -177q-260 0 -424 160t-164 438v439q0 225 -26 254q-16 18 -40 27t-55.5 14.5t-39.5 7.5 q-47 14 -47 43zM621 1583q0 18 38 43l291 170q33 18 49 19q25 0 43 -13l82 -63q23 -18 23 -31q0 -25 -45 -39l-387 -119q-31 -10 -56 -10q-14 0 -26 16l-6 9q-6 6 -6 18z" />
<glyph unicode="&#xdb;" horiz-adv-x="1705" d="M68 1352v30q0 39 47 39q43 0 150.5 -3t160.5 -3q55 0 171 3t151 3q47 0 47 -39v-30q0 -29 -47 -43q-8 -2 -43 -7.5t-62 -15.5t-43 -26q-27 -29 -27 -254v-375q0 -518 367 -518q383 0 383 518v375q0 225 -27 254q-16 18 -37.5 27t-53 14.5t-38.5 7.5q-80 14 -80 43v30 q0 39 48 39q29 0 114.5 -3t130.5 -3q33 0 102.5 3t119.5 3q47 0 47 -39v-30q0 -29 -47 -43q-6 -2 -38 -7.5t-53.5 -14.5t-37.5 -27q-27 -29 -27 -254v-351q0 -332 -144.5 -509t-437.5 -177q-260 0 -424 160t-164 438v439q0 225 -26 254q-16 18 -40 27t-55.5 14.5t-39.5 7.5 q-47 14 -47 43zM565 1593q0 8 5 14.5t16.5 13.5t13.5 9l203 144q70 45 94 45q31 0 80 -41l211 -158q31 -27 31 -37q0 -14 -15 -24l-14 -11q-10 -8 -39 -8q-31 0 -84 25l-176 90l-189 -92q-45 -23 -63 -23q-33 0 -45 14l-16 17q-13 12 -13 22z" />
<glyph unicode="&#xdc;" horiz-adv-x="1705" d="M68 1352v30q0 39 47 39q43 0 150.5 -3t160.5 -3q55 0 171 3t151 3q47 0 47 -39v-30q0 -29 -47 -43q-8 -2 -43 -7.5t-62 -15.5t-43 -26q-27 -29 -27 -254v-375q0 -518 367 -518q383 0 383 518v375q0 225 -27 254q-16 18 -37.5 27t-53 14.5t-38.5 7.5q-80 14 -80 43v30 q0 39 48 39q29 0 114.5 -3t130.5 -3q33 0 102.5 3t119.5 3q47 0 47 -39v-30q0 -29 -47 -43q-6 -2 -38 -7.5t-53.5 -14.5t-37.5 -27q-27 -29 -27 -254v-351q0 -332 -144.5 -509t-437.5 -177q-260 0 -424 160t-164 438v439q0 225 -26 254q-16 18 -40 27t-55.5 14.5t-39.5 7.5 q-47 14 -47 43zM618 1681q0 51 35 87t86 36q49 0 85 -35.5t36 -87.5q0 -49 -36 -84.5t-85 -35.5q-51 0 -86 35.5t-35 84.5zM973 1681q0 51 34.5 87t86.5 36q49 0 84.5 -35.5t35.5 -87.5q0 -49 -35.5 -84.5t-84.5 -35.5q-51 0 -86 35.5t-35 84.5z" />
<glyph unicode="&#xdd;" horiz-adv-x="1478" d="M-14 1352v30q0 39 47 39q49 0 169 -3t179 -3q68 0 175.5 3t141.5 3q47 0 47 -39v-30q0 -14 -1 -20.5t-12 -13.5t-34 -9l-10 -2q-12 0 -15 -1t-14.5 -2t-16.5 -3.5t-14.5 -5.5t-14.5 -7t-12 -9t-10 -11t-6 -13.5t-3 -17.5q0 -33 26 -80l232 -414l235 400q31 61 31 86 q0 20 -8 33.5t-24.5 21.5t-28 12t-34 8.5t-24.5 4.5q-23 2 -34 9t-12 13t-1 21v30q0 39 47 39q33 0 111 -3t125 -3q39 0 114.5 3t108.5 3q47 0 47 -39v-30q0 -29 -47 -43q-68 -20 -111 -54q-63 -47 -116 -133l-248 -377q-49 -74 -64.5 -114.5t-15.5 -100.5v-120 q0 -225 27 -254q16 -18 37.5 -27.5t53 -14.5t38.5 -8q47 -14 47 -43v-30q0 -39 -47 -39q-43 0 -147.5 3t-158.5 3q-55 0 -161.5 -3t-141.5 -3q-47 0 -47 39v30q0 29 47 43q6 2 38 7.5t53.5 14.5t37.5 28q27 29 27 254v104q0 31 -2 51.5t-10.5 43t-12.5 30.5t-22.5 40 t-26.5 44l-250 418q-2 4 -16 29.5t-29.5 48t-27.5 32.5q-35 29 -66 38t-98 20q-47 14 -47 43zM549 1583q0 18 39 43l291 170q33 18 49 19q25 0 43 -13l82 -63q23 -18 22 -31q0 -25 -45 -39l-387 -119q-31 -10 -55 -10q-14 0 -27 16l-6 9q-6 6 -6 18z" />
<glyph unicode="&#xde;" horiz-adv-x="1402" d="M76 33v30q0 29 47 43q6 2 38 7.5t53.5 14.5t37.5 28q27 29 27 254v596q0 225 -27 254q-16 18 -37.5 27t-53.5 14.5t-38 7.5q-47 14 -47 43v30q0 39 47 39q43 0 147.5 -3t157.5 -3q55 0 161.5 3t141.5 3q47 0 47 -39v-30q0 -29 -47 -43q-6 -2 -37.5 -7.5t-53.5 -14.5 t-38 -27q-27 -31 -27 -115q143 20 259 20q231 0 386.5 -102t155.5 -313q0 -195 -150.5 -316t-342.5 -121q-74 0 -141.5 17.5t-102.5 39t-35 38.5q0 27 4 32l13 29q4 14 20 14q10 0 61.5 -23.5t104.5 -23.5q102 0 177 75t75 216q0 160 -90 243t-248 83q-84 0 -146 -11v-632 q0 -225 27 -254q20 -18 51 -27.5t74 -14.5t51 -8q47 -14 47 -43v-30q0 -39 -47 -39q-49 0 -171 3t-181 3q-55 0 -161.5 -3t-141.5 -3q-47 0 -47 39z" />
<glyph unicode="&#xdf;" horiz-adv-x="1251" d="M33 20v19q0 23 17.5 34t40 12t49 12.5t40.5 35.5q31 70 31 240v489q0 111 10 197t41 168t80 136t132 87t194 33q133 0 238.5 -82t105.5 -215q0 -47 -17.5 -86t-38.5 -59l-37 -35q-17 -16 -18 -23q6 -6 40 -27.5t67.5 -51.5t70.5 -75t59.5 -117.5t22.5 -162.5 q0 -207 -136 -393.5t-302 -186.5q-94 0 -151.5 54.5t-57.5 142.5q0 55 32 89t85 34q45 0 70.5 -23.5t25.5 -66.5q0 -18 -15.5 -46t-15.5 -32q0 -39 64 -39q59 0 102 87t43 237q0 125 -41 219t-90 136l-90 76q-41 34 -41 52q0 20 31 52t61.5 77t30.5 98q0 98 -51 181t-127 83 q-29 0 -50.5 -11t-35 -36.5t-20.5 -50.5t-10 -71t-4 -75.5t-1 -86.5v-951q0 -68 -12.5 -83t-75.5 -15h-96q-35 0 -101 -4q-51 -6 -100 -6.5t-49 30.5z" />
<glyph unicode="&#xe0;" horiz-adv-x="1062" d="M76 178q0 68 30.5 127.5t83 100t108.5 71.5t122.5 51.5t109.5 31.5t84 18v55q0 98 -53 147t-141 49q-72 0 -101.5 -27.5t-27.5 -59t-15.5 -59.5t-66.5 -28q-20 0 -39 37l-23 43q-14 25 -14 41q0 47 142.5 117t256.5 70q152 0 245 -71t93 -230q0 -27 -5 -169.5t-5 -209.5 q0 -129 74 -129q23 0 58.5 21.5t43.5 21.5q10 0 19 -13l12 -16q8 -12 8 -18q0 -39 -101.5 -110t-172.5 -71q-43 0 -73 10.5t-49.5 34t-27.5 38t-22 48.5l-94 -66q-29 -19 -90.5 -42t-122.5 -23q-96 0 -171 57.5t-75 151.5zM182 1225q0 12 23 30l82 64q18 12 43 12 q16 0 49 -18l291 -170q39 -25 39 -43q0 -12 -7 -19l-6 -8q-12 -16 -26 -16q-25 0 -56 10l-387 119q-45 14 -45 39zM322 244q0 -47 34.5 -79t98.5 -32q160 0 159 240v102q-39 -6 -78.5 -17.5t-93 -36t-87 -70.5t-33.5 -107z" />
<glyph unicode="&#xe1;" horiz-adv-x="1062" d="M76 178q0 68 30.5 127.5t83 100t108.5 71.5t122.5 51.5t109.5 31.5t84 18v55q0 98 -53 147t-141 49q-72 0 -101.5 -27.5t-27.5 -59t-15.5 -59.5t-66.5 -28q-20 0 -39 37l-23 43q-14 25 -14 41q0 47 142.5 117t256.5 70q152 0 245 -71t93 -230q0 -27 -5 -169.5t-5 -209.5 q0 -129 74 -129q23 0 58.5 21.5t43.5 21.5q10 0 19 -13l12 -16q8 -12 8 -18q0 -39 -101.5 -110t-172.5 -71q-43 0 -73 10.5t-49.5 34t-27.5 38t-22 48.5l-94 -66q-29 -19 -90.5 -42t-122.5 -23q-96 0 -171 57.5t-75 151.5zM299 1100q0 18 39 43l291 170q33 18 49 18 q25 0 43 -12l82 -64q23 -18 22 -30q0 -25 -45 -39l-387 -119q-31 -10 -55 -10q-14 0 -27 16l-6 8q-6 7 -6 19zM322 244q0 -47 34.5 -79t98.5 -32q160 0 159 240v102q-39 -6 -78.5 -17.5t-93 -36t-87 -70.5t-33.5 -107z" />
<glyph unicode="&#xe2;" horiz-adv-x="1062" d="M76 178q0 68 30.5 127.5t83 100t108.5 71.5t122.5 51.5t109.5 31.5t84 18v55q0 98 -53 147t-141 49q-72 0 -101.5 -27.5t-27.5 -59t-15.5 -59.5t-66.5 -28q-20 0 -39 37l-23 43q-14 25 -14 41q0 47 142.5 117t256.5 70q152 0 245 -71t93 -230q0 -27 -5 -169.5t-5 -209.5 q0 -129 74 -129q23 0 58.5 21.5t43.5 21.5q10 0 19 -13l12 -16q8 -12 8 -18q0 -39 -101.5 -110t-172.5 -71q-43 0 -73 10.5t-49.5 34t-27.5 38t-22 48.5l-94 -66q-29 -19 -90.5 -42t-122.5 -23q-96 0 -171 57.5t-75 151.5zM182 1110q0 8 5.5 14t16.5 13.5t13 9.5l203 143 q70 45 94 45q31 0 80 -41l211 -157q31 -27 31 -37q0 -14 -15 -25l-14 -10q-10 -8 -39 -8q-31 0 -84 24l-176 90l-189 -92q-45 -23 -63 -22q-33 0 -45 14l-16 16q-13 13 -13 23zM322 244q0 -47 34.5 -79t98.5 -32q160 0 159 240v102q-39 -6 -78.5 -17.5t-93 -36t-87 -70.5 t-33.5 -107z" />
<glyph unicode="&#xe3;" horiz-adv-x="1062" d="M76 178q0 68 30.5 127.5t83 100t108.5 71.5t122.5 51.5t109.5 31.5t84 18v55q0 98 -53 147t-141 49q-72 0 -101.5 -27.5t-27.5 -59t-15.5 -59.5t-66.5 -28q-20 0 -39 37l-23 43q-14 25 -14 41q0 47 142.5 117t256.5 70q152 0 245 -71t93 -230q0 -27 -5 -169.5t-5 -209.5 q0 -129 74 -129q23 0 58.5 21.5t43.5 21.5q10 0 19 -13l12 -16q8 -12 8 -18q0 -39 -101.5 -110t-172.5 -71q-43 0 -73 10.5t-49.5 34t-27.5 38t-22 48.5l-94 -66q-29 -19 -90.5 -42t-122.5 -23q-96 0 -171 57.5t-75 151.5zM229 1120q0 45 60.5 107.5t118.5 62.5q37 0 81 -10 l93 -25q47 -14 82 -14q25 0 67.5 28.5t65.5 28.5q14 0 25.5 -11t11.5 -23q0 -45 -68 -108.5t-117 -63.5q-43 0 -96 14l-98 27q-37 8 -56 8q-29 0 -71.5 -29t-63.5 -29q-35 0 -35 37zM322 244q0 -47 34.5 -79t98.5 -32q160 0 159 240v102q-39 -6 -78.5 -17.5t-93 -36 t-87 -70.5t-33.5 -107z" />
<glyph unicode="&#xe4;" horiz-adv-x="1062" d="M76 178q0 68 30.5 127.5t83 100t108.5 71.5t122.5 51.5t109.5 31.5t84 18v55q0 98 -53 147t-141 49q-72 0 -101.5 -27.5t-27.5 -59t-15.5 -59.5t-66.5 -28q-20 0 -39 37l-23 43q-14 25 -14 41q0 47 142.5 117t256.5 70q152 0 245 -71t93 -230q0 -27 -5 -169.5t-5 -209.5 q0 -129 74 -129q23 0 58.5 21.5t43.5 21.5q10 0 19 -13l12 -16q8 -12 8 -18q0 -39 -101.5 -110t-172.5 -71q-43 0 -73 10.5t-49.5 34t-27.5 38t-22 48.5l-94 -66q-29 -19 -90.5 -42t-122.5 -23q-96 0 -171 57.5t-75 151.5zM195 1198q0 51 34.5 87t85.5 36q49 0 85 -36 t36 -87q0 -49 -35.5 -85t-85.5 -36q-51 0 -85.5 36t-34.5 85zM322 244q0 -47 34.5 -79t98.5 -32q160 0 159 240v102q-39 -6 -78.5 -17.5t-93 -36t-87 -70.5t-33.5 -107zM549 1198q0 51 34.5 87t86.5 36q49 0 85 -36t36 -87q0 -49 -36 -85t-85 -36q-51 0 -86 36t-35 85z" />
<glyph unicode="&#xe5;" horiz-adv-x="1062" d="M76 178q0 68 30.5 127.5t83 100t108.5 71.5t122.5 51.5t109.5 31.5t84 18v55q0 98 -53 147t-141 49q-72 0 -101.5 -27.5t-27.5 -59t-15.5 -59.5t-66.5 -28q-20 0 -39 37l-23 43q-14 25 -14 41q0 47 142.5 117t256.5 70q152 0 245 -71t93 -230q0 -27 -5 -169.5t-5 -209.5 q0 -129 74 -129q23 0 58.5 21.5t43.5 21.5q10 0 19 -13l12 -16q8 -12 8 -18q0 -39 -101.5 -110t-172.5 -71q-43 0 -73 10.5t-49.5 34t-27.5 38t-22 48.5l-94 -66q-29 -19 -90.5 -42t-122.5 -23q-96 0 -171 57.5t-75 151.5zM322 244q0 -47 34.5 -79t98.5 -32q160 0 159 240 v102q-39 -6 -78.5 -17.5t-93 -36t-87 -70.5t-33.5 -107zM365 1227q0 70 49 121t118.5 51t119.5 -50.5t50 -122t-50 -120.5t-119.5 -49t-118.5 49t-49 121zM451 1227q0 -35 23.5 -59.5t58 -24.5t59 24.5t24.5 59.5q0 37 -24.5 61.5t-59 24.5t-58 -24.5t-23.5 -61.5z" />
<glyph unicode="&#xe6;" horiz-adv-x="1593" d="M76 178q0 80 46 148.5t109.5 109.5t147.5 73t138 45t106 21l4 58q0 90 -56.5 143t-150.5 53q-72 0 -101.5 -27.5t-27.5 -59t-15.5 -59.5t-66.5 -28q-20 0 -39 37l-23 43q-14 25 -14 41q0 47 142.5 117t256.5 70q186 0 271 -113q129 113 301 113q215 0 324.5 -118 t109.5 -296q0 -23 -14.5 -33t-29.5 -12t-48 -2h-514q-23 0 -34 -8.5t-13 -18.5t-2 -26q0 -127 86 -226.5t215 -99.5q72 0 140.5 38t111.5 75.5t55 37.5q10 0 22 -8l13 -10q16 -16 16 -27q0 -61 -143.5 -160.5t-308.5 -99.5q-231 0 -361 152q-14 -8 -60 -37t-62.5 -38 t-57.5 -28.5t-68.5 -26.5t-70.5 -14.5t-88 -7.5q-96 0 -171 57.5t-75 151.5zM322 244q0 -47 34.5 -79t98.5 -32q92 0 211 86q-41 115 -43 254q-39 -6 -80 -17.5t-96.5 -36t-90 -70.5t-34.5 -105zM883 637q0 -23 12 -28t68 -5h237q57 0 69.5 9.5t12.5 54.5q0 72 -56.5 132 t-133.5 60q-92 0 -150.5 -72.5t-58.5 -150.5z" />
<glyph unicode="&#xe7;" horiz-adv-x="909" d="M55 403q0 231 168 395.5t387 164.5q106 0 178 -36t72 -108q0 -49 -34.5 -80.5t-77.5 -31.5q-47 0 -83 20.5t-53.5 46t-42 46t-53.5 20.5q-96 0 -160.5 -84t-64.5 -217q0 -160 94 -288t246 -128q49 0 99 25.5t82 51t38 25.5q12 0 20 -8l9 -10q14 -18 14 -27 q0 -53 -123 -132t-260 -79q-201 0 -328 122t-127 312zM309 -311q0 23 21 22q10 0 40.5 -15t73.5 -15q31 0 51.5 14t20.5 37q0 39 -63 39q-10 0 -28.5 -4.5t-27.5 -4.5q-12 0 -16 5l-4 4q-8 8 -8 14q0 12 14 37l94 213h133l-116 -193h26q59 0 99 -30.5t40 -75.5 q0 -61 -52 -99t-128 -38t-123 26.5t-47 63.5z" />
<glyph unicode="&#xe8;" horiz-adv-x="1024" d="M61 449q0 190 134.5 352t343.5 162q215 0 324.5 -118t109.5 -296q0 -23 -14.5 -33t-30 -12t-47.5 -2h-514q-23 0 -34 -8.5t-13.5 -18.5t-2.5 -26q0 -127 86 -226.5t215 -99.5q72 0 140.5 38t111.5 75.5t56 37.5q10 0 22 -8l13 -10q16 -16 16 -27q0 -61 -143.5 -160.5 t-309.5 -99.5q-197 0 -330 128.5t-133 351.5zM225 1225q0 12 23 30l82 64q18 12 43 12q16 0 49 -18l291 -170q39 -25 39 -43q0 -12 -7 -19l-6 -8q-12 -16 -26 -16q-25 0 -56 10l-387 119q-45 14 -45 39zM317 637q0 -23 12.5 -28t67.5 -5h238q57 0 69.5 9.5t12.5 54.5 q0 72 -56.5 132t-134.5 60q-92 0 -150.5 -72.5t-58.5 -150.5z" />
<glyph unicode="&#xe9;" horiz-adv-x="1024" d="M61 449q0 190 134.5 352t343.5 162q215 0 324.5 -118t109.5 -296q0 -23 -14.5 -33t-30 -12t-47.5 -2h-514q-23 0 -34 -8.5t-13.5 -18.5t-2.5 -26q0 -127 86 -226.5t215 -99.5q72 0 140.5 38t111.5 75.5t56 37.5q10 0 22 -8l13 -10q16 -16 16 -27q0 -61 -143.5 -160.5 t-309.5 -99.5q-197 0 -330 128.5t-133 351.5zM281 1100q0 18 38 43l291 170q33 18 49 18q25 0 43 -12l82 -64q23 -18 23 -30q0 -25 -45 -39l-387 -119q-31 -10 -56 -10q-14 0 -26 16l-6 8q-6 7 -6 19zM317 637q0 -23 12.5 -28t67.5 -5h238q57 0 69.5 9.5t12.5 54.5 q0 72 -56.5 132t-134.5 60q-92 0 -150.5 -72.5t-58.5 -150.5z" />
<glyph unicode="&#xea;" horiz-adv-x="1024" d="M61 449q0 190 134.5 352t343.5 162q215 0 324.5 -118t109.5 -296q0 -23 -14.5 -33t-30 -12t-47.5 -2h-514q-23 0 -34 -8.5t-13.5 -18.5t-2.5 -26q0 -127 86 -226.5t215 -99.5q72 0 140.5 38t111.5 75.5t56 37.5q10 0 22 -8l13 -10q16 -16 16 -27q0 -61 -143.5 -160.5 t-309.5 -99.5q-197 0 -330 128.5t-133 351.5zM215 1110q0 8 5 14t16.5 13.5t13.5 9.5l203 143q70 45 94 45q31 0 80 -41l211 -157q31 -27 30 -37q0 -14 -14 -25l-14 -10q-10 -8 -39 -8q-31 0 -84 24l-176 90l-189 -92q-45 -23 -63 -22q-33 0 -45 14l-17 16q-12 13 -12 23z M317 637q0 -23 12.5 -28t67.5 -5h238q57 0 69.5 9.5t12.5 54.5q0 72 -56.5 132t-134.5 60q-92 0 -150.5 -72.5t-58.5 -150.5z" />
<glyph unicode="&#xeb;" horiz-adv-x="1024" d="M61 449q0 190 134.5 352t343.5 162q215 0 324.5 -118t109.5 -296q0 -23 -14.5 -33t-30 -12t-47.5 -2h-514q-23 0 -34 -8.5t-13.5 -18.5t-2.5 -26q0 -127 86 -226.5t215 -99.5q72 0 140.5 38t111.5 75.5t56 37.5q10 0 22 -8l13 -10q16 -16 16 -27q0 -61 -143.5 -160.5 t-309.5 -99.5q-197 0 -330 128.5t-133 351.5zM217 1198q0 51 35 87t86 36q49 0 85 -36t36 -87q0 -49 -36 -85t-85 -36q-51 0 -86 36t-35 85zM317 637q0 -23 12.5 -28t67.5 -5h238q57 0 69.5 9.5t12.5 54.5q0 72 -56.5 132t-134.5 60q-92 0 -150.5 -72.5t-58.5 -150.5z M571 1198q0 51 35 87t86 36q49 0 85 -36t36 -87q0 -49 -36 -85t-85 -36q-51 0 -86 36t-35 85z" />
<glyph unicode="&#xec;" horiz-adv-x="665" d="M-16 1225q0 12 22 30l82 64q18 12 43 12q16 0 49 -18l291 -170q39 -25 39 -43q0 -12 -6 -19l-6 -8q-12 -16 -27 -16q-25 0 -55 10l-387 119q-45 14 -45 39zM43 27v41q0 29 47 38q76 12 98 66q14 31 15 154v229q0 104 -22.5 148.5t-94.5 44.5q-27 0 -35 6t-8 22v35 q0 14 14.5 24.5t36.5 10.5q74 0 150 33q43 18 78.5 40.5t55 33t40.5 10.5q14 0 22 -5l19 -10q16 -10 16 -24q0 -6 -8 -60.5t-8 -105.5v-432q0 -115 14 -154q23 -53 107 -66q47 -10 47 -38v-41q0 -33 -47 -33q-29 0 -113 3t-131 3q-39 0 -125 -3t-121 -3q-47 0 -47 33z" />
<glyph unicode="&#xed;" horiz-adv-x="665" d="M43 27v41q0 29 47 38q76 12 98 66q14 31 15 154v229q0 104 -22.5 148.5t-94.5 44.5q-27 0 -35 6t-8 22v35q0 14 14.5 24.5t36.5 10.5q74 0 150 33q43 18 78.5 40.5t55 33t40.5 10.5q14 0 22 -5l19 -10q16 -10 16 -24q0 -6 -8 -60.5t-8 -105.5v-432q0 -115 14 -154 q23 -53 107 -66q47 -10 47 -38v-41q0 -33 -47 -33q-29 0 -113 3t-131 3q-39 0 -125 -3t-121 -3q-47 0 -47 33zM100 1100q0 18 39 43l291 170q33 18 49 18q25 0 43 -12l82 -64q23 -18 23 -30q0 -25 -45 -39l-387 -119q-31 -10 -56 -10q-14 0 -26 16l-7 8q-6 7 -6 19z" />
<glyph unicode="&#xee;" horiz-adv-x="665" d="M-16 1110q0 8 5 14t16 13.5t13 9.5l203 143q70 45 94 45q31 0 80 -41l211 -157q31 -27 31 -37q0 -14 -14 -25l-15 -10q-10 -8 -39 -8q-31 0 -84 24l-176 90l-188 -92q-45 -23 -64 -22q-33 0 -45 14l-16 16q-12 13 -12 23zM43 27v41q0 29 47 38q76 12 98 66q14 31 15 154 v229q0 104 -22.5 148.5t-94.5 44.5q-27 0 -35 6t-8 22v35q0 14 14.5 24.5t36.5 10.5q74 0 150 33q43 18 78.5 40.5t55 33t40.5 10.5q14 0 22 -5l19 -10q16 -10 16 -24q0 -6 -8 -60.5t-8 -105.5v-432q0 -115 14 -154q23 -53 107 -66q47 -10 47 -38v-41q0 -33 -47 -33 q-29 0 -113 3t-131 3q-39 0 -125 -3t-121 -3q-47 0 -47 33z" />
<glyph unicode="&#xef;" horiz-adv-x="665" d="M-4 1198q0 51 35 87t86 36q49 0 85 -36t36 -87q0 -49 -36 -85t-85 -36q-51 0 -86 36t-35 85zM43 27v41q0 29 47 38q76 12 98 66q14 31 15 154v229q0 104 -22.5 148.5t-94.5 44.5q-27 0 -35 6t-8 22v35q0 14 14.5 24.5t36.5 10.5q74 0 150 33q43 18 78.5 40.5t55 33 t40.5 10.5q14 0 22 -5l19 -10q16 -10 16 -24q0 -6 -8 -60.5t-8 -105.5v-432q0 -115 14 -154q23 -53 107 -66q47 -10 47 -38v-41q0 -33 -47 -33q-29 0 -113 3t-131 3q-39 0 -125 -3t-121 -3q-47 0 -47 33zM350 1198q0 51 35 87t86 36q49 0 85 -36t36 -87q0 -49 -36 -85 t-85 -36q-51 0 -86 36t-35 85z" />
<glyph unicode="&#xf0;" horiz-adv-x="1251" d="M131 391q0 240 150.5 406t373.5 166q158 0 236 -60l4 4q-49 139 -141 240l-82 -60q-49 -35 -56 -34q-4 0 -16 12l-16 18q-20 27 -20.5 33t36.5 33l94 70q-88 80 -180 79q-31 0 -74 -11t-65 -11q-6 0 -17 18l-24 49q-6 10 -6 21q2 12 67.5 24.5t127 53.5t71.5 41h33 q127 -76 209 -158l102 72q49 35 55 35q4 0 17 -13l16 -18q20 -25 21 -33q0 -4 -37 -33l-113 -82q109 -137 163 -296.5t54 -292.5q0 -309 -144.5 -502t-408.5 -193q-184 0 -307 122t-123 300zM367 516q0 -150 84 -266.5t202 -116.5q72 0 119 31t68.5 89t30 119.5t8.5 147.5 q0 340 -240 340q-121 0 -196.5 -95t-75.5 -249z" />
<glyph unicode="&#xf1;" horiz-adv-x="1327" d="M53 27v41q0 29 47 38q76 12 99 66q14 31 14 154v229q0 104 -22.5 148.5t-94.5 44.5q-27 0 -35 6t-8 22v35q0 14 14.5 24.5t36.5 10.5q74 0 150 33q39 18 72.5 40.5t52 33t39.5 10.5h24q16 -2 17 -84v-66q170 150 332 150q166 0 255 -109t89 -270v-258q0 -115 14 -154 q16 -47 102 -66q47 -10 47 -38v-41q0 -33 -47 -33q-23 0 -101.5 3t-117.5 3t-125 -3t-121 -3q-47 0 -47 33v41q0 29 47 38q59 12 78 66q14 31 15 154v229q0 63 -14.5 114.5t-62.5 95.5t-128 44q-76 0 -140.5 -61.5t-64.5 -192.5v-229q0 -115 14 -154q14 -49 72 -66 q47 -10 47 -38v-41q0 -33 -47 -33q-23 0 -96.5 3t-112.5 3t-125 -3t-121 -3q-47 0 -47 33zM383 1120q0 45 60.5 107.5t117.5 62.5q37 0 82 -10l92 -25q47 -14 82 -14q25 0 68 28.5t65 28.5q14 0 25.5 -11t11.5 -23q0 -45 -67.5 -108.5t-116.5 -63.5q-43 0 -96 14l-99 27 q-37 8 -55 8q-29 0 -72 -29t-63 -29q-35 0 -35 37z" />
<glyph unicode="&#xf2;" d="M51 461q0 215 158 358.5t399 143.5q231 0 374.5 -141.5t143.5 -356.5q0 -211 -156.5 -353.5t-394.5 -142.5q-229 0 -376.5 139.5t-147.5 352.5zM270 1225q0 12 23 30l82 64q18 12 43 12q16 0 49 -18l291 -170q39 -25 39 -43q0 -12 -6 -19l-7 -8q-12 -16 -26 -16 q-25 0 -56 10l-387 119q-45 14 -45 39zM307 504q0 -178 86 -305t217 -127q121 0 190.5 98t69.5 256q0 186 -92 310t-209 124q-123 0 -192.5 -99t-69.5 -257z" />
<glyph unicode="&#xf3;" d="M51 461q0 215 158 358.5t399 143.5q231 0 374.5 -141.5t143.5 -356.5q0 -211 -156.5 -353.5t-394.5 -142.5q-229 0 -376.5 139.5t-147.5 352.5zM307 504q0 -178 86 -305t217 -127q121 0 190.5 98t69.5 256q0 186 -92 310t-209 124q-123 0 -192.5 -99t-69.5 -257z M356 1100q0 18 39 43l291 170q33 18 49 18q25 0 43 -12l82 -64q23 -18 23 -30q0 -25 -45 -39l-387 -119q-31 -10 -56 -10q-14 0 -26 16l-7 8q-6 7 -6 19z" />
<glyph unicode="&#xf4;" d="M51 461q0 215 158 358.5t399 143.5q231 0 374.5 -141.5t143.5 -356.5q0 -211 -156.5 -353.5t-394.5 -142.5q-229 0 -376.5 139.5t-147.5 352.5zM260 1110q0 8 5 14t16.5 13.5t13.5 9.5l203 143q70 45 94 45q31 0 80 -41l211 -157q31 -27 30 -37q0 -14 -14 -25l-14 -10 q-10 -8 -39 -8q-31 0 -84 24l-176 90l-189 -92q-45 -23 -63 -22q-33 0 -45 14l-17 16q-12 13 -12 23zM307 504q0 -178 86 -305t217 -127q121 0 190.5 98t69.5 256q0 186 -92 310t-209 124q-123 0 -192.5 -99t-69.5 -257z" />
<glyph unicode="&#xf5;" d="M51 461q0 215 158 358.5t399 143.5q231 0 374.5 -141.5t143.5 -356.5q0 -211 -156.5 -353.5t-394.5 -142.5q-229 0 -376.5 139.5t-147.5 352.5zM307 504q0 -178 86 -305t217 -127q121 0 190.5 98t69.5 256q0 186 -92 310t-209 124q-123 0 -192.5 -99t-69.5 -257z M307 1120q0 45 60.5 107.5t117.5 62.5q37 0 82 -10l92 -25q47 -14 82 -14q25 0 68 28.5t65 28.5q14 0 25.5 -11t11.5 -23q0 -45 -67.5 -108.5t-116.5 -63.5q-43 0 -96 14l-99 27q-37 8 -55 8q-29 0 -72 -29t-63 -29q-35 0 -35 37z" />
<glyph unicode="&#xf6;" d="M51 461q0 215 158 358.5t399 143.5q231 0 374.5 -141.5t143.5 -356.5q0 -211 -156.5 -353.5t-394.5 -142.5q-229 0 -376.5 139.5t-147.5 352.5zM252 1198q0 51 35 87t86 36q49 0 85 -36t36 -87q0 -49 -36 -85t-85 -36q-51 0 -86 36t-35 85zM307 504q0 -178 86 -305 t217 -127q121 0 190.5 98t69.5 256q0 186 -92 310t-209 124q-123 0 -192.5 -99t-69.5 -257zM606 1198q0 51 35 87t86 36q49 0 85 -36t36 -87q0 -49 -36 -85t-85 -36q-51 0 -86 36t-35 85z" />
<glyph unicode="&#xf7;" horiz-adv-x="1744" d="M315 512v55q0 35 45 35h1016q47 0 47 -35v-55q0 -18 -14 -30.5t-33 -12.5h-1016q-18 0 -31.5 12.5t-13.5 30.5zM784 57.5q0 34.5 23.5 59t60.5 24.5q33 0 58.5 -24.5t25.5 -59.5q0 -33 -25.5 -58.5t-58.5 -25.5q-35 0 -59.5 25t-24.5 59.5zM784 1014q0 35 23.5 59.5 t60.5 24.5q33 0 58.5 -24.5t25.5 -59.5t-25.5 -59.5t-58.5 -24.5q-35 0 -59.5 24.5t-24.5 59.5z" />
<glyph unicode="&#xf8;" d="M4 -14q0 8 4 14t12 14l11 11l127 116q-106 135 -107 320q0 215 158 358.5t399 143.5q188 0 330 -99l88 82q27 16 76 17h37q33 0 32.5 -14.5t-36.5 -45.5l-121 -112q113 -135 112 -326q0 -211 -156.5 -353.5t-394.5 -142.5q-205 0 -337 103l-86 -78q-20 -25 -76 -25h-33 q-39 1 -39 17zM307 504q0 -111 35 -193l440 412q-92 137 -213 137q-123 0 -192.5 -99t-69.5 -257zM385 211q86 -139 225 -139q121 0 190.5 98t69.5 256q0 102 -36 197z" />
<glyph unicode="&#xf9;" horiz-adv-x="1327" d="M35 848v35q0 14 14 24.5t37 10.5q82 0 196.5 22.5t127.5 22.5q14 0 22 -5l19 -10q16 -10 16 -24q0 -6 -8 -60.5t-8 -105.5v-410q0 -90 45 -157.5t159 -67.5q76 0 140.5 61.5t64.5 192.5v178q0 145 -22.5 204.5t-94.5 59.5q-27 0 -35 6t-8 23v35q0 14 14.5 24.5t37.5 10.5 q82 0 196.5 22.5t126.5 22.5q14 0 23 -5l18 -10q16 -10 17 -24q0 -6 -8.5 -60.5t-8.5 -105.5v-381q0 -131 22.5 -183.5t94.5 -52.5q27 0 35 -6t8 -22v-35q0 -14 -14.5 -24.5t-36.5 -10.5q-78 0 -150 -18q-43 -12 -91 -34t-73 -22h-24q-16 2 -17 84v66q-170 -150 -331 -150 q-166 0 -255 108.5t-89 270.5v207q0 145 -22.5 204.5t-94.5 59.5q-27 0 -35 6.5t-8 22.5zM315 1225q0 12 23 30l82 64q18 12 43 12q16 0 49 -18l291 -170q39 -25 39 -43q0 -12 -6 -19l-7 -8q-12 -16 -26 -16q-25 0 -55 10l-388 119q-45 14 -45 39z" />
<glyph unicode="&#xfa;" horiz-adv-x="1327" d="M35 848v35q0 14 14 24.5t37 10.5q82 0 196.5 22.5t127.5 22.5q14 0 22 -5l19 -10q16 -10 16 -24q0 -6 -8 -60.5t-8 -105.5v-410q0 -90 45 -157.5t159 -67.5q76 0 140.5 61.5t64.5 192.5v178q0 145 -22.5 204.5t-94.5 59.5q-27 0 -35 6t-8 23v35q0 14 14.5 24.5t37.5 10.5 q82 0 196.5 22.5t126.5 22.5q14 0 23 -5l18 -10q16 -10 17 -24q0 -6 -8.5 -60.5t-8.5 -105.5v-381q0 -131 22.5 -183.5t94.5 -52.5q27 0 35 -6t8 -22v-35q0 -14 -14.5 -24.5t-36.5 -10.5q-78 0 -150 -18q-43 -12 -91 -34t-73 -22h-24q-16 2 -17 84v66q-170 -150 -331 -150 q-166 0 -255 108.5t-89 270.5v207q0 145 -22.5 204.5t-94.5 59.5q-27 0 -35 6.5t-8 22.5zM432 1100q0 18 39 43l291 170q33 18 49 18q25 0 43 -12l82 -64q23 -18 22 -30q0 -25 -45 -39l-387 -119q-31 -10 -55 -10q-14 0 -27 16l-6 8q-6 7 -6 19z" />
<glyph unicode="&#xfb;" horiz-adv-x="1327" d="M35 848v35q0 14 14 24.5t37 10.5q82 0 196.5 22.5t127.5 22.5q14 0 22 -5l19 -10q16 -10 16 -24q0 -6 -8 -60.5t-8 -105.5v-410q0 -90 45 -157.5t159 -67.5q76 0 140.5 61.5t64.5 192.5v178q0 145 -22.5 204.5t-94.5 59.5q-27 0 -35 6t-8 23v35q0 14 14.5 24.5t37.5 10.5 q82 0 196.5 22.5t126.5 22.5q14 0 23 -5l18 -10q16 -10 17 -24q0 -6 -8.5 -60.5t-8.5 -105.5v-381q0 -131 22.5 -183.5t94.5 -52.5q27 0 35 -6t8 -22v-35q0 -14 -14.5 -24.5t-36.5 -10.5q-78 0 -150 -18q-43 -12 -91 -34t-73 -22h-24q-16 2 -17 84v66q-170 -150 -331 -150 q-166 0 -255 108.5t-89 270.5v207q0 145 -22.5 204.5t-94.5 59.5q-27 0 -35 6.5t-8 22.5zM315 1110q0 8 5.5 14t16.5 13.5t13 9.5l203 143q70 45 94 45q31 0 80 -41l211 -157q31 -27 31 -37q0 -14 -15 -25l-14 -10q-10 -8 -39 -8q-31 0 -84 24l-176 90l-188 -92 q-45 -23 -64 -22q-33 0 -45 14l-16 16q-13 13 -13 23z" />
<glyph unicode="&#xfc;" horiz-adv-x="1327" d="M35 848v35q0 14 14 24.5t37 10.5q82 0 196.5 22.5t127.5 22.5q14 0 22 -5l19 -10q16 -10 16 -24q0 -6 -8 -60.5t-8 -105.5v-410q0 -90 45 -157.5t159 -67.5q76 0 140.5 61.5t64.5 192.5v178q0 145 -22.5 204.5t-94.5 59.5q-27 0 -35 6t-8 23v35q0 14 14.5 24.5t37.5 10.5 q82 0 196.5 22.5t126.5 22.5q14 0 23 -5l18 -10q16 -10 17 -24q0 -6 -8.5 -60.5t-8.5 -105.5v-381q0 -131 22.5 -183.5t94.5 -52.5q27 0 35 -6t8 -22v-35q0 -14 -14.5 -24.5t-36.5 -10.5q-78 0 -150 -18q-43 -12 -91 -34t-73 -22h-24q-16 2 -17 84v66q-170 -150 -331 -150 q-166 0 -255 108.5t-89 270.5v207q0 145 -22.5 204.5t-94.5 59.5q-27 0 -35 6.5t-8 22.5zM328 1198q0 51 34.5 87t86.5 36q49 0 84.5 -36t35.5 -87q0 -49 -35.5 -85t-84.5 -36q-51 0 -86 36t-35 85zM682 1198q0 51 35 87t86 36q49 0 85 -36t36 -87q0 -49 -36 -85t-85 -36 q-51 0 -86 36t-35 85z" />
<glyph unicode="&#xfd;" horiz-adv-x="1138" d="M-12 864v41q0 33 47 33q41 0 115.5 -3t119.5 -3q39 0 130.5 3t121.5 3q47 0 47 -33v-41q0 -18 -47 -28l-6 -2l-9 -4q-3 -1 -10.5 -3t-11.5 -5t-9 -9t-8 -12t-5 -15.5t-2 -19.5q0 -37 26 -90l191 -391l176 401q20 47 20 80q0 51 -81 70q-47 4 -48 28v41q0 33 48 33 q25 0 84 -3t86 -3q33 0 83 3t78 3q47 0 47 -33v-41q0 -29 -47 -39q-55 -4 -100 -62t-98 -175l-236 -516l-69 -148l-64 -129q-41 -82 -70.5 -121t-68.5 -85t-79 -64.5t-83 -18.5t-72.5 28t-29.5 73q0 57 41 101t92 44q18 0 53 -5t53 -5q63 0 148 266l-295 572q-49 94 -74 135 t-60.5 74.5t-76.5 35.5q-47 10 -47 39zM399 1100q0 18 39 43l291 170q33 18 49 18q25 0 43 -12l82 -64q23 -18 23 -30q0 -25 -45 -39l-387 -119q-31 -10 -56 -10q-14 0 -26 16l-6 8q-7 7 -7 19z" />
<glyph unicode="&#xfe;" horiz-adv-x="1251" d="M37 1296v35q0 14 14.5 24.5t36.5 10.5q78 0 164 33q41 18 75.5 40.5t53 33t39.5 10.5l24 -6q12 -2 13 -78v-565q2 2 20.5 16t23.5 17t23.5 16.5t27.5 17.5t29.5 15.5t34 15.5t35 12t41 10t45 5.5t49.5 3.5q176 0 300 -131.5t124 -327.5q0 -213 -159.5 -374t-374.5 -161 q-115 0 -219 56v-193q0 -115 14 -154q31 -53 147 -65q47 -10 48 -39v-41q0 -33 -48 -33q-35 0 -132 3t-152 3q-39 0 -125 -3t-121 -3q-47 0 -47 33v41q0 29 47 39q76 12 98 65q14 31 15 154v1243q0 104 -23.5 148.5t-97.5 44.5q-27 0 -35 6t-8 22zM457 367q0 -285 258 -285 q115 0 187.5 87t72.5 214q0 164 -94.5 295t-214.5 131q-209 0 -209 -254v-188z" />
<glyph unicode="&#xff;" horiz-adv-x="1138" d="M-12 864v41q0 33 47 33q41 0 115.5 -3t119.5 -3q39 0 130.5 3t121.5 3q47 0 47 -33v-41q0 -18 -47 -28l-6 -2l-9 -4q-3 -1 -10.5 -3t-11.5 -5t-9 -9t-8 -12t-5 -15.5t-2 -19.5q0 -37 26 -90l191 -391l176 401q20 47 20 80q0 51 -81 70q-47 4 -48 28v41q0 33 48 33 q25 0 84 -3t86 -3q33 0 83 3t78 3q47 0 47 -33v-41q0 -29 -47 -39q-55 -4 -100 -62t-98 -175l-236 -516l-69 -148l-64 -129q-41 -82 -70.5 -121t-68.5 -85t-79 -64.5t-83 -18.5t-72.5 28t-29.5 73q0 57 41 101t92 44q18 0 53 -5t53 -5q63 0 148 266l-295 572q-49 94 -74 135 t-60.5 74.5t-76.5 35.5q-47 10 -47 39zM295 1198q0 51 35 87t86 36q49 0 85 -36t36 -87q0 -49 -36 -85t-85 -36q-51 0 -86 36t-35 85zM649 1198q0 51 35 87t86 36q49 0 85 -36t36 -87q0 -49 -36 -85t-85 -36q-51 0 -86 36t-35 85z" />
<glyph unicode="&#x152;" horiz-adv-x="2390" d="M78 694q0 324 232.5 538t568.5 214q23 0 70.5 -2t127.5 -6t133 -6q295 -16 414 -17h295q57 0 170 10q72 10 88 11q10 0 19.5 -8.5t9.5 -20.5q0 -4 -3 -47t-3 -64q0 -29 3 -83t3 -68q0 -76 -49 -76h-33q-18 0 -24.5 14.5t-19 53.5t-34.5 77q-43 59 -118 79t-199 20 q-143 0 -183.5 -20.5t-40.5 -108.5v-393h150q80 0 134 16t76.5 39.5t36 52.5t16.5 52.5t13.5 40t28.5 16.5h29q37 0 36 -62q0 -39 -5 -115.5t-5 -103.5q0 -31 5 -93.5t5 -92.5q0 -90 -47 -90h-30q-18 0 -26.5 16t-9.5 38.5t-15.5 56.5t-45.5 61q-51 45 -200 45h-146v-312 q0 -63 2 -103t18.5 -68.5t28 -42t53.5 -20.5t70.5 -8t102.5 -1h41q117 0 192.5 28.5t103 68.5t41 81t25.5 69.5t39 28.5h21q53 0 53 -74q0 -35 -29 -150.5t-29 -141.5q0 -18 -12 -34t-35 -16q-16 0 -98 15q-90 12 -174 12h-336q-154 0 -436 -14q-242 -16 -285 -17 q-326 0 -555 209t-229 516zM395 778q0 -297 142.5 -496.5t369.5 -199.5q88 0 147.5 18.5t89.5 43t45 75.5t17 85t2 106v596q0 96 -10 148t-45 98t-107.5 63.5t-195.5 17.5q-203 0 -329 -153.5t-126 -401.5z" />
<glyph unicode="&#x153;" horiz-adv-x="1820" d="M49 461q0 215 158 358.5t399 143.5q236 0 381 -150q143 150 344 150q215 0 324.5 -118t109.5 -296q0 -23 -14 -33t-29.5 -12t-48.5 -2h-514q-23 0 -34 -8.5t-13 -18.5t-2 -26q0 -127 86 -226.5t215 -99.5q72 0 140.5 38t111.5 75.5t55 37.5q10 0 23 -8l12 -10 q16 -16 16 -27q0 -61 -143 -160.5t-309 -99.5q-217 0 -346 144q-156 -143 -398 -144q-229 0 -376.5 139.5t-147.5 352.5zM305 504q0 -178 86 -305t217 -127q121 0 190.5 98t69.5 256q0 186 -92 310t-209 124q-123 0 -192.5 -99t-69.5 -257zM1110 637q0 -23 12.5 -28t67.5 -5 h237q55 0 68.5 9.5t13.5 54.5q0 72 -56 132t-134 60q-92 0 -150.5 -72.5t-58.5 -150.5z" />
<glyph unicode="&#x178;" horiz-adv-x="1478" d="M-14 1352v30q0 39 47 39q49 0 169 -3t179 -3q68 0 175.5 3t141.5 3q47 0 47 -39v-30q0 -14 -1 -20.5t-12 -13.5t-34 -9l-10 -2q-12 0 -15 -1t-14.5 -2t-16.5 -3.5t-14.5 -5.5t-14.5 -7t-12 -9t-10 -11t-6 -13.5t-3 -17.5q0 -33 26 -80l232 -414l235 400q31 61 31 86 q0 20 -8 33.5t-24.5 21.5t-28 12t-34 8.5t-24.5 4.5q-23 2 -34 9t-12 13t-1 21v30q0 39 47 39q33 0 111 -3t125 -3q39 0 114.5 3t108.5 3q47 0 47 -39v-30q0 -29 -47 -43q-68 -20 -111 -54q-63 -47 -116 -133l-248 -377q-49 -74 -64.5 -114.5t-15.5 -100.5v-120 q0 -225 27 -254q16 -18 37.5 -27.5t53 -14.5t38.5 -8q47 -14 47 -43v-30q0 -39 -47 -39q-43 0 -147.5 3t-158.5 3q-55 0 -161.5 -3t-141.5 -3q-47 0 -47 39v30q0 29 47 43q6 2 38 7.5t53.5 14.5t37.5 28q27 29 27 254v104q0 31 -2 51.5t-10.5 43t-12.5 30.5t-22.5 40 t-26.5 44l-250 418q-2 4 -16 29.5t-29.5 48t-27.5 32.5q-35 29 -66 38t-98 20q-47 14 -47 43zM485 1681q0 51 35 87t86 36q49 0 85 -35.5t36 -87.5q0 -49 -36 -84.5t-85 -35.5q-51 0 -86 35.5t-35 84.5zM840 1681q0 51 34.5 87t86.5 36q49 0 84.5 -35.5t35.5 -87.5 q0 -49 -35.5 -84.5t-84.5 -35.5q-51 0 -86 35.5t-35 84.5z" />
<glyph unicode="&#x2c6;" horiz-adv-x="747" d="M45 1110q0 8 5 14t16.5 13.5t13.5 9.5l203 143q70 45 94 45q31 0 80 -41l211 -157q31 -27 30 -37q0 -14 -14 -25l-14 -10q-10 -8 -39 -8q-31 0 -84 24l-176 90l-189 -92q-45 -23 -63 -22q-33 0 -45 14l-17 16q-12 13 -12 23z" />
<glyph unicode="&#x2dc;" horiz-adv-x="747" d="M133 1120q0 45 60.5 107.5t117.5 62.5q37 0 82 -10l92 -25q47 -14 82 -14q25 0 68 28.5t65 28.5q14 0 25.5 -11t11.5 -23q0 -45 -67.5 -108.5t-116.5 -63.5q-43 0 -96 14l-99 27q-37 8 -55 8q-29 0 -72 -29t-63 -29q-35 0 -35 37z" />
<glyph unicode="&#x3bc;" horiz-adv-x="1327" d="M35 848v35q0 14 14 24.5t37 10.5q82 0 196.5 22.5t127.5 22.5q14 0 22 -5l19 -10q16 -10 16 -24q0 -6 -8 -60.5t-8 -105.5v-410q0 -90 45 -157.5t159 -67.5q76 0 140.5 61.5t64.5 192.5v178q0 145 -22.5 204.5t-94.5 59.5q-27 0 -35 6t-8 23v35q0 14 14.5 24.5t37.5 10.5 q82 0 196.5 22.5t126.5 22.5q14 0 23 -5l18 -10q16 -10 17 -24q0 -6 -8.5 -60.5t-8.5 -105.5v-381q0 -131 22.5 -183.5t94.5 -52.5q27 0 35 -6t8 -22v-35q0 -14 -14.5 -24.5t-36.5 -10.5q-78 0 -150 -18q-37 -12 -70.5 -26.5l-52 -22t-39.5 -7.5h-24q-18 2 -19 84v66 q-170 -150 -331 -150q-94 0 -181 68q2 -80 17.5 -225.5t15.5 -184.5q0 -121 -106 -121q-98 0 -99 121q0 25 20.5 200t20.5 320q-33 119 -32 215v193q0 145 -22.5 204.5t-94.5 59.5q-27 0 -35 6.5t-8 22.5z" />
<glyph unicode="&#x2013;" d="M41 434q0 10 24.5 46t30.5 55q25 70 39 79q8 4 19 4q18 0 56 -3t58 -3h715q35 0 78 21.5t49 21.5q2 0 8 -3t13.5 -11t7.5 -18q0 -8 -10 -24l-22 -37l-20 -34q-2 -6 -14 -37.5t-16 -35.5q-12 -12 -35 -13q-27 0 -88.5 3.5t-89.5 3.5h-568q-59 0 -100 -6.5t-55 -14.5 l-26 -14q-11 -6 -19 -6q-2 0 -10.5 2t-16.5 9t-8 15z" />
<glyph unicode="&#x2014;" horiz-adv-x="1744" d="M39 434q0 10 24.5 46t30.5 55q25 70 39 79q8 4 19 4q18 0 56 -3t58 -3h1288q35 0 78 21.5t49 21.5q2 0 8.5 -3t13.5 -11t7 -18q0 -8 -9 -24l-23 -37q-13 -22 -19 -34q-2 -6 -14.5 -37.5t-16.5 -35.5q-12 -12 -35 -13q-33 0 -108.5 3.5t-110.5 3.5h-1100q-59 0 -100 -6.5 t-55 -14.5l-26 -14q-11 -6 -19 -6q-2 0 -10.5 2t-16.5 9t-8 15z" />
<glyph unicode="&#x2018;" horiz-adv-x="681" d="M221 1126q0 119 81 219.5t140 100.5q29 0 29 -29q0 -8 -11 -18t-37 -36t-50 -65q-23 -37 -33 -88q4 0 14.5 2t16.5 2q45 0 72.5 -34.5t27.5 -89.5q0 -59 -29.5 -99.5t-81.5 -40.5q-63 0 -101 52t-38 124z" />
<glyph unicode="&#x2019;" horiz-adv-x="681" d="M238 979q0 8 11 18.5l36.5 36t50.5 64.5q23 37 33 88q-4 0 -14.5 -2t-16.5 -2q-45 0 -72.5 34.5t-27.5 90.5q0 59 29.5 99t80.5 40q63 0 101 -52.5t38 -123.5q0 -119 -80.5 -219.5t-140.5 -100.5q-28 0 -28 29z" />
<glyph unicode="&#x201a;" horiz-adv-x="681" d="M238 143q0 59 29.5 99.5t80.5 40.5q63 0 101 -52.5t38 -124.5q0 -119 -80.5 -219t-140.5 -100q-29 0 -28 29q0 8 11 18t36.5 36t50.5 64q23 37 33 89q-4 0 -14.5 -2.5t-16.5 -2.5q-45 0 -72.5 35t-27.5 90z" />
<glyph unicode="&#x201c;" horiz-adv-x="1024" d="M223 1126q0 119 81 219.5t140 100.5q29 0 29 -29q0 -8 -11 -18t-37 -36t-50 -65q-23 -37 -33 -88q6 0 16.5 2t14.5 2q45 0 72.5 -34.5t27.5 -89.5q0 -59 -29.5 -99.5t-81.5 -40.5q-63 0 -101 52t-38 124zM559 1126q0 119 81 219.5t140 100.5q29 0 29 -29q0 -8 -11.5 -18 t-37 -36t-49.5 -65q-23 -37 -33 -88q6 0 16.5 2t14.5 2q45 0 72.5 -34.5t27.5 -89.5q0 -59 -29.5 -99.5t-81.5 -40.5q-63 0 -101 52t-38 124z" />
<glyph unicode="&#x201d;" horiz-adv-x="1024" d="M240 979q0 8 11 18.5l36.5 36t50.5 64.5q23 37 33 88q-6 0 -16.5 -2t-14.5 -2q-45 0 -72.5 34.5t-27.5 90.5q0 59 29.5 99t80.5 40q63 0 101 -52.5t38 -123.5q0 -119 -80.5 -219.5t-140.5 -100.5q-28 0 -28 29zM575 979q0 8 11.5 18.5t37 36t50.5 64.5q23 37 33 88 q-6 0 -16.5 -2t-14.5 -2q-45 0 -73 34.5t-28 90.5q0 59 30 99t81 40q63 0 101 -52.5t38 -123.5q0 -119 -80.5 -219.5t-140.5 -100.5q-29 0 -29 29z" />
<glyph unicode="&#x201e;" horiz-adv-x="1024" d="M240 143q0 59 29.5 99.5t80.5 40.5q63 0 101 -52.5t38 -124.5q0 -119 -80.5 -219t-140.5 -100q-29 0 -28 29q0 8 11 18t36.5 36t50.5 64q23 37 33 89q-6 0 -16.5 -2.5t-14.5 -2.5q-45 0 -72.5 35t-27.5 90zM575 143q0 59 30 99.5t81 40.5q63 0 101 -52.5t38 -124.5 q0 -119 -80.5 -219t-140.5 -100q-29 0 -29 29q0 8 11.5 18t37 36t50.5 64q23 37 33 89q-6 0 -16.5 -2.5t-14.5 -2.5q-45 0 -73 35t-28 90z" />
<glyph unicode="&#x2022;" horiz-adv-x="1024" d="M141 707q0 154 108.5 263t262.5 109q152 0 261.5 -109.5t109.5 -262.5q0 -152 -109.5 -260.5t-261.5 -108.5q-154 0 -262.5 108.5t-108.5 260.5z" />
<glyph unicode="&#x2026;" horiz-adv-x="1744" d="M160 131q0 59 36.5 105.5t92.5 46.5q57 0 95 -48.5t38 -110t-37 -108.5t-94.5 -47t-94 49.5t-36.5 112.5zM739 131q0 59 37 105.5t92 46.5q57 0 95 -48.5t38 -110t-37.5 -108.5t-93.5 -47q-57 0 -94 49.5t-37 112.5zM1319 131q0 59 37 105.5t92 46.5q57 0 95 -48.5 t38 -110t-37 -108.5t-94 -47t-94 49.5t-37 112.5z" />
<glyph unicode="&#x2039;" horiz-adv-x="378" d="M63 526l199 342h57l-106 -342l102 -344h-55z" />
<glyph unicode="&#x203a;" horiz-adv-x="378" d="M63 868h58l198 -342l-196 -344h-55l102 344z" />
<glyph unicode="&#x2122;" horiz-adv-x="1251" d="M23 1206l10 209h479l10 -209h-37q-4 10 -13 36t-12 33t-11.5 24.5t-13.5 23.5t-16 17.5t-23.5 16.5t-30 10t-39.5 9v-391q0 -33 3 -51.5t19.5 -27.5t27.5 -11t48 -6v-35h-313v35q37 4 48 5t30.5 10t24.5 28.5t5 52.5v391q-25 -4 -43 -9t-33.5 -16.5t-23.5 -16.5 t-18.5 -25.5t-12.5 -25.5t-13.5 -37t-15.5 -40h-36zM549 854v35q33 6 45 9t26.5 12.5t18.5 26.5t4 48v320q0 51 -10 59t-60 12v39h205l113 -371h4l129 371h221v-39q-63 -8 -74 -22q-12 -16 -12 -62v-307q0 -61 13.5 -75.5t62.5 -20.5v-35h-254v35q31 6 42 11t20.5 24.5 t9.5 60.5v377h-4l-172 -508h-33l-150 489h-4v-358q0 -41 7.5 -60.5t16.5 -24.5t36 -11v-35h-201z" />
<glyph unicode="&#xe000;" horiz-adv-x="940" d="M0 940h940v-940h-940v940z" />
<glyph unicode="&#xfb01;" horiz-adv-x="1384" d="M39 33v30q0 29 47 43l26.5 6.5l30 7.5t24.5 12t21 24q14 18 15 163v510h-121q-25 0 -34 8.5t-9 34.5v23q0 37 47 37h117q0 76 38 169t103.5 179t172 144.5t228.5 58.5q152 0 258.5 -45t106.5 -135q0 -35 -26.5 -62t-67.5 -27q-80 0 -115 111q-23 76 -164 76 q-135 0 -214 -76t-79 -164q0 -23 7.5 -80t7.5 -84v-65h504q66 0 114 16q10 2 23.5 6l21.5 6.5t15 2.5q14 0 22 -5l19 -10q16 -10 16 -24q0 -6 -8 -60.5t-8 -105.5v-432q0 -115 14 -154q23 -53 106 -66q47 -10 48 -38v-41q0 -33 -48 -33q-29 0 -112.5 3t-130.5 3 q-39 0 -125 -3t-121 -3q-47 0 -47 33v41q0 29 47 38q74 12 98 66q14 31 15 154v229q0 152 -31 213t-127 61h-305v-510q0 -111 33 -157q12 -16 30.5 -26.5t28.5 -14.5t39 -10l26 -5q47 -10 48 -43v-30q0 -39 -48 -39q-35 0 -131 3t-149 3q-45 0 -135 -3t-115 -3q-47 0 -47 39 z" />
<glyph unicode="&#xfb02;" horiz-adv-x="1384" d="M37 33v30q0 29 47 43l26.5 6.5l30 7.5t24.5 12t21 24q14 18 15 163v510h-121q-25 0 -34 8.5t-9 34.5v23q0 37 47 37h117q0 78 37.5 170t104.5 178t176.5 144.5t234.5 58.5q92 0 147 -16.5t115 -61.5q35 14 73.5 46t53 32t22.5 -4l19 -11q16 -10 16 -24q0 -6 -8 -60.5 t-8 -105.5v-952q0 -115 14 -154q18 -53 80 -66q70 -14 70 -38v-41q0 -33 -70 -33q-29 0 -115 3t-133 3q-35 0 -107.5 -3t-107.5 -3q-47 0 -47 33v41q0 29 47 38q76 12 98 66q14 31 15 154v503h-471v-510q0 -111 32 -157q12 -16 31 -26.5t29 -14.5t37 -10l28 -5 q47 -10 48 -43v-30q0 -39 -48 -39q-33 0 -131 3t-149 3q-43 0 -133 -3t-117 -3q-47 0 -47 39zM442 1161q0 -23 7.5 -80t7.5 -84v-65h471v242q-31 10 -50.5 40.5t-19.5 61.5q0 45 16 82q-43 43 -129 43q-141 0 -222 -76t-81 -164z" />
<glyph unicode="&#xfb03;" horiz-adv-x="2086" d="M1485 27v41q0 29 47 38q76 12 98 66q14 31 15 154v229q0 104 -22.5 148.5t-94.5 44.5q-27 0 -35 6t-8 22v35q0 14 14.5 24.5t36.5 10.5q74 0 150 33q43 18 78.5 40.5t55 33t40.5 10.5q14 0 22 -5l19 -10q16 -10 16 -24q0 -6 -8 -60.5t-8 -105.5v-432q0 -115 14 -154 q23 -53 107 -66q47 -10 47 -38v-41q0 -33 -47 -33q-29 0 -113 3t-131 3q-39 0 -125 -3t-121 -3q-47 0 -47 33zM1600 1221q0 59 61.5 113.5t130.5 54.5q109 0 109 -93q0 -63 -59.5 -116.5t-135.5 -53.5q-106 1 -106 95zM774 33v30q0 29 47 43l26.5 6.5l30 7.5t25 12t21.5 24 q14 18 14 163v510h-121q-25 0 -34 8.5t-9 34.5v23q0 37 47 37h117q0 106 43 230t133 222.5t201 98.5q49 0 84 -29t35 -80t-43 -94t-99 -43q-51 0 -85.5 20.5t-41.5 20.5q-16 0 -16 -35q0 -14 22.5 -114.5t22.5 -131.5v-65h209q33 0 33 -37v-23q0 -20 -6.5 -30.5t-12.5 -11.5 t-20 -1h-203v-510q0 -111 33 -157q12 -16 30.5 -26.5t28.5 -14.5t37 -10l29 -5q47 -10 47 -43v-30q0 -39 -47 -39q-33 0 -131.5 3t-149.5 3q-43 0 -133 -3t-117 -3q-47 0 -47 39zM53 33v30q0 29 47 43l26.5 6.5l30 7.5t25 12t21.5 24q14 18 14 163v510h-121q-25 0 -34 8.5 t-9 34.5v23q0 37 47 37h117q0 106 43 230t133 222.5t201 98.5q49 0 84 -29t35 -80t-43 -94t-99 -43q-51 0 -85.5 20.5t-41.5 20.5q-16 0 -16 -35q0 -14 22.5 -114.5t22.5 -131.5v-65h209q33 0 33 -37v-23q0 -20 -6.5 -30.5t-12.5 -11.5t-20 -1h-203v-510q0 -111 33 -157 q12 -16 30.5 -26.5t28.5 -14.5t37 -10l29 -5q47 -10 47 -43v-30q0 -39 -47 -39q-33 0 -131.5 3t-149.5 3q-43 0 -133 -3t-117 -3q-47 0 -47 39z" />
<glyph unicode="&#xfb04;" horiz-adv-x="2086" d="M1473 27v41q0 29 47 38q76 12 98 66q14 31 14 154v647q0 174 -19 219t-97 55q-43 6 -43 45v19q0 14 14 24.5t37 10.5q117 0 160 20q53 23 98 70t66 47q14 0 22 -4l18 -11q16 -10 17 -24q0 -6 -8.5 -60.5t-8.5 -105.5v-952q0 -115 15 -154q18 -53 80 -66q70 -14 69 -38 v-41q0 -33 -69 -33q-29 0 -115 3t-133 3q-35 0 -107.5 -3t-107.5 -3q-47 0 -47 33zM774 33v30q0 29 47 43l26.5 6.5l30 7.5t25 12t21.5 24q14 18 14 163v510h-121q-25 0 -34 8.5t-9 34.5v23q0 37 47 37h117q0 106 43 230t133 222.5t201 98.5q49 0 84 -29t35 -80t-43 -94 t-99 -43q-51 0 -85.5 20.5t-41.5 20.5q-16 0 -16 -35q0 -14 22.5 -114.5t22.5 -131.5v-65h209q33 0 33 -37v-23q0 -20 -6.5 -30.5t-12.5 -11.5t-20 -1h-203v-510q0 -111 33 -157q12 -16 30.5 -26.5t28.5 -14.5t37 -10l29 -5q47 -10 47 -43v-30q0 -39 -47 -39q-33 0 -131.5 3 t-149.5 3q-43 0 -133 -3t-117 -3q-47 0 -47 39zM53 33v30q0 29 47 43l26.5 6.5l30 7.5t25 12t21.5 24q14 18 14 163v510h-121q-25 0 -34 8.5t-9 34.5v23q0 37 47 37h117q0 106 43 230t133 222.5t201 98.5q49 0 84 -29t35 -80t-43 -94t-99 -43q-51 0 -85.5 20.5t-41.5 20.5 q-16 0 -16 -35q0 -14 22.5 -114.5t22.5 -131.5v-65h209q33 0 33 -37v-23q0 -20 -6.5 -30.5t-12.5 -11.5t-20 -1h-203v-510q0 -111 33 -157q12 -16 30.5 -26.5t28.5 -14.5t37 -10l29 -5q47 -10 47 -43v-30q0 -39 -47 -39q-33 0 -131.5 3t-149.5 3q-43 0 -133 -3t-117 -3 q-47 0 -47 39z" />
</font>
</defs>
</svg>
