<?xml version="1.0" standalone="no"?>
<!DOCTYPE svg PUBLIC "-//W3C//DTD SVG 1.1//EN" "http://www.w3.org/Graphics/SVG/1.1/DTD/svg11.dtd" >
<svg xmlns="http://www.w3.org/2000/svg">
<metadata>
This is a custom SVG webfont generated by Font Squirrel.
Copyright   : c Copyright 19941995 as an unpublished work by Galapagos Design Group Inc  All rights reserved
</metadata>
<defs>
<font id="HumanaSansITCLightBoldItalic" horiz-adv-x="1024" >
<font-face units-per-em="2048" ascent="1638" descent="-410" />
<missing-glyph horiz-adv-x="452" />
<glyph unicode=" "  horiz-adv-x="452" />
<glyph unicode="&#x09;" horiz-adv-x="452" />
<glyph unicode="&#xa0;" horiz-adv-x="452" />
<glyph unicode="!" horiz-adv-x="661" d="M133 82q0 59 37 98t90 39q43 0 70.5 -28.5t27.5 -75.5q0 -55 -37.5 -95t-89.5 -40q-43 0 -70.5 28.5t-27.5 73.5zM176 344l53 987l357 25l-199 -996z" />
<glyph unicode="&#x22;" horiz-adv-x="712" d="M76 877v561h219v-561h-219zM416 877v561h223v-561h-223z" />
<glyph unicode="#" horiz-adv-x="1429" d="M41 408l14 96h305l107 321h-322l15 97h336l151 462l152 -18l-144 -444h256l150 462l153 -18l-145 -444h320l-13 -95h-336l-104 -323h348l-12 -94h-367l-155 -490l-156 19l154 471l-259 -2l-155 -488l-154 19l152 469h-291zM522 504h254l107 323l-258 -2z" />
<glyph unicode="$" horiz-adv-x="1019" d="M-20 61l92 183q106 -68 233 -80l51 418q-141 63 -205.5 143t-64.5 197q0 203 137 307t410 108l12 101h113l-13 -105q160 -6 295 -80l-104 -180q-92 78 -211 92l-53 -438q133 -61 198.5 -141t65.5 -185q0 -84 -43 -161.5t-129 -143.5q-150 -115 -367 -116l-16 -132h-115 l17 136q-162 14 -303 77zM420 168q162 49 162 186q0 59 -28 99.5t-91 72.5zM440 965q0 -115 123 -181l47 375q-170 -55 -170 -194z" />
<glyph unicode="%" horiz-adv-x="1685" d="M90 926q0 197 109.5 309.5t304.5 112.5q166 0 252 -75t86 -216q0 -199 -112 -312.5t-314 -113.5q-160 0 -243 76t-83 219zM246 -197l1052 1729h127l-1050 -1729h-129zM291 936q0 -92 39 -140t108 -48q41 0 78 21.5t64.5 60t43 93t15.5 119.5q0 90 -40 139.5t-110 49.5 q-41 0 -77.5 -21.5t-63 -61.5t-42 -94.5t-15.5 -117.5zM803 260q0 195 109.5 308.5t304.5 113.5q166 0 251.5 -75t85.5 -216q0 -199 -110.5 -312.5t-315.5 -113.5q-160 0 -242.5 76t-82.5 219zM1004 270q0 -92 38.5 -140t108.5 -48q41 0 77 21.5t63.5 60.5t44 93t16.5 120 q0 90 -40 139t-110 49q-41 0 -75.5 -21.5t-60.5 -55t-41 -73.5t-15 -79q0 -6 -3 -21.5t-3 -44.5z" />
<glyph unicode="&#x26;" horiz-adv-x="1660" d="M92 350q0 106 20.5 210t59.5 197t95.5 175t125.5 147q193 178 455 178q377 0 377 -256q0 -72 -24.5 -132t-71 -107t-113 -77t-148.5 -38l762 -620l-364 -78l-166 157q-113 -84 -249 -112.5t-306 -28.5q-453 0 -453 385zM383 393q0 -152 71.5 -235.5t200.5 -83.5 q78 0 156 43t133 125l-485 479q-37 -96 -56.5 -176t-19.5 -152zM563 874q0 -68 37 -103.5t105 -35.5q51 0 96 21.5t79.5 59.5t55 88t20.5 106q0 63 -33.5 99t-93.5 36q-53 0 -101 -22.5t-85 -59.5t-58.5 -86.5t-21.5 -102.5z" />
<glyph unicode="'" horiz-adv-x="370" d="M76 877v561h219v-561h-219z" />
<glyph unicode="(" horiz-adv-x="645" d="M133 80q0 111 10.5 210t22.5 197l32 241q15 112 35 206q31 141 73 249.5t101.5 188.5t138.5 132t181 79l-10 -90q-59 -37 -100.5 -96.5t-72 -140t-54 -185t-44.5 -231.5q-59 -356 -75.5 -579.5t-16.5 -299.5q0 -147 30 -242.5t97 -144.5l-12 -88q-174 35 -255 180.5 t-81 413.5z" />
<glyph unicode=")" horiz-adv-x="645" d="M-82 -514l10 88q55 35 96.5 91t72 133t53 175.5t43.5 219.5q59 365 77.5 600t18.5 311q0 147 -30 243.5t-95 145.5l12 90q176 -41 256 -185.5t80 -404.5q0 -104 -12.5 -229t-30.5 -277q-14 -117 -25.5 -188.5t-17.5 -95.5q-33 -156 -74 -277t-99 -209t-139 -145t-196 -86 z" />
<glyph unicode="*" horiz-adv-x="651" d="M51 1010l29 116l211 -6l-98 187l122 34l68 -174l104 174l115 -34l-141 -187l221 8l-29 -118l-207 8l99 -184l-125 -33l-60 168l-108 -170l-117 35l139 182z" />
<glyph unicode="+" horiz-adv-x="1705" d="M254 496v231h481v494h238v-494h479v-231h-479v-496h-238v496h-481z" />
<glyph unicode="," horiz-adv-x="444" d="M-68 -344q123 199 158 416l25 155h172l-21 -123q-23 -139 -85 -256.5t-171 -228.5z" />
<glyph unicode="-" horiz-adv-x="690" d="M51 389l29 223h487l-28 -223h-488z" />
<glyph unicode="." horiz-adv-x="444" d="M57 82q0 59 37 98t90 39q43 0 70 -29.5t27 -78.5q0 -53 -38 -92t-89 -39q-41 0 -69 27.5t-28 74.5z" />
<glyph unicode="/" horiz-adv-x="1005" d="M-205 -492l1219 2053h114l-1218 -2053h-115z" />
<glyph unicode="0" horiz-adv-x="1357" d="M117 492q0 201 44 359.5t127 268t201.5 166.5t268.5 57q471 0 471 -530q0 -201 -44 -359.5t-126 -267t-201 -166t-268 -57.5q-473 1 -473 529zM414 477q0 -172 51 -259t145 -87q66 0 124.5 47t103.5 135t70.5 212t25.5 276q0 375 -197 375q-66 0 -125 -49.5t-103 -140.5 t-69.5 -220t-25.5 -289z" />
<glyph unicode="1" horiz-adv-x="925" d="M-2 0l14 125h271l125 1005l-17 13l-264 -109l-53 166l682 150l-176 -1225h223l-15 -125h-790z" />
<glyph unicode="2" horiz-adv-x="1103" d="M-23 100q172 119 301.5 238t214.5 234.5t127 223t42 203.5q0 102 -60.5 145.5t-193.5 43.5q-150 0 -316 -105l8 187q66 29 181.5 49t273.5 20q217 0 322.5 -68.5t105.5 -215.5q0 -199 -140.5 -419t-424.5 -427l-2 -19l616 -18l-51 -172h-995z" />
<glyph unicode="3" horiz-adv-x="1058" d="M-37 129q37 -6 77 -8t85 -2q121 0 216 25.5t160.5 68.5t100.5 98.5t35 114.5q0 184 -326 184q-70 0 -129 -14l-8 100q252 53 378 143.5t126 188.5q0 72 -60.5 115t-175.5 43q-145 0 -301 -68l-30 148q109 35 213 53t208 18q221 0 329 -62.5t108 -195.5q0 -139 -94.5 -230 t-290.5 -153l-2 -12q170 -4 257 -66.5t87 -173.5q0 -96 -54.5 -182t-159 -149.5t-259 -100.5t-353.5 -37q-29 0 -57.5 1t-58.5 4z" />
<glyph unicode="4" horiz-adv-x="1294" d="M14 369l731 987l326 -41l-119 -873l238 -18l-39 -141l-215 -2l-37 -308l-311 -28l41 344l-576 14zM260 506l8 -17l379 -18l90 629l-16 8z" />
<glyph unicode="5" horiz-adv-x="1116" d="M43 145q33 -4 64.5 -7t66.5 -3q119 0 210 22.5t154.5 62.5t96.5 94.5t33 117.5q0 125 -112 173t-343 48h-35q-27 0 -72 -2l148 656l833 -2l-79 -185l-498 25l-72 -336q276 -2 407.5 -71.5t131.5 -229.5q0 -119 -47 -216t-137.5 -167t-223.5 -107.5t-305 -37.5 q-61 0 -198 12z" />
<glyph unicode="6" horiz-adv-x="1122" d="M63 319q0 129 53.5 277.5t164.5 298.5q145 199 304.5 313.5t307.5 139.5l221 -86q-197 -45 -352.5 -171t-269.5 -348l12 -8q94 31 172 31q147 0 229 -81t82 -228q0 -109 -37 -200t-104.5 -157.5t-163.5 -103.5t-215 -37q-197 0 -300.5 93t-103.5 267zM360 322 q0 -102 43 -155.5t121 -53.5q39 0 76 22.5t63.5 64.5t43 101t16.5 135q0 94 -40 142.5t-114 48.5q-115 0 -162 -69.5t-47 -235.5z" />
<glyph unicode="7" horiz-adv-x="1036" d="M39 35l666 1065l-9 28l-630 9l-21 168l1018 2l35 -62l-756 -1272z" />
<glyph unicode="8" horiz-adv-x="1060" d="M23 236q0 129 75.5 233t223.5 178q-94 61 -139.5 134t-45.5 167q0 86 33 157t94.5 123t148.5 80.5t195 28.5q180 0 273.5 -69.5t93.5 -196.5q0 -125 -62.5 -220t-191.5 -183q111 -78 166 -155t55 -183q0 -80 -35 -146.5t-102.5 -116t-164.5 -76t-220 -26.5 q-197 0 -297 71t-100 200zM279 287q0 -84 40.5 -129t116.5 -45q39 0 74 14t61.5 38.5t41 56.5t14.5 69q0 156 -195 270q-76 -59 -114.5 -135t-38.5 -139zM430 999q0 -133 160 -243q72 45 112.5 121.5t40.5 169.5q0 150 -129 149q-37 0 -70.5 -15.5t-58 -42t-40 -62.5 t-15.5 -77z" />
<glyph unicode="9" horiz-adv-x="1103" d="M102 864q0 104 38 191.5t106.5 151t165 98t213.5 34.5q197 0 298 -81.5t101 -239.5q0 -139 -41 -279.5t-122 -276.5t-200.5 -263t-277.5 -238l-248 74q289 182 463 516l-10 10q-70 -29 -160 -29q-154 0 -240 88t-86 244zM365 891q0 -104 42 -160.5t117 -56.5q59 0 123 35 q37 49 59.5 127.5t22.5 177.5q0 174 -137 174q-47 0 -88 -21.5t-72 -60.5t-49 -93t-18 -122z" />
<glyph unicode=":" horiz-adv-x="444" d="M53 82q0 59 37 98t90 39q43 0 69.5 -29.5t26.5 -78.5q0 -53 -37.5 -92t-88.5 -39q-41 0 -69 28.5t-28 73.5zM131 707q0 59 37 98t90 39q43 0 69.5 -30t26.5 -79q0 -53 -37.5 -92t-89.5 -39q-41 0 -68.5 29t-27.5 74z" />
<glyph unicode=";" horiz-adv-x="446" d="M-68 -344q123 199 158 416l25 155h172l-21 -123q-23 -139 -85 -256.5t-171 -228.5zM131 707q0 59 37 98t90 39q43 0 69.5 -30t26.5 -79q0 -53 -37.5 -92t-89.5 -39q-41 0 -68.5 29t-27.5 74z" />
<glyph unicode="&#x37e;" horiz-adv-x="446" d="M-68 -344q123 199 158 416l25 155h172l-21 -123q-23 -139 -85 -256.5t-171 -228.5zM131 707q0 59 37 98t90 39q43 0 69.5 -30t26.5 -79q0 -53 -37.5 -92t-89.5 -39q-41 0 -68.5 29t-27.5 74z" />
<glyph unicode="&#x3c;" horiz-adv-x="1705" d="M264 494v233l1178 487v-253l-854 -351l854 -348v-254z" />
<glyph unicode="=" horiz-adv-x="1705" d="M254 272v230h1198v-230h-1198zM254 719v231h1198v-231h-1198z" />
<glyph unicode="&#x3e;" horiz-adv-x="1705" d="M264 8v254l854 348l-854 351v253l1178 -487v-233z" />
<glyph unicode="?" horiz-adv-x="802" d="M164 571q0 68 44 138.5t122 162.5q68 82 108.5 141.5t40.5 112.5q0 70 -90 70q-63 0 -160 -53l-36 123q178 72 325 71q127 0 196.5 -50t69.5 -132q0 -35 -13 -67.5t-35.5 -66.5t-53.5 -70l-66 -77q-78 -92 -119.5 -162.5t-41.5 -142.5q0 -104 100 -123l-217 -73 q-174 46 -174 198zM215 82q0 59 38 98t89 39q43 0 69.5 -29.5t26.5 -78.5q0 -53 -38 -92t-89 -39q-41 0 -68.5 27.5t-27.5 74.5z" />
<glyph unicode="@" horiz-adv-x="1462" d="M147 528q0 199 79 364t223 271q94 70 206.5 106t243.5 36q111 0 200 -34t151.5 -96.5t95 -151.5t32.5 -202q0 -123 -34.5 -226t-95 -179t-140.5 -119t-170 -43q-92 0 -142.5 55.5t-50.5 159.5q0 29 2.5 53.5t8.5 48.5h-13q-43 -109 -104 -163t-129 -54q-92 0 -92 127 q0 78 25.5 171t74.5 171q96 156 240 156q55 0 113.5 -23.5t129.5 -35.5q-37 -174 -68.5 -288t-31.5 -177q0 -111 88 -111q55 0 106.5 34t91.5 96.5t64.5 152.5t24.5 202q0 186 -99.5 290t-279.5 104q-152 0 -274.5 -50.5t-210.5 -140.5t-135.5 -218t-47.5 -284 q0 -113 33 -203.5t92.5 -154t145.5 -98.5t194 -35q262 0 428 178l43 -45q-78 -104 -206 -158.5t-295 -54.5q-121 0 -216.5 40t-162 113.5t-102.5 179t-36 236.5zM586 571q0 -63 41 -63q29 0 84 84t98 254q-23 35 -53 35q-25 0 -53.5 -25t-55 -65.5t-44 -98.5t-17.5 -121z " />
<glyph unicode="A" horiz-adv-x="1249" d="M-92 18l639 1303h327l324 -1305l-362 -45l-103 484h-393l-223 -478zM408 616l12 -18l285 -12l-103 467z" />
<glyph unicode="B" horiz-adv-x="1296" d="M82 0l154 1317h591q111 0 190 -12.5t129 -43t74.5 -81t24.5 -123.5q0 -147 -84 -242.5t-243 -126.5l-3 -8q274 -49 275 -262q0 -197 -146.5 -307.5t-433.5 -110.5h-528zM438 143h41q197 0 286 61.5t89 213.5q0 104 -83 148t-257 44h-10zM514 750l14 -15h70 q133 0 206 69.5t73 196.5q0 172 -224 173h-80z" />
<glyph unicode="C" horiz-adv-x="1288" d="M61 381q0 186 67 370.5t185 329.5q213 256 498 256q223 0 319.5 -129t96.5 -413l-318 -86q10 72 15.5 132t5.5 107q0 231 -111 232q-78 0 -182 -138q-98 -129 -151.5 -282.5t-53.5 -300.5q0 -156 70.5 -222.5t230.5 -66.5q207 0 393 113l41 -185q-135 -78 -282.5 -105.5 t-319.5 -27.5q-260 0 -382 99.5t-122 316.5z" />
<glyph unicode="D" horiz-adv-x="1468" d="M82 0l149 1311h564q287 0 434 -132t147 -386q0 -182 -55 -330t-160.5 -250t-256 -157.5t-341.5 -55.5h-481zM438 156l15 -15h79q115 0 208.5 46t159 134.5t101 216.5t35.5 291q0 174 -95 256t-294 82h-82z" />
<glyph unicode="E" horiz-adv-x="1087" d="M82 -16l151 1298l37 25h817l-47 -166l-469 -17l-51 -348l10 -16l435 12l-43 -194l-414 6l-19 -21l-45 -379l15 -14l516 29l-49 -183z" />
<glyph unicode="F" horiz-adv-x="1062" d="M82 -16l151 1298l37 25h813l-47 -164l-469 -17l-53 -372l8 -21l436 25l-40 -189l-416 -6l-19 -20l-75 -559h-326z" />
<glyph unicode="G" horiz-adv-x="1302" d="M61 414q0 180 55.5 345t153.5 292q111 141 249 213.5t296 72.5q211 0 308.5 -125t97.5 -387l-314 -84q8 68 12.5 121t4.5 94q0 223 -123 224q-43 0 -107.5 -49.5t-128.5 -149.5q-72 -117 -109.5 -249t-37.5 -271q0 -291 309 -291q131 0 186 43l33 260h-221l39 168h430 l-70 -557q-129 -72 -260 -96.5t-280 -24.5q-523 0 -523 451z" />
<glyph unicode="H" horiz-adv-x="1482" d="M82 0l147 1305l357 12l-74 -526l12 -21l465 -12l60 542l352 3l-176 -1303h-326l74 594l-15 29l-473 -13l-82 -610h-321z" />
<glyph unicode="I" horiz-adv-x="669" d="M82 0l156 1305l350 12l-176 -1317h-330z" />
<glyph unicode="J" horiz-adv-x="669" d="M-106 -162q66 35 108.5 87t60.5 114q37 119 76 438.5t80 841.5l348 -33q-37 -362 -70.5 -637.5t-74.5 -463t-96.5 -288t-137.5 -114.5z" />
<glyph unicode="K" horiz-adv-x="1241" d="M82 0l160 1305l352 12l-90 -668l452 666l361 -41l-473 -615l358 -630l-393 -47l-297 616h-14l-80 -598h-336z" />
<glyph unicode="L" horiz-adv-x="921" d="M82 -20l151 1325l355 12l-148 -1133l15 -14l436 29l-49 -187z" />
<glyph unicode="M" horiz-adv-x="1712" d="M61 0l228 1311l360 20l193 -870l389 852h358l-39 -1305l-333 -14l30 952h-14l-406 -868h-194l-201 854h-14l-129 -932h-228z" />
<glyph unicode="N" horiz-adv-x="1505" d="M82 0l180 1315l307 20l504 -987l12 6l105 946l213 21l-170 -1298l-338 -39l-477 931l-15 -8l-106 -907h-215z" />
<glyph unicode="O" horiz-adv-x="1527" d="M92 578q0 168 54.5 307t152.5 239.5t237.5 156.5t311.5 56q293 0 440.5 -140t147.5 -415q0 -186 -54.5 -336.5t-155 -257t-239.5 -165t-309 -58.5q-285 0 -435.5 157t-150.5 456zM453 504q0 -193 58 -285t187 -92q80 0 148.5 46t119 133t80 211t29.5 280q0 383 -248 383 q-76 0 -144.5 -46.5t-119.5 -132.5t-80.5 -211.5t-29.5 -285.5z" />
<glyph unicode="P" horiz-adv-x="1226" d="M82 0l154 1317h466q268 0 396.5 -66.5t128.5 -216.5q0 -236 -175 -363.5t-513 -127.5h-50l-69 -543h-338zM506 690l14 -14h27q76 0 138.5 24.5t107.5 68.5t69.5 103.5t24.5 128.5q0 98 -60.5 135.5t-201.5 37.5h-52z" />
<glyph unicode="Q" horiz-adv-x="1527" d="M92 561q0 176 54.5 319.5t153.5 245t240.5 156.5t313.5 55q287 0 436.5 -138t149.5 -400q0 -305 -126 -502t-392 -303l-4 -21l483 -18l-68 -240l-807 217q-434 117 -434 629zM457 504q0 -193 59 -285t189 -92q78 0 146.5 46t118.5 133t79.5 212t29.5 281 q0 188 -63.5 284.5t-181.5 96.5q-80 0 -149 -45t-119 -132.5t-79.5 -213t-29.5 -285.5z" />
<glyph unicode="R" horiz-adv-x="1300" d="M82 0l154 1317h612q205 0 303 -57.5t98 -184.5q0 -309 -364 -418l-2 -12q252 -63 327 -616l-372 -45q-33 252 -115 404.5t-211 205.5l-16 -14l-76 -580h-338zM512 733l16 -14h33q74 0 134.5 22.5t101.5 61.5t63.5 92t22.5 115q0 88 -63.5 126t-198.5 38h-48z" />
<glyph unicode="S" horiz-adv-x="1040" d="M-10 61l92 183q72 -39 134.5 -60.5t135.5 -21.5q113 0 177.5 55t64.5 141q0 39 -13.5 69t-40 53.5t-66.5 45t-91 45.5q-74 35 -128 69t-90 75t-54.5 92t-18.5 119q0 92 36 168.5t104.5 130t168 83t226.5 29.5q131 0 234.5 -17t189.5 -67l-105 -180q-119 94 -246 94 q-117 0 -184 -58t-67 -153q0 -43 17 -74.5t50 -58t79 -51.5l103 -53q63 -33 109.5 -65.5t77 -69.5t46 -82t15.5 -103q0 -80 -39 -154.5t-111.5 -134t-177 -95t-233.5 -35.5q-207 -1 -395 81z" />
<glyph unicode="T" horiz-adv-x="1011" d="M0 1307h1145l-47 -164l-375 -17l-141 -1126h-338l135 1126l-371 -10z" />
<glyph unicode="U" horiz-adv-x="1368" d="M92 412q0 35 2 58.5t4 33.5l92 801l353 12l-101 -733q-4 -23 -7 -57.5t-3 -86.5q0 -154 59.5 -232.5t170.5 -78.5q256 0 313 471l86 703h235l-108 -795q-74 -545 -615 -545q-236 0 -358.5 116t-122.5 333z" />
<glyph unicode="V" horiz-adv-x="1167" d="M51 1260l373 61l192 -848h15l387 830l211 -3l-670 -1320h-156z" />
<glyph unicode="W" horiz-adv-x="1718" d="M51 1274l365 47l127 -815h10l283 698h278l103 -698h18l330 799h215l-590 -1325h-201l-121 843h-8l-340 -843h-201z" />
<glyph unicode="X" horiz-adv-x="1122" d="M-82 -2l481 604l2 12l-338 656l386 53l213 -455l299 430h233l-432 -598v-12l348 -659l-393 -58l-213 459l-340 -432h-246z" />
<glyph unicode="Y" d="M0 1276l387 49l201 -610l332 592h217l-488 -863l-57 -444h-322l56 471z" />
<glyph unicode="Z" horiz-adv-x="1017" d="M-31 72l666 1038l-10 18l-521 -45l-8 203l963 31l20 -74l-671 -1053l14 -16l579 23l-65 -201l-942 -6z" />
<glyph unicode="[" horiz-adv-x="645" d="M51 -530l258 2101l455 -27l-12 -104l-228 14l-227 -1868l229 15l-12 -105z" />
<glyph unicode="\" horiz-adv-x="1005" d="M307 1561h105l331 -2053h-100z" />
<glyph unicode="]" horiz-adv-x="645" d="M-164 -504l12 105l228 -15l227 1868l-229 -14l12 104l463 27l-258 -2101z" />
<glyph unicode="^" horiz-adv-x="2048" d="M414 899l465 563h288l465 -563h-264l-344 342l-346 -342h-264z" />
<glyph unicode="_" d="M0 -272h1024v-224h-1024v224z" />
<glyph unicode="`" d="M313 1317q0 29 17.5 47t46.5 18q57 0 123 -67l202 -213l-22 -33l-215 109q-76 37 -114 69.5t-38 69.5z" />
<glyph unicode="a" horiz-adv-x="1099" d="M72 276q0 162 39 296.5t108.5 230.5t161.5 150.5t201 54.5q53 0 105 -12.5t107.5 -28t113 -29.5t120.5 -20q-16 -92 -27.5 -193.5t-21.5 -212.5l-18 -190q-12 -133 -13 -246v-51q0 -25 2 -50l-303 -28q2 180 19 387h-17q-47 -174 -150.5 -267.5t-232.5 -93.5 q-194 0 -194 303zM365 406q0 -90 18 -132.5t61 -42.5q27 0 64 36t73.5 106.5t69.5 175t51 242.5q-23 29 -47 42t-57 13q-39 0 -81 -33t-75.5 -91t-55 -139t-21.5 -177z" />
<glyph unicode="b" horiz-adv-x="1114" d="M123 477q0 53 3 110.5t11 121.5l90 778l328 33q-31 -238 -66.5 -470.5t-76.5 -461.5h10q74 213 175 315.5t249 102.5q197 0 196 -265q0 -233 -100 -430q-86 -168 -209 -257t-252 -89q-358 0 -358 512zM418 264q0 -174 98 -174q35 0 70 38t63 112q39 96 57.5 191t18.5 173 q0 123 -74 123q-51 0 -112 -98q-61 -100 -91 -198.5t-30 -166.5z" />
<glyph unicode="c" horiz-adv-x="983" d="M66 336q0 170 67.5 314.5t190.5 242.5q72 57 151.5 86t163.5 29q287 0 287 -344v-29q0 -18 -2 -47l-230 -56l7.5 102.5t3.5 88.5q0 152 -84 151q-72 0 -136 -122q-53 -98 -78.5 -192.5t-25.5 -176.5q0 -117 53 -178.5t150 -61.5q123 0 274 76l35 -149q-96 -53 -200.5 -79 t-225.5 -26q-199 0 -300 95.5t-101 275.5z" />
<glyph unicode="d" horiz-adv-x="1140" d="M72 264q0 170 39 307.5t105.5 233.5t155.5 148.5t189 52.5q53 0 99.5 -13.5t91.5 -42.5l32 537l326 33q-76 -584 -114 -960t-38 -542v-41q0 -18 3 -34l-314 -21l10 311q-145 -270 -346 -270q-125 0 -182 73.5t-57 227.5zM379 377q0 -166 96 -166q57 0 114.5 84t106.5 252 l19 151q-27 178 -109 179q-39 0 -80 -36t-73.5 -101.5t-53 -157.5t-20.5 -205z" />
<glyph unicode="e" horiz-adv-x="1015" d="M51 346q0 76 18.5 152.5t53.5 147.5t83 131.5t107 105.5q166 125 389 125q252 0 252 -220q0 -66 -32.5 -124t-91 -101t-139.5 -68.5t-179 -25.5q-35 0 -63.5 4t-53.5 14q-8 -33 -12 -60.5t-4 -51.5q0 -123 55 -178.5t182 -55.5q129 0 283 80l45 -153q-100 -53 -208.5 -78 t-235.5 -25q-217 0 -333 98.5t-116 282.5zM428 610l6 -16q72 6 128 28.5t96 54.5t61.5 67.5t21.5 68.5q0 61 -67 61q-68 0 -135.5 -67.5t-110.5 -196.5z" />
<glyph unicode="f" horiz-adv-x="833" d="M0 723l31 131h186q90 688 621 688q88 0 155.5 -21.5t126.5 -74.5l-106 -150q-29 43 -72 61.5t-102 18.5q-123 0 -203 -130t-113 -392h381l-28 -131h-367l-107 -858h-307l109 858h-205z" />
<glyph unicode="g" horiz-adv-x="1044" d="M41 -381l125 148q92 -98 196 -99q213 0 250 318l37 303h-12q-51 -160 -150.5 -243t-224.5 -83q-98 0 -152.5 76t-54.5 221q0 141 42 272.5t114 233.5q88 123 192.5 182.5t237.5 59.5q172 0 252 -92.5t80 -284.5q0 -72 -9.5 -161t-23.5 -196q-16 -137 -30.5 -235 t-32.5 -160q-53 -188 -178.5 -285.5t-295.5 -97.5q-127 0 -215 28.5t-147 94.5zM352 352q0 -143 84 -143q57 0 121 119q66 121 95.5 236.5t29.5 193.5q0 125 -86 125q-39 0 -82 -37t-79 -105.5t-59.5 -167t-23.5 -221.5z" />
<glyph unicode="h" horiz-adv-x="1153" d="M82 0l182 1487l332 33l-158 -951h13q90 207 196.5 308.5t247.5 101.5q186 0 186 -193v-18q0 -12 -4 -29l-114 -731l-312 -14l-6 16l92 520q8 41 8 86q0 88 -55 89q-74 0 -162 -175.5t-157 -529.5h-289z" />
<glyph unicode="i" horiz-adv-x="595" d="M102 -12l91 968l331 48l-129 -1016h-293zM291 1356q0 53 39 92t88 39q41 0 67.5 -28.5t26.5 -72.5q0 -57 -38 -97t-87 -40q-41 0 -68.5 30t-27.5 77z" />
<glyph unicode="j" horiz-adv-x="595" d="M-113 -451q127 70 168 201q76 229 156 1258l309 -33q-37 -356 -69.5 -627.5t-73.5 -456t-96.5 -284t-137.5 -113.5zM303 1356q0 53 39 92t88 39q41 0 67.5 -28.5t26.5 -72.5q0 -57 -37.5 -97t-87.5 -40q-41 0 -68.5 30t-27.5 77z" />
<glyph unicode="k" horiz-adv-x="1069" d="M82 -4l176 1491l330 33l-180 -1084h14l133 256q162 313 385 314q68 0 150 -35l-84 -201q-31 37 -99 37t-117 -32t-96 -101l342 -666l-346 -47l-190 379q-31 -57 -70 -141t-86 -201z" />
<glyph unicode="l" horiz-adv-x="595" d="M115 293q0 260 172 1194l334 33q-203 -940 -203 -1239q0 -84 31.5 -146.5t103.5 -118.5l-293 -55q-82 39 -113.5 119t-31.5 213z" />
<glyph unicode="m" horiz-adv-x="1654" d="M92 -16q49 317 71.5 544.5t22.5 366.5v74l314 26q2 -35 2 -55v-25q0 -121 -19 -299h13q66 174 153.5 259.5t196.5 85.5q133 0 133 -177q0 -29 -6 -90q66 141 158 212t206 71q109 0 167.5 -56.5t58.5 -160.5q0 -35 -7 -68l-131 -692h-301l88 506l7.5 56.5t3.5 47.5 q0 109 -68 109q-25 0 -55.5 -23.5t-59 -68.5t-53 -110.5t-39.5 -147.5l-47 -287h-246l45 344q16 123 17 152q0 74 -41 73q-74 0 -154 -166t-133 -501h-297z" />
<glyph unicode="n" horiz-adv-x="1161" d="M102 0l115 1018h318l-84 -455h12q74 207 186.5 309.5t257.5 102.5q182 0 183 -191v-20q0 -10 -5 -27l-114 -729l-312 -14l-6 10l97 526q6 31 8 53.5t2 34.5q0 86 -58 87q-74 0 -161.5 -175.5t-153.5 -529.5h-285z" />
<glyph unicode="o" horiz-adv-x="1097" d="M72 403q0 137 40 249t110.5 191t170 122t219.5 43q197 0 305.5 -111t108.5 -303q0 -141 -40 -257t-112.5 -199t-172 -128t-218.5 -45q-199 0 -305 113.5t-106 324.5zM387 358q0 -125 25.5 -185t91.5 -60q41 0 77.5 35.5t65.5 102t46.5 162t17.5 216.5q0 115 -32 174 t-85 59q-39 0 -76 -34.5t-66.5 -99t-47 -158t-17.5 -212.5z" />
<glyph unicode="p" horiz-adv-x="1120" d="M20 -504l170 1522l316 49l-76 -479h12q88 211 187.5 314.5t222.5 103.5q102 0 149.5 -63.5t47.5 -197.5q0 -172 -42 -314t-111 -245.5t-160 -161t-189 -57.5q-47 0 -93 8.5t-96 24.5l-63 -504h-275zM383 166q45 -51 100 -51q45 0 91.5 36.5t83 102t60 155t23.5 195.5 q0 125 -61 125q-29 0 -65.5 -35t-76.5 -105.5t-81 -176t-74 -246.5z" />
<glyph unicode="q" horiz-adv-x="1093" d="M61 264q0 166 40 303.5t106.5 234.5t152.5 151.5t179 54.5q59 0 106 -17.5t76 -46.5l12 113h309l-180 -1540l-313 -33l121 874h-13q-59 -197 -161.5 -296t-233.5 -99q-98 0 -149.5 75.5t-51.5 225.5zM365 362q0 -123 75 -122q82 0 162 180q39 86 55.5 164t16.5 129 q0 160 -90 159q-31 0 -70 -36.5t-71.5 -104t-55 -162t-22.5 -207.5z" />
<glyph unicode="r" horiz-adv-x="827" d="M82 -8l86 962l299 29l-78 -504h19q70 242 166 362t225 124l59 -254h-18q-150 0 -281 -180.5t-219 -538.5h-258z" />
<glyph unicode="s" horiz-adv-x="935" d="M20 18l78 162q102 -70 209 -69q94 0 146.5 37.5t52.5 101.5q0 49 -40 80.5t-114 68.5q-57 29 -102 56.5t-76 59.5t-46 72t-15 95q0 150 123.5 239t359.5 89q92 0 169 -16.5t144 -57.5l-104 -160q-100 88 -215 88q-74 0 -118 -38t-44 -97q0 -35 14.5 -60.5t40 -46 t61.5 -39.5l79 -44q96 -53 145 -108.5t49 -147.5q0 -68 -32.5 -125.5t-96 -100.5t-156 -67.5t-208.5 -24.5q-171 0 -304 53z" />
<glyph unicode="t" horiz-adv-x="768" d="M0 723l31 131h192l64 287l323 28l-73 -315h262l-27 -131h-262q-33 -160 -49.5 -269.5t-16.5 -174.5q0 -82 24 -116t79 -34q59 0 155 49l21 -127q-78 -45 -168 -65.5t-197 -20.5q-119 0 -172 66.5t-53 210.5q0 76 17.5 195.5t48.5 285.5h-199z" />
<glyph unicode="u" horiz-adv-x="1093" d="M82 158q0 16 1 30.5t3 28.5l98 741l318 21l-92 -604q-2 -10 -2 -23v-20q0 -27 13 -42.5t32 -15.5q27 0 68.5 45.5t85.5 135.5t85 224t66 314h274l-98 -1034l-313 18l59 392h-16q-86 -205 -188.5 -304.5t-239.5 -99.5q-84 0 -119 45.5t-35 147.5z" />
<glyph unicode="v" horiz-adv-x="954" d="M45 965l313 43l125 -719h9l301 688h225l-457 -1002h-299z" />
<glyph unicode="w" horiz-adv-x="1382" d="M59 975l320 33l41 -566h14l168 451h326q-94 -352 -94 -555q0 -162 65 -162q20 0 45 50t48.5 150.5t43 249t27.5 343.5h338q-90 -500 -234.5 -751t-318.5 -251q-117 0 -185.5 86t-68.5 246q0 45 6 92h-10l-168 -426h-217z" />
<glyph unicode="x" horiz-adv-x="1060" d="M-31 0l393 481v8l-251 478l350 41l143 -320l234 289h243l-374 -475v-8l254 -476l-326 -45l-160 332l-242 -305h-264z" />
<glyph unicode="y" horiz-adv-x="985" d="M20 963l324 45l182 -668h15l256 637h229l-657 -1489l-236 41l211 393l8 66z" />
<glyph unicode="z" horiz-adv-x="989" d="M0 53q293 295 431 482.5t138 238.5q0 47 -143 47q-166 0 -320 -63l-8 188q152 16 294.5 25.5t281.5 9.5h18q74 0 124 -2t81 -14.5t45 -39t14 -75.5v-10q-14 -72 -138 -248t-372 -447l9 -8l463 19l-48 -166l-854 2z" />
<glyph unicode="{" horiz-adv-x="645" d="M61 481l13 101q90 0 123.5 17t33.5 79q0 51 -8 125t-8 174q0 96 14.5 178t47 153.5t85 135t125.5 123.5l228 -43q-133 -113 -189.5 -253.5t-56.5 -332.5q0 -59 2 -103t2 -75q0 -119 -37 -170t-137 -53v-11q135 -4 135 -112q0 -47 -15 -105l-33 -123q-17 -66 -32.5 -140.5 t-15.5 -156.5q0 -102 31.5 -187t101.5 -163l-238 -43q-86 76 -121.5 161t-35.5 198q0 100 19.5 188t43.5 161l44 128q19 55 20 90q0 33 -35 45t-107 14z" />
<glyph unicode="|" d="M393 -483v2048h240v-2048h-240z" />
<glyph unicode="}" horiz-adv-x="645" d="M-111 -459q131 113 188.5 253t57.5 333q0 43 -2 87t-2 91q0 119 36 170t138 53v11q-135 2 -135 112q0 47 15 105l33 124q17 67 32.5 140.5t15.5 155.5q0 100 -31.5 185t-101.5 165l238 43q86 -76 121.5 -162t35.5 -197q0 -100 -19.5 -188t-43.5 -161l-44 -129 q-19 -56 -20 -89q0 -35 34 -47t108 -12l-13 -101q-90 0 -123.5 -17t-33.5 -79q0 -57 8 -132t8 -167q0 -96 -14.5 -178t-47 -153.5t-85 -135t-125.5 -123.5z" />
<glyph unicode="~" d="M223 1100q12 137 52 206.5t94 69.5q35 0 71.5 -18.5t74.5 -40t75 -38.5t72 -17q63 0 102 114h35q-8 -137 -47 -206.5t-99 -69.5q-35 0 -71.5 17.5t-74.5 39t-75 39.5t-72 18q-63 0 -102 -114h-35z" />
<glyph unicode="&#xa1;" horiz-adv-x="659" d="M76 -20l198 995l209 16l-51 -987zM301 1221q0 55 39 95t90 40q43 0 69.5 -29t26.5 -74q0 -59 -35.5 -98t-89.5 -39q-43 0 -71.5 29t-28.5 76z" />
<glyph unicode="&#xa2;" horiz-adv-x="993" d="M47 485q0 139 56.5 284.5t156.5 256.5q125 137 299 164l31 223h84l-27 -219q281 -12 281 -360v-25q0 -12 -2 -35l-240 -55q12 129 12 188q0 72 -15 110t-52 44l-90 -733h12q162 0 317 78l35 -150q-182 -100 -385 -102l-35 -277h-84l35 275q-389 5 -389 333zM350 504 q0 -66 24.5 -105t84.5 -59l84 690q-43 -45 -78 -107.5t-60.5 -134t-40 -145t-14.5 -139.5z" />
<glyph unicode="&#xa3;" horiz-adv-x="1097" d="M20 0l39 135h111l53 434h-102l29 113h88q29 315 186.5 478t423.5 163q86 0 150.5 -22.5t119.5 -79.5l-102 -115q-55 88 -146 88q-129 0 -201.5 -107.5t-103.5 -330.5l-10 -74h354l-37 -113h-329l-56 -440l494 23l-47 -152h-914z" />
<glyph unicode="&#xa4;" horiz-adv-x="1241" d="M61 444l201 203q-72 106 -72 238q0 135 72 237l-201 205l117 117l203 -201q49 35 108.5 54.5t131.5 19.5q139 0 243 -74l201 201l119 -117l-201 -205q70 -106 70 -237t-70 -238l201 -203l-119 -118l-201 202q-53 -39 -112.5 -56t-128.5 -17q-135 0 -242 73l-203 -202z M362 885q0 -53 20.5 -101.5t55.5 -83t82 -55t103 -20.5q53 0 100 20.5t83 55t56.5 82.5t20.5 102q0 53 -20.5 100t-56.5 83t-83 56.5t-100 20.5t-101.5 -20.5t-83.5 -56.5t-55.5 -83t-20.5 -100z" />
<glyph unicode="&#xa5;" horiz-adv-x="1056" d="M10 1276l389 49l201 -610l332 592h217l-471 -832h190l-10 -94h-205l-8 -70h205l-12 -94h-209l-27 -217h-319l24 217h-194l10 94h196l7 70h-195l12 94h193z" />
<glyph unicode="&#xa6;" d="M393 -350v758h240v-758h-240zM393 674v758h240v-758h-240z" />
<glyph unicode="&#xa7;" horiz-adv-x="1163" d="M-31 -455l92 183q70 -39 133.5 -60.5t137.5 -21.5q117 0 178 51t61 143q0 41 -13 71t-39.5 54.5t-66.5 45.5l-92 48q-70 35 -123 70t-88.5 75t-54 89t-18.5 115q0 223 188 333q-55 82 -55 181q0 199 140 307t413 108q113 0 211 -19.5t190 -64.5l-102 -180 q-121 94 -246 94q-119 0 -185.5 -56t-66.5 -148q0 -41 14.5 -72t42 -56.5t67.5 -50t93 -51.5q68 -35 120 -68.5t88 -72.5t53.5 -85t17.5 -106q0 -92 -51.5 -177t-151.5 -152q68 -86 68 -189q0 -82 -39 -157.5t-112 -134t-175 -93.5t-231 -35q-208 0 -398 82zM377 461 q0 -41 20.5 -74t60.5 -63.5t100 -62.5l138 -71q61 63 62 142q0 45 -20.5 78.5t-60.5 64.5t-100 62l-141 69q-29 -35 -44 -69.5t-15 -75.5z" />
<glyph unicode="&#xa8;" d="M348 1208q0 47 36 82t79 35q39 0 63.5 -26.5t24.5 -73.5q0 -45 -36 -81t-79 -36q-41 0 -64.5 26.5t-23.5 73.5zM621 1204q0 49 34.5 85t79.5 36q37 0 62.5 -27.5t25.5 -68.5q0 -49 -33.5 -85t-80.5 -36q-39 0 -63.5 27.5t-24.5 68.5z" />
<glyph unicode="&#xa9;" horiz-adv-x="555" d="M68 1243q0 43 17 83t48 70.5t72 49t88 18.5q45 0 86 -18.5t71.5 -49t49 -71.5t18.5 -86q0 -47 -18.5 -88t-49 -71.5t-72.5 -48t-89 -17.5q-43 0 -83 17.5t-71 48t-49 72.5t-18 91zM102 1239q0 -39 15.5 -74t41 -60.5t60.5 -40.5t74 -15t73.5 14t61.5 39.5t42 60.5t15 76 q0 80 -56 135.5t-136 55.5q-41 0 -75 -15.5t-60.5 -42t-41 -60.5t-14.5 -73zM178 1241q0 59 33 96t86 37q45 0 71.5 -22.5t28.5 -63.5h-55q-4 45 -47 45q-57 0 -57 -92q0 -90 57 -90q45 0 49 49h55q0 -45 -29.5 -71.5t-78.5 -26.5t-81 35.5t-32 103.5z" />
<glyph unicode="&#xaa;" horiz-adv-x="966" d="M221 485l10 82h576l-10 -82h-576zM238 852q0 106 26.5 195.5t72.5 154t109.5 100t137.5 35.5q72 0 146.5 -25.5t158.5 -33.5q-12 -72 -20.5 -139.5t-14.5 -130.5l-12 -127q-4 -41 -6 -80t-2 -76v-37q0 -18 2 -37l-207 -18q2 133 12 256h-10q-33 -117 -103.5 -178.5 t-156.5 -61.5q-133 0 -133 203zM436 938q0 -117 56 -117q18 0 42.5 24.5t49 72t47 117t35.5 159.5q-29 35 -70 35q-27 0 -55.5 -21.5t-51 -60.5t-38 -92.5t-15.5 -116.5z" />
<glyph unicode="&#xab;" horiz-adv-x="966" d="M123 475l397 389l139 -33l-329 -354l241 -358l-145 -33zM399 475l398 389l139 -33l-330 -354l242 -358l-146 -33z" />
<glyph unicode="&#xac;" horiz-adv-x="1705" d="M254 639v227h1198v-501h-229v274h-969z" />
<glyph unicode="&#xad;" horiz-adv-x="690" d="M51 389l29 223h487l-28 -223h-488z" />
<glyph unicode="&#xae;" horiz-adv-x="555" d="M68 1243q0 43 17 83t48 70.5t72 49t88 18.5q45 0 86 -18.5t71.5 -49t49 -71.5t18.5 -86q0 -47 -18.5 -88t-49 -71.5t-72.5 -48t-89 -17.5q-43 0 -83 17.5t-71 48t-49 72.5t-18 91zM102 1239q0 -39 15.5 -74t41 -60.5t60.5 -40.5t74 -15t73.5 14t61.5 39.5t42 60.5t15 76 q0 80 -56 135.5t-136 55.5q-41 0 -75 -15.5t-60.5 -42t-41 -60.5t-14.5 -73zM203 1118v242h88q102 0 102 -70q0 -51 -51 -65l53 -107h-57l-47 99h-35v-99h-53zM256 1253h35q49 0 49 33q0 37 -51 37h-33v-70z" />
<glyph unicode="&#xaf;" d="M305 1149l21 135h544l-20 -135h-545z" />
<glyph unicode="&#x2c9;" d="M305 1149l21 135h544l-20 -135h-545z" />
<glyph unicode="&#xb0;" horiz-adv-x="675" d="M143 1143q0 82 55.5 138t139.5 56q82 0 138 -56t56 -138q0 -84 -56 -139.5t-138 -55.5q-84 0 -139.5 55.5t-55.5 139.5zM215 1143q0 -49 38 -86t85 -37t84 37t37 86q0 47 -37 85t-84 38t-85 -38t-38 -85z" />
<glyph unicode="&#xb1;" horiz-adv-x="1705" d="M254 -18v231h1198v-231h-1198zM254 690v232h481v319h238v-319h479v-232h-479v-319h-238v319h-481z" />
<glyph unicode="&#xb2;" horiz-adv-x="729" d="M-20 582q229 143 339.5 283.5t110.5 256.5q0 59 -40 86t-128 27q-100 0 -207 -64l4 113q45 16 121 28.5t180 12.5q283 0 283 -170q0 -119 -93 -251t-280 -257l-2 -10l408 -12l-35 -103h-657z" />
<glyph unicode="&#xb3;" horiz-adv-x="698" d="M-29 600q25 -4 51.5 -5t55.5 -1q80 0 143.5 15.5t106.5 41t65.5 59t22.5 68.5q0 111 -215 111q-45 0 -84 -8l-6 59q166 31 248.5 85t82.5 114q0 43 -40 68.5t-113 25.5q-100 0 -199 -39l-20 88q141 43 278 43q287 0 287 -156q0 -84 -62.5 -138t-191.5 -91l-2 -8 q113 -2 170 -40t57 -104q0 -57 -35.5 -108t-104.5 -89t-171 -60.5t-234 -22.5h-36q-18 0 -39 2z" />
<glyph unicode="&#xb4;" d="M442 1096l244 223q39 35 77 52.5t60 17.5q47 0 47 -56q0 -72 -184 -159l-231 -111z" />
<glyph unicode="&#xb5;" horiz-adv-x="1314" d="M-45 -428l238 1518h358l-80 -529q-12 -84 -12 -143q0 -170 143 -170q92 0 141.5 70.5t71.5 218.5l88 553h357l-175 -1090h-321l18 125q-41 -74 -89 -107.5t-120 -33.5q-59 0 -106 30.5t-78 89.5l-82 -532h-352z" />
<glyph unicode="&#x3bc;" horiz-adv-x="1314" d="M-45 -428l238 1518h358l-80 -529q-12 -84 -12 -143q0 -170 143 -170q92 0 141.5 70.5t71.5 218.5l88 553h357l-175 -1090h-321l18 125q-41 -74 -89 -107.5t-120 -33.5q-59 0 -106 30.5t-78 89.5l-82 -532h-352z" />
<glyph unicode="&#xb6;" horiz-adv-x="1601" d="M123 827q0 106 70.5 198.5t201.5 161t314.5 108.5t410.5 40q111 0 205 -7t172 -21l-215 -1385h-201l176 1299l-98 -15l-151 -1280l-260 -32l196 1273q-166 -53 -248 -145t-82 -221q0 -172 181 -264l-170 -70q-246 10 -374 105t-128 255z" />
<glyph unicode="&#xb7;" horiz-adv-x="501" d="M119 670q0 59 37 98t90 39q43 0 69.5 -29.5t26.5 -79.5q0 -53 -38 -92t-89 -39q-41 0 -68.5 29t-27.5 74z" />
<glyph unicode="&#x22c5;" horiz-adv-x="501" d="M119 670q0 59 37 98t90 39q43 0 69.5 -29.5t26.5 -79.5q0 -53 -38 -92t-89 -39q-41 0 -68.5 29t-27.5 74z" />
<glyph unicode="&#xb8;" d="M256 -422q0 49 19 103l44 116l80 203h97l-39 -274q-16 -109 -56.5 -168.5t-87.5 -59.5h-2q-55 14 -55 80z" />
<glyph unicode="&#xb9;" horiz-adv-x="610" d="M-6 522l10 76h178l82 602l-10 8l-174 -65l-35 100l451 88l-117 -733h147l-10 -76h-522z" />
<glyph unicode="&#xba;" horiz-adv-x="1019" d="M246 485l10 82h575l-10 -82h-575zM281 938q0 90 25.5 164t73.5 126t113.5 80.5t145.5 28.5q129 0 201.5 -73.5t72.5 -204.5q0 -90 -26.5 -166t-73.5 -131t-113.5 -86t-146.5 -31q-129 0 -200.5 76t-71.5 217zM487 901q0 -160 80 -160q53 0 95.5 90.5t42.5 243.5 q0 166 -78 166q-53 0 -96.5 -90t-43.5 -250z" />
<glyph unicode="&#xbb;" horiz-adv-x="966" d="M31 119l329 358l-243 354l147 33l303 -389l-399 -389zM305 119l330 358l-242 354l148 33l303 -389l-400 -389z" />
<glyph unicode="&#xbc;" horiz-adv-x="1740" d="M-6 575l10 70h170l78 563l-10 6l-166 -59l-33 92l428 84l-111 -686h142l-8 -70h-500zM160 -197l1052 1729h129l-1050 -1729h-131zM930 207l461 553l204 -23l-73 -489l149 -10l-24 -80h-136l-22 -172l-197 -17l25 193l-363 8zM1085 283l7 -9l237 -10l57 352l-10 5z" />
<glyph unicode="&#xbd;" horiz-adv-x="1619" d="M-6 575l10 70h170l78 563l-10 6l-166 -59l-33 92l428 84l-111 -686h142l-8 -70h-500zM160 -197l1052 1729h129l-1050 -1729h-131zM907 55q219 135 324.5 265.5t105.5 238.5q0 57 -36.5 82t-122.5 25q-92 0 -199 -60l6 105q41 16 113.5 27.5t173.5 11.5q137 0 202.5 -38 t65.5 -122q0 -111 -88 -234t-266 -239l-2 -11l389 -10l-33 -96h-627z" />
<glyph unicode="&#xbe;" horiz-adv-x="1824" d="M-29 647q45 -6 101 -6q76 0 136 14.5t102 39t63.5 55t21.5 63.5q0 104 -205 105q-20 0 -40.5 -2.5t-40.5 -6.5l-5 56q158 29 238 80t80 106q0 41 -39 64.5t-111 23.5q-90 0 -190 -37l-19 82q139 41 267 41q274 0 274 -145q0 -78 -59.5 -129.5t-182.5 -85.5l-2 -7 q106 -2 162 -36.5t56 -96.5q0 -55 -34 -103t-100.5 -84t-164 -56.5t-222.5 -20.5q-16 0 -34.5 1t-38.5 1zM242 -197l1052 1729h129l-1050 -1729h-131zM1012 207l461 553l204 -23l-73 -489l149 -10l-24 -80h-136l-22 -172l-197 -17l25 193l-363 8zM1167 283l7 -9l237 -10 l57 352l-10 5z" />
<glyph unicode="&#xbf;" horiz-adv-x="802" d="M16 164q0 35 13.5 67.5t36 65.5t53.5 69l65 76q78 92 120 164t42 144q0 104 -102 122l219 74q174 -47 174 -198q0 -68 -45 -138.5t-123 -163.5q-68 -82 -107.5 -141t-39.5 -112q0 -70 90 -70q66 0 159 51l37 -121q-178 -72 -325 -71q-127 0 -197 50t-70 132zM362 1208 q0 53 38 91t89 38q41 0 69 -26.5t28 -73.5q0 -59 -38 -98t-89 -39q-43 0 -70 29.5t-27 78.5z" />
<glyph unicode="&#xc0;" horiz-adv-x="1249" d="M-94 18l639 1303h327l324 -1305l-362 -45l-103 484h-393l-223 -478zM406 616l12 -18l285 -12l-103 467zM456 1647q0 29 17.5 47t46.5 18q57 0 123 -67l202 -213l-22 -33l-215 109q-76 37 -114 69.5t-38 69.5z" />
<glyph unicode="&#xc1;" horiz-adv-x="1249" d="M-94 18l639 1303h327l324 -1305l-362 -45l-103 484h-393l-223 -478zM406 616l12 -18l285 -12l-103 467zM585 1426l244 223q39 35 77 52.5t60 17.5q47 0 47 -56q0 -72 -184 -159l-231 -111z" />
<glyph unicode="&#xc2;" horiz-adv-x="1249" d="M-94 18l639 1303h327l324 -1305l-362 -45l-103 484h-393l-223 -478zM406 616l12 -18l285 -12l-103 467zM460 1415l254 297h74l180 -297l-82 -16l-151 176l-197 -176z" />
<glyph unicode="&#xc3;" horiz-adv-x="1249" d="M-94 18l639 1303h327l324 -1305l-362 -45l-103 484h-393l-223 -478zM406 616l12 -18l285 -12l-103 467zM473 1430q27 276 151 276q33 0 62.5 -18.5t57.5 -42t56.5 -42t61.5 -18.5q37 0 58.5 30t45.5 91h35q-18 -276 -153 -276q-33 0 -62 18.5t-56.5 41t-57 41t-62.5 18.5 q-35 0 -57.5 -29t-44.5 -90h-35z" />
<glyph unicode="&#xc4;" horiz-adv-x="1249" d="M-94 18l639 1303h327l324 -1305l-362 -45l-103 484h-393l-223 -478zM406 616l12 -18l285 -12l-103 467zM491 1538q0 47 36 82t79 35q39 0 63.5 -26.5t24.5 -73.5q0 -45 -36 -81t-79 -36q-41 0 -64.5 26.5t-23.5 73.5zM764 1534q0 49 34.5 85t79.5 36q37 0 62.5 -27.5 t25.5 -68.5q0 -49 -33.5 -85t-80.5 -36q-39 0 -63.5 27.5t-24.5 68.5z" />
<glyph unicode="&#xc5;" horiz-adv-x="1249" d="M-92 18l639 1303h327l324 -1305l-362 -45l-103 484h-393l-223 -478zM408 616l12 -18l285 -12l-103 467zM563 1567q0 70 47 116t115 46t115 -47.5t47 -114.5q0 -68 -47 -115t-115 -47q-70 0 -116 46t-46 116zM639 1567q0 -35 25.5 -60.5t60.5 -25.5t59.5 25.5t24.5 60.5 t-24.5 60.5t-59.5 25.5t-60.5 -25.5t-25.5 -60.5z" />
<glyph unicode="&#xc6;" horiz-adv-x="1763" d="M-82 18l809 1264l37 25h999l-47 -166l-618 -17l35 -348l12 -16l495 12l-43 -194l-426 6l-18 -21l39 -393l459 29l-49 -183l-781 -45l-41 484h-360l-299 -478zM510 616l6 -18l275 -12l-31 442z" />
<glyph unicode="&#xc7;" horiz-adv-x="1288" d="M61 356q0 88 22.5 206t70.5 241q104 264 273 399t384 135q111 0 189.5 -31.5t129 -97t74 -169t23.5 -244.5l-318 -86q10 78 15.5 138t5.5 105q0 227 -111 228q-47 0 -113.5 -55.5t-113.5 -143.5l-61 -120q-30 -60 -51 -123.5t-34.5 -134.5t-13.5 -150q0 -154 70.5 -218.5 t230.5 -64.5q207 0 393 113l41 -185q-211 -117 -458 -129l-39 -243q-18 -111 -58.5 -169.5t-87.5 -58.5q-55 14 -55 80q0 41 16.5 94.5t46.5 124.5l74 168h-41q-504 0 -504 391z" />
<glyph unicode="&#xc8;" horiz-adv-x="1087" d="M80 -16l151 1298l37 25h817l-47 -166l-469 -17l-51 -348l10 -16l435 12l-43 -194l-414 6l-19 -21l-45 -379l15 -14l516 29l-49 -183zM397 1647q0 29 17.5 47t46.5 18q57 0 123 -67l202 -213l-22 -33l-215 109q-76 37 -114 69.5t-38 69.5z" />
<glyph unicode="&#xc9;" horiz-adv-x="1087" d="M80 -16l151 1298l37 25h817l-47 -166l-469 -17l-51 -348l10 -16l435 12l-43 -194l-414 6l-19 -21l-45 -379l15 -14l516 29l-49 -183zM526 1426l244 223q39 35 77 52.5t60 17.5q47 0 47 -56q0 -72 -184 -159l-231 -111z" />
<glyph unicode="&#xca;" horiz-adv-x="1087" d="M80 -16l151 1298l37 25h817l-47 -166l-469 -17l-51 -348l10 -16l435 12l-43 -194l-414 6l-19 -21l-45 -379l15 -14l516 29l-49 -183zM401 1415l254 297h74l180 -297l-82 -16l-151 176l-197 -176z" />
<glyph unicode="&#xcb;" horiz-adv-x="1087" d="M80 -16l151 1298l37 25h817l-47 -166l-469 -17l-51 -348l10 -16l435 12l-43 -194l-414 6l-19 -21l-45 -379l15 -14l516 29l-49 -183zM432 1538q0 47 36 82t79 35q39 0 63.5 -26.5t24.5 -73.5q0 -45 -36 -81t-79 -36q-41 0 -64.5 26.5t-23.5 73.5zM705 1534q0 49 34.5 85 t79.5 36q37 0 62.5 -27.5t25.5 -68.5q0 -49 -33.5 -85t-80.5 -36q-39 0 -63.5 27.5t-24.5 68.5z" />
<glyph unicode="&#xcc;" horiz-adv-x="669" d="M80 0l156 1305l350 12l-176 -1317h-330zM168 1647q0 29 17.5 47t46.5 18q57 0 123 -67l202 -213l-22 -33l-215 109q-76 37 -114 69.5t-38 69.5z" />
<glyph unicode="&#xcd;" horiz-adv-x="669" d="M80 0l156 1305l350 12l-176 -1317h-330zM297 1426l244 223q39 35 77 52.5t60 17.5q47 0 47 -56q0 -72 -184 -159l-231 -111z" />
<glyph unicode="&#xce;" horiz-adv-x="669" d="M80 0l156 1305l350 12l-176 -1317h-330zM172 1415l254 297h74l180 -297l-82 -16l-151 176l-197 -176z" />
<glyph unicode="&#xcf;" horiz-adv-x="669" d="M80 0l156 1305l350 12l-176 -1317h-330zM203 1538q0 47 36 82t79 35q39 0 63.5 -26.5t24.5 -73.5q0 -45 -36 -81t-79 -36q-41 0 -64.5 26.5t-23.5 73.5zM476 1534q0 49 34.5 85t79.5 36q37 0 62.5 -27.5t25.5 -68.5q0 -49 -33.5 -85t-80.5 -36q-39 0 -63.5 27.5 t-24.5 68.5z" />
<glyph unicode="&#xd0;" horiz-adv-x="1562" d="M53 627l13 94h172l65 590h565q281 0 431.5 -131t150.5 -373q0 -184 -55.5 -333.5t-160 -255t-255 -162t-342.5 -56.5h-483l71 627h-172zM510 156l16 -15h80q113 0 206 47.5t157.5 135.5t100.5 214t36 283q0 184 -92 265t-293 81h-82l-57 -446h178l-12 -94h-179z" />
<glyph unicode="&#xd1;" horiz-adv-x="1505" d="M80 0l180 1315l307 20l504 -987l12 6l105 946l213 21l-170 -1298l-338 -39l-477 931l-15 -8l-106 -907h-215zM606 1430q27 276 151 276q33 0 62.5 -18.5t57.5 -42t56.5 -42t61.5 -18.5q37 0 58.5 30t45.5 91h35q-18 -276 -153 -276q-33 0 -62 18.5t-56.5 41t-57 41 t-62.5 18.5q-35 0 -57.5 -29t-44.5 -90h-35z" />
<glyph unicode="&#xd2;" horiz-adv-x="1527" d="M90 578q0 168 54.5 307t152.5 239.5t237.5 156.5t311.5 56q293 0 440.5 -140t147.5 -415q0 -186 -54.5 -336.5t-155 -257t-239.5 -165t-309 -58.5q-285 0 -435.5 157t-150.5 456zM451 504q0 -193 58 -285t187 -92q80 0 148.5 46t119 133t80 211t29.5 280q0 383 -248 383 q-76 0 -144.5 -46.5t-119.5 -132.5t-80.5 -211.5t-29.5 -285.5zM585 1647q0 29 17.5 47t46.5 18q57 0 123 -67l202 -213l-22 -33l-215 109q-76 37 -114 69.5t-38 69.5z" />
<glyph unicode="&#xd3;" horiz-adv-x="1527" d="M90 578q0 168 54.5 307t152.5 239.5t237.5 156.5t311.5 56q293 0 440.5 -140t147.5 -415q0 -186 -54.5 -336.5t-155 -257t-239.5 -165t-309 -58.5q-285 0 -435.5 157t-150.5 456zM451 504q0 -193 58 -285t187 -92q80 0 148.5 46t119 133t80 211t29.5 280q0 383 -248 383 q-76 0 -144.5 -46.5t-119.5 -132.5t-80.5 -211.5t-29.5 -285.5zM714 1426l244 223q39 35 77 52.5t60 17.5q47 0 47 -56q0 -72 -184 -159l-231 -111z" />
<glyph unicode="&#xd4;" horiz-adv-x="1527" d="M90 578q0 168 54.5 307t152.5 239.5t237.5 156.5t311.5 56q293 0 440.5 -140t147.5 -415q0 -186 -54.5 -336.5t-155 -257t-239.5 -165t-309 -58.5q-285 0 -435.5 157t-150.5 456zM451 504q0 -193 58 -285t187 -92q80 0 148.5 46t119 133t80 211t29.5 280q0 383 -248 383 q-76 0 -144.5 -46.5t-119.5 -132.5t-80.5 -211.5t-29.5 -285.5zM589 1415l254 297h74l180 -297l-82 -16l-151 176l-197 -176z" />
<glyph unicode="&#xd5;" horiz-adv-x="1527" d="M90 578q0 168 54.5 307t152.5 239.5t237.5 156.5t311.5 56q293 0 440.5 -140t147.5 -415q0 -186 -54.5 -336.5t-155 -257t-239.5 -165t-309 -58.5q-285 0 -435.5 157t-150.5 456zM451 504q0 -193 58 -285t187 -92q80 0 148.5 46t119 133t80 211t29.5 280q0 383 -248 383 q-76 0 -144.5 -46.5t-119.5 -132.5t-80.5 -211.5t-29.5 -285.5zM602 1430q27 276 151 276q33 0 62.5 -18.5t57.5 -42t56.5 -42t61.5 -18.5q37 0 58.5 30t45.5 91h35q-18 -276 -153 -276q-33 0 -62 18.5t-56.5 41t-57 41t-62.5 18.5q-35 0 -57.5 -29t-44.5 -90h-35z" />
<glyph unicode="&#xd6;" horiz-adv-x="1527" d="M90 578q0 168 54.5 307t152.5 239.5t237.5 156.5t311.5 56q293 0 440.5 -140t147.5 -415q0 -186 -54.5 -336.5t-155 -257t-239.5 -165t-309 -58.5q-285 0 -435.5 157t-150.5 456zM451 504q0 -193 58 -285t187 -92q80 0 148.5 46t119 133t80 211t29.5 280q0 383 -248 383 q-76 0 -144.5 -46.5t-119.5 -132.5t-80.5 -211.5t-29.5 -285.5zM620 1538q0 47 36 82t79 35q39 0 63.5 -26.5t24.5 -73.5q0 -45 -36 -81t-79 -36q-41 0 -64.5 26.5t-23.5 73.5zM893 1534q0 49 34.5 85t79.5 36q37 0 62.5 -27.5t25.5 -68.5q0 -49 -33.5 -85t-80.5 -36 q-39 0 -63.5 27.5t-24.5 68.5z" />
<glyph unicode="&#xd7;" horiz-adv-x="1705" d="M268 170l441 440l-441 443l162 161l440 -440l441 440l162 -161l-441 -443l441 -440l-162 -162l-441 441l-440 -441z" />
<glyph unicode="&#xd8;" horiz-adv-x="1607" d="M158 535q0 182 52 330.5t149.5 253t236.5 161.5t315 57q82 0 157 -13t146 -42l142 199h112l-172 -244q109 -84 156 -192.5t47 -258.5q0 -184 -56.5 -334.5t-156.5 -259t-239.5 -168t-305.5 -59.5q-156 0 -297 64l-168 -236h-112l201 285q-111 92 -159 201t-48 256z M516 514q0 -45 2 -93t17 -102l538 764q-37 51 -80 74t-102 23q-80 0 -148.5 -47.5t-119 -135.5t-79 -210.5t-28.5 -272.5zM580 219q68 -92 182 -92q82 0 150.5 47t117.5 135t77 214t28 286q0 94 -19 174z" />
<glyph unicode="&#xd9;" horiz-adv-x="1368" d="M90 412q0 35 2 58.5t4 33.5l92 801l353 12l-101 -733q-4 -23 -7 -57.5t-3 -86.5q0 -154 59.5 -232.5t170.5 -78.5q256 0 313 471l86 703h235l-108 -795q-74 -545 -615 -545q-236 0 -358.5 116t-122.5 333zM542 1647q0 29 17.5 47t46.5 18q57 0 123 -67l202 -213l-22 -33 l-215 109q-76 37 -114 69.5t-38 69.5z" />
<glyph unicode="&#xda;" horiz-adv-x="1368" d="M90 412q0 35 2 58.5t4 33.5l92 801l353 12l-101 -733q-4 -23 -7 -57.5t-3 -86.5q0 -154 59.5 -232.5t170.5 -78.5q256 0 313 471l86 703h235l-108 -795q-74 -545 -615 -545q-236 0 -358.5 116t-122.5 333zM671 1426l244 223q39 35 77 52.5t60 17.5q47 0 47 -56 q0 -72 -184 -159l-231 -111z" />
<glyph unicode="&#xdb;" horiz-adv-x="1368" d="M90 412q0 35 2 58.5t4 33.5l92 801l353 12l-101 -733q-4 -23 -7 -57.5t-3 -86.5q0 -154 59.5 -232.5t170.5 -78.5q256 0 313 471l86 703h235l-108 -795q-74 -545 -615 -545q-236 0 -358.5 116t-122.5 333zM546 1415l254 297h74l180 -297l-82 -16l-151 176l-197 -176z" />
<glyph unicode="&#xdc;" horiz-adv-x="1368" d="M90 412q0 35 2 58.5t4 33.5l92 801l353 12l-101 -733q-4 -23 -7 -57.5t-3 -86.5q0 -154 59.5 -232.5t170.5 -78.5q256 0 313 471l86 703h235l-108 -795q-74 -545 -615 -545q-236 0 -358.5 116t-122.5 333zM577 1538q0 47 36 82t79 35q39 0 63.5 -26.5t24.5 -73.5 q0 -45 -36 -81t-79 -36q-41 0 -64.5 26.5t-23.5 73.5zM850 1534q0 49 34.5 85t79.5 36q37 0 62.5 -27.5t25.5 -68.5q0 -49 -33.5 -85t-80.5 -36q-39 0 -63.5 27.5t-24.5 68.5z" />
<glyph unicode="&#xdd;" d="M-2 1276l387 49l201 -610l332 592h217l-488 -863l-57 -444h-322l56 471zM503 1426l244 223q39 35 77 52.5t60 17.5q47 0 47 -56q0 -72 -184 -159l-231 -111z" />
<glyph unicode="&#xde;" horiz-adv-x="1310" d="M150 0l155 1317h354l-32 -262h112q268 0 396.5 -67.5t128.5 -215.5q0 -115 -45 -205t-132.5 -154.5t-215.5 -98t-296 -33.5h-49l-39 -281h-337zM543 428l14 -14h27q143 0 229 75.5t109 221.5q-2 119 -62.5 159.5t-200.5 40.5h-51z" />
<glyph unicode="&#xdf;" horiz-adv-x="1236" d="M61 -133l125 987q43 344 200 516t419 172q324 0 323 -227q0 -72 -30.5 -134.5t-91.5 -121.5l-77 -75q-36 -34 -63.5 -67.5t-44 -71.5t-16.5 -85q0 -59 43 -95t121 -81q51 -29 92 -57.5t68.5 -60.5t42 -70t14.5 -87q0 -72 -32 -131t-91 -102t-144 -66.5t-192 -23.5 q-96 0 -175 12t-149 41l78 162q102 -70 211 -70q94 0 144.5 36t50.5 97q0 53 -39 88t-111 76q-51 29 -91 55.5t-66.5 57t-40 68.5t-13.5 89q0 61 20.5 110.5t56.5 94.5t85 89l105 93q59 53 90.5 95.5t31.5 89.5q0 106 -106 106q-121 0 -200 -130t-113 -392l-127 -987h-308z " />
<glyph unicode="&#xe0;" horiz-adv-x="1099" d="M70 276q0 162 39 296.5t108.5 230.5t161.5 150.5t201 54.5q53 0 105 -12.5t107.5 -28t113 -29.5t120.5 -20q-16 -92 -27.5 -193.5t-21.5 -212.5l-18 -190q-12 -133 -13 -246v-51q0 -25 2 -50l-303 -28q2 180 19 387h-17q-47 -174 -150.5 -267.5t-232.5 -93.5 q-194 0 -194 303zM363 406q0 -90 18 -132.5t61 -42.5q27 0 64 36t73.5 106.5t69.5 175t51 242.5q-23 29 -47 42t-57 13q-39 0 -81 -33t-75.5 -91t-55 -139t-21.5 -177zM348 1317q0 29 17.5 47t46.5 18q57 0 123 -67l202 -213l-22 -33l-215 109q-76 37 -114 69.5t-38 69.5z " />
<glyph unicode="&#xe1;" horiz-adv-x="1099" d="M70 276q0 162 39 296.5t108.5 230.5t161.5 150.5t201 54.5q53 0 105 -12.5t107.5 -28t113 -29.5t120.5 -20q-16 -92 -27.5 -193.5t-21.5 -212.5l-18 -190q-12 -133 -13 -246v-51q0 -25 2 -50l-303 -28q2 180 19 387h-17q-47 -174 -150.5 -267.5t-232.5 -93.5 q-194 0 -194 303zM363 406q0 -90 18 -132.5t61 -42.5q27 0 64 36t73.5 106.5t69.5 175t51 242.5q-23 29 -47 42t-57 13q-39 0 -81 -33t-75.5 -91t-55 -139t-21.5 -177zM477 1096l244 223q39 35 77 52.5t60 17.5q47 0 47 -56q0 -72 -184 -159l-231 -111z" />
<glyph unicode="&#xe2;" horiz-adv-x="1099" d="M70 276q0 162 39 296.5t108.5 230.5t161.5 150.5t201 54.5q53 0 105 -12.5t107.5 -28t113 -29.5t120.5 -20q-16 -92 -27.5 -193.5t-21.5 -212.5l-18 -190q-12 -133 -13 -246v-51q0 -25 2 -50l-303 -28q2 180 19 387h-17q-47 -174 -150.5 -267.5t-232.5 -93.5 q-194 0 -194 303zM363 406q0 -90 18 -132.5t61 -42.5q27 0 64 36t73.5 106.5t69.5 175t51 242.5q-23 29 -47 42t-57 13q-39 0 -81 -33t-75.5 -91t-55 -139t-21.5 -177zM352 1085l254 297h74l180 -297l-82 -16l-151 176l-197 -176z" />
<glyph unicode="&#xe3;" horiz-adv-x="1099" d="M70 276q0 162 39 296.5t108.5 230.5t161.5 150.5t201 54.5q53 0 105 -12.5t107.5 -28t113 -29.5t120.5 -20q-16 -92 -27.5 -193.5t-21.5 -212.5l-18 -190q-12 -133 -13 -246v-51q0 -25 2 -50l-303 -28q2 180 19 387h-17q-47 -174 -150.5 -267.5t-232.5 -93.5 q-194 0 -194 303zM363 406q0 -90 18 -132.5t61 -42.5q27 0 64 36t73.5 106.5t69.5 175t51 242.5q-23 29 -47 42t-57 13q-39 0 -81 -33t-75.5 -91t-55 -139t-21.5 -177zM365 1100q27 276 151 276q33 0 62.5 -18.5t57.5 -42t56.5 -42t61.5 -18.5q37 0 58.5 30t45.5 91h35 q-18 -276 -153 -276q-33 0 -62 18.5t-56.5 41t-57 41t-62.5 18.5q-35 0 -57.5 -29t-44.5 -90h-35z" />
<glyph unicode="&#xe4;" horiz-adv-x="1099" d="M70 276q0 162 39 296.5t108.5 230.5t161.5 150.5t201 54.5q53 0 105 -12.5t107.5 -28t113 -29.5t120.5 -20q-16 -92 -27.5 -193.5t-21.5 -212.5l-18 -190q-12 -133 -13 -246v-51q0 -25 2 -50l-303 -28q2 180 19 387h-17q-47 -174 -150.5 -267.5t-232.5 -93.5 q-194 0 -194 303zM363 406q0 -90 18 -132.5t61 -42.5q27 0 64 36t73.5 106.5t69.5 175t51 242.5q-23 29 -47 42t-57 13q-39 0 -81 -33t-75.5 -91t-55 -139t-21.5 -177zM383 1208q0 47 36 82t79 35q39 0 63.5 -26.5t24.5 -73.5q0 -45 -36 -81t-79 -36q-41 0 -64.5 26.5 t-23.5 73.5zM656 1204q0 49 34.5 85t79.5 36q37 0 62.5 -27.5t25.5 -68.5q0 -49 -33.5 -85t-80.5 -36q-39 0 -63.5 27.5t-24.5 68.5z" />
<glyph unicode="&#xe5;" horiz-adv-x="1099" d="M72 276q0 162 39 296.5t108.5 230.5t161.5 150.5t201 54.5q53 0 105 -12.5t107.5 -28t113 -29.5t120.5 -20q-16 -92 -27.5 -193.5t-21.5 -212.5l-18 -190q-12 -133 -13 -246v-51q0 -25 2 -50l-303 -28q2 180 19 387h-17q-47 -174 -150.5 -267.5t-232.5 -93.5 q-194 0 -194 303zM365 406q0 -90 18 -132.5t61 -42.5q27 0 64 36t73.5 106.5t69.5 175t51 242.5q-23 29 -47 42t-57 13q-39 0 -81 -33t-75.5 -91t-55 -139t-21.5 -177zM516 1217q0 70 47 115.5t115 45.5t115 -47t47 -114q0 -68 -47.5 -115t-114.5 -47q-70 0 -116 46t-46 116 zM592 1217q0 -35 25.5 -61t60.5 -26t59.5 26t24.5 61t-24.5 60.5t-59.5 25.5t-60.5 -25.5t-25.5 -60.5z" />
<glyph unicode="&#xe6;" horiz-adv-x="1576" d="M68 154q0 59 26.5 111t73.5 92t111.5 62.5t140.5 22.5q129 0 217 -47q14 121 21.5 202t7.5 122q0 82 -18.5 118.5t-67.5 36.5q-72 0 -128.5 -80.5t-105.5 -246.5l-213 59q152 401 516 402q100 0 167 -21.5t106 -71.5q119 92 272 93q322 0 322 -377v-27q0 -16 -3 -43 l-561 -59q-29 -104 -28 -166q0 -195 231 -195q133 0 295 78l33 -149q-98 -53 -205 -79t-229 -26q-90 0 -183.5 41t-199.5 119q-53 -76 -144.5 -117t-214.5 -41q-117 0 -178 50.5t-61 136.5zM354 203q0 -41 28 -66.5t77 -25.5q47 0 98 46t68 122q-57 41 -121 40 q-70 0 -110 -32.5t-40 -83.5zM987 647l6 -16l291 39q2 23 2 35v18q0 78 -21.5 114.5t-76.5 36.5q-57 0 -109.5 -57t-91.5 -170z" />
<glyph unicode="&#xe7;" horiz-adv-x="983" d="M61 293q0 70 15.5 145.5t44.5 147t67.5 137t85.5 117.5q156 168 369 168q299 0 299 -359v-20q0 -14 -2 -41l-240 -56q12 125 13 191q0 78 -18.5 114.5t-65.5 36.5q-35 0 -75 -32.5t-77 -100.5q-27 -47 -47 -100t-35.5 -109.5t-24 -111.5t-8.5 -105q0 -92 52.5 -133 t163.5 -41q78 0 153.5 19.5t153.5 58.5l35 -149q-190 -102 -408 -105l-27 -209q-10 -90 -41.5 -137t-66.5 -47q-53 0 -53 72q0 31 9 72.5t32 93.5l63 155q-367 19 -367 328z" />
<glyph unicode="&#xe8;" horiz-adv-x="1015" d="M49 346q0 76 18.5 152.5t53.5 147.5t83 131.5t107 105.5q166 125 389 125q252 0 252 -220q0 -66 -32.5 -124t-91 -101t-139.5 -68.5t-179 -25.5q-35 0 -63.5 4t-53.5 14q-8 -33 -12 -60.5t-4 -51.5q0 -123 55 -178.5t182 -55.5q129 0 283 80l45 -153q-100 -53 -208.5 -78 t-235.5 -25q-217 0 -333 98.5t-116 282.5zM426 610l6 -16q72 6 128 28.5t96 54.5t61.5 67.5t21.5 68.5q0 61 -67 61q-68 0 -135.5 -67.5t-110.5 -196.5zM407 1317q0 29 17.5 47t46.5 18q57 0 123 -67l202 -213l-22 -33l-215 109q-76 37 -114 69.5t-38 69.5z" />
<glyph unicode="&#xe9;" horiz-adv-x="1015" d="M49 346q0 76 18.5 152.5t53.5 147.5t83 131.5t107 105.5q166 125 389 125q252 0 252 -220q0 -66 -32.5 -124t-91 -101t-139.5 -68.5t-179 -25.5q-35 0 -63.5 4t-53.5 14q-8 -33 -12 -60.5t-4 -51.5q0 -123 55 -178.5t182 -55.5q129 0 283 80l45 -153q-100 -53 -208.5 -78 t-235.5 -25q-217 0 -333 98.5t-116 282.5zM426 610l6 -16q72 6 128 28.5t96 54.5t61.5 67.5t21.5 68.5q0 61 -67 61q-68 0 -135.5 -67.5t-110.5 -196.5zM536 1096l244 223q39 35 77 52.5t60 17.5q47 0 47 -56q0 -72 -184 -159l-231 -111z" />
<glyph unicode="&#xea;" horiz-adv-x="1015" d="M49 346q0 76 18.5 152.5t53.5 147.5t83 131.5t107 105.5q166 125 389 125q252 0 252 -220q0 -66 -32.5 -124t-91 -101t-139.5 -68.5t-179 -25.5q-35 0 -63.5 4t-53.5 14q-8 -33 -12 -60.5t-4 -51.5q0 -123 55 -178.5t182 -55.5q129 0 283 80l45 -153q-100 -53 -208.5 -78 t-235.5 -25q-217 0 -333 98.5t-116 282.5zM426 610l6 -16q72 6 128 28.5t96 54.5t61.5 67.5t21.5 68.5q0 61 -67 61q-68 0 -135.5 -67.5t-110.5 -196.5zM411 1085l254 297h74l180 -297l-82 -16l-151 176l-197 -176z" />
<glyph unicode="&#xeb;" horiz-adv-x="1015" d="M49 346q0 76 18.5 152.5t53.5 147.5t83 131.5t107 105.5q166 125 389 125q252 0 252 -220q0 -66 -32.5 -124t-91 -101t-139.5 -68.5t-179 -25.5q-35 0 -63.5 4t-53.5 14q-8 -33 -12 -60.5t-4 -51.5q0 -123 55 -178.5t182 -55.5q129 0 283 80l45 -153q-100 -53 -208.5 -78 t-235.5 -25q-217 0 -333 98.5t-116 282.5zM426 610l6 -16q72 6 128 28.5t96 54.5t61.5 67.5t21.5 68.5q0 61 -67 61q-68 0 -135.5 -67.5t-110.5 -196.5zM442 1208q0 47 36 82t79 35q39 0 63.5 -26.5t24.5 -73.5q0 -45 -36 -81t-79 -36q-41 0 -64.5 26.5t-23.5 73.5z M715 1204q0 49 34.5 85t79.5 36q37 0 62.5 -27.5t25.5 -68.5q0 -49 -33.5 -85t-80.5 -36q-39 0 -63.5 27.5t-24.5 68.5z" />
<glyph unicode="&#xec;" horiz-adv-x="595" d="M100 -12l91 968l331 48l-129 -1016h-293zM106 1317q0 29 17.5 47t46.5 18q57 0 123 -67l202 -213l-22 -33l-215 109q-76 37 -114 69.5t-38 69.5z" />
<glyph unicode="&#xed;" horiz-adv-x="595" d="M100 -12l91 968l331 48l-129 -1016h-293zM235 1096l244 223q39 35 77 52.5t60 17.5q47 0 47 -56q0 -72 -184 -159l-231 -111z" />
<glyph unicode="&#xee;" horiz-adv-x="595" d="M100 -12l91 968l331 48l-129 -1016h-293zM110 1085l254 297h74l180 -297l-82 -16l-151 176l-197 -176z" />
<glyph unicode="&#xef;" horiz-adv-x="595" d="M100 -12l91 968l331 48l-129 -1016h-293zM141 1208q0 47 36 82t79 35q39 0 63.5 -26.5t24.5 -73.5q0 -45 -36 -81t-79 -36q-41 0 -64.5 26.5t-23.5 73.5zM414 1204q0 49 34.5 85t79.5 36q37 0 62.5 -27.5t25.5 -68.5q0 -49 -33.5 -85t-80.5 -36q-39 0 -63.5 27.5 t-24.5 68.5z" />
<glyph unicode="&#xf0;" horiz-adv-x="1155" d="M123 401q0 135 41 246t116.5 191t182 125t237.5 49q-25 53 -71 106l-166 -102l-29 61l144 94q-94 88 -216 132l191 210q154 -70 266 -186l168 111l29 -78l-146 -90q106 -150 156.5 -304.5t50.5 -332.5q0 -154 -39 -278t-110.5 -211t-172 -133t-223.5 -46 q-195 0 -302 113.5t-107 322.5zM436 344q0 -231 117 -231q41 0 79 37.5t66.5 105.5t45 161t16.5 204q0 121 -31 181t-86 60q-39 0 -76 -35.5t-66.5 -103.5t-47 -164t-17.5 -215z" />
<glyph unicode="&#xf1;" horiz-adv-x="1161" d="M100 0l115 1018h318l-84 -455h12q74 207 186.5 309.5t257.5 102.5q182 0 183 -191v-20q0 -10 -5 -27l-114 -729l-312 -14l-6 10l97 526q6 31 8 53.5t2 34.5q0 86 -58 87q-74 0 -161.5 -175.5t-153.5 -529.5h-285zM432 1100q27 276 151 276q33 0 62.5 -18.5t57.5 -42 t56.5 -42t61.5 -18.5q37 0 58.5 30t45.5 91h35q-18 -276 -153 -276q-33 0 -62 18.5t-56.5 41t-57 41t-62.5 18.5q-35 0 -57.5 -29t-44.5 -90h-35z" />
<glyph unicode="&#xf2;" horiz-adv-x="1097" d="M70 403q0 137 40 249t110.5 191t170 122t219.5 43q197 0 305.5 -111t108.5 -303q0 -141 -40 -257t-112.5 -199t-172 -128t-218.5 -45q-199 0 -305 113.5t-106 324.5zM385 358q0 -125 25.5 -185t91.5 -60q41 0 77.5 35.5t65.5 102t46.5 162t17.5 216.5q0 115 -32 174 t-85 59q-39 0 -76 -34.5t-66.5 -99t-47 -158t-17.5 -212.5zM346 1317q0 29 17.5 47t46.5 18q57 0 123 -67l202 -213l-22 -33l-215 109q-76 37 -114 69.5t-38 69.5z" />
<glyph unicode="&#xf3;" horiz-adv-x="1097" d="M70 403q0 137 40 249t110.5 191t170 122t219.5 43q197 0 305.5 -111t108.5 -303q0 -141 -40 -257t-112.5 -199t-172 -128t-218.5 -45q-199 0 -305 113.5t-106 324.5zM385 358q0 -125 25.5 -185t91.5 -60q41 0 77.5 35.5t65.5 102t46.5 162t17.5 216.5q0 115 -32 174 t-85 59q-39 0 -76 -34.5t-66.5 -99t-47 -158t-17.5 -212.5zM475 1096l244 223q39 35 77 52.5t60 17.5q47 0 47 -56q0 -72 -184 -159l-231 -111z" />
<glyph unicode="&#xf4;" horiz-adv-x="1097" d="M70 403q0 137 40 249t110.5 191t170 122t219.5 43q197 0 305.5 -111t108.5 -303q0 -141 -40 -257t-112.5 -199t-172 -128t-218.5 -45q-199 0 -305 113.5t-106 324.5zM385 358q0 -125 25.5 -185t91.5 -60q41 0 77.5 35.5t65.5 102t46.5 162t17.5 216.5q0 115 -32 174 t-85 59q-39 0 -76 -34.5t-66.5 -99t-47 -158t-17.5 -212.5zM350 1085l254 297h74l180 -297l-82 -16l-151 176l-197 -176z" />
<glyph unicode="&#xf5;" horiz-adv-x="1097" d="M70 403q0 137 40 249t110.5 191t170 122t219.5 43q197 0 305.5 -111t108.5 -303q0 -141 -40 -257t-112.5 -199t-172 -128t-218.5 -45q-199 0 -305 113.5t-106 324.5zM385 358q0 -125 25.5 -185t91.5 -60q41 0 77.5 35.5t65.5 102t46.5 162t17.5 216.5q0 115 -32 174 t-85 59q-39 0 -76 -34.5t-66.5 -99t-47 -158t-17.5 -212.5zM363 1100q27 276 151 276q33 0 62.5 -18.5t57.5 -42t56.5 -42t61.5 -18.5q37 0 58.5 30t45.5 91h35q-18 -276 -153 -276q-33 0 -62 18.5t-56.5 41t-57 41t-62.5 18.5q-35 0 -57.5 -29t-44.5 -90h-35z" />
<glyph unicode="&#xf6;" horiz-adv-x="1097" d="M70 403q0 137 40 249t110.5 191t170 122t219.5 43q197 0 305.5 -111t108.5 -303q0 -141 -40 -257t-112.5 -199t-172 -128t-218.5 -45q-199 0 -305 113.5t-106 324.5zM385 358q0 -125 25.5 -185t91.5 -60q41 0 77.5 35.5t65.5 102t46.5 162t17.5 216.5q0 115 -32 174 t-85 59q-39 0 -76 -34.5t-66.5 -99t-47 -158t-17.5 -212.5zM381 1208q0 47 36 82t79 35q39 0 63.5 -26.5t24.5 -73.5q0 -45 -36 -81t-79 -36q-41 0 -64.5 26.5t-23.5 73.5zM654 1204q0 49 34.5 85t79.5 36q37 0 62.5 -27.5t25.5 -68.5q0 -49 -33.5 -85t-80.5 -36 q-39 0 -63.5 27.5t-24.5 68.5z" />
<glyph unicode="&#xf7;" horiz-adv-x="1705" d="M254 496v231h1198v-231h-1198zM688 205q0 70 49 118t117 48t116 -48.5t48 -117.5q0 -66 -46 -115t-118 -49q-68 0 -117 47t-49 117zM688 1016q0 70 49 118t117 48q33 0 62.5 -13.5t52 -36t36 -52t13.5 -64.5q0 -33 -12.5 -62.5t-35 -52t-53 -36t-65.5 -13.5 q-70 0 -117 48t-47 116z" />
<glyph unicode="&#xf8;" horiz-adv-x="1155" d="M100 -170l164 219q-76 72 -108.5 157t-32.5 195q0 137 39 249t110.5 192t170 123t219.5 43q68 0 127 -14.5t114 -47.5l129 158h101l-166 -209q57 -68 82.5 -142.5t25.5 -166.5q0 -135 -40 -249t-111.5 -197t-171 -129t-220.5 -46q-111 0 -200 41l-133 -176h-99zM436 328 q0 -14 2 -35l312 438q-25 131 -107 131q-41 0 -78 -37t-65.5 -103.5t-46 -160.5t-17.5 -207v-26zM459 184q31 -72 94 -71q80 0 137.5 124.5t67.5 366.5z" />
<glyph unicode="&#xf9;" horiz-adv-x="1093" d="M80 158q0 16 1 30.5t3 28.5l98 741l318 21l-92 -604q-2 -10 -2 -23v-20q0 -27 13 -42.5t32 -15.5q27 0 68.5 45.5t85.5 135.5t85 224t66 314h274l-98 -1034l-313 18l59 392h-16q-86 -205 -188.5 -304.5t-239.5 -99.5q-84 0 -119 45.5t-35 147.5zM358 1317q0 29 17.5 47 t46.5 18q57 0 123 -67l202 -213l-22 -33l-215 109q-76 37 -114 69.5t-38 69.5z" />
<glyph unicode="&#xfa;" horiz-adv-x="1093" d="M80 158q0 16 1 30.5t3 28.5l98 741l318 21l-92 -604q-2 -10 -2 -23v-20q0 -27 13 -42.5t32 -15.5q27 0 68.5 45.5t85.5 135.5t85 224t66 314h274l-98 -1034l-313 18l59 392h-16q-86 -205 -188.5 -304.5t-239.5 -99.5q-84 0 -119 45.5t-35 147.5zM487 1096l244 223 q39 35 77 52.5t60 17.5q47 0 47 -56q0 -72 -184 -159l-231 -111z" />
<glyph unicode="&#xfb;" horiz-adv-x="1093" d="M80 158q0 16 1 30.5t3 28.5l98 741l318 21l-92 -604q-2 -10 -2 -23v-20q0 -27 13 -42.5t32 -15.5q27 0 68.5 45.5t85.5 135.5t85 224t66 314h274l-98 -1034l-313 18l59 392h-16q-86 -205 -188.5 -304.5t-239.5 -99.5q-84 0 -119 45.5t-35 147.5zM362 1085l254 297h74 l180 -297l-82 -16l-151 176l-197 -176z" />
<glyph unicode="&#xfc;" horiz-adv-x="1093" d="M80 158q0 16 1 30.5t3 28.5l98 741l318 21l-92 -604q-2 -10 -2 -23v-20q0 -27 13 -42.5t32 -15.5q27 0 68.5 45.5t85.5 135.5t85 224t66 314h274l-98 -1034l-313 18l59 392h-16q-86 -205 -188.5 -304.5t-239.5 -99.5q-84 0 -119 45.5t-35 147.5zM393 1208q0 47 36 82 t79 35q39 0 63.5 -26.5t24.5 -73.5q0 -45 -36 -81t-79 -36q-41 0 -64.5 26.5t-23.5 73.5zM666 1204q0 49 34.5 85t79.5 36q37 0 62.5 -27.5t25.5 -68.5q0 -49 -33.5 -85t-80.5 -36q-39 0 -63.5 27.5t-24.5 68.5z" />
<glyph unicode="&#xfd;" horiz-adv-x="985" d="M18 963l324 45l182 -668h15l256 637h229l-657 -1489l-236 41l211 393l8 66zM467 1096l244 223q39 35 77 52.5t60 17.5q47 0 47 -56q0 -72 -184 -159l-231 -111z" />
<glyph unicode="&#xfe;" horiz-adv-x="1183" d="M88 -504l205 1798l315 49l-108 -755h10q90 211 189.5 314.5t222.5 103.5q104 0 150 -63.5t46 -203.5q0 -166 -41 -307t-110.5 -244.5t-160.5 -162t-192 -58.5q-47 0 -93 8.5t-95 24.5l-61 -504h-277zM451 166q49 -51 100 -51q45 0 91 37.5t83 104.5t60.5 158t23.5 197 q0 117 -61 117q-57 0 -142 -140t-155 -423z" />
<glyph unicode="&#xff;" horiz-adv-x="985" d="M18 963l324 45l182 -668h15l256 637h229l-657 -1489l-236 41l211 393l8 66zM373 1208q0 47 36 82t79 35q39 0 63.5 -26.5t24.5 -73.5q0 -45 -36 -81t-79 -36q-41 0 -64.5 26.5t-23.5 73.5zM646 1204q0 49 34.5 85t79.5 36q37 0 62.5 -27.5t25.5 -68.5q0 -49 -33.5 -85 t-80.5 -36q-39 0 -63.5 27.5t-24.5 68.5z" />
<glyph unicode="&#x131;" horiz-adv-x="595" d="M102 -12l91 968l331 48l-129 -1016h-293z" />
<glyph unicode="&#x152;" horiz-adv-x="1984" d="M92 539q0 182 52.5 329.5t149.5 252t236.5 160.5t313.5 56q152 0 293 -51l30 21h818l-48 -166l-471 -17l-49 -348l8 -16l437 12l-43 -194l-414 6l-19 -21l-47 -379l17 -14l516 29l-49 -183l-844 -32l4 43q-152 -61 -307 -62q-135 0 -243.5 40t-184.5 114t-116 180.5 t-40 239.5zM449 494q0 -182 62 -274.5t183 -92.5q82 0 150.5 47t118 135t77 214t27.5 284q0 186 -62.5 279.5t-181.5 93.5q-80 0 -148.5 -47.5t-118.5 -136.5t-78.5 -215.5t-28.5 -286.5z" />
<glyph unicode="&#x153;" horiz-adv-x="1753" d="M123 401q0 137 39 249t110.5 192t170 123t219.5 43q203 0 315 -125q139 125 315 125q150 0 239 -119t89 -340q0 -12 -1 -23.5t-1 -23.5h-567q-29 -96 -29 -166q0 -195 231 -195q133 0 295 78l33 -149q-106 -61 -220 -83t-247 -22q-182 0 -289 86q-133 -86 -293 -86 q-195 0 -302 113.5t-107 322.5zM436 344q0 -231 117 -231q41 0 79 37.5t66.5 105.5t45 161t16.5 204q0 121 -31 181t-86 60q-39 0 -76 -35.5t-66.5 -103.5t-47 -164t-17.5 -215zM1085 647l7 -16h294l3 35v16q0 193 -111 192q-47 0 -101.5 -57t-91.5 -170z" />
<glyph unicode="&#x178;" d="M-2 1276l387 49l201 -610l332 592h217l-488 -863l-57 -444h-322l56 471zM409 1538q0 47 36 82t79 35q39 0 63.5 -26.5t24.5 -73.5q0 -45 -36 -81t-79 -36q-41 0 -64.5 26.5t-23.5 73.5zM682 1534q0 49 34.5 85t79.5 36q37 0 62.5 -27.5t25.5 -68.5q0 -49 -33.5 -85 t-80.5 -36q-39 0 -63.5 27.5t-24.5 68.5z" />
<glyph unicode="&#x2c6;" d="M317 1085l254 297h74l180 -297l-82 -16l-151 176l-197 -176z" />
<glyph unicode="&#x2dc;" d="M330 1100q27 276 151 276q33 0 62.5 -18.5t57.5 -42t56.5 -42t61.5 -18.5q37 0 58.5 30t45.5 91h35q-18 -276 -153 -276q-33 0 -62 18.5t-56.5 41t-57 41t-62.5 18.5q-35 0 -57.5 -29t-44.5 -90h-35z" />
<glyph unicode="&#x2000;" horiz-adv-x="864" />
<glyph unicode="&#x2001;" horiz-adv-x="1728" />
<glyph unicode="&#x2002;" horiz-adv-x="864" />
<glyph unicode="&#x2003;" horiz-adv-x="1728" />
<glyph unicode="&#x2004;" horiz-adv-x="575" />
<glyph unicode="&#x2005;" horiz-adv-x="432" />
<glyph unicode="&#x2006;" horiz-adv-x="286" />
<glyph unicode="&#x2007;" horiz-adv-x="286" />
<glyph unicode="&#x2008;" horiz-adv-x="215" />
<glyph unicode="&#x2009;" horiz-adv-x="344" />
<glyph unicode="&#x200a;" horiz-adv-x="94" />
<glyph unicode="&#x2010;" horiz-adv-x="690" d="M51 389l29 223h487l-28 -223h-488z" />
<glyph unicode="&#x2011;" horiz-adv-x="690" d="M51 389l29 223h487l-28 -223h-488z" />
<glyph unicode="&#x2012;" horiz-adv-x="690" d="M51 389l29 223h487l-28 -223h-488z" />
<glyph unicode="&#x2013;" horiz-adv-x="894" d="M51 389l29 223h692l-27 -223h-694z" />
<glyph unicode="&#x2014;" horiz-adv-x="1259" d="M51 389l29 223h1057l-29 -223h-1057z" />
<glyph unicode="&#x2018;" horiz-adv-x="444" d="M88 803q84 334 258 532l88 -37q-123 -248 -172 -514z" />
<glyph unicode="&#x2019;" horiz-adv-x="444" d="M80 807q121 242 170 514l174 -18q-41 -166 -103.5 -298.5t-152.5 -234.5z" />
<glyph unicode="&#x201a;" horiz-adv-x="444" d="M-104 -338q61 123 103 252t67 264l176 -20q-84 -336 -258 -533z" />
<glyph unicode="&#x201c;" horiz-adv-x="724" d="M63 803q84 334 259 532l88 -37q-61 -123 -103.5 -250.5t-66.5 -263.5zM391 803q41 166 103.5 298t152.5 234l88 -37q-61 -123 -103 -250.5t-67 -263.5z" />
<glyph unicode="&#x201d;" horiz-adv-x="724" d="M51 807q121 242 170 514l174 -18q-41 -166 -103.5 -298.5t-152.5 -234.5zM377 807q121 242 170 514l174 -18q-41 -166 -103.5 -298.5t-152.5 -234.5z" />
<glyph unicode="&#x201e;" horiz-adv-x="724" d="M-104 -338q61 123 103 252t67 264l176 -20q-84 -336 -258 -533zM221 -338q61 123 103.5 252t66.5 264l176 -20q-84 -336 -258 -533z" />
<glyph unicode="&#x2022;" horiz-adv-x="643" d="M123 713q0 84 56.5 140t139.5 56q43 0 79 -15t63.5 -42t43 -62.5t15.5 -76.5q0 -84 -57 -142.5t-144 -58.5q-84 0 -140 57.5t-56 143.5z" />
<glyph unicode="&#x2026;" horiz-adv-x="2048" d="M57 82q0 59 37 98t90 39q43 0 70 -29.5t27 -78.5q0 -53 -38 -92t-89 -39q-41 0 -69 27.5t-28 74.5zM741 82q0 59 37 98t90 39q43 0 70 -29.5t27 -78.5q0 -53 -38 -92t-89 -39q-41 0 -69 27.5t-28 74.5zM1421 82q0 59 37 98t90 39q43 0 70 -29.5t27 -78.5q0 -53 -38 -92 t-89 -39q-41 0 -69 28.5t-28 73.5z" />
<glyph unicode="&#x202f;" horiz-adv-x="344" />
<glyph unicode="&#x2039;" horiz-adv-x="690" d="M123 475l397 389l139 -33l-329 -354l241 -358l-145 -33z" />
<glyph unicode="&#x203a;" horiz-adv-x="690" d="M31 119l327 358l-241 354l147 33l303 -389l-399 -389z" />
<glyph unicode="&#x205f;" horiz-adv-x="432" />
<glyph unicode="&#x20ac;" horiz-adv-x="1189" d="M-98 465l45 113h149q4 37 7 72.5t10 72.5h-181l45 115h170q43 111 115 200.5t167 153t208 97.5t235 34q84 0 167 -11.5t157 -37.5l-74 -195q-47 23 -112.5 34t-118.5 11q-152 0 -265.5 -78.5t-174.5 -207.5h583l-45 -115h-586q-10 -37 -13 -73t-3 -72h549l-41 -113h-489 q29 -129 124 -206t244 -77q57 0 123 10.5t119 30.5l-15 -209q-66 -20 -143.5 -28.5t-144.5 -8.5q-127 0 -233.5 32t-186.5 94.5t-130 153.5t-65 208h-196z" />
<glyph unicode="&#x2122;" horiz-adv-x="598" d="M14 1397v49h209v-49h-73v-195h-60v195h-76zM272 1202v244h84l58 -148l53 148h84v-244h-57v182l-68 -182h-27l-69 182v-182h-58z" />
<glyph unicode="&#xe000;" horiz-adv-x="1010" d="M0 1010h1010v-1010h-1010v1010z" />
<glyph unicode="&#xfb01;" horiz-adv-x="1193" d="M0 723l33 131h180q33 338 191.5 513t424.5 175q219 0 318 -102l-139 -193q-33 51 -74 78t-105 27q-272 0 -315 -498h205l-33 -131h-186l-113 -856h-307l115 856h-195zM682 -12l100 973l322 53l-131 -1026h-291z" />
<glyph unicode="&#xfb02;" horiz-adv-x="1210" d="M0 723l31 131h186q47 350 202.5 519t436.5 169q117 0 202 -23.5t144 -76.5q-76 -465 -111.5 -757t-35.5 -417q0 -86 27.5 -145.5t95.5 -106.5l-293 -55q-88 27 -116 96.5t-28 198.5q0 152 32 430.5t91 689.5h-14q-127 0 -210 -127t-116 -395h211l-30 -131h-195l-109 -856 h-307l111 856h-205z" />
<glyph unicode="&#xfb03;" horiz-adv-x="2263" d="M1769 -12l91 968l331 48l-129 -1016h-293zM1958 1356q0 53 39 92t88 39q41 0 67.5 -28.5t26.5 -72.5q0 -57 -38 -97t-87 -40q-41 0 -68.5 30t-27.5 77zM834 723l31 131h186q90 688 621 688q88 0 155.5 -21.5t126.5 -74.5l-106 -150q-29 43 -72 61.5t-102 18.5 q-123 0 -203 -130t-113 -392h381l-28 -131h-367l-107 -858h-307l109 858h-205zM0 723l31 131h186q90 688 621 688q88 0 155.5 -21.5t126.5 -74.5l-106 -150q-29 43 -72 61.5t-102 18.5q-123 0 -203 -130t-113 -392h381l-28 -131h-367l-107 -858h-307l109 858h-205z" />
<glyph unicode="&#xfb04;" horiz-adv-x="2263" d="M1782 293q0 260 172 1194l334 33q-203 -940 -203 -1239q0 -84 31.5 -146.5t103.5 -118.5l-293 -55q-82 39 -113.5 119t-31.5 213zM834 723l31 131h186q90 688 621 688q88 0 155.5 -21.5t126.5 -74.5l-106 -150q-29 43 -72 61.5t-102 18.5q-123 0 -203 -130t-113 -392h381 l-28 -131h-367l-107 -858h-307l109 858h-205zM0 723l31 131h186q90 688 621 688q88 0 155.5 -21.5t126.5 -74.5l-106 -150q-29 43 -72 61.5t-102 18.5q-123 0 -203 -130t-113 -392h381l-28 -131h-367l-107 -858h-307l109 858h-205z" />
</font>
</defs>
</svg>
